<?xml version="1.0" encoding="utf-8"?>
<!-- Generator: Adobe Illustrator 23.0.5, SVG Export Plug-In . SVG Version: 6.00 Build 0)  -->
<svg version="1.1" id="PRINT" xmlns="http://www.w3.org/2000/svg" xmlns:xlink="http://www.w3.org/1999/xlink" x="0px" y="0px"
	 viewBox="0 0 350 350" style="enable-background:new 0 0 350 350;" xml:space="preserve">
<style type="text/css">
	.st0{fill:url(#SVGID_1_);}
	.st1{fill:url(#SVGID_2_);}
	.st2{fill:url(#SVGID_3_);}
	.st3{fill:url(#SVGID_4_);}
	.st4{fill:#EE5423;}
	.st5{fill:url(#SVGID_5_);}
	.st6{fill:#F4F4F4;}
	.st7{opacity:0.4;fill:#DC78AA;}
	.st8{display:none;fill:#FFFFFF;}
	.st9{fill:none;}
	.st10{fill:url(#SVGID_6_);}
	.st11{fill:url(#SVGID_7_);}
	.st12{fill:#161616;}
	.st13{fill:url(#SVGID_8_);}
	.st14{fill:url(#SVGID_9_);}
	.st15{fill:url(#SVGID_10_);}
	.st16{fill:#F4F4F4;stroke:#F4F4F4;stroke-width:0.9489;stroke-miterlimit:10;}
	.st17{fill:#E3F3F7;}
	.st18{fill:#F05922;}
	.st19{opacity:0.28;fill:url(#SVGID_11_);}
	.st20{fill:#E5E3E3;}
	.st21{fill:#D74F27;}
	.st22{fill:#FC2516;}
	.st23{fill:#FFFFFF;}
	.st24{fill:#009933;}
</style>
<g>
	<path class="st22" d="M340.95,175.26v5.16c-0.15,1.25-0.25,2.51-0.45,3.75c-1.15,7.13-3.93,13.55-8.39,19.25
		c-2.36,3.01-5.18,5.52-8.09,7.96c-6.05,5.06-10.87,11.11-14.35,18.21c-4.69,9.59-6.55,19.71-5.45,30.33
		c0.41,3.99,0.56,7.97-0.11,11.94c-2.3,13.71-9.62,23.94-21.75,30.63c-6.89,3.81-14.38,5.26-22.24,4.77
		c-3.73-0.23-7.44-0.61-11.2-0.44c-7.9,0.35-15.38,2.29-22.44,5.8c-7.31,3.63-13.46,8.72-18.64,15.01
		c-1.35,1.64-2.73,3.27-4.27,4.72c-6.57,6.17-14.34,9.89-23.29,11.1c-0.85,0.11-1.69,0.31-2.53,0.47h-5.76
		c-1.04-0.18-2.08-0.39-3.13-0.55c-7.9-1.17-14.88-4.35-21.01-9.46c-2.78-2.32-5-5.14-7.35-7.84c-5.12-5.87-11.15-10.54-18.18-13.89
		c-9.69-4.62-19.9-6.22-30.55-5.06c-3.28,0.36-6.56,0.34-9.83-0.06c-10.07-1.25-18.62-5.56-25.53-12.99
		c-8.49-9.15-12.09-20.01-11.03-32.41c0.47-5.46,0.58-10.9-0.33-16.32c-2.43-14.39-9.46-26.05-20.79-35.19
		c-8.7-7.03-13.71-16.15-15.21-27.23c-0.1-0.74-0.37-1.46-0.56-2.19v-6.67c0.2-0.72,0.48-1.43,0.59-2.17
		c1.52-10.08,6.02-18.56,13.63-25.36c2.37-2.12,4.89-4.1,7.09-6.39c11.83-12.33,17.05-27.06,15.77-44.1
		c-0.17-2.32-0.44-4.64-0.37-6.95c0.43-14.89,6.95-26.49,19.37-34.61c8.48-5.55,17.93-7.33,27.99-6.2
		c4.63,0.52,9.29,0.46,13.91-0.26c14.63-2.3,26.55-9.3,35.83-20.82c6.76-8.4,15.5-13.41,26.12-15.16c1.19-0.2,2.39-0.37,3.59-0.56
		h5.76c0.54,0.1,1.08,0.23,1.63,0.29c8.59,0.96,16.15,4.26,22.72,9.89c2.51,2.15,4.55,4.72,6.72,7.19
		c12.9,14.65,29.09,21.11,48.53,19.43c3.63-0.31,7.25-0.49,10.89,0.03c10.5,1.49,19.29,6.18,26.21,14.19
		c7.61,8.81,10.84,19.15,9.91,30.74c-0.44,5.41-0.67,10.79,0.19,16.17c2.29,14.35,9.07,26.11,20.32,35.29
		c2.4,1.96,4.67,4.03,6.61,6.44c5.38,6.67,8.69,14.17,9.22,22.81C340.72,174.38,340.86,174.82,340.95,175.26z"/>
	<g>
		<g>
			<path class="st23" d="M155.23,100.93c-4.63,2.64-9.09,5.19-13.51,7.72c-0.24-0.15-0.39-0.2-0.48-0.32
				c-1.96-2.69-4.68-4.11-7.92-4.55c-3.15-0.42-6.27-0.29-9.16,1.25c-4.33,2.32-6.53,6.05-6.98,10.85
				c-0.34,3.62,0.38,7.03,2.29,10.17c1.88,3.08,4.56,4.93,8.11,5.55c2.98,0.52,5.94,0.5,8.85-0.38c2.62-0.8,4.65-2.34,5.97-5.09
				c-0.62-0.05-1.08-0.13-1.55-0.13c-2.83-0.01-5.66,0-8.49-0.01c-0.54,0-1.08-0.05-1.58-0.08c-0.34-1.27-0.4-11.71-0.12-13.39
				c1.07-0.37,26.59-0.47,28.38-0.11c0.05,0.08,0.15,0.16,0.16,0.24c0.11,4.29,0.31,8.58-0.54,12.84
				c-2.17,10.83-10.67,19.13-21.59,20.89c-7.04,1.14-13.96,0.66-20.39-2.67c-8.81-4.57-14.03-11.83-15.41-21.71
				c-0.89-6.4-0.27-12.67,2.81-18.44c5.16-9.65,13.22-15.03,24.24-15.73c7.04-0.45,13.54,1.19,19.39,5.19
				C150.7,95.09,153.19,97.63,155.23,100.93z"/>
			<path class="st23" d="M202.04,89.18c0,4.85,0,9.57,0,14.45c-0.67,0.04-1.26,0.1-1.84,0.1c-5.56,0.01-11.12,0-16.68,0.01
				c-0.59,0-1.18,0.05-1.88,0.08c0,2.03,0,3.92,0,5.99c0.63,0.04,1.21,0.11,1.79,0.11c4.9,0.01,9.8,0.01,14.71,0.01
				c0.59,0,1.19,0,1.89,0c0,4.88,0,9.55,0,14.39c-0.6,0.04-1.19,0.11-1.78,0.11c-4.9,0.01-9.8,0.01-14.71,0.01c-0.6,0-1.19,0-1.89,0
				c0,2.16,0,4.15,0,6.33c6.97,0,13.82,0,20.62,0c0.38,1.42,0.4,13.25,0.05,14.74c-12.23,0-24.48,0-36.71,0
				c-0.34-1.19-0.4-54.55-0.06-56.31C177.63,89.18,189.73,89.18,202.04,89.18z"/>
			<path class="st23" d="M219.11,145.36c0-4.43-0.01-8.91-0.01-13.4c0-4.5,0-8.99,0-13.49c0-4.49,0-8.97,0-13.61
				c-0.75-0.06-1.33-0.14-1.91-0.14c-3.18-0.01-6.37,0-9.55-0.01c-0.54,0-1.09-0.05-1.59-0.07c-0.35-1.3-0.4-13.75-0.1-15.33
				c1.15-0.3,40.97-0.35,42.59-0.03c0,5.05,0,10.12,0,15.36c-4.38,0.21-8.7-0.05-13.2,0.15c0,13.62,0,27.08,0,40.48
				C234.02,145.67,220.93,145.74,219.11,145.36z"/>
		</g>
		<g>
			<path class="st23" d="M110.19,241.2c0.01-12.36,7.38-22.56,18.77-25.94c12.31-3.65,25.31,0.6,32.17,12.39
				c2.31,3.98,3.21,8.34,3.29,12.92c0.23,13.09-8.6,22.58-18.39,25.59c-7.78,2.39-15.45,1.9-22.54-2.28
				C114.76,258.72,110.31,250.92,110.19,241.2z M124.86,240.82c0.02,7.2,5.25,12.38,12.48,12.37c7.19,0,12.48-5.27,12.47-12.41
				c0-7.23-5.31-12.49-12.58-12.46C130.06,228.35,124.84,233.62,124.86,240.82z"/>
			<path class="st23" d="M207.77,215.29c10.5,0,20.93,0,31.48,0c0,4.67,0,9.23,0,14.01c-5.65,0.02-11.22,0.03-16.91,0.05
				c0,2.24,0,4.29,0,6.53c0.59,0.04,1.17,0.11,1.75,0.11c4.29,0.01,8.59,0.01,12.88,0.01c0.6,0,1.19,0,1.73,0
				c0.37,1.28,0.48,11.42,0.18,14.12c-1.75,0.15-3.55,0.05-5.34,0.07c-1.87,0.02-3.74,0-5.61,0c-1.81,0-3.62,0-5.58,0
				c-0.05,0.72-0.13,1.3-0.13,1.89c-0.01,4.09,0,8.19-0.01,12.28c0,0.59-0.06,1.19-0.09,1.88c-4.86,0-9.58,0-14.29,0
				C207.49,265.03,207.42,217.17,207.77,215.29z"/>
			<path class="st23" d="M201.29,250.18c-2.92,0-5.64,0-8.37,0c-2.72,0-5.43,0-8.35,0c0,5.4,0,10.63,0,15.79
				c-1.36,0.44-13.02,0.49-14.56,0.09c0-16.87,0-33.76,0-50.88c10.57-0.01,21.04-0.01,31.61,0c0,4.75,0,9.28,0,14
				c-0.58,0.04-1.16,0.13-1.74,0.13c-4.45,0.01-8.89,0.01-13.34,0.01c-0.59,0-1.18,0-1.89,0c0,2.3,0,4.39,0,6.6
				c5.58,0.2,11.07-0.05,16.62,0.15C201.29,240.82,201.29,245.39,201.29,250.18z"/>
		</g>
		<g>
			<path class="st23" d="M142.77,180.41c-0.02-5.15,0.68-10.18,2.85-14.91c1.91-4.15,4.71-7.52,8.84-9.65
				c2.17-1.12,4.5-1.79,6.94-2.02c7.23-0.68,13.67,0.87,18.53,6.72c2.5,3.01,4.06,6.51,4.89,10.31c1.65,7.55,1.57,15.05-1.01,22.4
				c-1.52,4.34-4.01,8.02-7.88,10.66c-2.65,1.8-5.62,2.75-8.77,3.07c-4.29,0.44-8.48,0.03-12.41-1.89c-4.28-2.09-7.13-5.55-9.1-9.79
				C143.46,190.59,142.76,185.56,142.77,180.41z M157.25,180c0.17,2,0.25,3.61,0.46,5.21c0.24,1.81,0.7,3.57,1.73,5.12
				c2.33,3.5,7.44,3.55,9.69,0.01c0.74-1.17,1.23-2.56,1.54-3.91c0.82-3.64,0.78-7.33,0.24-11c-0.27-1.81-0.77-3.55-1.8-5.11
				c-2.16-3.28-7.44-3.35-9.54-0.01c-0.71,1.13-1.26,2.45-1.54,3.75C157.6,176.14,157.46,178.26,157.25,180z"/>
			<path class="st23" d="M126.09,191.83c2.31,0,4.61,0,6.92,0c2.31,0,4.62,0,7.04,0c0,4.77,0,9.34,0,13.88
				c-1.25,0.31-34.71,0.39-36.72,0.08c-0.04-0.43-0.13-0.91-0.14-1.39c-0.01-2.63,0.01-5.26-0.02-7.88
				c-0.01-0.81,0.23-1.43,0.79-2.03c5.95-6.41,11.87-12.84,17.8-19.27c0.51-0.56,1.07-1.09,1.51-1.7c0.41-0.57,0.8-1.19,1.01-1.84
				c0.59-1.87-0.47-3.49-2.42-3.74c-2.25-0.29-4.08,0.51-5.41,2.35c-0.56,0.77-0.99,1.63-1.47,2.45
				c-1.09-0.22-10.32-5.14-12.78-6.83c0.2-0.45,0.38-0.95,0.63-1.43c2.84-5.5,7.27-8.99,13.33-10.28
				c5.71-1.21,11.16-0.47,16.15,2.73c5.17,3.32,7.09,8.2,6.75,14.14c-0.17,3.05-1.12,5.88-3,8.29c-2.26,2.91-4.64,5.73-7,8.56
				c-1,1.2-2.07,2.32-3.12,3.48C125.99,191.54,126.04,191.69,126.09,191.83z"/>
			<path class="st23" d="M232.95,207.1c-7.69,0.17-12.7-5.66-13.81-10.56c-1.95-8.62,4.12-16.69,12.95-17.12
				c5.38-0.26,9.74,1.66,12.73,6.15c2.96,4.44,3.2,9.25,0.8,13.97c-2.4,4.72-6.41,7.27-11.77,7.55
				C233.55,207.12,233.25,207.1,232.95,207.1z M232.95,196.88c1.98,0,3.54-1.55,3.57-3.55c0.03-2.08-1.55-3.71-3.59-3.69
				c-2,0.01-3.44,1.53-3.44,3.64C229.49,195.38,230.93,196.88,232.95,196.88z"/>
			<path class="st23" d="M202.33,181.38c-7.86,0.14-12.66-5.62-13.84-10.33c-2.12-8.49,3.92-16.84,12.65-17.33
				c6.13-0.35,10.97,2.01,13.75,7.51C219.84,170.97,212.52,181.59,202.33,181.38z M198.76,167.51c-0.02,2.05,1.47,3.62,3.45,3.65
				c1.92,0.03,3.56-1.57,3.63-3.53c0.07-2.08-1.48-3.67-3.57-3.67C200.22,163.95,198.78,165.42,198.76,167.51z"/>
			<path class="st23" d="M202.52,200.73c-0.32-0.16-0.69-0.32-1.03-0.51c-1.32-0.74-2.63-1.49-4.13-2.35
				c11.51-12.19,22.9-24.26,34.31-36.35c0.48,0.25,0.84,0.42,1.19,0.62c1.31,0.75,2.62,1.5,3.93,2.25
				C236.28,165.45,204.17,199.47,202.52,200.73z"/>
		</g>
	</g>
</g>
</svg>
