<svg id="_Layer_" data-name="&lt;Layer&gt;" xmlns="http://www.w3.org/2000/svg" viewBox="0 0 480 947"><defs><style>.cls-1{fill:#093;}.cls-2{fill:#fff;}</style></defs><title>20% banner</title><rect class="cls-1" x="-73.37" y="-70.47" width="629.11" height="1076.43"/><path class="cls-2" d="M68.31,315.06V290.64l43.57-46a107.76,107.76,0,0,0,9.58-11.55,15.49,15.49,0,0,0,3-8.73,10.54,10.54,0,0,0-3.1-7.89q-3.11-3-8.55-3-11.64,0-17.65,13.71L66.24,211Q72.63,196.18,85,188.47a50.92,50.92,0,0,1,27.43-7.7q18.78,0,32.21,11.17t13.43,30.52a42.84,42.84,0,0,1-5.36,21.12A99.78,99.78,0,0,1,137,264l-17.88,18.62h41.19v32.49Z"/><path class="cls-2" d="M263.36,299.19q-14.37,18.69-40.1,18.69t-40.1-18.69q-14.37-18.69-14.37-49.87t14.37-49.87q14.37-18.67,40.1-18.68t40.1,18.68q14.37,18.69,14.37,49.87T263.36,299.19Zm-61-49.87q0,35.88,20.85,35.88t20.85-35.88q0-35.87-20.85-35.87T202.41,249.32Z"/><path class="cls-2" d="M319.8,248.19q-14.64,0-24.6-9.86a33.68,33.68,0,0,1,0-47.8q9.94-9.76,24.6-9.76t24.42,9.76a34.13,34.13,0,0,1-.09,47.9A33.22,33.22,0,0,1,319.8,248.19Zm-15,46.21,86.4-93.91L404.33,208l-86.59,93.72Zm14.84-70.06a9.21,9.21,0,0,0,7-2.91,10,10,0,0,0,2.72-7,9.61,9.61,0,0,0-2.72-6.95,9.36,9.36,0,0,0-7-2.82,9.12,9.12,0,0,0-6.86,2.82,9.57,9.57,0,0,0-2.72,6.95,9.8,9.8,0,0,0,2.72,7.13A9.12,9.12,0,0,0,319.62,224.34Zm72.87,93.35q-14.83,0-24.7-9.77a34,34,0,0,1,0-47.89q9.87-9.76,24.7-9.77,14.65,0,24.42,9.86a32.79,32.79,0,0,1,9.77,23.95,32.3,32.3,0,0,1-9.86,23.85A33.25,33.25,0,0,1,392.49,317.69Zm-7-26.67a9.12,9.12,0,0,0,6.86,2.82,9,9,0,0,0,6.85-2.92,9.71,9.71,0,0,0,2.72-6.85,9.88,9.88,0,0,0-2.72-7.14,9.74,9.74,0,0,0-13.71,0,9.84,9.84,0,0,0-2.72,7.14A9.59,9.59,0,0,0,385.45,291Z"/><path class="cls-2" d="M187.67,454.58q-20,19.82-48.93,19.82T89.81,454.58q-20-19.81-20-48.74t20-48.74q20-19.82,48.93-19.81t48.93,19.81q20,19.81,20,48.74T187.67,454.58Zm-74.28-23.1q10.14,10,25.35,10t25.36-10q10.14-10.05,10.14-25.64T164.1,380.2q-10.14-10-25.36-10t-25.35,10q-10.15,10.05-10.15,25.64T113.39,431.48Z"/><path class="cls-2" d="M304,372.6H256.88V394h46.21V426.5H256.88v45.08H223.26V340.1H304Z"/><path class="cls-2" d="M401.32,372.6H354.18V394h46.2V426.5h-46.2v45.08H320.55V340.1h80.77Z"/><path class="cls-2" d="M174.1,628.1l-6.3-19H123.05l-5.67,19H81l41.9-131.48h42.33L208.71,628.1Zm-42.4-47.89h26.48L144.85,535.5Z"/><path class="cls-2" d="M251.91,595.61h45.26V628.1H218.29V496.62h33.62Z"/><path class="cls-2" d="M343,595.61h45.27V628.1H309.38V496.62H343Z"/><path class="cls-2" d="M85.16,648.82h20.31v79.44H85.16Z"/><path class="cls-2" d="M172.42,648.82v19.63H152.79v59.81H132.48V668.45H112.85V648.82Z"/><path class="cls-2" d="M200.11,709.19h30.76v19.07H179.8V648.82h50.5v18.95H200.11v11h27.35V697.5H200.11Z"/><path class="cls-2" d="M321.53,648.82v79.44h-20.2V685.48L282,717.36h-2l-19.18-31.77v42.67H240.51V648.82h20.31L281,682.75l20.31-33.93Z"/><path class="cls-2" d="M361.25,730q-12.6,0-20.88-5.33a28.16,28.16,0,0,1-11.57-14.42l17.36-10.1q4.43,10.56,15.66,10.56,9.3,0,9.3-5.29c0-2.32-1.79-4.2-5.36-5.62q-2.26-.94-10-3.16-10.89-3.18-17.25-8.91t-6.35-16q0-11,7.89-17.81t19.68-6.81a33.66,33.66,0,0,1,17.71,4.65,30,30,0,0,1,11.8,13.51l-17,10q-3.75-8.85-12.37-8.85a8.74,8.74,0,0,0-5.51,1.49,4.6,4.6,0,0,0-1.87,3.76q0,2.63,2.78,4.45t10.81,4.22l9.25,3.33a37.88,37.88,0,0,1,7.79,4.07,17.21,17.21,0,0,1,6.25,7.13,24,24,0,0,1,2.05,10.25q0,11.68-8.29,18.27T361.25,730Z"/><path class="cls-2" d="M73.78,770a7.28,7.28,0,0,1,5.44,2.25,8.26,8.26,0,0,1,0,11.18,7.29,7.29,0,0,1-5.44,2.26H67.39V770Zm0,11.81a3.51,3.51,0,0,0,2.67-1.09,4.54,4.54,0,0,0,0-5.76,3.54,3.54,0,0,0-2.67-1.09H71.52v7.94Z"/><path class="cls-2" d="M83.26,770h4v15.69h-4Z"/><path class="cls-2" d="M95.1,786.05A7.51,7.51,0,0,1,91,785a5.52,5.52,0,0,1-2.28-2.85l3.43-2a3.1,3.1,0,0,0,3.09,2.08c1.23,0,1.84-.35,1.84-1,0-.46-.35-.83-1.06-1.11a19.81,19.81,0,0,0-2-.63,8.52,8.52,0,0,1-3.4-1.76,4,4,0,0,1-1.26-3.15A4.43,4.43,0,0,1,90.92,771a5.76,5.76,0,0,1,3.89-1.34,6.64,6.64,0,0,1,3.49.92,5.81,5.81,0,0,1,2.33,2.67l-3.36,2a2.52,2.52,0,0,0-2.44-1.75,1.77,1.77,0,0,0-1.09.29,1,1,0,0,0-.37.75,1,1,0,0,0,.55.88,9.59,9.59,0,0,0,2.14.83l1.82.66a7.36,7.36,0,0,1,1.54.8,3.42,3.42,0,0,1,1.24,1.41,4.7,4.7,0,0,1,.4,2,4.35,4.35,0,0,1-1.64,3.61A6.72,6.72,0,0,1,95.1,786.05Z"/><path class="cls-2" d="M110.09,786.05a7.91,7.91,0,0,1-5.86-2.34,8.51,8.51,0,0,1,0-11.68,7.91,7.91,0,0,1,5.86-2.34,8,8,0,0,1,4,1,7.48,7.48,0,0,1,2.84,2.71l-3.47,2a3.25,3.25,0,0,0-1.33-1.32,4.12,4.12,0,0,0-2-.48,4,4,0,0,0-3,1.18,4.67,4.67,0,0,0,0,6.16,4,4,0,0,0,3,1.18,4.12,4.12,0,0,0,2-.48,3.18,3.18,0,0,0,1.33-1.34l3.47,2a7.33,7.33,0,0,1-2.83,2.72A8,8,0,0,1,110.09,786.05Z"/><path class="cls-2" d="M131.42,783.69a8.41,8.41,0,0,1-11.68,0,8.31,8.31,0,0,1,0-11.64,8.41,8.41,0,0,1,11.68,0,8.28,8.28,0,0,1,0,11.64Zm-8.86-2.76a4.41,4.41,0,0,0,6.05,0,4.26,4.26,0,0,0-3-7.32,4.31,4.31,0,0,0-3,7.32Z"/><path class="cls-2" d="M146.12,784.55a7.41,7.41,0,0,1-8.94,0,5,5,0,0,1-1.74-4V770h4v10.15c0,1.31.73,2,2.19,2s2.2-.66,2.2-2V770h4v10.53A5,5,0,0,1,146.12,784.55Z"/><path class="cls-2" d="M158.82,770h4v15.69h-3.09l-5.54-7.89v7.89h-4V770h3.11l5.54,7.89Z"/><path class="cls-2" d="M176.06,770v3.87h-3.88v11.82h-4V773.9h-3.88V770Z"/><path class="cls-2" d="M193.36,770v3.87h-3.88v11.82h-4V773.9h-3.88V770Z"/><path class="cls-2" d="M203.46,785.72l-.75-2.27h-5.34l-.67,2.27h-4.35l5-15.69h5.05l5.19,15.69ZM198.4,780h3.16L200,774.67Z"/><path class="cls-2" d="M221.74,785.72h-4.49l-4.5-7v7h-4V770h4v6.59L217,770h4.48l-5,7.62Z"/><path class="cls-2" d="M226.89,782H233v3.77H222.88V770h10v3.74h-6v2.17h5.4v3.7h-5.4Z"/><path class="cls-2" d="M243.52,770h4v15.69h-3.09l-5.54-7.89v7.89h-4V770H238l5.53,7.89Z"/><path class="cls-2" d="M264.85,785.72l-.75-2.27h-5.34l-.67,2.27h-4.35l5-15.69h5.06L269,785.72ZM259.8,780H263l-1.6-5.33Z"/><path class="cls-2" d="M279.77,770v3.87h-3.88v11.82h-4V773.9H268V770Z"/><path class="cls-2" d="M293.89,786.05a8.18,8.18,0,1,1,0-16.36,8,8,0,0,1,3.94,1,7.58,7.58,0,0,1,2.85,2.71l-3.48,2a3.19,3.19,0,0,0-1.33-1.32,4.44,4.44,0,0,0-5,.7,4.7,4.7,0,0,0,0,6.16,4.44,4.44,0,0,0,5,.7,3.13,3.13,0,0,0,1.33-1.34l3.48,2a7.36,7.36,0,0,1-2.84,2.72A8,8,0,0,1,293.89,786.05Z"/><path class="cls-2" d="M310.54,770h4v15.69h-4v-6h-4.41v6h-4V770h4v5.8h4.41Z"/><path class="cls-2" d="M321,782h6.08v3.77H317V770h10v3.74h-6v2.17h5.4v3.7H321Z"/><path class="cls-2" d="M336.47,786.05a7.91,7.91,0,0,1-5.86-2.34,8.51,8.51,0,0,1,0-11.68,7.91,7.91,0,0,1,5.86-2.34,8,8,0,0,1,3.95,1,7.58,7.58,0,0,1,2.85,2.71l-3.48,2a3.25,3.25,0,0,0-1.33-1.32,4.1,4.1,0,0,0-2-.48,4,4,0,0,0-3,1.18,4.67,4.67,0,0,0,0,6.16,4,4,0,0,0,3,1.18,4.1,4.1,0,0,0,2-.48,3.18,3.18,0,0,0,1.33-1.34l3.48,2a7.43,7.43,0,0,1-2.84,2.72A8,8,0,0,1,336.47,786.05Z"/><path class="cls-2" d="M357.7,785.72h-4.48l-4.51-7v7h-4V770h4v6.59L353,770h4.49l-5,7.62Z"/><path class="cls-2" d="M371.07,783.69a8.41,8.41,0,0,1-11.68,0,8.31,8.31,0,0,1,0-11.64,8.41,8.41,0,0,1,11.68,0,8.28,8.28,0,0,1,0,11.64Zm-8.86-2.76a4.41,4.41,0,0,0,6.05,0,4.26,4.26,0,0,0-3-7.32,4.31,4.31,0,0,0-3,7.32Z"/><path class="cls-2" d="M385.77,784.55a7.41,7.41,0,0,1-8.94,0,5,5,0,0,1-1.74-4V770h4v10.15c0,1.31.73,2,2.19,2s2.2-.66,2.2-2V770h4v10.53A5,5,0,0,1,385.77,784.55Z"/><path class="cls-2" d="M400.58,770v3.87H396.7v11.82h-4V773.9h-3.88V770Z"/><path class="cls-2" d="M180,789.24v3.88h-3.88v11.81h-4V793.12h-3.88v-3.88Z"/><path class="cls-2" d="M193.82,803.76l-3.07,1.77-1.32-1.43a7.44,7.44,0,0,1-4.08,1.16,6.06,6.06,0,0,1-4.1-1.33,4.36,4.36,0,0,1-1.55-3.46,4.91,4.91,0,0,1,2.53-4.37,5,5,0,0,1-.71-2.56,4.32,4.32,0,0,1,1.44-3.33,5.34,5.34,0,0,1,3.71-1.31,5.49,5.49,0,0,1,5.4,3.52l-3.38,2c-.42-1.12-1.05-1.68-1.88-1.68a1.21,1.21,0,0,0-.91.33,1.09,1.09,0,0,0-.33.82,1.68,1.68,0,0,0,.19.71,3.45,3.45,0,0,0,.37.58c.13.14.36.39.68.76l2.64,3a11.47,11.47,0,0,0,.7-2.3l3.22,1.85a11,11,0,0,1-1.46,3.2Zm-8.07-2a3.18,3.18,0,0,0,1.32-.27l-2.64-2.87a1.93,1.93,0,0,0-.67,1.5,1.55,1.55,0,0,0,.5,1.18A2.13,2.13,0,0,0,185.75,801.79Z"/><path class="cls-2" d="M202.07,805.26a8.18,8.18,0,1,1,0-16.36,8,8,0,0,1,3.94,1,7.58,7.58,0,0,1,2.85,2.71l-3.47,2a3.2,3.2,0,0,0-1.34-1.31,4,4,0,0,0-2-.49,4.08,4.08,0,0,0-3,1.18,4.71,4.71,0,0,0,0,6.17,4.45,4.45,0,0,0,5,.69,3.24,3.24,0,0,0,1.34-1.33l3.47,2a7.5,7.5,0,0,1-2.83,2.73A8.14,8.14,0,0,1,202.07,805.26Z"/><path class="cls-2" d="M215.45,789.24l-1.88,7h-3l.79-7Z"/><path class="cls-2" d="M222.51,805.26a7.48,7.48,0,0,1-4.12-1,5.54,5.54,0,0,1-2.29-2.85l3.43-2a3.1,3.1,0,0,0,3.09,2.08c1.23,0,1.84-.34,1.84-1,0-.46-.35-.83-1.06-1.11-.3-.13-1-.33-2-.63a8.51,8.51,0,0,1-3.4-1.75,4,4,0,0,1-1.26-3.15,4.42,4.42,0,0,1,1.56-3.52,5.74,5.74,0,0,1,3.89-1.35,6.7,6.7,0,0,1,3.5.92,5.93,5.93,0,0,1,2.33,2.67l-3.36,2a2.53,2.53,0,0,0-2.45-1.75,1.72,1.72,0,0,0-1.08.29.93.93,0,0,0-.38.75,1.06,1.06,0,0,0,.55.88,9.11,9.11,0,0,0,2.14.83l1.83.66a7.56,7.56,0,0,1,1.53.8,3.42,3.42,0,0,1,1.24,1.41,4.75,4.75,0,0,1,.4,2,4.34,4.34,0,0,1-1.63,3.6A6.75,6.75,0,0,1,222.51,805.26Z"/><path class="cls-2" d="M244.9,804.93l-.76-2.27H238.8l-.67,2.27h-4.35l5-15.69h5.06L249,804.93Zm-5.06-5.72H243l-1.59-5.33Z"/><path class="cls-2" d="M256.27,789.24a5.56,5.56,0,0,1,4,1.54,5.64,5.64,0,0,1,0,7.89,5.52,5.52,0,0,1-4,1.55h-2.09v4.71h-4V789.24Zm0,7.17a1.55,1.55,0,0,0,1.13-.47,1.68,1.68,0,0,0,.46-1.21,1.66,1.66,0,0,0-.46-1.2,1.54,1.54,0,0,0-1.13-.46h-2.09v3.34Z"/><path class="cls-2" d="M269.54,789.24a5.56,5.56,0,0,1,4,1.54,5.64,5.64,0,0,1,0,7.89,5.52,5.52,0,0,1-4,1.55h-2.09v4.71h-4V789.24Zm0,7.17a1.55,1.55,0,0,0,1.13-.47,1.68,1.68,0,0,0,.46-1.21,1.66,1.66,0,0,0-.46-1.2,1.54,1.54,0,0,0-1.13-.46h-2.09v3.34Z"/><path class="cls-2" d="M280.72,801.05h5.4v3.88h-9.41V789.24h4Z"/><path class="cls-2" d="M298.92,789.24l-5.29,9.66v6h-4v-6l-5.29-9.7h4.5l2.78,5.8,2.8-5.8Z"/></svg>