<?xml version="1.0" encoding="utf-8"?>
<!-- Generator: Adobe Illustrator 23.0.5, SVG Export Plug-In . SVG Version: 6.00 Build 0)  -->
<svg version="1.1" id="PRINT" xmlns="http://www.w3.org/2000/svg" xmlns:xlink="http://www.w3.org/1999/xlink" x="0px" y="0px"
	 viewBox="0 0 350 350" style="enable-background:new 0 0 350 350;" xml:space="preserve">
<style type="text/css">
	.st0{fill:#FC2516;}
	.st1{fill:#FFFFFF;}
	.st2{fill:url(#SVGID_1_);}
	.st3{fill:url(#SVGID_2_);}
	.st4{fill:url(#SVGID_3_);}
	.st5{fill:url(#SVGID_4_);}
	.st6{fill:#EE5423;}
	.st7{fill:url(#SVGID_5_);}
	.st8{fill:#F4F4F4;}
	.st9{opacity:0.4;fill:#DC78AA;}
	.st10{display:none;fill:#FFFFFF;}
	.st11{fill:none;}
	.st12{fill:url(#SVGID_6_);}
	.st13{fill:url(#SVGID_7_);}
	.st14{fill:#161616;}
	.st15{fill:url(#SVGID_8_);}
	.st16{fill:url(#SVGID_9_);}
	.st17{fill:url(#SVGID_10_);}
	.st18{fill:#F4F4F4;stroke:#F4F4F4;stroke-width:0.9489;stroke-miterlimit:10;}
	.st19{fill:#E3F3F7;}
	.st20{fill:#F05922;}
	.st21{opacity:0.28;fill:url(#SVGID_11_);}
	.st22{fill:#E5E3E3;}
	.st23{fill:#D74F27;}
	.st24{fill:#009933;}
</style>
<g>
	<path class="st0" d="M340.95,175.26v5.16c-0.15,1.25-0.25,2.51-0.45,3.75c-1.15,7.13-3.93,13.55-8.39,19.25
		c-2.36,3.01-5.18,5.52-8.09,7.96c-6.05,5.06-10.87,11.11-14.35,18.21c-4.69,9.59-6.55,19.71-5.45,30.33
		c0.41,3.99,0.56,7.97-0.11,11.94c-2.3,13.71-9.62,23.94-21.75,30.63c-6.89,3.81-14.38,5.26-22.24,4.77
		c-3.73-0.23-7.44-0.61-11.2-0.44c-7.9,0.35-15.38,2.29-22.44,5.8c-7.31,3.63-13.46,8.72-18.64,15.01
		c-1.35,1.64-2.73,3.27-4.27,4.72c-6.57,6.17-14.34,9.89-23.29,11.1c-0.85,0.11-1.69,0.31-2.53,0.47h-5.76
		c-1.04-0.18-2.08-0.39-3.13-0.55c-7.9-1.17-14.88-4.35-21.01-9.46c-2.78-2.32-5-5.14-7.35-7.84c-5.12-5.87-11.15-10.54-18.18-13.89
		c-9.69-4.62-19.9-6.22-30.55-5.06c-3.28,0.36-6.56,0.34-9.83-0.06c-10.07-1.25-18.62-5.56-25.53-12.99
		c-8.49-9.15-12.09-20.01-11.03-32.41c0.47-5.46,0.58-10.9-0.33-16.32c-2.43-14.39-9.46-26.05-20.79-35.19
		c-8.7-7.03-13.71-16.15-15.21-27.23c-0.1-0.74-0.37-1.46-0.56-2.19v-6.67c0.2-0.72,0.48-1.43,0.59-2.17
		c1.52-10.08,6.02-18.56,13.63-25.36c2.37-2.12,4.89-4.1,7.09-6.39c11.83-12.33,17.05-27.06,15.77-44.1
		c-0.17-2.32-0.44-4.64-0.37-6.95c0.43-14.89,6.95-26.49,19.37-34.61c8.48-5.55,17.93-7.33,27.99-6.2
		c4.63,0.52,9.29,0.46,13.91-0.26c14.63-2.3,26.55-9.3,35.83-20.82c6.76-8.4,15.5-13.41,26.12-15.16c1.19-0.2,2.39-0.37,3.59-0.56
		h5.76c0.54,0.1,1.08,0.23,1.63,0.29c8.59,0.96,16.15,4.26,22.72,9.89c2.51,2.15,4.55,4.72,6.72,7.19
		c12.9,14.65,29.09,21.11,48.53,19.43c3.63-0.31,7.25-0.49,10.89,0.03c10.5,1.49,19.29,6.18,26.21,14.19
		c7.61,8.81,10.84,19.15,9.91,30.74c-0.44,5.41-0.67,10.79,0.19,16.17c2.29,14.35,9.07,26.11,20.32,35.29
		c2.4,1.96,4.67,4.03,6.61,6.44c5.38,6.67,8.69,14.17,9.22,22.81C340.72,174.38,340.86,174.82,340.95,175.26z"/>
	<g>
		<g>
			<path class="st1" d="M155.1,101c-4.6,2.63-9.07,5.18-13.52,7.72c-0.25-0.24-0.41-0.36-0.53-0.51c-5.99-7.11-17.84-5.98-22.3,2.12
				c-3.04,5.53-1.89,13.73,2.56,18.19c1.47,1.47,3.23,2.43,5.23,2.91c3.3,0.79,6.62,0.78,9.88-0.18c2.09-0.62,3.84-1.79,5.1-3.61
				c0.28-0.4,0.49-0.84,0.88-1.53c-2.16-0.12-4.06-0.05-5.95-0.06c-1.91-0.01-3.82,0-5.67,0c-0.42-1.29-0.48-12.04-0.13-13.53
				c1.29-0.33,27.09-0.34,28.39,0c0.04,0.09,0.12,0.18,0.12,0.27c0.06,4.64,0.41,9.31-0.83,13.87c-3,10.95-10.12,17.64-21.24,19.75
				c-7,1.33-13.95,0.73-20.39-2.58c-8.82-4.53-14.08-11.78-15.48-21.65c-0.9-6.39-0.32-12.67,2.74-18.44
				c5.15-9.73,13.24-15.13,24.32-15.83c6.98-0.44,13.44,1.18,19.25,5.12c2.83,1.92,5.22,4.3,7.11,7.16
				C154.8,100.36,154.89,100.59,155.1,101z"/>
			<path class="st1" d="M165.39,145.35c0-18.65,0-37.32,0-55.98c1.14-0.35,34.77-0.43,36.56-0.07c0,4.7,0,9.43,0,14.34
				c-0.59,0.04-1.17,0.11-1.75,0.11c-5.56,0.01-11.12,0.01-16.68,0.01c-0.6,0-1.19,0-1.73,0c-0.43,1.34-0.46,4.55-0.06,6.15
				c5.99,0,12.03,0,18,0c0.43,1.27,0.5,12.72,0.11,14.51c-5.99,0-12.03,0-17.99,0c-0.48,1.3-0.54,4.6-0.13,6.32
				c6.8,0,13.65,0,20.43,0c0.43,1.24,0.53,12.75,0.19,14.61C201.11,145.72,166.86,145.74,165.39,145.35z"/>
			<path class="st1" d="M235.25,145.54c-5.5,0-10.73,0-16.11,0c-0.22-3.45-0.08-6.82-0.1-10.19c-0.03-3.39-0.01-6.77-0.01-10.16
				c0-3.33,0-6.67,0-10c0-3.38,0-6.75,0-10.3c-0.72-0.06-1.3-0.15-1.88-0.15c-3.18-0.01-6.37-0.01-9.55-0.01c-0.54,0-1.09,0-1.58,0
				c-0.43-1.38-0.45-14.17-0.06-15.57c14.11,0,28.25,0,42.36,0c0.32,1.2,0.39,13.66,0.07,15.46c-0.5,0.03-1.03,0.1-1.57,0.1
				c-3.18,0.01-6.37,0-9.55,0.01c-0.59,0-1.19,0.06-1.98,0.1c-0.09,3.47-0.03,6.84-0.04,10.2c-0.01,3.39,0,6.77,0,10.16
				c0,3.33,0,6.67,0,10C235.25,138.58,235.25,141.96,235.25,145.54z"/>
		</g>
		<g>
			<path class="st1" d="M110.13,241.11c-0.02-12.16,7.38-22.43,18.75-25.82c11.15-3.32,23.23-0.26,30.72,10.07
				c3.28,4.53,4.67,9.66,4.77,15.22c0.23,13.09-8.69,22.71-18.36,25.63c-11.2,3.39-23.56,0.59-31.21-10.16
				c-2.54-3.57-4-7.58-4.45-11.94C110.23,243.01,110.18,241.9,110.13,241.11z M124.78,240.61c-0.12,7.03,5.06,12.39,11.98,12.63
				c7.41,0.26,12.87-5.23,12.99-12.09c0.12-7.2-5.06-12.65-12.15-12.77C130.26,228.25,124.91,233.35,124.78,240.61z"/>
			<path class="st1" d="M222.25,229.35c0,2.34,0,4.38,0,6.57c0.69,0.04,1.28,0.1,1.87,0.1c4.3,0.01,8.59,0,12.89,0.01
				c0.59,0,1.18,0.07,1.86,0.11c0,4.71,0,9.28,0,14.02c-5.51,0-10.94,0-16.54,0c-0.07,0.73-0.17,1.31-0.17,1.89
				c-0.01,4.09,0,8.19-0.01,12.28c0,0.6-0.05,1.2-0.08,1.76c-1.22,0.34-12.47,0.41-14.27,0.13c-0.39-1.1-0.45-49.31-0.04-50.89
				c10.41,0,20.85,0,31.27,0c0.34,1.15,0.42,11.89,0.1,13.92c-0.54,0.04-1.13,0.11-1.71,0.11c-4.4,0.01-8.79,0.01-13.19,0.01
				C223.62,229.35,223.02,229.35,222.25,229.35z"/>
			<path class="st1" d="M201.22,236.07c0,4.78,0,9.36,0,14.12c-5.57,0-11.05,0-16.72,0c0,5.42,0,10.65,0,15.82
				c-1.28,0.4-12.35,0.5-14.37,0.19c-0.02-0.03-0.06-0.06-0.09-0.1c-0.03-0.04-0.08-0.08-0.09-0.12c-0.04-0.2-0.09-0.4-0.09-0.6
				c0-16.37-0.01-32.74,0-49.11c0-0.25,0.05-0.49,0.09-0.89c0.43-0.06,0.86-0.16,1.29-0.16c9.7-0.01,19.4-0.01,29.1,0
				c0.35,0,0.7,0.06,1.03,0.09c0.35,1.1,0.46,11.65,0.12,13.91c-2.76,0.26-5.57,0.08-8.37,0.11c-2.77,0.03-5.55,0.01-8.27,0.01
				c-0.49,1.23-0.53,5.07-0.09,6.63C190.19,236.1,195.68,235.93,201.22,236.07z"/>
		</g>
		<g>
			<path class="st1" d="M163.14,172.78c0.88,0,1.57,0.01,2.26,0c2.39-0.02,4.73,0.19,7.04,0.85c6.39,1.83,10.43,6.64,11.13,13.29
				c0.23,2.18,0.17,4.35-0.23,6.49c-1.18,6.45-5.14,10.59-11.21,12.55c-6.62,2.13-13.18,1.67-19.39-1.64
				c-3.66-1.95-6.33-5.24-7.61-9.07c0.78-0.81,11.03-6.78,12.69-7.36c0.21,0.44,0.41,0.88,0.63,1.33c1.72,3.58,5.14,4.2,8.03,3.52
				c1.8-0.42,2.68-1.84,2.56-3.78c-0.11-1.8-1-2.79-2.91-3.12c-0.74-0.13-1.51-0.17-2.26-0.17c-4.6-0.01-9.2-0.01-13.8-0.01
				c-0.6,0-1.2,0-2.02,0c-0.09-3.49,0.38-6.83,0.56-10.17c0.19-3.43,0.43-6.86,0.67-10.29c0.23-3.37,0.49-6.74,0.73-10.05
				c1.24-0.37,28.76-0.45,30.74-0.09c0.06,4.52,0.03,9.09,0.02,13.79c-3,0.27-5.87,0.1-8.73,0.13c-2.82,0.03-5.64,0.01-8.62,0.01
				C163.34,170.29,163.25,171.42,163.14,172.78z"/>
			<path class="st1" d="M128.67,191.82c4.62,0,9.24,0,13.8,0c0.42,1.23,0.52,11.77,0.2,13.86c-1.05,0.37-34.18,0.51-36.74,0.14
				c-0.03-0.44-0.1-0.93-0.1-1.41c-0.01-2.63,0.03-5.26-0.02-7.88c-0.02-0.88,0.29-1.52,0.88-2.15c5.84-6.3,11.66-12.61,17.49-18.93
				c0.55-0.59,1.13-1.16,1.62-1.81c0.42-0.56,0.81-1.17,1.05-1.82c0.7-1.89-0.36-3.6-2.37-3.87c-2.19-0.28-3.99,0.45-5.31,2.22
				c-0.6,0.8-1.05,1.71-1.57,2.56c-1.08-0.21-10.3-5.13-12.76-6.82c0.19-0.46,0.37-0.96,0.62-1.44c2.83-5.51,7.27-9,13.32-10.27
				c5.99-1.26,11.65-0.41,16.77,3.15c3.88,2.7,5.8,6.48,6.12,11.13c0.28,4.14-0.78,7.87-3.21,11.27c-2.66,3.71-5.76,7.03-8.79,10.42
				c-0.38,0.43-0.75,0.88-1.12,1.32C128.57,191.62,128.62,191.72,128.67,191.82z"/>
			<path class="st1" d="M230.56,179.48c6.77-0.02,12.35,4.36,13.73,10.76c1.89,8.73-4.41,16.7-13.34,16.91
				c-5.33,0.13-9.63-1.91-12.49-6.38c-5.79-9.05,0.3-20.6,10.73-21.29C229.65,179.46,230.11,179.48,230.56,179.48z M233.98,193.23
				c-0.03-2.05-1.54-3.57-3.54-3.57c-2.02,0-3.57,1.66-3.5,3.76c0.06,2.05,1.6,3.54,3.61,3.48
				C232.54,196.84,234.01,195.27,233.98,193.23z"/>
			<path class="st1" d="M199.81,181.36c-6.97,0.03-12.65-4.47-13.98-11.04c-1.67-8.26,4.39-16.1,12.81-16.59
				c5.09-0.29,9.37,1.35,12.46,5.48c3.29,4.38,3.78,9.24,1.52,14.15c-2.26,4.92-6.28,7.63-11.76,8
				C200.51,181.38,200.16,181.36,199.81,181.36z M196.26,167.6c0.02,2.05,1.54,3.6,3.51,3.58c2-0.02,3.56-1.69,3.51-3.76
				c-0.05-2.05-1.54-3.48-3.6-3.45C197.64,164.01,196.24,165.49,196.26,167.6z"/>
			<path class="st1" d="M194.85,197.89c11.53-12.22,22.9-24.26,34.34-36.38c1.39,0.79,2.71,1.53,4.01,2.28
				c0.38,0.22,0.74,0.48,1.27,0.84c-11.47,12.1-22.86,24.12-34.36,36.25C198.39,199.91,196.75,198.98,194.85,197.89z"/>
		</g>
	</g>
</g>
</svg>
