<?xml version="1.0" encoding="utf-8"?>
<!-- Generator: Adobe Illustrator 23.0.5, SVG Export Plug-In . SVG Version: 6.00 Build 0)  -->
<svg version="1.1" id="PRINT" xmlns="http://www.w3.org/2000/svg" xmlns:xlink="http://www.w3.org/1999/xlink" x="0px" y="0px"
	 viewBox="0 0 350 350" style="enable-background:new 0 0 350 350;" xml:space="preserve">
<style type="text/css">
	.st0{fill:#FC2516;}
	.st1{fill:#FFFFFF;}
	.st2{fill:url(#SVGID_1_);}
	.st3{fill:url(#SVGID_2_);}
	.st4{fill:url(#SVGID_3_);}
	.st5{fill:url(#SVGID_4_);}
	.st6{fill:#EE5423;}
	.st7{fill:url(#SVGID_5_);}
	.st8{fill:#F4F4F4;}
	.st9{opacity:0.4;fill:#DC78AA;}
	.st10{display:none;fill:#FFFFFF;}
	.st11{fill:none;}
	.st12{fill:url(#SVGID_6_);}
	.st13{fill:url(#SVGID_7_);}
	.st14{fill:#161616;}
	.st15{fill:url(#SVGID_8_);}
	.st16{fill:url(#SVGID_9_);}
	.st17{fill:url(#SVGID_10_);}
	.st18{fill:#F4F4F4;stroke:#F4F4F4;stroke-width:0.9489;stroke-miterlimit:10;}
	.st19{fill:#E3F3F7;}
	.st20{fill:#F05922;}
	.st21{opacity:0.28;fill:url(#SVGID_11_);}
	.st22{fill:#E5E3E3;}
	.st23{fill:#D74F27;}
	.st24{fill:#009933;}
</style>
<g>
	<path class="st0" d="M340.95,175.26v5.16c-0.15,1.25-0.25,2.51-0.45,3.75c-1.15,7.13-3.93,13.55-8.39,19.25
		c-2.36,3.01-5.18,5.52-8.09,7.96c-6.05,5.06-10.87,11.11-14.35,18.21c-4.69,9.59-6.55,19.71-5.45,30.33
		c0.41,3.99,0.56,7.97-0.11,11.94c-2.3,13.71-9.62,23.94-21.75,30.63c-6.89,3.81-14.38,5.26-22.24,4.77
		c-3.73-0.23-7.44-0.61-11.2-0.44c-7.9,0.35-15.38,2.29-22.44,5.8c-7.31,3.63-13.46,8.72-18.64,15.01
		c-1.35,1.64-2.73,3.27-4.27,4.72c-6.57,6.17-14.34,9.89-23.29,11.1c-0.85,0.11-1.69,0.31-2.53,0.47h-5.76
		c-1.04-0.18-2.08-0.39-3.13-0.55c-7.9-1.17-14.88-4.35-21.01-9.46c-2.78-2.32-5-5.14-7.35-7.84c-5.12-5.87-11.15-10.54-18.18-13.89
		c-9.69-4.62-19.9-6.22-30.55-5.06c-3.28,0.36-6.56,0.34-9.83-0.06c-10.07-1.25-18.62-5.56-25.53-12.99
		c-8.49-9.15-12.09-20.01-11.03-32.41c0.47-5.46,0.58-10.9-0.33-16.32c-2.43-14.39-9.46-26.05-20.79-35.19
		c-8.7-7.03-13.71-16.15-15.21-27.23c-0.1-0.74-0.37-1.46-0.56-2.19v-6.67c0.2-0.72,0.48-1.43,0.59-2.17
		c1.52-10.08,6.02-18.56,13.63-25.36c2.37-2.12,4.89-4.1,7.09-6.39c11.83-12.33,17.05-27.06,15.77-44.1
		c-0.17-2.32-0.44-4.64-0.37-6.95c0.43-14.89,6.95-26.49,19.37-34.61c8.48-5.55,17.93-7.33,27.99-6.2
		c4.63,0.52,9.29,0.46,13.91-0.26c14.63-2.3,26.55-9.3,35.83-20.82c6.76-8.4,15.5-13.41,26.12-15.16c1.19-0.2,2.39-0.37,3.59-0.56
		h5.76c0.54,0.1,1.08,0.23,1.63,0.29c8.59,0.96,16.15,4.26,22.72,9.89c2.51,2.15,4.55,4.72,6.72,7.19
		c12.9,14.65,29.09,21.11,48.53,19.43c3.63-0.31,7.25-0.49,10.89,0.03c10.5,1.49,19.29,6.18,26.21,14.19
		c7.61,8.81,10.84,19.15,9.91,30.74c-0.44,5.41-0.67,10.79,0.19,16.17c2.29,14.35,9.07,26.11,20.32,35.29
		c2.4,1.96,4.67,4.03,6.61,6.44c5.38,6.67,8.69,14.17,9.22,22.81C340.72,174.38,340.86,174.82,340.95,175.26z"/>
	<g>
		<g>
			<path class="st1" d="M100.65,246.43c0.36-10.98,6.55-20.4,18.41-25.86c6.33-2.91,13.12-3.32,19.91-1.72
				c11.04,2.6,18.78,9.28,22.25,20.02c5.61,17.32-3.46,33.85-19.47,38.94c-10.09,3.21-19.93,2.06-28.68-4.38
				C104.75,267.3,100.63,258.95,100.65,246.43z M131.74,262.93c8.32-0.01,14.27-5.95,14.28-14.24c0-8.24-6.02-14.22-14.32-14.22
				c-8.28,0-14.33,6.04-14.29,14.26C117.45,257.02,123.42,262.94,131.74,262.93z"/>
			<path class="st1" d="M186.03,235.56c0,2.72,0,5.09,0,7.68c6.39,0,12.66,0,19.06,0c0,5.44,0,10.67,0,16.08
				c-3.17,0.34-6.3,0.12-9.43,0.16c-3.14,0.04-6.29,0.01-9.67,0.01c-0.19,6.22,0.05,12.26-0.14,18.41c-5.56,0-10.96,0-16.38,0
				c-0.04-0.04-0.08-0.08-0.12-0.13c-0.04-0.04-0.1-0.08-0.11-0.13c-0.04-0.29-0.1-0.58-0.11-0.87c0-18.82,0-37.64,0.01-56.45
				c0-0.22,0.07-0.45,0.11-0.65c1.29-0.37,33.68-0.49,36.05-0.15c0.39,1.32,0.44,14.05,0.02,16.04
				C198.97,235.56,192.58,235.56,186.03,235.56z"/>
			<path class="st1" d="M212.53,219.45c12.05,0,24.01,0,35.94,0c0.36,1.39,0.45,13.43,0.12,16c-0.63,0.04-1.3,0.12-1.97,0.12
				c-5.14,0.01-10.29,0-15.43,0.01c-0.63,0-1.25,0.06-1.99,0.09c0,2.51,0,4.88,0,7.51c2.08,0.02,4.15,0.04,6.23,0.05
				c2.1,0.01,4.21,0,6.31,0c2.1,0,4.2,0,6.26,0c0.44,1.36,0.53,13.88,0.11,16.2c-6.21,0.13-12.49-0.04-19.02,0.1
				c-0.04,6.16,0,12.15-0.02,18.09c-1.31,0.48-13.83,0.63-16.47,0.25C212.21,276.61,212.11,221.68,212.53,219.45z"/>
		</g>
		<g>
			<path class="st1" d="M157.43,102.59c0.23,0.3,0.3,0.34,0.3,0.39c0.3,6.86,0.43,13.71-2.51,20.15
				c-4.34,9.47-11.67,15.19-21.94,16.9c-6.5,1.08-13,0.77-19.16-1.72c-11.28-4.55-17.95-12.94-19.73-25
				c-1.1-7.42-0.18-14.65,3.63-21.21c5.97-10.29,14.92-15.83,26.92-16.24c8.8-0.3,16.58,2.32,23.23,8.14c1.99,1.74,3.69,3.73,5.05,6
				c-0.9,0.94-12.65,7.78-14.79,8.62c-0.13-0.1-0.3-0.18-0.39-0.31c-2.79-3.77-6.75-5.09-11.2-5.12
				c-5.73-0.04-10.37,2.11-13.26,7.28c-3.4,6.1-2.1,15.18,2.93,19.99c1.03,0.99,2.31,1.84,3.63,2.38c4.27,1.73,8.66,1.79,13.05,0.43
				c2.12-0.66,3.87-1.91,5.19-3.71c0.36-0.5,0.63-1.06,1.11-1.88c-4.51,0-8.68,0-13.09,0c-0.05-5.07-0.02-9.94-0.02-15.08
				C136.87,102.58,147.19,102.59,157.43,102.59z"/>
			<path class="st1" d="M205.05,122.82c0,5.57,0,10.8,0,16.15c-13.51,0-26.91,0-40.44,0c0-20.52,0-40.94,0-61.37
				c1.25-0.42,37.96-0.5,40.04-0.04c0.03,5.16,0.06,10.38-0.02,15.81c-7.59,0-14.92,0-22.37,0c0,2.29,0,4.36,0,6.66
				c6.69,0.1,13.32-0.02,19.89,0.07c0.37,1.44,0.47,13.02,0.15,15.75c-3.25,0.19-6.56,0.06-9.86,0.08c-3.32,0.02-6.65,0-10.22,0
				c-0.16,2.32-0.13,4.49-0.01,6.87C189.84,122.82,197.35,122.82,205.05,122.82z"/>
			<path class="st1" d="M208.92,77.38c15.5,0,30.9,0,46.56,0c0.02,5.67,0.01,11.23,0.01,16.99c-4.88,0-9.54,0-14.41,0
				c-0.04,0.91-0.11,1.64-0.11,2.37c-0.01,13.26,0,26.52,0,39.79c0,0.75,0,1.5,0,2.19c-1.38,0.46-14.83,0.59-17.6,0.2
				c-0.04-0.68-0.13-1.42-0.13-2.15c-0.01-13.2-0.01-26.41-0.01-39.61c0-0.81,0-1.61,0-2.6c-4.86-0.3-9.57,0.01-14.21-0.18
				C208.62,92.9,208.55,79.41,208.92,77.38z"/>
		</g>
		<g>
			<path class="st1" d="M117.6,196c4.93-2.83,9.72-5.57,14.6-8.37c0.38,0.78,0.66,1.35,0.93,1.92c1.84,3.89,6.33,4.66,9.26,3.79
				c1.96-0.58,2.91-2.13,2.79-4.32c-0.12-1.98-1.16-3.2-3.2-3.57c-0.8-0.15-1.63-0.14-2.44-0.14c-5.49-0.01-10.99,0-16.48-0.01
				c-0.63,0-1.25-0.05-2.11-0.09c0.81-11.79,1.61-23.41,2.41-34.99c1.5-0.4,33.39-0.45,35.23-0.07c0,5.2,0,10.43,0,15.85
				c-3.29,0.27-6.54,0.08-9.78,0.12c-3.26,0.03-6.53,0.01-9.99,0.01c-0.14,1.45-0.27,2.75-0.42,4.22c1.02,0.04,1.82,0.1,2.62,0.11
				c3.35,0.03,6.66,0.29,9.8,1.59c6.08,2.52,9.9,6.88,10.9,13.5c0.56,3.69,0.44,7.36-0.65,10.93c-1.9,6.2-6.22,10.13-12.22,12.06
				c-7.8,2.5-15.48,1.9-22.71-2.11C122.01,204.15,119.31,200.62,117.6,196z"/>
			<path class="st1" d="M196.63,164.54c-0.02,8.92-7.1,15.87-16.17,15.87c-9.22,0-16.45-7.1-16.37-16.07
				c0.08-8.91,7.34-15.85,16.48-15.78C189.64,148.63,196.65,155.6,196.63,164.54z M184.43,164.47c0-2.39-1.68-4.09-4.05-4.09
				c-2.34,0-4.04,1.74-4.02,4.13c0.01,2.36,1.77,4.15,4.05,4.13C182.69,168.62,184.43,166.82,184.43,164.47z"/>
			<path class="st1" d="M199.36,193.96c0.02-8.97,7.14-15.93,16.31-15.9c10.12,0.04,16.33,8.23,16.16,16.05
				c-0.19,8.95-7.11,15.81-16.23,15.79C206.4,209.89,199.35,202.97,199.36,193.96z M211.61,194c0,2.4,1.72,4.19,4,4.17
				c2.21-0.01,4.08-1.94,4.08-4.18c0-2.33-1.76-4.1-4.08-4.11C213.25,189.87,211.61,191.56,211.61,194z"/>
			<path class="st1" d="M174.76,199.3c13.23-14.03,26.28-27.86,39.39-41.77c2.04,1.17,3.94,2.28,5.85,3.37
				c-0.63,1.24-36.58,39.39-39.33,41.74C178.84,201.61,176.94,200.53,174.76,199.3z"/>
		</g>
	</g>
</g>
</svg>
