<svg id="Layer_1" data-name="Layer 1" xmlns="http://www.w3.org/2000/svg" viewBox="0 0 436.58 582.83"><defs><style>.cls-1{fill:#093;}.cls-2{fill:#fff;}</style></defs><title>Add bank</title><path class="cls-1" d="M436.58,582.83H0V0H436.58Z"/><path class="cls-2" d="M308.7,344.21H73.81c-.06-.65-.15-1.2-.15-1.76q0-11.65,0-23.31c0-1.79.07-1.85,1.84-1.86,4,0,8,0,11.92,0a5.76,5.76,0,0,0,2.93-.78Q137.23,290.77,184.1,265a7.43,7.43,0,0,1,3.92-1c2.42.06,4.84,0,7.25,0a5.14,5.14,0,0,1,2.62.69q35,19.23,70,38.44,12.25,6.72,24.49,13.47a5.14,5.14,0,0,0,2.62.67c4,0,8.06,0,12.09,0,1.7,0,1.8.09,1.8,1.73q0,11.83,0,23.66A10.84,10.84,0,0,1,308.7,344.21Z"/><path class="cls-2" d="M308.61,472.09c.42,1.67.4,19.82,0,21.37H73.8a60.36,60.36,0,0,1-.14-7c0-2.41,0-4.83,0-7.25s0-4.69,0-7.13Z"/><path class="cls-2" d="M100.51,450.85V365.41c.72,0,1.33-.11,1.94-.11h29.17c.81,0,1.14.41,1.13,1.18,0,.46,0,.92,0,1.38v80.6c0,2.48,0,2.48-2.44,2.48H102.71C102,451,101.35,450.89,100.51,450.85Z"/><path class="cls-2" d="M175.26,450.68V365.59c1.62-.41,30.5-.4,32.07,0v85C206,451,177.3,451.12,175.26,450.68Z"/><path class="cls-2" d="M250.05,365.41h31.66l.24.19a.33.33,0,0,1,.07.16,12.27,12.27,0,0,1,.12,1.36l0,83.07a1.61,1.61,0,0,1-.15.47c-1.49.4-30.32.41-31.86,0C249.75,449.42,249.66,367.58,250.05,365.41Z"/><path class="cls-2" d="M198,147.12c-.64,0-1-.09-1.4-.09-3.84,0-7.67,0-11.51,0a2,2,0,0,0-2,1.27c-1.69,3.22-3.44,6.41-5.18,9.61-.22.4-.48.79-.72,1.19l-.25,0V146.38c0-2.12,0-4.23,0-6.35s0-4.18,0-6.22c-2.09-.43-11.45-.31-12.47.11-.31,2.53-.18,45.64.16,46.76h12.34v-4.19c0-1.43,0-2.86,0-4.28s0-2.65,0-4a3,3,0,0,1,1,1.09c2.08,3.45,4.17,6.9,6.22,10.38a1.91,1.91,0,0,0,1.87,1.1c3.78,0,7.57,0,11.36,0a11.51,11.51,0,0,0,1.3-.18c-.38-.62-.63-1.08-.92-1.52-3-4.67-6-9.34-9.09-14a2,2,0,0,1,0-2.51c2.88-4.63,5.7-9.31,8.53-14C197.44,148.21,197.66,147.79,198,147.12Z"/><path class="cls-2" d="M139.35,180.7v-1.94c0-5.31,0-10.62,0-15.93.05-3.23,2-4.84,5.21-4.47a3.06,3.06,0,0,1,2.91,2.5,10.81,10.81,0,0,1,.26,2.33c0,5.22,0,10.43,0,15.65v1.67c1.51.4,11.3.38,12.55,0,0-.4.07-.83.07-1.27,0-6,0-12,0-18a31.48,31.48,0,0,0-.36-4.55,13.4,13.4,0,0,0-3.16-7c-4.19-4.72-13-4.66-16.78-.49-.16.17-.35.31-.66.59l-.16-2.63H126.85c-.38,1.7-.31,32.41.08,33.57Z"/><path class="cls-2" d="M47.29,180.7V133.76a10.61,10.61,0,0,1,1.42-.18c5.9,0,11.8,0,17.7,0A23.3,23.3,0,0,1,74,134.77c6.42,2.25,8.9,7.49,8.31,13.64-.34,3.44-1.26,4.94-4.34,8a8.82,8.82,0,0,0,.76.61,11.15,11.15,0,0,1,5,9.52A13.48,13.48,0,0,1,81,175.41a13.2,13.2,0,0,1-8.23,4.77,33.83,33.83,0,0,1-5.85.59c-6,.07-12,0-18,0C48.43,180.79,48,180.74,47.29,180.7Zm13.72-18v6.18c2.17,0,4.23.11,6.27,0a3,3,0,0,0,2.7-3c0-1.72-.71-2.91-2.48-3.1C65.38,162.53,63.23,162.69,61,162.69Zm0-17.27v5.9c1.75,0,3.41.12,5.05,0a2.62,2.62,0,0,0,2.64-2.92,2.9,2.9,0,0,0-2.75-2.91C64.33,145.33,62.72,145.42,61,145.42Z"/><path class="cls-2" d="M89,121.36H74.44l-1.66-5.9c-.52,0-1-.09-1.39-.09-3.49,0-7,0-10.48,0-1.42,0-1.43,0-1.8,1.37s-.65,2.47-1,3.71c-.17.62-.44,1-1.21,1-4.33,0-8.66,0-13,0a3.53,3.53,0,0,1-.61-.17c.12-.5.22-1,.37-1.49Q47.86,106.71,52,93.65q2.84-8.91,5.69-17.83c.5-1.57.5-1.58,2.13-1.58H72.54c1.51,0,1.52,0,2,1.4q7.05,22.11,14.1,44.23C88.73,120.28,88.82,120.7,89,121.36Zm-19.37-17c-.09-1.72-3-12.09-3.63-13.07-1.14,4.37-2.44,8.62-3.45,13.07Z"/><path class="cls-2" d="M151.4,90.25V74.58c1.19-.42,10.75-.5,12.39-.14.37,1.19.4,45.43,0,47-4,0-8.13,0-12.3,0L151.3,119a2,2,0,0,0-.48.23c-4.41,4.49-13.13,3.91-17.83-.34a17.57,17.57,0,0,1-5.79-11.75A20.74,20.74,0,0,1,129.26,95c2.32-4.29,5.72-7.24,10.68-8,4-.6,7.76-.09,10.85,2.86A5.1,5.1,0,0,0,151.4,90.25Zm-.07,14.36c0-.29,0-.59,0-.88A5.75,5.75,0,0,0,147,98.52c-4.52-.79-6.73,1.86-7.23,5.07a6.14,6.14,0,0,0,3.89,6.85C147.72,111.68,151.32,109,151.33,104.61Z"/><path class="cls-2" d="M124.31,74.31v46.86c-1.16.37-10.93.41-12.46,0l-.12-2.29c-.39.28-.66.44-.9.65a11.89,11.89,0,0,1-9.79,2.66c-6.59-.88-10.6-4.91-12.54-11a20.69,20.69,0,0,1,1.2-16.34c2.21-4.21,5.56-7.09,10.41-7.88,4.12-.67,8-.18,11.12,2.85a3.32,3.32,0,0,0,.54.3V74.31C116,74.19,120.12,74.19,124.31,74.31ZM106.05,98.42c-3.51,0-5.92,2.44-5.92,6.09s2.37,6.17,5.71,6.21,5.9-2.52,5.93-6.14C111.81,101.55,109.74,98.28,106.05,98.42Z"/><path class="cls-2" d="M122.16,180.79c-4.1,0-8.15,0-12.32,0l-.14-2.32c-.17,0-.3,0-.35,0-4.7,4.82-14.13,4.12-19-1.22a17.86,17.86,0,0,1-4.65-10c-.58-4.52-.22-8.95,2-13s5.58-7.08,10.43-7.87c4.11-.67,7.94-.17,11.1,2.86a.82.82,0,0,0,.25.16s.09,0,.21,0l.15-2.22H122.2C122.55,148.41,122.56,179.22,122.16,180.79Zm-18.12-23c-3.94-.22-6,3.16-5.94,6.1,0,3.56,2.41,6.17,5.73,6.21s5.89-2.5,5.91-6.15S107.44,157.78,104,157.75Z"/></svg>