<svg id="Layer_1" data-name="Layer 1" xmlns="http://www.w3.org/2000/svg" viewBox="0 0 436.58 582.83"><defs><style>.cls-1{fill:#093;}.cls-2{fill:#fff;}</style></defs><title>Add Card</title><path class="cls-1" d="M436.58,582.83H0V0H436.58Z"/><path class="cls-2" d="M44.89,121.59c.16-.61.27-1.08.41-1.54l14-43.94c.49-1.56.5-1.57,2.14-1.57q6.35,0,12.69,0c1.5,0,1.51,0,2,1.42q7,22,14.05,44.09c.14.45.24.92.4,1.54a12.38,12.38,0,0,1-1.39.16H77.36c-1.34,0-1.35,0-1.71-1.32-.43-1.55-.84-3.11-1.27-4.69-.57,0-1-.08-1.44-.08q-5.16,0-10.33,0c-1.54,0-1.55,0-2,1.54-.31,1.19-.64,2.38-.93,3.57a1.11,1.11,0,0,1-1.23,1c-4.28,0-8.56,0-12.84,0A4.62,4.62,0,0,1,44.89,121.59Zm23-30.14c-1.38,4.37-2.72,8.68-3.72,13.1a22.74,22.74,0,0,0,7.22-.13Z"/><path class="cls-2" d="M92.54,145.75l-11.71,6.7a4.7,4.7,0,0,1-.55-.59c-2.36-3.47-5.78-4.58-9.75-4.24-6.34.55-9.8,5.84-9.68,11.19a11.26,11.26,0,0,0,3.66,8.69C68.44,171,75.32,171,79,167.35a25.55,25.55,0,0,0,1.86-2.26l11.65,6.71a15.09,15.09,0,0,1-3,4.16,23.57,23.57,0,0,1-14.6,7.29A24.2,24.2,0,0,1,58.76,180a23.25,23.25,0,0,1-11.3-17.29,24.66,24.66,0,0,1,2.08-14.81c4.06-8.08,10.58-12.71,19.67-13.58a24.5,24.5,0,0,1,16.89,4.37A21,21,0,0,1,91.41,144C91.77,144.47,92.08,145,92.54,145.75Z"/><path class="cls-2" d="M113.37,90.46V74.88c1.19-.41,10.73-.5,12.4-.15.38,1.16.42,45.39,0,47q-6,0-12.31,0l-.16-2.41a1.78,1.78,0,0,0-.47.21c-4.47,4.6-13.77,4-18.69-1.14a18,18,0,0,1-5-11.09,20.69,20.69,0,0,1,2.14-12.17c2.3-4.16,5.61-7.06,10.46-7.83,4.12-.65,8-.13,11.1,2.93A2.4,2.4,0,0,0,113.37,90.46Zm-.06,14.4a8.61,8.61,0,0,0,0-.88,5.8,5.8,0,0,0-11.59.4,6.12,6.12,0,0,0,3.85,6.34C109.64,112.05,113.33,109.27,113.31,104.86Z"/><path class="cls-2" d="M153,121.6c-.06-.76-.12-1.47-.18-2.17-.17,0-.3,0-.35,0-4.54,4.7-13.71,4.1-18.59-.84a18.2,18.2,0,0,1-5.19-11.74,20.39,20.39,0,0,1,2.11-11.59c2.29-4.23,5.62-7.19,10.53-8,4.1-.65,7.94-.16,11.09,2.91.06.06.17.07.45.17V74.89c1.31-.43,10.93-.49,12.48-.14.36,1.13.41,45.36.05,46.77A87.08,87.08,0,0,1,153,121.6Zm-5.81-22.88c-3.58-.22-5.89,2.67-5.93,6.1A5.81,5.81,0,0,0,147,111c3.42,0,5.76-2.43,5.9-6C153.06,101.87,150.86,98.55,147.23,98.72Z"/><path class="cls-2" d="M182.23,150.89c0-2.59,0-5.17,0-7.76s-.11-5.18.1-7.81h12.33c.31,1.16.4,44.94.11,46.78a87.51,87.51,0,0,1-12.42.09l-.23-2.1a2.47,2.47,0,0,0-.65.31c-3.16,2.87-6.95,3.35-10.91,2.63-6-1.08-9.65-4.94-11.49-10.48-2.06-6.21-1.67-12.34,1.88-18a14.35,14.35,0,0,1,16.26-6.32,10.87,10.87,0,0,1,4.65,2.75Zm.08,14.63-.1,0-.06-.88A5.75,5.75,0,0,0,171,163.05a7.34,7.34,0,0,0-.24,4.07,5.4,5.4,0,0,0,4.83,4.47c3,.26,5.14-.92,6.12-3.5A17.06,17.06,0,0,0,182.31,165.52Z"/><path class="cls-2" d="M117.77,151l.29-2.17a68.81,68.81,0,0,1,12.43,0v33.44c-4.14.07-8.24,0-12.43,0l-.25-2.29a5.9,5.9,0,0,0-.89.54,11.65,11.65,0,0,1-8.34,2.7c-8.09-.16-12.92-6.31-14.37-12.4a21.7,21.7,0,0,1,.89-13.46,14.79,14.79,0,0,1,7.83-8.43,13.56,13.56,0,0,1,12.22.2A26.25,26.25,0,0,1,117.77,151Zm-11.46,14.45c0,4,2.53,6.39,6.42,6.13a5.48,5.48,0,0,0,5.08-5.21c.33-3.31-1.24-6.06-3.89-6.81C109.79,158.41,106.31,161.11,106.31,165.48Z"/><path class="cls-2" d="M147.4,148.88v4.78a11,11,0,0,1,9.8-5.67c.37,1.17.43,11.9.09,13.5-.36,0-.73,0-1.11.07a18,18,0,0,0-3.05.38c-3.73,1.06-5.6,3.58-5.66,7.63-.06,3.64,0,7.28,0,10.91v1.57c-1.14.35-10.51.44-12.39.15-.29-1.13-.34-31.92-.05-33.36C136.28,148.48,146.06,148.49,147.4,148.88Z"/><path class="cls-2" d="M186,310.05h99.37c2.65,0,2.48-.08,2.48,2.41V454.57c0,2.32,0,2.32-2.27,2.32H86.19c-2.28,0-2.28,0-2.28-2.34V312.44c0-2.38,0-2.39,2.37-2.39ZM107,433.3c2,.32,156.7.23,157.76-.06.32-2.32.19-56.25-.14-57.27-1.77-.29-156.4-.2-157.62.12Zm0-99.71v18.82H264.67c.36-1.59.3-17.72-.07-18.82Z"/><path class="cls-2" d="M147.21,469.88c-.43,3.7-.83,7.19-1.22,10.54.11.2.13.25.16.29l.12.09a2.84,2.84,0,0,0,.57.16q72.56,9.27,145.28,18.53c.18-1.26.36-2.42.5-3.6.65-5.33,1.27-10.67,1.92-16s1.33-10.67,2-16,1.27-10.67,1.92-16c.74-6.12,1.51-12.24,2.26-18.37.29-2.37.51-4.75.86-7.11.83-5.66,1.72-11.31,2.59-17s1.74-11.51,2.62-17.26c0-.29.12-.57.2-1a7.33,7.33,0,0,1,1.18.06,22.69,22.69,0,0,1,17,18.23,34.42,34.42,0,0,1-.13,9.67c-.68,5.43-1.33,10.86-2,16.3s-1.31,10.66-2,16-1.27,10.47-1.91,15.7l-2,16.3c-.64,5.29-1.25,10.58-1.93,15.86a75.17,75.17,0,0,1-1.55,10.31c-2.33,8.5-7.89,14-16.46,16.27a21.64,21.64,0,0,1-8.45.31l-10.35-1.32-12.88-1.63-10.5-1.36-13.16-1.69-12.72-1.6L216.46,513,206,511.63l-13.16-1.69-10.36-1.31-13-1.68c-3.45-.44-6.9-.86-10.35-1.31l-13-1.67c-1.67-.22-3.37-.37-5-.74a22.55,22.55,0,0,1-17.22-18.36,32.33,32.33,0,0,1,.14-9.37c.18-1.48.35-3,.53-4.44.16-1.21.27-1.34,1.5-1.34q9.93,0,19.87,0A12.92,12.92,0,0,1,147.21,469.88Z"/><path class="cls-2" d="M121.88,391.07h52.61v15.36c-1.2.3-50.78.38-52.59.11C121.47,405.46,121.4,392.84,121.88,391.07Z"/></svg>