<svg xmlns="http://www.w3.org/2000/svg" xmlns:xlink="http://www.w3.org/1999/xlink" width="142" height="150" viewBox="0 0 142 150">
  <defs>
    <clipPath id="clip-Purchase_Airtime">
      <rect width="142" height="150"/>
    </clipPath>
  </defs>
  <g id="Purchase_Airtime" data-name="Purchase Airtime" clip-path="url(#clip-Purchase_Airtime)">
    <g id="Group_1830" data-name="Group 1830" transform="translate(-257 -2597)">
      <circle id="Ellipse_76" data-name="Ellipse 76" cx="67.5" cy="67.5" r="67.5" transform="translate(261 2605)" fill="#faf8f6"/>
      <g id="coupon" transform="translate(291.485 2559.643)">
        <path id="Path_2125" data-name="Path 2125" d="M71.86,91H21.868v6.506a2.169,2.169,0,0,1-4.338,0V91H2.169A2.148,2.148,0,0,0,0,93.169v13.013a2.148,2.148,0,0,0,2.169,2.169,6.506,6.506,0,0,1,0,13.013A2.148,2.148,0,0,0,0,123.532v13.013a2.148,2.148,0,0,0,2.169,2.169H17.35v-6.506a2.169,2.169,0,1,1,4.338,0v6.506H71.86a2.148,2.148,0,0,0,2.169-2.169V93.169A2.148,2.148,0,0,0,71.86,91ZM21.688,123.532a2.169,2.169,0,0,1-4.338,0v-4.338a2.169,2.169,0,1,1,4.338,0Zm0-13.013a2.169,2.169,0,1,1-4.338,0v-4.338a2.169,2.169,0,0,1,4.338,0Z" fill="#fd4e26"/>
        <path id="Path_2126" data-name="Path 2126" d="M8.675,256a6.5,6.5,0,0,1-6.506,6.506A2.148,2.148,0,0,0,0,264.675v13.013a2.148,2.148,0,0,0,2.169,2.169H17.35V273.35a2.169,2.169,0,1,1,4.338,0v6.506H71.86a2.148,2.148,0,0,0,2.169-2.169V256Zm13.013,8.675a2.169,2.169,0,1,1-4.338,0v-4.338a2.169,2.169,0,0,1,4.338,0Z" transform="translate(0 -141.143)" fill="#fd3018"/>
      </g>
      <g id="telephone" transform="translate(322.231 2659.593)">
        <g id="Group_1722" data-name="Group 1722" transform="translate(0.006)">
          <path id="Path_2127" data-name="Path 2127" d="M24.355,64.249a2.244,2.244,0,0,0-3.392,0c-.793.786-1.586,1.573-2.366,2.373a.467.467,0,0,1-.653.12c-.513-.28-1.06-.507-1.553-.813a24.6,24.6,0,0,1-5.932-5.4,14.053,14.053,0,0,1-2.126-3.406.488.488,0,0,1,.12-.626c.793-.766,1.566-1.553,2.346-2.339a2.253,2.253,0,0,0-.007-3.472c-.62-.626-1.24-1.24-1.859-1.866-.64-.64-1.273-1.286-1.919-1.919a2.258,2.258,0,0,0-3.392.007c-.8.786-1.566,1.593-2.379,2.366A3.862,3.862,0,0,0,.029,51.88a11.041,11.041,0,0,0,.853,4.752,28.875,28.875,0,0,0,5.125,8.537,31.715,31.715,0,0,0,10.5,8.217,15.191,15.191,0,0,0,5.818,1.693,4.264,4.264,0,0,0,3.659-1.393c.68-.76,1.446-1.453,2.166-2.179a2.267,2.267,0,0,0,.013-3.452Q26.268,66.145,24.355,64.249Z" transform="translate(-0.006 -43.063)" fill="#ffcb02"/>
          <path id="Path_2128" data-name="Path 2128" d="M245.078,105.477l2.459-.42A11.039,11.039,0,0,0,238.2,96l-.347,2.473a8.531,8.531,0,0,1,7.224,7Z" transform="translate(-222.002 -89.602)" fill="#ffcb02"/>
          <path id="Path_2129" data-name="Path 2129" d="M253.5,5.185A18.134,18.134,0,0,0,243.1,0l-.347,2.473a15.823,15.823,0,0,1,13.389,12.976l2.459-.42A18.266,18.266,0,0,0,253.5,5.185Z" transform="translate(-226.576)" fill="#ffcb02"/>
        </g>
      </g>
    </g>
  </g>
</svg>
