<?xml version="1.0" encoding="utf-8"?>
<!-- Generator: Adobe Illustrator 23.0.5, SVG Export Plug-In . SVG Version: 6.00 Build 0)  -->
<svg version="1.1" xmlns="http://www.w3.org/2000/svg" xmlns:xlink="http://www.w3.org/1999/xlink" x="0px" y="0px"
	 viewBox="0 0 500 500" style="enable-background:new 0 0 500 500;" xml:space="preserve">
<style type="text/css">
	.st0{fill:#54883F;}
	.st1{fill:#4C4C4C;}
	.st2{opacity:0.8;fill:url(#SVGID_1_);}
	.st3{fill:url(#SVGID_2_);}
	.st4{opacity:0.8;fill:url(#SVGID_3_);}
	.st5{fill:url(#SVGID_4_);}
	.st6{fill:#FFFFFF;}
	.st7{opacity:0.8;fill:url(#SVGID_5_);}
	.st8{fill:url(#SVGID_6_);}
	.st9{opacity:0.8;fill:url(#SVGID_7_);}
	.st10{fill:url(#SVGID_8_);}
	.st11{fill-rule:evenodd;clip-rule:evenodd;fill:#FFFFFF;}
	.st12{opacity:0.8;fill:url(#SVGID_9_);}
	.st13{fill:url(#SVGID_10_);}
	.st14{opacity:0.8;fill:url(#SVGID_11_);}
	.st15{fill:url(#SVGID_12_);}
	.st16{opacity:0.8;fill:url(#SVGID_13_);}
	.st17{fill:url(#SVGID_14_);}
	.st18{opacity:0.8;fill:url(#SVGID_15_);}
	.st19{fill:url(#SVGID_16_);}
	.st20{fill-rule:evenodd;clip-rule:evenodd;fill:#EE1D52;}
	.st21{fill-rule:evenodd;clip-rule:evenodd;fill:#69C9D0;}
	.st22{opacity:0.8;fill:url(#SVGID_17_);}
	.st23{fill:url(#SVGID_18_);}
	.st24{opacity:0.8;fill:url(#SVGID_19_);}
	.st25{fill:url(#SVGID_20_);}
	.st26{opacity:0.8;fill:url(#SVGID_21_);}
	.st27{fill:url(#SVGID_22_);}
	.st28{opacity:0.8;fill:url(#SVGID_23_);}
	.st29{fill:url(#SVGID_24_);}
	.st30{opacity:0.8;fill:url(#SVGID_25_);}
	.st31{opacity:0.8;fill:url(#SVGID_26_);}
	.st32{opacity:0.8;fill:url(#SVGID_27_);}
	.st33{opacity:0.8;fill:url(#SVGID_28_);}
	.st34{opacity:0.8;fill:url(#SVGID_29_);}
	.st35{opacity:0.8;fill:url(#SVGID_30_);}
	.st36{opacity:0.8;fill:url(#SVGID_31_);}
	.st37{opacity:0.8;fill:url(#SVGID_32_);}
	.st38{opacity:0.8;fill:url(#SVGID_33_);}
	.st39{opacity:0.8;fill:url(#SVGID_34_);}
	.st40{opacity:0.8;fill:url(#SVGID_35_);}
	.st41{opacity:0.8;fill:url(#SVGID_36_);}
	.st42{fill:#FFFFFF;stroke:#54883F;stroke-miterlimit:10;}
</style>
<g id="BACKGROUND">
</g>
<g id="ELEMENTS">
	<circle class="st0" cx="249" cy="251" r="240"/>
	<path class="st6" d="M274.8,215.4c1.1-0.3,1.8-0.4,2.4-0.6c6.5-2.6,13.2-4.3,20-5.5c4.7-0.8,9.4-1,14.1-1
		c22.9-0.2,43.2,7.1,60.8,21.7c17.5,14.5,28.3,33.1,32.4,55.5c1.1,6,1.8,12,1.7,18.1c-0.8,41.5-27.2,74.5-61.6,87.2
		c-6.9,2.5-13.9,4.3-21.2,5.2c-4.9,0.6-9.8,1-14.8,0.8c-28.4-1.6-51.9-13-70-35c-9.4-11.4-15.7-24.5-18.8-39.1
		c-0.8-3.9-1.2-8-1.8-12c-0.1-0.4,0-0.9-0.1-1.3c-0.2-1.1-0.6-1.6-1.7-1.7c-1.2-0.1-2.5-0.1-3.7-0.1c-26.6,0-53.2,0-79.8,0
		c-1.5,0-2.9,0-4.4-0.2c-2.8-0.4-4.4-2.1-4.6-4.9c-0.1-0.9,0-1.8,0-2.7c0-42.1,0-84.2,0-126.3c0-0.8,0-1.6,0-2.4
		c0.2-3,2.1-4.9,5.2-5.1c0.9-0.1,1.8,0,2.7,0c11.6,0,23.1,0,34.7,0c1.2,0,2.4-0.1,3.6-0.1c0.9-1.3,0.7-2.6,0.7-3.8
		c0-5.4,0-10.8,0-16.2c0-1.1,0-2.3,0.1-3.4c0.3-2.8,2.1-4.4,4.8-4.8c1-0.1,2-0.1,3-0.1c11.6,0,23.1,0,34.7,0c1.2,0,2.4-0.1,3.9-0.1
		c0.1-1,0.3-1.9,0.3-2.7c0-4.5,0.2-9,0-13.5c-0.2-4.8,2.2-7.2,7.1-7.2c14.4,0.1,28.7,0,43.1,0c1.2,0,2.5,0.2,3.6,0.5
		c1.8,0.5,2.8,1.8,3.1,3.6c0.2,1.3,0.3,2.7,0.3,4c0,5.7,0,11.4,0,17.2c0,23.8,0,47.6,0,71.4C274.7,212.2,274.8,213.6,274.8,215.4z
		 M306.2,218.9c-1.6,0-2.9-0.1-4.1,0c-2.7,0.4-5.3,0.8-7.9,1.4c-16.1,3.9-30.1,11.6-41.5,23.6c-13.8,14.4-21.6,31.6-23.3,51.4
		c-0.7,8.4-0.1,16.8,1.7,25.1c7,32.6,34.6,61.6,73.9,65.6c6.8,0.7,13.7,0.5,20.5-0.7c9-1.6,17.7-4.2,25.7-8.7
		c26.6-14.8,41.4-37.3,44.6-67.6c0-0.4-0.2-0.8-0.3-1.2c-1.5-0.7-3-0.4-4.4-0.4c-25,0-50.1,0-75.1,0c-1.6,0-3.2,0-4.7-0.2
		c-2.6-0.3-4-1.7-4.4-4.3c-0.2-1.5-0.2-3.1-0.2-4.7c0-24.6,0-49.2,0-73.7c0-1.1,0-2.2,0-3.4C306.6,220.4,306.4,219.8,306.2,218.9z
		 M217.2,148.3c-0.7-0.1-1.2-0.3-1.6-0.3c-10.9,0-21.8,0-32.7,0c-0.6,0-1.3,0.3-2.1,0.4c0,1.6-0.1,3-0.1,4.5c0,46.5,0,92.9,0,139.4
		c0,0.9,0,1.8,0,2.7c0,0.6,0.2,1.3,0.3,1.8c0.4,0.2,0.6,0.3,0.8,0.4c0.6,0.1,1.1,0.1,1.7,0.1c11,0,22-0.1,33-0.1
		c0.1,0,0.2,0,0.3-0.1c0.1-0.1,0.2-0.2,0.4-0.4c0-0.1,0.2-0.4,0.2-0.8c0-48.7,0-97.4,0-146.1C217.5,149.4,217.3,148.9,217.2,148.3z
		 M317.2,219.1c-0.5,1.4-0.3,2.7-0.3,4.1c0,23.2,0,46.5,0,69.7c0,0.8-0.1,1.6,0,2.4c0.1,0.6,0.3,1.2,0.5,2.1c1.5,0,2.8,0,4.1,0
		c17.1,0,34.1,0,51.2,0c6.7,0,13.5,0,20.2,0c0.9,0,1.7-0.2,2.5-0.2c0.1-0.6,0.2-0.9,0.2-1.2c-0.3-3.7-0.8-7.4-1.6-11
		c-6.1-26.4-21.2-45.6-45.2-57.9c-8.3-4.2-17.1-6.6-26.3-7.9C320.8,218.7,319,218.5,317.2,219.1z M169.9,297.2
		c0.9-1.6,0.6-3.1,0.6-4.6c0-20.8,0-41.5,0-62.3c0-16.7,0-33.4,0-50.1c0-4-0.1-4.1-4.2-4.1c-9.4,0-18.8,0-28.3,0
		c-0.8,0-1.6,0-2.4,0.1c-1.1,0.1-1.6,0.6-1.7,1.7c-0.1,1.1-0.1,2.2-0.1,3.4c0,37,0,74,0,111.1c0,0.9-0.1,1.8,0,2.7
		c0.1,0.7,0.4,1.4,0.6,2.2C146.4,297.2,158.1,297.2,169.9,297.2z M228.1,124.7c-0.1,0.8-0.2,1.2-0.2,1.7c0,43.9,0,87.8,0,131.6
		c0,0.1,0,0.2,0.1,0.3c0.1,0.1,0.2,0.1,0.5,0.2c2.8-5,5.9-10,9.5-14.5c3.7-4.7,7.8-9,12.3-12.9c4.4-3.8,9.2-7.1,14.3-10.3
		c0-1.3,0-2.6,0-3.8c0-29.4,0-58.8,0-88.2c0-0.8,0-1.6,0-2.4c-0.1-0.6-0.3-1.3-0.4-1.8c-3-0.4-25-0.5-33.8-0.3
		C229.6,124.5,229,124.6,228.1,124.7z"/>
	<path class="st6" d="M360,152.8c-1.6-0.1-2.7-0.1-3.8-0.1c-4.4,0-8.8,0-13.1,0c-3.2,0-3.5-0.3-3.5-3.4c0-1.8,0-3.6,0.1-5.4
		c0-0.3,0.2-0.6,0.5-1.1c0.7-0.1,1.4-0.4,2.1-0.4c9.9,0,19.7-0.1,29.6,0c4,0,6,2,6.1,6c0.1,3.8,0,7.6,0,11.4c0,5.5,0,11,0,16.5
		c0,1.2-0.1,2.4-0.2,3.8c-3.3,0.8-6.4,0.3-9.2,0.4c-1.1-1.1-0.9-2.1-0.9-3.1c0-4.4,0-8.8,0-13.1c0-1.1,0-2.2,0-3.2
		c-0.9-0.5-1.2,0-1.6,0.4c-0.7,0.6-1.3,1.3-1.9,1.9c-9.4,9.4-18.7,18.7-28.1,28.1c-0.7,0.7-1.4,1.5-2.2,2.1c-2,1.6-4.5,1.6-6.5,0
		c-0.7-0.5-1.3-1.2-2-1.8c-3.7-3.6-7.3-7.3-11-10.9c-0.8-0.8-1.6-1.5-2.6-2.4c-0.8,0.7-1.6,1.3-2.3,2c-5,5-10,10-15,15
		c-0.9,0.9-1.6,1.9-3,2.4c-2.5-1.7-4.5-4.2-6.8-6.5c0.5-0.7,0.9-1.4,1.4-1.9c7-7.1,14.1-14.1,21.2-21.2c0.3-0.3,0.6-0.6,1-0.9
		c2.2-1.8,4.5-1.8,6.7,0c0.8,0.6,1.5,1.4,2.2,2.1c3.7,3.7,7.4,7.5,11.2,11.2c0.6,0.6,1.3,1.2,1.9,1.7
		C332.6,180.7,357.2,156.2,360,152.8z"/>
	<path class="st6" d="M133.5,373c-0.5-3.4-0.4-6.4-0.1-9.5c0.8-0.2,1.6-0.4,2.3-0.5c0.9-0.1,1.8,0,2.7,0c21.8,0,43.5,0,65.3,0
		c1.7,0,3.4-0.2,4.9,0.5c0.6,2.7,0.6,6.2,0,9.3c-0.5,0.1-1.2,0.4-1.8,0.4c-0.8,0.1-1.6,0-2.4,0c-22.2,0-44.4,0-66.6,0
		C136.5,373.1,135.1,373,133.5,373z"/>
	<path class="st6" d="M133.2,325.8c1.3-0.1,2.1-0.2,3-0.3c24.9-0.4,69.2-0.2,72.5,0.4c0.7,2.9,0.3,5.9,0.2,9c-0.8,0.2-1.4,0.4-2,0.5
		c-0.8,0.1-1.6,0-2.4,0c-22.3,0-44.6,0-66.9,0c-1.3,0-2.6-0.1-4.1-0.1C132.8,332.2,133.3,329.2,133.2,325.8z"/>
	<path class="st6" d="M208.7,344.4c0.4,3.4,0.5,6.4,0,9.5c-0.8,0.1-1.4,0.3-2,0.3c-0.9,0.1-1.8,0-2.7,0c-22,0-43.9,0-65.9,0
		c-1.4,0-2.9-0.1-4.3-0.1c-1-1.6-0.6-3.2-0.6-4.8c0-1.5-0.2-3.1,0.3-4.8c0.8-0.1,1.5-0.3,2.3-0.3c3,0,6.1,0,9.1,0
		c19.8,0,39.7,0,59.5,0C205.7,344.3,207,344.4,208.7,344.4z"/>
</g>
</svg>
