<?xml version="1.0" encoding="utf-8"?>
<!-- Generator: Adobe Illustrator 23.0.5, SVG Export Plug-In . SVG Version: 6.00 Build 0)  -->
<svg version="1.1" id="Layer_1" xmlns="http://www.w3.org/2000/svg" xmlns:xlink="http://www.w3.org/1999/xlink" x="0px" y="0px"
	 viewBox="0 0 466.1 153.9" style="enable-background:new 0 0 466.1 153.9;" xml:space="preserve">
<style type="text/css">
	.st0{fill:#009933;}
	.st1{fill:#FFFFFF;}
	.st2{fill:#288936;}
	.st3{fill:#282828;}
</style>
<g id="ELEMENTS_9_">
	<g>
		<g>
			<path class="st2" d="M434,153.9H32c-17.7,0-32-14.3-32-32V32C0,14.3,14.3,0,32,0h402.1c17.7,0,32,14.3,32,32v89.9
				C466.1,139.6,451.7,153.9,434,153.9z"/>
		</g>
	</g>
</g>
<path class="st1" d="M134.9,53.8c-1.4,1.2-2.8,2.1-4,3.2c-1.2,1.2-2.3,2.5-3,4.1c-1.5,2.9-2.2,6.2-1.9,9.5c0.1,1.6,0.5,3.3,1.1,4.8
	c0.6,1.6,1.4,3.1,2.4,4.5c1,1.3,2.1,2.5,3.5,3.4c1.4,0.9,2.8,1.7,4.2,2.6c-0.1,0.3-0.2,0.7-0.3,1c-2.2,5.1-5.1,9.9-8.7,14.1
	c-1.1,1.3-2.3,2.5-3.6,3.6c-1.6,1.5-3.6,2.4-5.8,2.7c-1.3,0.2-2.7,0.1-4-0.4c-1.2-0.4-2.3-0.9-3.5-1.4c-4.5-2-9.7-2.1-14.2-0.1
	c-1,0.4-1.9,0.8-2.8,1.2c-3.2,1.3-6.9,0.9-9.7-1.1c-1.6-1.1-3.1-2.4-4.3-3.8c-6-7-10-15.4-11.7-24.4c-0.9-4.4-0.9-8.9-0.1-13.3
	c1.2-7.2,5.9-13.4,12.5-16.5c3.9-2,8.4-2.4,12.6-1.1c1.6,0.5,3.2,1.1,4.8,1.6c1.4,0.5,2.9,0.9,4.4,1c1.7,0.1,3.4-0.1,5-0.6
	c1.2-0.4,2.5-0.9,3.7-1.3c2.2-0.8,4.5-1.3,6.8-1.4c2.7-0.1,5.4,0.4,7.8,1.5c3.1,1.4,5.9,3.4,8.1,6C134.6,53.3,134.8,53.5,134.9,53.8
	z"/>
<path class="st1" d="M212.5,103.6c-0.2,0.5-0.3,1-0.2,1.6c0,2.9,0,5.9,0,8.8c0.1,0.6,0,1.2-0.3,1.8c-1.8,0.3-3.6,0.3-5.4,0
	c-0.2-0.6-0.3-1.2-0.2-1.8c0-4.3,0-8.5,0-12.7c0-4.9,0-9.8,0-14.8c0-1.5-0.1-3-0.2-4.6c0-0.4,0-0.9,0-1.2c0.6-0.6,1.1-0.4,1.7-0.4
	s1,0,1.5,0c0.6-0.1,1.2,0,1.7,0.3c0.2,1.1,0.4,2.2,0.5,3.3c0.5,0,0.6-0.4,0.8-0.6c3.8-4.1,10.1-4.3,14.2-0.5c0.5,0.5,1,1,1.4,1.6
	c1,1.4,1.7,3,2,4.7c0.7,3.2,0.5,6.5-0.4,9.6c-0.8,2.5-2.4,4.7-4.6,6.1c-2.5,1.6-5.6,2.1-8.5,1.4c-1.2-0.3-2.2-0.8-3.1-1.6
	L212.5,103.6z M212.3,93.3L212.3,93.3c0,1-0.1,2,0,3c0.2,2.4,2,4.5,4.4,5c2.4,0.7,5-0.3,6.4-2.5c1.9-2.8,1.8-8.7,0.2-11.4
	c-1.6-2.8-5.1-3.7-7.9-2.1c-0.8,0.4-1.4,1-1.9,1.7c-0.7,1-1.1,2.2-1.2,3.5C212.4,91.5,212.4,92.4,212.3,93.3L212.3,93.3z"/>
<path class="st1" d="M185.2,70.6c2.2,0,4.5,0,6.6,0c0.4,0.5,0.7,1.1,0.9,1.8c2.5,7.6,5,15.2,7.5,22.9c0.9,2.7,1.8,5.4,2.6,8.1
	c0.2,0.6,0.6,1.1,0.3,1.8c-0.1,0.1-0.2,0.2-0.3,0.2c-1.6,0-3.3,0.1-4.9,0.1c-0.4,0-0.8-0.3-0.9-0.7c-0.1-0.4-0.3-0.9-0.4-1.3
	c-0.7-2-1.3-4.1-2-6.1c-0.2-0.6-0.4-1.2-0.6-1.7c-3.7-0.3-7.3-0.3-11,0c-0.1,0.4-0.3,0.8-0.5,1.2c-0.7,2.2-1.4,4.4-2.1,6.6
	c-0.2,0.6-0.4,1.2-0.6,1.7c-1.9,0.4-3.9,0.4-5.8,0c0-0.2,0-0.3,0-0.5c3.6-11.1,7.2-22.3,10.8-33.4C184.9,71,185,70.8,185.2,70.6z
	 M188.3,76.4c-0.4,1.7-0.7,3.1-1.1,4.5c-0.9,3-1.9,6-2.8,9.1c-0.1,0.3-0.1,0.7-0.1,1c0.3,0.1,0.6,0.1,0.9,0.2c2.3,0,4.6,0,6.9,0
	c0.2,0,0.3-0.1,0.5-0.2c0-0.2,0-0.3,0-0.5C191.1,85.8,189.7,81.3,188.3,76.4z"/>
<path class="st1" d="M239.7,103.2c-0.1,4.4-0.1,8.4-0.2,12.4c0,0.1-0.1,0.1-0.1,0.1c-1.7,0.3-3.5,0.3-5.3,0.1
	c-0.1-0.3-0.2-0.6-0.2-0.9c0-0.5,0-1,0-1.5V94.7c0-4.1,0.1-8.2-0.2-12.2c0-0.6,0-1.1,0-1.7c0-0.1,0.1-0.2,0.1-0.3
	c1.6-0.4,3.2-0.4,4.8,0c0.2,0.5,0.3,1.1,0.3,1.7c0.1,0.5,0.1,1,0.3,1.7l1-0.9c2.6-2.7,6.6-3.7,10.2-2.6c2.1,0.6,4,2,5.2,3.9
	c1.2,1.7,2,3.6,2.2,5.7c0.5,2.8,0.2,5.7-0.6,8.4c-0.9,3.1-3,5.6-5.9,7c-2.2,1-4.7,1.3-7.1,0.8c-1.3-0.2-2.5-0.9-3.4-1.8L239.7,103.2
	z M252,93c0-0.5,0-1,0-1.5c-0.1-1.5-0.6-3-1.4-4.3c-1.7-2.7-5.3-3.4-8-1.7c-0.2,0.1-0.4,0.3-0.6,0.5c-1.1,0.9-1.8,2.2-2.1,3.6
	c-0.4,2.3-0.4,4.7,0,7.1c0,0.2,0,0.3,0.1,0.5c0.8,3.1,4,5,7.2,4.1c1.6-0.4,2.9-1.5,3.7-2.9C251.7,96.8,252.1,94.9,252,93L252,93z"/>
<path class="st1" d="M288.3,71.8c-0.2,1.6-0.7,3.2-1.4,4.7c-0.4-0.1-0.7-0.2-1.1-0.3c-2.1-0.9-4.4-1.2-6.6-1
	c-0.8,0.1-1.7,0.3-2.4,0.7c-2,1-2.9,3.4-2,5.4c0.2,0.5,0.6,0.9,1,1.3c0.6,0.5,1.2,1,2,1.3c1.1,0.6,2.3,1.1,3.5,1.6
	c1.6,0.7,3.2,1.5,4.6,2.5c1.8,1.2,3,3,3.5,5c1.1,5.1-0.7,9.2-5,11.5c-1.4,0.7-2.9,1.2-4.5,1.4c-2.9,0.4-5.9,0.2-8.8-0.6
	c-1.1-0.3-2.2-0.8-3.1-1.5c0.2-1.5,0.7-3,1.2-4.5c0.6-0.2,1.1,0.2,1.5,0.4c2.3,1.1,4.9,1.5,7.4,1.4c1,0,2.1-0.3,3-0.7
	c3.5-1.6,3.2-6.2,1.1-7.8c-1-0.8-2-1.4-3.2-1.9c-1.3-0.5-2.5-1.1-3.8-1.6c-1.3-0.6-2.6-1.4-3.7-2.4c-3.7-3.3-4.1-9-0.8-12.8
	c0.4-0.5,0.9-0.9,1.4-1.3c1.7-1.2,3.6-2,5.6-2.2c2.8-0.4,5.6-0.2,8.2,0.6C286.9,71.2,287.5,71.5,288.3,71.8z"/>
<path class="st1" d="M320,106.2c-6.1,0.3-11.4-4.1-12.2-10.2c-0.5-2.5-0.3-5.1,0.5-7.6c1.1-4,4.2-7.1,8.2-8.1
	c2.4-0.7,4.9-0.7,7.2-0.1c3.5,0.8,6.4,3.4,7.7,6.8c1.4,3.6,1.5,7.6,0.1,11.3c-1.6,4.6-6,7.8-10.9,7.8H320z M326.1,92.9
	c0-0.4,0-0.9,0-1.3c-0.1-1.9-0.8-3.7-1.9-5.2c-1.7-2.1-4.6-2.8-7-1.5c-1,0.5-1.7,1.3-2.2,2.3c-2,3.6-2.1,7.9-0.1,11.5
	c0.4,0.6,0.8,1.2,1.3,1.7c0.6,0.6,1.4,1,2.2,1.2c2.3,0.6,4.7-0.3,6-2.4C325.7,97.3,326.3,95.1,326.1,92.9z"/>
<path class="st1" d="M370.5,100.6c0.5,1.2,0.9,2.5,1,3.9c-0.4,0.2-0.8,0.4-1.2,0.6c-3.5,1.2-7.3,1.4-10.9,0.7
	c-4.8-1.1-7.6-4.2-8.6-9c-0.6-3-0.4-6,0.6-8.9c0.4-1,0.8-2,1.4-2.9c3.1-4.9,8.5-6,13.1-4.7c2.3,0.7,4.3,2.3,5.4,4.4
	c0.9,1.6,1.5,3.4,1.6,5.3c0.1,1.1,0.1,2.3,0,3.4c0,1.2-0.2,1.3-1.5,1.4c-0.5,0-0.9,0-1.4,0h-11.9c-0.6-0.1-1.2,0-1.8,0.3
	c-0.2,1.9,0.6,3.8,2.2,5c1.2,0.9,2.6,1.5,4.1,1.5c2.3,0.2,4.5-0.1,6.7-0.7C369.7,100.8,370.1,100.7,370.5,100.6z M367.2,90.4
	c0.2-1.4-0.2-2.9-1-4.1c-1.5-2.3-4.5-3-6.8-1.5c-0.3,0.2-0.5,0.3-0.7,0.5c-1.2,1.1-2.1,2.6-2.4,4.2c0,0.3,0,0.6,0.1,0.9
	C360,90.7,363.6,90.6,367.2,90.4z"/>
<path class="st1" d="M305.9,105.5c-0.5,0.2-0.8,0.3-1.1,0.4c-1.6,0.4-3.3,0.5-4.9,0.2c-2.8-0.4-5-2.6-5.3-5.4
	c-0.2-1.2-0.3-2.4-0.3-3.6c0-3.3,0-6.6,0-9.9v-2c-0.4-0.1-0.8-0.2-1.2-0.2c-0.7,0-1.3,0-2.1-0.1c-0.3-1.5-0.3-2.9-0.2-4.4
	c1-0.7,2.2-0.1,3.3-0.6c0.4-1.3,0-2.7,0.3-4c1.6-0.6,3.3-1.2,5-1.6c0.3,0,0.6,0,0.9,0c0.4,1.9,0,3.7,0.3,5.6
	c0.4,0.1,0.7,0.2,1.1,0.2c0.9,0,1.7,0,2.5,0c2,0,2,0,2,2.1c0.1,0.9,0,1.7-0.2,2.6c-1.7,0.4-3.5,0-5.3,0.3c-0.1,0.3-0.2,0.6-0.2,0.9
	c0,3.9,0,7.8,0,11.7c0,0.6,0.1,1.2,0.4,1.8c0.3,1,1.3,1.7,2.3,1.6c0.6,0,1.3,0,1.9,0c0.2,0,0.5,0.1,0.7,0.1
	C305.9,102.7,306,104.1,305.9,105.5z"/>
<path class="st1" d="M101.6,46.2c-0.4-1.4-0.4-2.8-0.1-4.2c1.1-6,5.1-11.1,10.7-13.6c1.5-0.7,3-1.2,4.7-1.5c0.4,0,0.7,0,1.1,0
	c0.1,0.4,0.2,0.8,0.2,1.2c0.1,1.9-0.1,3.9-0.7,5.7c-1.5,5.3-5.4,9.6-10.6,11.7c-1.3,0.6-2.8,0.9-4.3,0.9
	C102.3,46.3,101.9,46.2,101.6,46.2z"/>
<path class="st1" d="M348.9,80.2c0.3,1.7,0.2,3.5-0.1,5.2c-0.5,0-1.1,0-1.6,0c-2.5-0.1-4.7,1.6-5.3,3.9c-0.4,1.1-0.5,2.2-0.5,3.3
	c0,3.5,0,7,0,10.5c0,0.6,0,1.2,0,1.8c-0.9,0.4-1.8,0.5-2.7,0.3c-0.9,0.1-1.9,0-2.8-0.2c-0.1-0.4-0.1-0.9-0.2-1.3c0-2,0-4.1,0-6.1
	c0-5-0.1-10.1-0.2-15.1c-0.1-0.7-0.1-1.5,0.1-2.2c0.2-0.1,0.4-0.2,0.6-0.2c1.1,0,2.3,0,3.4,0c0.7,0,0.9,0.3,1,0.9s0.1,1.5,0.1,2.2
	c0,0.3,0,0.7,0,1c0.5,0.1,0.5-0.3,0.6-0.5c0.4-0.7,0.9-1.3,1.4-1.9c1.5-1.5,3.6-2.2,5.7-2C348.6,80,348.8,80.1,348.9,80.2z"/>
<path class="st1" d="M239.1,53.7c0-6.1,0-12.3,0-18.4c1.1-0.5,1.4-0.5,3.4-0.3c0.1,0.4,0.2,0.7,0.2,1.1c0,1.3,0,2.6,0,3.9v1.6
	c0.4,0.3,0.6,0.1,0.9-0.1c0.8-0.6,1.7-0.9,2.7-1c2.2-0.3,4.2,0.9,5.2,2.8c1.3,2.5,1.3,5.5-0.1,8c-1.3,2.4-4.1,3.6-6.7,2.7
	c-0.8-0.4-1.5-0.8-2.2-1.3l-0.4,1C240.4,54.2,240.2,54.2,239.1,53.7z M242.7,47.3c0,0.6,0,1.2,0.1,1.8c0.2,1.3,1.3,2.2,2.6,2.4
	c1.2,0.1,2.4-0.6,2.9-1.7c0.6-1.4,0.7-3,0.1-4.5c-0.6-1.4-2.2-2.2-3.6-1.6c-0.8,0.3-1.5,1-1.7,1.9C242.8,46.1,242.7,46.7,242.7,47.3
	z"/>
<path class="st1" d="M189.6,53.9c-1.1,0.2-2.3,0.2-3.4,0c-0.9-1.5-1-3.3-1.9-4.9h-5.2c-0.2,0.3-0.3,0.7-0.4,1
	c-0.4,1.1-0.7,2.2-1,3.2c-0.1,0.5-0.5,0.8-1,0.8c-0.9,0.1-1.7,0-2.6-0.1c-0.1-0.6,0-1.3,0.3-1.8c1.1-3.6,2.3-7.1,3.4-10.7
	c0.4-1.4,0.9-2.8,1.4-4.2c0.1-0.4,0.3-0.8,0.5-1.2c1.4-0.2,2.8-0.2,4.2-0.1c0.2,0.4,0.4,0.8,0.6,1.2c1.7,5.2,3.3,10.3,5,15.5
	C189.5,53,189.6,53.5,189.6,53.9z M181.5,39.9c-0.6,1.8-1.1,3.7-1.7,5.5c0,0.2,0,0.5,0,0.7c1.2,0.1,2.5,0.1,3.8-0.1
	C183,43.9,182.3,41.9,181.5,39.9L181.5,39.9z"/>
<path class="st1" d="M328.9,53.9c-0.4,0.1-0.7,0.1-1.1,0.1c-0.6,0-1.2,0-1.9,0c-0.1-0.4-0.2-0.8-0.3-1.2c0-0.6,0-1.3,0-1.9
	c0-4.7,0-9.3,0-13.9c-0.1-0.7,0-1.4,0.3-2c1-0.2,2-0.2,3,0c0.3,0.4,0.5,0.8,0.4,1.3c0,1.4,0,2.7,0,4.1c0,0.4,0.1,0.9,0.1,1.5
	c0.6-0.3,1.1-0.7,1.6-0.9c1.6-0.8,3.4-0.6,4.8,0.5c1,0.8,1.6,2,1.8,3.2c0.1,0.4,0.1,0.8,0.1,1.2c0,2.3,0,4.7,0,7
	c0,0.3-0.1,0.7-0.1,1c-0.9,0.3-1.8,0.3-2.7,0.2c-0.4,0-0.6-0.3-0.7-0.7c0-0.4-0.1-0.9-0.1-1.3c0-1.7,0-3.4,0-5.1
	c0-0.6,0-1.1-0.1-1.7c-0.2-1.1-1.2-1.8-2.2-1.7c-1.1,0-2.1,0.8-2.3,1.8c-0.1,0.5-0.1,1-0.1,1.5c0,1.8,0,3.5,0,5.3
	C329.4,52.8,329.2,53.4,328.9,53.9z"/>
<path class="st1" d="M279.8,47.4c0-0.6,0.1-1.1,0.2-1.7c0.9-3.8,3.7-5.4,7.1-5.2c4,0.2,6.3,3.2,6.1,7.1c-0.2,5.8-5.6,7.7-9.3,6.2
	c-2.3-0.9-3.8-3-4-5.4c0-0.3,0-0.7,0-1L279.8,47.4z M289.5,47.5c0-1-0.2-1.9-0.6-2.8c-0.6-1.3-2.2-1.9-3.5-1.3
	c-0.5,0.2-0.9,0.6-1.2,1.1c-1.1,1.7-1.1,3.9,0,5.7c0.7,1.3,2.3,1.8,3.6,1.1c0.5-0.3,0.9-0.7,1.1-1.2
	C289.4,49.3,289.6,48.4,289.5,47.5z"/>
<path class="st1" d="M304.1,53.9c0-0.7-0.1-1.3-0.1-1.8c0-1.8,0-3.5,0-5.3c0-0.5,0-1-0.1-1.5c-0.1-1.1-1.1-1.8-2.2-1.8
	c-1.1,0-2.1,0.8-2.3,1.8c-0.1,0.6-0.1,1.1-0.1,1.7c0,1.6,0,3.3,0,4.9c0.1,0.6,0,1.3-0.3,1.9c-1,0.3-2.1,0.3-3.2,0
	c-0.1-0.3-0.2-0.7-0.2-1c0-3.8,0-7.6,0-11.4c0-0.1,0.1-0.3,0.1-0.4c0.8-0.4,1.7-0.5,2.5-0.2c0.2,0,0.4,0.3,0.5,0.5
	c0.1,0.3,0.2,0.6,0.2,0.9c0.5-0.3,0.8-0.6,1.1-0.8c0.6-0.4,1.3-0.7,2-0.8c2.4-0.5,4.8,1,5.3,3.4c0,0,0,0.1,0,0.1
	c0.1,0.5,0.2,1,0.2,1.5c0,2.5,0,5,0,7.5c0,0.2-0.1,0.5-0.1,0.7C306.4,54.1,305.2,54.2,304.1,53.9z"/>
<path class="st1" d="M264.2,48.6c0,1.2,0.8,2.2,1.9,2.6c1.1,0.4,2.3,0.5,3.5,0.2l1.7-0.3c0.6,0.7,0.5,1.5,0.7,2.2
	c-0.3,0.2-0.6,0.3-0.9,0.5c-1.8,0.6-3.7,0.7-5.5,0.3c-2.5-0.5-4.4-2.4-4.8-4.9c-0.3-1.6-0.2-3.2,0.4-4.7c1.2-3.1,4.5-4.7,7.7-3.7
	c1.3,0.3,2.4,1.2,3,2.3c0.7,1.3,1.1,2.8,1,4.2c0,0.9-0.3,1.1-1.1,1.2c-1.8,0-3.6,0-5.4,0L264.2,48.6z M269.2,45.6
	c0.1-1.5-0.6-2.4-2-2.5c-0.7-0.1-1.4,0.1-1.9,0.5c-0.6,0.5-1,1.2-1,2C265.9,45.9,267.6,45.9,269.2,45.6L269.2,45.6z"/>
<path class="st1" d="M352,48.2c-0.6,0.3-1.2,0.4-1.8,0.4h-4.8c-0.6,0-1.1,0-1.6,0.1c-0.3,0.4-0.3,0.9,0,1.2c0.4,0.7,0.9,1.1,1.6,1.4
	c1.1,0.4,2.4,0.4,3.5,0.2c0.6-0.2,1.3-0.2,1.9-0.2c0.2,0.7,0.3,1.3,0.5,2c-0.3,0.2-0.6,0.4-0.9,0.6c-1.8,0.6-3.8,0.7-5.7,0.3
	c-2.7-0.5-4.6-2.7-4.8-5.4c-0.2-1.7,0.1-3.4,0.9-4.9c1.5-2.7,4.7-3.9,7.6-2.9c1.2,0.4,2.2,1.2,2.8,2.4
	C352.1,44.7,352.4,46.5,352,48.2z M348.5,45.6c0.2-0.9-0.2-1.9-1.1-2.2c-0.8-0.5-1.8-0.4-2.6,0.1c-0.8,0.4-1.3,1.3-1.1,2.2
	C345.3,45.9,347,45.9,348.5,45.6z"/>
<path class="st1" d="M211.1,45c0.1-0.5-0.1-0.9-0.5-1.2c-0.3-0.3-0.7-0.5-1.2-0.6c-0.8,0-1.7,0-2.5,0.2c-0.6,0.1-1.1,0.3-1.6,0.5
	c-0.4-0.6-0.7-1.3-0.7-2c0.1-0.2,0.1-0.2,0.2-0.2c2.1-1.3,4.7-1.5,7-0.7c1.6,0.6,2.7,2,2.9,3.7c0.1,0.4,0.1,0.9,0.1,1.3
	c0,2.5,0,5,0.1,7.5c0,0.1-0.1,0.3-0.1,0.4c-0.9,0.2-1.8,0.3-2.7,0.2l-0.6-0.9c-0.1,0-0.2,0-0.3,0.1c-0.7,0.5-1.6,0.9-2.5,1.1
	c-1.9,0.4-3.9-0.5-4.8-2.4c-0.8-1.9-0.1-4.1,1.6-5.2c1.2-0.7,2.5-1.2,3.9-1.2c0.5,0,1-0.1,1.5-0.2C210.9,45.2,211,45.1,211.1,45z
	 M211.2,47.8c-1-0.1-2.1,0-3,0.4c-0.9,0.4-1.3,1.5-0.9,2.4c0.2,0.3,0.4,0.6,0.8,0.8c1.2,0.5,2.5-0.1,3-1.3c0.1-0.2,0.1-0.5,0.2-0.7
	C211.3,48.9,211.2,48.4,211.2,47.8L211.2,47.8z"/>
<path class="st1" d="M233.9,45.1c0-1.1-0.9-1.9-2-1.9c-0.8-0.1-1.7,0-2.5,0.3c-0.4,0.2-0.9,0.3-1.3,0.4c-0.6-0.6-0.6-1.3-0.8-2.1
	c0.3-0.2,0.6-0.4,1-0.6c1.6-0.6,3.4-0.8,5.2-0.5c1.8,0.2,3.3,1.5,3.7,3.3c0.2,0.7,0.3,1.3,0.3,2c0,2.4,0,4.9,0.1,7.3
	c0,0.2-0.1,0.5-0.1,0.7c-0.8,0.2-1.6,0.2-2.4,0.1c-0.4,0-0.4,0-0.8-0.9c-0.9,0.4-1.9,0.8-2.8,1.1c-1,0.3-2.1,0.1-2.9-0.4
	c-2-1-2.8-3.5-1.8-5.6c0.3-0.6,0.7-1.1,1.2-1.4c1.1-0.8,2.4-1.3,3.8-1.4c0.4-0.1,0.9,0,1.4-0.1C233.3,45.2,233.6,45.2,233.9,45.1z
	 M233.9,47.8c-1.1-0.2-2.3,0-3.2,0.5c-0.6,0.3-1,1-0.9,1.7c0,0.6,0.3,1.1,0.9,1.4c1.2,0.5,2.6-0.1,3.1-1.3c0.1-0.2,0.1-0.3,0.1-0.5
	C234,49.1,234,48.4,233.9,47.8L233.9,47.8z"/>
<path class="st1" d="M189.8,41c1.1-0.3,2.3-0.3,3.5-0.1c0.7,1.4,1.2,2.8,1.5,4.3c0.5,1.5,1,2.9,1.6,4.3c0.1-0.5,0.3-0.9,0.5-1.4
	c0.7-2.1,1.3-4.2,2-6.3c0.1-0.6,0.7-1.1,1.4-1c0.8-0.1,1.7,0,2.4,0.2c0,0.3,0,0.5-0.1,0.8c-1.4,3.8-2.9,7.6-4.4,11.4
	c-0.1,0.3-0.3,0.5-0.5,0.8h-2.5c-0.4,0-0.8-0.2-1-0.6c-0.1-0.2-0.1-0.3-0.2-0.5c-1.4-3.8-2.8-7.5-4.2-11.3
	C189.9,41.4,189.8,41.2,189.8,41z"/>
<path class="st1" d="M323.2,53.9c-1,0.4-2.2,0.5-3.3,0.3c-1.5-0.2-2.7-1.4-2.9-2.9c-0.1-0.6-0.1-1.1-0.1-1.7c0-1.5,0-2.9,0-4.4
	c0-0.5-0.1-0.9-0.1-1.4l-1.5-0.3c-0.1-0.1-0.2-0.3-0.2-0.4c0-0.6,0-1.2,0-1.9l1.7-0.5l0.2-2.5c1-0.5,2-0.8,3.1-0.8
	c0.5,1,0.1,2.2,0.5,3.3l2.6,0.3c0.3,0.8,0.4,1.6,0.1,2.4c-0.9,0.5-1.8,0-2.7,0.4c-0.1,0.2-0.1,0.4-0.2,0.6c0,1.7,0,3.4,0,5.1
	c0,1.3,0.5,1.9,1.8,1.8c0.2,0,0.5,0,0.7,0.1C323.4,52.1,323.5,53,323.2,53.9z"/>
<path class="st1" d="M258.1,53.9c-1,0.2-2.1,0.2-3.2,0c-0.3-0.6-0.4-1.2-0.3-1.9c0-4.4,0-8.7,0-13.1c0-0.9,0-1.8,0-2.7
	c0-0.4,0.1-0.8,0.1-1.2c1.1-0.3,2.2-0.3,3.3,0c0.1,0.3,0.2,0.7,0.2,1c0,5.6,0,11.2,0,16.8C258.2,53.2,258.2,53.5,258.1,53.9z"/>
<path class="st1" d="M225.5,53.9c-1,0.2-2.1,0.2-3.2,0c-0.3-0.6-0.4-1.2-0.3-1.8c0-3.6,0-7.2,0-10.9c0-1.5,0-3,0-4.6
	c0-0.5,0.1-1,0.1-1.5c1.1-0.3,2.2-0.3,3.3-0.1c0.1,0.3,0.2,0.7,0.2,1c0,5.7,0,11.3,0,17C225.6,53.3,225.6,53.6,225.5,53.9z"/>
<path class="st1" d="M219.9,41c0.1,0.3,0.1,0.7,0.2,1.1c0,3.8,0,7.6-0.1,11.4c0,0.2-0.1,0.3-0.2,0.5c-1,0.2-2,0.2-3,0
	c-0.1-0.2-0.2-0.3-0.2-0.5c0-3.7-0.1-7.3-0.1-11c0-0.4,0.1-0.9,0.1-1.3C217.6,40.7,218.8,40.6,219.9,41z"/>
<path class="st1" d="M218.3,39.2c-1,0.1-1.9-0.6-2-1.6c0-0.1,0-0.2,0-0.2c0.1-1.1,1-1.9,2.1-1.8c1,0.1,1.7,0.8,1.8,1.8
	c0,1-0.8,1.8-1.8,1.8C218.3,39.2,218.3,39.2,218.3,39.2z"/>
</svg>
