<svg xmlns="http://www.w3.org/2000/svg" xmlns:xlink="http://www.w3.org/1999/xlink" width="261" height="105" viewBox="0 0 261 105">
  <defs>
    <clipPath id="clip-App_Store_button">
      <rect width="261" height="105"/>
    </clipPath>
  </defs>
  <g id="App_Store_button" data-name="App Store_button" clip-path="url(#clip-App_Store_button)">
    <g id="Group_1469" data-name="Group 1469" transform="translate(16 7.675)">
      <path id="Path_75" data-name="Path 75" d="M-870.535,11h-197.7c-11.8,0-13.764,4.086-13.764,13.8V72.777c0,9.709,4.042,13.715,13.751,13.715h197.715c9.716,0,13.9-4.012,13.9-13.728V24.8C-856.634,15.086-860.819,11-870.535,11Z" transform="translate(1083.817 -3.921)" fill="#fff" fill-rule="evenodd"/>
    </g>
    <g id="App_Store_Black_button" data-name="App Store Black_button" transform="translate(20 17.748)">
      <path id="Path_2243" data-name="Path 2243" d="M100.3,49.59c-.677.58-1.354,1.015-1.934,1.547a6.56,6.56,0,0,0-1.451,1.982A8.373,8.373,0,0,0,96,57.713a7.714,7.714,0,0,0,.532,2.321,9.418,9.418,0,0,0,1.16,2.176,6.836,6.836,0,0,0,1.692,1.644c.677.435,1.354.822,2.031,1.257-.048.145-.1.338-.145.484a26.738,26.738,0,0,1-4.207,6.818,14.8,14.8,0,0,1-1.741,1.741,5.04,5.04,0,0,1-2.8,1.305,3.8,3.8,0,0,1-1.934-.193c-.58-.193-1.112-.435-1.692-.677a8.488,8.488,0,0,0-6.866-.048c-.484.193-.919.387-1.354.58a4.922,4.922,0,0,1-4.69-.532A10.88,10.88,0,0,1,73.9,72.75a25.317,25.317,0,0,1-5.657-11.8,16.926,16.926,0,0,1-.048-6.431,10.8,10.8,0,0,1,6.044-7.978,8.081,8.081,0,0,1,6.092-.532c.774.242,1.547.532,2.321.774a8,8,0,0,0,2.127.484,6.781,6.781,0,0,0,2.418-.29c.58-.193,1.209-.435,1.789-.629a11.071,11.071,0,0,1,3.288-.677,8.345,8.345,0,0,1,3.771.725,11.054,11.054,0,0,1,3.916,2.9A.424.424,0,0,1,100.3,49.59Z" transform="translate(-35.076 -23.577)" fill="#3c9"/>
      <path id="Path_2244" data-name="Path 2244" d="M209.246,91.453a1.378,1.378,0,0,0-.1.774v4.255a1.4,1.4,0,0,1-.145.87,7.887,7.887,0,0,1-2.611,0,1.8,1.8,0,0,1-.1-.87v-13.3c0-.725-.048-1.451-.1-2.224v-.58c.29-.29.532-.193.822-.193h.725a1.2,1.2,0,0,1,.822.145c.1.532.193,1.064.242,1.6.242,0,.29-.193.387-.29a4.833,4.833,0,0,1,6.866-.242,5.176,5.176,0,0,1,.677.774,5.591,5.591,0,0,1,.967,2.273,9.428,9.428,0,0,1-.193,4.642,5.446,5.446,0,0,1-2.224,2.949,5.335,5.335,0,0,1-4.11.677,3.424,3.424,0,0,1-1.5-.774Zm-.1-4.98h0c0,.484-.048.967,0,1.451a2.723,2.723,0,0,0,2.127,2.418,2.76,2.76,0,0,0,3.094-1.209,6.307,6.307,0,0,0,.1-5.512,2.775,2.775,0,0,0-3.82-1.015,2.512,2.512,0,0,0-.919.822,3.378,3.378,0,0,0-.58,1.692,6.333,6.333,0,0,1,0,1.354Z" transform="translate(-106.499 -41.361)" fill="#3c9"/>
      <path id="Path_2245" data-name="Path 2245" d="M179.415,70.6h3.191a2.454,2.454,0,0,1,.435.87c1.209,3.675,2.418,7.349,3.626,11.072.435,1.305.87,2.611,1.257,3.916.1.29.29.532.145.87-.048.048-.1.1-.145.1-.774,0-1.6.048-2.369.048a.464.464,0,0,1-.435-.338c-.048-.193-.145-.435-.193-.629-.338-.967-.629-1.982-.967-2.949-.1-.29-.193-.58-.29-.822a32.556,32.556,0,0,0-5.319,0,2.956,2.956,0,0,1-.242.58l-1.015,3.191c-.1.29-.193.58-.29.822a6.85,6.85,0,0,1-2.8,0v-.242c1.741-5.367,3.481-10.782,5.222-16.149A.779.779,0,0,1,179.415,70.6Zm1.5,2.8c-.193.822-.338,1.5-.532,2.176-.435,1.451-.919,2.9-1.354,4.4a1.645,1.645,0,0,0-.048.484c.145.048.29.048.435.1h3.336c.1,0,.145-.048.242-.1v-.242C182.268,77.949,181.591,75.774,180.914,73.4Z" transform="translate(-89.869 -36.464)" fill="#3c9"/>
      <path id="Path_2246" data-name="Path 2246" d="M236.6,91.2c-.048,2.127-.048,4.062-.1,6a.047.047,0,0,1-.048.048,9.069,9.069,0,0,1-2.563.048,1.412,1.412,0,0,1-.1-.435V87.087c0-1.982.048-3.965-.1-5.9v-.822c0-.048.048-.1.048-.145a4.715,4.715,0,0,1,2.321,0,2.259,2.259,0,0,1,.145.822,7.473,7.473,0,0,0,.145.822l.484-.435a4.9,4.9,0,0,1,4.932-1.257,4.453,4.453,0,0,1,2.514,1.886,5.685,5.685,0,0,1,1.064,2.756,8.885,8.885,0,0,1-.29,4.062,5.384,5.384,0,0,1-2.853,3.385,5.575,5.575,0,0,1-3.433.387,3.033,3.033,0,0,1-1.644-.87Zm5.947-4.932V85.54a4.6,4.6,0,0,0-.677-2.079A2.8,2.8,0,0,0,238,82.639a1.282,1.282,0,0,0-.29.242,3.054,3.054,0,0,0-1.015,1.741,10.226,10.226,0,0,0,0,3.433.436.436,0,0,0,.048.242,2.8,2.8,0,0,0,3.481,1.982,2.9,2.9,0,0,0,1.789-1.4,5.281,5.281,0,0,0,.532-2.611Z" transform="translate(-120.703 -41.298)" fill="#3c9"/>
      <path id="Path_2247" data-name="Path 2247" d="M277.815,70.974a7.682,7.682,0,0,1-.677,2.273c-.193-.048-.338-.1-.532-.145a6.613,6.613,0,0,0-3.191-.484,3.216,3.216,0,0,0-1.16.338,2.021,2.021,0,0,0-.967,2.611,2,2,0,0,0,.484.629,3.338,3.338,0,0,0,.967.629,18.019,18.019,0,0,0,1.692.774,12.335,12.335,0,0,1,2.224,1.209,4.078,4.078,0,0,1,1.692,2.418,4.724,4.724,0,0,1-2.418,5.56,6.717,6.717,0,0,1-2.176.677,10.582,10.582,0,0,1-4.255-.29,4.315,4.315,0,0,1-1.5-.725,12.082,12.082,0,0,1,.58-2.176c.29-.1.532.1.725.193a7.626,7.626,0,0,0,3.578.677,3.748,3.748,0,0,0,1.451-.338,2.3,2.3,0,0,0,.532-3.771,6.232,6.232,0,0,0-1.547-.919c-.629-.242-1.209-.532-1.837-.774a7.093,7.093,0,0,1-1.789-1.16,4.414,4.414,0,0,1-.387-6.189,4.177,4.177,0,0,1,.677-.629A5.7,5.7,0,0,1,272.69,70.3a9.1,9.1,0,0,1,3.965.29A6.525,6.525,0,0,1,277.815,70.974Z" transform="translate(-138.418 -36.257)" fill="#3c9"/>
      <path id="Path_2248" data-name="Path 2248" d="M313.558,92.545a5.658,5.658,0,0,1-5.9-4.932,7.324,7.324,0,0,1,.242-3.675,5.51,5.51,0,0,1,3.965-3.916,6.553,6.553,0,0,1,3.481-.048,5.3,5.3,0,0,1,3.723,3.288,7.6,7.6,0,0,1,.048,5.464,5.628,5.628,0,0,1-5.27,3.771h-.29Zm2.949-6.431v-.629a4.686,4.686,0,0,0-.919-2.514,2.694,2.694,0,0,0-3.385-.725,2.374,2.374,0,0,0-1.064,1.112,5.692,5.692,0,0,0-.048,5.56,5.275,5.275,0,0,0,.629.822,2.3,2.3,0,0,0,1.064.58,2.6,2.6,0,0,0,2.9-1.16A4.634,4.634,0,0,0,316.508,86.114Z" transform="translate(-158.834 -41.196)" fill="#3c9"/>
      <path id="Path_2249" data-name="Path 2249" d="M360.151,89.855a6.016,6.016,0,0,1,.484,1.886l-.58.29a10.279,10.279,0,0,1-5.27.338,5.19,5.19,0,0,1-4.158-4.352,8.145,8.145,0,0,1,.29-4.3,7.5,7.5,0,0,1,.677-1.4,5.492,5.492,0,0,1,6.334-2.273,4.409,4.409,0,0,1,2.611,2.127,5.871,5.871,0,0,1,.774,2.563,9.324,9.324,0,0,1,0,1.644c0,.58-.1.629-.725.677h-6.431a1.4,1.4,0,0,0-.87.145,2.667,2.667,0,0,0,1.064,2.418,3.326,3.326,0,0,0,1.982.725,9.147,9.147,0,0,0,3.24-.338Zm-1.6-4.932a2.909,2.909,0,0,0-.484-1.982,2.365,2.365,0,0,0-3.288-.725,2.044,2.044,0,0,0-.338.242,3.757,3.757,0,0,0-1.16,2.031,1.339,1.339,0,0,0,.048.435A37.646,37.646,0,0,0,358.555,84.924Z" transform="translate(-181.009 -41.214)" fill="#3c9"/>
      <path id="Path_2250" data-name="Path 2250" d="M298.07,89.386c-.242.1-.387.145-.532.193a5.6,5.6,0,0,1-2.369.1,2.977,2.977,0,0,1-2.563-2.611,10.573,10.573,0,0,1-.145-1.741V79.57a2.427,2.427,0,0,0-.58-.1,7.487,7.487,0,0,1-1.015-.048,7.86,7.86,0,0,1-.1-2.127c.484-.338,1.064-.048,1.6-.29.193-.629,0-1.305.145-1.934a20.128,20.128,0,0,1,2.418-.774h.435c.193.919,0,1.789.145,2.708a2.056,2.056,0,0,0,.532.1h1.209c.967,0,.967,0,.967,1.015a3.691,3.691,0,0,1-.1,1.257c-.822.193-1.692,0-2.563.145a1.412,1.412,0,0,0-.1.435v5.657a1.9,1.9,0,0,0,.193.87,1.089,1.089,0,0,0,1.112.774h.919c.1,0,.242.048.338.048A15.1,15.1,0,0,1,298.07,89.386Z" transform="translate(-150.163 -38.375)" fill="#3c9"/>
      <path id="Path_2251" data-name="Path 2251" d="M101.438,36.232a4.128,4.128,0,0,1-.048-2.031,9.3,9.3,0,0,1,7.446-7.3h.532a2.428,2.428,0,0,1,.1.58,7.583,7.583,0,0,1-.338,2.756A8.657,8.657,0,0,1,104,35.893a5.008,5.008,0,0,1-2.079.435A1.718,1.718,0,0,0,101.438,36.232Z" transform="translate(-52.313 -13.893)" fill="#3c9"/>
      <path id="Path_2252" data-name="Path 2252" d="M341.945,79.976a7.322,7.322,0,0,1-.048,2.514h-.774a2.558,2.558,0,0,0-2.563,1.886,4.575,4.575,0,0,0-.242,1.6v5.947a2.048,2.048,0,0,1-1.305.145,4.271,4.271,0,0,1-1.354-.1c-.048-.193-.048-.435-.1-.629V88.389c0-2.418-.048-4.883-.1-7.3a2.637,2.637,0,0,1,.048-1.064.687.687,0,0,1,.29-.1h1.644c.338,0,.435.145.483.435a7.488,7.488,0,0,1,.048,1.064v.484c.242.048.242-.145.29-.242a6.434,6.434,0,0,1,.677-.919,3.426,3.426,0,0,1,2.756-.967C341.8,79.879,341.9,79.928,341.945,79.976Z" transform="translate(-173.247 -41.198)" fill="#3c9"/>
      <path id="Path_2253" data-name="Path 2253" d="M239.1,43.977v-8.9c.532-.242.677-.242,1.644-.145a2.056,2.056,0,0,1,.1.532v2.659c.193.145.29.048.435-.048a2.531,2.531,0,0,1,1.305-.484,2.471,2.471,0,0,1,2.514,1.354,4.066,4.066,0,0,1-.048,3.868,2.693,2.693,0,0,1-3.24,1.305,7.7,7.7,0,0,1-1.064-.629l-.193.484C239.729,44.219,239.632,44.219,239.1,43.977Zm1.741-3.094a5.256,5.256,0,0,0,.048.87,1.4,1.4,0,0,0,2.659.338,2.825,2.825,0,0,0,.048-2.176,1.357,1.357,0,0,0-1.741-.774,1.313,1.313,0,0,0-.822.919A1.589,1.589,0,0,0,240.841,40.883Z" transform="translate(-123.492 -18.012)" fill="#3c9"/>
      <path id="Path_2254" data-name="Path 2254" d="M181.575,44.569a4.694,4.694,0,0,1-1.644,0c-.435-.725-.484-1.6-.919-2.369H176.5a2.021,2.021,0,0,0-.193.484c-.193.532-.338,1.064-.484,1.547a.471.471,0,0,1-.484.387,5.478,5.478,0,0,1-1.257-.048,1.343,1.343,0,0,1,.145-.87c.532-1.741,1.112-3.433,1.644-5.174.193-.677.435-1.354.677-2.031a2.958,2.958,0,0,1,.242-.58,9.511,9.511,0,0,1,2.031-.048l.29.58c.822,2.514,1.6,4.98,2.418,7.494C181.527,44.134,181.575,44.376,181.575,44.569ZM177.659,37.8c-.29.87-.532,1.789-.822,2.659V40.8a7.858,7.858,0,0,0,1.837-.048,30.283,30.283,0,0,0-1.015-2.949Z" transform="translate(-89.901 -18.508)" fill="#3c9"/>
      <path id="Path_2255" data-name="Path 2255" d="M327.176,44.061a1.984,1.984,0,0,1-.532.048h-.919l-.145-.58V35.89a1.643,1.643,0,0,1,.145-.967,3.663,3.663,0,0,1,1.451,0,.762.762,0,0,1,.193.629v1.982c0,.193.048.435.048.725.29-.145.532-.338.774-.435a2.138,2.138,0,0,1,2.321.242,2.513,2.513,0,0,1,.87,1.547,2.352,2.352,0,0,1,.048.58v3.385c0,.145-.048.338-.048.484a3,3,0,0,1-1.305.1c-.193,0-.29-.145-.338-.338,0-.193-.048-.435-.048-.629V40.725a4.686,4.686,0,0,0-.048-.822,1,1,0,0,0-1.064-.822,1.146,1.146,0,0,0-1.112.87,3.66,3.66,0,0,0-.048.725v2.563A1.63,1.63,0,0,1,327.176,44.061Z" transform="translate(-168.148 -18)" fill="#3c9"/>
      <path id="Path_2256" data-name="Path 2256" d="M279.8,43.828a4.765,4.765,0,0,1,.1-.822,3.078,3.078,0,0,1,3.433-2.514,3.031,3.031,0,0,1,2.949,3.433,3.231,3.231,0,0,1-4.5,3,3.055,3.055,0,0,1-1.934-2.611v-.484Zm4.69.048a3.245,3.245,0,0,0-.29-1.354,1.293,1.293,0,0,0-1.692-.629,1.231,1.231,0,0,0-.58.532,2.579,2.579,0,0,0,0,2.756,1.283,1.283,0,0,0,1.741.532,1.231,1.231,0,0,0,.532-.58A1.945,1.945,0,0,0,284.49,43.876Z" transform="translate(-144.513 -20.909)" fill="#3c9"/>
      <path id="Path_2257" data-name="Path 2257" d="M299.71,46.981c0-.338-.048-.629-.048-.87V43.548a3.66,3.66,0,0,0-.048-.725,1.012,1.012,0,0,0-1.064-.87,1.146,1.146,0,0,0-1.112.87,4.692,4.692,0,0,0-.048.822v2.369a1.544,1.544,0,0,1-.145.919,2.8,2.8,0,0,1-1.547,0,1.718,1.718,0,0,1-.1-.484V40.937c0-.048.048-.145.048-.193a1.516,1.516,0,0,1,1.209-.1c.1,0,.193.145.242.242a1.411,1.411,0,0,1,.1.435c.242-.145.387-.29.532-.387a2.4,2.4,0,0,1,.967-.387,2.158,2.158,0,0,1,2.563,1.644v.048a3.733,3.733,0,0,1,.1.725v3.626c0,.1-.048.242-.048.338A2.968,2.968,0,0,1,299.71,46.981Z" transform="translate(-152.673 -20.92)" fill="#3c9"/>
      <path id="Path_2258" data-name="Path 2258" d="M262.359,44.418a1.352,1.352,0,0,0,.919,1.257,2.875,2.875,0,0,0,1.692.1l.822-.145c.29.338.242.725.338,1.064-.145.1-.29.145-.435.242a4.988,4.988,0,0,1-2.659.145,2.878,2.878,0,0,1-2.321-2.369,4.044,4.044,0,0,1,.193-2.273,2.992,2.992,0,0,1,3.723-1.789,2.267,2.267,0,0,1,1.451,1.112,3.82,3.82,0,0,1,.484,2.031c0,.435-.145.532-.532.58h-2.611Zm2.418-1.451a.992.992,0,0,0-.967-1.209,1.212,1.212,0,0,0-.919.242,1.262,1.262,0,0,0-.484.967,6.5,6.5,0,0,0,2.369,0Z" transform="translate(-134.615 -20.919)" fill="#3c9"/>
      <path id="Path_2259" data-name="Path 2259" d="M345.72,44.3a1.9,1.9,0,0,1-.87.193h-2.321a3.908,3.908,0,0,0-.774.048.44.44,0,0,0,0,.58,1.506,1.506,0,0,0,.774.677,3.361,3.361,0,0,0,1.692.1,2.975,2.975,0,0,1,.919-.1c.1.338.145.629.242.967l-.435.29a5.322,5.322,0,0,1-2.756.145,2.828,2.828,0,0,1-2.321-2.611,4.015,4.015,0,0,1,.435-2.369,3.054,3.054,0,0,1,3.675-1.4,2.287,2.287,0,0,1,1.354,1.16A2.951,2.951,0,0,1,345.72,44.3Zm-1.692-1.257a.892.892,0,0,0-.532-1.064,1.182,1.182,0,0,0-1.257.048.974.974,0,0,0-.532,1.064A7.444,7.444,0,0,0,344.027,43.044Z" transform="translate(-175.523 -20.995)" fill="#3c9"/>
      <path id="Path_2260" data-name="Path 2260" d="M207.211,42.689a.555.555,0,0,0-.242-.58,1.1,1.1,0,0,0-.58-.29,5.1,5.1,0,0,0-1.209.1,3.624,3.624,0,0,0-.774.242,1.8,1.8,0,0,1-.338-.967c.048-.1.048-.1.1-.1a3.972,3.972,0,0,1,3.385-.338,2.162,2.162,0,0,1,1.4,1.789,2.756,2.756,0,0,1,.048.629c0,1.209,0,2.418.048,3.626,0,.048-.048.145-.048.193a3.976,3.976,0,0,1-1.305.1l-.29-.435a.178.178,0,0,0-.145.048,3.417,3.417,0,0,1-1.209.532,2.08,2.08,0,0,1-2.321-1.16,2.056,2.056,0,0,1,.774-2.514,3.753,3.753,0,0,1,1.886-.58,3.733,3.733,0,0,0,.725-.1A.251.251,0,0,1,207.211,42.689Zm.048,1.354a2.947,2.947,0,0,0-1.451.193.887.887,0,0,0-.435,1.16.989.989,0,0,0,.387.387,1.1,1.1,0,0,0,1.451-.629c.048-.1.048-.242.1-.338,0-.242-.048-.484-.048-.774Z" transform="translate(-105.141 -20.931)" fill="#3c9"/>
      <path id="Path_2261" data-name="Path 2261" d="M230.011,42.756a.93.93,0,0,0-.967-.919,2.608,2.608,0,0,0-1.209.145,3.128,3.128,0,0,1-.629.193,1.869,1.869,0,0,1-.387-1.015,4.251,4.251,0,0,1,.484-.29,4.889,4.889,0,0,1,2.514-.242,2.056,2.056,0,0,1,1.789,1.6,3.35,3.35,0,0,1,.145.967c0,1.16,0,2.369.048,3.53,0,.1-.048.242-.048.338a3.129,3.129,0,0,1-1.16.048c-.193,0-.193,0-.387-.435-.435.193-.919.387-1.354.532a1.758,1.758,0,0,1-1.4-.193,2.036,2.036,0,0,1-.87-2.708,1.608,1.608,0,0,1,.58-.677A3.544,3.544,0,0,1,229,42.95c.193-.048.435,0,.677-.048C229.72,42.8,229.866,42.8,230.011,42.756Zm0,1.305a2.4,2.4,0,0,0-1.547.242.813.813,0,0,0-.435.822.729.729,0,0,0,.435.677,1.157,1.157,0,0,0,1.5-.629.436.436,0,0,0,.048-.242,2.625,2.625,0,0,0,0-.87Z" transform="translate(-116.917 -20.95)" fill="#3c9"/>
      <path id="Path_2262" data-name="Path 2262" d="M189.8,40.876a3.975,3.975,0,0,1,1.692-.048,8.177,8.177,0,0,1,.725,2.079c.242.725.483,1.4.774,2.079a3.788,3.788,0,0,1,.242-.677c.338-1.015.629-2.031.967-3.046a.6.6,0,0,1,.677-.484,3.069,3.069,0,0,1,1.16.1,1.064,1.064,0,0,1-.048.387c-.677,1.837-1.4,3.675-2.127,5.512a1.7,1.7,0,0,1-.242.387h-1.209a.532.532,0,0,1-.483-.29c-.048-.1-.048-.145-.1-.242-.677-1.837-1.354-3.626-2.031-5.464C189.848,41.07,189.8,40.973,189.8,40.876Z" transform="translate(-98.029 -21.052)" fill="#3c9"/>
      <path id="Path_2263" data-name="Path 2263" d="M319.016,45.378a2.972,2.972,0,0,1-1.6.145,1.641,1.641,0,0,1-1.4-1.4,4.692,4.692,0,0,1-.048-.822V41.171c0-.242-.048-.435-.048-.677l-.725-.145a.367.367,0,0,1-.1-.193v-.919l.822-.242.1-1.209a3.291,3.291,0,0,1,1.5-.387c.242.484.048,1.064.242,1.6l1.257.145a1.606,1.606,0,0,1,.048,1.16c-.435.242-.87,0-1.305.193-.048.1-.048.193-.1.29v2.466c0,.629.242.919.87.87a.823.823,0,0,1,.338.048A1.322,1.322,0,0,1,319.016,45.378Z" transform="translate(-162.745 -19.317)" fill="#3c9"/>
      <path id="Path_2264" data-name="Path 2264" d="M256.273,44.022a4.16,4.16,0,0,1-1.547,0,1.489,1.489,0,0,1-.145-.919v-7.64c0-.193.048-.387.048-.58a2.98,2.98,0,0,1,1.6,0,1.718,1.718,0,0,1,.1.484V43.49A1.984,1.984,0,0,1,256.273,44.022Z" transform="translate(-131.478 -17.961)" fill="#3c9"/>
      <path id="Path_2265" data-name="Path 2265" d="M223.673,44.066a4.16,4.16,0,0,1-1.547,0,1.4,1.4,0,0,1-.145-.87V35.7c0-.242.048-.484.048-.725a3.561,3.561,0,0,1,1.6-.048,1.718,1.718,0,0,1,.1.484v8.22A1.338,1.338,0,0,1,223.673,44.066Z" transform="translate(-114.64 -18.005)" fill="#3c9"/>
      <path id="Path_2266" data-name="Path 2266" d="M218.144,40.873c.048.145.048.338.1.532,0,1.837,0,3.675-.048,5.512,0,.1-.048.145-.1.242a3.663,3.663,0,0,1-1.451,0c-.048-.1-.1-.145-.1-.242,0-1.789-.048-3.53-.048-5.319,0-.193.048-.435.048-.629A2.03,2.03,0,0,1,218.144,40.873Z" transform="translate(-111.819 -21.048)" fill="#3c9"/>
      <path id="Path_2267" data-name="Path 2267" d="M217.267,37.336a.873.873,0,0,1-.967-.774v-.1a.946.946,0,0,1,1.886,0,.867.867,0,0,1-.87.87Z" transform="translate(-111.716 -18.383)" fill="#3c9"/>
    </g>
  </g>
</svg>
