<svg id="Layer_1" data-name="Layer 1" xmlns="http://www.w3.org/2000/svg" viewBox="0 0 436.58 582.83"><defs><style>.cls-1{fill:#093;}.cls-2{fill:#fff;}.cls-3{fill:none;stroke:#e4edfb;stroke-miterlimit:10;stroke-width:10px;}.cls-4{fill:#e4edfb;}</style></defs><title>buy airtime</title><path class="cls-1" d="M436.58,582.83H0V0H436.58Z"/><path class="cls-2" d="M77.92,95.87a11.68,11.68,0,0,1,6.3,10.85q0,6.72-4.38,10.57t-12.7,3.85H46.42v-49H65.88q8.25,0,12.6,3.57t4.34,10.22A11.62,11.62,0,0,1,77.92,95.87ZM65,84.18H60.42v6.58l5.39-.07c2-.28,3-1.35,3-3.22A2.89,2.89,0,0,0,67.7,85,4.33,4.33,0,0,0,65,84.18ZM66.3,109.1a4.12,4.12,0,0,0,2.8-1,3.21,3.21,0,0,0,1.12-2.52q0-2.94-3.15-3.43l-6.65-.07v7Z"/><path class="cls-2" d="M110.47,86.14h13v35h-13v-3.43q-3.23,4.41-9.38,4.41a11.66,11.66,0,0,1-9.21-4q-3.47-4-3.46-11.8V86.14h13V105c0,3.13,1.44,4.69,4.34,4.69a4.32,4.32,0,0,0,3.53-1.47,6.13,6.13,0,0,0,1.23-4.06Z"/><path class="cls-2" d="M151.42,86.14h14.7l-11.9,34.93q-2.59,7.63-8.05,11t-14.42,3V122.89a21.12,21.12,0,0,0,5.46-.53,5.71,5.71,0,0,0,3-1.92l-14-34.3h14.7l6.23,18.69Z"/><path class="cls-2" d="M74.77,196.14l-1.68-6.3H59l-1.68,6.3H42.22l15.61-49H74.21l15.61,49ZM62,178.64h8.12l-4.06-15Z"/><path class="cls-2" d="M98.43,158.48a7,7,0,0,1-5.08-2.13,7,7,0,1,1,5.08,2.13Zm-6.51,37.66v-35h13v35Z"/><path class="cls-2" d="M123.42,167.93a9.46,9.46,0,0,1,3.85-5.53,11.47,11.47,0,0,1,6.65-2v14a10,10,0,0,0-7.35,1.65c-2.1,1.46-3.15,3.81-3.15,7v13h-13v-35h13Z"/><path class="cls-2" d="M161.57,173.46h-7.35V181a3.52,3.52,0,0,0,.84,2.59,3.72,3.72,0,0,0,2.48.94,32.31,32.31,0,0,0,4,0v11.62q-11,1.55-15.65-1.89t-4.65-12.53v-8.26h-4.9V161.14h4.9v-5.95l12.95-3.85v9.8h7.35Z"/><path class="cls-2" d="M172.63,158.48a7,7,0,0,1-5.08-2.13,7,7,0,1,1,5.08,2.13Zm-6.51,37.66v-35h12.95v35Z"/><path class="cls-2" d="M226,160.16q6.09,0,9.52,3.81t3.43,10.89v21.28H226V176.61q0-4-3.57-4c-2.76,0-4.13,1.73-4.13,5.18v18.34h-13V176.61q0-4-3.57-4c-2.76,0-4.13,1.73-4.13,5.18v18.34h-13v-35h13v3.29a11.51,11.51,0,0,1,9.52-4.27q6,0,8.75,4.34A12.71,12.71,0,0,1,226,160.16Z"/><path class="cls-2" d="M255.58,183.05q1.68,3.49,7.14,3.5a9.22,9.22,0,0,0,5.95-2.24l8.47,7.14q-5.25,5.67-14.84,5.67-9,0-14.39-5.22a17.44,17.44,0,0,1-5.42-13.12,18.12,18.12,0,0,1,18.62-18.62,17.63,17.63,0,0,1,13.12,5.22,17.91,17.91,0,0,1,5.15,13.12,18.83,18.83,0,0,1-.56,4.55Zm-.21-8.33h11.76a5.34,5.34,0,0,0-5.67-4.2A5.93,5.93,0,0,0,255.37,174.72Z"/><path class="cls-3" d="M141,325.64V403a15.46,15.46,0,0,0,15.46,15.47h61.86v85.05A15.46,15.46,0,0,1,202.89,519H79.17a15.46,15.46,0,0,1-15.46-15.47V287a15.46,15.46,0,0,1,15.46-15.46H202.89A15.46,15.46,0,0,1,218.35,287v23.21H156.49A15.44,15.44,0,0,0,141,325.64Z"/><rect class="cls-4" x="129.7" y="479.67" width="22.98" height="22.81"/><path class="cls-3" d="M311.15,325.64V403a15.47,15.47,0,0,1-15.47,15.47H156.49A15.46,15.46,0,0,1,141,403V325.64a15.44,15.44,0,0,1,15.46-15.46H295.68A15.46,15.46,0,0,1,311.15,325.64Z"/><rect class="cls-2" x="263.67" y="341.16" width="21.27" height="21.11"/><rect class="cls-2" x="239.64" y="376.14" width="45.3" height="21.11"/><rect class="cls-2" x="233.58" y="341.16" width="21.27" height="21.11"/><rect class="cls-2" x="204.9" y="341.16" width="21.27" height="21.11"/><rect class="cls-2" x="174.81" y="341.16" width="21.27" height="21.11"/></svg>