<svg xmlns="http://www.w3.org/2000/svg" xmlns:xlink="http://www.w3.org/1999/xlink" width="142" height="150" viewBox="0 0 142 150">
  <defs>
    <clipPath id="clip-Pay_with_your_debit_credit_card_">
      <rect width="142" height="150"/>
    </clipPath>
  </defs>
  <g id="Pay_with_your_debit_credit_card_" data-name="Pay with your debit/ credit card " clip-path="url(#clip-Pay_with_your_debit_credit_card_)">
    <g id="Group_1832" data-name="Group 1832" transform="translate(4.682 8.682)">
      <ellipse id="Ellipse_85" data-name="Ellipse 85" cx="66.318" cy="66.318" rx="66.318" ry="66.318" transform="translate(0 0)" fill="#fff"/>
      <g id="surface1" transform="translate(26.033 37.612)">
        <path id="Path_2208" data-name="Path 2208" d="M462.427,74.89,449.1,61.543v53.486h17.829v-29.3A15.284,15.284,0,0,0,462.427,74.89Zm0,0" transform="translate(-393.071 -53.902)" fill="#ffb782"/>
        <path id="Path_2209" data-name="Path 2209" d="M10.412,51.689.341,25.544A5.093,5.093,0,0,1,3.264,18.96L50.8.65a5.093,5.093,0,0,1,6.583,2.923L67.454,29.717A5.094,5.094,0,0,1,64.531,36.3L17,54.611A5.1,5.1,0,0,1,10.412,51.689Zm0,0" transform="translate(0 -0.307)" fill="#de4c3c"/>
        <path id="Path_2210" data-name="Path 2210" d="M89.191,101.961l-57,22.093,3.8,9.852,57-22.082Zm0,0" transform="translate(-28.178 -89.277)" fill="#7a4930"/>
        <path id="Path_2211" data-name="Path 2211" d="M0,33.411V5.395A5.094,5.094,0,0,1,5.1.3H56.037a5.094,5.094,0,0,1,5.094,5.094V33.411a5.094,5.094,0,0,1-5.094,5.094H5.1A5.094,5.094,0,0,1,0,33.411Zm0,0" transform="translate(-0.003 -0.301)" fill="#4398d1"/>
        <path id="Path_2223" data-name="Path 2223" d="M408.277,490.23H431.2v12.735H408.277Zm0,0" transform="translate(-357.337 -429.103)" fill="#88b337"/>
        <path id="Path_2224" data-name="Path 2224" d="M312.258,173.393a5.521,5.521,0,0,0-7.972,7.635l10.436,11.385a17.175,17.175,0,0,0,.347,17.621l.926,1.481h16.555V193.687Zm0,0" transform="translate(-265.056 -150.388)" fill="#ffb782"/>
        <path id="Path_2225" data-name="Path 2225" d="M438.9,520.852h2.547V523.4H438.9Zm0,0" transform="translate(-384.138 -455.904)" fill="#6b962a"/>
        <g id="Group_1800" data-name="Group 1800" transform="translate(5.095 5.094)">
          <path id="Path_2213" data-name="Path 2213" d="M40.832,163.609h5.094v2.547H40.832Zm0,0" transform="translate(-40.832 -148.327)" fill="#5eb3d1"/>
          <path id="Path_2214" data-name="Path 2214" d="M40.832,224.852h5.094V227.4H40.832Zm0,0" transform="translate(-40.832 -201.929)" fill="#5eb3d1"/>
          <path id="Path_2215" data-name="Path 2215" d="M224.555,224.852h5.094V227.4h-5.094Zm0,0" transform="translate(-201.632 -201.929)" fill="#5eb3d1"/>
          <path id="Path_2216" data-name="Path 2216" d="M102.074,163.609h5.094v2.547h-5.094Zm0,0" transform="translate(-94.433 -148.327)" fill="#5eb3d1"/>
          <path id="Path_2217" data-name="Path 2217" d="M163.313,163.609h5.094v2.547h-5.094Zm0,0" transform="translate(-148.031 -148.327)" fill="#5eb3d1"/>
          <path id="Path_2218" data-name="Path 2218" d="M224.555,163.609h5.094v2.547h-5.094Zm0,0" transform="translate(-201.632 -148.327)" fill="#5eb3d1"/>
          <path id="Path_2219" data-name="Path 2219" d="M418.484,41.129h2.547v3.821h-2.547Zm0,0" transform="translate(-371.365 -41.129)" fill="#5eb3d1"/>
          <path id="Path_2220" data-name="Path 2220" d="M377.656,41.129H380.2v3.821h-2.547Zm0,0" transform="translate(-335.631 -41.129)" fill="#5eb3d1"/>
          <path id="Path_2221" data-name="Path 2221" d="M336.828,41.129h2.547v3.821h-2.547Zm0,0" transform="translate(-299.897 -41.129)" fill="#5eb3d1"/>
          <path id="Path_2222" data-name="Path 2222" d="M296,41.129h2.547v3.821H296Zm0,0" transform="translate(-264.167 -41.129)" fill="#5eb3d1"/>
          <path id="Path_2226" data-name="Path 2226" d="M40.832,49.279V43.167a2.037,2.037,0,0,1,2.038-2.038h6.113a2.037,2.037,0,0,1,2.037,2.038v6.113a2.037,2.037,0,0,1-2.037,2.038H42.87A2.037,2.037,0,0,1,40.832,49.279Zm0,0" transform="translate(-40.832 -41.129)" fill="#fdb62f"/>
          <path id="Path_2227" data-name="Path 2227" d="M40.832,71.75h3.821V74.3H40.832Zm0,0" transform="translate(-40.832 -67.929)" fill="#fd7b2f"/>
          <path id="Path_2228" data-name="Path 2228" d="M91.867,71.75h3.82V74.3h-3.82Zm0,0" transform="translate(-85.499 -67.929)" fill="#fd7b2f"/>
        </g>
        <path id="Path_2229" data-name="Path 2229" d="M486.2,293.845a1.271,1.271,0,0,1-.9-.373l-5.094-5.094a1.274,1.274,0,0,1,1.8-1.8l5.094,5.094a1.274,1.274,0,0,1-.9,2.174Zm0,0" transform="translate(-419.98 -250.547)" fill="#f2a46f"/>
      </g>
    </g>
  </g>
</svg>
