<?xml version="1.0" encoding="utf-8"?>
<!-- Generator: Adobe Illustrator 23.0.5, SVG Export Plug-In . SVG Version: 6.00 Build 0)  -->
<svg version="1.1" id="Layer_1" xmlns="http://www.w3.org/2000/svg" xmlns:xlink="http://www.w3.org/1999/xlink" x="0px" y="0px"
	 viewBox="0 0 200 200" style="enable-background:new 0 0 200 200;" xml:space="preserve">
<style type="text/css">
	.st0{fill:#32B2E7;}
	.st1{fill:#211E1F;}
	.st2{fill:#F3B633;}
	.st3{fill-rule:evenodd;clip-rule:evenodd;fill:#3C333A;}
	.st4{fill-rule:evenodd;clip-rule:evenodd;fill:#3EC3F1;}
	.st5{fill:#3C333A;}
	.st6{fill:#3EC3F1;}
	.st7{fill:#3CC2F1;}
	.st8{fill:#171717;}
	.st9{fill-rule:evenodd;clip-rule:evenodd;fill:#171717;}
	.st10{fill-rule:evenodd;clip-rule:evenodd;fill:#24AAE2;}
	.st11{fill:#F1F1F2;stroke:#F1F1F2;stroke-width:37;stroke-linecap:round;stroke-linejoin:round;stroke-miterlimit:10;}
	.st12{fill:#B87F39;}
	.st13{fill:#3B333A;}
	.st14{fill:#FFFFFF;}
	.st15{fill:#F2F2F2;}
	.st16{fill:none;stroke:#32B2E7;stroke-width:6.7134;stroke-miterlimit:10;}
	.st17{fill:#5A6271;}
</style>
<path class="st17" d="M43.7,161.5L43.7,161.5c-4.6-4.6-4.6-12.2,0-16.9L145,43.3c4.6-4.6,12.2-4.6,16.9,0l0,0
	c4.6,4.6,4.6,12.2,0,16.9L60.5,161.5C55.9,166.2,48.3,166.2,43.7,161.5z"/>
<path class="st17" d="M43.7,43.3L43.7,43.3c4.6-4.6,12.2-4.6,16.9,0l101.4,101.4c4.6,4.6,4.6,12.2,0,16.9l0,0
	c-4.6,4.6-12.2,4.6-16.9,0L43.7,60.2C39,55.5,39,47.9,43.7,43.3z"/>
</svg>
