<?xml version="1.0" encoding="utf-8"?>
<!-- Generator: Adobe Illustrator 23.0.5, SVG Export Plug-In . SVG Version: 6.00 Build 0)  -->
<svg version="1.1" id="Layer_1" xmlns="http://www.w3.org/2000/svg" xmlns:xlink="http://www.w3.org/1999/xlink" x="0px" y="0px"
	 viewBox="0 0 535 771" style="enable-background:new 0 0 535 771;" xml:space="preserve">
<style type="text/css">
	.st0{clip-path:url(#SVGID_2_);}
	.st1{fill:#33CC99;}
	.st2{fill:#FFFFFF;}
	.st3{enable-background:new    ;}
	.st4{fill:#F7F3F1;}
	.st5{fill:#EFE7E3;}
	.st6{fill:#FFD36C;}
	.st7{fill:#8EE6F3;}
	.st8{fill:#72D1FB;}
	.st9{fill:#62A6FD;}
	.st10{fill:#FA9084;}
	.st11{fill:#FF6CB5;}
</style>
<g>
	<defs>
		<rect id="SVGID_1_" width="535" height="771"/>
	</defs>
	<clipPath id="SVGID_2_">
		<use xlink:href="#SVGID_1_"  style="overflow:visible;"/>
	</clipPath>
	<g id="Done_for_you" class="st0">
		<path id="Rectangle_17026" class="st1" d="M65.5,57.5h404c22.6,0,41,18.4,41,41v574c0,22.6-18.4,41-41,41h-404
			c-22.6,0-41-18.4-41-41v-574C24.5,75.9,42.9,57.5,65.5,57.5z"/>
		<circle id="Ellipse_102" class="st2" cx="164.7" cy="203" r="89.5"/>
		<g id="Component_44" transform="translate(75.173 308.5)">
			<g class="st3">
				<path class="st2" d="M11.2,36.9c3.2,0,5.9,1.1,8,3.3s3.2,5,3.2,8.2s-1.1,6-3.2,8.2s-4.8,3.3-8,3.3H1.8V36.9H11.2z M11.2,54.3
					c1.6,0,2.9-0.5,3.9-1.6c1-1.1,1.5-2.5,1.5-4.2s-0.5-3.2-1.5-4.2c-1-1.1-2.3-1.6-3.9-1.6H7.9v11.7H11.2z"/>
				<path class="st2" d="M33,60.5c-2.4,0-4.5-0.8-6.2-2.5c-1.7-1.7-2.6-3.7-2.6-6.2s0.9-4.5,2.6-6.2c1.7-1.7,3.8-2.5,6.2-2.5
					c2.5,0,4.5,0.8,6.3,2.5c1.7,1.7,2.6,3.7,2.6,6.2s-0.9,4.5-2.6,6.2C37.5,59.6,35.4,60.5,33,60.5z M33,55.2c1,0,1.8-0.3,2.4-1
					c0.6-0.6,0.9-1.5,0.9-2.5s-0.3-1.8-0.9-2.5c-0.6-0.6-1.4-1-2.4-1c-0.9,0-1.7,0.3-2.4,1c-0.6,0.6-0.9,1.5-0.9,2.5
					s0.3,1.8,0.9,2.5C31.2,54.9,32,55.2,33,55.2z"/>
				<path class="st2" d="M54.3,43c1.8,0,3.2,0.6,4.4,1.8c1.1,1.2,1.7,3,1.7,5.3V60h-5.5v-9.2c0-0.9-0.2-1.5-0.7-1.9
					c-0.5-0.4-1.1-0.7-1.8-0.7c-0.9,0-1.5,0.3-2,0.8c-0.5,0.5-0.7,1.3-0.7,2.2V60h-5.5V43.5h5.5v1.7C50.7,43.7,52.2,43,54.3,43z"/>
				<path class="st2" d="M68.1,53.8c0.5,1.3,1.8,2,3.7,2c1.2,0,2.2-0.4,3-1.2l4,2.8c-1.6,2-4,3.1-7.1,3.1c-2.8,0-5-0.8-6.7-2.5
					s-2.5-3.7-2.5-6.2c0-2.5,0.8-4.6,2.5-6.2s3.8-2.5,6.3-2.5c2.5,0,4.5,0.8,6.1,2.5c1.6,1.7,2.4,3.7,2.4,6.2c0,0.7-0.1,1.4-0.2,2
					H68.1z M68.1,50h6.3c-0.4-1.5-1.5-2.3-3.1-2.3C69.6,47.7,68.5,48.4,68.1,50z"/>
				<path class="st2" d="M82.3,52.7v-5.2h12.9v5.2H82.3z"/>
				<path class="st2" d="M107.9,41.5c-1.9-0.1-2.8,0.5-2.8,2h2.8v5.2h-2.8V60h-5.5V48.7h-2.1v-5.2h2.1c0-2.4,0.7-4.2,2.1-5.4
					c1.4-1.3,3.5-1.8,6.2-1.6V41.5z"/>
				<path class="st2" d="M117.2,60.5c-2.4,0-4.5-0.8-6.2-2.5c-1.7-1.7-2.6-3.7-2.6-6.2s0.9-4.5,2.6-6.2c1.7-1.7,3.8-2.5,6.2-2.5
					c2.5,0,4.5,0.8,6.3,2.5c1.7,1.7,2.6,3.7,2.6,6.2s-0.9,4.5-2.6,6.2C121.7,59.6,119.6,60.5,117.2,60.5z M117.2,55.2
					c1,0,1.8-0.3,2.4-1c0.6-0.6,0.9-1.5,0.9-2.5s-0.3-1.8-0.9-2.5c-0.6-0.6-1.4-1-2.4-1c-0.9,0-1.7,0.3-2.4,1
					c-0.6,0.6-0.9,1.5-0.9,2.5s0.3,1.8,0.9,2.5C115.4,54.9,116.2,55.2,117.2,55.2z"/>
				<path class="st2" d="M133.9,46.6c0.3-1.1,0.9-1.9,1.8-2.5c0.9-0.6,2-0.9,3.1-0.9v6.1c-1.3-0.2-2.4,0-3.4,0.7
					c-1,0.7-1.5,1.7-1.5,3.2V60h-5.5V43.5h5.5V46.6z"/>
				<path class="st2" d="M140.5,52.7v-5.2h12.9v5.2H140.5z"/>
				<path class="st2" d="M167.2,43.5h6.1l-5.6,16.2c-0.9,2.5-2.1,4.3-3.7,5.4c-1.6,1.1-3.7,1.6-6.2,1.5v-5.1c1.2,0,2-0.1,2.6-0.4
					c0.6-0.3,1.1-0.8,1.5-1.6l-6.6-16h6.1l3.3,9.6L167.2,43.5z"/>
				<path class="st2" d="M182.1,60.5c-2.4,0-4.5-0.8-6.2-2.5c-1.7-1.7-2.6-3.7-2.6-6.2s0.9-4.5,2.6-6.2c1.7-1.7,3.8-2.5,6.2-2.5
					c2.5,0,4.5,0.8,6.3,2.5c1.7,1.7,2.6,3.7,2.6,6.2s-0.9,4.5-2.6,6.2C186.7,59.6,184.6,60.5,182.1,60.5z M182.1,55.2
					c1,0,1.8-0.3,2.4-1c0.6-0.6,0.9-1.5,0.9-2.5s-0.3-1.8-0.9-2.5c-0.6-0.6-1.4-1-2.4-1c-0.9,0-1.7,0.3-2.4,1
					c-0.6,0.6-0.9,1.5-0.9,2.5s0.3,1.8,0.9,2.5C180.4,54.9,181.2,55.2,182.1,55.2z"/>
				<path class="st2" d="M203.8,43.5h5.5V60h-5.5v-1.7c-1,1.4-2.5,2.1-4.6,2.1c-1.8,0-3.2-0.6-4.4-1.8c-1.1-1.2-1.7-3-1.7-5.3v-9.9
					h5.5v9.2c0,0.9,0.2,1.5,0.7,1.9c0.5,0.4,1.1,0.7,1.8,0.7c0.9,0,1.5-0.3,2-0.8s0.7-1.3,0.7-2.2V43.5z"/>
			</g>
			<g class="st3">
				<path class="st2" d="M25.4,87.9V111h-5.9V98.6l-5.6,9.3h-0.6l-5.6-9.2V111H1.8V87.9h5.9l5.9,9.9l5.9-9.9H25.4z"/>
				<path class="st2" d="M40.5,94.5h5.5V111h-5.5v-1.5c-1.1,1.3-2.7,2-4.7,2c-2.2,0-4-0.8-5.5-2.5s-2.2-3.7-2.2-6.2
					c0-2.5,0.7-4.6,2.2-6.2c1.5-1.7,3.3-2.5,5.5-2.5c2,0,3.6,0.7,4.7,2V94.5z M34.5,105.4c0.6,0.7,1.5,1,2.5,1c1,0,1.9-0.3,2.5-1
					c0.6-0.7,1-1.5,1-2.6s-0.3-1.9-1-2.6c-0.6-0.7-1.5-1-2.5-1c-1,0-1.9,0.3-2.5,1c-0.6,0.7-1,1.5-1,2.6S33.8,104.7,34.5,105.4z"/>
				<path class="st2" d="M54.6,97.6c0.3-1.1,0.9-1.9,1.8-2.5c0.9-0.6,2-0.9,3.1-0.9v6.1c-1.3-0.2-2.4,0-3.4,0.7
					c-1,0.7-1.5,1.7-1.5,3.2v6.8h-5.5V94.5h5.5V97.6z"/>
				<path class="st2" d="M77.9,111h-6.1l-4.7-7v7h-5.5V87.9h5.5v13.5l4.3-6.9h6.3l-5.5,8.3L77.9,111z"/>
				<path class="st2" d="M83.3,104.8c0.5,1.3,1.8,2,3.7,2c1.2,0,2.2-0.4,3-1.2l4,2.8c-1.6,2-4,3.1-7.1,3.1c-2.8,0-5-0.8-6.7-2.5
					s-2.5-3.7-2.5-6.2c0-2.5,0.8-4.6,2.5-6.2s3.8-2.5,6.3-2.5c2.5,0,4.5,0.8,6.1,2.5c1.6,1.7,2.4,3.7,2.4,6.2c0,0.7-0.1,1.4-0.2,2
					H83.3z M83.3,101h6.3c-0.4-1.5-1.5-2.3-3.1-2.3C84.8,98.7,83.7,99.4,83.3,101z"/>
				<path class="st2" d="M107.1,99.7h-3.4v4.8c0,0.7,0.3,1.2,0.8,1.4c0.5,0.2,1.4,0.2,2.6,0.2v5c-3.3,0.4-5.6,0.1-6.9-0.9
					s-2-2.8-2-5.4v-4.9h-2.5v-5.2h2.5v-3l5.5-1.7v4.6h3.4V99.7z"/>
				<path class="st2" d="M114.6,92.2c-0.6,0.6-1.4,0.9-2.2,0.9c-0.9,0-1.6-0.3-2.2-0.9c-0.6-0.6-0.9-1.4-0.9-2.2
					c0-0.9,0.3-1.6,0.9-2.2c0.6-0.6,1.4-0.9,2.2-0.9c0.9,0,1.6,0.3,2.2,0.9c0.6,0.6,0.9,1.4,0.9,2.2
					C115.5,90.8,115.2,91.6,114.6,92.2z M109.6,111V94.5h5.5V111H109.6z"/>
				<path class="st2" d="M128.3,94c1.8,0,3.2,0.6,4.4,1.8c1.1,1.2,1.7,3,1.7,5.3v9.9h-5.5v-9.2c0-0.9-0.2-1.5-0.7-1.9
					c-0.5-0.4-1.1-0.7-1.8-0.7c-0.9,0-1.5,0.3-2,0.8c-0.5,0.5-0.7,1.3-0.7,2.2v8.8h-5.5V94.5h5.5v1.7C124.7,94.7,126.3,94,128.3,94z
					"/>
				<path class="st2" d="M149.2,94.5h5.4v15.8c0,1.3-0.2,2.5-0.7,3.5s-1.2,1.8-2,2.4c-0.8,0.6-1.8,1.1-2.8,1.4
					c-1,0.3-2.1,0.4-3.2,0.4c-1.8,0-3.5-0.3-4.9-1c-1.4-0.7-2.5-1.7-3.2-3l4.6-2.6c0.8,1.3,2,1.9,3.5,1.9c1,0,1.8-0.3,2.4-0.8
					c0.6-0.5,0.9-1.2,0.9-2.2v-1.6c-1.1,1.4-2.7,2-4.6,2c-2.3,0-4.1-0.8-5.6-2.4c-1.5-1.6-2.2-3.6-2.2-5.9s0.7-4.3,2.2-5.9
					c1.5-1.6,3.4-2.4,5.6-2.4c2,0,3.5,0.7,4.6,2V94.5z M143.1,104.9c0.6,0.6,1.5,1,2.5,1c1,0,1.9-0.3,2.5-1c0.6-0.6,1-1.5,1-2.5
					s-0.3-1.8-1-2.5c-0.6-0.6-1.5-1-2.5-1c-1,0-1.9,0.3-2.5,1c-0.6,0.6-1,1.5-1,2.5S142.5,104.2,143.1,104.9z"/>
			</g>
			<g class="st3">
				<path class="st2" d="M2.1,181v-15.1h2l5.5,9.5l1.6,3.1h0.1c0-0.8-0.1-1.6-0.1-2.4c-0.1-0.8-0.1-1.6-0.1-2.4v-7.8h1.8V181h-2
					l-5.5-9.5l-1.6-3.1H3.6c0.1,0.8,0.1,1.5,0.2,2.3c0.1,0.8,0.1,1.6,0.1,2.4v7.9H2.1z"/>
				<path class="st2" d="M21.3,181.3c-0.8,0-1.5-0.1-2.1-0.4c-0.7-0.3-1.2-0.7-1.7-1.1s-0.9-1.1-1.1-1.8c-0.3-0.7-0.4-1.5-0.4-2.5
					s0.1-1.7,0.4-2.5s0.7-1.3,1.1-1.9c0.5-0.5,1-0.9,1.6-1.2c0.6-0.3,1.2-0.4,1.9-0.4c0.7,0,1.3,0.1,1.9,0.4c0.6,0.2,1,0.6,1.4,1.1
					c0.4,0.5,0.7,1,0.9,1.7c0.2,0.6,0.3,1.4,0.3,2.2c0,0.2,0,0.4,0,0.6c0,0.2,0,0.4-0.1,0.5h-7.5c0.1,1.2,0.4,2.1,1.1,2.8
					c0.7,0.7,1.5,1,2.6,1c0.5,0,1-0.1,1.5-0.2s0.9-0.4,1.3-0.6l0.7,1.2c-0.5,0.3-1,0.6-1.6,0.8C22.7,181.2,22.1,181.3,21.3,181.3z
					 M17.8,174.5h6c0-1.1-0.2-2-0.7-2.6c-0.5-0.6-1.2-0.9-2-0.9c-0.4,0-0.8,0.1-1.1,0.2c-0.4,0.2-0.7,0.4-1,0.7
					c-0.3,0.3-0.5,0.7-0.7,1.1C18,173.5,17.8,174,17.8,174.5z"/>
				<path class="st2" d="M30.7,181l-4-11.2h2l2.1,6.3c0.2,0.6,0.3,1.1,0.5,1.7s0.3,1.1,0.5,1.6h0.1c0.2-0.5,0.3-1.1,0.5-1.6
					c0.2-0.6,0.3-1.1,0.5-1.7l2.1-6.3h1.9l-4,11.2H30.7z"/>
				<path class="st2" d="M43.5,181.3c-0.8,0-1.5-0.1-2.1-0.4c-0.7-0.3-1.2-0.7-1.7-1.1s-0.9-1.1-1.1-1.8c-0.3-0.7-0.4-1.5-0.4-2.5
					s0.1-1.7,0.4-2.5s0.7-1.3,1.1-1.9c0.5-0.5,1-0.9,1.6-1.2c0.6-0.3,1.2-0.4,1.9-0.4c0.7,0,1.3,0.1,1.9,0.4c0.6,0.2,1,0.6,1.4,1.1
					c0.4,0.5,0.7,1,0.9,1.7c0.2,0.6,0.3,1.4,0.3,2.2c0,0.2,0,0.4,0,0.6c0,0.2,0,0.4-0.1,0.5H40c0.1,1.2,0.4,2.1,1.1,2.8
					c0.7,0.7,1.5,1,2.6,1c0.5,0,1-0.1,1.5-0.2s0.9-0.4,1.3-0.6l0.7,1.2c-0.5,0.3-1,0.6-1.6,0.8C44.9,181.2,44.2,181.3,43.5,181.3z
					 M40,174.5h6c0-1.1-0.2-2-0.7-2.6c-0.5-0.6-1.2-0.9-2-0.9c-0.4,0-0.8,0.1-1.1,0.2c-0.4,0.2-0.7,0.4-1,0.7
					c-0.3,0.3-0.5,0.7-0.7,1.1C40.1,173.5,40,174,40,174.5z"/>
				<path class="st2" d="M50.3,181v-11.2h1.6l0.2,2h0.1c0.4-0.7,0.8-1.3,1.4-1.7s1.1-0.6,1.8-0.6c0.4,0,0.8,0.1,1.2,0.2l-0.4,1.7
					c-0.2-0.1-0.4-0.1-0.5-0.1c-0.2,0-0.3,0-0.6,0c-0.5,0-1,0.2-1.5,0.6c-0.5,0.4-1,1-1.3,2v7.2H50.3z"/>
				<path class="st2" d="M62.9,181v-16.4h1.9v4.5l-0.1,2.3c0.5-0.5,1.1-0.9,1.7-1.3s1.3-0.5,2-0.5c1.2,0,2,0.4,2.6,1.1
					c0.5,0.7,0.8,1.8,0.8,3.3v7.1H70v-6.8c0-1.1-0.2-1.8-0.5-2.3s-0.9-0.7-1.6-0.7c-0.6,0-1.1,0.1-1.5,0.4c-0.4,0.3-1,0.7-1.5,1.3
					v8.1H62.9z"/>
				<path class="st2" d="M78,181.3c-0.9,0-1.7-0.3-2.3-0.8s-0.9-1.3-0.9-2.3c0-1.2,0.5-2.2,1.6-2.8c1.1-0.7,2.8-1.1,5.2-1.4
					c0-0.4,0-0.7-0.1-1c-0.1-0.3-0.2-0.6-0.4-0.9s-0.4-0.5-0.7-0.6c-0.3-0.2-0.7-0.2-1.1-0.2c-0.6,0-1.3,0.1-1.8,0.4
					c-0.6,0.2-1.1,0.5-1.5,0.8l-0.7-1.3c0.5-0.3,1.2-0.7,1.9-1c0.8-0.3,1.6-0.5,2.5-0.5c1.4,0,2.4,0.4,3,1.3c0.6,0.8,0.9,2,0.9,3.3
					v6.9h-1.6l-0.2-1.3h-0.1c-0.5,0.4-1.1,0.8-1.7,1.1C79.4,181.2,78.7,181.3,78,181.3z M78.6,179.8c0.5,0,1-0.1,1.5-0.4
					c0.5-0.3,1-0.6,1.5-1.1v-3.1c-0.9,0.1-1.7,0.3-2.4,0.4c-0.6,0.2-1.1,0.4-1.5,0.6c-0.4,0.2-0.7,0.5-0.9,0.8s-0.3,0.6-0.3,1
					c0,0.6,0.2,1.1,0.6,1.4C77.5,179.7,78,179.8,78.6,179.8z"/>
				<path class="st2" d="M89.4,181l-4-11.2h2l2.1,6.3c0.2,0.6,0.3,1.1,0.5,1.7s0.3,1.1,0.5,1.6h0.1c0.2-0.5,0.3-1.1,0.5-1.6
					c0.2-0.6,0.3-1.1,0.5-1.7l2.1-6.3h1.9l-4,11.2H89.4z"/>
				<path class="st2" d="M102.2,181.3c-0.8,0-1.5-0.1-2.1-0.4c-0.7-0.3-1.2-0.7-1.7-1.1s-0.9-1.1-1.1-1.8c-0.3-0.7-0.4-1.5-0.4-2.5
					s0.1-1.7,0.4-2.5s0.7-1.3,1.1-1.9c0.5-0.5,1-0.9,1.6-1.2c0.6-0.3,1.2-0.4,1.9-0.4c0.7,0,1.3,0.1,1.9,0.4c0.6,0.2,1,0.6,1.4,1.1
					c0.4,0.5,0.7,1,0.9,1.7c0.2,0.6,0.3,1.4,0.3,2.2c0,0.2,0,0.4,0,0.6c0,0.2,0,0.4-0.1,0.5h-7.5c0.1,1.2,0.4,2.1,1.1,2.8
					c0.7,0.7,1.5,1,2.6,1c0.5,0,1-0.1,1.5-0.2s0.9-0.4,1.3-0.6l0.7,1.2c-0.5,0.3-1,0.6-1.6,0.8C103.7,181.2,103,181.3,102.2,181.3z
					 M98.7,174.5h6c0-1.1-0.2-2-0.7-2.6c-0.5-0.6-1.2-0.9-2-0.9c-0.4,0-0.8,0.1-1.1,0.2c-0.4,0.2-0.7,0.4-1,0.7
					c-0.3,0.3-0.5,0.7-0.7,1.1C98.9,173.5,98.8,174,98.7,174.5z"/>
				<path class="st2" d="M117.2,181.3c-0.6,0-1.1-0.1-1.5-0.3s-0.7-0.4-1-0.8s-0.4-0.7-0.5-1.2c-0.1-0.5-0.2-1-0.2-1.5v-6.2h-1.7
					V170l1.7-0.1l0.2-3.1h1.6v3.1h3v1.5h-3v6.2c0,0.7,0.1,1.2,0.4,1.6s0.7,0.6,1.3,0.6c0.2,0,0.4,0,0.6-0.1c0.2-0.1,0.4-0.1,0.6-0.2
					l0.4,1.4c-0.3,0.1-0.6,0.2-1,0.3C117.9,181.3,117.6,181.3,117.2,181.3z"/>
				<path class="st2" d="M125.5,181.3c-0.7,0-1.3-0.1-2-0.4s-1.2-0.6-1.6-1.1c-0.5-0.5-0.9-1.1-1.1-1.8c-0.3-0.7-0.4-1.6-0.4-2.5
					c0-0.9,0.1-1.8,0.4-2.5s0.7-1.3,1.1-1.9c0.5-0.5,1-0.9,1.6-1.2c0.6-0.3,1.3-0.4,2-0.4s1.3,0.1,2,0.4c0.6,0.3,1.2,0.6,1.6,1.2
					c0.5,0.5,0.9,1.1,1.1,1.9s0.4,1.6,0.4,2.5c0,0.9-0.1,1.7-0.4,2.5c-0.3,0.7-0.7,1.3-1.1,1.8c-0.5,0.5-1,0.9-1.6,1.1
					C126.8,181.2,126.2,181.3,125.5,181.3z M125.5,179.7c0.5,0,0.9-0.1,1.3-0.3c0.4-0.2,0.7-0.5,1-0.9c0.3-0.4,0.5-0.8,0.7-1.3
					c0.2-0.5,0.2-1.1,0.2-1.7c0-0.6-0.1-1.2-0.2-1.8c-0.2-0.5-0.4-1-0.7-1.4c-0.3-0.4-0.6-0.7-1-0.9c-0.4-0.2-0.8-0.3-1.3-0.3
					c-0.5,0-0.9,0.1-1.3,0.3c-0.4,0.2-0.7,0.5-1,0.9c-0.3,0.4-0.5,0.8-0.7,1.4c-0.2,0.5-0.2,1.1-0.2,1.8c0,0.6,0.1,1.2,0.2,1.7
					c0.2,0.5,0.4,1,0.7,1.3c0.3,0.4,0.6,0.7,1,0.9C124.6,179.6,125,179.7,125.5,179.7z"/>
				<path class="st2" d="M140,181l-3.1-11.2h1.9l1.7,6.5c0.1,0.5,0.2,1.1,0.3,1.6c0.1,0.5,0.2,1,0.3,1.5h0.1c0.1-0.5,0.2-1,0.4-1.6
					c0.1-0.5,0.3-1,0.4-1.6l1.7-6.5h1.8l1.7,6.5c0.1,0.5,0.3,1.1,0.4,1.6c0.1,0.5,0.3,1,0.4,1.5h0.1c0.1-0.5,0.2-1,0.3-1.5
					c0.1-0.5,0.2-1,0.3-1.6l1.6-6.5h1.8l-3,11.2H147l-1.6-6c-0.1-0.5-0.3-1.1-0.4-1.6c-0.1-0.5-0.2-1.1-0.4-1.6h-0.1
					c-0.1,0.6-0.2,1.1-0.4,1.6c-0.1,0.5-0.3,1.1-0.4,1.6l-1.6,6H140z"/>
				<path class="st2" d="M159,181.3c-0.7,0-1.3-0.1-2-0.4s-1.2-0.6-1.6-1.1c-0.5-0.5-0.9-1.1-1.1-1.8c-0.3-0.7-0.4-1.6-0.4-2.5
					c0-0.9,0.1-1.8,0.4-2.5s0.7-1.3,1.1-1.9c0.5-0.5,1-0.9,1.6-1.2c0.6-0.3,1.3-0.4,2-0.4s1.3,0.1,2,0.4c0.6,0.3,1.2,0.6,1.6,1.2
					c0.5,0.5,0.9,1.1,1.1,1.9s0.4,1.6,0.4,2.5c0,0.9-0.1,1.7-0.4,2.5c-0.3,0.7-0.7,1.3-1.1,1.8c-0.5,0.5-1,0.9-1.6,1.1
					C160.3,181.2,159.7,181.3,159,181.3z M159,179.7c0.5,0,0.9-0.1,1.3-0.3c0.4-0.2,0.7-0.5,1-0.9c0.3-0.4,0.5-0.8,0.7-1.3
					c0.2-0.5,0.2-1.1,0.2-1.7c0-0.6-0.1-1.2-0.2-1.8c-0.2-0.5-0.4-1-0.7-1.4c-0.3-0.4-0.6-0.7-1-0.9c-0.4-0.2-0.8-0.3-1.3-0.3
					c-0.5,0-0.9,0.1-1.3,0.3c-0.4,0.2-0.7,0.5-1,0.9c-0.3,0.4-0.5,0.8-0.7,1.4c-0.2,0.5-0.2,1.1-0.2,1.8c0,0.6,0.1,1.2,0.2,1.7
					c0.2,0.5,0.4,1,0.7,1.3c0.3,0.4,0.6,0.7,1,0.9C158.1,179.6,158.5,179.7,159,179.7z"/>
				<path class="st2" d="M167.1,181v-11.2h1.6l0.2,2h0.1c0.4-0.7,0.8-1.3,1.4-1.7s1.1-0.6,1.8-0.6c0.4,0,0.8,0.1,1.2,0.2l-0.4,1.7
					c-0.2-0.1-0.4-0.1-0.5-0.1c-0.2,0-0.3,0-0.6,0c-0.5,0-1,0.2-1.5,0.6c-0.5,0.4-1,1-1.3,2v7.2H167.1z"/>
				<path class="st2" d="M175.1,181v-11.2h1.6l0.2,2h0.1c0.4-0.7,0.8-1.3,1.4-1.7s1.1-0.6,1.8-0.6c0.4,0,0.8,0.1,1.2,0.2l-0.4,1.7
					c-0.2-0.1-0.4-0.1-0.5-0.1c-0.2,0-0.3,0-0.6,0c-0.5,0-1,0.2-1.5,0.6c-0.5,0.4-1,1-1.3,2v7.2H175.1z"/>
				<path class="st2" d="M183.8,185.8c-0.3,0-0.5,0-0.7-0.1s-0.4-0.1-0.6-0.2l0.4-1.5c0.1,0,0.3,0.1,0.4,0.1s0.3,0.1,0.4,0.1
					c0.6,0,1.2-0.2,1.6-0.7c0.4-0.5,0.7-1,1-1.7l0.3-0.8l-4.5-11.2h2l2.3,6.2c0.2,0.5,0.3,1,0.5,1.6s0.4,1.1,0.5,1.6h0.1
					c0.2-0.5,0.3-1,0.5-1.6c0.2-0.6,0.3-1.1,0.5-1.6l2-6.2h1.8L188,182c-0.2,0.6-0.4,1.1-0.7,1.5s-0.5,0.9-0.9,1.2s-0.7,0.6-1.1,0.8
					S184.4,185.8,183.8,185.8z"/>
				<path class="st2" d="M201.5,181.3c-0.9,0-1.7-0.3-2.3-0.8s-0.9-1.3-0.9-2.3c0-1.2,0.5-2.2,1.6-2.8c1.1-0.7,2.8-1.1,5.2-1.4
					c0-0.4,0-0.7-0.1-1c-0.1-0.3-0.2-0.6-0.4-0.9s-0.4-0.5-0.7-0.6s-0.7-0.2-1.1-0.2c-0.6,0-1.3,0.1-1.8,0.4
					c-0.6,0.2-1.1,0.5-1.5,0.8l-0.7-1.3c0.5-0.3,1.2-0.7,1.9-1s1.6-0.5,2.5-0.5c1.4,0,2.4,0.4,3,1.3s0.9,2,0.9,3.3v6.9h-1.6
					l-0.2-1.3h-0.1c-0.5,0.4-1.1,0.8-1.7,1.1C202.9,181.2,202.2,181.3,201.5,181.3z M202.1,179.8c0.5,0,1-0.1,1.5-0.4s1-0.6,1.5-1.1
					v-3.1c-0.9,0.1-1.7,0.3-2.4,0.4c-0.6,0.2-1.1,0.4-1.5,0.6c-0.4,0.2-0.7,0.5-0.9,0.8c-0.2,0.3-0.3,0.6-0.3,1
					c0,0.6,0.2,1.1,0.6,1.4C201.1,179.7,201.5,179.8,202.1,179.8z"/>
				<path class="st2" d="M215.5,181.3c-0.5,0-1.1-0.1-1.6-0.4s-1.1-0.6-1.6-1h-0.1l-0.2,1.2h-1.5v-16.4h1.9v4.5l0,2
					c0.5-0.4,1.1-0.8,1.7-1.1c0.6-0.3,1.2-0.4,1.8-0.4c0.7,0,1.4,0.1,1.9,0.4c0.6,0.3,1,0.7,1.4,1.2c0.4,0.5,0.7,1.1,0.9,1.8
					c0.2,0.7,0.3,1.5,0.3,2.3c0,1-0.1,1.8-0.4,2.6s-0.6,1.4-1.1,1.9c-0.4,0.5-1,0.9-1.5,1.2C216.8,181.2,216.2,181.3,215.5,181.3z
					 M215.2,179.7c0.5,0,0.9-0.1,1.3-0.3s0.7-0.5,1-0.9c0.3-0.4,0.5-0.8,0.7-1.4c0.2-0.6,0.2-1.2,0.2-1.9c0-0.6-0.1-1.2-0.2-1.7
					c-0.1-0.5-0.3-0.9-0.5-1.3c-0.2-0.4-0.5-0.6-0.9-0.8c-0.4-0.2-0.8-0.3-1.3-0.3c-0.9,0-1.9,0.5-3,1.5v5.9c0.5,0.4,1,0.7,1.5,0.9
					C214.4,179.6,214.8,179.7,215.2,179.7z"/>
				<path class="st2" d="M227.6,181.3c-0.7,0-1.3-0.1-2-0.4s-1.2-0.6-1.6-1.1c-0.5-0.5-0.9-1.1-1.1-1.8c-0.3-0.7-0.4-1.6-0.4-2.5
					c0-0.9,0.1-1.8,0.4-2.5c0.3-0.7,0.7-1.3,1.1-1.9c0.5-0.5,1-0.9,1.6-1.2c0.6-0.3,1.3-0.4,2-0.4c0.7,0,1.3,0.1,2,0.4
					c0.6,0.3,1.2,0.6,1.6,1.2s0.9,1.1,1.1,1.9c0.3,0.7,0.4,1.6,0.4,2.5c0,0.9-0.1,1.7-0.4,2.5c-0.3,0.7-0.7,1.3-1.1,1.8
					c-0.5,0.5-1,0.9-1.6,1.1S228.3,181.3,227.6,181.3z M227.6,179.7c0.5,0,0.9-0.1,1.3-0.3c0.4-0.2,0.7-0.5,1-0.9
					c0.3-0.4,0.5-0.8,0.7-1.3c0.2-0.5,0.2-1.1,0.2-1.7c0-0.6-0.1-1.2-0.2-1.8c-0.2-0.5-0.4-1-0.7-1.4c-0.3-0.4-0.6-0.7-1-0.9
					c-0.4-0.2-0.8-0.3-1.3-0.3s-0.9,0.1-1.3,0.3c-0.4,0.2-0.7,0.5-1,0.9c-0.3,0.4-0.5,0.8-0.7,1.4c-0.2,0.5-0.2,1.1-0.2,1.8
					c0,0.6,0.1,1.2,0.2,1.7c0.2,0.5,0.4,1,0.7,1.3c0.3,0.4,0.6,0.7,1,0.9C226.7,179.6,227.2,179.7,227.6,179.7z"/>
				<path class="st2" d="M239,181.3c-1.2,0-2.1-0.4-2.6-1.1s-0.8-1.8-0.8-3.3v-7.1h1.9v6.8c0,1.1,0.2,1.8,0.5,2.3
					c0.3,0.5,0.9,0.7,1.6,0.7c0.6,0,1.1-0.1,1.5-0.4s0.9-0.8,1.5-1.4v-7.9h1.9V181h-1.6l-0.2-1.7h-0.1c-0.5,0.6-1.1,1.1-1.6,1.5
					C240.5,181.1,239.8,181.3,239,181.3z"/>
				<path class="st2" d="M251.8,181.3c-0.6,0-1.1-0.1-1.5-0.3s-0.7-0.4-1-0.8s-0.4-0.7-0.5-1.2c-0.1-0.5-0.2-1-0.2-1.5v-6.2h-1.7
					V170l1.7-0.1l0.2-3.1h1.6v3.1h3v1.5h-3v6.2c0,0.7,0.1,1.2,0.4,1.6s0.7,0.6,1.3,0.6c0.2,0,0.4,0,0.6-0.1c0.2-0.1,0.4-0.1,0.6-0.2
					l0.4,1.4c-0.3,0.1-0.6,0.2-1,0.3C252.5,181.3,252.1,181.3,251.8,181.3z"/>
				<path class="st2" d="M265.2,181.3c-0.8,0-1.5-0.1-2.1-0.4c-0.7-0.3-1.2-0.7-1.7-1.1c-0.5-0.5-0.9-1.1-1.1-1.8
					c-0.3-0.7-0.4-1.5-0.4-2.5s0.1-1.7,0.4-2.5c0.3-0.7,0.7-1.3,1.1-1.9c0.5-0.5,1-0.9,1.6-1.2c0.6-0.3,1.2-0.4,1.9-0.4
					c0.7,0,1.3,0.1,1.9,0.4c0.6,0.2,1,0.6,1.4,1.1s0.7,1,0.9,1.7c0.2,0.6,0.3,1.4,0.3,2.2c0,0.2,0,0.4,0,0.6c0,0.2,0,0.4-0.1,0.5
					h-7.5c0.1,1.2,0.4,2.1,1.1,2.8c0.7,0.7,1.5,1,2.6,1c0.5,0,1-0.1,1.5-0.2s0.9-0.4,1.3-0.6l0.7,1.2c-0.5,0.3-1,0.6-1.6,0.8
					C266.6,181.2,265.9,181.3,265.2,181.3z M261.6,174.5h6c0-1.1-0.2-2-0.7-2.6c-0.5-0.6-1.2-0.9-2-0.9c-0.4,0-0.8,0.1-1.1,0.2
					c-0.4,0.2-0.7,0.4-1,0.7c-0.3,0.3-0.5,0.7-0.7,1.1C261.8,173.5,261.7,174,261.6,174.5z"/>
				<path class="st2" d="M272,181v-11.2h1.6l0.2,1.6h0.1c0.5-0.5,1.1-1,1.7-1.3c0.6-0.4,1.3-0.5,2.1-0.5c1.2,0,2,0.4,2.6,1.1
					c0.5,0.7,0.8,1.8,0.8,3.3v7.1h-1.9v-6.8c0-1.1-0.2-1.8-0.5-2.3c-0.3-0.5-0.9-0.7-1.6-0.7c-0.6,0-1.1,0.1-1.5,0.4s-1,0.7-1.5,1.3
					v8.1H272z"/>
				<path class="st2" d="M288.4,181.3c-1.4,0-2.5-0.5-3.4-1.5s-1.3-2.5-1.3-4.3c0-0.9,0.1-1.7,0.4-2.4c0.3-0.7,0.6-1.3,1.1-1.9
					c0.4-0.5,1-0.9,1.5-1.2s1.2-0.4,1.8-0.4c0.6,0,1.2,0.1,1.7,0.3c0.5,0.2,1,0.5,1.4,0.9l-0.1-1.9v-4.3h1.9V181H292l-0.2-1.3h-0.1
					c-0.4,0.4-1,0.8-1.5,1.1C289.7,181.2,289.1,181.3,288.4,181.3z M288.9,179.7c0.5,0,1-0.1,1.5-0.4s0.9-0.6,1.4-1.2v-5.8
					c-0.5-0.4-0.9-0.7-1.4-0.9c-0.4-0.2-0.9-0.3-1.3-0.3c-0.4,0-0.9,0.1-1.3,0.3c-0.4,0.2-0.7,0.5-1,0.9c-0.3,0.4-0.5,0.8-0.7,1.3
					c-0.2,0.5-0.3,1.1-0.3,1.7c0,1.3,0.3,2.4,0.8,3.2C287.1,179.3,287.9,179.7,288.9,179.7z"/>
				<path class="st2" d="M299.4,181.3c-0.7,0-1.2-0.2-1.5-0.6c-0.3-0.4-0.5-1.1-0.5-1.9v-14.1h1.9v14.3c0,0.3,0.1,0.5,0.2,0.6
					c0.1,0.1,0.2,0.2,0.4,0.2c0.1,0,0.1,0,0.2,0s0.1,0,0.2,0l0.3,1.4c-0.1,0.1-0.3,0.1-0.4,0.1C299.9,181.3,299.6,181.3,299.4,181.3
					z"/>
				<path class="st2" d="M307.8,181.3c-0.8,0-1.5-0.1-2.1-0.4c-0.7-0.3-1.2-0.7-1.7-1.1c-0.5-0.5-0.9-1.1-1.1-1.8
					c-0.3-0.7-0.4-1.5-0.4-2.5s0.1-1.7,0.4-2.5c0.3-0.7,0.7-1.3,1.1-1.9c0.5-0.5,1-0.9,1.6-1.2c0.6-0.3,1.2-0.4,1.9-0.4
					c0.7,0,1.3,0.1,1.9,0.4c0.6,0.2,1,0.6,1.4,1.1s0.7,1,0.9,1.7c0.2,0.6,0.3,1.4,0.3,2.2c0,0.2,0,0.4,0,0.6c0,0.2,0,0.4-0.1,0.5
					h-7.5c0.1,1.2,0.4,2.1,1.1,2.8c0.7,0.7,1.5,1,2.6,1c0.5,0,1-0.1,1.5-0.2s0.9-0.4,1.3-0.6l0.7,1.2c-0.5,0.3-1,0.6-1.6,0.8
					C309.2,181.2,308.5,181.3,307.8,181.3z M304.3,174.5h6c0-1.1-0.2-2-0.7-2.6c-0.5-0.6-1.2-0.9-2-0.9c-0.4,0-0.8,0.1-1.1,0.2
					c-0.4,0.2-0.7,0.4-1,0.7c-0.3,0.3-0.5,0.7-0.7,1.1C304.4,173.5,304.3,174,304.3,174.5z"/>
				<path class="st2" d="M317.6,181.3c-0.8,0-1.6-0.1-2.3-0.4s-1.3-0.7-1.9-1.1l0.9-1.3c0.5,0.4,1,0.7,1.5,1
					c0.5,0.2,1.1,0.4,1.8,0.4c0.7,0,1.3-0.2,1.7-0.5c0.4-0.3,0.6-0.8,0.6-1.2c0-0.3-0.1-0.5-0.2-0.8s-0.3-0.4-0.6-0.6
					s-0.5-0.3-0.8-0.4c-0.3-0.1-0.6-0.2-0.9-0.4c-0.4-0.1-0.8-0.3-1.2-0.5c-0.4-0.2-0.8-0.4-1.1-0.6s-0.6-0.5-0.8-0.9
					c-0.2-0.3-0.3-0.7-0.3-1.2c0-0.4,0.1-0.9,0.3-1.3c0.2-0.4,0.4-0.7,0.8-1c0.3-0.3,0.7-0.5,1.2-0.7c0.5-0.2,1-0.2,1.6-0.2
					c0.7,0,1.4,0.1,1.9,0.4c0.6,0.2,1.1,0.5,1.5,0.9l-0.9,1.2c-0.4-0.3-0.8-0.5-1.2-0.7s-0.9-0.3-1.4-0.3c-0.7,0-1.2,0.2-1.6,0.5
					c-0.3,0.3-0.5,0.7-0.5,1.1c0,0.3,0.1,0.5,0.2,0.7c0.1,0.2,0.3,0.4,0.6,0.5c0.2,0.1,0.5,0.3,0.8,0.4c0.3,0.1,0.6,0.2,0.9,0.4
					c0.4,0.2,0.8,0.3,1.2,0.5c0.4,0.2,0.8,0.4,1.1,0.6c0.3,0.3,0.6,0.6,0.8,0.9c0.2,0.4,0.3,0.8,0.3,1.3c0,0.5-0.1,0.9-0.3,1.3
					c-0.2,0.4-0.4,0.8-0.8,1.1c-0.3,0.3-0.8,0.5-1.3,0.7C318.8,181.2,318.2,181.3,317.6,181.3z"/>
				<path class="st2" d="M327.2,181.3c-0.8,0-1.6-0.1-2.3-0.4s-1.3-0.7-1.9-1.1l0.9-1.3c0.5,0.4,1,0.7,1.5,1
					c0.5,0.2,1.1,0.4,1.8,0.4c0.7,0,1.3-0.2,1.7-0.5c0.4-0.3,0.6-0.8,0.6-1.2c0-0.3-0.1-0.5-0.2-0.8s-0.3-0.4-0.6-0.6
					s-0.5-0.3-0.8-0.4c-0.3-0.1-0.6-0.2-0.9-0.4c-0.4-0.1-0.8-0.3-1.2-0.5c-0.4-0.2-0.8-0.4-1.1-0.6s-0.6-0.5-0.8-0.9
					c-0.2-0.3-0.3-0.7-0.3-1.2c0-0.4,0.1-0.9,0.3-1.3c0.2-0.4,0.4-0.7,0.8-1c0.3-0.3,0.7-0.5,1.2-0.7c0.5-0.2,1-0.2,1.6-0.2
					c0.7,0,1.4,0.1,1.9,0.4c0.6,0.2,1.1,0.5,1.5,0.9L330,172c-0.4-0.3-0.8-0.5-1.2-0.7s-0.9-0.3-1.4-0.3c-0.7,0-1.2,0.2-1.6,0.5
					c-0.3,0.3-0.5,0.7-0.5,1.1c0,0.3,0.1,0.5,0.2,0.7c0.1,0.2,0.3,0.4,0.6,0.5c0.2,0.1,0.5,0.3,0.8,0.4c0.3,0.1,0.6,0.2,0.9,0.4
					c0.4,0.2,0.8,0.3,1.2,0.5c0.4,0.2,0.8,0.4,1.1,0.6c0.3,0.3,0.6,0.6,0.8,0.9c0.2,0.4,0.3,0.8,0.3,1.3c0,0.5-0.1,0.9-0.3,1.3
					c-0.2,0.4-0.4,0.8-0.8,1.1c-0.3,0.3-0.8,0.5-1.3,0.7C328.5,181.2,327.9,181.3,327.2,181.3z"/>
			</g>
			<g class="st3">
				<path class="st2" d="M1.9,228v-16.4h1.9v4.5l-0.1,2.3c0.5-0.5,1.1-0.9,1.7-1.3s1.3-0.5,2-0.5c1.2,0,2,0.4,2.6,1.1
					c0.5,0.7,0.8,1.8,0.8,3.3v7.1H8.9v-6.8c0-1.1-0.2-1.8-0.5-2.3s-0.9-0.7-1.6-0.7c-0.6,0-1.1,0.1-1.5,0.4c-0.4,0.3-1,0.7-1.5,1.3
					v8.1H1.9z"/>
				<path class="st2" d="M18.7,228.3c-0.7,0-1.3-0.1-2-0.4s-1.2-0.6-1.6-1.1c-0.5-0.5-0.9-1.1-1.1-1.8c-0.3-0.7-0.4-1.6-0.4-2.5
					c0-0.9,0.1-1.8,0.4-2.5s0.7-1.3,1.1-1.9c0.5-0.5,1-0.9,1.6-1.2c0.6-0.3,1.3-0.4,2-0.4s1.3,0.1,2,0.4c0.6,0.3,1.2,0.6,1.6,1.2
					c0.5,0.5,0.9,1.1,1.1,1.9s0.4,1.6,0.4,2.5c0,0.9-0.1,1.7-0.4,2.5c-0.3,0.7-0.7,1.3-1.1,1.8c-0.5,0.5-1,0.9-1.6,1.1
					C20.1,228.2,19.4,228.3,18.7,228.3z M18.7,226.7c0.5,0,0.9-0.1,1.3-0.3c0.4-0.2,0.7-0.5,1-0.9c0.3-0.4,0.5-0.8,0.7-1.3
					c0.2-0.5,0.2-1.1,0.2-1.7c0-0.6-0.1-1.2-0.2-1.8c-0.2-0.5-0.4-1-0.7-1.4c-0.3-0.4-0.6-0.7-1-0.9c-0.4-0.2-0.8-0.3-1.3-0.3
					c-0.5,0-0.9,0.1-1.3,0.3c-0.4,0.2-0.7,0.5-1,0.9c-0.3,0.4-0.5,0.8-0.7,1.4c-0.2,0.5-0.2,1.1-0.2,1.8c0,0.6,0.1,1.2,0.2,1.7
					c0.2,0.5,0.4,1,0.7,1.3c0.3,0.4,0.6,0.7,1,0.9C17.8,226.6,18.3,226.7,18.7,226.7z"/>
				<path class="st2" d="M30.1,228.3c-1.2,0-2.1-0.4-2.6-1.1c-0.5-0.7-0.8-1.8-0.8-3.3v-7.1h1.9v6.8c0,1.1,0.2,1.8,0.5,2.3
					s0.9,0.7,1.6,0.7c0.6,0,1.1-0.1,1.5-0.4c0.4-0.3,0.9-0.8,1.5-1.4v-7.9h1.9V228H34l-0.2-1.7h-0.1c-0.5,0.6-1.1,1.1-1.6,1.5
					C31.6,228.1,30.9,228.3,30.1,228.3z"/>
				<path class="st2" d="M39.4,228v-11.2h1.6l0.2,2h0.1c0.4-0.7,0.8-1.3,1.4-1.7s1.1-0.6,1.8-0.6c0.4,0,0.8,0.1,1.2,0.2l-0.4,1.7
					c-0.2-0.1-0.4-0.1-0.5-0.1c-0.2,0-0.3,0-0.6,0c-0.5,0-1,0.2-1.5,0.6c-0.5,0.4-1,1-1.3,2v7.2H39.4z"/>
				<path class="st2" d="M50.2,228.3c-0.8,0-1.6-0.1-2.3-0.4s-1.3-0.7-1.9-1.1l0.9-1.3c0.5,0.4,1,0.7,1.5,1c0.5,0.2,1.1,0.4,1.8,0.4
					c0.7,0,1.3-0.2,1.7-0.5c0.4-0.3,0.6-0.8,0.6-1.2c0-0.3-0.1-0.5-0.2-0.8s-0.3-0.4-0.6-0.6c-0.2-0.2-0.5-0.3-0.8-0.4
					c-0.3-0.1-0.6-0.2-0.9-0.4c-0.4-0.1-0.8-0.3-1.2-0.5c-0.4-0.2-0.8-0.4-1.1-0.6c-0.3-0.3-0.6-0.5-0.8-0.9
					c-0.2-0.3-0.3-0.7-0.3-1.2c0-0.4,0.1-0.9,0.3-1.3c0.2-0.4,0.4-0.7,0.8-1c0.3-0.3,0.7-0.5,1.2-0.7c0.5-0.2,1-0.2,1.6-0.2
					c0.7,0,1.4,0.1,1.9,0.4s1.1,0.5,1.5,0.9L53,219c-0.4-0.3-0.8-0.5-1.2-0.7s-0.9-0.3-1.4-0.3c-0.7,0-1.2,0.2-1.6,0.5
					s-0.5,0.7-0.5,1.1c0,0.3,0.1,0.5,0.2,0.7c0.1,0.2,0.3,0.4,0.6,0.5s0.5,0.3,0.8,0.4c0.3,0.1,0.6,0.2,0.9,0.4
					c0.4,0.2,0.8,0.3,1.2,0.5c0.4,0.2,0.8,0.4,1.1,0.6c0.3,0.3,0.6,0.6,0.8,0.9c0.2,0.4,0.3,0.8,0.3,1.3c0,0.5-0.1,0.9-0.3,1.3
					c-0.2,0.4-0.4,0.8-0.8,1.1s-0.8,0.5-1.3,0.7C51.4,228.2,50.8,228.3,50.2,228.3z"/>
				<path class="st2" d="M61.5,232.7v-15.9h1.6l0.2,1.3h0.1c0.5-0.4,1.1-0.8,1.7-1.1c0.6-0.3,1.2-0.5,1.9-0.5c0.7,0,1.4,0.1,1.9,0.4
					c0.6,0.3,1,0.7,1.4,1.2c0.4,0.5,0.6,1.1,0.8,1.8c0.2,0.7,0.3,1.5,0.3,2.4c0,1-0.1,1.8-0.4,2.5c-0.3,0.7-0.6,1.4-1.1,1.9
					s-1,0.9-1.5,1.2c-0.6,0.3-1.2,0.4-1.8,0.4c-0.5,0-1-0.1-1.6-0.3c-0.5-0.2-1-0.5-1.6-0.9l0,2v3.8H61.5z M66.1,226.7
					c0.5,0,0.9-0.1,1.3-0.3c0.4-0.2,0.7-0.5,1-0.9s0.5-0.8,0.7-1.4c0.2-0.6,0.2-1.2,0.2-1.9c0-0.6-0.1-1.2-0.2-1.7
					c-0.1-0.5-0.3-0.9-0.5-1.3s-0.5-0.6-0.9-0.8c-0.4-0.2-0.8-0.3-1.3-0.3c-0.5,0-1,0.1-1.4,0.4c-0.5,0.3-1,0.6-1.6,1.1v5.9
					c0.5,0.4,1,0.7,1.5,0.9C65.3,226.6,65.8,226.7,66.1,226.7z"/>
				<path class="st2" d="M74.3,228v-11.2h1.6l0.2,2h0.1c0.4-0.7,0.8-1.3,1.4-1.7s1.1-0.6,1.8-0.6c0.4,0,0.8,0.1,1.2,0.2l-0.4,1.7
					c-0.2-0.1-0.4-0.1-0.5-0.1c-0.2,0-0.3,0-0.6,0c-0.5,0-1,0.2-1.5,0.6c-0.5,0.4-1,1-1.3,2v7.2H74.3z"/>
				<path class="st2" d="M86.4,228.3c-0.7,0-1.3-0.1-2-0.4s-1.2-0.6-1.6-1.1c-0.5-0.5-0.9-1.1-1.1-1.8c-0.3-0.7-0.4-1.6-0.4-2.5
					c0-0.9,0.1-1.8,0.4-2.5s0.7-1.3,1.1-1.9c0.5-0.5,1-0.9,1.6-1.2c0.6-0.3,1.3-0.4,2-0.4s1.3,0.1,2,0.4c0.6,0.3,1.2,0.6,1.6,1.2
					c0.5,0.5,0.9,1.1,1.1,1.9s0.4,1.6,0.4,2.5c0,0.9-0.1,1.7-0.4,2.5c-0.3,0.7-0.7,1.3-1.1,1.8c-0.5,0.5-1,0.9-1.6,1.1
					C87.7,228.2,87.1,228.3,86.4,228.3z M86.4,226.7c0.5,0,0.9-0.1,1.3-0.3c0.4-0.2,0.7-0.5,1-0.9c0.3-0.4,0.5-0.8,0.7-1.3
					c0.2-0.5,0.2-1.1,0.2-1.7c0-0.6-0.1-1.2-0.2-1.8c-0.2-0.5-0.4-1-0.7-1.4c-0.3-0.4-0.6-0.7-1-0.9c-0.4-0.2-0.8-0.3-1.3-0.3
					c-0.5,0-0.9,0.1-1.3,0.3c-0.4,0.2-0.7,0.5-1,0.9c-0.3,0.4-0.5,0.8-0.7,1.4c-0.2,0.5-0.2,1.1-0.2,1.8c0,0.6,0.1,1.2,0.2,1.7
					c0.2,0.5,0.4,1,0.7,1.3c0.3,0.4,0.6,0.7,1,0.9C85.5,226.6,85.9,226.7,86.4,226.7z"/>
				<path class="st2" d="M94.5,228v-11.2H96l0.2,1.6h0.1c0.5-0.5,1-1,1.6-1.3c0.6-0.4,1.2-0.5,1.9-0.5c0.9,0,1.5,0.2,2,0.6
					c0.5,0.4,0.8,0.9,1.1,1.6c0.6-0.6,1.2-1.2,1.8-1.6c0.6-0.4,1.2-0.6,1.9-0.6c1.1,0,2,0.4,2.6,1.1c0.6,0.7,0.8,1.8,0.8,3.3v7.1
					H108v-6.8c0-1.1-0.2-1.8-0.5-2.3s-0.9-0.7-1.6-0.7c-0.8,0-1.8,0.6-2.8,1.7v8.1h-1.9v-6.8c0-1.1-0.2-1.8-0.5-2.3
					c-0.3-0.5-0.9-0.7-1.6-0.7c-0.8,0-1.8,0.6-2.8,1.7v8.1H94.5z"/>
				<path class="st2" d="M117.9,228.3c-0.7,0-1.3-0.1-2-0.4s-1.2-0.6-1.6-1.1c-0.5-0.5-0.9-1.1-1.1-1.8c-0.3-0.7-0.4-1.6-0.4-2.5
					c0-0.9,0.1-1.8,0.4-2.5s0.7-1.3,1.1-1.9c0.5-0.5,1-0.9,1.6-1.2c0.6-0.3,1.3-0.4,2-0.4s1.3,0.1,2,0.4c0.6,0.3,1.2,0.6,1.6,1.2
					c0.5,0.5,0.9,1.1,1.1,1.9s0.4,1.6,0.4,2.5c0,0.9-0.1,1.7-0.4,2.5c-0.3,0.7-0.7,1.3-1.1,1.8c-0.5,0.5-1,0.9-1.6,1.1
					C119.2,228.2,118.6,228.3,117.9,228.3z M117.9,226.7c0.5,0,0.9-0.1,1.3-0.3c0.4-0.2,0.7-0.5,1-0.9c0.3-0.4,0.5-0.8,0.7-1.3
					c0.2-0.5,0.2-1.1,0.2-1.7c0-0.6-0.1-1.2-0.2-1.8c-0.2-0.5-0.4-1-0.7-1.4c-0.3-0.4-0.6-0.7-1-0.9c-0.4-0.2-0.8-0.3-1.3-0.3
					c-0.5,0-0.9,0.1-1.3,0.3c-0.4,0.2-0.7,0.5-1,0.9c-0.3,0.4-0.5,0.8-0.7,1.4c-0.2,0.5-0.2,1.1-0.2,1.8c0,0.6,0.1,1.2,0.2,1.7
					c0.2,0.5,0.4,1,0.7,1.3c0.3,0.4,0.6,0.7,1,0.9C117,226.6,117.4,226.7,117.9,226.7z"/>
				<path class="st2" d="M129.1,228.3c-0.6,0-1.1-0.1-1.5-0.3c-0.4-0.2-0.7-0.4-1-0.8s-0.4-0.7-0.5-1.2c-0.1-0.5-0.2-1-0.2-1.5v-6.2
					h-1.7V217l1.7-0.1l0.2-3.1h1.6v3.1h3v1.5h-3v6.2c0,0.7,0.1,1.2,0.4,1.6c0.3,0.4,0.7,0.6,1.3,0.6c0.2,0,0.4,0,0.6-0.1
					c0.2-0.1,0.4-0.1,0.6-0.2l0.4,1.4c-0.3,0.1-0.6,0.2-1,0.3C129.9,228.3,129.5,228.3,129.1,228.3z"/>
				<path class="st2" d="M134.4,214.6c-0.4,0-0.7-0.1-0.9-0.3c-0.3-0.2-0.4-0.5-0.4-0.9c0-0.4,0.1-0.7,0.4-0.9
					c0.3-0.2,0.6-0.3,0.9-0.3s0.7,0.1,0.9,0.3c0.3,0.2,0.4,0.5,0.4,0.9c0,0.4-0.1,0.6-0.4,0.9C135,214.4,134.7,214.6,134.4,214.6z
					 M133.4,228v-11.2h1.9V228H133.4z"/>
				<path class="st2" d="M139.1,228v-11.2h1.6l0.2,1.6h0.1c0.5-0.5,1.1-1,1.7-1.3c0.6-0.4,1.3-0.5,2.1-0.5c1.2,0,2,0.4,2.6,1.1
					c0.5,0.7,0.8,1.8,0.8,3.3v7.1h-1.9v-6.8c0-1.1-0.2-1.8-0.5-2.3s-0.9-0.7-1.6-0.7c-0.6,0-1.1,0.1-1.5,0.4c-0.4,0.3-1,0.7-1.5,1.3
					v8.1H139.1z"/>
				<path class="st2" d="M155.4,233.2c-0.7,0-1.3-0.1-1.9-0.2c-0.6-0.1-1.1-0.3-1.5-0.6s-0.7-0.6-0.9-0.9c-0.2-0.4-0.3-0.8-0.3-1.3
					c0-0.5,0.1-0.9,0.4-1.4c0.3-0.4,0.7-0.8,1.2-1.2v-0.1c-0.3-0.2-0.5-0.4-0.7-0.7s-0.3-0.7-0.3-1.1c0-0.5,0.1-0.9,0.4-1.2
					s0.5-0.6,0.8-0.8v-0.1c-0.4-0.3-0.7-0.7-1-1.2s-0.4-1.1-0.4-1.8c0-0.6,0.1-1.2,0.3-1.7c0.2-0.5,0.5-0.9,0.9-1.3
					c0.4-0.3,0.8-0.6,1.3-0.8c0.5-0.2,1.1-0.3,1.6-0.3c0.3,0,0.6,0,0.9,0.1c0.3,0.1,0.5,0.1,0.7,0.2h3.9v1.4h-2.3
					c0.3,0.3,0.5,0.6,0.7,1c0.2,0.4,0.3,0.8,0.3,1.3c0,0.6-0.1,1.1-0.3,1.6c-0.2,0.5-0.5,0.9-0.9,1.2c-0.4,0.3-0.8,0.6-1.3,0.8
					c-0.5,0.2-1,0.3-1.6,0.3c-0.3,0-0.6,0-0.9-0.1c-0.3-0.1-0.6-0.2-0.8-0.3c-0.2,0.2-0.4,0.4-0.5,0.6c-0.1,0.2-0.2,0.5-0.2,0.8
					c0,0.4,0.1,0.6,0.4,0.9c0.3,0.2,0.8,0.3,1.6,0.3h2.2c1.3,0,2.3,0.2,2.9,0.6s1,1.1,1,2c0,0.5-0.1,1-0.4,1.5s-0.6,0.9-1.1,1.2
					s-1.1,0.6-1.8,0.8C157.1,233.1,156.3,233.2,155.4,233.2z M155.7,231.9c0.5,0,1-0.1,1.5-0.2c0.4-0.1,0.8-0.3,1.1-0.5
					s0.5-0.4,0.7-0.7c0.2-0.3,0.3-0.6,0.3-0.9c0-0.5-0.2-0.9-0.6-1.1c-0.4-0.2-0.9-0.3-1.7-0.3H155c-0.2,0-0.4,0-0.7,0
					c-0.3,0-0.5-0.1-0.7-0.1c-0.4,0.3-0.7,0.6-0.9,0.9c-0.2,0.3-0.3,0.6-0.3,1c0,0.6,0.3,1.1,0.9,1.4
					C153.9,231.7,154.7,231.9,155.7,231.9z M155.4,223.2c0.3,0,0.6-0.1,0.9-0.2c0.3-0.1,0.5-0.3,0.8-0.5c0.2-0.2,0.4-0.5,0.5-0.8
					s0.2-0.7,0.2-1.1c0-0.8-0.2-1.5-0.7-1.9s-1-0.7-1.7-0.7c-0.7,0-1.2,0.2-1.7,0.7s-0.7,1.1-0.7,1.9c0,0.4,0.1,0.8,0.2,1.1
					c0.1,0.3,0.3,0.6,0.5,0.8c0.2,0.2,0.5,0.4,0.8,0.5C154.8,223.2,155.1,223.2,155.4,223.2z"/>
				<path class="st2" d="M168,232.8c-0.3,0-0.5,0-0.7-0.1s-0.4-0.1-0.6-0.2l0.4-1.5c0.1,0,0.3,0.1,0.4,0.1s0.3,0.1,0.4,0.1
					c0.6,0,1.2-0.2,1.6-0.7c0.4-0.5,0.7-1,1-1.7l0.3-0.8l-4.5-11.2h2l2.3,6.2c0.2,0.5,0.3,1,0.5,1.6s0.4,1.1,0.5,1.6h0.1
					c0.2-0.5,0.3-1,0.5-1.6c0.2-0.6,0.3-1.1,0.5-1.6l2-6.2h1.8l-4.2,12.1c-0.2,0.6-0.4,1.1-0.7,1.5s-0.5,0.9-0.9,1.2
					s-0.7,0.6-1.1,0.8S168.6,232.8,168,232.8z"/>
				<path class="st2" d="M182.8,228.3c-0.7,0-1.3-0.1-2-0.4s-1.2-0.6-1.6-1.1c-0.5-0.5-0.9-1.1-1.1-1.8c-0.3-0.7-0.4-1.6-0.4-2.5
					c0-0.9,0.1-1.8,0.4-2.5s0.7-1.3,1.1-1.9c0.5-0.5,1-0.9,1.6-1.2c0.6-0.3,1.3-0.4,2-0.4s1.3,0.1,2,0.4c0.6,0.3,1.2,0.6,1.6,1.2
					c0.5,0.5,0.9,1.1,1.1,1.9s0.4,1.6,0.4,2.5c0,0.9-0.1,1.7-0.4,2.5c-0.3,0.7-0.7,1.3-1.1,1.8c-0.5,0.5-1,0.9-1.6,1.1
					C184.2,228.2,183.5,228.3,182.8,228.3z M182.8,226.7c0.5,0,0.9-0.1,1.3-0.3c0.4-0.2,0.7-0.5,1-0.9c0.3-0.4,0.5-0.8,0.7-1.3
					c0.2-0.5,0.2-1.1,0.2-1.7c0-0.6-0.1-1.2-0.2-1.8c-0.2-0.5-0.4-1-0.7-1.4c-0.3-0.4-0.6-0.7-1-0.9c-0.4-0.2-0.8-0.3-1.3-0.3
					c-0.5,0-0.9,0.1-1.3,0.3c-0.4,0.2-0.7,0.5-1,0.9c-0.3,0.4-0.5,0.8-0.7,1.4c-0.2,0.5-0.2,1.1-0.2,1.8c0,0.6,0.1,1.2,0.2,1.7
					c0.2,0.5,0.4,1,0.7,1.3c0.3,0.4,0.6,0.7,1,0.9C181.9,226.6,182.3,226.7,182.8,226.7z"/>
				<path class="st2" d="M194.2,228.3c-1.2,0-2.1-0.4-2.6-1.1c-0.5-0.7-0.8-1.8-0.8-3.3v-7.1h1.9v6.8c0,1.1,0.2,1.8,0.5,2.3
					c0.3,0.5,0.9,0.7,1.6,0.7c0.6,0,1.1-0.1,1.5-0.4s0.9-0.8,1.5-1.4v-7.9h1.9V228h-1.6l-0.2-1.7h-0.1c-0.5,0.6-1.1,1.1-1.6,1.5
					C195.7,228.1,195,228.3,194.2,228.3z"/>
				<path class="st2" d="M203.5,228v-11.2h1.6l0.2,2h0.1c0.4-0.7,0.8-1.3,1.4-1.7c0.5-0.4,1.1-0.6,1.8-0.6c0.4,0,0.8,0.1,1.2,0.2
					l-0.4,1.7c-0.2-0.1-0.4-0.1-0.5-0.1c-0.2,0-0.3,0-0.6,0c-0.5,0-1,0.2-1.5,0.6c-0.5,0.4-1,1-1.3,2v7.2H203.5z"/>
				<path class="st2" d="M221,228.3c-0.5,0-1.1-0.1-1.6-0.4c-0.6-0.3-1.1-0.6-1.6-1h-0.1l-0.2,1.2H216v-16.4h1.9v4.5l0,2
					c0.5-0.4,1.1-0.8,1.7-1.1c0.6-0.3,1.2-0.4,1.8-0.4c0.7,0,1.4,0.1,1.9,0.4c0.6,0.3,1,0.7,1.4,1.2s0.7,1.1,0.9,1.8
					c0.2,0.7,0.3,1.5,0.3,2.3c0,1-0.1,1.8-0.4,2.6s-0.6,1.4-1.1,1.9c-0.4,0.5-1,0.9-1.5,1.2C222.2,228.2,221.6,228.3,221,228.3z
					 M220.7,226.7c0.5,0,0.9-0.1,1.3-0.3c0.4-0.2,0.7-0.5,1-0.9c0.3-0.4,0.5-0.8,0.7-1.4c0.2-0.6,0.2-1.2,0.2-1.9
					c0-0.6-0.1-1.2-0.2-1.7s-0.3-0.9-0.5-1.3c-0.2-0.4-0.5-0.6-0.9-0.8c-0.4-0.2-0.8-0.3-1.3-0.3c-0.9,0-1.9,0.5-3,1.5v5.9
					c0.5,0.4,1,0.7,1.5,0.9C219.9,226.6,220.3,226.7,220.7,226.7z"/>
				<path class="st2" d="M232,228.3c-1.2,0-2.1-0.4-2.6-1.1s-0.8-1.8-0.8-3.3v-7.1h1.9v6.8c0,1.1,0.2,1.8,0.5,2.3
					c0.3,0.5,0.9,0.7,1.6,0.7c0.6,0,1.1-0.1,1.5-0.4s0.9-0.8,1.5-1.4v-7.9h1.9V228h-1.6l-0.2-1.7h-0.1c-0.5,0.6-1.1,1.1-1.6,1.5
					C233.5,228.1,232.8,228.3,232,228.3z"/>
				<path class="st2" d="M244.2,228.3c-0.8,0-1.6-0.1-2.3-0.4s-1.3-0.7-1.9-1.1l0.9-1.3c0.5,0.4,1,0.7,1.5,1
					c0.5,0.2,1.1,0.4,1.8,0.4c0.7,0,1.3-0.2,1.7-0.5c0.4-0.3,0.6-0.8,0.6-1.2c0-0.3-0.1-0.5-0.2-0.8s-0.3-0.4-0.6-0.6
					c-0.2-0.2-0.5-0.3-0.8-0.4c-0.3-0.1-0.6-0.2-0.9-0.4c-0.4-0.1-0.8-0.3-1.2-0.5c-0.4-0.2-0.8-0.4-1.1-0.6
					c-0.3-0.3-0.6-0.5-0.8-0.9c-0.2-0.3-0.3-0.7-0.3-1.2c0-0.4,0.1-0.9,0.3-1.3c0.2-0.4,0.4-0.7,0.8-1c0.3-0.3,0.7-0.5,1.2-0.7
					c0.5-0.2,1-0.2,1.6-0.2c0.7,0,1.4,0.1,1.9,0.4c0.6,0.2,1.1,0.5,1.5,0.9L247,219c-0.4-0.3-0.8-0.5-1.2-0.7s-0.9-0.3-1.4-0.3
					c-0.7,0-1.2,0.2-1.6,0.5c-0.3,0.3-0.5,0.7-0.5,1.1c0,0.3,0.1,0.5,0.2,0.7s0.3,0.4,0.6,0.5c0.2,0.1,0.5,0.3,0.8,0.4
					c0.3,0.1,0.6,0.2,0.9,0.4c0.4,0.2,0.8,0.3,1.2,0.5s0.8,0.4,1.1,0.6s0.6,0.6,0.8,0.9c0.2,0.4,0.3,0.8,0.3,1.3
					c0,0.5-0.1,0.9-0.3,1.3c-0.2,0.4-0.4,0.8-0.8,1.1c-0.3,0.3-0.8,0.5-1.3,0.7C245.4,228.2,244.8,228.3,244.2,228.3z"/>
				<path class="st2" d="M251.9,214.6c-0.4,0-0.7-0.1-0.9-0.3c-0.3-0.2-0.4-0.5-0.4-0.9c0-0.4,0.1-0.7,0.4-0.9
					c0.3-0.2,0.6-0.3,0.9-0.3s0.7,0.1,0.9,0.3c0.3,0.2,0.4,0.5,0.4,0.9c0,0.4-0.1,0.6-0.4,0.9C252.5,214.4,252.2,214.6,251.9,214.6z
					 M250.9,228v-11.2h1.9V228H250.9z"/>
				<path class="st2" d="M256.6,228v-11.2h1.6l0.2,1.6h0.1c0.5-0.5,1.1-1,1.7-1.3c0.6-0.4,1.3-0.5,2.1-0.5c1.2,0,2,0.4,2.6,1.1
					c0.5,0.7,0.8,1.8,0.8,3.3v7.1h-1.9v-6.8c0-1.1-0.2-1.8-0.5-2.3c-0.3-0.5-0.9-0.7-1.6-0.7c-0.6,0-1.1,0.1-1.5,0.4s-1,0.7-1.5,1.3
					v8.1H256.6z"/>
				<path class="st2" d="M273.7,228.3c-0.8,0-1.5-0.1-2.1-0.4c-0.7-0.3-1.2-0.7-1.7-1.1c-0.5-0.5-0.9-1.1-1.1-1.8
					c-0.3-0.7-0.4-1.5-0.4-2.5s0.1-1.7,0.4-2.5c0.3-0.7,0.7-1.3,1.1-1.9c0.5-0.5,1-0.9,1.6-1.2c0.6-0.3,1.2-0.4,1.9-0.4
					c0.7,0,1.3,0.1,1.9,0.4s1,0.6,1.4,1.1c0.4,0.5,0.7,1,0.9,1.7c0.2,0.6,0.3,1.4,0.3,2.2c0,0.2,0,0.4,0,0.6c0,0.2,0,0.4-0.1,0.5
					h-7.5c0.1,1.2,0.4,2.1,1.1,2.8c0.7,0.7,1.5,1,2.6,1c0.5,0,1-0.1,1.5-0.2s0.9-0.4,1.3-0.6l0.7,1.2c-0.5,0.3-1,0.6-1.6,0.8
					C275.1,228.2,274.4,228.3,273.7,228.3z M270.2,221.5h6c0-1.1-0.2-2-0.7-2.6c-0.5-0.6-1.2-0.9-2-0.9c-0.4,0-0.8,0.1-1.1,0.2
					s-0.7,0.4-1,0.7s-0.5,0.7-0.7,1.1C270.3,220.5,270.2,221,270.2,221.5z"/>
				<path class="st2" d="M283.5,228.3c-0.8,0-1.6-0.1-2.3-0.4s-1.3-0.7-1.9-1.1l0.9-1.3c0.5,0.4,1,0.7,1.5,1
					c0.5,0.2,1.1,0.4,1.8,0.4c0.7,0,1.3-0.2,1.7-0.5c0.4-0.3,0.6-0.8,0.6-1.2c0-0.3-0.1-0.5-0.2-0.8s-0.3-0.4-0.6-0.6
					c-0.2-0.2-0.5-0.3-0.8-0.4c-0.3-0.1-0.6-0.2-0.9-0.4c-0.4-0.1-0.8-0.3-1.2-0.5c-0.4-0.2-0.8-0.4-1.1-0.6
					c-0.3-0.3-0.6-0.5-0.8-0.9c-0.2-0.3-0.3-0.7-0.3-1.2c0-0.4,0.1-0.9,0.3-1.3c0.2-0.4,0.4-0.7,0.8-1c0.3-0.3,0.7-0.5,1.2-0.7
					c0.5-0.2,1-0.2,1.6-0.2c0.7,0,1.4,0.1,1.9,0.4c0.6,0.2,1.1,0.5,1.5,0.9l-0.9,1.2c-0.4-0.3-0.8-0.5-1.2-0.7s-0.9-0.3-1.4-0.3
					c-0.7,0-1.2,0.2-1.6,0.5c-0.3,0.3-0.5,0.7-0.5,1.1c0,0.3,0.1,0.5,0.2,0.7s0.3,0.4,0.6,0.5c0.2,0.1,0.5,0.3,0.8,0.4
					c0.3,0.1,0.6,0.2,0.9,0.4c0.4,0.2,0.8,0.3,1.2,0.5s0.8,0.4,1.1,0.6s0.6,0.6,0.8,0.9c0.2,0.4,0.3,0.8,0.3,1.3
					c0,0.5-0.1,0.9-0.3,1.3c-0.2,0.4-0.4,0.8-0.8,1.1c-0.3,0.3-0.8,0.5-1.3,0.7C284.7,228.2,284.1,228.3,283.5,228.3z"/>
				<path class="st2" d="M293.1,228.3c-0.8,0-1.6-0.1-2.3-0.4s-1.3-0.7-1.9-1.1l0.9-1.3c0.5,0.4,1,0.7,1.5,1
					c0.5,0.2,1.1,0.4,1.8,0.4c0.7,0,1.3-0.2,1.7-0.5c0.4-0.3,0.6-0.8,0.6-1.2c0-0.3-0.1-0.5-0.2-0.8s-0.3-0.4-0.6-0.6
					c-0.2-0.2-0.5-0.3-0.8-0.4c-0.3-0.1-0.6-0.2-0.9-0.4c-0.4-0.1-0.8-0.3-1.2-0.5c-0.4-0.2-0.8-0.4-1.1-0.6
					c-0.3-0.3-0.6-0.5-0.8-0.9c-0.2-0.3-0.3-0.7-0.3-1.2c0-0.4,0.1-0.9,0.3-1.3c0.2-0.4,0.4-0.7,0.8-1c0.3-0.3,0.7-0.5,1.2-0.7
					c0.5-0.2,1-0.2,1.6-0.2c0.7,0,1.4,0.1,1.9,0.4c0.6,0.2,1.1,0.5,1.5,0.9l-0.9,1.2c-0.4-0.3-0.8-0.5-1.2-0.7s-0.9-0.3-1.4-0.3
					c-0.7,0-1.2,0.2-1.6,0.5c-0.3,0.3-0.5,0.7-0.5,1.1c0,0.3,0.1,0.5,0.2,0.7s0.3,0.4,0.6,0.5c0.2,0.1,0.5,0.3,0.8,0.4
					c0.3,0.1,0.6,0.2,0.9,0.4c0.4,0.2,0.8,0.3,1.2,0.5s0.8,0.4,1.1,0.6s0.6,0.6,0.8,0.9c0.2,0.4,0.3,0.8,0.3,1.3
					c0,0.5-0.1,0.9-0.3,1.3c-0.2,0.4-0.4,0.8-0.8,1.1c-0.3,0.3-0.8,0.5-1.3,0.7C294.4,228.2,293.8,228.3,293.1,228.3z"/>
				<path class="st2" d="M300.8,228.3c-0.4,0-0.7-0.1-1-0.4c-0.3-0.3-0.4-0.6-0.4-1c0-0.4,0.1-0.8,0.4-1.1c0.3-0.3,0.6-0.4,1-0.4
					c0.4,0,0.7,0.1,1,0.4c0.3,0.3,0.4,0.6,0.4,1.1c0,0.4-0.1,0.8-0.4,1C301.5,228.2,301.2,228.3,300.8,228.3z"/>
			</g>
			<g class="st3">
				<path class="st2" d="M3.7,275l-3.2-15.1h2l1.6,8.2c0.1,0.8,0.3,1.6,0.4,2.4c0.2,0.8,0.3,1.6,0.4,2.4h0.1
					c0.2-0.8,0.3-1.6,0.5-2.4c0.2-0.8,0.4-1.6,0.5-2.4l2.1-8.2H10l2.1,8.2c0.2,0.8,0.4,1.6,0.6,2.4s0.4,1.6,0.6,2.5h0.1
					c0.1-0.8,0.3-1.6,0.4-2.4c0.1-0.8,0.3-1.6,0.4-2.4l1.6-8.2h1.8L14.4,275h-2.3l-2.3-9.1c-0.1-0.6-0.3-1.2-0.4-1.7
					c-0.1-0.6-0.2-1.1-0.4-1.7H9c-0.1,0.6-0.2,1.2-0.4,1.7c-0.1,0.6-0.3,1.1-0.4,1.7L6,275H3.7z"/>
				<path class="st2" d="M24.5,275.3c-0.8,0-1.5-0.1-2.1-0.4c-0.7-0.3-1.2-0.7-1.7-1.1s-0.9-1.1-1.1-1.8c-0.3-0.7-0.4-1.5-0.4-2.5
					s0.1-1.7,0.4-2.5s0.7-1.3,1.1-1.9c0.5-0.5,1-0.9,1.6-1.2c0.6-0.3,1.2-0.4,1.9-0.4c0.7,0,1.3,0.1,1.9,0.4c0.6,0.2,1,0.6,1.4,1.1
					c0.4,0.5,0.7,1,0.9,1.7c0.2,0.6,0.3,1.4,0.3,2.2c0,0.2,0,0.4,0,0.6c0,0.2,0,0.4-0.1,0.5H21c0.1,1.2,0.4,2.1,1.1,2.8
					c0.7,0.7,1.5,1,2.6,1c0.5,0,1-0.1,1.5-0.2s0.9-0.4,1.3-0.6l0.7,1.2c-0.5,0.3-1,0.6-1.6,0.8C25.9,275.2,25.3,275.3,24.5,275.3z
					 M21,268.5h6c0-1.1-0.2-2-0.7-2.6c-0.5-0.6-1.2-0.9-2-0.9c-0.4,0-0.8,0.1-1.1,0.2c-0.4,0.2-0.7,0.4-1,0.7
					c-0.3,0.3-0.5,0.7-0.7,1.1C21.2,267.5,21,268,21,268.5z"/>
				<path class="st2" d="M39.5,275.3c-0.6,0-1.1-0.1-1.5-0.3s-0.7-0.4-1-0.8s-0.4-0.7-0.5-1.2c-0.1-0.5-0.2-1-0.2-1.5v-6.2h-1.7V264
					l1.7-0.1l0.2-3.1h1.6v3.1h3v1.5h-3v6.2c0,0.7,0.1,1.2,0.4,1.6s0.7,0.6,1.3,0.6c0.2,0,0.4,0,0.6-0.1c0.2-0.1,0.4-0.1,0.6-0.2
					l0.4,1.4c-0.3,0.1-0.6,0.2-1,0.3C40.2,275.3,39.8,275.3,39.5,275.3z"/>
				<path class="st2" d="M45.8,275.3c-0.9,0-1.7-0.3-2.3-0.8s-0.9-1.3-0.9-2.3c0-1.2,0.5-2.2,1.6-2.8c1.1-0.7,2.8-1.1,5.2-1.4
					c0-0.4,0-0.7-0.1-1c-0.1-0.3-0.2-0.6-0.4-0.9s-0.4-0.5-0.7-0.6c-0.3-0.2-0.7-0.2-1.1-0.2c-0.6,0-1.3,0.1-1.8,0.4
					c-0.6,0.2-1.1,0.5-1.5,0.8l-0.7-1.3c0.5-0.3,1.2-0.7,1.9-1c0.8-0.3,1.6-0.5,2.5-0.5c1.4,0,2.4,0.4,3,1.3c0.6,0.8,0.9,2,0.9,3.3
					v6.9h-1.6l-0.2-1.3h-0.1c-0.5,0.4-1.1,0.8-1.7,1.1C47.2,275.2,46.5,275.3,45.8,275.3z M46.4,273.8c0.5,0,1-0.1,1.5-0.4
					c0.5-0.3,1-0.6,1.5-1.1v-3.1c-0.9,0.1-1.7,0.3-2.4,0.4c-0.6,0.2-1.1,0.4-1.5,0.6c-0.4,0.2-0.7,0.5-0.9,0.8s-0.3,0.6-0.3,1
					c0,0.6,0.2,1.1,0.6,1.4C45.4,273.7,45.8,273.8,46.4,273.8z"/>
				<path class="st2" d="M54.9,275v-16.4h1.9v11.1h0.1l4.8-5.9h2.1l-3.7,4.5l4.3,6.7h-2.1l-3.3-5.4l-2.1,2.4v2.9H54.9z"/>
				<path class="st2" d="M70.4,275.3c-0.8,0-1.5-0.1-2.1-0.4c-0.7-0.3-1.2-0.7-1.7-1.1s-0.9-1.1-1.1-1.8c-0.3-0.7-0.4-1.5-0.4-2.5
					s0.1-1.7,0.4-2.5s0.7-1.3,1.1-1.9c0.5-0.5,1-0.9,1.6-1.2c0.6-0.3,1.2-0.4,1.9-0.4c0.7,0,1.3,0.1,1.9,0.4c0.6,0.2,1,0.6,1.4,1.1
					c0.4,0.5,0.7,1,0.9,1.7c0.2,0.6,0.3,1.4,0.3,2.2c0,0.2,0,0.4,0,0.6c0,0.2,0,0.4-0.1,0.5h-7.5c0.1,1.2,0.4,2.1,1.1,2.8
					c0.7,0.7,1.5,1,2.6,1c0.5,0,1-0.1,1.5-0.2s0.9-0.4,1.3-0.6l0.7,1.2c-0.5,0.3-1,0.6-1.6,0.8C71.8,275.2,71.1,275.3,70.4,275.3z
					 M66.8,268.5h6c0-1.1-0.2-2-0.7-2.6c-0.5-0.6-1.2-0.9-2-0.9c-0.4,0-0.8,0.1-1.1,0.2c-0.4,0.2-0.7,0.4-1,0.7
					c-0.3,0.3-0.5,0.7-0.7,1.1C67,267.5,66.9,268,66.8,268.5z"/>
				<path class="st2" d="M85.4,275.3c-0.6,0-1.1-0.1-1.5-0.3s-0.7-0.4-1-0.8s-0.4-0.7-0.5-1.2c-0.1-0.5-0.2-1-0.2-1.5v-6.2h-1.7V264
					l1.7-0.1l0.2-3.1h1.6v3.1h3v1.5h-3v6.2c0,0.7,0.1,1.2,0.4,1.6s0.7,0.6,1.3,0.6c0.2,0,0.4,0,0.6-0.1c0.2-0.1,0.4-0.1,0.6-0.2
					l0.4,1.4c-0.3,0.1-0.6,0.2-1,0.3C86.1,275.3,85.7,275.3,85.4,275.3z"/>
				<path class="st2" d="M89.6,275v-16.4h1.9v4.5l-0.1,2.3c0.5-0.5,1.1-0.9,1.7-1.3s1.3-0.5,2-0.5c1.2,0,2,0.4,2.6,1.1
					c0.5,0.7,0.8,1.8,0.8,3.3v7.1h-1.9v-6.8c0-1.1-0.2-1.8-0.5-2.3s-0.9-0.7-1.6-0.7c-0.6,0-1.1,0.1-1.5,0.4c-0.4,0.3-1,0.7-1.5,1.3
					v8.1H89.6z"/>
				<path class="st2" d="M106.6,275.3c-0.8,0-1.5-0.1-2.1-0.4c-0.7-0.3-1.2-0.7-1.7-1.1s-0.9-1.1-1.1-1.8c-0.3-0.7-0.4-1.5-0.4-2.5
					s0.1-1.7,0.4-2.5s0.7-1.3,1.1-1.9c0.5-0.5,1-0.9,1.6-1.2c0.6-0.3,1.2-0.4,1.9-0.4c0.7,0,1.3,0.1,1.9,0.4c0.6,0.2,1,0.6,1.4,1.1
					c0.4,0.5,0.7,1,0.9,1.7c0.2,0.6,0.3,1.4,0.3,2.2c0,0.2,0,0.4,0,0.6c0,0.2,0,0.4-0.1,0.5h-7.5c0.1,1.2,0.4,2.1,1.1,2.8
					c0.7,0.7,1.5,1,2.6,1c0.5,0,1-0.1,1.5-0.2s0.9-0.4,1.3-0.6l0.7,1.2c-0.5,0.3-1,0.6-1.6,0.8C108.1,275.2,107.4,275.3,106.6,275.3
					z M103.1,268.5h6c0-1.1-0.2-2-0.7-2.6c-0.5-0.6-1.2-0.9-2-0.9c-0.4,0-0.8,0.1-1.1,0.2c-0.4,0.2-0.7,0.4-1,0.7
					c-0.3,0.3-0.5,0.7-0.7,1.1C103.3,267.5,103.2,268,103.1,268.5z"/>
				<path class="st2" d="M123.1,275.3c-0.5,0-1.1-0.1-1.6-0.4c-0.6-0.3-1.1-0.6-1.6-1h-0.1l-0.2,1.2h-1.5v-16.4h1.9v4.5l0,2
					c0.5-0.4,1.1-0.8,1.7-1.1c0.6-0.3,1.2-0.4,1.8-0.4c0.7,0,1.4,0.1,1.9,0.4c0.6,0.3,1,0.7,1.4,1.2c0.4,0.5,0.7,1.1,0.9,1.8
					c0.2,0.7,0.3,1.5,0.3,2.3c0,1-0.1,1.8-0.4,2.6s-0.6,1.4-1.1,1.9s-1,0.9-1.5,1.2C124.3,275.2,123.7,275.3,123.1,275.3z
					 M122.7,273.7c0.5,0,0.9-0.1,1.3-0.3c0.4-0.2,0.7-0.5,1-0.9s0.5-0.8,0.7-1.4c0.2-0.6,0.2-1.2,0.2-1.9c0-0.6-0.1-1.2-0.2-1.7
					c-0.1-0.5-0.3-0.9-0.5-1.3s-0.5-0.6-0.9-0.8c-0.4-0.2-0.8-0.3-1.3-0.3c-0.9,0-1.9,0.5-3,1.5v5.9c0.5,0.4,1,0.7,1.5,0.9
					C122,273.6,122.4,273.7,122.7,273.7z"/>
				<path class="st2" d="M134.1,275.3c-1.2,0-2.1-0.4-2.6-1.1c-0.5-0.7-0.8-1.8-0.8-3.3v-7.1h1.9v6.8c0,1.1,0.2,1.8,0.5,2.3
					s0.9,0.7,1.6,0.7c0.6,0,1.1-0.1,1.5-0.4c0.4-0.3,0.9-0.8,1.5-1.4v-7.9h1.9V275H138l-0.2-1.7h-0.1c-0.5,0.6-1.1,1.1-1.6,1.5
					C135.6,275.1,134.9,275.3,134.1,275.3z"/>
				<path class="st2" d="M143.4,275v-11.2h1.6l0.2,2h0.1c0.4-0.7,0.8-1.3,1.4-1.7s1.1-0.6,1.8-0.6c0.4,0,0.8,0.1,1.2,0.2l-0.4,1.7
					c-0.2-0.1-0.4-0.1-0.5-0.1c-0.2,0-0.3,0-0.6,0c-0.5,0-1,0.2-1.5,0.6c-0.5,0.4-1,1-1.3,2v7.2H143.4z"/>
				<path class="st2" d="M154.9,275.3c-1.4,0-2.5-0.5-3.4-1.5c-0.8-1-1.3-2.5-1.3-4.3c0-0.9,0.1-1.7,0.4-2.4
					c0.3-0.7,0.6-1.3,1.1-1.9c0.4-0.5,1-0.9,1.5-1.2c0.6-0.3,1.2-0.4,1.8-0.4s1.2,0.1,1.7,0.3c0.5,0.2,1,0.5,1.4,0.9l-0.1-1.9v-4.3
					h1.9V275h-1.6l-0.2-1.3h-0.1c-0.4,0.4-1,0.8-1.5,1.1C156.2,275.2,155.6,275.3,154.9,275.3z M155.3,273.7c0.5,0,1-0.1,1.5-0.4
					s0.9-0.6,1.4-1.2v-5.8c-0.5-0.4-0.9-0.7-1.4-0.9c-0.4-0.2-0.9-0.3-1.3-0.3c-0.4,0-0.9,0.1-1.3,0.3s-0.7,0.5-1,0.9
					c-0.3,0.4-0.5,0.8-0.7,1.3c-0.2,0.5-0.3,1.1-0.3,1.7c0,1.3,0.3,2.4,0.8,3.2C153.6,273.3,154.4,273.7,155.3,273.7z"/>
				<path class="st2" d="M168.4,275.3c-0.8,0-1.5-0.1-2.1-0.4c-0.7-0.3-1.2-0.7-1.7-1.1s-0.9-1.1-1.1-1.8c-0.3-0.7-0.4-1.5-0.4-2.5
					s0.1-1.7,0.4-2.5s0.7-1.3,1.1-1.9c0.5-0.5,1-0.9,1.6-1.2c0.6-0.3,1.2-0.4,1.9-0.4c0.7,0,1.3,0.1,1.9,0.4c0.6,0.2,1,0.6,1.4,1.1
					c0.4,0.5,0.7,1,0.9,1.7c0.2,0.6,0.3,1.4,0.3,2.2c0,0.2,0,0.4,0,0.6c0,0.2,0,0.4-0.1,0.5h-7.5c0.1,1.2,0.4,2.1,1.1,2.8
					c0.7,0.7,1.5,1,2.6,1c0.5,0,1-0.1,1.5-0.2s0.9-0.4,1.3-0.6l0.7,1.2c-0.5,0.3-1,0.6-1.6,0.8C169.9,275.2,169.2,275.3,168.4,275.3
					z M164.9,268.5h6c0-1.1-0.2-2-0.7-2.6c-0.5-0.6-1.2-0.9-2-0.9c-0.4,0-0.8,0.1-1.1,0.2c-0.4,0.2-0.7,0.4-1,0.7
					c-0.3,0.3-0.5,0.7-0.7,1.1C165.1,267.5,164.9,268,164.9,268.5z"/>
				<path class="st2" d="M175.3,275v-11.2h1.6l0.2,1.6h0.1c0.5-0.5,1.1-1,1.7-1.3c0.6-0.4,1.3-0.5,2.1-0.5c1.2,0,2,0.4,2.6,1.1
					c0.5,0.7,0.8,1.8,0.8,3.3v7.1h-1.9v-6.8c0-1.1-0.2-1.8-0.5-2.3s-0.9-0.7-1.6-0.7c-0.6,0-1.1,0.1-1.5,0.4c-0.4,0.3-1,0.7-1.5,1.3
					v8.1H175.3z"/>
				<path class="st2" d="M196.8,275.3c-0.7,0-1.3-0.1-2-0.4s-1.2-0.6-1.6-1.1c-0.5-0.5-0.9-1.1-1.1-1.8c-0.3-0.7-0.4-1.6-0.4-2.5
					c0-0.9,0.1-1.8,0.4-2.5s0.7-1.3,1.1-1.9s1-0.9,1.6-1.2c0.6-0.3,1.3-0.4,2-0.4c0.7,0,1.3,0.1,2,0.4c0.6,0.3,1.2,0.6,1.6,1.2
					c0.5,0.5,0.9,1.1,1.1,1.9c0.3,0.7,0.4,1.6,0.4,2.5c0,0.9-0.1,1.7-0.4,2.5c-0.3,0.7-0.7,1.3-1.1,1.8c-0.5,0.5-1,0.9-1.6,1.1
					C198.2,275.2,197.5,275.3,196.8,275.3z M196.8,273.7c0.5,0,0.9-0.1,1.3-0.3s0.7-0.5,1-0.9c0.3-0.4,0.5-0.8,0.7-1.3
					c0.2-0.5,0.2-1.1,0.2-1.7c0-0.6-0.1-1.2-0.2-1.8c-0.2-0.5-0.4-1-0.7-1.4c-0.3-0.4-0.6-0.7-1-0.9s-0.8-0.3-1.3-0.3
					c-0.5,0-0.9,0.1-1.3,0.3s-0.7,0.5-1,0.9c-0.3,0.4-0.5,0.8-0.7,1.4c-0.2,0.5-0.2,1.1-0.2,1.8c0,0.6,0.1,1.2,0.2,1.7
					c0.2,0.5,0.4,1,0.7,1.3c0.3,0.4,0.6,0.7,1,0.9S196.3,273.7,196.8,273.7z"/>
				<path class="st2" d="M211.8,275v-9.6h-4.7v9.6h-1.9v-9.6h-1.5V264l1.5-0.1v-1.5c0-1.2,0.3-2.1,0.9-2.8c0.6-0.7,1.4-1,2.6-1
					c0.4,0,0.7,0,1.1,0.1c0.4,0.1,0.7,0.2,1,0.3l-0.4,1.4c-0.5-0.2-1-0.3-1.5-0.3c-0.6,0-1,0.2-1.3,0.6c-0.3,0.4-0.5,1-0.5,1.7v1.4
					h4.7v-1.8c0-1.1,0.3-2.1,0.8-2.7s1.4-1,2.5-1c0.4,0,0.7,0,1,0.1c0.3,0.1,0.6,0.2,0.9,0.3l-0.4,1.4c-0.4-0.2-0.8-0.3-1.3-0.3
					c-1,0-1.6,0.7-1.6,2.2v1.8h2.4v1.5h-2.4v9.6H211.8z"/>
				<path class="st2" d="M223,279.8c-0.3,0-0.5,0-0.7-0.1s-0.4-0.1-0.6-0.2l0.4-1.5c0.1,0,0.3,0.1,0.4,0.1s0.3,0.1,0.4,0.1
					c0.6,0,1.2-0.2,1.6-0.7s0.7-1,1-1.7l0.3-0.8l-4.5-11.2h2l2.3,6.2c0.2,0.5,0.3,1,0.5,1.6c0.2,0.5,0.4,1.1,0.5,1.6h0.1
					c0.2-0.5,0.3-1,0.5-1.6s0.3-1.1,0.5-1.6l2-6.2h1.8l-4.2,12.1c-0.2,0.6-0.4,1.1-0.7,1.5s-0.5,0.9-0.9,1.2
					c-0.3,0.3-0.7,0.6-1.1,0.8C224,279.7,223.5,279.8,223,279.8z"/>
				<path class="st2" d="M237.8,275.3c-0.7,0-1.3-0.1-2-0.4s-1.2-0.6-1.6-1.1c-0.5-0.5-0.9-1.1-1.1-1.8c-0.3-0.7-0.4-1.6-0.4-2.5
					c0-0.9,0.1-1.8,0.4-2.5c0.3-0.7,0.7-1.3,1.1-1.9c0.5-0.5,1-0.9,1.6-1.2c0.6-0.3,1.3-0.4,2-0.4c0.7,0,1.3,0.1,2,0.4
					c0.6,0.3,1.2,0.6,1.6,1.2s0.9,1.1,1.1,1.9c0.3,0.7,0.4,1.6,0.4,2.5c0,0.9-0.1,1.7-0.4,2.5c-0.3,0.7-0.7,1.3-1.1,1.8
					c-0.5,0.5-1,0.9-1.6,1.1S238.5,275.3,237.8,275.3z M237.8,273.7c0.5,0,0.9-0.1,1.3-0.3c0.4-0.2,0.7-0.5,1-0.9
					c0.3-0.4,0.5-0.8,0.7-1.3c0.2-0.5,0.2-1.1,0.2-1.7c0-0.6-0.1-1.2-0.2-1.8c-0.2-0.5-0.4-1-0.7-1.4c-0.3-0.4-0.6-0.7-1-0.9
					c-0.4-0.2-0.8-0.3-1.3-0.3s-0.9,0.1-1.3,0.3c-0.4,0.2-0.7,0.5-1,0.9c-0.3,0.4-0.5,0.8-0.7,1.4c-0.2,0.5-0.2,1.1-0.2,1.8
					c0,0.6,0.1,1.2,0.2,1.7c0.2,0.5,0.4,1,0.7,1.3c0.3,0.4,0.6,0.7,1,0.9C236.9,273.6,237.3,273.7,237.8,273.7z"/>
				<path class="st2" d="M249.2,275.3c-1.2,0-2.1-0.4-2.6-1.1s-0.8-1.8-0.8-3.3v-7.1h1.9v6.8c0,1.1,0.2,1.8,0.5,2.3
					c0.3,0.5,0.9,0.7,1.6,0.7c0.6,0,1.1-0.1,1.5-0.4s0.9-0.8,1.5-1.4v-7.9h1.9V275h-1.6l-0.2-1.7h-0.1c-0.5,0.6-1.1,1.1-1.6,1.5
					C250.6,275.1,250,275.3,249.2,275.3z"/>
				<path class="st2" d="M258.4,275v-11.2h1.6l0.2,2h0.1c0.4-0.7,0.8-1.3,1.4-1.7c0.5-0.4,1.1-0.6,1.8-0.6c0.4,0,0.8,0.1,1.2,0.2
					l-0.4,1.7c-0.2-0.1-0.4-0.1-0.5-0.1c-0.2,0-0.3,0-0.6,0c-0.5,0-1,0.2-1.5,0.6c-0.5,0.4-1,1-1.3,2v7.2H258.4z"/>
				<path class="st2" d="M271,275v-16.4h1.9v4.5l-0.1,2.3c0.5-0.5,1.1-0.9,1.7-1.3c0.6-0.4,1.3-0.5,2-0.5c1.2,0,2,0.4,2.6,1.1
					c0.5,0.7,0.8,1.8,0.8,3.3v7.1h-1.9v-6.8c0-1.1-0.2-1.8-0.5-2.3c-0.3-0.5-0.9-0.7-1.6-0.7c-0.6,0-1.1,0.1-1.5,0.4s-1,0.7-1.5,1.3
					v8.1H271z"/>
				<path class="st2" d="M286.1,275.3c-0.9,0-1.7-0.3-2.3-0.8s-0.9-1.3-0.9-2.3c0-1.2,0.5-2.2,1.6-2.8c1.1-0.7,2.8-1.1,5.2-1.4
					c0-0.4,0-0.7-0.1-1c-0.1-0.3-0.2-0.6-0.4-0.9s-0.4-0.5-0.7-0.6s-0.7-0.2-1.1-0.2c-0.6,0-1.3,0.1-1.8,0.4
					c-0.6,0.2-1.1,0.5-1.5,0.8l-0.7-1.3c0.5-0.3,1.2-0.7,1.9-1s1.6-0.5,2.5-0.5c1.4,0,2.4,0.4,3,1.3s0.9,2,0.9,3.3v6.9H290l-0.2-1.3
					h-0.1c-0.5,0.4-1.1,0.8-1.7,1.1C287.5,275.2,286.8,275.3,286.1,275.3z M286.6,273.8c0.5,0,1-0.1,1.5-0.4s1-0.6,1.5-1.1v-3.1
					c-0.9,0.1-1.7,0.3-2.4,0.4c-0.6,0.2-1.1,0.4-1.5,0.6c-0.4,0.2-0.7,0.5-0.9,0.8c-0.2,0.3-0.3,0.6-0.3,1c0,0.6,0.2,1.1,0.6,1.4
					C285.6,273.7,286.1,273.8,286.6,273.8z"/>
				<path class="st2" d="M295.1,275v-11.2h1.6l0.2,1.6h0.1c0.5-0.5,1.1-1,1.7-1.3s1.3-0.5,2.1-0.5c1.2,0,2,0.4,2.6,1.1
					c0.5,0.7,0.8,1.8,0.8,3.3v7.1h-1.9v-6.8c0-1.1-0.2-1.8-0.5-2.3c-0.3-0.5-0.9-0.7-1.6-0.7c-0.6,0-1.1,0.1-1.5,0.4
					c-0.4,0.3-1,0.7-1.5,1.3v8.1H295.1z"/>
				<path class="st2" d="M311.5,275.3c-1.4,0-2.5-0.5-3.4-1.5c-0.8-1-1.3-2.5-1.3-4.3c0-0.9,0.1-1.7,0.4-2.4
					c0.3-0.7,0.6-1.3,1.1-1.9c0.4-0.5,1-0.9,1.5-1.2c0.6-0.3,1.2-0.4,1.8-0.4c0.6,0,1.2,0.1,1.7,0.3c0.5,0.2,1,0.5,1.4,0.9l-0.1-1.9
					v-4.3h1.9V275h-1.6l-0.2-1.3h-0.1c-0.4,0.4-1,0.8-1.5,1.1C312.8,275.2,312.2,275.3,311.5,275.3z M311.9,273.7
					c0.5,0,1-0.1,1.5-0.4s0.9-0.6,1.4-1.2v-5.8c-0.5-0.4-0.9-0.7-1.4-0.9c-0.4-0.2-0.9-0.3-1.3-0.3c-0.4,0-0.9,0.1-1.3,0.3
					c-0.4,0.2-0.7,0.5-1,0.9c-0.3,0.4-0.5,0.8-0.7,1.3s-0.3,1.1-0.3,1.7c0,1.3,0.3,2.4,0.8,3.2C310.2,273.3,310.9,273.7,311.9,273.7
					z"/>
				<path class="st2" d="M323.4,275.3c-0.8,0-1.6-0.1-2.3-0.4s-1.3-0.7-1.9-1.1l0.9-1.3c0.5,0.4,1,0.7,1.5,1
					c0.5,0.2,1.1,0.4,1.8,0.4c0.7,0,1.3-0.2,1.7-0.5c0.4-0.3,0.6-0.8,0.6-1.2c0-0.3-0.1-0.5-0.2-0.8s-0.3-0.4-0.6-0.6
					c-0.2-0.2-0.5-0.3-0.8-0.4c-0.3-0.1-0.6-0.2-0.9-0.4c-0.4-0.1-0.8-0.3-1.2-0.5c-0.4-0.2-0.8-0.4-1.1-0.6
					c-0.3-0.3-0.6-0.5-0.8-0.9c-0.2-0.3-0.3-0.7-0.3-1.2c0-0.4,0.1-0.9,0.3-1.3c0.2-0.4,0.4-0.7,0.8-1c0.3-0.3,0.7-0.5,1.2-0.7
					c0.5-0.2,1-0.2,1.6-0.2c0.7,0,1.4,0.1,1.9,0.4c0.6,0.2,1.1,0.5,1.5,0.9l-0.9,1.2c-0.4-0.3-0.8-0.5-1.2-0.7s-0.9-0.3-1.4-0.3
					c-0.7,0-1.2,0.2-1.6,0.5c-0.3,0.3-0.5,0.7-0.5,1.1c0,0.3,0.1,0.5,0.2,0.7s0.3,0.4,0.6,0.5c0.2,0.1,0.5,0.3,0.8,0.4
					c0.3,0.1,0.6,0.2,0.9,0.4c0.4,0.2,0.8,0.3,1.2,0.5s0.8,0.4,1.1,0.6s0.6,0.6,0.8,0.9c0.2,0.4,0.3,0.8,0.3,1.3
					c0,0.5-0.1,0.9-0.3,1.3c-0.2,0.4-0.4,0.8-0.8,1.1c-0.3,0.3-0.8,0.5-1.3,0.7C324.6,275.2,324,275.3,323.4,275.3z"/>
				<path class="st2" d="M337.3,275.3c-0.9,0-1.7-0.3-2.3-0.8s-0.9-1.3-0.9-2.3c0-1.2,0.5-2.2,1.6-2.8c1.1-0.7,2.8-1.1,5.2-1.4
					c0-0.4,0-0.7-0.1-1c-0.1-0.3-0.2-0.6-0.4-0.9s-0.4-0.5-0.7-0.6s-0.7-0.2-1.1-0.2c-0.6,0-1.3,0.1-1.8,0.4
					c-0.6,0.2-1.1,0.5-1.5,0.8l-0.7-1.3c0.5-0.3,1.2-0.7,1.9-1s1.6-0.5,2.5-0.5c1.4,0,2.4,0.4,3,1.3s0.9,2,0.9,3.3v6.9h-1.6
					l-0.2-1.3H341c-0.5,0.4-1.1,0.8-1.7,1.1C338.6,275.2,338,275.3,337.3,275.3z M337.8,273.8c0.5,0,1-0.1,1.5-0.4s1-0.6,1.5-1.1
					v-3.1c-0.9,0.1-1.7,0.3-2.4,0.4c-0.6,0.2-1.1,0.4-1.5,0.6c-0.4,0.2-0.7,0.5-0.9,0.8c-0.2,0.3-0.3,0.6-0.3,1
					c0,0.6,0.2,1.1,0.6,1.4C336.8,273.7,337.3,273.8,337.8,273.8z"/>
				<path class="st2" d="M346.3,275v-11.2h1.6l0.2,1.6h0.1c0.5-0.5,1.1-1,1.7-1.3c0.6-0.4,1.3-0.5,2.1-0.5c1.2,0,2,0.4,2.6,1.1
					c0.5,0.7,0.8,1.8,0.8,3.3v7.1h-1.9v-6.8c0-1.1-0.2-1.8-0.5-2.3c-0.3-0.5-0.9-0.7-1.6-0.7c-0.6,0-1.1,0.1-1.5,0.4s-1,0.7-1.5,1.3
					v8.1H346.3z"/>
				<path class="st2" d="M362.7,275.3c-1.4,0-2.5-0.5-3.4-1.5c-0.8-1-1.3-2.5-1.3-4.3c0-0.9,0.1-1.7,0.4-2.4
					c0.3-0.7,0.6-1.3,1.1-1.9c0.4-0.5,1-0.9,1.5-1.2c0.6-0.3,1.2-0.4,1.8-0.4c0.6,0,1.2,0.1,1.7,0.3c0.5,0.2,1,0.5,1.4,0.9l-0.1-1.9
					v-4.3h1.9V275h-1.6l-0.2-1.3h-0.1c-0.4,0.4-1,0.8-1.5,1.1C364,275.2,363.3,275.3,362.7,275.3z M363.1,273.7c0.5,0,1-0.1,1.5-0.4
					s0.9-0.6,1.4-1.2v-5.8c-0.5-0.4-0.9-0.7-1.4-0.9c-0.4-0.2-0.9-0.3-1.3-0.3c-0.4,0-0.9,0.1-1.3,0.3c-0.4,0.2-0.7,0.5-1,0.9
					c-0.3,0.4-0.5,0.8-0.7,1.3s-0.3,1.1-0.3,1.7c0,1.3,0.3,2.4,0.8,3.2C361.4,273.3,362.1,273.7,363.1,273.7z"/>
			</g>
			<g class="st3">
				<path class="st2" d="M5.7,322.3c-1.4,0-2.5-0.5-3.4-1.5c-0.8-1-1.3-2.5-1.3-4.3c0-0.9,0.1-1.7,0.4-2.4c0.3-0.7,0.6-1.3,1.1-1.9
					c0.4-0.5,1-0.9,1.5-1.2c0.6-0.3,1.2-0.4,1.8-0.4s1.2,0.1,1.7,0.3c0.5,0.2,1,0.5,1.4,0.9L9,310v-4.3h1.9V322H9.3l-0.2-1.3H9.1
					c-0.4,0.4-1,0.8-1.5,1.1C7,322.2,6.4,322.3,5.7,322.3z M6.1,320.7c0.5,0,1-0.1,1.5-0.4c0.5-0.3,0.9-0.6,1.4-1.2v-5.8
					c-0.5-0.4-0.9-0.7-1.4-0.9c-0.4-0.2-0.9-0.3-1.3-0.3c-0.4,0-0.9,0.1-1.3,0.3s-0.7,0.5-1,0.9c-0.3,0.4-0.5,0.8-0.7,1.3
					c-0.2,0.5-0.3,1.1-0.3,1.7c0,1.3,0.3,2.4,0.8,3.2C4.4,320.3,5.1,320.7,6.1,320.7z"/>
				<path class="st2" d="M14.7,322v-11.2h1.6l0.2,2h0.1c0.4-0.7,0.8-1.3,1.4-1.7s1.1-0.6,1.8-0.6c0.4,0,0.8,0.1,1.2,0.2l-0.4,1.7
					c-0.2-0.1-0.4-0.1-0.5-0.1c-0.2,0-0.3,0-0.6,0c-0.5,0-1,0.2-1.5,0.6c-0.5,0.4-1,1-1.3,2v7.2H14.7z"/>
				<path class="st2" d="M23.6,308.6c-0.4,0-0.7-0.1-0.9-0.3c-0.3-0.2-0.4-0.5-0.4-0.9c0-0.4,0.1-0.7,0.4-0.9
					c0.3-0.2,0.6-0.3,0.9-0.3s0.7,0.1,0.9,0.3c0.3,0.2,0.4,0.5,0.4,0.9c0,0.4-0.1,0.6-0.4,0.9C24.3,308.4,24,308.6,23.6,308.6z
					 M22.6,322v-11.2h1.9V322H22.6z"/>
				<path class="st2" d="M30.7,322l-4-11.2h2l2.1,6.3c0.2,0.6,0.3,1.1,0.5,1.7s0.3,1.1,0.5,1.6h0.1c0.2-0.5,0.3-1.1,0.5-1.6
					c0.2-0.6,0.3-1.1,0.5-1.7l2.1-6.3h1.9l-4,11.2H30.7z"/>
				<path class="st2" d="M43.5,322.3c-0.8,0-1.5-0.1-2.1-0.4c-0.7-0.3-1.2-0.7-1.7-1.1s-0.9-1.1-1.1-1.8c-0.3-0.7-0.4-1.5-0.4-2.5
					s0.1-1.7,0.4-2.5s0.7-1.3,1.1-1.9c0.5-0.5,1-0.9,1.6-1.2c0.6-0.3,1.2-0.4,1.9-0.4c0.7,0,1.3,0.1,1.9,0.4c0.6,0.2,1,0.6,1.4,1.1
					c0.4,0.5,0.7,1,0.9,1.7c0.2,0.6,0.3,1.4,0.3,2.2c0,0.2,0,0.4,0,0.6c0,0.2,0,0.4-0.1,0.5H40c0.1,1.2,0.4,2.1,1.1,2.8
					c0.7,0.7,1.5,1,2.6,1c0.5,0,1-0.1,1.5-0.2s0.9-0.4,1.3-0.6l0.7,1.2c-0.5,0.3-1,0.6-1.6,0.8C44.9,322.2,44.2,322.3,43.5,322.3z
					 M40,315.5h6c0-1.1-0.2-2-0.7-2.6c-0.5-0.6-1.2-0.9-2-0.9c-0.4,0-0.8,0.1-1.1,0.2c-0.4,0.2-0.7,0.4-1,0.7
					c-0.3,0.3-0.5,0.7-0.7,1.1C40.1,314.5,40,315,40,315.5z"/>
				<path class="st2" d="M58.5,322.3c-0.6,0-1.1-0.1-1.5-0.3s-0.7-0.4-1-0.8s-0.4-0.7-0.5-1.2c-0.1-0.5-0.2-1-0.2-1.5v-6.2h-1.7V311
					l1.7-0.1l0.2-3.1h1.6v3.1h3v1.5h-3v6.2c0,0.7,0.1,1.2,0.4,1.6s0.7,0.6,1.3,0.6c0.2,0,0.4,0,0.6-0.1c0.2-0.1,0.4-0.1,0.6-0.2
					l0.4,1.4c-0.3,0.1-0.6,0.2-1,0.3C59.2,322.3,58.8,322.3,58.5,322.3z"/>
				<path class="st2" d="M62.7,322v-11.2h1.6l0.2,2h0.1c0.4-0.7,0.8-1.3,1.4-1.7s1.1-0.6,1.8-0.6c0.4,0,0.8,0.1,1.2,0.2l-0.4,1.7
					c-0.2-0.1-0.4-0.1-0.5-0.1c-0.2,0-0.3,0-0.6,0c-0.5,0-1,0.2-1.5,0.6c-0.5,0.4-1,1-1.3,2v7.2H62.7z"/>
				<path class="st2" d="M72.7,322.3c-0.9,0-1.7-0.3-2.3-0.8s-0.9-1.3-0.9-2.3c0-1.2,0.5-2.2,1.6-2.8c1.1-0.7,2.8-1.1,5.2-1.4
					c0-0.4,0-0.7-0.1-1c-0.1-0.3-0.2-0.6-0.4-0.9s-0.4-0.5-0.7-0.6c-0.3-0.2-0.7-0.2-1.1-0.2c-0.6,0-1.3,0.1-1.8,0.4
					c-0.6,0.2-1.1,0.5-1.5,0.8l-0.7-1.3c0.5-0.3,1.2-0.7,1.9-1c0.8-0.3,1.6-0.5,2.5-0.5c1.4,0,2.4,0.4,3,1.3c0.6,0.8,0.9,2,0.9,3.3
					v6.9h-1.6l-0.2-1.3h-0.1c-0.5,0.4-1.1,0.8-1.7,1.1C74.1,322.2,73.4,322.3,72.7,322.3z M73.3,320.8c0.5,0,1-0.1,1.5-0.4
					c0.5-0.3,1-0.6,1.5-1.1v-3.1c-0.9,0.1-1.7,0.3-2.4,0.4c-0.6,0.2-1.1,0.4-1.5,0.6c-0.4,0.2-0.7,0.5-0.9,0.8s-0.3,0.6-0.3,1
					c0,0.6,0.2,1.1,0.6,1.4C72.3,320.7,72.7,320.8,73.3,320.8z"/>
				<path class="st2" d="M88.6,322v-9.6h-4.7v9.6h-1.9v-9.6h-1.5V311l1.5-0.1v-1.5c0-1.2,0.3-2.1,0.9-2.8c0.6-0.7,1.4-1,2.6-1
					c0.4,0,0.7,0,1.1,0.1c0.4,0.1,0.7,0.2,1,0.3l-0.4,1.4c-0.5-0.2-1-0.3-1.5-0.3c-0.6,0-1,0.2-1.3,0.6c-0.3,0.4-0.5,1-0.5,1.7v1.4
					h4.7v-1.8c0-1.1,0.3-2.1,0.8-2.7c0.5-0.7,1.4-1,2.5-1c0.4,0,0.7,0,1,0.1c0.3,0.1,0.6,0.2,0.9,0.3l-0.4,1.4
					c-0.4-0.2-0.8-0.3-1.3-0.3c-1,0-1.6,0.7-1.6,2.2v1.8h2.4v1.5h-2.4v9.6H88.6z"/>
				<path class="st2" d="M96,308.6c-0.4,0-0.7-0.1-0.9-0.3c-0.3-0.2-0.4-0.5-0.4-0.9c0-0.4,0.1-0.7,0.4-0.9c0.3-0.2,0.6-0.3,0.9-0.3
					s0.7,0.1,0.9,0.3c0.3,0.2,0.4,0.5,0.4,0.9c0,0.4-0.1,0.6-0.4,0.9C96.7,308.4,96.3,308.6,96,308.6z M95,322v-11.2h1.9V322H95z"/>
				<path class="st2" d="M105.1,322.3c-0.7,0-1.4-0.1-2.1-0.4s-1.2-0.6-1.7-1.1c-0.5-0.5-0.8-1.1-1.1-1.8c-0.3-0.7-0.4-1.6-0.4-2.5
					c0-0.9,0.1-1.8,0.4-2.5c0.3-0.7,0.7-1.3,1.2-1.9s1.1-0.9,1.7-1.2c0.7-0.3,1.3-0.4,2.1-0.4c0.7,0,1.4,0.1,1.9,0.4
					c0.5,0.3,1,0.6,1.4,0.9l-1,1.2c-0.3-0.3-0.7-0.5-1-0.7c-0.4-0.2-0.8-0.3-1.2-0.3c-0.5,0-1,0.1-1.4,0.3s-0.8,0.5-1.1,0.9
					c-0.3,0.4-0.5,0.8-0.7,1.4c-0.2,0.5-0.3,1.1-0.3,1.8c0,0.6,0.1,1.2,0.3,1.7c0.2,0.5,0.4,1,0.7,1.3c0.3,0.4,0.7,0.7,1.1,0.9
					c0.4,0.2,0.9,0.3,1.4,0.3c0.5,0,1-0.1,1.4-0.3c0.4-0.2,0.8-0.5,1.2-0.8l0.8,1.3c-0.5,0.4-1.1,0.8-1.7,1S105.8,322.3,105.1,322.3
					z"/>
				<path class="st2" d="M119.3,322.3c-0.6,0-1.1-0.1-1.5-0.3s-0.7-0.4-1-0.8s-0.4-0.7-0.5-1.2c-0.1-0.5-0.2-1-0.2-1.5v-6.2h-1.7
					V311l1.7-0.1l0.2-3.1h1.6v3.1h3v1.5h-3v6.2c0,0.7,0.1,1.2,0.4,1.6s0.7,0.6,1.3,0.6c0.2,0,0.4,0,0.6-0.1c0.2-0.1,0.4-0.1,0.6-0.2
					l0.4,1.4c-0.3,0.1-0.6,0.2-1,0.3C120,322.3,119.6,322.3,119.3,322.3z"/>
				<path class="st2" d="M127.6,322.3c-0.7,0-1.3-0.1-2-0.4s-1.2-0.6-1.6-1.1c-0.5-0.5-0.9-1.1-1.1-1.8c-0.3-0.7-0.4-1.6-0.4-2.5
					c0-0.9,0.1-1.8,0.4-2.5s0.7-1.3,1.1-1.9c0.5-0.5,1-0.9,1.6-1.2c0.6-0.3,1.3-0.4,2-0.4c0.7,0,1.3,0.1,2,0.4
					c0.6,0.3,1.2,0.6,1.6,1.2c0.5,0.5,0.9,1.1,1.1,1.9s0.4,1.6,0.4,2.5c0,0.9-0.1,1.7-0.4,2.5c-0.3,0.7-0.7,1.3-1.1,1.8
					c-0.5,0.5-1,0.9-1.6,1.1C128.9,322.2,128.2,322.3,127.6,322.3z M127.6,320.7c0.5,0,0.9-0.1,1.3-0.3c0.4-0.2,0.7-0.5,1-0.9
					c0.3-0.4,0.5-0.8,0.7-1.3c0.2-0.5,0.2-1.1,0.2-1.7c0-0.6-0.1-1.2-0.2-1.8c-0.2-0.5-0.4-1-0.7-1.4c-0.3-0.4-0.6-0.7-1-0.9
					c-0.4-0.2-0.8-0.3-1.3-0.3c-0.5,0-0.9,0.1-1.3,0.3c-0.4,0.2-0.7,0.5-1,0.9c-0.3,0.4-0.5,0.8-0.7,1.4c-0.2,0.5-0.2,1.1-0.2,1.8
					c0,0.6,0.1,1.2,0.2,1.7c0.2,0.5,0.4,1,0.7,1.3c0.3,0.4,0.6,0.7,1,0.9C126.6,320.6,127.1,320.7,127.6,320.7z"/>
				<path class="st2" d="M140.5,326.8c-0.3,0-0.5,0-0.7-0.1s-0.4-0.1-0.6-0.2l0.4-1.5c0.1,0,0.3,0.1,0.4,0.1s0.3,0.1,0.4,0.1
					c0.6,0,1.2-0.2,1.6-0.7c0.4-0.5,0.7-1,1-1.7l0.3-0.8l-4.5-11.2h2l2.3,6.2c0.2,0.5,0.3,1,0.5,1.6s0.4,1.1,0.5,1.6h0.1
					c0.2-0.5,0.3-1,0.5-1.6c0.2-0.6,0.3-1.1,0.5-1.6l2-6.2h1.8l-4.2,12.1c-0.2,0.6-0.4,1.1-0.7,1.5s-0.5,0.9-0.9,1.2
					s-0.7,0.6-1.1,0.8S141,326.8,140.5,326.8z"/>
				<path class="st2" d="M155.3,322.3c-0.7,0-1.3-0.1-2-0.4s-1.2-0.6-1.6-1.1c-0.5-0.5-0.9-1.1-1.1-1.8c-0.3-0.7-0.4-1.6-0.4-2.5
					c0-0.9,0.1-1.8,0.4-2.5s0.7-1.3,1.1-1.9c0.5-0.5,1-0.9,1.6-1.2c0.6-0.3,1.3-0.4,2-0.4s1.3,0.1,2,0.4c0.6,0.3,1.2,0.6,1.6,1.2
					c0.5,0.5,0.9,1.1,1.1,1.9s0.4,1.6,0.4,2.5c0,0.9-0.1,1.7-0.4,2.5c-0.3,0.7-0.7,1.3-1.1,1.8c-0.5,0.5-1,0.9-1.6,1.1
					C156.6,322.2,156,322.3,155.3,322.3z M155.3,320.7c0.5,0,0.9-0.1,1.3-0.3c0.4-0.2,0.7-0.5,1-0.9c0.3-0.4,0.5-0.8,0.7-1.3
					c0.2-0.5,0.2-1.1,0.2-1.7c0-0.6-0.1-1.2-0.2-1.8c-0.2-0.5-0.4-1-0.7-1.4c-0.3-0.4-0.6-0.7-1-0.9c-0.4-0.2-0.8-0.3-1.3-0.3
					c-0.5,0-0.9,0.1-1.3,0.3c-0.4,0.2-0.7,0.5-1,0.9c-0.3,0.4-0.5,0.8-0.7,1.4c-0.2,0.5-0.2,1.1-0.2,1.8c0,0.6,0.1,1.2,0.2,1.7
					c0.2,0.5,0.4,1,0.7,1.3c0.3,0.4,0.6,0.7,1,0.9C154.4,320.6,154.8,320.7,155.3,320.7z"/>
				<path class="st2" d="M166.7,322.3c-1.2,0-2.1-0.4-2.6-1.1c-0.5-0.7-0.8-1.8-0.8-3.3v-7.1h1.9v6.8c0,1.1,0.2,1.8,0.5,2.3
					s0.9,0.7,1.6,0.7c0.6,0,1.1-0.1,1.5-0.4c0.4-0.3,0.9-0.8,1.5-1.4v-7.9h1.9V322h-1.6l-0.2-1.7h-0.1c-0.5,0.6-1.1,1.1-1.6,1.5
					C168.1,322.1,167.4,322.3,166.7,322.3z"/>
				<path class="st2" d="M175.9,322v-11.2h1.6l0.2,2h0.1c0.4-0.7,0.8-1.3,1.4-1.7s1.1-0.6,1.8-0.6c0.4,0,0.8,0.1,1.2,0.2l-0.4,1.7
					c-0.2-0.1-0.4-0.1-0.5-0.1c-0.2,0-0.3,0-0.6,0c-0.5,0-1,0.2-1.5,0.6c-0.5,0.4-1,1-1.3,2v7.2H175.9z"/>
				<path class="st2" d="M191.4,322.3c-0.8,0-1.6-0.1-2.3-0.4s-1.3-0.7-1.9-1.1l0.9-1.3c0.5,0.4,1,0.7,1.5,1
					c0.5,0.2,1.1,0.4,1.8,0.4c0.7,0,1.3-0.2,1.7-0.5c0.4-0.3,0.6-0.8,0.6-1.2c0-0.3-0.1-0.5-0.2-0.8s-0.3-0.4-0.6-0.6
					c-0.2-0.2-0.5-0.3-0.8-0.4c-0.3-0.1-0.6-0.2-0.9-0.4c-0.4-0.1-0.8-0.3-1.2-0.5c-0.4-0.2-0.8-0.4-1.1-0.6
					c-0.3-0.3-0.6-0.5-0.8-0.9c-0.2-0.3-0.3-0.7-0.3-1.2c0-0.4,0.1-0.9,0.3-1.3c0.2-0.4,0.4-0.7,0.8-1c0.3-0.3,0.7-0.5,1.2-0.7
					c0.5-0.2,1-0.2,1.6-0.2c0.7,0,1.4,0.1,1.9,0.4c0.6,0.2,1.1,0.5,1.5,0.9l-0.9,1.2c-0.4-0.3-0.8-0.5-1.2-0.7
					c-0.4-0.2-0.9-0.3-1.4-0.3c-0.7,0-1.2,0.2-1.6,0.5s-0.5,0.7-0.5,1.1c0,0.3,0.1,0.5,0.2,0.7c0.1,0.2,0.3,0.4,0.6,0.5
					s0.5,0.3,0.8,0.4c0.3,0.1,0.6,0.2,0.9,0.4c0.4,0.2,0.8,0.3,1.2,0.5s0.8,0.4,1.1,0.6s0.6,0.6,0.8,0.9c0.2,0.4,0.3,0.8,0.3,1.3
					c0,0.5-0.1,0.9-0.3,1.3c-0.2,0.4-0.4,0.8-0.8,1.1c-0.3,0.3-0.8,0.5-1.3,0.7C192.6,322.2,192.1,322.3,191.4,322.3z"/>
				<path class="st2" d="M201.2,322.3c-0.6,0-1.1-0.1-1.5-0.3s-0.7-0.4-1-0.8s-0.4-0.7-0.5-1.2c-0.1-0.5-0.2-1-0.2-1.5v-6.2h-1.7
					V311l1.7-0.1l0.2-3.1h1.6v3.1h3v1.5h-3v6.2c0,0.7,0.1,1.2,0.4,1.6s0.7,0.6,1.3,0.6c0.2,0,0.4,0,0.6-0.1c0.2-0.1,0.4-0.1,0.6-0.2
					l0.4,1.4c-0.3,0.1-0.6,0.2-1,0.3C201.9,322.3,201.5,322.3,201.2,322.3z"/>
				<path class="st2" d="M209.5,322.3c-0.7,0-1.3-0.1-2-0.4s-1.2-0.6-1.6-1.1c-0.5-0.5-0.9-1.1-1.1-1.8c-0.3-0.7-0.4-1.6-0.4-2.5
					c0-0.9,0.1-1.8,0.4-2.5c0.3-0.7,0.7-1.3,1.1-1.9c0.5-0.5,1-0.9,1.6-1.2c0.6-0.3,1.3-0.4,2-0.4c0.7,0,1.3,0.1,2,0.4
					c0.6,0.3,1.2,0.6,1.6,1.2s0.9,1.1,1.1,1.9c0.3,0.7,0.4,1.6,0.4,2.5c0,0.9-0.1,1.7-0.4,2.5c-0.3,0.7-0.7,1.3-1.1,1.8
					c-0.5,0.5-1,0.9-1.6,1.1S210.1,322.3,209.5,322.3z M209.5,320.7c0.5,0,0.9-0.1,1.3-0.3c0.4-0.2,0.7-0.5,1-0.9
					c0.3-0.4,0.5-0.8,0.7-1.3c0.2-0.5,0.2-1.1,0.2-1.7c0-0.6-0.1-1.2-0.2-1.8c-0.2-0.5-0.4-1-0.7-1.4c-0.3-0.4-0.6-0.7-1-0.9
					c-0.4-0.2-0.8-0.3-1.3-0.3s-0.9,0.1-1.3,0.3c-0.4,0.2-0.7,0.5-1,0.9c-0.3,0.4-0.5,0.8-0.7,1.4c-0.2,0.5-0.2,1.1-0.2,1.8
					c0,0.6,0.1,1.2,0.2,1.7c0.2,0.5,0.4,1,0.7,1.3c0.3,0.4,0.6,0.7,1,0.9C208.5,320.6,209,320.7,209.5,320.7z"/>
				<path class="st2" d="M217.6,322v-11.2h1.6l0.2,2h0.1c0.4-0.7,0.8-1.3,1.4-1.7c0.5-0.4,1.1-0.6,1.8-0.6c0.4,0,0.8,0.1,1.2,0.2
					l-0.4,1.7c-0.2-0.1-0.4-0.1-0.5-0.1c-0.2,0-0.3,0-0.6,0c-0.5,0-1,0.2-1.5,0.6c-0.5,0.4-1,1-1.3,2v7.2H217.6z"/>
				<path class="st2" d="M229.9,322.3c-0.8,0-1.5-0.1-2.1-0.4c-0.7-0.3-1.2-0.7-1.7-1.1c-0.5-0.5-0.9-1.1-1.1-1.8
					c-0.3-0.7-0.4-1.5-0.4-2.5s0.1-1.7,0.4-2.5c0.3-0.7,0.7-1.3,1.1-1.9c0.5-0.5,1-0.9,1.6-1.2c0.6-0.3,1.2-0.4,1.9-0.4
					c0.7,0,1.3,0.1,1.9,0.4c0.6,0.2,1,0.6,1.4,1.1s0.7,1,0.9,1.7c0.2,0.6,0.3,1.4,0.3,2.2c0,0.2,0,0.4,0,0.6c0,0.2,0,0.4-0.1,0.5
					h-7.5c0.1,1.2,0.4,2.1,1.1,2.8c0.7,0.7,1.5,1,2.6,1c0.5,0,1-0.1,1.5-0.2s0.9-0.4,1.3-0.6l0.7,1.2c-0.5,0.3-1,0.6-1.6,0.8
					C231.3,322.2,230.6,322.3,229.9,322.3z M226.3,315.5h6c0-1.1-0.2-2-0.7-2.6c-0.5-0.6-1.2-0.9-2-0.9c-0.4,0-0.8,0.1-1.1,0.2
					c-0.4,0.2-0.7,0.4-1,0.7c-0.3,0.3-0.5,0.7-0.7,1.1C226.5,314.5,226.4,315,226.3,315.5z"/>
				<path class="st2" d="M241.7,322v-9.6h-1.5V311l1.5-0.1v-1.8c0-1.1,0.3-2.1,0.8-2.7c0.5-0.7,1.4-1,2.5-1c0.4,0,0.7,0,1,0.1
					c0.3,0.1,0.6,0.2,0.9,0.3l-0.4,1.4c-0.4-0.2-0.8-0.3-1.3-0.3c-1,0-1.6,0.7-1.6,2.2v1.8h2.4v1.5h-2.4v9.6H241.7z"/>
				<path class="st2" d="M252.2,322.3c-0.7,0-1.3-0.1-2-0.4s-1.2-0.6-1.6-1.1c-0.5-0.5-0.9-1.1-1.1-1.8c-0.3-0.7-0.4-1.6-0.4-2.5
					c0-0.9,0.1-1.8,0.4-2.5c0.3-0.7,0.7-1.3,1.1-1.9s1-0.9,1.6-1.2c0.6-0.3,1.3-0.4,2-0.4c0.7,0,1.3,0.1,2,0.4
					c0.6,0.3,1.2,0.6,1.6,1.2c0.5,0.5,0.9,1.1,1.1,1.9c0.3,0.7,0.4,1.6,0.4,2.5c0,0.9-0.1,1.7-0.4,2.5c-0.3,0.7-0.7,1.3-1.1,1.8
					c-0.5,0.5-1,0.9-1.6,1.1C253.5,322.2,252.9,322.3,252.2,322.3z M252.2,320.7c0.5,0,0.9-0.1,1.3-0.3s0.7-0.5,1-0.9
					c0.3-0.4,0.5-0.8,0.7-1.3c0.2-0.5,0.2-1.1,0.2-1.7c0-0.6-0.1-1.2-0.2-1.8c-0.2-0.5-0.4-1-0.7-1.4c-0.3-0.4-0.6-0.7-1-0.9
					s-0.8-0.3-1.3-0.3c-0.5,0-0.9,0.1-1.3,0.3s-0.7,0.5-1,0.9c-0.3,0.4-0.5,0.8-0.7,1.4c-0.2,0.5-0.2,1.1-0.2,1.8
					c0,0.6,0.1,1.2,0.2,1.7c0.2,0.5,0.4,1,0.7,1.3c0.3,0.4,0.6,0.7,1,0.9S251.7,320.7,252.2,320.7z"/>
				<path class="st2" d="M260.3,322v-11.2h1.6l0.2,2h0.1c0.4-0.7,0.8-1.3,1.4-1.7c0.5-0.4,1.1-0.6,1.8-0.6c0.4,0,0.8,0.1,1.2,0.2
					l-0.4,1.7c-0.2-0.1-0.4-0.1-0.5-0.1c-0.2,0-0.3,0-0.6,0c-0.5,0-1,0.2-1.5,0.6c-0.5,0.4-1,1-1.3,2v7.2H260.3z"/>
				<path class="st2" d="M273.1,326.8c-0.3,0-0.5,0-0.7-0.1s-0.4-0.1-0.6-0.2l0.4-1.5c0.1,0,0.3,0.1,0.4,0.1s0.3,0.1,0.4,0.1
					c0.6,0,1.2-0.2,1.6-0.7c0.4-0.5,0.7-1,1-1.7l0.3-0.8l-4.5-11.2h2l2.3,6.2c0.2,0.5,0.3,1,0.5,1.6c0.2,0.5,0.4,1.1,0.5,1.6h0.1
					c0.2-0.5,0.3-1,0.5-1.6c0.2-0.6,0.3-1.1,0.5-1.6l2-6.2h1.8l-4.2,12.1c-0.2,0.6-0.4,1.1-0.7,1.5s-0.5,0.9-0.9,1.2
					c-0.3,0.3-0.7,0.6-1.2,0.8C274.1,326.7,273.6,326.8,273.1,326.8z"/>
				<path class="st2" d="M287.9,322.3c-0.7,0-1.3-0.1-2-0.4s-1.2-0.6-1.6-1.1c-0.5-0.5-0.9-1.1-1.1-1.8c-0.3-0.7-0.4-1.6-0.4-2.5
					c0-0.9,0.1-1.8,0.4-2.5c0.3-0.7,0.7-1.3,1.1-1.9s1-0.9,1.6-1.2c0.6-0.3,1.3-0.4,2-0.4c0.7,0,1.3,0.1,2,0.4
					c0.6,0.3,1.2,0.6,1.6,1.2c0.5,0.5,0.9,1.1,1.1,1.9c0.3,0.7,0.4,1.6,0.4,2.5c0,0.9-0.1,1.7-0.4,2.5c-0.3,0.7-0.7,1.3-1.1,1.8
					c-0.5,0.5-1,0.9-1.6,1.1C289.2,322.2,288.6,322.3,287.9,322.3z M287.9,320.7c0.5,0,0.9-0.1,1.3-0.3s0.7-0.5,1-0.9
					c0.3-0.4,0.5-0.8,0.7-1.3c0.2-0.5,0.2-1.1,0.2-1.7c0-0.6-0.1-1.2-0.2-1.8c-0.2-0.5-0.4-1-0.7-1.4c-0.3-0.4-0.6-0.7-1-0.9
					s-0.8-0.3-1.3-0.3c-0.5,0-0.9,0.1-1.3,0.3s-0.7,0.5-1,0.9c-0.3,0.4-0.5,0.8-0.7,1.4c-0.2,0.5-0.2,1.1-0.2,1.8
					c0,0.6,0.1,1.2,0.2,1.7c0.2,0.5,0.4,1,0.7,1.3c0.3,0.4,0.6,0.7,1,0.9S287.4,320.7,287.9,320.7z"/>
				<path class="st2" d="M299.2,322.3c-1.2,0-2.1-0.4-2.6-1.1c-0.5-0.7-0.8-1.8-0.8-3.3v-7.1h1.9v6.8c0,1.1,0.2,1.8,0.5,2.3
					c0.3,0.5,0.9,0.7,1.6,0.7c0.6,0,1.1-0.1,1.5-0.4c0.4-0.3,0.9-0.8,1.5-1.4v-7.9h1.9V322h-1.6l-0.2-1.7h-0.1
					c-0.5,0.6-1.1,1.1-1.6,1.5C300.7,322.1,300,322.3,299.2,322.3z"/>
				<path class="st2" d="M309.5,322.3c-0.4,0-0.7-0.1-1-0.4c-0.3-0.3-0.4-0.6-0.4-1c0-0.4,0.1-0.8,0.4-1.1c0.3-0.3,0.6-0.4,1-0.4
					c0.4,0,0.7,0.1,1,0.4c0.3,0.3,0.4,0.6,0.4,1.1c0,0.4-0.1,0.8-0.4,1C310.2,322.2,309.9,322.3,309.5,322.3z"/>
			</g>
		</g>
		<g id="social-media" transform="translate(84.654 146.703)">
			<path id="Path_2166" class="st4" d="M68.6,64.6c2.1,1.5,4.5,2.3,7.1,2.3h22.5v10.9l14.3-10.9h6.2c6.6,0,12-5.4,12-12c0,0,0,0,0,0
				V12c0-6.6-5.4-12-12-12c0,0,0,0,0,0h-43c-6.6,0-12,5.4-12,12c0,0,0,0,0,0v52.6H68.6z"/>
			<path id="Path_2167" class="st5" d="M118.7,0h-10.3c6.6,0,12,5.4,12,12c0,0,0,0,0,0v42.9c0,6.6-5.4,12-12,12c0,0,0,0,0,0h-6.2
				l-4,3v7.9l14.3-10.9h6.2c6.6,0,12-5.4,12-12c0,0,0,0,0,0V12C130.7,5.4,125.3,0,118.7,0C118.7,0,118.7,0,118.7,0z"/>
			<path id="Path_2168" class="st6" d="M87.9,49.3l1.2,1c2,1.6,4.4,2.5,7,2.5h17.6c1.6,0,2.9-1.3,2.9-2.9c0,0,0-0.1,0-0.1
				c-0.1-1.6,0-16,0-17.6c0-1.6-1.3-2.9-2.9-2.9l0,0l-11.9,0l1.5-3.5c1.5-3.6,1.3-7.7-0.7-11.1c-0.6-0.9-1.8-1.2-2.7-0.7
				c-0.6,0.3-0.9,1-0.9,1.6c0,3.1-1.1,6.1-3.2,8.4l-7.6,8.6h-2.8v16.7H87.9z"/>
			<path id="Path_2169" class="st7" d="M86.7,51.9h-8c-0.5,0-1-0.4-1-1c0,0,0,0,0,0V30.5c0-0.5,0.4-1,1-1l0,0h8c0.5,0,1,0.4,1,1l0,0
				V51C87.7,51.5,87.3,51.9,86.7,51.9z"/>
			<path id="Path_2170" class="st8" d="M68.7,86.1V42.8c0-5.2-4.3-9.5-9.5-9.5H25.3c-5.2,0-9.5,4.2-9.5,9.5v33.8
				c0,5.2,4.3,9.5,9.5,9.5h18.6v8.7l11.3-8.7H68.7z"/>
			<path id="Path_2171" class="st9" d="M59.2,33.3H45.7c5.2,0,9.5,4.2,9.5,9.5v43.3h13.4V42.8C68.7,37.6,64.4,33.3,59.2,33.3z"/>
			<path id="Path_2172" class="st4" d="M54.7,62.5h-6.8l0.7-4.5h6.1c1-0.1,1.8-0.9,1.7-2c-0.1-0.9-0.8-1.7-1.7-1.7h-5.5l1-6.2
				c0.1-1-0.6-1.9-1.6-2.1c-1-0.1-1.9,0.5-2.1,1.5l-1.1,6.8H41l1-6.2c0.1-1-0.6-1.9-1.6-2.1c-1-0.1-1.9,0.5-2.1,1.5l-1.1,6.8h-7.4
				c-1,0.1-1.8,0.9-1.7,2c0.1,0.9,0.8,1.7,1.7,1.7h6.8l-0.7,4.5h-6.1c-1,0.1-1.8,0.9-1.7,2c0.1,0.9,0.8,1.7,1.7,1.7h5.5l-1,6.2
				c-0.4,2.3,3.3,3,3.7,0.6l1.1-6.8h4.5l-1,6.2c-0.4,2.3,3.3,3,3.7,0.6l1.1-6.8h7.4c1-0.1,1.8-0.9,1.7-2
				C56.3,63.3,55.6,62.5,54.7,62.5z M44.1,62.5h-4.5l0.7-4.5h4.5L44.1,62.5z"/>
			<path id="Path_2173" class="st10" d="M87,79.2H63c-3.7,0-6.7,3-6.7,6.7c0,0,0,0,0,0v24c0,3.7,3,6.7,6.7,6.7h13.2v6.2l8-6.2H87
				c3.7,0,6.7-3,6.7-6.7c0,0,0,0,0,0v-24C93.7,82.2,90.7,79.2,87,79.2z"/>
			<path id="Path_2174" class="st11" d="M87,79.2H76.6c3.7,0,6.7,3,6.7,6.7c0,0,0,0,0,0v24c0,3.7-3,6.7-6.7,6.7c0,0,0,0,0,0h-0.5
				v6.2l8-6.2H87c3.7,0,6.7-3,6.7-6.7c0,0,0,0,0,0v-24C93.7,82.2,90.7,79.2,87,79.2C87,79.2,87,79.2,87,79.2z"/>
			<path id="Path_2175" class="st4" d="M75,106c5.8-3.1,8.8-5.7,8.8-9.7c0-5.6-6.8-7-8.8-2.8c-2.2-4.3-8.8-2.8-8.8,2.8
				C66.2,100.3,69.2,103,75,106z"/>
		</g>
	</g>
</g>
</svg>
