<?xml version="1.0" encoding="utf-8"?>
<!-- Generator: Adobe Illustrator 23.0.5, SVG Export Plug-In . SVG Version: 6.00 Build 0)  -->
<svg version="1.1" id="Layer_1" xmlns="http://www.w3.org/2000/svg" xmlns:xlink="http://www.w3.org/1999/xlink" x="0px" y="0px"
	 viewBox="0 0 496.1 740.1" style="enable-background:new 0 0 496.1 740.1;" xml:space="preserve">
<style type="text/css">
	.st0{fill:#288936;}
	.st1{fill:#FFFFFF;}
</style>
<title>Social media icons</title>
<path class="st0" d="M0.1,370.2c0-117,0.1-234-0.1-350.9C0,4.7,5.1,0,19.2,0c152.6,0.2,305.3,0.1,457.9,0.1c15.3,0,19,3.6,19,18.7
	c0,234.1,0,468.3,0,702.4c0,0.7,0,1.3,0,2c0,12.5-4.4,16.9-16.8,16.9c-123,0-246,0-368.9,0c-31,0-62,0-93,0c-2.8,0-5.7-0.1-8.4-0.9
	c-5.4-1.5-8.1-5.6-8.7-11c-0.3-2.5-0.1-5-0.1-7.5C0.1,603.8,0.1,487,0.1,370.2z"/>
<g>
	<path class="st1" d="M73.1,279.2h12.6v6.9H65.9v-31.5h19.6v6.9H73.1v5.2h11.3v6.8H73.1V279.2z"/>
	<path class="st1" d="M105.4,263.6h6.8v22.5h-6.8V284c-1.6,1.8-3.8,2.7-6.7,2.7c-3,0-5.5-1.1-7.6-3.4c-2.1-2.3-3.1-5.1-3.1-8.4
		s1-6.1,3.1-8.4c2.1-2.3,4.6-3.4,7.6-3.4c2.9,0,5.1,0.9,6.7,2.7V263.6z M96.2,278.9c1,1,2.3,1.5,3.9,1.5c1.6,0,2.9-0.5,3.9-1.5
		c1-1,1.5-2.3,1.5-4c0-1.7-0.5-3-1.5-4c-1-1-2.3-1.5-3.9-1.5c-1.6,0-2.9,0.5-3.9,1.5c-1,1-1.5,2.3-1.5,4
		C94.7,276.5,95.2,277.9,96.2,278.9z"/>
	<path class="st1" d="M123.9,267.6c0.4-1.4,1.3-2.5,2.5-3.3c1.3-0.8,2.7-1.1,4.2-1.1v7.7c-1.7-0.3-3.2,0-4.6,0.8
		c-1.4,0.8-2.1,2.3-2.1,4.3v10.2h-6.8v-22.5h6.8V267.6z"/>
	<path class="st1" d="M146.9,263c2.4,0,4.4,0.8,6,2.5c1.6,1.7,2.4,3.9,2.4,6.8v13.8h-6.8v-12.8c0-1.3-0.4-2.3-1.1-3
		c-0.7-0.7-1.7-1.1-2.8-1.1c-1.3,0-2.3,0.4-3.1,1.2c-0.8,0.8-1.1,1.9-1.1,3.5v12.3h-6.8v-22.5h6.8v2.1
		C141.9,263.9,144,263,146.9,263z"/>
	<path class="st1" d="M183.4,254.6c3.1,0,5.7,1.1,7.8,3.2c2.1,2.1,3.2,4.7,3.2,7.6c0,3-1.1,5.6-3.2,7.7c-2.1,2.1-4.7,3.1-7.8,3.1
		h-4.7v9.9h-7.2v-31.5H183.4z M183.4,269.5c1.1,0,2-0.4,2.7-1.2c0.7-0.8,1.1-1.7,1.1-2.9c0-1.1-0.4-2.1-1.1-2.9
		c-0.7-0.8-1.6-1.2-2.7-1.2h-4.7v8.1H183.4z"/>
	<path class="st1" d="M215.7,283.3c-2.3,2.3-5.1,3.4-8.5,3.4s-6.1-1.1-8.5-3.4c-2.3-2.3-3.5-5.1-3.5-8.4s1.2-6.1,3.5-8.4
		c2.3-2.3,5.1-3.4,8.5-3.4s6.1,1.1,8.5,3.4c2.3,2.3,3.5,5.1,3.5,8.4S218,281,215.7,283.3z M203.6,278.7c1,1,2.2,1.5,3.7,1.5
		c1.5,0,2.7-0.5,3.7-1.5c1-1,1.5-2.3,1.5-3.8c0-1.6-0.5-2.8-1.5-3.8c-1-1-2.2-1.5-3.7-1.5c-1.5,0-2.7,0.5-3.7,1.5
		c-1,1-1.5,2.3-1.5,3.8C202.1,276.4,202.6,277.7,203.6,278.7z"/>
	<path class="st1" d="M229.2,260.4c-0.8,0.8-1.7,1.2-2.9,1.2c-1.1,0-2.1-0.4-2.9-1.2c-0.8-0.8-1.2-1.7-1.2-2.9
		c0-1.1,0.4-2.1,1.2-2.9c0.8-0.8,1.7-1.2,2.9-1.2c1.1,0,2.1,0.4,2.9,1.2c0.8,0.8,1.2,1.7,1.2,2.9C230.4,258.7,230,259.6,229.2,260.4
		z M223,286.1v-22.5h6.8v22.5H223z"/>
	<path class="st1" d="M247.9,263c2.4,0,4.4,0.8,6,2.5c1.6,1.7,2.4,3.9,2.4,6.8v13.8h-6.8v-12.8c0-1.3-0.4-2.3-1.1-3
		c-0.7-0.7-1.7-1.1-2.8-1.1c-1.3,0-2.3,0.4-3.1,1.2c-0.8,0.8-1.1,1.9-1.1,3.5v12.3h-6.8v-22.5h6.8v2.1
		C242.8,263.9,244.9,263,247.9,263z"/>
	<path class="st1" d="M274.1,270.1h-4.6v8c0,0.9,0.4,1.5,1.1,1.7s1.9,0.3,3.6,0.2v6.1c-4.3,0.5-7.3,0-8.9-1.2
		c-1.7-1.3-2.5-3.5-2.5-6.8v-8h-3.6v-6.5h3.6v-4.3l6.8-2v6.3h4.6V270.1z"/>
	<path class="st1" d="M284.1,270.2c0,0.4,0.4,0.8,1.1,1.1c0.8,0.3,1.7,0.6,2.8,0.9c1.1,0.3,2.2,0.7,3.2,1.1s2,1.2,2.8,2.2
		s1.1,2.3,1.1,3.9c0,2.4-0.9,4.3-2.7,5.5c-1.8,1.2-4,1.9-6.7,1.9c-4.7,0-8-1.8-9.7-5.4l5.9-3.3c0.6,1.8,1.9,2.7,3.8,2.7
		c1.6,0,2.4-0.5,2.4-1.4c0-0.5-0.4-0.8-1.1-1.1s-1.7-0.6-2.8-0.9c-1.1-0.3-2.2-0.7-3.2-1.1c-1.1-0.5-2-1.2-2.8-2.2
		c-0.8-1-1.1-2.2-1.1-3.6c0-2.3,0.8-4.2,2.5-5.4c1.7-1.3,3.8-1.9,6.3-1.9c1.9,0,3.6,0.4,5.1,1.2c1.5,0.8,2.8,2,3.7,3.6l-5.8,3.1
		c-0.7-1.3-1.7-2-3-2C284.7,268.9,284.1,269.3,284.1,270.2z"/>
	<path class="st1" d="M78.9,321.1h-4.6v8c0,0.9,0.4,1.5,1.1,1.7s1.9,0.3,3.6,0.2v6.1c-4.3,0.5-7.3,0-8.9-1.2
		c-1.7-1.3-2.5-3.5-2.5-6.8v-8h-3.6v-6.5h3.6v-4.3l6.8-2v6.3h4.6V321.1z"/>
	<path class="st1" d="M101.5,334.3c-2.3,2.3-5.1,3.4-8.5,3.4s-6.1-1.1-8.5-3.4c-2.3-2.3-3.5-5.1-3.5-8.4s1.2-6.1,3.5-8.4
		c2.3-2.3,5.1-3.4,8.5-3.4s6.1,1.1,8.5,3.4c2.3,2.3,3.5,5.1,3.5,8.4S103.8,332,101.5,334.3z M89.3,329.7c1,1,2.2,1.5,3.7,1.5
		c1.5,0,2.7-0.5,3.7-1.5c1-1,1.5-2.3,1.5-3.8c0-1.6-0.5-2.8-1.5-3.8c-1-1-2.2-1.5-3.7-1.5c-1.5,0-2.7,0.5-3.7,1.5
		c-1,1-1.5,2.3-1.5,3.8C87.9,327.4,88.4,328.7,89.3,329.7z"/>
	<path class="st1" d="M131.3,337.7c-3.2,0-5.9-0.7-8-2.1c-2.1-1.4-3.7-3.3-4.6-5.7l6.2-3.6c1.3,2.9,3.5,4.4,6.6,4.4
		c2.8,0,4.3-0.9,4.3-2.6c0-0.9-0.5-1.7-1.4-2.2c-0.9-0.5-2.6-1.1-5.2-1.8c-1.3-0.4-2.5-0.8-3.5-1.2c-1-0.5-2-1-2.9-1.8
		s-1.7-1.7-2.2-2.8c-0.5-1.1-0.7-2.4-0.7-3.8c0-2.9,1-5.2,3.1-7c2.1-1.7,4.6-2.6,7.4-2.6c2.6,0,4.9,0.6,6.8,1.8s3.5,3,4.7,5.3
		l-6.1,3.6c-0.6-1.2-1.3-2.1-2.1-2.7c-0.8-0.6-2-0.9-3.3-0.9c-1.1,0-1.9,0.2-2.5,0.7s-0.9,1-0.9,1.7c0,0.8,0.4,1.5,1.1,2
		c0.7,0.6,2.3,1.2,4.6,1.9c1.3,0.4,2.2,0.7,2.9,0.9c0.7,0.2,1.6,0.6,2.6,1.2c1.1,0.6,1.9,1.1,2.4,1.8c0.6,0.6,1,1.4,1.5,2.4
		c0.4,1,0.7,2.2,0.7,3.4c0,3-1.1,5.4-3.2,7.1C137.6,336.9,134.8,337.7,131.3,337.7z"/>
	<path class="st1" d="M159.5,314c2.4,0,4.4,0.8,6,2.5c1.6,1.7,2.4,3.9,2.4,6.8v13.8h-6.8v-12.8c0-1.3-0.4-2.3-1.1-3
		c-0.7-0.7-1.7-1.1-2.8-1.1c-1.3,0-2.3,0.4-3.1,1.2c-0.8,0.8-1.1,1.9-1.1,3.5v12.3h-6.8v-31.5h6.8v11.1
		C154.5,314.9,156.6,314,159.5,314z"/>
	<path class="st1" d="M191.9,334.3c-2.3,2.3-5.1,3.4-8.5,3.4s-6.1-1.1-8.5-3.4c-2.3-2.3-3.5-5.1-3.5-8.4s1.2-6.1,3.5-8.4
		c2.3-2.3,5.1-3.4,8.5-3.4s6.1,1.1,8.5,3.4c2.3,2.3,3.5,5.1,3.5,8.4S194.2,332,191.9,334.3z M179.7,329.7c1,1,2.2,1.5,3.7,1.5
		c1.5,0,2.7-0.5,3.7-1.5c1-1,1.5-2.3,1.5-3.8c0-1.6-0.5-2.8-1.5-3.8c-1-1-2.2-1.5-3.7-1.5c-1.5,0-2.7,0.5-3.7,1.5
		c-1,1-1.5,2.3-1.5,3.8C178.2,327.4,178.7,328.7,179.7,329.7z"/>
	<path class="st1" d="M212.6,314c3,0,5.5,1.1,7.6,3.4c2.1,2.3,3.1,5.1,3.1,8.4s-1.1,6.1-3.1,8.4c-2.1,2.3-4.6,3.4-7.6,3.4
		c-2.9,0-5.1-0.9-6.7-2.7v11.1h-6.8v-31.5h6.8v2.1C207.5,314.9,209.7,314,212.6,314z M207.4,329.9c1,1,2.3,1.5,3.8,1.5
		c1.6,0,2.8-0.5,3.8-1.5c1-1,1.5-2.3,1.5-4c0-1.7-0.5-3-1.5-4c-1-1-2.3-1.5-3.8-1.5c-1.6,0-2.8,0.5-3.8,1.5c-1,1-1.5,2.3-1.5,4
		C205.9,327.5,206.4,328.9,207.4,329.9z"/>
</g>
<g>
	<path class="st1" d="M72.3,423.4c-1.1,0-2.2-0.2-3.1-0.5c-1-0.4-1.8-0.9-2.5-1.6c-0.7-0.7-1.3-1.6-1.7-2.6c-0.4-1-0.6-2.2-0.6-3.6
		c0-1.4,0.2-2.6,0.6-3.6s1-2,1.7-2.7c0.7-0.7,1.6-1.3,2.5-1.7c1-0.4,2-0.6,3.1-0.6c1.2,0,2.2,0.2,3,0.6c0.9,0.4,1.5,0.9,2.1,1.5
		l-1.9,2.3c-0.4-0.4-0.9-0.7-1.3-0.9c-0.5-0.3-1.1-0.4-1.8-0.4c-0.6,0-1.2,0.1-1.7,0.4c-0.5,0.2-1,0.6-1.4,1c-0.4,0.5-0.7,1-0.9,1.7
		s-0.3,1.4-0.3,2.2c0,1.7,0.4,3,1.1,3.9c0.8,0.9,1.9,1.4,3.4,1.4c0.3,0,0.7,0,1-0.1c0.3-0.1,0.6-0.2,0.8-0.4v-2.8h-2.7v-3h6v7.5
		c-0.6,0.5-1.3,1-2.3,1.4C74.5,423.2,73.5,423.4,72.3,423.4z"/>
	<path class="st1" d="M86.3,423.4c-0.9,0-1.7-0.1-2.5-0.4c-0.8-0.3-1.4-0.7-2-1.3c-0.6-0.6-1-1.2-1.3-2c-0.3-0.8-0.5-1.7-0.5-2.8
		c0-1,0.2-1.9,0.5-2.7s0.8-1.5,1.3-2.1c0.5-0.6,1.2-1,1.9-1.3c0.7-0.3,1.4-0.5,2.2-0.5c0.9,0,1.7,0.2,2.3,0.5
		c0.7,0.3,1.2,0.7,1.6,1.3c0.4,0.5,0.8,1.2,1,1.9c0.2,0.7,0.3,1.5,0.3,2.4c0,0.3,0,0.7,0,1c0,0.3-0.1,0.5-0.1,0.7h-7.4
		c0.2,0.9,0.5,1.6,1.1,2s1.3,0.6,2.1,0.6c0.9,0,1.8-0.3,2.7-0.8l1.2,2.2c-0.6,0.4-1.3,0.8-2.1,1S87.1,423.4,86.3,423.4z M83.6,415.5
		h4.5c0-0.7-0.2-1.3-0.5-1.7s-0.8-0.7-1.6-0.7c-0.6,0-1.1,0.2-1.5,0.6C84,414.1,83.7,414.7,83.6,415.5z"/>
	<path class="st1" d="M98.3,423.4c-0.8,0-1.4-0.1-2-0.3c-0.5-0.2-1-0.6-1.3-1c-0.3-0.4-0.6-0.9-0.8-1.5s-0.2-1.2-0.2-2v-5h-1.7v-2.7
		l1.9-0.2l0.4-3.3h3v3.3h3v2.9h-3v5c0,0.7,0.1,1.2,0.4,1.5s0.7,0.5,1.2,0.5c0.2,0,0.4,0,0.6-0.1c0.2,0,0.4-0.1,0.6-0.2l0.6,2.7
		c-0.3,0.1-0.7,0.2-1.2,0.3C99.4,423.3,98.9,423.4,98.3,423.4z"/>
	<path class="st1" d="M112.1,423.4c-1.3,0-2.3-0.2-3.1-0.7c-0.8-0.5-1.5-1.2-2.1-2.2l2.5-1.8c0.3,0.5,0.6,1,1.1,1.2
		c0.4,0.3,0.8,0.4,1.2,0.4c0.7,0,1.2-0.2,1.5-0.6c0.3-0.4,0.5-1.2,0.5-2.2v-10.6h3.7v10.9c0,0.8-0.1,1.5-0.3,2.2
		c-0.2,0.7-0.5,1.3-1,1.8c-0.4,0.5-1,0.9-1.6,1.2C113.8,423.2,113,423.4,112.1,423.4z"/>
	<path class="st1" d="M123.9,423.4c-0.6,0-1.1-0.1-1.5-0.3s-0.8-0.5-1.2-0.8s-0.6-0.7-0.7-1.2c-0.2-0.5-0.3-0.9-0.3-1.5
		c0-1.3,0.6-2.3,1.7-3c1.1-0.7,2.9-1.2,5.3-1.5c0-0.6-0.2-1-0.5-1.3c-0.3-0.3-0.8-0.5-1.5-0.5c-0.5,0-1.1,0.1-1.6,0.3
		c-0.5,0.2-1.1,0.5-1.7,0.8l-1.3-2.4c0.8-0.5,1.6-0.9,2.5-1.2s1.8-0.5,2.8-0.5c1.6,0,2.8,0.5,3.7,1.4c0.8,0.9,1.3,2.3,1.3,4.2v7.1
		h-3l-0.3-1.3h-0.1c-0.5,0.5-1.1,0.8-1.7,1.1C125.2,423.2,124.6,423.4,123.9,423.4z M125.2,420.5c0.4,0,0.8-0.1,1.1-0.3
		c0.3-0.2,0.6-0.4,0.9-0.8v-2.2c-1.3,0.2-2.2,0.5-2.7,0.8c-0.5,0.3-0.8,0.8-0.8,1.3c0,0.4,0.1,0.7,0.4,0.9
		C124.4,420.4,124.7,420.5,125.2,420.5z"/>
	<path class="st1" d="M134,423.1v-12.4h3l0.3,2.2h0.1c0.4-0.9,1-1.5,1.6-1.9c0.6-0.4,1.3-0.6,1.9-0.6c0.4,0,0.6,0,0.9,0.1
		c0.2,0,0.4,0.1,0.6,0.2l-0.6,3.2c-0.2-0.1-0.5-0.1-0.6-0.1c-0.2,0-0.4,0-0.7,0c-0.5,0-1,0.2-1.5,0.5c-0.5,0.3-0.9,0.9-1.3,1.8v7.2
		H134z"/>
	<path class="st1" d="M146.3,423.4c-0.6,0-1.1-0.1-1.5-0.3s-0.8-0.5-1.2-0.8s-0.6-0.7-0.7-1.2c-0.2-0.5-0.3-0.9-0.3-1.5
		c0-1.3,0.6-2.3,1.7-3c1.1-0.7,2.9-1.2,5.3-1.5c0-0.6-0.2-1-0.5-1.3c-0.3-0.3-0.8-0.5-1.5-0.5c-0.5,0-1.1,0.1-1.6,0.3
		c-0.5,0.2-1.1,0.5-1.7,0.8l-1.3-2.4c0.8-0.5,1.6-0.9,2.5-1.2s1.8-0.5,2.8-0.5c1.6,0,2.8,0.5,3.7,1.4c0.8,0.9,1.3,2.3,1.3,4.2v7.1
		h-3l-0.3-1.3h-0.1c-0.5,0.5-1.1,0.8-1.7,1.1C147.7,423.2,147,423.4,146.3,423.4z M147.6,420.5c0.4,0,0.8-0.1,1.1-0.3
		c0.3-0.2,0.6-0.4,0.9-0.8v-2.2c-1.3,0.2-2.2,0.5-2.7,0.8c-0.5,0.3-0.8,0.8-0.8,1.3c0,0.4,0.1,0.7,0.4,0.9
		C146.8,420.4,147.1,420.5,147.6,420.5z"/>
	<path class="st1" d="M161.4,423.1v-12.4h3l0.3,2.2h0.1c0.4-0.9,1-1.5,1.6-1.9c0.6-0.4,1.3-0.6,1.9-0.6c0.4,0,0.6,0,0.9,0.1
		c0.2,0,0.4,0.1,0.6,0.2l-0.6,3.2c-0.2-0.1-0.5-0.1-0.6-0.1c-0.2,0-0.4,0-0.7,0c-0.5,0-1,0.2-1.5,0.5c-0.5,0.3-0.9,0.9-1.3,1.8v7.2
		H161.4z"/>
	<path class="st1" d="M176.6,423.4c-0.9,0-1.7-0.1-2.5-0.4c-0.8-0.3-1.4-0.7-2-1.3c-0.6-0.6-1-1.2-1.3-2c-0.3-0.8-0.5-1.7-0.5-2.8
		c0-1,0.2-1.9,0.5-2.7s0.8-1.5,1.3-2.1c0.5-0.6,1.2-1,1.9-1.3c0.7-0.3,1.4-0.5,2.2-0.5c0.9,0,1.7,0.2,2.3,0.5
		c0.7,0.3,1.2,0.7,1.6,1.3c0.4,0.5,0.8,1.2,1,1.9c0.2,0.7,0.3,1.5,0.3,2.4c0,0.3,0,0.7,0,1c0,0.3-0.1,0.5-0.1,0.7h-7.4
		c0.2,0.9,0.5,1.6,1.1,2s1.3,0.6,2.1,0.6c0.9,0,1.8-0.3,2.7-0.8l1.2,2.2c-0.6,0.4-1.3,0.8-2.1,1S177.4,423.4,176.6,423.4z
		 M173.9,415.5h4.5c0-0.7-0.2-1.3-0.5-1.7s-0.8-0.7-1.6-0.7c-0.6,0-1.1,0.2-1.5,0.6C174.3,414.1,174,414.7,173.9,415.5z"/>
	<path class="st1" d="M186,423.1l-3.1-12.4h3.6l1.2,5.8c0.1,0.6,0.2,1.2,0.3,1.8c0.1,0.6,0.2,1.2,0.3,1.9h0.1
		c0.1-0.6,0.2-1.3,0.3-1.9c0.1-0.6,0.2-1.2,0.4-1.8l1.4-5.8h3.2l1.4,5.8c0.1,0.6,0.3,1.2,0.4,1.8c0.1,0.6,0.2,1.2,0.4,1.9h0.1
		c0.1-0.6,0.2-1.3,0.3-1.9c0.1-0.6,0.2-1.2,0.3-1.8l1.2-5.8h3.4l-3,12.4h-4.3l-1.1-5c-0.1-0.6-0.3-1.2-0.4-1.8
		c-0.1-0.6-0.2-1.2-0.3-1.9h-0.1c-0.1,0.7-0.2,1.3-0.3,1.9c-0.1,0.6-0.2,1.2-0.3,1.8l-1.1,5H186z"/>
	<path class="st1" d="M206.2,423.4c-0.6,0-1.1-0.1-1.5-0.3s-0.8-0.5-1.2-0.8s-0.6-0.7-0.7-1.2c-0.2-0.5-0.3-0.9-0.3-1.5
		c0-1.3,0.6-2.3,1.7-3c1.1-0.7,2.9-1.2,5.3-1.5c0-0.6-0.2-1-0.5-1.3c-0.3-0.3-0.8-0.5-1.5-0.5c-0.5,0-1.1,0.1-1.6,0.3
		c-0.5,0.2-1.1,0.5-1.7,0.8l-1.3-2.4c0.8-0.5,1.6-0.9,2.5-1.2s1.8-0.5,2.8-0.5c1.6,0,2.8,0.5,3.7,1.4c0.8,0.9,1.3,2.3,1.3,4.2v7.1
		h-3l-0.3-1.3h-0.1c-0.5,0.5-1.1,0.8-1.7,1.1C207.5,423.2,206.9,423.4,206.2,423.4z M207.4,420.5c0.4,0,0.8-0.1,1.1-0.3
		c0.3-0.2,0.6-0.4,0.9-0.8v-2.2c-1.3,0.2-2.2,0.5-2.7,0.8c-0.5,0.3-0.8,0.8-0.8,1.3c0,0.4,0.1,0.7,0.4,0.9
		C206.6,420.4,207,420.5,207.4,420.5z"/>
	<path class="st1" d="M216.2,423.1v-12.4h3l0.3,2.2h0.1c0.4-0.9,1-1.5,1.6-1.9c0.6-0.4,1.3-0.6,1.9-0.6c0.4,0,0.6,0,0.9,0.1
		c0.2,0,0.4,0.1,0.6,0.2l-0.6,3.2c-0.2-0.1-0.5-0.1-0.6-0.1c-0.2,0-0.4,0-0.7,0c-0.5,0-1,0.2-1.5,0.5c-0.5,0.3-0.9,0.9-1.3,1.8v7.2
		H216.2z"/>
	<path class="st1" d="M230.3,423.4c-0.8,0-1.5-0.1-2.1-0.5c-0.6-0.3-1.2-0.7-1.6-1.3s-0.8-1.2-1-2c-0.2-0.8-0.4-1.7-0.4-2.7
		s0.1-1.9,0.4-2.7c0.3-0.8,0.7-1.5,1.1-2c0.5-0.6,1-1,1.6-1.3s1.3-0.5,1.9-0.5c0.7,0,1.3,0.1,1.7,0.4c0.4,0.2,0.9,0.5,1.3,0.9
		l-0.1-1.9v-4.2h3.7v17.5h-3l-0.3-1.2h-0.1c-0.4,0.4-0.9,0.8-1.5,1.1C231.5,423.2,230.9,423.4,230.3,423.4z M231.3,420.4
		c0.4,0,0.8-0.1,1.1-0.3c0.3-0.2,0.6-0.5,0.9-0.9v-5.1c-0.3-0.3-0.7-0.5-1-0.6c-0.4-0.1-0.7-0.2-1-0.2c-0.6,0-1.1,0.3-1.6,0.8
		c-0.4,0.6-0.7,1.4-0.7,2.6c0,1.2,0.2,2.1,0.6,2.7S230.6,420.4,231.3,420.4z"/>
	<path class="st1" d="M245.2,427.7v-17h3l0.3,1.2h0.1c0.5-0.4,1-0.8,1.6-1.1c0.6-0.3,1.2-0.4,1.9-0.4c0.8,0,1.4,0.2,2,0.5
		s1.1,0.7,1.5,1.3c0.4,0.5,0.7,1.2,1,2c0.2,0.8,0.3,1.6,0.3,2.6c0,1.1-0.1,2-0.4,2.8c-0.3,0.8-0.7,1.5-1.2,2.1c-0.5,0.6-1,1-1.7,1.3
		c-0.6,0.3-1.3,0.5-1.9,0.5c-0.5,0-1-0.1-1.5-0.3c-0.5-0.2-1-0.5-1.4-1l0.1,2v3.6H245.2z M250.9,420.4c0.6,0,1.2-0.3,1.6-0.9
		c0.5-0.6,0.7-1.5,0.7-2.8c0-2.2-0.7-3.4-2.2-3.4c-0.7,0-1.4,0.4-2.1,1.1v5.1c0.3,0.3,0.7,0.5,1,0.6
		C250.2,420.3,250.6,420.4,250.9,420.4z"/>
	<path class="st1" d="M264.9,423.4c-0.8,0-1.5-0.1-2.3-0.4c-0.7-0.3-1.4-0.7-1.9-1.3c-0.6-0.5-1-1.2-1.3-2s-0.5-1.7-0.5-2.8
		c0-1,0.2-2,0.5-2.8c0.3-0.8,0.8-1.5,1.3-2s1.2-1,1.9-1.3c0.7-0.3,1.5-0.4,2.3-0.4c0.8,0,1.5,0.1,2.3,0.4c0.7,0.3,1.4,0.7,1.9,1.3
		c0.6,0.5,1,1.2,1.3,2c0.3,0.8,0.5,1.7,0.5,2.8c0,1-0.2,2-0.5,2.8c-0.3,0.8-0.8,1.5-1.3,2c-0.6,0.6-1.2,1-1.9,1.3
		C266.4,423.2,265.7,423.4,264.9,423.4z M264.9,420.4c0.8,0,1.3-0.3,1.7-1c0.4-0.6,0.6-1.5,0.6-2.6c0-1.1-0.2-1.9-0.6-2.6
		c-0.4-0.6-0.9-0.9-1.7-0.9c-0.8,0-1.3,0.3-1.7,0.9c-0.4,0.6-0.6,1.5-0.6,2.6c0,1.1,0.2,1.9,0.6,2.6
		C263.5,420.1,264.1,420.4,264.9,420.4z"/>
	<path class="st1" d="M275.3,408.8c-0.6,0-1.1-0.2-1.5-0.5c-0.4-0.4-0.6-0.8-0.6-1.4c0-0.6,0.2-1,0.6-1.4c0.4-0.3,0.9-0.5,1.5-0.5
		c0.6,0,1.1,0.2,1.5,0.5c0.4,0.4,0.6,0.8,0.6,1.4c0,0.6-0.2,1-0.6,1.4S275.9,408.8,275.3,408.8z M273.4,423.1v-12.4h3.7v12.4H273.4z
		"/>
	<path class="st1" d="M280.3,423.1v-12.4h3l0.3,1.6h0.1c0.5-0.5,1.1-0.9,1.8-1.3c0.6-0.4,1.4-0.6,2.2-0.6c1.3,0,2.3,0.4,2.9,1.3
		c0.6,0.9,0.9,2.1,0.9,3.7v7.7h-3.7v-7.2c0-0.9-0.1-1.5-0.4-1.9c-0.2-0.3-0.6-0.5-1.2-0.5c-0.5,0-0.9,0.1-1.2,0.3
		c-0.3,0.2-0.7,0.5-1.1,0.9v8.4H280.3z"/>
	<path class="st1" d="M299.4,423.4c-0.8,0-1.4-0.1-2-0.3c-0.5-0.2-1-0.6-1.3-1c-0.3-0.4-0.6-0.9-0.8-1.5s-0.2-1.2-0.2-2v-5h-1.7
		v-2.7l1.9-0.2l0.4-3.3h3v3.3h3v2.9h-3v5c0,0.7,0.1,1.2,0.4,1.5s0.7,0.5,1.2,0.5c0.2,0,0.4,0,0.6-0.1c0.2,0,0.4-0.1,0.6-0.2l0.6,2.7
		c-0.3,0.1-0.7,0.2-1.2,0.3C300.5,423.3,300,423.4,299.4,423.4z"/>
	<path class="st1" d="M307.6,423.4c-0.8,0-1.7-0.2-2.5-0.5c-0.9-0.3-1.6-0.7-2.2-1.3l1.6-2.3c0.6,0.4,1.1,0.8,1.6,1s1,0.3,1.6,0.3
		c0.5,0,1-0.1,1.2-0.3c0.3-0.2,0.4-0.4,0.4-0.8c0-0.2-0.1-0.4-0.2-0.5c-0.1-0.2-0.3-0.3-0.6-0.4c-0.2-0.1-0.5-0.3-0.8-0.4
		c-0.3-0.1-0.6-0.2-0.9-0.4c-0.4-0.2-0.8-0.3-1.1-0.5s-0.7-0.4-1-0.7c-0.3-0.3-0.6-0.6-0.8-1c-0.2-0.4-0.3-0.8-0.3-1.4
		c0-0.6,0.1-1.1,0.3-1.6c0.2-0.5,0.5-0.9,1-1.2c0.4-0.3,0.9-0.6,1.5-0.8c0.6-0.2,1.2-0.3,1.9-0.3c1,0,1.8,0.2,2.5,0.5
		c0.7,0.3,1.3,0.7,1.9,1.1l-1.6,2.2c-0.5-0.3-0.9-0.6-1.3-0.8c-0.4-0.2-0.9-0.3-1.3-0.3c-0.9,0-1.4,0.3-1.4,1c0,0.2,0.1,0.4,0.2,0.5
		s0.3,0.3,0.5,0.4c0.2,0.1,0.5,0.2,0.8,0.3s0.6,0.2,0.9,0.3c0.4,0.1,0.8,0.3,1.2,0.5s0.8,0.4,1.1,0.7c0.3,0.3,0.6,0.6,0.8,1
		c0.2,0.4,0.3,0.9,0.3,1.5c0,0.6-0.1,1.1-0.3,1.6s-0.5,0.9-1,1.3c-0.4,0.4-1,0.6-1.6,0.8C309.2,423.3,308.4,423.4,307.6,423.4z"/>
	<path class="st1" d="M321.9,408.8c-0.6,0-1.1-0.2-1.5-0.5c-0.4-0.4-0.6-0.8-0.6-1.4c0-0.6,0.2-1,0.6-1.4c0.4-0.3,0.9-0.5,1.5-0.5
		c0.6,0,1.1,0.2,1.5,0.5c0.4,0.4,0.6,0.8,0.6,1.4c0,0.6-0.2,1-0.6,1.4S322.5,408.8,321.9,408.8z M320,423.1v-12.4h3.7v12.4H320z"/>
	<path class="st1" d="M326.9,423.1v-12.4h3l0.3,1.6h0.1c0.5-0.5,1.1-0.9,1.8-1.3c0.6-0.4,1.4-0.6,2.2-0.6c1.3,0,2.3,0.4,2.9,1.3
		c0.6,0.9,0.9,2.1,0.9,3.7v7.7h-3.7v-7.2c0-0.9-0.1-1.5-0.4-1.9c-0.2-0.3-0.6-0.5-1.2-0.5c-0.5,0-0.9,0.1-1.2,0.3
		c-0.3,0.2-0.7,0.5-1.1,0.9v8.4H326.9z"/>
	<path class="st1" d="M347.6,427.9c-0.4,0-0.7,0-1-0.1c-0.3,0-0.5-0.1-0.8-0.2l0.6-2.8c0.1,0,0.3,0.1,0.4,0.1c0.2,0,0.3,0,0.4,0
		c0.6,0,1.1-0.2,1.4-0.5s0.6-0.7,0.8-1.2l0.2-0.7l-4.8-12.1h3.7l1.8,5.3c0.2,0.6,0.4,1.1,0.5,1.7c0.1,0.6,0.3,1.2,0.5,1.8h0.1
		c0.1-0.6,0.3-1.2,0.4-1.8c0.1-0.6,0.3-1.2,0.4-1.8l1.5-5.3h3.5l-4.3,12.5c-0.3,0.8-0.6,1.5-0.9,2.1c-0.3,0.6-0.7,1.1-1.1,1.5
		c-0.4,0.4-0.9,0.7-1.4,0.9C349,427.8,348.3,427.9,347.6,427.9z"/>
	<path class="st1" d="M364.4,423.4c-0.8,0-1.5-0.1-2.3-0.4c-0.7-0.3-1.4-0.7-1.9-1.3c-0.6-0.5-1-1.2-1.3-2s-0.5-1.7-0.5-2.8
		c0-1,0.2-2,0.5-2.8c0.3-0.8,0.8-1.5,1.3-2s1.2-1,1.9-1.3c0.7-0.3,1.5-0.4,2.3-0.4c0.8,0,1.5,0.1,2.3,0.4c0.7,0.3,1.4,0.7,1.9,1.3
		c0.6,0.5,1,1.2,1.3,2c0.3,0.8,0.5,1.7,0.5,2.8c0,1-0.2,2-0.5,2.8c-0.3,0.8-0.8,1.5-1.3,2c-0.6,0.6-1.2,1-1.9,1.3
		C365.9,423.2,365.2,423.4,364.4,423.4z M364.4,420.4c0.8,0,1.3-0.3,1.7-1c0.4-0.6,0.6-1.5,0.6-2.6c0-1.1-0.2-1.9-0.6-2.6
		c-0.4-0.6-0.9-0.9-1.7-0.9c-0.8,0-1.3,0.3-1.7,0.9c-0.4,0.6-0.6,1.5-0.6,2.6c0,1.1,0.2,1.9,0.6,2.6
		C363,420.1,363.6,420.4,364.4,420.4z"/>
	<path class="st1" d="M376.6,423.4c-1.4,0-2.3-0.4-2.9-1.3c-0.6-0.9-0.9-2.1-0.9-3.7v-7.7h3.7v7.2c0,0.9,0.1,1.5,0.4,1.8
		c0.3,0.3,0.6,0.5,1.2,0.5c0.5,0,0.9-0.1,1.2-0.3c0.3-0.2,0.7-0.6,1-1v-8.2h3.7v12.4h-3l-0.3-1.7h-0.1c-0.5,0.6-1.1,1.1-1.7,1.5
		C378.2,423.2,377.5,423.4,376.6,423.4z"/>
	<path class="st1" d="M387.1,423.1v-12.4h3l0.3,2.2h0.1c0.4-0.9,1-1.5,1.6-1.9c0.6-0.4,1.3-0.6,1.9-0.6c0.4,0,0.6,0,0.9,0.1
		c0.2,0,0.4,0.1,0.6,0.2l-0.6,3.2c-0.2-0.1-0.5-0.1-0.6-0.1c-0.2,0-0.4,0-0.7,0c-0.5,0-1,0.2-1.5,0.5c-0.5,0.3-0.9,0.9-1.3,1.8v7.2
		H387.1z"/>
	<path class="st1" d="M66.9,453.1l-3.1-12.4h3.6l1.2,5.8c0.1,0.6,0.2,1.2,0.3,1.8c0.1,0.6,0.2,1.2,0.3,1.9h0.1
		c0.1-0.6,0.2-1.3,0.3-1.9c0.1-0.6,0.2-1.2,0.4-1.8l1.4-5.8h3.2l1.4,5.8c0.1,0.6,0.3,1.2,0.4,1.8c0.1,0.6,0.2,1.2,0.4,1.9h0.1
		c0.1-0.6,0.2-1.3,0.3-1.9c0.1-0.6,0.2-1.2,0.3-1.8l1.2-5.8H82l-3,12.4h-4.3l-1.1-5c-0.1-0.6-0.3-1.2-0.4-1.8
		c-0.1-0.6-0.2-1.2-0.3-1.9h-0.1c-0.1,0.7-0.2,1.3-0.3,1.9c-0.1,0.6-0.2,1.2-0.3,1.8l-1.1,5H66.9z"/>
	<path class="st1" d="M87.1,453.4c-0.6,0-1.1-0.1-1.5-0.3s-0.8-0.5-1.2-0.8s-0.6-0.7-0.7-1.2c-0.2-0.5-0.3-0.9-0.3-1.5
		c0-1.3,0.6-2.3,1.7-3c1.1-0.7,2.9-1.2,5.3-1.5c0-0.6-0.2-1-0.5-1.3c-0.3-0.3-0.8-0.5-1.5-0.5c-0.5,0-1.1,0.1-1.6,0.3
		c-0.5,0.2-1.1,0.5-1.7,0.8l-1.3-2.4c0.8-0.5,1.6-0.9,2.5-1.2s1.8-0.5,2.8-0.5c1.6,0,2.8,0.5,3.7,1.4c0.8,0.9,1.3,2.3,1.3,4.2v7.1
		h-3l-0.3-1.3h-0.1c-0.5,0.5-1.1,0.8-1.7,1.1C88.4,453.2,87.8,453.4,87.1,453.4z M88.4,450.5c0.4,0,0.8-0.1,1.1-0.3
		c0.3-0.2,0.6-0.4,0.9-0.8v-2.2c-1.3,0.2-2.2,0.5-2.7,0.8c-0.5,0.3-0.8,0.8-0.8,1.3c0,0.4,0.1,0.7,0.4,0.9
		C87.6,450.4,87.9,450.5,88.4,450.5z"/>
	<path class="st1" d="M100.5,453.4c-0.6,0-1.2-0.1-1.6-0.3c-0.4-0.2-0.8-0.5-1-0.8c-0.3-0.4-0.4-0.8-0.6-1.3
		c-0.1-0.5-0.2-1.1-0.2-1.7v-13.7h3.7v13.8c0,0.4,0.1,0.7,0.2,0.8c0.1,0.2,0.3,0.2,0.4,0.2c0.1,0,0.2,0,0.2,0c0.1,0,0.1,0,0.2,0
		l0.5,2.7c-0.2,0.1-0.5,0.2-0.8,0.2C101.3,453.3,100.9,453.4,100.5,453.4z"/>
	<path class="st1" d="M107.7,453.4c-0.6,0-1.2-0.1-1.6-0.3c-0.4-0.2-0.8-0.5-1-0.8c-0.3-0.4-0.4-0.8-0.6-1.3
		c-0.1-0.5-0.2-1.1-0.2-1.7v-13.7h3.7v13.8c0,0.4,0.1,0.7,0.2,0.8c0.1,0.2,0.3,0.2,0.4,0.2c0.1,0,0.2,0,0.2,0c0.1,0,0.1,0,0.2,0
		l0.5,2.7c-0.2,0.1-0.5,0.2-0.8,0.2C108.5,453.3,108.1,453.4,107.7,453.4z"/>
	<path class="st1" d="M117,453.4c-0.9,0-1.7-0.1-2.5-0.4c-0.8-0.3-1.4-0.7-2-1.3c-0.6-0.6-1-1.2-1.3-2c-0.3-0.8-0.5-1.7-0.5-2.8
		c0-1,0.2-1.9,0.5-2.7s0.8-1.5,1.3-2.1c0.5-0.6,1.2-1,1.9-1.3c0.7-0.3,1.4-0.5,2.2-0.5c0.9,0,1.7,0.2,2.3,0.5
		c0.7,0.3,1.2,0.7,1.6,1.3c0.4,0.5,0.8,1.2,1,1.9c0.2,0.7,0.3,1.5,0.3,2.4c0,0.3,0,0.7,0,1c0,0.3-0.1,0.5-0.1,0.7h-7.4
		c0.2,0.9,0.5,1.6,1.1,2s1.3,0.6,2.1,0.6c0.9,0,1.8-0.3,2.7-0.8l1.2,2.2c-0.6,0.4-1.3,0.8-2.1,1S117.8,453.4,117,453.4z
		 M114.3,445.5h4.5c0-0.7-0.2-1.3-0.5-1.7s-0.8-0.7-1.6-0.7c-0.6,0-1.1,0.2-1.5,0.6C114.7,444.1,114.4,444.7,114.3,445.5z"/>
	<path class="st1" d="M128.9,453.4c-0.8,0-1.4-0.1-2-0.3c-0.5-0.2-1-0.6-1.3-1c-0.3-0.4-0.6-0.9-0.8-1.5s-0.2-1.2-0.2-2v-5H123v-2.7
		l1.9-0.2l0.4-3.3h3v3.3h3v2.9h-3v5c0,0.7,0.1,1.2,0.4,1.5s0.7,0.5,1.2,0.5c0.2,0,0.4,0,0.6-0.1c0.2,0,0.4-0.1,0.6-0.2l0.6,2.7
		c-0.3,0.1-0.7,0.2-1.2,0.3C130.1,453.3,129.5,453.4,128.9,453.4z"/>
	<path class="st1" d="M140.8,453.1l-3.1-12.4h3.6l1.2,5.8c0.1,0.6,0.2,1.2,0.3,1.8c0.1,0.6,0.2,1.2,0.3,1.9h0.1
		c0.1-0.6,0.2-1.3,0.3-1.9c0.1-0.6,0.2-1.2,0.4-1.8l1.4-5.8h3.2l1.4,5.8c0.1,0.6,0.3,1.2,0.4,1.8c0.1,0.6,0.2,1.2,0.4,1.9h0.1
		c0.1-0.6,0.2-1.3,0.3-1.9c0.1-0.6,0.2-1.2,0.3-1.8l1.2-5.8h3.4l-3,12.4h-4.3l-1.1-5c-0.1-0.6-0.3-1.2-0.4-1.8
		c-0.1-0.6-0.2-1.2-0.3-1.9h-0.1c-0.1,0.7-0.2,1.3-0.3,1.9c-0.1,0.6-0.2,1.2-0.3,1.8l-1.1,5H140.8z"/>
	<path class="st1" d="M158.1,453.1v-17.5h3.7v4.3l-0.2,2.2c0.5-0.4,1-0.8,1.6-1.2c0.6-0.4,1.4-0.5,2.2-0.5c1.3,0,2.3,0.4,2.9,1.3
		c0.6,0.9,0.9,2.1,0.9,3.7v7.7h-3.7v-7.2c0-0.9-0.1-1.5-0.4-1.9c-0.2-0.3-0.6-0.5-1.2-0.5c-0.5,0-0.9,0.1-1.2,0.3
		c-0.3,0.2-0.7,0.5-1.1,0.9v8.4H158.1z"/>
	<path class="st1" d="M178,453.4c-0.9,0-1.7-0.1-2.5-0.4c-0.8-0.3-1.4-0.7-2-1.3c-0.6-0.6-1-1.2-1.3-2c-0.3-0.8-0.5-1.7-0.5-2.8
		c0-1,0.2-1.9,0.5-2.7s0.8-1.5,1.3-2.1c0.5-0.6,1.2-1,1.9-1.3c0.7-0.3,1.4-0.5,2.2-0.5c0.9,0,1.7,0.2,2.3,0.5
		c0.7,0.3,1.2,0.7,1.6,1.3c0.4,0.5,0.8,1.2,1,1.9c0.2,0.7,0.3,1.5,0.3,2.4c0,0.3,0,0.7,0,1c0,0.3-0.1,0.5-0.1,0.7h-7.4
		c0.2,0.9,0.5,1.6,1.1,2s1.3,0.6,2.1,0.6c0.9,0,1.8-0.3,2.7-0.8l1.2,2.2c-0.6,0.4-1.3,0.8-2.1,1S178.7,453.4,178,453.4z
		 M175.2,445.5h4.5c0-0.7-0.2-1.3-0.5-1.7s-0.8-0.7-1.6-0.7c-0.6,0-1.1,0.2-1.5,0.6C175.6,444.1,175.3,444.7,175.2,445.5z"/>
	<path class="st1" d="M185.4,453.1v-12.4h3l0.3,1.6h0.1c0.5-0.5,1.1-0.9,1.8-1.3c0.6-0.4,1.4-0.6,2.2-0.6c1.3,0,2.3,0.4,2.9,1.3
		c0.6,0.9,0.9,2.1,0.9,3.7v7.7h-3.7v-7.2c0-0.9-0.1-1.5-0.4-1.9c-0.2-0.3-0.6-0.5-1.2-0.5c-0.5,0-0.9,0.1-1.2,0.3
		c-0.3,0.2-0.7,0.5-1.1,0.9v8.4H185.4z"/>
	<path class="st1" d="M206,457.9c-0.4,0-0.7,0-1-0.1c-0.3,0-0.5-0.1-0.8-0.2l0.6-2.8c0.1,0,0.3,0.1,0.4,0.1c0.2,0,0.3,0,0.4,0
		c0.6,0,1.1-0.2,1.4-0.5s0.6-0.7,0.8-1.2l0.2-0.7l-4.8-12.1h3.7l1.8,5.3c0.2,0.6,0.4,1.1,0.5,1.7c0.1,0.6,0.3,1.2,0.5,1.8h0.1
		c0.1-0.6,0.3-1.2,0.4-1.8c0.1-0.6,0.3-1.2,0.4-1.8l1.5-5.3h3.5l-4.3,12.5c-0.3,0.8-0.6,1.5-0.9,2.1c-0.3,0.6-0.7,1.1-1.1,1.5
		c-0.4,0.4-0.9,0.7-1.4,0.9C207.4,457.8,206.8,457.9,206,457.9z"/>
	<path class="st1" d="M222.8,453.4c-0.8,0-1.5-0.1-2.3-0.4c-0.7-0.3-1.4-0.7-1.9-1.3c-0.6-0.5-1-1.2-1.3-2s-0.5-1.7-0.5-2.8
		c0-1,0.2-2,0.5-2.8c0.3-0.8,0.8-1.5,1.3-2s1.2-1,1.9-1.3c0.7-0.3,1.5-0.4,2.3-0.4c0.8,0,1.5,0.1,2.3,0.4c0.7,0.3,1.4,0.7,1.9,1.3
		c0.6,0.5,1,1.2,1.3,2c0.3,0.8,0.5,1.7,0.5,2.8c0,1-0.2,2-0.5,2.8c-0.3,0.8-0.8,1.5-1.3,2c-0.6,0.6-1.2,1-1.9,1.3
		C224.3,453.2,223.6,453.4,222.8,453.4z M222.8,450.4c0.8,0,1.3-0.3,1.7-1c0.4-0.6,0.6-1.5,0.6-2.6c0-1.1-0.2-1.9-0.6-2.6
		c-0.4-0.6-0.9-0.9-1.7-0.9c-0.8,0-1.3,0.3-1.7,0.9c-0.4,0.6-0.6,1.5-0.6,2.6c0,1.1,0.2,1.9,0.6,2.6
		C221.5,450.1,222,450.4,222.8,450.4z"/>
	<path class="st1" d="M235.1,453.4c-1.4,0-2.3-0.4-2.9-1.3c-0.6-0.9-0.9-2.1-0.9-3.7v-7.7h3.7v7.2c0,0.9,0.1,1.5,0.4,1.8
		c0.3,0.3,0.6,0.5,1.2,0.5c0.5,0,0.9-0.1,1.2-0.3c0.3-0.2,0.7-0.6,1-1v-8.2h3.7v12.4h-3l-0.3-1.7H239c-0.5,0.6-1.1,1.1-1.7,1.5
		C236.7,453.2,235.9,453.4,235.1,453.4z"/>
	<path class="st1" d="M250.6,453.1v-12.4h3l0.3,1.6h0.1c0.5-0.5,1.1-1,1.6-1.3c0.6-0.4,1.3-0.6,2.1-0.6c0.9,0,1.6,0.2,2.1,0.5
		s1,0.9,1.3,1.5c0.6-0.6,1.1-1.1,1.7-1.5c0.6-0.4,1.3-0.6,2.2-0.6c1.3,0,2.3,0.4,2.9,1.3s0.9,2.1,0.9,3.7v7.7h-3.7v-7.2
		c0-0.9-0.1-1.5-0.4-1.9c-0.2-0.3-0.6-0.5-1.2-0.5c-0.6,0-1.3,0.4-2.1,1.2v8.4h-3.7v-7.2c0-0.9-0.1-1.5-0.4-1.9
		c-0.2-0.3-0.6-0.5-1.2-0.5c-0.6,0-1.3,0.4-2.1,1.2v8.4H250.6z"/>
	<path class="st1" d="M275.1,453.4c-0.6,0-1.1-0.1-1.5-0.3s-0.8-0.5-1.2-0.8s-0.6-0.7-0.7-1.2c-0.2-0.5-0.3-0.9-0.3-1.5
		c0-1.3,0.6-2.3,1.7-3c1.1-0.7,2.9-1.2,5.3-1.5c0-0.6-0.2-1-0.5-1.3c-0.3-0.3-0.8-0.5-1.5-0.5c-0.5,0-1.1,0.1-1.6,0.3
		c-0.5,0.2-1.1,0.5-1.7,0.8l-1.3-2.4c0.8-0.5,1.6-0.9,2.5-1.2s1.8-0.5,2.8-0.5c1.6,0,2.8,0.5,3.7,1.4c0.8,0.9,1.3,2.3,1.3,4.2v7.1
		h-3l-0.3-1.3h-0.1c-0.5,0.5-1.1,0.8-1.7,1.1C276.4,453.2,275.8,453.4,275.1,453.4z M276.4,450.5c0.4,0,0.8-0.1,1.1-0.3
		c0.3-0.2,0.6-0.4,0.9-0.8v-2.2c-1.3,0.2-2.2,0.5-2.7,0.8c-0.5,0.3-0.8,0.8-0.8,1.3c0,0.4,0.1,0.7,0.4,0.9
		C275.6,450.4,275.9,450.5,276.4,450.5z"/>
	<path class="st1" d="M285.2,453.1v-17.5h3.6v10.1h0.1l3.9-4.9h4l-4.4,5.1l4.7,7.3h-4l-2.8-4.8l-1.6,1.8v3H285.2z"/>
	<path class="st1" d="M303.7,453.4c-0.9,0-1.7-0.1-2.5-0.4c-0.8-0.3-1.4-0.7-2-1.3c-0.6-0.6-1-1.2-1.3-2c-0.3-0.8-0.5-1.7-0.5-2.8
		c0-1,0.2-1.9,0.5-2.7s0.8-1.5,1.3-2.1c0.5-0.6,1.2-1,1.9-1.3c0.7-0.3,1.4-0.5,2.2-0.5c0.9,0,1.7,0.2,2.3,0.5
		c0.7,0.3,1.2,0.7,1.6,1.3c0.4,0.5,0.8,1.2,1,1.9c0.2,0.7,0.3,1.5,0.3,2.4c0,0.3,0,0.7,0,1c0,0.3-0.1,0.5-0.1,0.7H301
		c0.2,0.9,0.5,1.6,1.1,2s1.3,0.6,2.1,0.6c0.9,0,1.8-0.3,2.7-0.8l1.2,2.2c-0.6,0.4-1.3,0.8-2.1,1S304.5,453.4,303.7,453.4z
		 M301,445.5h4.5c0-0.7-0.2-1.3-0.5-1.7s-0.8-0.7-1.6-0.7c-0.6,0-1.1,0.2-1.5,0.6C301.4,444.1,301.1,444.7,301,445.5z"/>
	<path class="st1" d="M319.2,453.4c-0.6,0-1.1-0.1-1.5-0.3s-0.8-0.5-1.2-0.8s-0.6-0.7-0.7-1.2c-0.2-0.5-0.3-0.9-0.3-1.5
		c0-1.3,0.6-2.3,1.7-3c1.1-0.7,2.9-1.2,5.3-1.5c0-0.6-0.2-1-0.5-1.3c-0.3-0.3-0.8-0.5-1.5-0.5c-0.5,0-1.1,0.1-1.6,0.3
		c-0.5,0.2-1.1,0.5-1.7,0.8L316,442c0.8-0.5,1.6-0.9,2.5-1.2s1.8-0.5,2.8-0.5c1.6,0,2.8,0.5,3.7,1.4c0.8,0.9,1.3,2.3,1.3,4.2v7.1h-3
		l-0.3-1.3h-0.1c-0.5,0.5-1.1,0.8-1.7,1.1C320.6,453.2,319.9,453.4,319.2,453.4z M320.5,450.5c0.4,0,0.8-0.1,1.1-0.3
		c0.3-0.2,0.6-0.4,0.9-0.8v-2.2c-1.3,0.2-2.2,0.5-2.7,0.8c-0.5,0.3-0.8,0.8-0.8,1.3c0,0.4,0.1,0.7,0.4,0.9
		C319.7,450.4,320,450.5,320.5,450.5z"/>
	<path class="st1" d="M334.3,457.7v-17h3l0.3,1.2h0.1c0.5-0.4,1-0.8,1.6-1.1c0.6-0.3,1.2-0.4,1.9-0.4c0.8,0,1.4,0.2,2,0.5
		s1.1,0.7,1.5,1.3c0.4,0.5,0.7,1.2,1,2c0.2,0.8,0.3,1.6,0.3,2.6c0,1.1-0.1,2-0.4,2.8c-0.3,0.8-0.7,1.5-1.2,2.1c-0.5,0.6-1,1-1.7,1.3
		c-0.6,0.3-1.3,0.5-1.9,0.5c-0.5,0-1-0.1-1.5-0.3c-0.5-0.2-1-0.5-1.4-1l0.1,2v3.6H334.3z M339.9,450.4c0.6,0,1.2-0.3,1.6-0.9
		c0.5-0.6,0.7-1.5,0.7-2.8c0-2.2-0.7-3.4-2.2-3.4c-0.7,0-1.4,0.4-2.1,1.1v5.1c0.3,0.3,0.7,0.5,1,0.6
		C339.3,450.3,339.6,450.4,339.9,450.4z"/>
	<path class="st1" d="M352.3,453.4c-1.4,0-2.3-0.4-2.9-1.3c-0.6-0.9-0.9-2.1-0.9-3.7v-7.7h3.7v7.2c0,0.9,0.1,1.5,0.4,1.8
		c0.3,0.3,0.6,0.5,1.2,0.5c0.5,0,0.9-0.1,1.2-0.3c0.3-0.2,0.7-0.6,1-1v-8.2h3.7v12.4h-3l-0.3-1.7h-0.1c-0.5,0.6-1.1,1.1-1.7,1.5
		C353.9,453.2,353.2,453.4,352.3,453.4z"/>
	<path class="st1" d="M362.8,453.1v-12.4h3l0.3,2.2h0.1c0.4-0.9,1-1.5,1.6-1.9c0.6-0.4,1.3-0.6,1.9-0.6c0.4,0,0.6,0,0.9,0.1
		c0.2,0,0.4,0.1,0.6,0.2l-0.6,3.2c-0.2-0.1-0.5-0.1-0.6-0.1c-0.2,0-0.4,0-0.7,0c-0.5,0-1,0.2-1.5,0.5c-0.5,0.3-0.9,0.9-1.3,1.8v7.2
		H362.8z"/>
	<path class="st1" d="M377.9,453.4c-0.9,0-1.7-0.1-2.4-0.4c-0.7-0.3-1.4-0.7-1.9-1.3c-0.5-0.5-1-1.2-1.3-2c-0.3-0.8-0.5-1.7-0.5-2.8
		c0-1,0.2-2,0.5-2.8c0.4-0.8,0.8-1.5,1.4-2c0.6-0.5,1.3-1,2.1-1.3c0.8-0.3,1.6-0.4,2.5-0.4c0.8,0,1.4,0.1,2,0.4
		c0.6,0.3,1.1,0.6,1.6,1l-1.7,2.4c-0.6-0.5-1.1-0.7-1.7-0.7c-0.9,0-1.6,0.3-2.1,0.9c-0.5,0.6-0.8,1.5-0.8,2.6c0,1.1,0.3,1.9,0.8,2.6
		c0.5,0.6,1.2,1,2,1c0.4,0,0.8-0.1,1.2-0.3s0.7-0.4,1.1-0.6l1.5,2.4c-0.6,0.5-1.3,0.9-2,1.1C379.3,453.2,378.6,453.4,377.9,453.4z"
		/>
	<path class="st1" d="M384.2,453.1v-17.5h3.7v4.3l-0.2,2.2c0.5-0.4,1-0.8,1.6-1.2c0.6-0.4,1.4-0.5,2.2-0.5c1.3,0,2.3,0.4,2.9,1.3
		c0.6,0.9,0.9,2.1,0.9,3.7v7.7h-3.7v-7.2c0-0.9-0.1-1.5-0.4-1.9c-0.2-0.3-0.6-0.5-1.2-0.5c-0.5,0-0.9,0.1-1.2,0.3
		c-0.3,0.2-0.7,0.5-1.1,0.9v8.4H384.2z"/>
	<path class="st1" d="M401.6,453.4c-0.6,0-1.1-0.1-1.5-0.3s-0.8-0.5-1.2-0.8s-0.6-0.7-0.7-1.2c-0.2-0.5-0.3-0.9-0.3-1.5
		c0-1.3,0.6-2.3,1.7-3c1.1-0.7,2.9-1.2,5.3-1.5c0-0.6-0.2-1-0.5-1.3c-0.3-0.3-0.8-0.5-1.5-0.5c-0.5,0-1.1,0.1-1.6,0.3
		c-0.5,0.2-1.1,0.5-1.7,0.8l-1.3-2.4c0.8-0.5,1.6-0.9,2.5-1.2s1.8-0.5,2.8-0.5c1.6,0,2.8,0.5,3.7,1.4c0.8,0.9,1.3,2.3,1.3,4.2v7.1
		h-3l-0.3-1.3h-0.1c-0.5,0.5-1.1,0.8-1.7,1.1C402.9,453.2,402.3,453.4,401.6,453.4z M402.8,450.5c0.4,0,0.8-0.1,1.1-0.3
		c0.3-0.2,0.6-0.4,0.9-0.8v-2.2c-1.3,0.2-2.2,0.5-2.7,0.8c-0.5,0.3-0.8,0.8-0.8,1.3c0,0.4,0.1,0.7,0.4,0.9
		C402,450.4,402.4,450.5,402.8,450.5z"/>
	<path class="st1" d="M415.3,453.4c-0.8,0-1.7-0.2-2.5-0.5c-0.9-0.3-1.6-0.7-2.2-1.3l1.6-2.3c0.6,0.4,1.1,0.8,1.6,1s1,0.3,1.6,0.3
		c0.5,0,1-0.1,1.2-0.3c0.3-0.2,0.4-0.4,0.4-0.8c0-0.2-0.1-0.4-0.2-0.5c-0.1-0.2-0.3-0.3-0.6-0.4c-0.2-0.1-0.5-0.3-0.8-0.4
		c-0.3-0.1-0.6-0.2-0.9-0.4c-0.4-0.2-0.8-0.3-1.1-0.5s-0.7-0.4-1-0.7c-0.3-0.3-0.6-0.6-0.8-1c-0.2-0.4-0.3-0.8-0.3-1.4
		c0-0.6,0.1-1.1,0.3-1.6c0.2-0.5,0.5-0.9,1-1.2c0.4-0.3,0.9-0.6,1.5-0.8c0.6-0.2,1.2-0.3,1.9-0.3c1,0,1.8,0.2,2.5,0.5
		c0.7,0.3,1.3,0.7,1.9,1.1l-1.6,2.2c-0.5-0.3-0.9-0.6-1.3-0.8c-0.4-0.2-0.9-0.3-1.3-0.3c-0.9,0-1.4,0.3-1.4,1c0,0.2,0.1,0.4,0.2,0.5
		s0.3,0.3,0.5,0.4c0.2,0.1,0.5,0.2,0.8,0.3s0.6,0.2,0.9,0.3c0.4,0.1,0.8,0.3,1.2,0.5s0.8,0.4,1.1,0.7c0.3,0.3,0.6,0.6,0.8,1
		c0.2,0.4,0.3,0.9,0.3,1.5c0,0.6-0.1,1.1-0.3,1.6s-0.5,0.9-1,1.3c-0.4,0.4-1,0.6-1.6,0.8C416.8,453.3,416.1,453.4,415.3,453.4z"/>
	<path class="st1" d="M428.2,453.4c-0.9,0-1.7-0.1-2.5-0.4c-0.8-0.3-1.4-0.7-2-1.3c-0.6-0.6-1-1.2-1.3-2c-0.3-0.8-0.5-1.7-0.5-2.8
		c0-1,0.2-1.9,0.5-2.7s0.8-1.5,1.3-2.1c0.5-0.6,1.2-1,1.9-1.3c0.7-0.3,1.4-0.5,2.2-0.5c0.9,0,1.7,0.2,2.3,0.5
		c0.7,0.3,1.2,0.7,1.6,1.3c0.4,0.5,0.8,1.2,1,1.9c0.2,0.7,0.3,1.5,0.3,2.4c0,0.3,0,0.7,0,1c0,0.3-0.1,0.5-0.1,0.7h-7.4
		c0.2,0.9,0.5,1.6,1.1,2s1.3,0.6,2.1,0.6c0.9,0,1.8-0.3,2.7-0.8l1.2,2.2c-0.6,0.4-1.3,0.8-2.1,1S429,453.4,428.2,453.4z
		 M425.5,445.5h4.5c0-0.7-0.2-1.3-0.5-1.7s-0.8-0.7-1.6-0.7c-0.6,0-1.1,0.2-1.5,0.6C425.9,444.1,425.6,444.7,425.5,445.5z"/>
	<path class="st1" d="M446,453.4c-0.8,0-1.5-0.1-2.3-0.4c-0.7-0.3-1.4-0.7-1.9-1.3c-0.6-0.5-1-1.2-1.3-2s-0.5-1.7-0.5-2.8
		c0-1,0.2-2,0.5-2.8c0.3-0.8,0.8-1.5,1.3-2s1.2-1,1.9-1.3c0.7-0.3,1.5-0.4,2.3-0.4c0.8,0,1.5,0.1,2.3,0.4c0.7,0.3,1.4,0.7,1.9,1.3
		c0.6,0.5,1,1.2,1.3,2c0.3,0.8,0.5,1.7,0.5,2.8c0,1-0.2,2-0.5,2.8c-0.3,0.8-0.8,1.5-1.3,2c-0.6,0.6-1.2,1-1.9,1.3
		C447.5,453.2,446.8,453.4,446,453.4z M446,450.4c0.8,0,1.3-0.3,1.7-1c0.4-0.6,0.6-1.5,0.6-2.6c0-1.1-0.2-1.9-0.6-2.6
		c-0.4-0.6-0.9-0.9-1.7-0.9c-0.8,0-1.3,0.3-1.7,0.9c-0.4,0.6-0.6,1.5-0.6,2.6c0,1.1,0.2,1.9,0.6,2.6
		C444.6,450.1,445.2,450.4,446,450.4z"/>
	<path class="st1" d="M454.5,453.1v-12.4h3l0.3,2.2h0.1c0.4-0.9,1-1.5,1.6-1.9c0.6-0.4,1.3-0.6,1.9-0.6c0.4,0,0.6,0,0.9,0.1
		c0.2,0,0.4,0.1,0.6,0.2l-0.6,3.2c-0.2-0.1-0.5-0.1-0.6-0.1c-0.2,0-0.4,0-0.7,0c-0.5,0-1,0.2-1.5,0.5c-0.5,0.3-0.9,0.9-1.3,1.8v7.2
		H454.5z"/>
	<path class="st1" d="M64.8,483.1v-12.4h3l0.3,2.2h0.1c0.4-0.9,1-1.5,1.6-1.9c0.6-0.4,1.3-0.6,1.9-0.6c0.4,0,0.6,0,0.9,0.1
		c0.2,0,0.4,0.1,0.6,0.2l-0.6,3.2c-0.2-0.1-0.5-0.1-0.6-0.1c-0.2,0-0.4,0-0.7,0c-0.5,0-1,0.2-1.5,0.5c-0.5,0.3-0.9,0.9-1.3,1.8v7.2
		H64.8z"/>
	<path class="st1" d="M80.1,483.4c-0.9,0-1.7-0.1-2.5-0.4c-0.8-0.3-1.4-0.7-2-1.3c-0.6-0.6-1-1.2-1.3-2c-0.3-0.8-0.5-1.7-0.5-2.8
		c0-1,0.2-1.9,0.5-2.7s0.8-1.5,1.3-2.1c0.5-0.6,1.2-1,1.9-1.3c0.7-0.3,1.4-0.5,2.2-0.5c0.9,0,1.7,0.2,2.3,0.5
		c0.7,0.3,1.2,0.7,1.6,1.3c0.4,0.5,0.8,1.2,1,1.9c0.2,0.7,0.3,1.5,0.3,2.4c0,0.3,0,0.7,0,1c0,0.3-0.1,0.5-0.1,0.7h-7.4
		c0.2,0.9,0.5,1.6,1.1,2s1.3,0.6,2.1,0.6c0.9,0,1.8-0.3,2.7-0.8l1.2,2.2c-0.6,0.4-1.3,0.8-2.1,1S80.8,483.4,80.1,483.4z M77.3,475.5
		h4.5c0-0.7-0.2-1.3-0.5-1.7s-0.8-0.7-1.6-0.7c-0.6,0-1.1,0.2-1.5,0.6C77.7,474.1,77.5,474.7,77.3,475.5z"/>
	<path class="st1" d="M88,483.1v-9.5h-1.6v-2.7l1.6-0.1V470c0-0.7,0.1-1.3,0.2-1.9c0.2-0.6,0.4-1.1,0.8-1.5s0.8-0.8,1.4-1
		c0.6-0.3,1.3-0.4,2.1-0.4c0.5,0,1,0,1.4,0.2c0.4,0.1,0.8,0.2,1.1,0.3l-0.7,2.7c-0.5-0.2-0.9-0.3-1.3-0.3c-0.5,0-0.8,0.1-1.1,0.4
		c-0.3,0.3-0.4,0.7-0.4,1.4v0.8h2.2v2.9h-2.2v9.5H88z"/>
	<path class="st1" d="M101.2,483.4c-0.9,0-1.7-0.1-2.5-0.4c-0.8-0.3-1.4-0.7-2-1.3c-0.6-0.6-1-1.2-1.3-2c-0.3-0.8-0.5-1.7-0.5-2.8
		c0-1,0.2-1.9,0.5-2.7s0.8-1.5,1.3-2.1c0.5-0.6,1.2-1,1.9-1.3c0.7-0.3,1.4-0.5,2.2-0.5c0.9,0,1.7,0.2,2.3,0.5
		c0.7,0.3,1.2,0.7,1.6,1.3c0.4,0.5,0.8,1.2,1,1.9c0.2,0.7,0.3,1.5,0.3,2.4c0,0.3,0,0.7,0,1c0,0.3-0.1,0.5-0.1,0.7h-7.4
		c0.2,0.9,0.5,1.6,1.1,2s1.3,0.6,2.1,0.6c0.9,0,1.8-0.3,2.7-0.8l1.2,2.2c-0.6,0.4-1.3,0.8-2.1,1S101.9,483.4,101.2,483.4z
		 M98.4,475.5h4.5c0-0.7-0.2-1.3-0.5-1.7s-0.8-0.7-1.6-0.7c-0.6,0-1.1,0.2-1.5,0.6C98.9,474.1,98.6,474.7,98.4,475.5z"/>
	<path class="st1" d="M108.6,483.1v-12.4h3l0.3,2.2h0.1c0.4-0.9,1-1.5,1.6-1.9c0.6-0.4,1.3-0.6,1.9-0.6c0.4,0,0.6,0,0.9,0.1
		c0.2,0,0.4,0.1,0.6,0.2l-0.6,3.2c-0.2-0.1-0.5-0.1-0.6-0.1c-0.2,0-0.4,0-0.7,0c-0.5,0-1,0.2-1.5,0.5c-0.5,0.3-0.9,0.9-1.3,1.8v7.2
		H108.6z"/>
	<path class="st1" d="M127.2,483.4c-0.8,0-1.7-0.2-2.5-0.5c-0.9-0.3-1.6-0.7-2.2-1.3l1.6-2.3c0.6,0.4,1.1,0.8,1.6,1s1,0.3,1.6,0.3
		c0.5,0,1-0.1,1.2-0.3c0.3-0.2,0.4-0.4,0.4-0.8c0-0.2-0.1-0.4-0.2-0.5c-0.1-0.2-0.3-0.3-0.6-0.4c-0.2-0.1-0.5-0.3-0.8-0.4
		c-0.3-0.1-0.6-0.2-0.9-0.4c-0.4-0.2-0.8-0.3-1.1-0.5s-0.7-0.4-1-0.7c-0.3-0.3-0.6-0.6-0.8-1c-0.2-0.4-0.3-0.8-0.3-1.4
		c0-0.6,0.1-1.1,0.3-1.6c0.2-0.5,0.5-0.9,1-1.2c0.4-0.3,0.9-0.6,1.5-0.8c0.6-0.2,1.2-0.3,1.9-0.3c1,0,1.8,0.2,2.5,0.5
		c0.7,0.3,1.3,0.7,1.9,1.1l-1.6,2.2c-0.5-0.3-0.9-0.6-1.3-0.8c-0.4-0.2-0.9-0.3-1.3-0.3c-0.9,0-1.4,0.3-1.4,1c0,0.2,0.1,0.4,0.2,0.5
		s0.3,0.3,0.5,0.4c0.2,0.1,0.5,0.2,0.8,0.3s0.6,0.2,0.9,0.3c0.4,0.1,0.8,0.3,1.2,0.5s0.8,0.4,1.1,0.7c0.3,0.3,0.6,0.6,0.8,1
		c0.2,0.4,0.3,0.9,0.3,1.5c0,0.6-0.1,1.1-0.3,1.6s-0.5,0.9-1,1.3c-0.4,0.4-1,0.6-1.6,0.8C128.7,483.3,128,483.4,127.2,483.4z"/>
	<path class="st1" d="M139.9,483.4c-0.8,0-1.5-0.1-2.3-0.4c-0.7-0.3-1.4-0.7-1.9-1.3c-0.6-0.5-1-1.2-1.3-2s-0.5-1.7-0.5-2.8
		c0-1,0.2-2,0.5-2.8c0.3-0.8,0.8-1.5,1.3-2s1.2-1,1.9-1.3c0.7-0.3,1.5-0.4,2.3-0.4c0.8,0,1.5,0.1,2.3,0.4c0.7,0.3,1.4,0.7,1.9,1.3
		c0.6,0.5,1,1.2,1.3,2c0.3,0.8,0.5,1.7,0.5,2.8c0,1-0.2,2-0.5,2.8c-0.3,0.8-0.8,1.5-1.3,2c-0.6,0.6-1.2,1-1.9,1.3
		C141.5,483.2,140.7,483.4,139.9,483.4z M139.9,480.4c0.8,0,1.3-0.3,1.7-1c0.4-0.6,0.6-1.5,0.6-2.6c0-1.1-0.2-1.9-0.6-2.6
		c-0.4-0.6-0.9-0.9-1.7-0.9c-0.8,0-1.3,0.3-1.7,0.9c-0.4,0.6-0.6,1.5-0.6,2.6c0,1.1,0.2,1.9,0.6,2.6
		C138.6,480.1,139.2,480.4,139.9,480.4z"/>
	<path class="st1" d="M148.5,483.1v-12.4h3l0.3,1.6h0.1c0.5-0.5,1.1-1,1.6-1.3c0.6-0.4,1.3-0.6,2.1-0.6c0.9,0,1.6,0.2,2.1,0.5
		s1,0.9,1.3,1.5c0.6-0.6,1.1-1.1,1.7-1.5c0.6-0.4,1.3-0.6,2.2-0.6c1.3,0,2.3,0.4,2.9,1.3s0.9,2.1,0.9,3.7v7.7h-3.7v-7.2
		c0-0.9-0.1-1.5-0.4-1.9c-0.2-0.3-0.6-0.5-1.2-0.5c-0.6,0-1.3,0.4-2.1,1.2v8.4h-3.7v-7.2c0-0.9-0.1-1.5-0.4-1.9
		c-0.2-0.3-0.6-0.5-1.2-0.5c-0.6,0-1.3,0.4-2.1,1.2v8.4H148.5z"/>
	<path class="st1" d="M175.5,483.4c-0.9,0-1.7-0.1-2.5-0.4c-0.8-0.3-1.4-0.7-2-1.3c-0.6-0.6-1-1.2-1.3-2c-0.3-0.8-0.5-1.7-0.5-2.8
		c0-1,0.2-1.9,0.5-2.7s0.8-1.5,1.3-2.1c0.5-0.6,1.2-1,1.9-1.3c0.7-0.3,1.4-0.5,2.2-0.5c0.9,0,1.7,0.2,2.3,0.5
		c0.7,0.3,1.2,0.7,1.6,1.3c0.4,0.5,0.8,1.2,1,1.9c0.2,0.7,0.3,1.5,0.3,2.4c0,0.3,0,0.7,0,1c0,0.3-0.1,0.5-0.1,0.7h-7.4
		c0.2,0.9,0.5,1.6,1.1,2s1.3,0.6,2.1,0.6c0.9,0,1.8-0.3,2.7-0.8l1.2,2.2c-0.6,0.4-1.3,0.8-2.1,1S176.2,483.4,175.5,483.4z
		 M172.7,475.5h4.5c0-0.7-0.2-1.3-0.5-1.7s-0.8-0.7-1.6-0.7c-0.6,0-1.1,0.2-1.5,0.6C173.1,474.1,172.8,474.7,172.7,475.5z"/>
	<path class="st1" d="M188.2,483.4c-0.8,0-1.5-0.1-2.3-0.4c-0.7-0.3-1.4-0.7-1.9-1.3c-0.6-0.5-1-1.2-1.3-2s-0.5-1.7-0.5-2.8
		c0-1,0.2-2,0.5-2.8c0.3-0.8,0.8-1.5,1.3-2s1.2-1,1.9-1.3c0.7-0.3,1.5-0.4,2.3-0.4c0.8,0,1.5,0.1,2.3,0.4c0.7,0.3,1.4,0.7,1.9,1.3
		c0.6,0.5,1,1.2,1.3,2c0.3,0.8,0.5,1.7,0.5,2.8c0,1-0.2,2-0.5,2.8c-0.3,0.8-0.8,1.5-1.3,2c-0.6,0.6-1.2,1-1.9,1.3
		C189.7,483.2,189,483.4,188.2,483.4z M188.2,480.4c0.8,0,1.3-0.3,1.7-1c0.4-0.6,0.6-1.5,0.6-2.6c0-1.1-0.2-1.9-0.6-2.6
		c-0.4-0.6-0.9-0.9-1.7-0.9c-0.8,0-1.3,0.3-1.7,0.9c-0.4,0.6-0.6,1.5-0.6,2.6c0,1.1,0.2,1.9,0.6,2.6
		C186.8,480.1,187.4,480.4,188.2,480.4z"/>
	<path class="st1" d="M196.7,483.1v-12.4h3l0.3,1.6h0.1c0.5-0.5,1.1-0.9,1.8-1.3c0.6-0.4,1.4-0.6,2.2-0.6c1.3,0,2.3,0.4,2.9,1.3
		c0.6,0.9,0.9,2.1,0.9,3.7v7.7h-3.7v-7.2c0-0.9-0.1-1.5-0.4-1.9c-0.2-0.3-0.6-0.5-1.2-0.5c-0.5,0-0.9,0.1-1.2,0.3
		c-0.3,0.2-0.7,0.5-1.1,0.9v8.4H196.7z"/>
	<path class="st1" d="M216.6,483.4c-0.9,0-1.7-0.1-2.5-0.4c-0.8-0.3-1.4-0.7-2-1.3c-0.6-0.6-1-1.2-1.3-2c-0.3-0.8-0.5-1.7-0.5-2.8
		c0-1,0.2-1.9,0.5-2.7s0.8-1.5,1.3-2.1c0.5-0.6,1.2-1,1.9-1.3c0.7-0.3,1.4-0.5,2.2-0.5c0.9,0,1.7,0.2,2.3,0.5
		c0.7,0.3,1.2,0.7,1.6,1.3c0.4,0.5,0.8,1.2,1,1.9c0.2,0.7,0.3,1.5,0.3,2.4c0,0.3,0,0.7,0,1c0,0.3-0.1,0.5-0.1,0.7h-7.4
		c0.2,0.9,0.5,1.6,1.1,2s1.3,0.6,2.1,0.6c0.9,0,1.8-0.3,2.7-0.8l1.2,2.2c-0.6,0.4-1.3,0.8-2.1,1S217.3,483.4,216.6,483.4z
		 M213.8,475.5h4.5c0-0.7-0.2-1.3-0.5-1.7s-0.8-0.7-1.6-0.7c-0.6,0-1.1,0.2-1.5,0.6C214.2,474.1,214,474.7,213.8,475.5z"/>
	<path class="st1" d="M233.8,483.4c-0.8,0-1.4-0.1-2-0.3c-0.5-0.2-1-0.6-1.3-1c-0.3-0.4-0.6-0.9-0.8-1.5s-0.2-1.2-0.2-2v-5h-1.7
		v-2.7l1.9-0.2l0.4-3.3h3v3.3h3v2.9h-3v5c0,0.7,0.1,1.2,0.4,1.5s0.7,0.5,1.2,0.5c0.2,0,0.4,0,0.6-0.1c0.2,0,0.4-0.1,0.6-0.2l0.6,2.7
		c-0.3,0.1-0.7,0.2-1.2,0.3C234.9,483.3,234.4,483.4,233.8,483.4z"/>
	<path class="st1" d="M243.4,483.4c-0.8,0-1.5-0.1-2.3-0.4c-0.7-0.3-1.4-0.7-1.9-1.3c-0.6-0.5-1-1.2-1.3-2s-0.5-1.7-0.5-2.8
		c0-1,0.2-2,0.5-2.8c0.3-0.8,0.8-1.5,1.3-2s1.2-1,1.9-1.3c0.7-0.3,1.5-0.4,2.3-0.4c0.8,0,1.5,0.1,2.3,0.4c0.7,0.3,1.4,0.7,1.9,1.3
		c0.6,0.5,1,1.2,1.3,2c0.3,0.8,0.5,1.7,0.5,2.8c0,1-0.2,2-0.5,2.8c-0.3,0.8-0.8,1.5-1.3,2c-0.6,0.6-1.2,1-1.9,1.3
		C245,483.2,244.2,483.4,243.4,483.4z M243.4,480.4c0.8,0,1.3-0.3,1.7-1c0.4-0.6,0.6-1.5,0.6-2.6c0-1.1-0.2-1.9-0.6-2.6
		c-0.4-0.6-0.9-0.9-1.7-0.9c-0.8,0-1.3,0.3-1.7,0.9c-0.4,0.6-0.6,1.5-0.6,2.6c0,1.1,0.2,1.9,0.6,2.6
		C242.1,480.1,242.7,480.4,243.4,480.4z"/>
	<path class="st1" d="M257,483.1v-12.4h3l0.3,1.6h0.1c0.5-0.5,1.1-1,1.6-1.3c0.6-0.4,1.3-0.6,2.1-0.6c0.9,0,1.6,0.2,2.1,0.5
		s1,0.9,1.3,1.5c0.6-0.6,1.1-1.1,1.7-1.5c0.6-0.4,1.3-0.6,2.2-0.6c1.3,0,2.3,0.4,2.9,1.3s0.9,2.1,0.9,3.7v7.7h-3.7v-7.2
		c0-0.9-0.1-1.5-0.4-1.9c-0.2-0.3-0.6-0.5-1.2-0.5c-0.6,0-1.3,0.4-2.1,1.2v8.4h-3.7v-7.2c0-0.9-0.1-1.5-0.4-1.9
		c-0.2-0.3-0.6-0.5-1.2-0.5c-0.6,0-1.3,0.4-2.1,1.2v8.4H257z"/>
	<path class="st1" d="M281.5,483.4c-0.6,0-1.1-0.1-1.5-0.3s-0.8-0.5-1.2-0.8s-0.6-0.7-0.7-1.2c-0.2-0.5-0.3-0.9-0.3-1.5
		c0-1.3,0.6-2.3,1.7-3c1.1-0.7,2.9-1.2,5.3-1.5c0-0.6-0.2-1-0.5-1.3c-0.3-0.3-0.8-0.5-1.5-0.5c-0.5,0-1.1,0.1-1.6,0.3
		c-0.5,0.2-1.1,0.5-1.7,0.8l-1.3-2.4c0.8-0.5,1.6-0.9,2.5-1.2s1.8-0.5,2.8-0.5c1.6,0,2.8,0.5,3.7,1.4c0.8,0.9,1.3,2.3,1.3,4.2v7.1
		h-3l-0.3-1.3h-0.1c-0.5,0.5-1.1,0.8-1.7,1.1C282.9,483.2,282.2,483.4,281.5,483.4z M282.8,480.5c0.4,0,0.8-0.1,1.1-0.3
		c0.3-0.2,0.6-0.4,0.9-0.8v-2.2c-1.3,0.2-2.2,0.5-2.7,0.8c-0.5,0.3-0.8,0.8-0.8,1.3c0,0.4,0.1,0.7,0.4,0.9
		C282,480.4,282.3,480.5,282.8,480.5z"/>
	<path class="st1" d="M291.6,483.1v-17.5h3.6v10.1h0.1l3.9-4.9h4l-4.4,5.1l4.7,7.3h-4l-2.8-4.8l-1.6,1.8v3H291.6z"/>
	<path class="st1" d="M310.1,483.4c-0.9,0-1.7-0.1-2.5-0.4c-0.8-0.3-1.4-0.7-2-1.3c-0.6-0.6-1-1.2-1.3-2c-0.3-0.8-0.5-1.7-0.5-2.8
		c0-1,0.2-1.9,0.5-2.7s0.8-1.5,1.3-2.1c0.5-0.6,1.2-1,1.9-1.3c0.7-0.3,1.4-0.5,2.2-0.5c0.9,0,1.7,0.2,2.3,0.5
		c0.7,0.3,1.2,0.7,1.6,1.3c0.4,0.5,0.8,1.2,1,1.9c0.2,0.7,0.3,1.5,0.3,2.4c0,0.3,0,0.7,0,1c0,0.3-0.1,0.5-0.1,0.7h-7.4
		c0.2,0.9,0.5,1.6,1.1,2s1.3,0.6,2.1,0.6c0.9,0,1.8-0.3,2.7-0.8l1.2,2.2c-0.6,0.4-1.3,0.8-2.1,1S310.9,483.4,310.1,483.4z
		 M307.4,475.5h4.5c0-0.7-0.2-1.3-0.5-1.7s-0.8-0.7-1.6-0.7c-0.6,0-1.1,0.2-1.5,0.6C307.8,474.1,307.5,474.7,307.4,475.5z"/>
	<path class="st1" d="M325.7,483.4c-0.6,0-1.1-0.1-1.5-0.3s-0.8-0.5-1.2-0.8s-0.6-0.7-0.7-1.2c-0.2-0.5-0.3-0.9-0.3-1.5
		c0-1.3,0.6-2.3,1.7-3c1.1-0.7,2.9-1.2,5.3-1.5c0-0.6-0.2-1-0.5-1.3c-0.3-0.3-0.8-0.5-1.5-0.5c-0.5,0-1.1,0.1-1.6,0.3
		c-0.5,0.2-1.1,0.5-1.7,0.8l-1.3-2.4c0.8-0.5,1.6-0.9,2.5-1.2s1.8-0.5,2.8-0.5c1.6,0,2.8,0.5,3.7,1.4c0.8,0.9,1.3,2.3,1.3,4.2v7.1
		h-3l-0.3-1.3h-0.1c-0.5,0.5-1.1,0.8-1.7,1.1C327,483.2,326.4,483.4,325.7,483.4z M326.9,480.5c0.4,0,0.8-0.1,1.1-0.3
		c0.3-0.2,0.6-0.4,0.9-0.8v-2.2c-1.3,0.2-2.2,0.5-2.7,0.8c-0.5,0.3-0.8,0.8-0.8,1.3c0,0.4,0.1,0.7,0.4,0.9
		C326.1,480.4,326.5,480.5,326.9,480.5z"/>
	<path class="st1" d="M340.7,487.7v-17h3l0.3,1.2h0.1c0.5-0.4,1-0.8,1.6-1.1c0.6-0.3,1.2-0.4,1.9-0.4c0.8,0,1.4,0.2,2,0.5
		s1.1,0.7,1.5,1.3c0.4,0.5,0.7,1.2,1,2c0.2,0.8,0.3,1.6,0.3,2.6c0,1.1-0.1,2-0.4,2.8c-0.3,0.8-0.7,1.5-1.2,2.1c-0.5,0.6-1,1-1.7,1.3
		c-0.6,0.3-1.3,0.5-1.9,0.5c-0.5,0-1-0.1-1.5-0.3c-0.5-0.2-1-0.5-1.4-1l0.1,2v3.6H340.7z M346.4,480.4c0.6,0,1.2-0.3,1.6-0.9
		c0.5-0.6,0.7-1.5,0.7-2.8c0-2.2-0.7-3.4-2.2-3.4c-0.7,0-1.4,0.4-2.1,1.1v5.1c0.3,0.3,0.7,0.5,1,0.6
		C345.7,480.3,346,480.4,346.4,480.4z"/>
	<path class="st1" d="M358.8,483.4c-1.4,0-2.3-0.4-2.9-1.3c-0.6-0.9-0.9-2.1-0.9-3.7v-7.7h3.7v7.2c0,0.9,0.1,1.5,0.4,1.8
		c0.3,0.3,0.6,0.5,1.2,0.5c0.5,0,0.9-0.1,1.2-0.3c0.3-0.2,0.7-0.6,1-1v-8.2h3.7v12.4h-3l-0.3-1.7h-0.1c-0.5,0.6-1.1,1.1-1.7,1.5
		C360.3,483.2,359.6,483.4,358.8,483.4z"/>
	<path class="st1" d="M369.2,483.1v-12.4h3l0.3,2.2h0.1c0.4-0.9,1-1.5,1.6-1.9c0.6-0.4,1.3-0.6,1.9-0.6c0.4,0,0.6,0,0.9,0.1
		c0.2,0,0.4,0.1,0.6,0.2l-0.6,3.2c-0.2-0.1-0.5-0.1-0.6-0.1c-0.2,0-0.4,0-0.7,0c-0.5,0-1,0.2-1.5,0.5c-0.5,0.3-0.9,0.9-1.3,1.8v7.2
		H369.2z"/>
	<path class="st1" d="M384.3,483.4c-0.9,0-1.7-0.1-2.4-0.4c-0.7-0.3-1.4-0.7-1.9-1.3c-0.5-0.5-1-1.2-1.3-2c-0.3-0.8-0.5-1.7-0.5-2.8
		c0-1,0.2-2,0.5-2.8c0.4-0.8,0.8-1.5,1.4-2c0.6-0.5,1.3-1,2.1-1.3c0.8-0.3,1.6-0.4,2.5-0.4c0.8,0,1.4,0.1,2,0.4
		c0.6,0.3,1.1,0.6,1.6,1l-1.7,2.4c-0.6-0.5-1.1-0.7-1.7-0.7c-0.9,0-1.6,0.3-2.1,0.9c-0.5,0.6-0.8,1.5-0.8,2.6c0,1.1,0.3,1.9,0.8,2.6
		c0.5,0.6,1.2,1,2,1c0.4,0,0.8-0.1,1.2-0.3s0.7-0.4,1.1-0.6l1.5,2.4c-0.6,0.5-1.3,0.9-2,1.1C385.7,483.2,385,483.4,384.3,483.4z"/>
	<path class="st1" d="M390.6,483.1v-17.5h3.7v4.3l-0.2,2.2c0.5-0.4,1-0.8,1.6-1.2c0.6-0.4,1.4-0.5,2.2-0.5c1.3,0,2.3,0.4,2.9,1.3
		c0.6,0.9,0.9,2.1,0.9,3.7v7.7h-3.7v-7.2c0-0.9-0.1-1.5-0.4-1.9c-0.2-0.3-0.6-0.5-1.2-0.5c-0.5,0-0.9,0.1-1.2,0.3
		c-0.3,0.2-0.7,0.5-1.1,0.9v8.4H390.6z"/>
	<path class="st1" d="M408,483.4c-0.6,0-1.1-0.1-1.5-0.3s-0.8-0.5-1.2-0.8s-0.6-0.7-0.7-1.2c-0.2-0.5-0.3-0.9-0.3-1.5
		c0-1.3,0.6-2.3,1.7-3c1.1-0.7,2.9-1.2,5.3-1.5c0-0.6-0.2-1-0.5-1.3c-0.3-0.3-0.8-0.5-1.5-0.5c-0.5,0-1.1,0.1-1.6,0.3
		c-0.5,0.2-1.1,0.5-1.7,0.8l-1.3-2.4c0.8-0.5,1.6-0.9,2.5-1.2s1.8-0.5,2.8-0.5c1.6,0,2.8,0.5,3.7,1.4c0.8,0.9,1.3,2.3,1.3,4.2v7.1
		h-3l-0.3-1.3h-0.1c-0.5,0.5-1.1,0.8-1.7,1.1C409.3,483.2,408.7,483.4,408,483.4z M409.3,480.5c0.4,0,0.8-0.1,1.1-0.3
		c0.3-0.2,0.6-0.4,0.9-0.8v-2.2c-1.3,0.2-2.2,0.5-2.7,0.8c-0.5,0.3-0.8,0.8-0.8,1.3c0,0.4,0.1,0.7,0.4,0.9
		C408.5,480.4,408.8,480.5,409.3,480.5z"/>
	<path class="st1" d="M421.7,483.4c-0.8,0-1.7-0.2-2.5-0.5c-0.9-0.3-1.6-0.7-2.2-1.3l1.6-2.3c0.6,0.4,1.1,0.8,1.6,1s1,0.3,1.6,0.3
		c0.5,0,1-0.1,1.2-0.3c0.3-0.2,0.4-0.4,0.4-0.8c0-0.2-0.1-0.4-0.2-0.5c-0.1-0.2-0.3-0.3-0.6-0.4c-0.2-0.1-0.5-0.3-0.8-0.4
		c-0.3-0.1-0.6-0.2-0.9-0.4c-0.4-0.2-0.8-0.3-1.1-0.5s-0.7-0.4-1-0.7c-0.3-0.3-0.6-0.6-0.8-1c-0.2-0.4-0.3-0.8-0.3-1.4
		c0-0.6,0.1-1.1,0.3-1.6c0.2-0.5,0.5-0.9,1-1.2c0.4-0.3,0.9-0.6,1.5-0.8c0.6-0.2,1.2-0.3,1.9-0.3c1,0,1.8,0.2,2.5,0.5
		c0.7,0.3,1.3,0.7,1.9,1.1l-1.6,2.2c-0.5-0.3-0.9-0.6-1.3-0.8c-0.4-0.2-0.9-0.3-1.3-0.3c-0.9,0-1.4,0.3-1.4,1c0,0.2,0.1,0.4,0.2,0.5
		s0.3,0.3,0.5,0.4c0.2,0.1,0.5,0.2,0.8,0.3s0.6,0.2,0.9,0.3c0.4,0.1,0.8,0.3,1.2,0.5s0.8,0.4,1.1,0.7c0.3,0.3,0.6,0.6,0.8,1
		c0.2,0.4,0.3,0.9,0.3,1.5c0,0.6-0.1,1.1-0.3,1.6s-0.5,0.9-1,1.3c-0.4,0.4-1,0.6-1.6,0.8C423.3,483.3,422.5,483.4,421.7,483.4z"/>
	<path class="st1" d="M434.7,483.4c-0.9,0-1.7-0.1-2.5-0.4c-0.8-0.3-1.4-0.7-2-1.3c-0.6-0.6-1-1.2-1.3-2c-0.3-0.8-0.5-1.7-0.5-2.8
		c0-1,0.2-1.9,0.5-2.7s0.8-1.5,1.3-2.1c0.5-0.6,1.2-1,1.9-1.3c0.7-0.3,1.4-0.5,2.2-0.5c0.9,0,1.7,0.2,2.3,0.5
		c0.7,0.3,1.2,0.7,1.6,1.3c0.4,0.5,0.8,1.2,1,1.9c0.2,0.7,0.3,1.5,0.3,2.4c0,0.3,0,0.7,0,1c0,0.3-0.1,0.5-0.1,0.7H432
		c0.2,0.9,0.5,1.6,1.1,2s1.3,0.6,2.1,0.6c0.9,0,1.8-0.3,2.7-0.8l1.2,2.2c-0.6,0.4-1.3,0.8-2.1,1S435.4,483.4,434.7,483.4z
		 M431.9,475.5h4.5c0-0.7-0.2-1.3-0.5-1.7s-0.8-0.7-1.6-0.7c-0.6,0-1.1,0.2-1.5,0.6C432.3,474.1,432.1,474.7,431.9,475.5z"/>
	<path class="st1" d="M444.2,483.4c-0.6,0-1.2-0.2-1.6-0.7c-0.4-0.4-0.6-1-0.6-1.6c0-0.7,0.2-1.2,0.6-1.7c0.4-0.4,1-0.7,1.6-0.7
		c0.6,0,1.2,0.2,1.6,0.7c0.4,0.4,0.6,1,0.6,1.7c0,0.7-0.2,1.2-0.6,1.6C445.4,483.1,444.8,483.4,444.2,483.4z"/>
</g>
<g>
	<path class="st1" d="M97.6,647.6c0-1.3,0.2-2.5,0.6-3.6c0.4-1.1,0.9-2,1.6-2.7c0.7-0.7,1.5-1.3,2.4-1.7c0.9-0.4,1.9-0.6,2.9-0.6
		c1,0,1.9,0.2,2.7,0.6c0.8,0.4,1.4,0.9,2,1.5l-1.6,1.8c-0.4-0.4-0.9-0.7-1.3-1c-0.5-0.2-1-0.4-1.7-0.4c-0.7,0-1.3,0.1-1.9,0.4
		c-0.6,0.3-1,0.7-1.5,1.2c-0.4,0.5-0.7,1.1-0.9,1.9s-0.3,1.6-0.3,2.5c0,1.9,0.4,3.3,1.2,4.4c0.8,1.1,1.9,1.6,3.3,1.6
		c0.7,0,1.4-0.1,1.9-0.4c0.5-0.3,1-0.7,1.5-1.2l1.6,1.8c-0.7,0.8-1.4,1.4-2.3,1.8s-1.8,0.6-2.8,0.6c-1,0-2-0.2-2.9-0.5
		s-1.7-0.9-2.4-1.6c-0.7-0.7-1.2-1.6-1.6-2.7C97.8,650.2,97.6,649,97.6,647.6z"/>
	<path class="st1" d="M112.6,643.5h2.4l0.2,2.2h0.1c0.4-0.8,1-1.4,1.6-1.8c0.6-0.4,1.3-0.6,1.9-0.6c0.6,0,1,0.1,1.4,0.3l-0.5,2.5
		c-0.2-0.1-0.4-0.1-0.6-0.1c-0.2,0-0.4-0.1-0.7-0.1c-0.5,0-1,0.2-1.5,0.6c-0.5,0.4-1,1-1.4,2v7.5h-2.9V643.5z"/>
	<path class="st1" d="M120.9,649.6c0-1,0.2-1.9,0.5-2.7c0.3-0.8,0.7-1.5,1.3-2c0.5-0.6,1.1-1,1.8-1.3c0.7-0.3,1.4-0.5,2.1-0.5
		c0.8,0,1.6,0.1,2.2,0.4c0.6,0.3,1.2,0.7,1.6,1.2c0.4,0.5,0.7,1.1,1,1.9s0.3,1.5,0.3,2.3c0,0.6,0,1-0.1,1.3h-7.8
		c0.1,1.1,0.5,2,1.2,2.6c0.6,0.6,1.5,0.9,2.5,0.9c0.5,0,1-0.1,1.5-0.2c0.5-0.2,0.9-0.4,1.4-0.7l1,1.8c-0.6,0.4-1.2,0.7-1.9,1
		c-0.7,0.3-1.5,0.4-2.3,0.4c-0.9,0-1.6-0.1-2.4-0.4c-0.7-0.3-1.4-0.7-1.9-1.3c-0.5-0.5-1-1.2-1.3-2
		C121,651.5,120.9,650.6,120.9,649.6z M129.1,648.5c0-1-0.2-1.8-0.6-2.3c-0.4-0.5-1-0.8-1.9-0.8c-0.7,0-1.4,0.3-1.9,0.8
		c-0.6,0.5-0.9,1.3-1,2.3H129.1z"/>
	<path class="st1" d="M133.5,652.4c0-1.3,0.6-2.3,1.7-3s3-1.2,5.5-1.5c0-0.3,0-0.6-0.1-0.9c-0.1-0.3-0.2-0.5-0.4-0.8
		c-0.2-0.2-0.4-0.4-0.7-0.5s-0.6-0.2-1-0.2c-0.6,0-1.2,0.1-1.8,0.3c-0.6,0.2-1.1,0.5-1.7,0.9l-1.1-1.9c0.7-0.4,1.4-0.8,2.3-1.1
		c0.8-0.3,1.8-0.5,2.7-0.5c1.5,0,2.7,0.5,3.4,1.4c0.8,0.9,1.1,2.2,1.1,3.9v7.3h-2.4l-0.2-1.3H141c-0.5,0.5-1.1,0.9-1.8,1.2
		s-1.3,0.5-2,0.5c-1.1,0-2-0.3-2.6-1S133.5,653.5,133.5,652.4z M136.3,652.2c0,0.6,0.2,1,0.5,1.2c0.3,0.3,0.7,0.4,1.3,0.4
		c0.5,0,1-0.1,1.4-0.3c0.4-0.2,0.9-0.6,1.3-1v-2.8c-0.8,0.1-1.5,0.2-2.1,0.4c-0.6,0.2-1,0.4-1.4,0.6c-0.3,0.2-0.6,0.4-0.7,0.7
		C136.4,651.6,136.3,651.9,136.3,652.2z"/>
	<path class="st1" d="M147.6,645.7h-1.8v-2.2l1.9-0.1l0.4-3.3h2.4v3.3h3.1v2.3h-3.1v5.8c0,1.4,0.6,2.2,1.7,2.2c0.2,0,0.4,0,0.7-0.1
		s0.4-0.1,0.6-0.2l0.5,2.1c-0.3,0.1-0.7,0.2-1.1,0.3c-0.4,0.1-0.9,0.1-1.4,0.1c-0.7,0-1.3-0.1-1.8-0.3c-0.5-0.2-0.9-0.5-1.2-0.9
		c-0.3-0.4-0.5-0.9-0.7-1.4c-0.1-0.5-0.2-1.1-0.2-1.8V645.7z"/>
	<path class="st1" d="M155.1,649.6c0-1,0.2-1.9,0.5-2.7c0.3-0.8,0.7-1.5,1.3-2c0.5-0.6,1.1-1,1.8-1.3c0.7-0.3,1.4-0.5,2.1-0.5
		c0.8,0,1.6,0.1,2.2,0.4c0.6,0.3,1.2,0.7,1.6,1.2c0.4,0.5,0.7,1.1,1,1.9s0.3,1.5,0.3,2.3c0,0.6,0,1-0.1,1.3h-7.8
		c0.1,1.1,0.5,2,1.2,2.6c0.6,0.6,1.5,0.9,2.5,0.9c0.5,0,1-0.1,1.5-0.2c0.5-0.2,0.9-0.4,1.4-0.7l1,1.8c-0.6,0.4-1.2,0.7-1.9,1
		c-0.7,0.3-1.5,0.4-2.3,0.4c-0.9,0-1.6-0.1-2.4-0.4c-0.7-0.3-1.4-0.7-1.9-1.3c-0.5-0.5-1-1.2-1.3-2
		C155.3,651.5,155.1,650.6,155.1,649.6z M163.3,648.5c0-1-0.2-1.8-0.6-2.3c-0.4-0.5-1-0.8-1.9-0.8c-0.7,0-1.4,0.3-1.9,0.8
		c-0.6,0.5-0.9,1.3-1,2.3H163.3z"/>
	<path class="st1" d="M176.7,649.7l-4.9-10.3h3.1l1.8,4.2c0.2,0.6,0.5,1.2,0.7,1.8c0.2,0.6,0.5,1.2,0.8,1.8h0.1
		c0.3-0.6,0.5-1.2,0.8-1.8s0.5-1.2,0.7-1.8l1.8-4.2h3l-4.9,10.3v6.1h-2.9V649.7z"/>
	<path class="st1" d="M184.2,649.6c0-1,0.2-1.9,0.5-2.7c0.3-0.8,0.7-1.5,1.3-2c0.5-0.5,1.2-1,1.9-1.3c0.7-0.3,1.4-0.4,2.2-0.4
		c0.8,0,1.5,0.1,2.2,0.4c0.7,0.3,1.3,0.7,1.9,1.3s1,1.2,1.3,2c0.3,0.8,0.5,1.7,0.5,2.7s-0.2,1.9-0.5,2.7c-0.3,0.8-0.8,1.5-1.3,2
		s-1.2,1-1.9,1.3c-0.7,0.3-1.4,0.4-2.2,0.4c-0.8,0-1.5-0.1-2.2-0.4c-0.7-0.3-1.3-0.7-1.9-1.3c-0.5-0.5-1-1.2-1.3-2
		C184.4,651.5,184.2,650.6,184.2,649.6z M187.2,649.6c0,1.2,0.3,2.2,0.8,3c0.5,0.7,1.2,1.1,2.1,1.1s1.6-0.4,2.1-1.1
		c0.5-0.7,0.8-1.7,0.8-3c0-1.3-0.3-2.2-0.8-3c-0.5-0.7-1.2-1.1-2.1-1.1s-1.6,0.4-2.1,1.1S187.2,648.4,187.2,649.6z"/>
	<path class="st1" d="M198.6,643.5h2.9v7.3c0,1,0.1,1.7,0.4,2.2c0.3,0.4,0.8,0.6,1.5,0.6c0.5,0,1-0.1,1.4-0.4
		c0.4-0.3,0.8-0.7,1.3-1.3v-8.4h2.9v12.3h-2.4l-0.2-1.8h-0.1c-0.5,0.6-1.1,1.1-1.7,1.5c-0.6,0.4-1.4,0.6-2.2,0.6
		c-1.3,0-2.3-0.4-2.9-1.3c-0.6-0.8-0.9-2-0.9-3.6V643.5z"/>
	<path class="st1" d="M212.7,643.5h2.4l0.2,2.2h0.1c0.4-0.8,1-1.4,1.6-1.8c0.6-0.4,1.3-0.6,1.9-0.6c0.6,0,1,0.1,1.4,0.3l-0.5,2.5
		c-0.2-0.1-0.4-0.1-0.6-0.1c-0.2,0-0.4-0.1-0.7-0.1c-0.5,0-1,0.2-1.5,0.6c-0.5,0.4-1,1-1.4,2v7.5h-2.9V643.5z"/>
	<path class="st1" d="M235,651.3h-5.5l-1.3,4.4h-2.9l5.3-16.3h3.4l5.3,16.3h-3L235,651.3z M234.3,649l-0.6-2
		c-0.3-0.9-0.5-1.8-0.8-2.7c-0.2-0.9-0.5-1.8-0.7-2.7h-0.1c-0.2,0.9-0.5,1.8-0.7,2.7s-0.5,1.8-0.8,2.7l-0.6,2H234.3z"/>
	<path class="st1" d="M240.3,649.6c0-1,0.2-1.9,0.5-2.7c0.3-0.8,0.8-1.5,1.4-2c0.6-0.5,1.2-1,2-1.3c0.7-0.3,1.5-0.4,2.3-0.4
		c0.8,0,1.5,0.1,2.1,0.4c0.6,0.3,1.1,0.6,1.5,1l-1.4,1.8c-0.3-0.3-0.7-0.5-1-0.7s-0.7-0.2-1.1-0.2c-1,0-1.8,0.4-2.4,1.1
		s-0.9,1.7-0.9,3c0,1.2,0.3,2.2,0.9,3c0.6,0.7,1.4,1.1,2.4,1.1c0.5,0,1-0.1,1.4-0.3c0.4-0.2,0.8-0.5,1.1-0.7l1.2,1.8
		c-0.6,0.5-1.2,0.9-1.9,1.2c-0.7,0.3-1.4,0.4-2.1,0.4c-0.8,0-1.6-0.1-2.3-0.4c-0.7-0.3-1.4-0.7-1.9-1.3c-0.5-0.5-1-1.2-1.3-2
		C240.4,651.5,240.3,650.6,240.3,649.6z"/>
	<path class="st1" d="M251.2,649.6c0-1,0.2-1.9,0.5-2.7c0.3-0.8,0.8-1.5,1.4-2c0.6-0.5,1.2-1,2-1.3c0.7-0.3,1.5-0.4,2.3-0.4
		c0.8,0,1.5,0.1,2.1,0.4c0.6,0.3,1.1,0.6,1.5,1l-1.4,1.8c-0.3-0.3-0.7-0.5-1-0.7s-0.7-0.2-1.1-0.2c-1,0-1.8,0.4-2.4,1.1
		s-0.9,1.7-0.9,3c0,1.2,0.3,2.2,0.9,3c0.6,0.7,1.4,1.1,2.4,1.1c0.5,0,1-0.1,1.4-0.3c0.4-0.2,0.8-0.5,1.1-0.7l1.2,1.8
		c-0.6,0.5-1.2,0.9-1.9,1.2c-0.7,0.3-1.4,0.4-2.1,0.4c-0.8,0-1.6-0.1-2.3-0.4c-0.7-0.3-1.4-0.7-1.9-1.3c-0.5-0.5-1-1.2-1.3-2
		C251.4,651.5,251.2,650.6,251.2,649.6z"/>
	<path class="st1" d="M262.2,649.6c0-1,0.2-1.9,0.5-2.7c0.3-0.8,0.7-1.5,1.3-2c0.5-0.5,1.2-1,1.9-1.3c0.7-0.3,1.4-0.4,2.2-0.4
		c0.8,0,1.5,0.1,2.2,0.4c0.7,0.3,1.3,0.7,1.9,1.3s1,1.2,1.3,2c0.3,0.8,0.5,1.7,0.5,2.7s-0.2,1.9-0.5,2.7c-0.3,0.8-0.8,1.5-1.3,2
		s-1.2,1-1.9,1.3c-0.7,0.3-1.4,0.4-2.2,0.4c-0.8,0-1.5-0.1-2.2-0.4c-0.7-0.3-1.3-0.7-1.9-1.3c-0.5-0.5-1-1.2-1.3-2
		C262.3,651.5,262.2,650.6,262.2,649.6z M265.1,649.6c0,1.2,0.3,2.2,0.8,3c0.5,0.7,1.2,1.1,2.1,1.1s1.6-0.4,2.1-1.1
		c0.5-0.7,0.8-1.7,0.8-3c0-1.3-0.3-2.2-0.8-3c-0.5-0.7-1.2-1.1-2.1-1.1s-1.6,0.4-2.1,1.1S265.1,648.4,265.1,649.6z"/>
	<path class="st1" d="M276.6,643.5h2.9v7.3c0,1,0.1,1.7,0.4,2.2c0.3,0.4,0.8,0.6,1.5,0.6c0.5,0,1-0.1,1.4-0.4
		c0.4-0.3,0.8-0.7,1.3-1.3v-8.4h2.9v12.3h-2.4l-0.2-1.8h-0.1c-0.5,0.6-1.1,1.1-1.7,1.5c-0.6,0.4-1.4,0.6-2.2,0.6
		c-1.3,0-2.3-0.4-2.9-1.3c-0.6-0.8-0.9-2-0.9-3.6V643.5z"/>
	<path class="st1" d="M290.6,643.5h2.4l0.2,1.7h0.1c0.5-0.5,1.1-1,1.8-1.4c0.6-0.4,1.4-0.6,2.2-0.6c1.3,0,2.3,0.4,2.9,1.3
		s0.9,2,0.9,3.6v7.7h-2.9v-7.3c0-1-0.1-1.7-0.4-2.1c-0.3-0.4-0.8-0.6-1.5-0.6c-0.5,0-1,0.1-1.4,0.4c-0.4,0.3-0.9,0.6-1.4,1.1v8.6
		h-2.9V643.5z"/>
	<path class="st1" d="M305,645.7h-1.8v-2.2l1.9-0.1l0.4-3.3h2.4v3.3h3.1v2.3h-3.1v5.8c0,1.4,0.6,2.2,1.7,2.2c0.2,0,0.4,0,0.7-0.1
		s0.4-0.1,0.6-0.2l0.5,2.1c-0.3,0.1-0.7,0.2-1.1,0.3c-0.4,0.1-0.9,0.1-1.4,0.1c-0.7,0-1.3-0.1-1.8-0.3c-0.5-0.2-0.9-0.5-1.2-0.9
		c-0.3-0.4-0.5-0.9-0.7-1.4c-0.1-0.5-0.2-1.1-0.2-1.8V645.7z"/>
</g>
<path class="st1" d="M73.5,658.4c-0.1,0-0.2,0-0.3,0c0,0-0.1,0-0.1,0c-0.4,0-0.8,0-1.2-0.1c-0.6-0.1-1.2-0.2-1.8-0.4
	c-1.2-0.4-2.3-1-3.3-1.9c-0.8-0.7-1.6-1.5-2.1-2.5c-0.9-1.4-1.3-3-1.4-4.6c0-0.1,0-0.2,0-0.3c0-0.3,0-0.5,0-0.8c0,0,0,0,0-0.1
	c0-0.5,0.1-1.1,0.2-1.6c0.3-1.3,0.8-2.5,1.5-3.6c0.6-0.9,1.4-1.7,2.3-2.4c1-0.8,2.1-1.3,3.3-1.6c0.7-0.2,1.4-0.3,2.2-0.4
	c0.1,0,0.2,0,0.3,0c0.2,0,0.5,0,0.7,0c0,0,0.1,0,0.1,0c0.2,0,0.4,0,0.6,0c0.6,0.1,1.2,0.2,1.7,0.3c1.2,0.4,2.4,0.9,3.4,1.7
	c1.1,0.9,2,1.9,2.7,3.1c0.8,1.4,1.2,2.9,1.3,4.5c0,0.1,0,0.2,0,0.4c0,0.1,0,0.2,0,0.3c0,0,0,0.1,0,0.1c0,0.3,0,0.7-0.1,1
	c-0.1,0.8-0.3,1.6-0.6,2.4c-0.8,1.9-2,3.4-3.7,4.6c-0.8,0.6-1.6,1-2.6,1.3C75.6,658.2,74.6,658.4,73.5,658.4
	C73.6,658.4,73.5,658.4,73.5,658.4z M75.1,648.3C75.1,648.3,75.1,648.3,75.1,648.3c-1.3,1.3-2.6,2.6-3.8,3.9
	c-0.1,0.1-0.1,0.1-0.2,0.2c-0.3,0.4-0.2,1.1,0.3,1.3c0.4,0.2,0.8,0.2,1.2-0.2c1.5-1.5,3-3,4.5-4.5c0.4-0.4,0.4-1,0-1.4
	c-1.5-1.5-3.1-3.1-4.6-4.6c-0.1-0.1-0.2-0.1-0.2-0.2c-0.5-0.2-1-0.1-1.3,0.4c-0.2,0.4-0.1,0.8,0.2,1.1c1.2,1.2,2.4,2.4,3.7,3.6
	C74.9,648.1,75,648.2,75.1,648.3z"/>
<g id="ELEMENTS">
	<path class="st1" d="M118,75.2c0.3,0.1,0.6,0.1,1,0.2c3.7,0.3,7.3,1,10.8,2.1c15,4.9,26.3,17.3,29.9,32.6c1,4,1.4,8.2,1.1,12.3
		c-0.7,12.4-5.7,22.8-14.8,31.2c-5.6,5.1-12.4,8.7-19.8,10.4c-10.6,2.5-21.7,1-31.3-4.1c-15.1-8-24.3-23.8-23.9-40.9
		c0.3-9.5,3.2-18.1,8.9-25.7c6.8-9.1,15.9-14.8,27-17.2c1.9-0.4,3.9-0.7,5.9-0.8c0.4,0,0.8-0.1,1.2-0.2H118z M115.9,139.2
		c0.4,0.1,0.7,0.3,1,0.4c4.2,1.7,8.5,3.4,12.7,5.1c0.3,0.1,0.6,0.2,0.9,0.3c1.1,0.3,2.3,0,3.1-0.7c0.8-0.7,1.3-1.7,1.2-2.8
		c0-1.2-0.1-2.3-0.2-3.5c-0.2-3-0.4-6.1-0.7-9.1c-0.1-0.8-0.1-1.5-0.2-2.3c-0.1-0.3,0-0.6,0.3-0.8c0.1-0.1,0.2-0.3,0.4-0.4
		c2.9-3.5,5.9-7,8.8-10.5c0.2-0.2,0.4-0.5,0.6-0.7c1.1-1.6,0.7-3.8-0.9-4.9c-0.3-0.2-0.6-0.4-0.9-0.5c-0.2-0.1-0.3-0.1-0.5-0.2
		l-9.5-2.4c-1.5-0.4-3-0.8-4.5-1.1c-0.4-0.1-0.7-0.3-0.9-0.7c-0.1-0.2-0.2-0.4-0.3-0.5c-2.4-3.8-4.7-7.6-7.1-11.4
		c-0.2-0.3-0.4-0.7-0.7-1c-1.3-1.5-3.5-1.6-5-0.4c-0.2,0.2-0.4,0.4-0.5,0.6c-0.2,0.2-0.3,0.5-0.4,0.7l-7.3,11.6
		c-0.1,0.2-0.3,0.4-0.4,0.6c-0.1,0.2-0.3,0.3-0.5,0.4c-0.2,0-0.4,0.1-0.5,0.1l-13.6,3.4c-0.2,0.1-0.5,0.1-0.7,0.2
		c-1.8,0.6-2.8,2.7-2.1,4.5c0.1,0.3,0.3,0.6,0.5,0.9c0.2,0.3,0.4,0.5,0.6,0.8c2.9,3.5,5.9,7,8.8,10.5c0.4,0.4,0.5,0.9,0.5,1.4
		c-0.1,1.2-0.2,2.4-0.3,3.6c-0.2,3.5-0.5,7.1-0.7,10.6c0,0.3,0,0.7,0,1c0.3,1.9,2,3.2,3.9,2.9c0.1,0,0.2,0,0.3-0.1
		c0.4-0.1,0.7-0.2,1-0.3l10.4-4.2L115.9,139.2z"/>
	<path class="st1" d="M63.2,176.2c0.2,0,0.3-0.1,0.3-0.3c0.2-0.4,0.3-0.8,0.5-1.3c3.5-7,7-14.1,10.6-21.1c0.1-0.3,0.3-0.6,0.5-1
		c0.2,0.3,0.4,0.4,0.6,0.6c7.4,9.1,17.7,15.4,29.1,17.9c1.8,0.4,3.7,0.7,5.6,0.9c0.1,0,0.3,0.1,0.4,0.1c-0.2,0.3-0.3,0.7-0.4,0.9
		c-2.7,5.4-5.4,10.7-8,16.1c-0.7,1.3-1.3,2.6-1.9,3.9c-0.5,1.1-1.2,1.9-2.4,2.2c-0.1,0-0.1,0.1-0.1,0.1h-1.6
		c-1.2-0.4-1.9-1.3-2.6-2.3c-2.9-4-5.9-7.9-8.9-11.9c-0.8-1.1-0.4-0.9-1.9-0.9c-5,0-10.1,0-15.1,0c-0.4,0-0.9,0-1.3-0.1
		c-0.7-0.1-1.4-0.4-1.9-0.9c-0.5-0.4-0.8-0.9-1-1.5c-0.1-0.2-0.1-0.5-0.4-0.6L63.2,176.2z"/>
	<path class="st1" d="M133.9,195.3c-0.2-0.1-0.4-0.2-0.6-0.3c-0.7-0.3-1.2-0.8-1.6-1.5c-0.1-0.2-0.3-0.5-0.4-0.7
		c-3.3-6.6-6.6-13.1-9.8-19.7c-0.2-0.3-0.3-0.7-0.4-1.1c14.5-1.7,26.3-8.2,35.6-19.4c0.2,0.3,0.4,0.6,0.5,0.9
		c2.3,4.6,4.7,9.3,7,13.9c1.2,2.5,2.5,4.9,3.7,7.4c0.3,0.6,0.5,1.3,0.5,2c0,1.7-1.3,3.1-3,3.3c-0.4,0-0.9,0.1-1.3,0.1
		c-5.1,0-10.2,0-15.3,0c-1.2,0-0.9-0.1-1.6,0.8c-3.1,4.1-6.2,8.2-9.2,12.3c-0.6,0.8-1.2,1.4-2.1,1.8c0,0-0.1,0.1-0.1,0.1
		L133.9,195.3z"/>
	<path class="st1" d="M134.6,114.2c-0.3,0.3-0.4,0.6-0.6,0.8c-1.9,2.3-3.8,4.6-5.7,6.9l-0.6,0.8c-0.6,0.7-0.9,1.7-0.9,2.6
		c0.1,1.2,0.2,2.3,0.2,3.5c0.1,1.2,0.2,2.5,0.3,3.7c0.1,0.9,0.1,1.8,0.2,2.6c0,0.3,0,0.7,0,1c-0.4,0-0.7-0.2-1.1-0.3
		c-2.9-1.1-5.8-2.3-8.6-3.5c-0.2-0.1-0.3-0.1-0.5-0.2c-0.9-0.4-1.8-0.3-2.7,0c-1.5,0.6-3,1.2-4.6,1.8c-1.6,0.6-3.1,1.3-4.7,1.9
		c-0.3,0.1-0.5,0.2-0.8,0.3c-0.3-0.2-0.1-0.5-0.1-0.7c0.2-3.3,0.4-6.7,0.7-10c0.1-1.1-0.3-2.2-1-3c0,0-0.1-0.1-0.1-0.1l-4.8-5.7
		c-0.5-0.6-1-1.2-1.5-1.8c-0.1-0.1-0.2-0.3-0.4-0.5c0.3-0.1,0.6-0.2,0.8-0.3c3.2-0.8,6.3-1.6,9.5-2.4c1.1-0.2,2.1-1,2.7-2
		c1.7-2.7,3.4-5.5,5.1-8.2c0.2-0.3,0.3-0.5,0.5-0.8c0.2,0.3,0.4,0.6,0.6,0.8l5,7.9c0.1,0.2,0.2,0.3,0.3,0.5c0.5,0.9,1.4,1.5,2.4,1.8
		c1.5,0.4,3,0.7,4.5,1.1l5.2,1.3C134.1,114,134.3,114.1,134.6,114.2z"/>
</g>
</svg>
