<?xml version="1.0" encoding="utf-8"?>
<!-- Generator: Adobe Illustrator 23.0.5, SVG Export Plug-In . SVG Version: 6.00 Build 0)  -->
<svg version="1.1" id="Layer_1" xmlns="http://www.w3.org/2000/svg" xmlns:xlink="http://www.w3.org/1999/xlink" x="0px" y="0px"
	 viewBox="0 0 550 711" style="enable-background:new 0 0 550 711;" xml:space="preserve">
<style type="text/css">
	.st0{clip-path:url(#SVGID_2_);}
	.st1{fill:#33CC99;}
	.st2{enable-background:new    ;}
	.st3{fill:#FFFFFF;}
	.st4{fill:#FAF8F6;}
	.st5{fill:#C73E36;}
	.st6{fill:#FA7A31;}
	.st7{fill:#FFCB02;}
	.st8{fill:#FE4F46;}
	.st9{fill:#AD362F;}
	.st10{fill:#FFAB02;}
	.st11{fill:#FF8502;}
	.st12{fill:#FFE480;}
</style>
<g>
	<defs>
		<rect id="SVGID_1_" y="0" width="550" height="711"/>
	</defs>
	<clipPath id="SVGID_2_">
		<use xlink:href="#SVGID_1_"  style="overflow:visible;"/>
	</clipPath>
	<g id="Earn_Points_to_Shop" class="st0">
		<path id="Rectangle_17017" class="st1" d="M70,41.3h414c22.6,0,41,18.4,41,41v551c0,22.6-18.4,41-41,41H70c-22.6,0-41-18.4-41-41
			v-551C29,59.7,47.4,41.3,70,41.3z"/>
		<g id="Group_1829" transform="translate(6676 -384)">
			<g class="st2">
				<path class="st3" d="M-6532.3,987.4c-2.6,0-4.8-0.9-6.5-2.6s-2.6-3.9-2.6-6.5s0.9-4.8,2.6-6.5c1.7-1.7,3.9-2.6,6.5-2.6
					c1.6,0,3,0.4,4.4,1.1s2.4,1.8,3.2,3l-3.9,2.2c-0.3-0.6-0.8-1.1-1.5-1.5c-0.7-0.4-1.4-0.5-2.2-0.5c-1.4,0-2.5,0.4-3.4,1.3
					s-1.3,2-1.3,3.4c0,1.4,0.4,2.6,1.3,3.4s2,1.3,3.4,1.3c0.8,0,1.6-0.2,2.2-0.5c0.7-0.4,1.2-0.9,1.5-1.5l3.9,2.3
					c-0.8,1.3-1.8,2.3-3.2,3S-6530.7,987.4-6532.3,987.4z"/>
				<path class="st3" d="M-6518.8,976.8c0.2-0.8,0.7-1.5,1.4-1.9s1.5-0.7,2.4-0.7v4.6c-1-0.1-1.8,0-2.6,0.5
					c-0.8,0.5-1.2,1.3-1.2,2.5v5.2h-4.1v-12.5h4.1V976.8z"/>
				<path class="st3" d="M-6510.1,982.3c0.4,1,1.4,1.5,2.8,1.5c0.9,0,1.7-0.3,2.3-0.9l3,2.1c-1.2,1.5-3,2.3-5.4,2.3
					c-2.1,0-3.8-0.6-5.1-1.9c-1.3-1.2-1.9-2.8-1.9-4.7c0-1.9,0.6-3.5,1.9-4.7s2.8-1.9,4.8-1.9c1.9,0,3.4,0.6,4.6,1.9
					c1.2,1.3,1.8,2.8,1.8,4.7c0,0.6-0.1,1.1-0.2,1.6H-6510.1z M-6510.1,979.4h4.8c-0.3-1.2-1.1-1.8-2.4-1.8
					C-6509,977.7-6509.8,978.2-6510.1,979.4z"/>
				<path class="st3" d="M-6490.7,974.5h4.1V987h-4.1v-1.2c-0.9,1-2,1.5-3.5,1.5c-1.7,0-3.1-0.6-4.2-1.9c-1.1-1.3-1.7-2.8-1.7-4.7
					c0-1.9,0.6-3.5,1.7-4.7c1.1-1.3,2.5-1.9,4.2-1.9c1.5,0,2.7,0.5,3.5,1.5V974.5z M-6495.3,982.7c0.5,0.5,1.1,0.8,1.9,0.8
					c0.8,0,1.4-0.3,1.9-0.8s0.7-1.2,0.7-2s-0.2-1.5-0.7-2s-1.1-0.8-1.9-0.8c-0.8,0-1.4,0.3-1.9,0.8s-0.7,1.2-0.7,2
					S-6495.7,982.2-6495.3,982.7z"/>
				<path class="st3" d="M-6476.4,978.5h-2.6v3.6c0,0.6,0.2,0.9,0.6,1c0.4,0.1,1.1,0.2,2,0.1v3.8c-2.5,0.3-4.2,0.1-5.2-0.7
					s-1.5-2.1-1.5-4.1v-3.7h-1.9v-4h1.9v-2.3l4.1-1.3v3.5h2.6V978.5z"/>
				<path class="st3" d="M-6471,982.3c0.4,1,1.4,1.5,2.8,1.5c0.9,0,1.7-0.3,2.3-0.9l3,2.1c-1.2,1.5-3,2.3-5.4,2.3
					c-2.1,0-3.8-0.6-5.1-1.9c-1.3-1.2-1.9-2.8-1.9-4.7c0-1.9,0.6-3.5,1.9-4.7s2.8-1.9,4.8-1.9c1.9,0,3.4,0.6,4.6,1.9
					c1.2,1.3,1.8,2.8,1.8,4.7c0,0.6-0.1,1.1-0.2,1.6H-6471z M-6471.1,979.4h4.8c-0.3-1.2-1.1-1.8-2.4-1.8
					C-6469.9,977.7-6470.7,978.2-6471.1,979.4z"/>
				<path class="st3" d="M-6439.7,969.5l-5.9,10.8v6.7h-4.5v-6.7l-5.9-10.8h5l3.1,6.5l3.1-6.5H-6439.7z"/>
				<path class="st3" d="M-6434.9,987.3c-1.9,0-3.4-0.6-4.7-1.9c-1.3-1.3-1.9-2.8-1.9-4.7s0.6-3.4,1.9-4.7c1.3-1.3,2.9-1.9,4.7-1.9
					c1.9,0,3.4,0.6,4.7,1.9c1.3,1.3,1.9,2.8,1.9,4.7s-0.6,3.4-1.9,4.7C-6431.5,986.7-6433.1,987.3-6434.9,987.3z M-6434.9,983.3
					c0.7,0,1.3-0.2,1.8-0.7s0.7-1.1,0.7-1.9s-0.2-1.4-0.7-1.9s-1.1-0.7-1.8-0.7c-0.7,0-1.3,0.2-1.8,0.7c-0.5,0.5-0.7,1.1-0.7,1.9
					s0.2,1.4,0.7,1.9C-6436.2,983.1-6435.7,983.3-6434.9,983.3z"/>
				<path class="st3" d="M-6418.5,974.5h4.1V987h-4.1v-1.3c-0.8,1.1-1.9,1.6-3.5,1.6c-1.4,0-2.5-0.5-3.3-1.4c-0.9-0.9-1.3-2.3-1.3-4
					v-7.5h4.2v7c0,0.6,0.2,1.1,0.5,1.5c0.3,0.3,0.8,0.5,1.4,0.5c0.6,0,1.2-0.2,1.5-0.6s0.5-1,0.5-1.7V974.5z"/>
				<path class="st3" d="M-6407.8,976.8c0.2-0.8,0.7-1.5,1.4-1.9s1.5-0.7,2.4-0.7v4.6c-1-0.1-1.8,0-2.6,0.5
					c-0.8,0.5-1.2,1.3-1.2,2.5v5.2h-4.1v-12.5h4.1V976.8z"/>
				<path class="st3" d="M-6385.7,987l-0.8-2.5h-6l-0.8,2.5h-4.8l5.6-17.5h5.6l5.8,17.5H-6385.7z M-6391.4,980.6h3.5l-1.8-6
					L-6391.4,980.6z"/>
				<path class="st3" d="M-6374.4,987.3c-1.9,0-3.5-0.6-4.8-1.9s-1.9-2.8-1.9-4.7c0-1.9,0.6-3.4,1.9-4.7s2.9-1.9,4.8-1.9
					c1.2,0,2.4,0.3,3.4,0.9c1,0.6,1.8,1.4,2.3,2.3l-3.5,2c-0.5-0.8-1.2-1.2-2.2-1.2c-0.7,0-1.3,0.2-1.8,0.7
					c-0.5,0.5-0.7,1.1-0.7,1.8s0.2,1.4,0.7,1.8c0.5,0.5,1,0.7,1.8,0.7c1,0,1.8-0.4,2.2-1.3l3.5,2c-0.5,1-1.3,1.8-2.3,2.4
					C-6372,987.1-6373.1,987.3-6374.4,987.3z"/>
				<path class="st3" d="M-6361.5,987.3c-1.9,0-3.5-0.6-4.8-1.9s-1.9-2.8-1.9-4.7c0-1.9,0.6-3.4,1.9-4.7s2.8-1.9,4.8-1.9
					c1.2,0,2.4,0.3,3.4,0.9c1,0.6,1.8,1.4,2.3,2.3l-3.6,2c-0.4-0.8-1.2-1.2-2.2-1.2c-0.7,0-1.3,0.2-1.8,0.7
					c-0.5,0.5-0.7,1.1-0.7,1.8s0.2,1.4,0.7,1.8c0.5,0.5,1,0.7,1.8,0.7c1,0,1.8-0.4,2.2-1.3l3.6,2c-0.6,1-1.3,1.8-2.3,2.4
					C-6359.2,987.1-6360.3,987.3-6361.5,987.3z"/>
				<path class="st3" d="M-6348.7,987.3c-1.8,0-3.4-0.6-4.7-1.9s-2-2.8-2-4.7s0.7-3.4,2-4.7s2.9-1.9,4.7-1.9c1.9,0,3.4,0.6,4.7,1.9
					c1.3,1.3,1.9,2.8,1.9,4.7s-0.6,3.4-1.9,4.7C-6345.2,986.7-6346.8,987.3-6348.7,987.3z M-6348.7,983.3c0.7,0,1.3-0.2,1.8-0.7
					c0.5-0.5,0.7-1.1,0.7-1.9s-0.2-1.4-0.7-1.9c-0.5-0.5-1.1-0.7-1.8-0.7c-0.7,0-1.3,0.2-1.8,0.7s-0.7,1.1-0.7,1.9s0.2,1.4,0.7,1.9
					S-6349.4,983.3-6348.7,983.3z"/>
				<path class="st3" d="M-6332.3,974.5h4.2V987h-4.2v-1.3c-0.8,1.1-1.9,1.6-3.5,1.6c-1.4,0-2.5-0.5-3.3-1.4c-0.9-0.9-1.3-2.3-1.3-4
					v-7.5h4.2v7c0,0.6,0.2,1.1,0.5,1.5c0.3,0.3,0.8,0.5,1.4,0.5c0.7,0,1.2-0.2,1.5-0.6s0.5-1,0.5-1.7V974.5z"/>
				<path class="st3" d="M-6318.1,974.2c1.3,0,2.5,0.5,3.3,1.4c0.9,0.9,1.3,2.3,1.3,4v7.5h-4.2v-7c0-0.6-0.2-1.1-0.5-1.5
					c-0.3-0.3-0.8-0.5-1.4-0.5c-0.6,0-1.2,0.2-1.5,0.6c-0.4,0.4-0.5,1-0.5,1.7v6.7h-4.1v-12.5h4.1v1.3
					C-6320.8,974.7-6319.7,974.2-6318.1,974.2z"/>
				<path class="st3" d="M-6303.5,978.5h-2.6v3.6c0,0.6,0.2,0.9,0.6,1c0.4,0.1,1.1,0.2,2,0.1v3.8c-2.5,0.3-4.2,0.1-5.2-0.7
					c-1-0.8-1.5-2.1-1.5-4.1v-3.7h-1.9v-4h1.9v-2.3l4.1-1.3v3.5h2.6V978.5z"/>
			</g>
			<g class="st2">
				<path class="st3" d="M-6583.3,648.5h8.9v5.5h-14.9v-23.1h14.7v5.5h-8.8v3.2h8v5.4h-8V648.5z"/>
				<path class="st3" d="M-6560.4,637.5h5.5V654h-5.5v-1.5c-1.1,1.3-2.7,2-4.7,2c-2.2,0-4-0.8-5.5-2.5s-2.2-3.7-2.2-6.2
					c0-2.5,0.7-4.6,2.2-6.2c1.5-1.7,3.3-2.5,5.5-2.5c2,0,3.6,0.7,4.7,2V637.5z M-6566.4,648.4c0.6,0.7,1.5,1,2.5,1
					c1,0,1.9-0.3,2.5-1c0.6-0.7,1-1.5,1-2.6s-0.3-1.9-1-2.6c-0.6-0.7-1.5-1-2.5-1c-1,0-1.9,0.3-2.5,1c-0.6,0.7-1,1.5-1,2.6
					S-6567.1,647.7-6566.4,648.4z"/>
				<path class="st3" d="M-6546.3,640.6c0.3-1.1,0.9-1.9,1.8-2.5c0.9-0.6,2-0.9,3.1-0.9v6.1c-1.3-0.2-2.4,0-3.4,0.7
					c-1,0.7-1.5,1.7-1.5,3.2v6.8h-5.5v-16.5h5.5V640.6z"/>
				<path class="st3" d="M-6529.2,637c1.8,0,3.2,0.6,4.4,1.8c1.1,1.2,1.7,3,1.7,5.3v9.9h-5.5v-9.2c0-0.9-0.2-1.5-0.7-1.9
					c-0.5-0.4-1.1-0.7-1.8-0.7c-0.9,0-1.5,0.3-2,0.8c-0.5,0.5-0.7,1.3-0.7,2.2v8.8h-5.5v-16.5h5.5v1.7
					C-6532.8,637.7-6531.3,637-6529.2,637z"/>
				<path class="st3" d="M-6503.5,630.9c2.3,0,4.3,0.8,5.9,2.3c1.6,1.5,2.4,3.5,2.4,5.8c0,2.4-0.8,4.3-2.4,5.8s-3.5,2.3-5.9,2.3
					h-3.1v6.9h-5.9v-23.1H-6503.5z M-6503.5,641.5c0.7,0,1.2-0.2,1.7-0.7c0.5-0.5,0.7-1.1,0.7-1.8c0-0.7-0.2-1.3-0.7-1.8
					c-0.5-0.5-1-0.7-1.7-0.7h-3.1v4.9H-6503.5z"/>
				<path class="st3" d="M-6485.8,654.5c-2.4,0-4.5-0.8-6.2-2.5c-1.7-1.7-2.6-3.7-2.6-6.2s0.9-4.5,2.6-6.2c1.7-1.7,3.8-2.5,6.2-2.5
					c2.5,0,4.5,0.8,6.3,2.5c1.7,1.7,2.6,3.7,2.6,6.2s-0.9,4.5-2.6,6.2C-6481.3,653.6-6483.4,654.5-6485.8,654.5z M-6485.8,649.2
					c1,0,1.8-0.3,2.4-1c0.6-0.6,0.9-1.5,0.9-2.5s-0.3-1.8-0.9-2.5c-0.6-0.6-1.4-1-2.4-1c-0.9,0-1.7,0.3-2.4,1
					c-0.6,0.6-0.9,1.5-0.9,2.5s0.3,1.8,0.9,2.5C-6487.6,648.9-6486.8,649.2-6485.8,649.2z"/>
				<path class="st3" d="M-6469.6,635.2c-0.6,0.6-1.4,0.9-2.2,0.9c-0.9,0-1.6-0.3-2.2-0.9c-0.6-0.6-0.9-1.4-0.9-2.2
					c0-0.9,0.3-1.6,0.9-2.2c0.6-0.6,1.4-0.9,2.2-0.9c0.9,0,1.6,0.3,2.2,0.9c0.6,0.6,0.9,1.4,0.9,2.2
					C-6468.7,633.8-6469,634.6-6469.6,635.2z M-6474.6,654v-16.5h5.5V654H-6474.6z"/>
				<path class="st3" d="M-6455.9,637c1.8,0,3.2,0.6,4.4,1.8c1.1,1.2,1.7,3,1.7,5.3v9.9h-5.5v-9.2c0-0.9-0.2-1.5-0.7-1.9
					c-0.5-0.4-1.1-0.7-1.8-0.7c-0.9,0-1.5,0.3-2,0.8c-0.5,0.5-0.7,1.3-0.7,2.2v8.8h-5.5v-16.5h5.5v1.7
					C-6459.5,637.7-6458,637-6455.9,637z"/>
				<path class="st3" d="M-6436.6,642.7h-3.4v4.8c0,0.7,0.3,1.2,0.8,1.4c0.5,0.2,1.4,0.2,2.6,0.2v5c-3.3,0.4-5.6,0.1-6.9-0.9
					s-2-2.8-2-5.4v-4.9h-2.5v-5.2h2.5v-3l5.5-1.7v4.6h3.4V642.7z"/>
				<path class="st3" d="M-6429,642.2c0,0.3,0.3,0.5,0.9,0.7c0.6,0.2,1.2,0.4,2,0.6c0.8,0.2,1.6,0.5,2.4,0.8
					c0.8,0.3,1.5,0.8,2.1,1.6s0.8,1.8,0.8,3c0,1.9-0.7,3.3-2.1,4.2c-1.4,0.9-3.1,1.4-5,1.4c-3.7,0-6.2-1.3-7.4-3.9l4.8-2.4
					c0.4,1.2,1.3,1.8,2.6,1.8c1,0,1.5-0.3,1.5-0.9c0-0.3-0.3-0.6-0.8-0.7c-0.6-0.2-1.2-0.4-2-0.7s-1.5-0.5-2.4-0.8
					c-0.8-0.3-1.5-0.8-2-1.5s-0.8-1.6-0.8-2.7c0-1.8,0.7-3.1,2-4.1s2.9-1.5,4.7-1.5c3.3,0,5.5,1.3,6.8,3.8l-4.6,2.1
					c-0.5-0.9-1.2-1.4-2-1.4C-6428.6,641.5-6429,641.8-6429,642.2z"/>
				<path class="st3" d="M-6400.9,642.7h-3.4v4.8c0,0.7,0.3,1.2,0.8,1.4c0.5,0.2,1.4,0.2,2.6,0.2v5c-3.3,0.4-5.6,0.1-6.9-0.9
					s-2-2.8-2-5.4v-4.9h-2.5v-5.2h2.5v-3l5.5-1.7v4.6h3.4V642.7z"/>
				<path class="st3" d="M-6390.6,654.5c-2.4,0-4.5-0.8-6.2-2.5c-1.7-1.7-2.6-3.7-2.6-6.2s0.9-4.5,2.6-6.2c1.7-1.7,3.8-2.5,6.2-2.5
					c2.5,0,4.5,0.8,6.3,2.5s2.6,3.7,2.6,6.2s-0.9,4.5-2.6,6.2S-6388.2,654.5-6390.6,654.5z M-6390.6,649.2c1,0,1.8-0.3,2.4-1
					c0.6-0.6,0.9-1.5,0.9-2.5s-0.3-1.8-0.9-2.5c-0.6-0.6-1.4-1-2.4-1c-0.9,0-1.7,0.3-2.4,1c-0.6,0.6-0.9,1.5-0.9,2.5
					s0.3,1.8,0.9,2.5C-6392.4,648.9-6391.6,649.2-6390.6,649.2z"/>
				<path class="st3" d="M-6363.5,654.5c-2.4,0-4.5-0.5-6.1-1.6c-1.6-1-2.7-2.4-3.4-4.2l5-2.9c0.9,2,2.4,3.1,4.6,3.1
					c1.8,0,2.7-0.5,2.7-1.5c0-0.7-0.5-1.2-1.6-1.6c-0.4-0.2-1.4-0.5-2.9-0.9c-2.1-0.6-3.8-1.5-5-2.6c-1.2-1.1-1.8-2.7-1.8-4.6
					c0-2.1,0.8-3.9,2.3-5.2c1.5-1.3,3.4-2,5.7-2c1.9,0,3.7,0.5,5.1,1.4c1.5,0.9,2.6,2.2,3.4,3.9l-5,2.9c-0.7-1.7-1.9-2.6-3.6-2.6
					c-0.7,0-1.2,0.1-1.6,0.4c-0.4,0.3-0.5,0.7-0.5,1.1c0,0.5,0.3,0.9,0.8,1.3c0.5,0.4,1.6,0.8,3.1,1.2c1.1,0.4,2,0.7,2.7,1
					s1.4,0.6,2.3,1.2c0.8,0.5,1.4,1.2,1.8,2.1c0.4,0.8,0.6,1.8,0.6,3c0,2.3-0.8,4-2.4,5.3C-6358.7,653.9-6360.8,654.5-6363.5,654.5z
					"/>
				<path class="st3" d="M-6342.5,637c1.8,0,3.2,0.6,4.4,1.8c1.1,1.2,1.7,3,1.7,5.3v9.9h-5.5v-9.2c0-0.9-0.2-1.5-0.7-1.9
					c-0.5-0.4-1.1-0.7-1.8-0.7c-0.9,0-1.5,0.3-2,0.8c-0.5,0.5-0.7,1.3-0.7,2.2v8.8h-5.5v-23.1h5.5v8.3
					C-6346.1,637.7-6344.6,637-6342.5,637z"/>
				<path class="st3" d="M-6325.5,654.5c-2.4,0-4.5-0.8-6.2-2.5c-1.7-1.7-2.6-3.7-2.6-6.2s0.9-4.5,2.6-6.2c1.7-1.7,3.8-2.5,6.2-2.5
					c2.5,0,4.5,0.8,6.3,2.5c1.7,1.7,2.6,3.7,2.6,6.2s-0.9,4.5-2.6,6.2C-6321,653.6-6323.1,654.5-6325.5,654.5z M-6325.5,649.2
					c1,0,1.8-0.3,2.4-1c0.6-0.6,0.9-1.5,0.9-2.5s-0.3-1.8-0.9-2.5c-0.6-0.6-1.4-1-2.4-1c-0.9,0-1.7,0.3-2.4,1
					c-0.6,0.6-0.9,1.5-0.9,2.5s0.3,1.8,0.9,2.5C-6327.3,648.9-6326.5,649.2-6325.5,649.2z"/>
				<path class="st3" d="M-6304.1,637c2.2,0,4,0.8,5.5,2.5c1.5,1.7,2.2,3.7,2.2,6.2c0,2.5-0.7,4.6-2.2,6.2s-3.3,2.5-5.5,2.5
					c-2,0-3.6-0.7-4.7-2v8.1h-5.5v-23.1h5.5v1.5C-6307.7,637.7-6306.1,637-6304.1,637z M-6307.9,648.4c0.6,0.7,1.5,1,2.5,1
					c1,0,1.9-0.3,2.5-1c0.6-0.7,1-1.5,1-2.6s-0.3-1.9-1-2.6c-0.6-0.7-1.5-1-2.5-1c-1,0-1.9,0.3-2.5,1c-0.6,0.7-1,1.5-1,2.6
					S-6308.5,647.7-6307.9,648.4z"/>
			</g>
			<g class="st2">
				<path class="st3" d="M-6583,776.8c-1,0-1.9-0.2-2.7-0.5c-0.8-0.4-1.6-0.9-2.2-1.5s-1.1-1.5-1.4-2.5c-0.3-1-0.5-2.1-0.5-3.3
					c0-1.2,0.2-2.3,0.5-3.3c0.3-1,0.8-1.8,1.4-2.5c0.6-0.7,1.3-1.2,2.2-1.6s1.8-0.5,2.8-0.5c0.5,0,1,0.1,1.4,0.2s0.8,0.3,1.2,0.4
					c0.4,0.2,0.7,0.4,1,0.6c0.3,0.2,0.5,0.4,0.7,0.7l-1.1,1.2c-0.4-0.4-0.8-0.7-1.3-1c-0.5-0.3-1.1-0.4-1.9-0.4
					c-0.8,0-1.5,0.1-2.1,0.4c-0.6,0.3-1.1,0.7-1.6,1.2c-0.4,0.5-0.8,1.2-1,1.9c-0.2,0.8-0.4,1.6-0.4,2.5c0,1,0.1,1.8,0.3,2.6
					s0.5,1.4,1,1.9c0.4,0.5,0.9,1,1.6,1.2s1.3,0.4,2.2,0.4c0.5,0,1-0.1,1.5-0.2c0.5-0.2,0.9-0.4,1.2-0.7v-3.9h-3.2v-1.6h4.9v6.3
					c-0.5,0.5-1.1,0.9-1.9,1.3C-6581.1,776.6-6582,776.8-6583,776.8z"/>
				<path class="st3" d="M-6570.4,776.8c-0.8,0-1.5-0.1-2.1-0.4c-0.7-0.3-1.2-0.7-1.7-1.1s-0.9-1.1-1.1-1.8
					c-0.3-0.7-0.4-1.5-0.4-2.5s0.1-1.7,0.4-2.5s0.7-1.3,1.1-1.9c0.5-0.5,1-0.9,1.6-1.2c0.6-0.3,1.2-0.4,1.9-0.4
					c0.7,0,1.3,0.1,1.9,0.4c0.6,0.2,1,0.6,1.4,1.1c0.4,0.5,0.7,1,0.9,1.7c0.2,0.6,0.3,1.4,0.3,2.2c0,0.2,0,0.4,0,0.6
					c0,0.2,0,0.4-0.1,0.5h-7.5c0.1,1.2,0.4,2.1,1.1,2.8c0.7,0.7,1.5,1,2.6,1c0.5,0,1-0.1,1.5-0.2s0.9-0.4,1.3-0.6l0.7,1.2
					c-0.5,0.3-1,0.6-1.6,0.8C-6568.9,776.7-6569.6,776.8-6570.4,776.8z M-6573.9,770h6c0-1.1-0.2-2-0.7-2.6c-0.5-0.6-1.2-0.9-2-0.9
					c-0.4,0-0.8,0.1-1.1,0.2c-0.4,0.2-0.7,0.4-1,0.7c-0.3,0.3-0.5,0.7-0.7,1.1C-6573.7,769-6573.9,769.5-6573.9,770z"/>
				<path class="st3" d="M-6560.2,776.8c-0.6,0-1.1-0.1-1.5-0.3s-0.7-0.4-1-0.8s-0.4-0.7-0.5-1.2c-0.1-0.5-0.2-1-0.2-1.5v-6.2h-1.7
					v-1.4l1.7-0.1l0.2-3.1h1.6v3.1h3v1.5h-3v6.2c0,0.7,0.1,1.2,0.4,1.6s0.7,0.6,1.3,0.6c0.2,0,0.4,0,0.6-0.1
					c0.2-0.1,0.4-0.1,0.6-0.2l0.4,1.4c-0.3,0.1-0.6,0.2-1,0.3C-6559.5,776.7-6559.9,776.8-6560.2,776.8z"/>
				<path class="st3" d="M-6548.4,776.8c-1.9,0-3.3-0.8-4.2-2.4l1.4-1c0.3,0.6,0.7,1,1.2,1.3c0.4,0.3,0.9,0.4,1.4,0.4
					c0.8,0,1.4-0.2,1.8-0.7s0.6-1.3,0.6-2.5v-10.5h1.9v10.6c0,0.6-0.1,1.3-0.2,1.8c-0.2,0.6-0.4,1.1-0.7,1.5c-0.3,0.4-0.8,0.8-1.3,1
					C-6547,776.7-6547.6,776.8-6548.4,776.8z"/>
				<path class="st3" d="M-6537.8,776.8c-0.9,0-1.7-0.3-2.3-0.8s-0.9-1.3-0.9-2.3c0-1.2,0.5-2.2,1.6-2.8c1.1-0.7,2.8-1.1,5.2-1.4
					c0-0.4,0-0.7-0.1-1c-0.1-0.3-0.2-0.6-0.4-0.9s-0.4-0.5-0.7-0.6c-0.3-0.2-0.7-0.2-1.1-0.2c-0.6,0-1.3,0.1-1.8,0.4
					c-0.6,0.2-1.1,0.5-1.5,0.8l-0.7-1.3c0.5-0.3,1.2-0.7,1.9-1c0.8-0.3,1.6-0.5,2.5-0.5c1.4,0,2.4,0.4,3,1.3c0.6,0.8,0.9,2,0.9,3.3
					v6.9h-1.6l-0.2-1.3h-0.1c-0.5,0.4-1.1,0.8-1.7,1.1C-6536.4,776.6-6537.1,776.8-6537.8,776.8z M-6537.2,775.3
					c0.5,0,1-0.1,1.5-0.4c0.5-0.3,1-0.6,1.5-1.1v-3.1c-0.9,0.1-1.7,0.3-2.4,0.4c-0.6,0.2-1.1,0.4-1.5,0.6c-0.4,0.2-0.7,0.5-0.9,0.8
					s-0.3,0.6-0.3,1c0,0.6,0.2,1.1,0.6,1.4C-6538.2,775.1-6537.8,775.3-6537.2,775.3z"/>
				<path class="st3" d="M-6528.7,776.5v-11.2h1.6l0.2,2h0.1c0.4-0.7,0.8-1.3,1.4-1.7s1.1-0.6,1.8-0.6c0.4,0,0.8,0.1,1.2,0.2
					l-0.4,1.7c-0.2-0.1-0.4-0.1-0.5-0.1c-0.2,0-0.3,0-0.6,0c-0.5,0-1,0.2-1.5,0.6c-0.5,0.4-1,1-1.3,2v7.2H-6528.7z"/>
				<path class="st3" d="M-6518.7,776.8c-0.9,0-1.7-0.3-2.3-0.8s-0.9-1.3-0.9-2.3c0-1.2,0.5-2.2,1.6-2.8c1.1-0.7,2.8-1.1,5.2-1.4
					c0-0.4,0-0.7-0.1-1c-0.1-0.3-0.2-0.6-0.4-0.9s-0.4-0.5-0.7-0.6c-0.3-0.2-0.7-0.2-1.1-0.2c-0.6,0-1.3,0.1-1.8,0.4
					c-0.6,0.2-1.1,0.5-1.5,0.8l-0.7-1.3c0.5-0.3,1.2-0.7,1.9-1c0.8-0.3,1.6-0.5,2.5-0.5c1.4,0,2.4,0.4,3,1.3c0.6,0.8,0.9,2,0.9,3.3
					v6.9h-1.6l-0.2-1.3h-0.1c-0.5,0.4-1.1,0.8-1.7,1.1C-6517.4,776.6-6518,776.8-6518.7,776.8z M-6518.2,775.3c0.5,0,1-0.1,1.5-0.4
					c0.5-0.3,1-0.6,1.5-1.1v-3.1c-0.9,0.1-1.7,0.3-2.4,0.4c-0.6,0.2-1.1,0.4-1.5,0.6c-0.4,0.2-0.7,0.5-0.9,0.8s-0.3,0.6-0.3,1
					c0,0.6,0.2,1.1,0.6,1.4C-6519.2,775.1-6518.7,775.3-6518.2,775.3z"/>
				<path class="st3" d="M-6505.1,776.5v-11.2h1.6l0.2,2h0.1c0.4-0.7,0.8-1.3,1.4-1.7s1.1-0.6,1.8-0.6c0.4,0,0.8,0.1,1.2,0.2
					l-0.4,1.7c-0.2-0.1-0.4-0.1-0.5-0.1c-0.2,0-0.3,0-0.6,0c-0.5,0-1,0.2-1.5,0.6c-0.5,0.4-1,1-1.3,2v7.2H-6505.1z"/>
				<path class="st3" d="M-6492.8,776.8c-0.8,0-1.5-0.1-2.1-0.4c-0.7-0.3-1.2-0.7-1.7-1.1s-0.9-1.1-1.1-1.8
					c-0.3-0.7-0.4-1.5-0.4-2.5s0.1-1.7,0.4-2.5s0.7-1.3,1.1-1.9c0.5-0.5,1-0.9,1.6-1.2c0.6-0.3,1.2-0.4,1.9-0.4
					c0.7,0,1.3,0.1,1.9,0.4c0.6,0.2,1,0.6,1.4,1.1c0.4,0.5,0.7,1,0.9,1.7c0.2,0.6,0.3,1.4,0.3,2.2c0,0.2,0,0.4,0,0.6
					c0,0.2,0,0.4-0.1,0.5h-7.5c0.1,1.2,0.4,2.1,1.1,2.8c0.7,0.7,1.5,1,2.6,1c0.5,0,1-0.1,1.5-0.2s0.9-0.4,1.3-0.6l0.7,1.2
					c-0.5,0.3-1,0.6-1.6,0.8C-6491.4,776.7-6492.1,776.8-6492.8,776.8z M-6496.4,770h6c0-1.1-0.2-2-0.7-2.6c-0.5-0.6-1.2-0.9-2-0.9
					c-0.4,0-0.8,0.1-1.1,0.2c-0.4,0.2-0.7,0.4-1,0.7c-0.3,0.3-0.5,0.7-0.7,1.1C-6496.2,769-6496.3,769.5-6496.4,770z"/>
				<path class="st3" d="M-6484.1,776.5l-3.1-11.2h1.9l1.7,6.5c0.1,0.5,0.2,1.1,0.3,1.6c0.1,0.5,0.2,1,0.3,1.5h0.1
					c0.1-0.5,0.2-1,0.4-1.6c0.1-0.5,0.3-1,0.4-1.6l1.7-6.5h1.8l1.7,6.5c0.1,0.5,0.3,1.1,0.4,1.6c0.1,0.5,0.3,1,0.4,1.5h0.1
					c0.1-0.5,0.2-1,0.3-1.5c0.1-0.5,0.2-1,0.3-1.6l1.6-6.5h1.8l-3,11.2h-2.3l-1.6-6c-0.1-0.5-0.3-1.1-0.4-1.6
					c-0.1-0.5-0.2-1.1-0.4-1.6h-0.1c-0.1,0.6-0.2,1.1-0.4,1.6c-0.1,0.5-0.3,1.1-0.4,1.6l-1.6,6H-6484.1z"/>
				<path class="st3" d="M-6467,776.8c-0.9,0-1.7-0.3-2.3-0.8s-0.9-1.3-0.9-2.3c0-1.2,0.5-2.2,1.6-2.8c1.1-0.7,2.8-1.1,5.2-1.4
					c0-0.4,0-0.7-0.1-1c-0.1-0.3-0.2-0.6-0.4-0.9s-0.4-0.5-0.7-0.6c-0.3-0.2-0.7-0.2-1.1-0.2c-0.6,0-1.3,0.1-1.8,0.4
					c-0.6,0.2-1.1,0.5-1.5,0.8l-0.7-1.3c0.5-0.3,1.2-0.7,1.9-1c0.8-0.3,1.6-0.5,2.5-0.5c1.4,0,2.4,0.4,3,1.3c0.6,0.8,0.9,2,0.9,3.3
					v6.9h-1.6l-0.2-1.3h-0.1c-0.5,0.4-1.1,0.8-1.7,1.1C-6465.6,776.6-6466.3,776.8-6467,776.8z M-6466.4,775.3c0.5,0,1-0.1,1.5-0.4
					c0.5-0.3,1-0.6,1.5-1.1v-3.1c-0.9,0.1-1.7,0.3-2.4,0.4c-0.6,0.2-1.1,0.4-1.5,0.6c-0.4,0.2-0.7,0.5-0.9,0.8s-0.3,0.6-0.3,1
					c0,0.6,0.2,1.1,0.6,1.4C-6467.5,775.1-6467,775.3-6466.4,775.3z"/>
				<path class="st3" d="M-6458,776.5v-11.2h1.6l0.2,2h0.1c0.4-0.7,0.8-1.3,1.4-1.7s1.1-0.6,1.8-0.6c0.4,0,0.8,0.1,1.2,0.2l-0.4,1.7
					c-0.2-0.1-0.4-0.1-0.5-0.1c-0.2,0-0.3,0-0.6,0c-0.5,0-1,0.2-1.5,0.6c-0.5,0.4-1,1-1.3,2v7.2H-6458z"/>
				<path class="st3" d="M-6446.4,776.8c-1.4,0-2.5-0.5-3.4-1.5c-0.8-1-1.3-2.5-1.3-4.3c0-0.9,0.1-1.7,0.4-2.4
					c0.3-0.7,0.6-1.3,1.1-1.9c0.4-0.5,1-0.9,1.5-1.2c0.6-0.3,1.2-0.4,1.8-0.4s1.2,0.1,1.7,0.3c0.5,0.2,1,0.5,1.4,0.9l-0.1-1.9v-4.3
					h1.9v16.4h-1.6l-0.2-1.3h-0.1c-0.4,0.4-1,0.8-1.5,1.1C-6445.1,776.6-6445.7,776.8-6446.4,776.8z M-6446,775.2
					c0.5,0,1-0.1,1.5-0.4s0.9-0.6,1.4-1.2v-5.8c-0.5-0.4-0.9-0.7-1.4-0.9c-0.4-0.2-0.9-0.3-1.3-0.3c-0.4,0-0.9,0.1-1.3,0.3
					s-0.7,0.5-1,0.9c-0.3,0.4-0.5,0.8-0.7,1.3c-0.2,0.5-0.3,1.1-0.3,1.7c0,1.3,0.3,2.4,0.8,3.2C-6447.7,774.8-6447,775.2-6446,775.2
					z"/>
				<path class="st3" d="M-6432.9,781.2v-15.9h1.6l0.2,1.3h0.1c0.5-0.4,1.1-0.8,1.7-1.1c0.6-0.3,1.2-0.5,1.9-0.5
					c0.7,0,1.4,0.1,1.9,0.4c0.6,0.3,1,0.7,1.4,1.2c0.4,0.5,0.6,1.1,0.8,1.8c0.2,0.7,0.3,1.5,0.3,2.4c0,1-0.1,1.8-0.4,2.5
					c-0.3,0.7-0.6,1.4-1.1,1.9s-1,0.9-1.5,1.2c-0.6,0.3-1.2,0.4-1.8,0.4c-0.5,0-1-0.1-1.6-0.3c-0.5-0.2-1-0.5-1.6-0.9l0,2v3.8
					H-6432.9z M-6428.2,775.2c0.5,0,0.9-0.1,1.3-0.3c0.4-0.2,0.7-0.5,1-0.9s0.5-0.8,0.7-1.4c0.2-0.6,0.2-1.2,0.2-1.9
					c0-0.6-0.1-1.2-0.2-1.7c-0.1-0.5-0.3-0.9-0.5-1.3s-0.5-0.6-0.9-0.8c-0.4-0.2-0.8-0.3-1.3-0.3c-0.5,0-1,0.1-1.4,0.4
					c-0.5,0.3-1,0.6-1.6,1.1v5.9c0.5,0.4,1,0.7,1.5,0.9C-6429,775.1-6428.6,775.2-6428.2,775.2z"/>
				<path class="st3" d="M-6415.7,776.8c-0.7,0-1.3-0.1-2-0.4s-1.2-0.6-1.6-1.1c-0.5-0.5-0.9-1.1-1.1-1.8c-0.3-0.7-0.4-1.6-0.4-2.5
					c0-0.9,0.1-1.8,0.4-2.5s0.7-1.3,1.1-1.9c0.5-0.5,1-0.9,1.6-1.2c0.6-0.3,1.3-0.4,2-0.4s1.3,0.1,2,0.4c0.6,0.3,1.2,0.6,1.6,1.2
					c0.5,0.5,0.9,1.1,1.1,1.9s0.4,1.6,0.4,2.5c0,0.9-0.1,1.7-0.4,2.5c-0.3,0.7-0.7,1.3-1.1,1.8c-0.5,0.5-1,0.9-1.6,1.1
					C-6414.4,776.6-6415.1,776.8-6415.7,776.8z M-6415.7,775.2c0.5,0,0.9-0.1,1.3-0.3c0.4-0.2,0.7-0.5,1-0.9
					c0.3-0.4,0.5-0.8,0.7-1.3c0.2-0.5,0.2-1.1,0.2-1.7c0-0.6-0.1-1.2-0.2-1.8c-0.2-0.5-0.4-1-0.7-1.4c-0.3-0.4-0.6-0.7-1-0.9
					c-0.4-0.2-0.8-0.3-1.3-0.3c-0.5,0-0.9,0.1-1.3,0.3c-0.4,0.2-0.7,0.5-1,0.9c-0.3,0.4-0.5,0.8-0.7,1.4c-0.2,0.5-0.2,1.1-0.2,1.8
					c0,0.6,0.1,1.2,0.2,1.7c0.2,0.5,0.4,1,0.7,1.3c0.3,0.4,0.6,0.7,1,0.9C-6416.7,775.1-6416.2,775.2-6415.7,775.2z"/>
				<path class="st3" d="M-6406.7,763c-0.4,0-0.7-0.1-0.9-0.3c-0.3-0.2-0.4-0.5-0.4-0.9c0-0.4,0.1-0.7,0.4-0.9
					c0.3-0.2,0.6-0.3,0.9-0.3s0.7,0.1,0.9,0.3c0.3,0.2,0.4,0.5,0.4,0.9c0,0.4-0.1,0.6-0.4,0.9C-6406,762.9-6406.3,763-6406.7,763z
					 M-6407.6,776.5v-11.2h1.9v11.2H-6407.6z"/>
				<path class="st3" d="M-6402,776.5v-11.2h1.6l0.2,1.6h0.1c0.5-0.5,1.1-1,1.7-1.3c0.6-0.4,1.3-0.5,2.1-0.5c1.2,0,2,0.4,2.6,1.1
					c0.5,0.7,0.8,1.8,0.8,3.3v7.1h-1.9v-6.8c0-1.1-0.2-1.8-0.5-2.3s-0.9-0.7-1.6-0.7c-0.6,0-1.1,0.1-1.5,0.4c-0.4,0.3-1,0.7-1.5,1.3
					v8.1H-6402z"/>
				<path class="st3" d="M-6385.9,776.8c-0.6,0-1.1-0.1-1.5-0.3s-0.7-0.4-1-0.8s-0.4-0.7-0.5-1.2s-0.2-1-0.2-1.5v-6.2h-1.7v-1.4
					l1.7-0.1l0.2-3.1h1.6v3.1h3v1.5h-3v6.2c0,0.7,0.1,1.2,0.4,1.6s0.7,0.6,1.3,0.6c0.2,0,0.4,0,0.6-0.1c0.2-0.1,0.4-0.1,0.6-0.2
					l0.4,1.4c-0.3,0.1-0.6,0.2-1,0.3C-6385.2,776.7-6385.5,776.8-6385.9,776.8z"/>
				<path class="st3" d="M-6378.9,776.8c-0.8,0-1.6-0.1-2.3-0.4s-1.3-0.7-1.9-1.1l0.9-1.3c0.5,0.4,1,0.7,1.5,1
					c0.5,0.2,1.1,0.4,1.8,0.4c0.7,0,1.3-0.2,1.7-0.5c0.4-0.3,0.6-0.8,0.6-1.2c0-0.3-0.1-0.5-0.2-0.8s-0.3-0.4-0.6-0.6
					c-0.2-0.2-0.5-0.3-0.8-0.4c-0.3-0.1-0.6-0.2-0.9-0.4c-0.4-0.1-0.8-0.3-1.2-0.5c-0.4-0.2-0.8-0.4-1.1-0.6
					c-0.3-0.3-0.6-0.5-0.8-0.9c-0.2-0.3-0.3-0.7-0.3-1.2c0-0.4,0.1-0.9,0.3-1.3c0.2-0.4,0.4-0.7,0.8-1c0.3-0.3,0.7-0.5,1.2-0.7
					c0.5-0.2,1-0.2,1.6-0.2c0.7,0,1.4,0.1,1.9,0.4c0.6,0.2,1.1,0.5,1.5,0.9l-0.9,1.2c-0.4-0.3-0.8-0.5-1.2-0.7s-0.9-0.3-1.4-0.3
					c-0.7,0-1.2,0.2-1.6,0.5s-0.5,0.7-0.5,1.1c0,0.3,0.1,0.5,0.2,0.7s0.3,0.4,0.6,0.5s0.5,0.3,0.8,0.4c0.3,0.1,0.6,0.2,0.9,0.4
					c0.4,0.2,0.8,0.3,1.2,0.5c0.4,0.2,0.8,0.4,1.1,0.6s0.6,0.6,0.8,0.9c0.2,0.4,0.3,0.8,0.3,1.3c0,0.5-0.1,0.9-0.3,1.3
					c-0.2,0.4-0.4,0.8-0.8,1.1c-0.3,0.3-0.8,0.5-1.3,0.7C-6377.7,776.7-6378.3,776.8-6378.9,776.8z"/>
				<path class="st3" d="M-6366.6,763c-0.4,0-0.7-0.1-0.9-0.3c-0.3-0.2-0.4-0.5-0.4-0.9c0-0.4,0.1-0.7,0.4-0.9
					c0.3-0.2,0.6-0.3,0.9-0.3c0.4,0,0.7,0.1,0.9,0.3c0.3,0.2,0.4,0.5,0.4,0.9c0,0.4-0.1,0.6-0.4,0.9
					C-6366,762.9-6366.3,763-6366.6,763z M-6367.6,776.5v-11.2h1.9v11.2H-6367.6z"/>
				<path class="st3" d="M-6361.9,776.5v-11.2h1.6l0.2,1.6h0.1c0.5-0.5,1.1-1,1.7-1.3c0.6-0.4,1.3-0.5,2.1-0.5c1.2,0,2,0.4,2.6,1.1
					c0.5,0.7,0.8,1.8,0.8,3.3v7.1h-1.9v-6.8c0-1.1-0.2-1.8-0.5-2.3s-0.9-0.7-1.6-0.7c-0.6,0-1.1,0.1-1.5,0.4c-0.4,0.3-1,0.7-1.5,1.3
					v8.1H-6361.9z"/>
				<path class="st3" d="M-6344.6,781.3c-0.3,0-0.5,0-0.7-0.1s-0.4-0.1-0.6-0.2l0.4-1.5c0.1,0,0.3,0.1,0.4,0.1
					c0.2,0,0.3,0.1,0.4,0.1c0.6,0,1.2-0.2,1.6-0.7c0.4-0.5,0.7-1,1-1.7l0.3-0.8l-4.5-11.2h2l2.3,6.2c0.2,0.5,0.3,1,0.5,1.6
					s0.4,1.1,0.5,1.6h0.1c0.2-0.5,0.3-1,0.5-1.6c0.2-0.6,0.3-1.1,0.5-1.6l2-6.2h1.8l-4.2,12.1c-0.2,0.6-0.4,1.1-0.7,1.5
					c-0.2,0.5-0.5,0.9-0.9,1.2c-0.3,0.3-0.7,0.6-1.1,0.8S-6344,781.3-6344.6,781.3z"/>
				<path class="st3" d="M-6329.8,776.8c-0.7,0-1.3-0.1-2-0.4s-1.2-0.6-1.6-1.1c-0.5-0.5-0.9-1.1-1.1-1.8c-0.3-0.7-0.4-1.6-0.4-2.5
					c0-0.9,0.1-1.8,0.4-2.5s0.7-1.3,1.1-1.9c0.5-0.5,1-0.9,1.6-1.2c0.6-0.3,1.3-0.4,2-0.4c0.7,0,1.3,0.1,2,0.4
					c0.6,0.3,1.2,0.6,1.6,1.2c0.5,0.5,0.9,1.1,1.1,1.9s0.4,1.6,0.4,2.5c0,0.9-0.1,1.7-0.4,2.5c-0.3,0.7-0.7,1.3-1.1,1.8
					c-0.5,0.5-1,0.9-1.6,1.1C-6328.4,776.6-6329.1,776.8-6329.8,776.8z M-6329.8,775.2c0.5,0,0.9-0.1,1.3-0.3s0.7-0.5,1-0.9
					c0.3-0.4,0.5-0.8,0.7-1.3c0.2-0.5,0.2-1.1,0.2-1.7c0-0.6-0.1-1.2-0.2-1.8c-0.2-0.5-0.4-1-0.7-1.4c-0.3-0.4-0.6-0.7-1-0.9
					s-0.8-0.3-1.3-0.3c-0.5,0-0.9,0.1-1.3,0.3c-0.4,0.2-0.7,0.5-1,0.9c-0.3,0.4-0.5,0.8-0.7,1.4c-0.2,0.5-0.2,1.1-0.2,1.8
					c0,0.6,0.1,1.2,0.2,1.7c0.2,0.5,0.4,1,0.7,1.3c0.3,0.4,0.6,0.7,1,0.9C-6330.7,775.1-6330.2,775.2-6329.8,775.2z"/>
				<path class="st3" d="M-6318.4,776.8c-1.2,0-2.1-0.4-2.6-1.1c-0.5-0.7-0.8-1.8-0.8-3.3v-7.1h1.9v6.8c0,1.1,0.2,1.8,0.5,2.3
					c0.3,0.5,0.9,0.7,1.6,0.7c0.6,0,1.1-0.1,1.5-0.4c0.4-0.3,0.9-0.8,1.5-1.4v-7.9h1.9v11.2h-1.6l-0.2-1.7h-0.1
					c-0.5,0.6-1.1,1.1-1.6,1.5C-6316.9,776.6-6317.6,776.8-6318.4,776.8z"/>
				<path class="st3" d="M-6309.1,776.5v-11.2h1.6l0.2,2h0.1c0.4-0.7,0.8-1.3,1.4-1.7c0.5-0.4,1.1-0.6,1.8-0.6
					c0.4,0,0.8,0.1,1.2,0.2l-0.4,1.7c-0.2-0.1-0.4-0.1-0.5-0.1c-0.2,0-0.3,0-0.6,0c-0.5,0-1,0.2-1.5,0.6c-0.5,0.4-1,1-1.3,2v7.2
					H-6309.1z"/>
				<path class="st3" d="M-6294.8,776.5l-3.1-11.2h1.9l1.7,6.5c0.1,0.5,0.2,1.1,0.3,1.6c0.1,0.5,0.2,1,0.3,1.5h0.1
					c0.1-0.5,0.2-1,0.4-1.6s0.3-1,0.4-1.6l1.7-6.5h1.8l1.7,6.5c0.1,0.5,0.3,1.1,0.4,1.6c0.1,0.5,0.3,1,0.4,1.5h0.1
					c0.1-0.5,0.2-1,0.3-1.5c0.1-0.5,0.2-1,0.3-1.6l1.6-6.5h1.8l-3,11.2h-2.3l-1.6-6c-0.1-0.5-0.3-1.1-0.4-1.6s-0.2-1.1-0.4-1.6h-0.1
					c-0.1,0.6-0.2,1.1-0.4,1.6c-0.1,0.5-0.3,1.1-0.4,1.6l-1.6,6H-6294.8z"/>
				<path class="st3" d="M-6277.7,776.8c-0.9,0-1.7-0.3-2.3-0.8c-0.6-0.6-0.9-1.3-0.9-2.3c0-1.2,0.5-2.2,1.6-2.8
					c1.1-0.7,2.8-1.1,5.2-1.4c0-0.4,0-0.7-0.1-1c-0.1-0.3-0.2-0.6-0.4-0.9s-0.4-0.5-0.7-0.6s-0.7-0.2-1.1-0.2
					c-0.6,0-1.3,0.1-1.8,0.4c-0.6,0.2-1.1,0.5-1.5,0.8l-0.7-1.3c0.5-0.3,1.2-0.7,1.9-1s1.6-0.5,2.5-0.5c1.4,0,2.4,0.4,3,1.3
					s0.9,2,0.9,3.3v6.9h-1.6l-0.2-1.3h-0.1c-0.5,0.4-1.1,0.8-1.7,1.1C-6276.3,776.6-6277,776.8-6277.7,776.8z M-6277.1,775.3
					c0.5,0,1-0.1,1.5-0.4c0.5-0.3,1-0.6,1.5-1.1v-3.1c-0.9,0.1-1.7,0.3-2.4,0.4c-0.6,0.2-1.1,0.4-1.5,0.6c-0.4,0.2-0.7,0.5-0.9,0.8
					c-0.2,0.3-0.3,0.6-0.3,1c0,0.6,0.2,1.1,0.6,1.4C-6278.2,775.1-6277.7,775.3-6277.1,775.3z"/>
				<path class="st3" d="M-6266.7,776.8c-0.7,0-1.2-0.2-1.5-0.6c-0.3-0.4-0.5-1.1-0.5-1.9v-14.1h1.9v14.3c0,0.3,0.1,0.5,0.2,0.6
					s0.2,0.2,0.4,0.2c0.1,0,0.1,0,0.2,0s0.1,0,0.2,0l0.3,1.4c-0.1,0.1-0.3,0.1-0.4,0.1C-6266.2,776.8-6266.4,776.8-6266.7,776.8z"/>
				<path class="st3" d="M-6260.8,776.8c-0.7,0-1.2-0.2-1.5-0.6c-0.3-0.4-0.5-1.1-0.5-1.9v-14.1h1.9v14.3c0,0.3,0.1,0.5,0.2,0.6
					s0.2,0.2,0.4,0.2c0.1,0,0.1,0,0.2,0s0.1,0,0.2,0l0.3,1.4c-0.1,0.1-0.3,0.1-0.4,0.1C-6260.3,776.8-6260.6,776.8-6260.8,776.8z"/>
				<path class="st3" d="M-6252.4,776.8c-0.8,0-1.5-0.1-2.1-0.4c-0.7-0.3-1.2-0.7-1.7-1.1c-0.5-0.5-0.9-1.1-1.1-1.8
					c-0.3-0.7-0.4-1.5-0.4-2.5s0.1-1.7,0.4-2.5c0.3-0.7,0.7-1.3,1.1-1.9c0.5-0.5,1-0.9,1.6-1.2c0.6-0.3,1.2-0.4,1.9-0.4
					c0.7,0,1.3,0.1,1.9,0.4c0.6,0.2,1,0.6,1.4,1.1c0.4,0.5,0.7,1,0.9,1.7c0.2,0.6,0.3,1.4,0.3,2.2c0,0.2,0,0.4,0,0.6
					c0,0.2,0,0.4-0.1,0.5h-7.5c0.1,1.2,0.4,2.1,1.1,2.8c0.7,0.7,1.5,1,2.6,1c0.5,0,1-0.1,1.5-0.2c0.5-0.2,0.9-0.4,1.3-0.6l0.7,1.2
					c-0.5,0.3-1,0.6-1.6,0.8C-6251,776.7-6251.7,776.8-6252.4,776.8z M-6255.9,770h6c0-1.1-0.2-2-0.7-2.6c-0.5-0.6-1.2-0.9-2-0.9
					c-0.4,0-0.8,0.1-1.1,0.2s-0.7,0.4-1,0.7s-0.5,0.7-0.7,1.1C-6255.8,769-6255.9,769.5-6255.9,770z"/>
				<path class="st3" d="M-6242.3,776.8c-0.6,0-1.1-0.1-1.5-0.3s-0.7-0.4-1-0.8s-0.4-0.7-0.5-1.2s-0.2-1-0.2-1.5v-6.2h-1.7v-1.4
					l1.7-0.1l0.2-3.1h1.6v3.1h3v1.5h-3v6.2c0,0.7,0.1,1.2,0.4,1.6s0.7,0.6,1.3,0.6c0.2,0,0.4,0,0.6-0.1c0.2-0.1,0.4-0.1,0.6-0.2
					l0.4,1.4c-0.3,0.1-0.6,0.2-1,0.3S-6241.9,776.8-6242.3,776.8z"/>
			</g>
			<g class="st2">
				<path class="st3" d="M-6587.3,813.5l-3.1-11.2h1.9l1.7,6.5c0.1,0.5,0.2,1.1,0.3,1.6c0.1,0.5,0.2,1,0.3,1.5h0.1
					c0.1-0.5,0.2-1,0.4-1.6c0.1-0.5,0.3-1,0.4-1.6l1.7-6.5h1.8l1.7,6.5c0.1,0.5,0.3,1.1,0.4,1.6c0.1,0.5,0.3,1,0.4,1.5h0.1
					c0.1-0.5,0.2-1,0.3-1.5c0.1-0.5,0.2-1,0.3-1.6l1.6-6.5h1.8l-3,11.2h-2.3l-1.6-6c-0.1-0.5-0.3-1.1-0.4-1.6
					c-0.1-0.5-0.2-1.1-0.4-1.6h-0.1c-0.1,0.6-0.2,1.1-0.4,1.6c-0.1,0.5-0.3,1.1-0.4,1.6l-1.6,6H-6587.3z"/>
				<path class="st3" d="M-6572.6,813.5v-16.4h1.9v4.5l-0.1,2.3c0.5-0.5,1.1-0.9,1.7-1.3s1.3-0.5,2-0.5c1.2,0,2,0.4,2.6,1.1
					c0.5,0.7,0.8,1.8,0.8,3.3v7.1h-1.9v-6.8c0-1.1-0.2-1.8-0.5-2.3s-0.9-0.7-1.6-0.7c-0.6,0-1.1,0.1-1.5,0.4c-0.4,0.3-1,0.7-1.5,1.3
					v8.1H-6572.6z"/>
				<path class="st3" d="M-6555.6,813.8c-0.8,0-1.5-0.1-2.1-0.4c-0.7-0.3-1.2-0.7-1.7-1.1s-0.9-1.1-1.1-1.8
					c-0.3-0.7-0.4-1.5-0.4-2.5s0.1-1.7,0.4-2.5s0.7-1.3,1.1-1.9c0.5-0.5,1-0.9,1.6-1.2c0.6-0.3,1.2-0.4,1.9-0.4
					c0.7,0,1.3,0.1,1.9,0.4c0.6,0.2,1,0.6,1.4,1.1c0.4,0.5,0.7,1,0.9,1.7c0.2,0.6,0.3,1.4,0.3,2.2c0,0.2,0,0.4,0,0.6
					c0,0.2,0,0.4-0.1,0.5h-7.5c0.1,1.2,0.4,2.1,1.1,2.8c0.7,0.7,1.5,1,2.6,1c0.5,0,1-0.1,1.5-0.2s0.9-0.4,1.3-0.6l0.7,1.2
					c-0.5,0.3-1,0.6-1.6,0.8C-6554.1,813.7-6554.8,813.8-6555.6,813.8z M-6559.1,807h6c0-1.1-0.2-2-0.7-2.6c-0.5-0.6-1.2-0.9-2-0.9
					c-0.4,0-0.8,0.1-1.1,0.2c-0.4,0.2-0.7,0.4-1,0.7c-0.3,0.3-0.5,0.7-0.7,1.1C-6558.9,806-6559,806.5-6559.1,807z"/>
				<path class="st3" d="M-6548.7,813.5v-11.2h1.6l0.2,1.6h0.1c0.5-0.5,1.1-1,1.7-1.3c0.6-0.4,1.3-0.5,2.1-0.5c1.2,0,2,0.4,2.6,1.1
					c0.5,0.7,0.8,1.8,0.8,3.3v7.1h-1.9v-6.8c0-1.1-0.2-1.8-0.5-2.3s-0.9-0.7-1.6-0.7c-0.6,0-1.1,0.1-1.5,0.4c-0.4,0.3-1,0.7-1.5,1.3
					v8.1H-6548.7z"/>
				<path class="st3" d="M-6531.3,818.3c-0.3,0-0.5,0-0.7-0.1s-0.4-0.1-0.6-0.2l0.4-1.5c0.1,0,0.3,0.1,0.4,0.1s0.3,0.1,0.4,0.1
					c0.6,0,1.2-0.2,1.6-0.7c0.4-0.5,0.7-1,1-1.7l0.3-0.8l-4.5-11.2h2l2.3,6.2c0.2,0.5,0.3,1,0.5,1.6s0.4,1.1,0.5,1.6h0.1
					c0.2-0.5,0.3-1,0.5-1.6c0.2-0.6,0.3-1.1,0.5-1.6l2-6.2h1.8l-4.2,12.1c-0.2,0.6-0.4,1.1-0.7,1.5s-0.5,0.9-0.9,1.2
					s-0.7,0.6-1.1,0.8S-6530.7,818.3-6531.3,818.3z"/>
				<path class="st3" d="M-6516.5,813.8c-0.7,0-1.3-0.1-2-0.4s-1.2-0.6-1.6-1.1c-0.5-0.5-0.9-1.1-1.1-1.8c-0.3-0.7-0.4-1.6-0.4-2.5
					c0-0.9,0.1-1.8,0.4-2.5s0.7-1.3,1.1-1.9c0.5-0.5,1-0.9,1.6-1.2c0.6-0.3,1.3-0.4,2-0.4s1.3,0.1,2,0.4c0.6,0.3,1.2,0.6,1.6,1.2
					c0.5,0.5,0.9,1.1,1.1,1.9s0.4,1.6,0.4,2.5c0,0.9-0.1,1.7-0.4,2.5c-0.3,0.7-0.7,1.3-1.1,1.8c-0.5,0.5-1,0.9-1.6,1.1
					C-6515.2,813.6-6515.8,813.8-6516.5,813.8z M-6516.5,812.2c0.5,0,0.9-0.1,1.3-0.3c0.4-0.2,0.7-0.5,1-0.9
					c0.3-0.4,0.5-0.8,0.7-1.3c0.2-0.5,0.2-1.1,0.2-1.7c0-0.6-0.1-1.2-0.2-1.8c-0.2-0.5-0.4-1-0.7-1.4c-0.3-0.4-0.6-0.7-1-0.9
					c-0.4-0.2-0.8-0.3-1.3-0.3c-0.5,0-0.9,0.1-1.3,0.3c-0.4,0.2-0.7,0.5-1,0.9c-0.3,0.4-0.5,0.8-0.7,1.4c-0.2,0.5-0.2,1.1-0.2,1.8
					c0,0.6,0.1,1.2,0.2,1.7c0.2,0.5,0.4,1,0.7,1.3c0.3,0.4,0.6,0.7,1,0.9C-6517.4,812.1-6517,812.2-6516.5,812.2z"/>
				<path class="st3" d="M-6505.1,813.8c-1.2,0-2.1-0.4-2.6-1.1c-0.5-0.7-0.8-1.8-0.8-3.3v-7.1h1.9v6.8c0,1.1,0.2,1.8,0.5,2.3
					s0.9,0.7,1.6,0.7c0.6,0,1.1-0.1,1.5-0.4c0.4-0.3,0.9-0.8,1.5-1.4v-7.9h1.9v11.2h-1.6l-0.2-1.7h-0.1c-0.5,0.6-1.1,1.1-1.6,1.5
					C-6503.7,813.6-6504.3,813.8-6505.1,813.8z"/>
				<path class="st3" d="M-6491.3,813.5v-11.2h1.6l0.2,1.6h0.1c0.5-0.5,1-1,1.6-1.3c0.6-0.4,1.2-0.5,1.9-0.5c0.9,0,1.5,0.2,2,0.6
					c0.5,0.4,0.8,0.9,1.1,1.6c0.6-0.6,1.2-1.2,1.8-1.6c0.6-0.4,1.2-0.6,1.9-0.6c1.1,0,2,0.4,2.6,1.1c0.6,0.7,0.8,1.8,0.8,3.3v7.1
					h-1.9v-6.8c0-1.1-0.2-1.8-0.5-2.3s-0.9-0.7-1.6-0.7c-0.8,0-1.8,0.6-2.8,1.7v8.1h-1.9v-6.8c0-1.1-0.2-1.8-0.5-2.3
					c-0.3-0.5-0.9-0.7-1.6-0.7c-0.8,0-1.8,0.6-2.8,1.7v8.1H-6491.3z"/>
				<path class="st3" d="M-6469.6,813.8c-0.9,0-1.7-0.3-2.3-0.8s-0.9-1.3-0.9-2.3c0-1.2,0.5-2.2,1.6-2.8c1.1-0.7,2.8-1.1,5.2-1.4
					c0-0.4,0-0.7-0.1-1c-0.1-0.3-0.2-0.6-0.4-0.9s-0.4-0.5-0.7-0.6c-0.3-0.2-0.7-0.2-1.1-0.2c-0.6,0-1.3,0.1-1.8,0.4
					c-0.6,0.2-1.1,0.5-1.5,0.8l-0.7-1.3c0.5-0.3,1.2-0.7,1.9-1c0.8-0.3,1.6-0.5,2.5-0.5c1.4,0,2.4,0.4,3,1.3c0.6,0.8,0.9,2,0.9,3.3
					v6.9h-1.6l-0.2-1.3h-0.1c-0.5,0.4-1.1,0.8-1.7,1.1C-6468.3,813.6-6468.9,813.8-6469.6,813.8z M-6469.1,812.3
					c0.5,0,1-0.1,1.5-0.4c0.5-0.3,1-0.6,1.5-1.1v-3.1c-0.9,0.1-1.7,0.3-2.4,0.4c-0.6,0.2-1.1,0.4-1.5,0.6c-0.4,0.2-0.7,0.5-0.9,0.8
					s-0.3,0.6-0.3,1c0,0.6,0.2,1.1,0.6,1.4C-6470.1,812.1-6469.6,812.3-6469.1,812.3z"/>
				<path class="st3" d="M-6460.6,813.5v-16.4h1.9v11.1h0.1l4.8-5.9h2.1l-3.7,4.5l4.3,6.7h-2.1l-3.3-5.4l-2.1,2.4v2.9H-6460.6z"/>
				<path class="st3" d="M-6445.1,813.8c-0.8,0-1.5-0.1-2.1-0.4c-0.7-0.3-1.2-0.7-1.7-1.1s-0.9-1.1-1.1-1.8
					c-0.3-0.7-0.4-1.5-0.4-2.5s0.1-1.7,0.4-2.5s0.7-1.3,1.1-1.9c0.5-0.5,1-0.9,1.6-1.2c0.6-0.3,1.2-0.4,1.9-0.4
					c0.7,0,1.3,0.1,1.9,0.4c0.6,0.2,1,0.6,1.4,1.1c0.4,0.5,0.7,1,0.9,1.7c0.2,0.6,0.3,1.4,0.3,2.2c0,0.2,0,0.4,0,0.6
					c0,0.2,0,0.4-0.1,0.5h-7.5c0.1,1.2,0.4,2.1,1.1,2.8c0.7,0.7,1.5,1,2.6,1c0.5,0,1-0.1,1.5-0.2s0.9-0.4,1.3-0.6l0.7,1.2
					c-0.5,0.3-1,0.6-1.6,0.8C-6443.7,813.7-6444.3,813.8-6445.1,813.8z M-6448.6,807h6c0-1.1-0.2-2-0.7-2.6c-0.5-0.6-1.2-0.9-2-0.9
					c-0.4,0-0.8,0.1-1.1,0.2c-0.4,0.2-0.7,0.4-1,0.7c-0.3,0.3-0.5,0.7-0.7,1.1C-6448.4,806-6448.6,806.5-6448.6,807z"/>
				<path class="st3" d="M-6431.1,813.8c-0.9,0-1.7-0.3-2.3-0.8s-0.9-1.3-0.9-2.3c0-1.2,0.5-2.2,1.6-2.8c1.1-0.7,2.8-1.1,5.2-1.4
					c0-0.4,0-0.7-0.1-1c-0.1-0.3-0.2-0.6-0.4-0.9s-0.4-0.5-0.7-0.6c-0.3-0.2-0.7-0.2-1.1-0.2c-0.6,0-1.3,0.1-1.8,0.4
					c-0.6,0.2-1.1,0.5-1.5,0.8l-0.7-1.3c0.5-0.3,1.2-0.7,1.9-1c0.8-0.3,1.6-0.5,2.5-0.5c1.4,0,2.4,0.4,3,1.3c0.6,0.8,0.9,2,0.9,3.3
					v6.9h-1.6l-0.2-1.3h-0.1c-0.5,0.4-1.1,0.8-1.7,1.1C-6429.7,813.6-6430.4,813.8-6431.1,813.8z M-6430.5,812.3
					c0.5,0,1-0.1,1.5-0.4c0.5-0.3,1-0.6,1.5-1.1v-3.1c-0.9,0.1-1.7,0.3-2.4,0.4c-0.6,0.2-1.1,0.4-1.5,0.6c-0.4,0.2-0.7,0.5-0.9,0.8
					s-0.3,0.6-0.3,1c0,0.6,0.2,1.1,0.6,1.4C-6431.5,812.1-6431.1,812.3-6430.5,812.3z"/>
				<path class="st3" d="M-6417.4,818.2v-15.9h1.6l0.2,1.3h0.1c0.5-0.4,1.1-0.8,1.7-1.1c0.6-0.3,1.2-0.5,1.9-0.5
					c0.7,0,1.4,0.1,1.9,0.4c0.6,0.3,1,0.7,1.4,1.2c0.4,0.5,0.6,1.1,0.8,1.8c0.2,0.7,0.3,1.5,0.3,2.4c0,1-0.1,1.8-0.4,2.5
					c-0.3,0.7-0.6,1.4-1.1,1.9s-1,0.9-1.5,1.2c-0.6,0.3-1.2,0.4-1.8,0.4c-0.5,0-1-0.1-1.6-0.3c-0.5-0.2-1-0.5-1.6-0.9l0,2v3.8
					H-6417.4z M-6412.8,812.2c0.5,0,0.9-0.1,1.3-0.3c0.4-0.2,0.7-0.5,1-0.9s0.5-0.8,0.7-1.4c0.2-0.6,0.2-1.2,0.2-1.9
					c0-0.6-0.1-1.2-0.2-1.7c-0.1-0.5-0.3-0.9-0.5-1.3s-0.5-0.6-0.9-0.8c-0.4-0.2-0.8-0.3-1.3-0.3c-0.5,0-1,0.1-1.4,0.4
					c-0.5,0.3-1,0.6-1.6,1.1v5.9c0.5,0.4,1,0.7,1.5,0.9C-6413.6,812.1-6413.2,812.2-6412.8,812.2z"/>
				<path class="st3" d="M-6401.4,813.8c-1.2,0-2.1-0.4-2.6-1.1c-0.5-0.7-0.8-1.8-0.8-3.3v-7.1h1.9v6.8c0,1.1,0.2,1.8,0.5,2.3
					s0.9,0.7,1.6,0.7c0.6,0,1.1-0.1,1.5-0.4c0.4-0.3,0.9-0.8,1.5-1.4v-7.9h1.9v11.2h-1.6l-0.2-1.7h-0.1c-0.5,0.6-1.1,1.1-1.6,1.5
					C-6400,813.6-6400.6,813.8-6401.4,813.8z"/>
				<path class="st3" d="M-6392.2,813.5v-11.2h1.6l0.2,2h0.1c0.4-0.7,0.8-1.3,1.4-1.7c0.5-0.4,1.1-0.6,1.8-0.6
					c0.4,0,0.8,0.1,1.2,0.2l-0.4,1.7c-0.2-0.1-0.4-0.1-0.5-0.1c-0.2,0-0.3,0-0.6,0c-0.5,0-1,0.2-1.5,0.6c-0.5,0.4-1,1-1.3,2v7.2
					H-6392.2z"/>
				<path class="st3" d="M-6380,813.8c-0.7,0-1.4-0.1-2.1-0.4c-0.6-0.3-1.2-0.6-1.7-1.1c-0.5-0.5-0.8-1.1-1.1-1.8
					c-0.3-0.7-0.4-1.6-0.4-2.5c0-0.9,0.1-1.8,0.4-2.5c0.3-0.7,0.7-1.3,1.2-1.9s1.1-0.9,1.7-1.2c0.7-0.3,1.3-0.4,2.1-0.4
					c0.7,0,1.4,0.1,1.9,0.4c0.5,0.3,1,0.6,1.4,0.9l-1,1.2c-0.3-0.3-0.7-0.5-1-0.7c-0.4-0.2-0.8-0.3-1.2-0.3c-0.5,0-1,0.1-1.4,0.3
					c-0.4,0.2-0.8,0.5-1.1,0.9c-0.3,0.4-0.5,0.8-0.7,1.4c-0.2,0.5-0.3,1.1-0.3,1.8c0,0.6,0.1,1.2,0.3,1.7c0.2,0.5,0.4,1,0.7,1.3
					c0.3,0.4,0.7,0.7,1.1,0.9c0.4,0.2,0.9,0.3,1.4,0.3c0.5,0,1-0.1,1.4-0.3c0.4-0.2,0.8-0.5,1.2-0.8l0.8,1.3c-0.5,0.4-1.1,0.8-1.7,1
					S-6379.3,813.8-6380,813.8z"/>
				<path class="st3" d="M-6373.9,813.5v-16.4h1.9v4.5l-0.1,2.3c0.5-0.5,1.1-0.9,1.7-1.3c0.6-0.4,1.3-0.5,2-0.5c1.2,0,2,0.4,2.6,1.1
					c0.5,0.7,0.8,1.8,0.8,3.3v7.1h-1.9v-6.8c0-1.1-0.2-1.8-0.5-2.3s-0.9-0.7-1.6-0.7c-0.6,0-1.1,0.1-1.5,0.4c-0.4,0.3-1,0.7-1.5,1.3
					v8.1H-6373.9z"/>
				<path class="st3" d="M-6358.8,813.8c-0.9,0-1.7-0.3-2.3-0.8s-0.9-1.3-0.9-2.3c0-1.2,0.5-2.2,1.6-2.8c1.1-0.7,2.8-1.1,5.2-1.4
					c0-0.4,0-0.7-0.1-1c-0.1-0.3-0.2-0.6-0.4-0.9s-0.4-0.5-0.7-0.6s-0.7-0.2-1.1-0.2c-0.6,0-1.3,0.1-1.8,0.4
					c-0.6,0.2-1.1,0.5-1.5,0.8l-0.7-1.3c0.5-0.3,1.2-0.7,1.9-1c0.8-0.3,1.6-0.5,2.5-0.5c1.4,0,2.4,0.4,3,1.3s0.9,2,0.9,3.3v6.9h-1.6
					l-0.2-1.3h-0.1c-0.5,0.4-1.1,0.8-1.7,1.1C-6357.5,813.6-6358.1,813.8-6358.8,813.8z M-6358.3,812.3c0.5,0,1-0.1,1.5-0.4
					s1-0.6,1.5-1.1v-3.1c-0.9,0.1-1.7,0.3-2.4,0.4c-0.6,0.2-1.1,0.4-1.5,0.6c-0.4,0.2-0.7,0.5-0.9,0.8c-0.2,0.3-0.3,0.6-0.3,1
					c0,0.6,0.2,1.1,0.6,1.4C-6359.3,812.1-6358.8,812.3-6358.3,812.3z"/>
				<path class="st3" d="M-6346.9,813.8c-0.8,0-1.6-0.1-2.3-0.4s-1.3-0.7-1.9-1.1l0.9-1.3c0.5,0.4,1,0.7,1.5,1
					c0.5,0.2,1.1,0.4,1.8,0.4c0.7,0,1.3-0.2,1.7-0.5c0.4-0.3,0.6-0.8,0.6-1.2c0-0.3-0.1-0.5-0.2-0.8c-0.2-0.2-0.3-0.4-0.6-0.6
					c-0.2-0.2-0.5-0.3-0.8-0.4c-0.3-0.1-0.6-0.2-0.9-0.4c-0.4-0.1-0.8-0.3-1.2-0.5c-0.4-0.2-0.8-0.4-1.1-0.6s-0.6-0.5-0.8-0.9
					c-0.2-0.3-0.3-0.7-0.3-1.2c0-0.4,0.1-0.9,0.3-1.3c0.2-0.4,0.4-0.7,0.8-1c0.3-0.3,0.7-0.5,1.2-0.7c0.5-0.2,1-0.2,1.6-0.2
					c0.7,0,1.4,0.1,1.9,0.4s1.1,0.5,1.5,0.9l-0.9,1.2c-0.4-0.3-0.8-0.5-1.2-0.7s-0.9-0.3-1.4-0.3c-0.7,0-1.2,0.2-1.6,0.5
					c-0.3,0.3-0.5,0.7-0.5,1.1c0,0.3,0.1,0.5,0.2,0.7c0.1,0.2,0.3,0.4,0.6,0.5c0.2,0.1,0.5,0.3,0.8,0.4c0.3,0.1,0.6,0.2,0.9,0.4
					c0.4,0.2,0.8,0.3,1.2,0.5c0.4,0.2,0.8,0.4,1.1,0.6s0.6,0.6,0.8,0.9c0.2,0.4,0.3,0.8,0.3,1.3c0,0.5-0.1,0.9-0.3,1.3
					c-0.2,0.4-0.4,0.8-0.8,1.1s-0.8,0.5-1.3,0.7C-6345.7,813.7-6346.2,813.8-6346.9,813.8z"/>
				<path class="st3" d="M-6335.7,813.8c-0.8,0-1.5-0.1-2.1-0.4c-0.7-0.3-1.2-0.7-1.7-1.1s-0.9-1.1-1.1-1.8
					c-0.3-0.7-0.4-1.5-0.4-2.5s0.1-1.7,0.4-2.5s0.7-1.3,1.1-1.9c0.5-0.5,1-0.9,1.6-1.2c0.6-0.3,1.2-0.4,1.9-0.4
					c0.7,0,1.3,0.1,1.9,0.4s1,0.6,1.4,1.1c0.4,0.5,0.7,1,0.9,1.7c0.2,0.6,0.3,1.4,0.3,2.2c0,0.2,0,0.4,0,0.6c0,0.2,0,0.4-0.1,0.5
					h-7.5c0.1,1.2,0.4,2.1,1.1,2.8c0.7,0.7,1.5,1,2.6,1c0.5,0,1-0.1,1.5-0.2c0.5-0.2,0.9-0.4,1.3-0.6l0.7,1.2
					c-0.5,0.3-1,0.6-1.6,0.8C-6334.2,813.7-6334.9,813.8-6335.7,813.8z M-6339.2,807h6c0-1.1-0.2-2-0.7-2.6c-0.5-0.6-1.2-0.9-2-0.9
					c-0.4,0-0.8,0.1-1.1,0.2s-0.7,0.4-1,0.7s-0.5,0.7-0.7,1.1C-6339,806-6339.1,806.5-6339.2,807z"/>
				<path class="st3" d="M-6319.8,813.8c-0.7,0-1.3-0.1-2-0.4s-1.2-0.6-1.6-1.1c-0.5-0.5-0.9-1.1-1.1-1.8c-0.3-0.7-0.4-1.6-0.4-2.5
					c0-0.9,0.1-1.8,0.4-2.5s0.7-1.3,1.1-1.9s1-0.9,1.6-1.2c0.6-0.3,1.3-0.4,2-0.4c0.7,0,1.3,0.1,2,0.4c0.6,0.3,1.2,0.6,1.6,1.2
					c0.5,0.5,0.9,1.1,1.1,1.9s0.4,1.6,0.4,2.5c0,0.9-0.1,1.7-0.4,2.5c-0.3,0.7-0.7,1.3-1.1,1.8c-0.5,0.5-1,0.9-1.6,1.1
					S-6319.1,813.8-6319.8,813.8z M-6319.8,812.2c0.5,0,0.9-0.1,1.3-0.3c0.4-0.2,0.7-0.5,1-0.9c0.3-0.4,0.5-0.8,0.7-1.3
					c0.2-0.5,0.2-1.1,0.2-1.7c0-0.6-0.1-1.2-0.2-1.8c-0.2-0.5-0.4-1-0.7-1.4c-0.3-0.4-0.6-0.7-1-0.9c-0.4-0.2-0.8-0.3-1.3-0.3
					c-0.5,0-0.9,0.1-1.3,0.3s-0.7,0.5-1,0.9c-0.3,0.4-0.5,0.8-0.7,1.4c-0.2,0.5-0.2,1.1-0.2,1.8c0,0.6,0.1,1.2,0.2,1.7
					c0.2,0.5,0.4,1,0.7,1.3c0.3,0.4,0.6,0.7,1,0.9S-6320.3,812.2-6319.8,812.2z"/>
				<path class="st3" d="M-6311.7,813.5v-11.2h1.6l0.2,2h0.1c0.4-0.7,0.8-1.3,1.4-1.7s1.1-0.6,1.8-0.6c0.4,0,0.8,0.1,1.2,0.2
					l-0.4,1.7c-0.2-0.1-0.4-0.1-0.5-0.1c-0.2,0-0.3,0-0.6,0c-0.5,0-1,0.2-1.5,0.6c-0.5,0.4-1,1-1.3,2v7.2H-6311.7z"/>
				<path class="st3" d="M-6299.1,813.5v-11.2h1.6l0.2,2h0.1c0.4-0.7,0.8-1.3,1.4-1.7c0.5-0.4,1.1-0.6,1.8-0.6
					c0.4,0,0.8,0.1,1.2,0.2l-0.4,1.7c-0.2-0.1-0.4-0.1-0.5-0.1c-0.2,0-0.3,0-0.6,0c-0.5,0-1,0.2-1.5,0.6c-0.5,0.4-1,1-1.3,2v7.2
					H-6299.1z"/>
				<path class="st3" d="M-6286.9,813.8c-0.8,0-1.5-0.1-2.1-0.4c-0.7-0.3-1.2-0.7-1.7-1.1c-0.5-0.5-0.9-1.1-1.1-1.8
					c-0.3-0.7-0.4-1.5-0.4-2.5s0.1-1.7,0.4-2.5c0.3-0.7,0.7-1.3,1.1-1.9c0.5-0.5,1-0.9,1.6-1.2c0.6-0.3,1.2-0.4,1.9-0.4
					c0.7,0,1.3,0.1,1.9,0.4c0.6,0.2,1,0.6,1.4,1.1c0.4,0.5,0.7,1,0.9,1.7c0.2,0.6,0.3,1.4,0.3,2.2c0,0.2,0,0.4,0,0.6
					c0,0.2,0,0.4-0.1,0.5h-7.5c0.1,1.2,0.4,2.1,1.1,2.8c0.7,0.7,1.5,1,2.6,1c0.5,0,1-0.1,1.5-0.2c0.5-0.2,0.9-0.4,1.3-0.6l0.7,1.2
					c-0.5,0.3-1,0.6-1.6,0.8C-6285.4,813.7-6286.1,813.8-6286.9,813.8z M-6290.4,807h6c0-1.1-0.2-2-0.7-2.6c-0.5-0.6-1.2-0.9-2-0.9
					c-0.4,0-0.8,0.1-1.1,0.2s-0.7,0.4-1,0.7s-0.5,0.7-0.7,1.1C-6290.2,806-6290.3,806.5-6290.4,807z"/>
				<path class="st3" d="M-6279.7,813.5v-9.6h-1.5v-1.4l1.5-0.1v-1.8c0-1.1,0.3-2.1,0.8-2.7c0.5-0.7,1.4-1,2.5-1c0.4,0,0.7,0,1,0.1
					c0.3,0.1,0.6,0.2,0.9,0.3l-0.4,1.4c-0.4-0.2-0.8-0.3-1.3-0.3c-1,0-1.6,0.7-1.6,2.2v1.8h2.4v1.5h-2.4v9.6H-6279.7z"/>
				<path class="st3" d="M-6269,813.8c-0.8,0-1.5-0.1-2.1-0.4c-0.7-0.3-1.2-0.7-1.7-1.1c-0.5-0.5-0.9-1.1-1.1-1.8
					c-0.3-0.7-0.4-1.5-0.4-2.5s0.1-1.7,0.4-2.5c0.3-0.7,0.7-1.3,1.1-1.9c0.5-0.5,1-0.9,1.6-1.2c0.6-0.3,1.2-0.4,1.9-0.4
					c0.7,0,1.3,0.1,1.9,0.4c0.6,0.2,1,0.6,1.4,1.1c0.4,0.5,0.7,1,0.9,1.7c0.2,0.6,0.3,1.4,0.3,2.2c0,0.2,0,0.4,0,0.6
					c0,0.2,0,0.4-0.1,0.5h-7.5c0.1,1.2,0.4,2.1,1.1,2.8c0.7,0.7,1.5,1,2.6,1c0.5,0,1-0.1,1.5-0.2c0.5-0.2,0.9-0.4,1.3-0.6l0.7,1.2
					c-0.5,0.3-1,0.6-1.6,0.8C-6267.5,813.7-6268.2,813.8-6269,813.8z M-6272.5,807h6c0-1.1-0.2-2-0.7-2.6c-0.5-0.6-1.2-0.9-2-0.9
					c-0.4,0-0.8,0.1-1.1,0.2s-0.7,0.4-1,0.7s-0.5,0.7-0.7,1.1C-6272.3,806-6272.4,806.5-6272.5,807z"/>
				<path class="st3" d="M-6262.1,813.5v-11.2h1.6l0.2,2h0.1c0.4-0.7,0.8-1.3,1.4-1.7s1.1-0.6,1.8-0.6c0.4,0,0.8,0.1,1.2,0.2
					l-0.4,1.7c-0.2-0.1-0.4-0.1-0.5-0.1c-0.2,0-0.3,0-0.6,0c-0.5,0-1,0.2-1.5,0.6c-0.5,0.4-1,1-1.3,2v7.2H-6262.1z"/>
			</g>
			<g class="st2">
				<path class="st3" d="M-6586.2,850.8c-0.8,0-1.6-0.1-2.3-0.4s-1.3-0.7-1.9-1.1l0.9-1.3c0.5,0.4,1,0.7,1.5,1
					c0.5,0.2,1.1,0.4,1.8,0.4c0.7,0,1.3-0.2,1.7-0.5c0.4-0.3,0.6-0.8,0.6-1.2c0-0.3-0.1-0.5-0.2-0.8s-0.3-0.4-0.6-0.6
					c-0.2-0.2-0.5-0.3-0.8-0.4c-0.3-0.1-0.6-0.2-0.9-0.4c-0.4-0.1-0.8-0.3-1.2-0.5c-0.4-0.2-0.8-0.4-1.1-0.6
					c-0.3-0.3-0.6-0.5-0.8-0.9c-0.2-0.3-0.3-0.7-0.3-1.2c0-0.4,0.1-0.9,0.3-1.3c0.2-0.4,0.4-0.7,0.8-1c0.3-0.3,0.7-0.5,1.2-0.7
					c0.5-0.2,1-0.2,1.6-0.2c0.7,0,1.4,0.1,1.9,0.4s1.1,0.5,1.5,0.9l-0.9,1.2c-0.4-0.3-0.8-0.5-1.2-0.7s-0.9-0.3-1.4-0.3
					c-0.7,0-1.2,0.2-1.6,0.5s-0.5,0.7-0.5,1.1c0,0.3,0.1,0.5,0.2,0.7c0.1,0.2,0.3,0.4,0.6,0.5s0.5,0.3,0.8,0.4
					c0.3,0.1,0.6,0.2,0.9,0.4c0.4,0.2,0.8,0.3,1.2,0.5c0.4,0.2,0.8,0.4,1.1,0.6c0.3,0.3,0.6,0.6,0.8,0.9c0.2,0.4,0.3,0.8,0.3,1.3
					c0,0.5-0.1,0.9-0.3,1.3c-0.2,0.4-0.4,0.8-0.8,1.1s-0.8,0.5-1.3,0.7C-6584.9,850.7-6585.5,850.8-6586.2,850.8z"/>
				<path class="st3" d="M-6575.1,850.8c-0.7,0-1.3-0.1-2-0.4s-1.2-0.6-1.6-1.1c-0.5-0.5-0.9-1.1-1.1-1.8c-0.3-0.7-0.4-1.6-0.4-2.5
					c0-0.9,0.1-1.8,0.4-2.5s0.7-1.3,1.1-1.9c0.5-0.5,1-0.9,1.6-1.2c0.6-0.3,1.3-0.4,2-0.4s1.3,0.1,2,0.4c0.6,0.3,1.2,0.6,1.6,1.2
					c0.5,0.5,0.9,1.1,1.1,1.9s0.4,1.6,0.4,2.5c0,0.9-0.1,1.7-0.4,2.5c-0.3,0.7-0.7,1.3-1.1,1.8c-0.5,0.5-1,0.9-1.6,1.1
					C-6573.8,850.6-6574.4,850.8-6575.1,850.8z M-6575.1,849.2c0.5,0,0.9-0.1,1.3-0.3c0.4-0.2,0.7-0.5,1-0.9
					c0.3-0.4,0.5-0.8,0.7-1.3c0.2-0.5,0.2-1.1,0.2-1.7c0-0.6-0.1-1.2-0.2-1.8c-0.2-0.5-0.4-1-0.7-1.4c-0.3-0.4-0.6-0.7-1-0.9
					c-0.4-0.2-0.8-0.3-1.3-0.3c-0.5,0-0.9,0.1-1.3,0.3c-0.4,0.2-0.7,0.5-1,0.9c-0.3,0.4-0.5,0.8-0.7,1.4c-0.2,0.5-0.2,1.1-0.2,1.8
					c0,0.6,0.1,1.2,0.2,1.7c0.2,0.5,0.4,1,0.7,1.3c0.3,0.4,0.6,0.7,1,0.9C-6576,849.1-6575.6,849.2-6575.1,849.2z"/>
				<path class="st3" d="M-6567,850.5v-11.2h1.6l0.2,1.6h0.1c0.5-0.5,1-1,1.6-1.3c0.6-0.4,1.2-0.5,1.9-0.5c0.9,0,1.5,0.2,2,0.6
					c0.5,0.4,0.8,0.9,1.1,1.6c0.6-0.6,1.2-1.2,1.8-1.6c0.6-0.4,1.2-0.6,1.9-0.6c1.1,0,2,0.4,2.6,1.1c0.6,0.7,0.8,1.8,0.8,3.3v7.1
					h-1.9v-6.8c0-1.1-0.2-1.8-0.5-2.3s-0.9-0.7-1.6-0.7c-0.8,0-1.8,0.6-2.8,1.7v8.1h-1.9v-6.8c0-1.1-0.2-1.8-0.5-2.3
					c-0.3-0.5-0.9-0.7-1.6-0.7c-0.8,0-1.8,0.6-2.8,1.7v8.1H-6567z"/>
				<path class="st3" d="M-6543.4,850.8c-0.8,0-1.5-0.1-2.1-0.4c-0.7-0.3-1.2-0.7-1.7-1.1s-0.9-1.1-1.1-1.8
					c-0.3-0.7-0.4-1.5-0.4-2.5s0.1-1.7,0.4-2.5s0.7-1.3,1.1-1.9c0.5-0.5,1-0.9,1.6-1.2c0.6-0.3,1.2-0.4,1.9-0.4
					c0.7,0,1.3,0.1,1.9,0.4c0.6,0.2,1,0.6,1.4,1.1c0.4,0.5,0.7,1,0.9,1.7c0.2,0.6,0.3,1.4,0.3,2.2c0,0.2,0,0.4,0,0.6
					c0,0.2,0,0.4-0.1,0.5h-7.5c0.1,1.2,0.4,2.1,1.1,2.8c0.7,0.7,1.5,1,2.6,1c0.5,0,1-0.1,1.5-0.2s0.9-0.4,1.3-0.6l0.7,1.2
					c-0.5,0.3-1,0.6-1.6,0.8C-6542,850.7-6542.6,850.8-6543.4,850.8z M-6546.9,844h6c0-1.1-0.2-2-0.7-2.6c-0.5-0.6-1.2-0.9-2-0.9
					c-0.4,0-0.8,0.1-1.1,0.2c-0.4,0.2-0.7,0.4-1,0.7c-0.3,0.3-0.5,0.7-0.7,1.1C-6546.7,843-6546.9,843.5-6546.9,844z"/>
				<path class="st3" d="M-6532.2,850.8c-0.7,0-1.3-0.1-2-0.4s-1.2-0.6-1.6-1.1c-0.5-0.5-0.9-1.1-1.1-1.8c-0.3-0.7-0.4-1.6-0.4-2.5
					c0-0.9,0.1-1.8,0.4-2.5s0.7-1.3,1.1-1.9c0.5-0.5,1-0.9,1.6-1.2c0.6-0.3,1.3-0.4,2-0.4s1.3,0.1,2,0.4c0.6,0.3,1.2,0.6,1.6,1.2
					c0.5,0.5,0.9,1.1,1.1,1.9s0.4,1.6,0.4,2.5c0,0.9-0.1,1.7-0.4,2.5c-0.3,0.7-0.7,1.3-1.1,1.8c-0.5,0.5-1,0.9-1.6,1.1
					C-6530.8,850.6-6531.5,850.8-6532.2,850.8z M-6532.2,849.2c0.5,0,0.9-0.1,1.3-0.3c0.4-0.2,0.7-0.5,1-0.9
					c0.3-0.4,0.5-0.8,0.7-1.3c0.2-0.5,0.2-1.1,0.2-1.7c0-0.6-0.1-1.2-0.2-1.8c-0.2-0.5-0.4-1-0.7-1.4c-0.3-0.4-0.6-0.7-1-0.9
					c-0.4-0.2-0.8-0.3-1.3-0.3c-0.5,0-0.9,0.1-1.3,0.3c-0.4,0.2-0.7,0.5-1,0.9c-0.3,0.4-0.5,0.8-0.7,1.4c-0.2,0.5-0.2,1.1-0.2,1.8
					c0,0.6,0.1,1.2,0.2,1.7c0.2,0.5,0.4,1,0.7,1.3c0.3,0.4,0.6,0.7,1,0.9C-6533.1,849.1-6532.7,849.2-6532.2,849.2z"/>
				<path class="st3" d="M-6524.1,850.5v-11.2h1.6l0.2,1.6h0.1c0.5-0.5,1.1-1,1.7-1.3c0.6-0.4,1.3-0.5,2.1-0.5c1.2,0,2,0.4,2.6,1.1
					c0.5,0.7,0.8,1.8,0.8,3.3v7.1h-1.9v-6.8c0-1.1-0.2-1.8-0.5-2.3s-0.9-0.7-1.6-0.7c-0.6,0-1.1,0.1-1.5,0.4c-0.4,0.3-1,0.7-1.5,1.3
					v8.1H-6524.1z"/>
				<path class="st3" d="M-6507,850.8c-0.8,0-1.5-0.1-2.1-0.4c-0.7-0.3-1.2-0.7-1.7-1.1s-0.9-1.1-1.1-1.8c-0.3-0.7-0.4-1.5-0.4-2.5
					s0.1-1.7,0.4-2.5s0.7-1.3,1.1-1.9c0.5-0.5,1-0.9,1.6-1.2c0.6-0.3,1.2-0.4,1.9-0.4c0.7,0,1.3,0.1,1.9,0.4c0.6,0.2,1,0.6,1.4,1.1
					c0.4,0.5,0.7,1,0.9,1.7c0.2,0.6,0.3,1.4,0.3,2.2c0,0.2,0,0.4,0,0.6c0,0.2,0,0.4-0.1,0.5h-7.5c0.1,1.2,0.4,2.1,1.1,2.8
					c0.7,0.7,1.5,1,2.6,1c0.5,0,1-0.1,1.5-0.2s0.9-0.4,1.3-0.6l0.7,1.2c-0.5,0.3-1,0.6-1.6,0.8
					C-6505.5,850.7-6506.2,850.8-6507,850.8z M-6510.5,844h6c0-1.1-0.2-2-0.7-2.6c-0.5-0.6-1.2-0.9-2-0.9c-0.4,0-0.8,0.1-1.1,0.2
					c-0.4,0.2-0.7,0.4-1,0.7c-0.3,0.3-0.5,0.7-0.7,1.1C-6510.3,843-6510.4,843.5-6510.5,844z"/>
				<path class="st3" d="M-6492,850.8c-0.6,0-1.1-0.1-1.5-0.3s-0.7-0.4-1-0.8s-0.4-0.7-0.5-1.2c-0.1-0.5-0.2-1-0.2-1.5v-6.2h-1.7
					v-1.4l1.7-0.1l0.2-3.1h1.6v3.1h3v1.5h-3v6.2c0,0.7,0.1,1.2,0.4,1.6s0.7,0.6,1.3,0.6c0.2,0,0.4,0,0.6-0.1
					c0.2-0.1,0.4-0.1,0.6-0.2l0.4,1.4c-0.3,0.1-0.6,0.2-1,0.3C-6491.3,850.7-6491.6,850.8-6492,850.8z"/>
				<path class="st3" d="M-6483.7,850.8c-0.7,0-1.3-0.1-2-0.4s-1.2-0.6-1.6-1.1c-0.5-0.5-0.9-1.1-1.1-1.8c-0.3-0.7-0.4-1.6-0.4-2.5
					c0-0.9,0.1-1.8,0.4-2.5s0.7-1.3,1.1-1.9c0.5-0.5,1-0.9,1.6-1.2c0.6-0.3,1.3-0.4,2-0.4s1.3,0.1,2,0.4c0.6,0.3,1.2,0.6,1.6,1.2
					c0.5,0.5,0.9,1.1,1.1,1.9s0.4,1.6,0.4,2.5c0,0.9-0.1,1.7-0.4,2.5c-0.3,0.7-0.7,1.3-1.1,1.8c-0.5,0.5-1,0.9-1.6,1.1
					C-6482.3,850.6-6483,850.8-6483.7,850.8z M-6483.7,849.2c0.5,0,0.9-0.1,1.3-0.3c0.4-0.2,0.7-0.5,1-0.9c0.3-0.4,0.5-0.8,0.7-1.3
					c0.2-0.5,0.2-1.1,0.2-1.7c0-0.6-0.1-1.2-0.2-1.8c-0.2-0.5-0.4-1-0.7-1.4c-0.3-0.4-0.6-0.7-1-0.9c-0.4-0.2-0.8-0.3-1.3-0.3
					c-0.5,0-0.9,0.1-1.3,0.3c-0.4,0.2-0.7,0.5-1,0.9c-0.3,0.4-0.5,0.8-0.7,1.4c-0.2,0.5-0.2,1.1-0.2,1.8c0,0.6,0.1,1.2,0.2,1.7
					c0.2,0.5,0.4,1,0.7,1.3c0.3,0.4,0.6,0.7,1,0.9C-6484.6,849.1-6484.2,849.2-6483.7,849.2z"/>
				<path class="st3" d="M-6471,850.5v-11.2h1.6l0.2,1.6h0.1c0.5-0.5,1-1,1.6-1.3c0.6-0.4,1.2-0.5,1.9-0.5c0.9,0,1.5,0.2,2,0.6
					c0.5,0.4,0.8,0.9,1.1,1.6c0.6-0.6,1.2-1.2,1.8-1.6c0.6-0.4,1.2-0.6,1.9-0.6c1.1,0,2,0.4,2.6,1.1c0.6,0.7,0.8,1.8,0.8,3.3v7.1
					h-1.9v-6.8c0-1.1-0.2-1.8-0.5-2.3s-0.9-0.7-1.6-0.7c-0.8,0-1.8,0.6-2.8,1.7v8.1h-1.9v-6.8c0-1.1-0.2-1.8-0.5-2.3
					c-0.3-0.5-0.9-0.7-1.6-0.7c-0.8,0-1.8,0.6-2.8,1.7v8.1H-6471z"/>
				<path class="st3" d="M-6449.3,850.8c-0.9,0-1.7-0.3-2.3-0.8s-0.9-1.3-0.9-2.3c0-1.2,0.5-2.2,1.6-2.8c1.1-0.7,2.8-1.1,5.2-1.4
					c0-0.4,0-0.7-0.1-1c-0.1-0.3-0.2-0.6-0.4-0.9s-0.4-0.5-0.7-0.6c-0.3-0.2-0.7-0.2-1.1-0.2c-0.6,0-1.3,0.1-1.8,0.4
					c-0.6,0.2-1.1,0.5-1.5,0.8l-0.7-1.3c0.5-0.3,1.2-0.7,1.9-1c0.8-0.3,1.6-0.5,2.5-0.5c1.4,0,2.4,0.4,3,1.3c0.6,0.8,0.9,2,0.9,3.3
					v6.9h-1.6l-0.2-1.3h-0.1c-0.5,0.4-1.1,0.8-1.7,1.1C-6448,850.6-6448.6,850.8-6449.3,850.8z M-6448.8,849.3c0.5,0,1-0.1,1.5-0.4
					c0.5-0.3,1-0.6,1.5-1.1v-3.1c-0.9,0.1-1.7,0.3-2.4,0.4c-0.6,0.2-1.1,0.4-1.5,0.6c-0.4,0.2-0.7,0.5-0.9,0.8s-0.3,0.6-0.3,1
					c0,0.6,0.2,1.1,0.6,1.4C-6449.8,849.1-6449.3,849.3-6448.8,849.3z"/>
				<path class="st3" d="M-6440.3,850.5v-16.4h1.9v11.1h0.1l4.8-5.9h2.1l-3.7,4.5l4.3,6.7h-2.1l-3.3-5.4l-2.1,2.4v2.9H-6440.3z"/>
				<path class="st3" d="M-6424.8,850.8c-0.8,0-1.5-0.1-2.1-0.4c-0.7-0.3-1.2-0.7-1.7-1.1s-0.9-1.1-1.1-1.8
					c-0.3-0.7-0.4-1.5-0.4-2.5s0.1-1.7,0.4-2.5s0.7-1.3,1.1-1.9c0.5-0.5,1-0.9,1.6-1.2c0.6-0.3,1.2-0.4,1.9-0.4
					c0.7,0,1.3,0.1,1.9,0.4c0.6,0.2,1,0.6,1.4,1.1c0.4,0.5,0.7,1,0.9,1.7c0.2,0.6,0.3,1.4,0.3,2.2c0,0.2,0,0.4,0,0.6
					c0,0.2,0,0.4-0.1,0.5h-7.5c0.1,1.2,0.4,2.1,1.1,2.8c0.7,0.7,1.5,1,2.6,1c0.5,0,1-0.1,1.5-0.2s0.9-0.4,1.3-0.6l0.7,1.2
					c-0.5,0.3-1,0.6-1.6,0.8C-6423.4,850.7-6424,850.8-6424.8,850.8z M-6428.3,844h6c0-1.1-0.2-2-0.7-2.6c-0.5-0.6-1.2-0.9-2-0.9
					c-0.4,0-0.8,0.1-1.1,0.2c-0.4,0.2-0.7,0.4-1,0.7c-0.3,0.3-0.5,0.7-0.7,1.1C-6428.1,843-6428.3,843.5-6428.3,844z"/>
				<path class="st3" d="M-6410.8,850.8c-0.9,0-1.7-0.3-2.3-0.8s-0.9-1.3-0.9-2.3c0-1.2,0.5-2.2,1.6-2.8c1.1-0.7,2.8-1.1,5.2-1.4
					c0-0.4,0-0.7-0.1-1c-0.1-0.3-0.2-0.6-0.4-0.9s-0.4-0.5-0.7-0.6c-0.3-0.2-0.7-0.2-1.1-0.2c-0.6,0-1.3,0.1-1.8,0.4
					c-0.6,0.2-1.1,0.5-1.5,0.8l-0.7-1.3c0.5-0.3,1.2-0.7,1.9-1c0.8-0.3,1.6-0.5,2.5-0.5c1.4,0,2.4,0.4,3,1.3c0.6,0.8,0.9,2,0.9,3.3
					v6.9h-1.6l-0.2-1.3h-0.1c-0.5,0.4-1.1,0.8-1.7,1.1C-6409.4,850.6-6410,850.8-6410.8,850.8z M-6410.2,849.3c0.5,0,1-0.1,1.5-0.4
					c0.5-0.3,1-0.6,1.5-1.1v-3.1c-0.9,0.1-1.7,0.3-2.4,0.4c-0.6,0.2-1.1,0.4-1.5,0.6c-0.4,0.2-0.7,0.5-0.9,0.8s-0.3,0.6-0.3,1
					c0,0.6,0.2,1.1,0.6,1.4C-6411.2,849.1-6410.8,849.3-6410.2,849.3z"/>
				<path class="st3" d="M-6397.1,855.2v-15.9h1.6l0.2,1.3h0.1c0.5-0.4,1.1-0.8,1.7-1.1s1.2-0.5,1.9-0.5c0.7,0,1.4,0.1,1.9,0.4
					c0.6,0.3,1,0.7,1.4,1.2c0.4,0.5,0.6,1.1,0.8,1.8c0.2,0.7,0.3,1.5,0.3,2.4c0,1-0.1,1.8-0.4,2.5c-0.3,0.7-0.6,1.4-1.1,1.9
					c-0.4,0.5-1,0.9-1.5,1.2c-0.6,0.3-1.2,0.4-1.8,0.4c-0.5,0-1-0.1-1.6-0.3c-0.5-0.2-1-0.5-1.6-0.9l0,2v3.8H-6397.1z
					 M-6392.5,849.2c0.5,0,0.9-0.1,1.3-0.3c0.4-0.2,0.7-0.5,1-0.9s0.5-0.8,0.7-1.4c0.2-0.6,0.2-1.2,0.2-1.9c0-0.6-0.1-1.2-0.2-1.7
					s-0.3-0.9-0.5-1.3c-0.2-0.4-0.5-0.6-0.9-0.8c-0.4-0.2-0.8-0.3-1.3-0.3c-0.5,0-1,0.1-1.4,0.4s-1,0.6-1.6,1.1v5.9
					c0.5,0.4,1,0.7,1.5,0.9C-6393.3,849.1-6392.9,849.2-6392.5,849.2z"/>
				<path class="st3" d="M-6381.1,850.8c-1.2,0-2.1-0.4-2.6-1.1c-0.5-0.7-0.8-1.8-0.8-3.3v-7.1h1.9v6.8c0,1.1,0.2,1.8,0.5,2.3
					s0.9,0.7,1.6,0.7c0.6,0,1.1-0.1,1.5-0.4c0.4-0.3,0.9-0.8,1.5-1.4v-7.9h1.9v11.2h-1.6l-0.2-1.7h-0.1c-0.5,0.6-1.1,1.1-1.6,1.5
					C-6379.6,850.6-6380.3,850.8-6381.1,850.8z"/>
				<path class="st3" d="M-6371.9,850.5v-11.2h1.6l0.2,2h0.1c0.4-0.7,0.8-1.3,1.4-1.7c0.5-0.4,1.1-0.6,1.8-0.6
					c0.4,0,0.8,0.1,1.2,0.2l-0.4,1.7c-0.2-0.1-0.4-0.1-0.5-0.1c-0.2,0-0.3,0-0.6,0c-0.5,0-1,0.2-1.5,0.6c-0.5,0.4-1,1-1.3,2v7.2
					H-6371.9z"/>
				<path class="st3" d="M-6359.7,850.8c-0.7,0-1.4-0.1-2.1-0.4s-1.2-0.6-1.7-1.1c-0.5-0.5-0.8-1.1-1.1-1.8
					c-0.3-0.7-0.4-1.6-0.4-2.5c0-0.9,0.1-1.8,0.4-2.5c0.3-0.7,0.7-1.3,1.2-1.9c0.5-0.5,1.1-0.9,1.7-1.2c0.7-0.3,1.3-0.4,2.1-0.4
					c0.7,0,1.4,0.1,1.9,0.4c0.5,0.3,1,0.6,1.4,0.9l-1,1.2c-0.3-0.3-0.7-0.5-1-0.7c-0.4-0.2-0.8-0.3-1.2-0.3c-0.5,0-1,0.1-1.4,0.3
					s-0.8,0.5-1.1,0.9c-0.3,0.4-0.5,0.8-0.7,1.4c-0.2,0.5-0.3,1.1-0.3,1.8c0,0.6,0.1,1.2,0.3,1.7c0.2,0.5,0.4,1,0.7,1.3
					c0.3,0.4,0.7,0.7,1.1,0.9s0.9,0.3,1.4,0.3c0.5,0,1-0.1,1.4-0.3c0.4-0.2,0.8-0.5,1.2-0.8l0.8,1.3c-0.5,0.4-1.1,0.8-1.7,1
					S-6359,850.8-6359.7,850.8z"/>
				<path class="st3" d="M-6353.6,850.5v-16.4h1.9v4.5l-0.1,2.3c0.5-0.5,1.1-0.9,1.7-1.3s1.3-0.5,2-0.5c1.2,0,2,0.4,2.6,1.1
					c0.5,0.7,0.8,1.8,0.8,3.3v7.1h-1.9v-6.8c0-1.1-0.2-1.8-0.5-2.3c-0.3-0.5-0.9-0.7-1.6-0.7c-0.6,0-1.1,0.1-1.5,0.4s-1,0.7-1.5,1.3
					v8.1H-6353.6z"/>
				<path class="st3" d="M-6338.5,850.8c-0.9,0-1.7-0.3-2.3-0.8s-0.9-1.3-0.9-2.3c0-1.2,0.5-2.2,1.6-2.8c1.1-0.7,2.8-1.1,5.2-1.4
					c0-0.4,0-0.7-0.1-1c-0.1-0.3-0.2-0.6-0.4-0.9s-0.4-0.5-0.7-0.6s-0.7-0.2-1.1-0.2c-0.6,0-1.3,0.1-1.8,0.4
					c-0.6,0.2-1.1,0.5-1.5,0.8l-0.7-1.3c0.5-0.3,1.2-0.7,1.9-1c0.8-0.3,1.6-0.5,2.5-0.5c1.4,0,2.4,0.4,3,1.3s0.9,2,0.9,3.3v6.9h-1.6
					l-0.2-1.3h-0.1c-0.5,0.4-1.1,0.8-1.7,1.1C-6337.2,850.6-6337.8,850.8-6338.5,850.8z M-6338,849.3c0.5,0,1-0.1,1.5-0.4
					s1-0.6,1.5-1.1v-3.1c-0.9,0.1-1.7,0.3-2.4,0.4c-0.6,0.2-1.1,0.4-1.5,0.6c-0.4,0.2-0.7,0.5-0.9,0.8c-0.2,0.3-0.3,0.6-0.3,1
					c0,0.6,0.2,1.1,0.6,1.4C-6339,849.1-6338.5,849.3-6338,849.3z"/>
				<path class="st3" d="M-6326.6,850.8c-0.8,0-1.6-0.1-2.3-0.4s-1.3-0.7-1.9-1.1l0.9-1.3c0.5,0.4,1,0.7,1.5,1
					c0.5,0.2,1.1,0.4,1.8,0.4c0.7,0,1.3-0.2,1.7-0.5c0.4-0.3,0.6-0.8,0.6-1.2c0-0.3-0.1-0.5-0.2-0.8c-0.2-0.2-0.3-0.4-0.6-0.6
					c-0.2-0.2-0.5-0.3-0.8-0.4c-0.3-0.1-0.6-0.2-0.9-0.4c-0.4-0.1-0.8-0.3-1.2-0.5c-0.4-0.2-0.8-0.4-1.1-0.6s-0.6-0.5-0.8-0.9
					c-0.2-0.3-0.3-0.7-0.3-1.2c0-0.4,0.1-0.9,0.3-1.3c0.2-0.4,0.4-0.7,0.8-1c0.3-0.3,0.7-0.5,1.2-0.7c0.5-0.2,1-0.2,1.6-0.2
					c0.7,0,1.4,0.1,1.9,0.4s1.1,0.5,1.5,0.9l-0.9,1.2c-0.4-0.3-0.8-0.5-1.2-0.7s-0.9-0.3-1.4-0.3c-0.7,0-1.2,0.2-1.6,0.5
					c-0.3,0.3-0.5,0.7-0.5,1.1c0,0.3,0.1,0.5,0.2,0.7c0.1,0.2,0.3,0.4,0.6,0.5c0.2,0.1,0.5,0.3,0.8,0.4c0.3,0.1,0.6,0.2,0.9,0.4
					c0.4,0.2,0.8,0.3,1.2,0.5c0.4,0.2,0.8,0.4,1.1,0.6s0.6,0.6,0.8,0.9c0.2,0.4,0.3,0.8,0.3,1.3c0,0.5-0.1,0.9-0.3,1.3
					c-0.2,0.4-0.4,0.8-0.8,1.1s-0.8,0.5-1.3,0.7C-6325.3,850.7-6325.9,850.8-6326.6,850.8z"/>
				<path class="st3" d="M-6315.3,850.8c-0.8,0-1.5-0.1-2.1-0.4c-0.7-0.3-1.2-0.7-1.7-1.1c-0.5-0.5-0.9-1.1-1.1-1.8
					c-0.3-0.7-0.4-1.5-0.4-2.5s0.1-1.7,0.4-2.5c0.3-0.7,0.7-1.3,1.1-1.9c0.5-0.5,1-0.9,1.6-1.2c0.6-0.3,1.2-0.4,1.9-0.4
					c0.7,0,1.3,0.1,1.9,0.4c0.6,0.2,1,0.6,1.4,1.1c0.4,0.5,0.7,1,0.9,1.7c0.2,0.6,0.3,1.4,0.3,2.2c0,0.2,0,0.4,0,0.6
					c0,0.2,0,0.4-0.1,0.5h-7.5c0.1,1.2,0.4,2.1,1.1,2.8c0.7,0.7,1.5,1,2.6,1c0.5,0,1-0.1,1.5-0.2s0.9-0.4,1.3-0.6l0.7,1.2
					c-0.5,0.3-1,0.6-1.6,0.8C-6313.9,850.7-6314.6,850.8-6315.3,850.8z M-6318.9,844h6c0-1.1-0.2-2-0.7-2.6c-0.5-0.6-1.2-0.9-2-0.9
					c-0.4,0-0.8,0.1-1.1,0.2c-0.4,0.2-0.7,0.4-1,0.7s-0.5,0.7-0.7,1.1C-6318.7,843-6318.8,843.5-6318.9,844z"/>
				<path class="st3" d="M-6307.5,850.8c-0.4,0-0.7-0.1-1-0.4c-0.3-0.3-0.4-0.6-0.4-1c0-0.4,0.1-0.8,0.4-1.1c0.3-0.3,0.6-0.4,1-0.4
					c0.4,0,0.7,0.1,1,0.4c0.3,0.3,0.4,0.6,0.4,1.1c0,0.4-0.1,0.8-0.4,1C-6306.8,850.6-6307.1,850.8-6307.5,850.8z"/>
			</g>
			<path id="Icon_ionic-ios-arrow-dropright-circle" class="st3" d="M-6591,977.6c0,8.1,6.5,14.6,14.6,14.6s14.6-6.5,14.6-14.6
				c0-8.1-6.5-14.6-14.6-14.6C-6584.5,963-6591,969.5-6591,977.6C-6591,977.6-6591,977.6-6591,977.6z M-6573.8,977.6l-5.8-5.7
				c-0.5-0.5-0.5-1.4,0-1.9c0.5-0.5,1.4-0.5,1.9,0l6.7,6.7c0.5,0.5,0.5,1.3,0,1.9l-6.6,6.6c-0.5,0.5-1.4,0.6-1.9,0
				c-0.5-0.5-0.6-1.4,0-1.9c0,0,0,0,0,0L-6573.8,977.6z"/>
		</g>
		<g id="Group_1826" transform="translate(6676 -385)">
			<circle id="Ellipse_89" class="st4" cx="-6523.5" cy="535.5" r="67.5"/>
			<g id="_01-Award" transform="translate(-6569 490)">
				<path id="Path_1585" class="st5" d="M63.9,85.1v5.8H26.2v-5.8H63.9z"/>
				<path id="Path_1586" class="st6" d="M61,75v10.2H29.1V75H61z"/>
				<path id="Path_1587" class="st7" d="M20.4,27.1v8.7c0,3.2,1.8,6.2,4.6,7.7c-0.2-1.1-0.3-2.2-0.3-3.4v-13H20.4z M69.7,35.8v-8.7
					h-4.4v13.1c0,1.1-0.1,2.2-0.3,3.3C68,42,69.7,39,69.7,35.8L69.7,35.8z M74.1,22.8v14.5c0,6-4.6,11.1-10.6,11.6
					c-2.6,5.6-7.6,9.6-13.6,11.1c0.7,3.7,2.3,10.9,5.4,15.1H34.9c3.1-4.2,4.8-11.4,5.4-15.1c-6-1.4-11-5.5-13.6-11.1
					c-6-0.5-10.7-5.5-10.6-11.6V22.8h8.7V17h40.6v5.8H74.1z M50.1,38.6l5.1-5.2l-7-1.1l-3.1-6.7l-3.1,6.7l-7,1.1l5.1,5.2L38.8,46
					l6.3-3.5l6.3,3.5L50.1,38.6z"/>
				<path id="Path_1588" class="st8" d="M29.1,75v10.2H61v-4.4H37.8c-2.4,0-4.4-1.9-4.4-4.4c0,0,0,0,0,0V75H29.1z"/>
				<path id="Path_1589" class="st9" d="M26.2,85.1v5.8h37.7V88h-29c-1.6,0-2.9-1.3-2.9-2.9c0,0,0,0,0,0H26.2z"/>
				<path id="Path_1590" class="st10" d="M33.5,40.2V17h-8.7v5.8h-8.7v14.5c0,6,4.6,11.1,10.6,11.6c2.6,5.6,7.6,9.6,13.6,11.1
					c-0.7,3.7-2.3,10.9-5.4,15.1h20.3c-3.1-4.1-4.7-11.2-5.4-14.9C40.3,58.2,33.5,49.9,33.5,40.2L33.5,40.2z M20.4,35.8v-8.7h4.3
					v13.1c0,1.1,0.1,2.2,0.3,3.4C22.2,42,20.4,39,20.4,35.8L20.4,35.8z"/>
				<path id="Path_1591" class="st10" d="M65.4,22.8v4.4h4.4v8.7c0,3.2-1.8,6.2-4.6,7.7c0-0.2,0.1-0.5,0.1-0.7
					c-0.3,2.2-0.9,4.3-1.9,6.3c0-0.1,0.1-0.2,0.1-0.3c6-0.5,10.6-5.5,10.6-11.6V22.8H65.4z"/>
				<path id="Path_1592" class="st11" d="M25,43.5c-2.8-1.5-4.6-4.5-4.6-7.7v-8.7h4.3v-4.4h-8.7v14.5c0,6,4.6,11.1,10.6,11.6
					c0,0.1,0.1,0.2,0.1,0.3c-1-2-1.6-4.2-1.9-6.4C25,43,25,43.3,25,43.5z"/>
				<path id="Path_1593" class="st12" d="M45.1,8.3c-0.8,0-1.5-0.6-1.5-1.5c0,0,0,0,0,0V2.5c0-0.8,0.6-1.5,1.4-1.5
					c0.8,0,1.5,0.6,1.5,1.4c0,0,0,0.1,0,0.1v4.3C46.5,7.6,45.9,8.3,45.1,8.3C45.1,8.3,45.1,8.3,45.1,8.3z"/>
				<path id="Path_1594" class="st12" d="M45.1,14.1c-0.8,0-1.5-0.6-1.5-1.5c0,0,0,0,0,0v-1.4c0-0.8,0.6-1.5,1.4-1.5
					s1.5,0.6,1.5,1.4c0,0,0,0.1,0,0.1v1.4C46.5,13.4,45.9,14.1,45.1,14.1z"/>
				<path id="Path_1595" class="st12" d="M69.7,15.5c-0.8,0-1.5-0.7-1.4-1.5c0-0.4,0.2-0.8,0.4-1l4.4-4.4c0.5-0.6,1.5-0.6,2.1-0.1
					c0.6,0.5,0.6,1.5,0.1,2.1c0,0,0,0-0.1,0.1l-4.4,4.4C70.5,15.4,70.1,15.5,69.7,15.5z"/>
				<path id="Path_1596" class="st12" d="M56.7,14.1c-0.8,0-1.5-0.6-1.5-1.4c0-0.3,0.1-0.5,0.2-0.7l0.8-1.5c0.4-0.7,1.3-1,2-0.6
					c0.7,0.4,1,1.3,0.6,2c0,0,0,0,0,0l-0.8,1.5C57.7,13.8,57.2,14.1,56.7,14.1L56.7,14.1z"/>
				<path id="Path_1597" class="st12" d="M60,8.2c-0.3,0-0.5-0.1-0.7-0.2c-0.7-0.4-0.9-1.3-0.5-2c0,0,0,0,0,0l1.7-2.9
					c0.4-0.7,1.3-0.9,2-0.5s0.9,1.3,0.5,2l0,0l-1.7,2.9C61,8,60.5,8.3,60,8.2z"/>
				<path id="Path_1598" class="st12" d="M20.4,15.5c-0.4,0-0.8-0.2-1-0.4L15,10.7c-0.6-0.5-0.6-1.5-0.1-2.1
					c0.5-0.6,1.5-0.6,2.1-0.1c0,0,0,0,0.1,0.1l4.4,4.4c0.6,0.6,0.6,1.5,0,2.1C21.2,15.4,20.8,15.5,20.4,15.5z"/>
				<path id="Path_1599" class="st12" d="M33.5,14.1c-0.5,0-1-0.3-1.3-0.7l-0.8-1.5c-0.4-0.7-0.1-1.6,0.6-2c0.7-0.4,1.5-0.1,1.9,0.5
					l0.8,1.5c0.4,0.7,0.2,1.6-0.5,2C34,14,33.7,14.1,33.5,14.1L33.5,14.1z"/>
				<path id="Path_1600" class="st12" d="M30.2,8.2c-0.5,0-1-0.3-1.3-0.7l-1.7-2.9c-0.4-0.7-0.2-1.6,0.5-2s1.6-0.2,2,0.5l1.7,2.9
					c0.4,0.7,0.2,1.6-0.5,2c0,0,0,0,0,0C30.6,8.2,30.4,8.2,30.2,8.2z"/>
				<path id="Path_1601" class="st12" d="M85.7,22.8h-4.3c-0.8,0-1.4-0.7-1.4-1.5c0-0.8,0.6-1.4,1.4-1.4h4.3c0.8,0,1.5,0.6,1.5,1.4
					c0,0.8-0.6,1.5-1.4,1.5C85.8,22.8,85.7,22.8,85.7,22.8z"/>
				<path id="Path_1602" class="st12" d="M8.8,22.8H4.5c-0.8,0-1.4-0.7-1.4-1.5c0-0.8,0.6-1.4,1.4-1.4h4.3c0.8,0,1.4,0.7,1.4,1.5
					C10.2,22.1,9.6,22.7,8.8,22.8z"/>
			</g>
		</g>
	</g>
</g>
</svg>
