<svg xmlns="http://www.w3.org/2000/svg" xmlns:xlink="http://www.w3.org/1999/xlink" width="142" height="150" viewBox="0 0 142 150">
  <defs>
    <clipPath id="clip-Pay_your_electricity_bill_">
      <rect width="142" height="150"/>
    </clipPath>
  </defs>
  <g id="Pay_your_electricity_bill_" data-name="Pay your electricity bill " clip-path="url(#clip-Pay_your_electricity_bill_)">
    <g id="Group_1828" data-name="Group 1828" transform="translate(-1310 -2596)">
      <circle id="Ellipse_82" data-name="Ellipse 82" cx="67.5" cy="67.5" r="67.5" transform="translate(1314 2604)" fill="#faf8f6"/>
      <g id="receipt" transform="translate(1301.622 2607.938)">
        <g id="Group_1737" data-name="Group 1737" transform="translate(46.311 27.619)">
          <g id="Group_1725" data-name="Group 1725" transform="translate(0 45.367)">
            <path id="Path_2137" data-name="Path 2137" d="M127.627,327H87.234a5.472,5.472,0,1,1,0-10.944h40.393a5.472,5.472,0,1,1,0,10.944Z" transform="translate(-81.762 -316.052)" fill="#0091c8"/>
          </g>
          <g id="Group_1726" data-name="Group 1726" transform="translate(32.551 0)">
            <path id="Path_2138" data-name="Path 2138" d="M290.851,71.688l2.816-2.816,2.816,2.816,2.816-2.816.154.154V55.492a6.731,6.731,0,0,0-6.731-6.731H273.545V72.155h11.207l3.283-3.283Z" transform="translate(-273.545 -48.761)" fill="#afe6ff"/>
          </g>
          <g id="Group_1727" data-name="Group 1727" transform="translate(32.551)">
            <path id="Path_2139" data-name="Path 2139" d="M284.752,72.155l3.283-3.283,1.736,1.736V55.492a6.732,6.732,0,0,1,4.841-6.46,6.731,6.731,0,0,0-1.89-.271H273.545V72.155h11.207Z" transform="translate(-273.545 -48.761)" fill="#94deff"/>
          </g>
          <g id="Group_1728" data-name="Group 1728" transform="translate(4.901 49.201)">
            <path id="Path_2140" data-name="Path 2140" d="M150.344,342.185H112.413a1.773,1.773,0,1,1,0-3.546h37.932a1.773,1.773,0,1,1,0,3.546Z" transform="translate(-110.64 -338.639)" fill="#0073aa"/>
          </g>
          <g id="Group_1729" data-name="Group 1729" transform="translate(6.674 0)">
            <path id="Path_2141" data-name="Path 2141" d="M165.747,48.761H127.816a6.731,6.731,0,0,0-6.731,6.731V99.735h37.931V55.492A6.731,6.731,0,0,1,165.747,48.761Z" transform="translate(-121.085 -48.761)" fill="#afe6ff"/>
          </g>
          <g id="Group_1731" data-name="Group 1731" transform="translate(12.098 11.577)">
            <path id="Path_2143" data-name="Path 2143" d="M153.039,116.971h15.45v3.554h-15.45Z" transform="translate(-153.039 -116.971)" fill="#fd4e26"/>
          </g>
          <g id="Group_1732" data-name="Group 1732" transform="translate(33.873 11.577)">
            <path id="Path_2144" data-name="Path 2144" d="M281.331,116.971h5.427v3.554h-5.427Z" transform="translate(-281.331 -116.971)" fill="#ffcb02"/>
          </g>
          <g id="Group_1733" data-name="Group 1733" transform="translate(12.098 21.276)">
            <path id="Path_2145" data-name="Path 2145" d="M153.039,174.113h15.45v3.554h-15.45Z" transform="translate(-153.039 -174.113)" fill="#fd4e26"/>
          </g>
          <g id="Group_1734" data-name="Group 1734" transform="translate(33.873 21.276)">
            <path id="Path_2146" data-name="Path 2146" d="M281.331,174.113h5.427v3.554h-5.427Z" transform="translate(-281.331 -174.113)" fill="#ffcb02"/>
          </g>
          <g id="Group_1735" data-name="Group 1735" transform="translate(12.098 31.27)">
            <path id="Path_2147" data-name="Path 2147" d="M153.039,233h15.45v3.554h-15.45Z" transform="translate(-153.039 -232.999)" fill="#fd4e26"/>
          </g>
          <g id="Group_1736" data-name="Group 1736" transform="translate(33.873 31.27)">
            <path id="Path_2148" data-name="Path 2148" d="M281.331,233h5.427v3.554h-5.427Z" transform="translate(-281.331 -232.999)" fill="#ffcb02"/>
          </g>
        </g>
        <g id="Group_1751" data-name="Group 1751" transform="translate(61.886 71.637)">
          <g id="Group_1738" data-name="Group 1738" transform="translate(0)">
            <path id="Path_2149" data-name="Path 2149" d="M173.526,308.107H219.1v22.041H173.526Z" transform="translate(-173.526 -308.107)" fill="#5d913f"/>
          </g>
          <g id="Group_1739" data-name="Group 1739" transform="translate(0)">
            <path id="Path_2150" data-name="Path 2150" d="M216.435,310.767v16.721H176.186V310.767Zm2.66-2.66H173.526v22.041H219.1Z" transform="translate(-173.526 -308.107)" fill="#3d772a"/>
          </g>
          <g id="Group_1740" data-name="Group 1740">
            <path id="Path_2151" data-name="Path 2151" d="M173.525,314.37a4.486,4.486,0,0,0,6.234-6.263h-6.234v6.263Z" transform="translate(-173.525 -308.107)" fill="#3d772a"/>
          </g>
          <g id="Group_1741" data-name="Group 1741" transform="translate(0 15.038)">
            <path id="Path_2152" data-name="Path 2152" d="M176.093,396.706a4.464,4.464,0,0,0-2.567.808v6.2h6.282a4.487,4.487,0,0,0-3.715-7Z" transform="translate(-173.526 -396.706)" fill="#3d772a"/>
          </g>
          <g id="Group_1742" data-name="Group 1742" transform="translate(38.03 0)">
            <path id="Path_2153" data-name="Path 2153" d="M397.588,310.691a4.486,4.486,0,0,0,7.539,3.287v-5.872h-6.719A4.465,4.465,0,0,0,397.588,310.691Z" transform="translate(-397.588 -308.107)" fill="#3d772a"/>
          </g>
          <g id="Group_1743" data-name="Group 1743" transform="translate(38.03 15.038)">
            <path id="Path_2154" data-name="Path 2154" d="M405.127,397.9a4.487,4.487,0,0,0-6.767,5.8h6.767Z" transform="translate(-397.588 -396.705)" fill="#3d772a"/>
          </g>
          <g id="Group_1744" data-name="Group 1744" transform="translate(15.294 3.53)">
            <circle id="Ellipse_80" data-name="Ellipse 80" cx="7.49" cy="7.49" r="7.49" fill="#3d772a"/>
          </g>
          <g id="Group_1746" data-name="Group 1746" transform="translate(4.565 9.602)">
            <g id="Group_1745" data-name="Group 1745">
              <path id="Path_2155" data-name="Path 2155" d="M200.42,364.679h8.607v2.837H200.42Z" transform="translate(-200.42 -364.679)" fill="#6eaa50"/>
            </g>
          </g>
          <g id="Group_1748" data-name="Group 1748" transform="translate(32.409 9.602)">
            <g id="Group_1747" data-name="Group 1747">
              <path id="Path_2156" data-name="Path 2156" d="M364.469,364.679h8.607v2.837h-8.607Z" transform="translate(-364.469 -364.679)" fill="#6eaa50"/>
            </g>
          </g>
          <g id="Group_1750" data-name="Group 1750" transform="translate(20.165 6.084)">
            <g id="Group_1749" data-name="Group 1749">
              <path id="Path_2157" data-name="Path 2157" d="M294.447,352.874a5.154,5.154,0,0,1-2.079-.46v-1.8l1.2-.085v.7c0,.218.036.3.242.375a1.981,1.981,0,0,0,.641.1V349.44c-1.112-.3-2.116-.774-2.116-2.176a2.2,2.2,0,0,1,2.116-2.2v-1.112h.907v1.088a5.029,5.029,0,0,1,1.874.459v1.7l-1.185.073v-.653c0-.218-.036-.3-.242-.375a2.454,2.454,0,0,0-.447-.085v2.128h.012c1.064.327,2.176.8,2.176,2.261a2.286,2.286,0,0,1-2.188,2.285v1.245h-.907Zm0-4.9v-1.741a.865.865,0,0,0-.629.895A.889.889,0,0,0,294.447,347.977Zm.907,1.753v1.886a.95.95,0,0,0,.689-1A.925.925,0,0,0,295.354,349.73Z" transform="translate(-292.331 -343.951)" fill="#6eaa50"/>
            </g>
          </g>
        </g>
        <g id="Group_1765" data-name="Group 1765" transform="translate(67.876 77.463)">
          <g id="Group_1752" data-name="Group 1752" transform="translate(0 0)">
            <path id="Path_2158" data-name="Path 2158" d="M208.819,342.432h45.569v22.041H208.819Z" transform="translate(-208.819 -342.432)" fill="#97d729"/>
          </g>
          <g id="Group_1753" data-name="Group 1753" transform="translate(0)">
            <path id="Path_2159" data-name="Path 2159" d="M251.728,345.092v16.721H211.479V345.092Zm2.66-2.66H208.819v22.041h45.569Z" transform="translate(-208.819 -342.432)" fill="#6eaa50"/>
          </g>
          <g id="Group_1754" data-name="Group 1754" transform="translate(0 0)">
            <path id="Path_2160" data-name="Path 2160" d="M208.818,348.7a4.486,4.486,0,0,0,6.234-6.263h-6.234V348.7Z" transform="translate(-208.818 -342.432)" fill="#6eaa50"/>
          </g>
          <g id="Group_1755" data-name="Group 1755" transform="translate(0 15.038)">
            <path id="Path_2161" data-name="Path 2161" d="M211.386,431.03a4.464,4.464,0,0,0-2.567.808v6.2H215.1a4.487,4.487,0,0,0-3.715-7Z" transform="translate(-208.819 -431.03)" fill="#6eaa50"/>
          </g>
          <g id="Group_1756" data-name="Group 1756" transform="translate(38.03 0)">
            <path id="Path_2162" data-name="Path 2162" d="M432.881,345.016a4.486,4.486,0,0,0,7.539,3.288v-5.872H433.7A4.464,4.464,0,0,0,432.881,345.016Z" transform="translate(-432.881 -342.432)" fill="#6eaa50"/>
          </g>
          <g id="Group_1757" data-name="Group 1757" transform="translate(38.03 15.038)">
            <path id="Path_2163" data-name="Path 2163" d="M440.42,432.229a4.487,4.487,0,0,0-6.767,5.8h6.767Z" transform="translate(-432.881 -431.03)" fill="#6eaa50"/>
          </g>
          <g id="Group_1758" data-name="Group 1758" transform="translate(15.294 3.53)">
            <circle id="Ellipse_81" data-name="Ellipse 81" cx="7.49" cy="7.49" r="7.49" fill="#6eaa50"/>
          </g>
          <g id="Group_1760" data-name="Group 1760" transform="translate(4.565 9.602)">
            <g id="Group_1759" data-name="Group 1759">
              <path id="Path_2164" data-name="Path 2164" d="M235.713,399h8.607v2.837h-8.607Z" transform="translate(-235.713 -399.004)" fill="#8bc727"/>
            </g>
          </g>
          <g id="Group_1762" data-name="Group 1762" transform="translate(32.409 9.602)">
            <g id="Group_1761" data-name="Group 1761">
              <path id="Path_2165" data-name="Path 2165" d="M399.762,399h8.607v2.837h-8.607Z" transform="translate(-399.762 -399.004)" fill="#8bc727"/>
            </g>
          </g>
          <g id="Group_1772" data-name="Group 1772" transform="translate(19.451 4.878)">
            <text id="N" transform="translate(0 9)" fill="#97d729" font-size="9" font-family="Gilroy-ExtraBold, Gilroy ☞" font-weight="800"><tspan x="0" y="0">N</tspan></text>
            <rect id="Rectangle_16982" data-name="Rectangle 16982" width="6.667" height="1.212" transform="translate(0 4.849)" fill="#97d729"/>
            <rect id="Rectangle_16983" data-name="Rectangle 16983" width="6.667" height="1.818" transform="translate(0 6.667)" fill="#97d729"/>
          </g>
        </g>
      </g>
    </g>
  </g>
</svg>
