<?xml version="1.0" encoding="utf-8"?>
<!-- Generator: Adobe Illustrator 23.0.5, SVG Export Plug-In . SVG Version: 6.00 Build 0)  -->
<svg version="1.1" id="Layer_1" xmlns="http://www.w3.org/2000/svg" xmlns:xlink="http://www.w3.org/1999/xlink" x="0px" y="0px"
	 viewBox="0 0 1000 1000" style="enable-background:new 0 0 1000 1000;" xml:space="preserve">
<style type="text/css">
	.st0{fill:none;stroke:#E8A54F;stroke-width:53.7642;stroke-miterlimit:10;}
	.st1{fill:#D38B3D;}
	.st2{fill:#FFD8C5;}
	.st3{fill:#F97171;}
	.st4{fill:#E55C5C;}
	.st5{fill:#F99192;}
	.st6{fill:none;stroke:#3A3144;stroke-width:2.1506;stroke-miterlimit:10;}
	.st7{fill:#3A3144;}
	.st8{fill:#D18C3D;}
	.st9{fill:none;stroke:#2E60B8;stroke-width:86.0228;stroke-miterlimit:10;}
	.st10{fill:#2E60B8;}
	.st11{fill:#124A9B;}
	.st12{fill:none;stroke:#71D2C1;stroke-width:34.4091;stroke-miterlimit:10;}
	.st13{fill:#71D2C1;}
	.st14{fill:#E8A54F;}
	.st15{fill:#FFECE5;}
	.st16{fill:#4F8AE0;}
	.st17{fill:#FFE2D9;}
</style>
<g>
	<path class="st0" d="M343.8,339.4c0,0-57.5,104.3-83.6,64"/>
	<path class="st1" d="M330.7,322.4l-47.9,23.2c0,0-16.4,64.8,21.5,46.6C343.8,373.4,330.7,322.4,330.7,322.4z"/>
	<g>
		<g>
			<path class="st2" d="M174.9,929.6c-15.5-7.8-29.3-18.9-39.9-32.6c-2.6-3.4-5.1-6.9-6.7-10.9c-1.4-3.6-2.3-7.9-0.6-11.5
				c3.5-7.3,13.3-6.7,19.9-5.1c9.3,2.3,17.7,7.5,24.1,14.6c1.2,1.4,3.5-0.4,2.5-2c-3.9-6.3-9.7-11.1-14.4-16.8
				c-2-2.4-3.9-5.1-4.8-8.1c-0.8-2.5-1-5.2-0.7-7.9c0.6-4.6,3.2-9.5,8.3-9.8c5-0.4,8.7,3.6,11.7,7c3.9,4.5,7.7,9.8,13.4,12.3
				c1.5,0.7,3.5-1.3,2-2.5c-10.5-8.4-19.7-18.4-27.2-29.6c-6.3-9.5-12.6-20.3-12.7-32c0-4.5,0.9-9.3,4.1-12.6
				c4.4-4.5,10.8-4.6,16.4-2.7c6.3,2.1,11.7,6.3,16.8,10.4c5,4.1,9.7,8.6,14.1,13.4c9.8,10.9,17.8,23.4,23.4,37
				c0.8,1.9,3.7,1.2,3.1-0.9c-2.1-6.9,0.9-14.8,6.7-19c6.2-4.5,14.5-3.5,20.1,1.3c3.2,2.7,5.4,6.4,6,10.6c0.2,1.6,2.8,1.5,3.1,0
				c2.1-8.8,5.4-19.5,16-20.4c10-0.8,18.1,5.9,23,14.1c3,5,5.1,10.4,7.2,15.9c0.7,1.7,3,1.4,3.2-0.4c0.8-9,1.7-18.5,6.1-26.6
				c3.5-6.5,9.9-12.5,17.6-13.2c8.3-0.8,15.5,4.6,20.9,10.4c5.9,6.3,10.7,13.7,14.7,21.2c4.6,8.7,8,18.1,10.1,27.7
				c0.4,1.7,3.4,1.4,3.2-0.4c-0.9-7.7-1.9-16.4,1.6-23.6c2.6-5.4,8.2-8.9,14.3-8.4c3,0.2,5.5,1.7,6.9,4.4c1,1.8,3.8,0.2,2.8-1.6
				c-3.3-6.1-11-7.1-17-4.9c-3.2,1.2-6.1,3.2-8.1,6c-2.6,3.6-3.8,8-4.3,12.4c-0.6,5.2,0,10.5,0.6,15.8c1.1-0.1,2.1-0.3,3.2-0.4
				c-4-18.2-12.5-35.8-25-49.7c-5.6-6.3-13.1-12-21.9-12.1c-8.4-0.1-15.8,5.3-20.5,12c-6.2,9-7.3,20.5-8.3,31.1
				c1.1-0.1,2.1-0.3,3.2-0.4c-3.9-10.2-8.2-21.6-17.7-27.9c-8.4-5.6-20.8-6.6-27.8,1.8c-3.9,4.7-5.5,10.8-6.9,16.6c1,0,2.1,0,3.1,0
				c-1.2-8.7-8.9-15.7-17.4-17c-8.7-1.3-16.9,3.8-20.5,11.8c-2,4.4-2.5,9.4-1.1,14.1c1-0.3,2.1-0.6,3.1-0.9
				c-5.3-12.8-12.5-24.7-21.5-35.3c-4.4-5.2-9.3-10.1-14.5-14.6c-5.3-4.6-11-9.1-17.5-12c-6.1-2.7-13.1-3.8-19.1-0.4
				c-4.4,2.5-7.1,7-8.1,12c-2.2,11.9,3.1,23.5,9,33.4c8.1,13.8,18.8,26.1,31.3,36.1c0.7-0.8,1.3-1.7,2-2.5
				c-5.4-2.3-8.9-7.4-12.6-11.7c-3.4-4-7.7-8.1-13.3-8.1c-5.9,0-10.2,4.3-11.7,9.8c-1.6,5.9-0.5,12.2,2.7,17.3
				c4.8,7.5,12.4,12.8,17.1,20.4c0.8-0.7,1.7-1.3,2.5-2c-6.1-6.9-14.1-12-22.9-14.7c-7.4-2.3-17.3-3.5-23.5,2.3
				c-7,6.6-3.5,17.1,1,24c5,7.8,11.6,14.9,18.5,21.1c7.9,7.1,16.8,13.2,26.3,17.9C175.1,933.3,176.8,930.5,174.9,929.6L174.9,929.6z
				"/>
		</g>
	</g>
	<g>
		<path class="st2" d="M711,946.5c-49.9-9.9-60.9-13.2-63.9-27.7c-3-14.5,62.5-43.1,62.7-58c0.1-7.4,1.9-15.1,6.8-20.6
			c4.9-5.5,13.6-8,20-4.3c6.5,3.8,8.5,12.1,9.9,19.5c8.1-4.9-0.3-18.6,4.6-26.8c2.7-4.4,9-5.7,13.7-3.5c4.6,2.2,7.6,7.1,8.5,12.2
			c1.3,7.2-1.1,14.7,0.1,22s9.1,14.4,15.3,10.6c2-1.2,3.3-3.3,4.3-5.3c3.4-6.9,4.6-14.9,3.3-22.5c-0.8-4.4-2.3-8.7-2.5-13.2
			c-0.2-4.5,1.3-9.5,5.2-11.7c3.9-2.2,10.1,0.2,10.1,4.7c2.3-8.4,5.2-17.6,12.6-22.3c10.1-6.3,25.4-2.1,33.2-11.1c1.8-2,3-4.7,5.4-6
			c4.5-2.5,10.2,1.4,12.5,6c8.2,16.6-8.6,35.1-8.2,53.6c0.2,8.2,3.9,16.4,2.1,24.4c-2.2,9.9-12,16.2-21.5,19.8
			c-9.5,3.6-19.9,5.7-27.8,12c-2.3,1.8-4.3,4.1-4.9,6.9c-0.6,2.8,0.9,6.2,3.7,6.9c2.3,0.6,4.7-0.7,7.1-0.9c4-0.2,7.8,3.5,7.7,7.5
			c-0.1,4-4.2,7.5-8.2,7c6.3-1.6,10.9,7.6,7.9,13.4c-3,5.8-9.8,8.4-16,10.5"/>
	</g>
	<g>
		<path class="st3" d="M628.2,762.7H466.9V540.7h80.6c33.3,0,60.4-27.1,60.4-60.4c0-33.3-27.1-60.4-60.4-60.4
			c-33.3,0-60.4,27.1-60.4,60.4H325.9c0-122.2,99.4-221.6,221.6-221.6s221.6,99.4,221.6,221.6c0,93.8-58.5,174.1-141,206.5V762.7z"
			/>
	</g>
	<rect x="547.5" y="258.7" class="st3" width="80.6" height="142.8"/>
	<g>
		<rect x="466.9" y="839.7" class="st4" width="161.3" height="105"/>
	</g>
	<g>
		<path class="st5" d="M708.8,762.7H547.5V540.7h80.6c33.3,0,60.4-27.1,60.4-60.4c0-33.3-27.1-60.4-60.4-60.4
			c-33.3,0-60.4,27.1-60.4,60.4H406.5c0-122.2,99.4-221.6,221.6-221.6s221.6,99.4,221.6,221.6c0,93.8-58.5,174.1-141,206.5V762.7z"
			/>
	</g>
	<g>
		<path class="st3" d="M453.9,343.5l-17.5,136.8h131.4c0-0.7,0-1.4,0-2c0.4-13.4-3.1-26.6-10.8-37.6
			C519.1,386.5,453.9,343.5,453.9,343.5C453.9,343.5,453.9,343.5,453.9,343.5z"/>
		<path class="st3" d="M569.7,540.7h-22.2v8.9C555.8,548.2,563.5,545.4,569.7,540.7z"/>
	</g>
	<line class="st6" x1="499.1" y1="480.4" x2="567.8" y2="480.4"/>
	<g>
		<path class="st7" d="M384.4,892.5c0,0-8.6,45.4-11.1,67.8c-0.3,3-2.9,5.3-5.9,5.3h-67.3c-4.1,0-6.2-5-3.2-7.9
			c9.2-9,23.2-2.1,25.5-44.1c1.6-30.4,6-60.9,6-60.9"/>
		<path class="st7" d="M384.4,892.5c0,0-8.6,45.4-11.1,67.8c-0.3,3-2.9,5.3-5.9,5.3h-67.3c-4.1,0-6.2-5-3.2-7.9
			c9.2-9,23.2-2.1,25.5-44.1c1.6-30.4,6-60.9,6-60.9"/>
		<g>
			<g>
				<path class="st8" d="M326.5,928.4c-2.2-1.1-4.6-1.9-7-2.4c-0.7-0.1-1,0.9-0.3,1c2.3,0.5,4.6,1.3,6.7,2.3
					C326.6,929.7,327.1,928.8,326.5,928.4L326.5,928.4z"/>
			</g>
		</g>
		<g>
			<g>
				<path class="st8" d="M325,935.3c-2.3-1.1-4.7-1.9-7.3-2.4c-0.7-0.1-1,0.9-0.3,1c2.4,0.4,4.8,1.2,7,2.3
					C325.1,936.6,325.7,935.6,325,935.3L325,935.3z"/>
			</g>
		</g>
		<g>
			<g>
				<path class="st8" d="M321.4,942.3c-1.9-1.1-4-1.9-6.1-2.4c-0.7-0.2-1,0.9-0.3,1c2.1,0.5,4,1.2,5.9,2.3
					C321.5,943.6,322,942.7,321.4,942.3L321.4,942.3z"/>
			</g>
		</g>
	</g>
	<path class="st9" d="M405.2,466.9c0,0-29.3,158.4-30.8,202.7c-1.4,44.3-22.2,239.5-22.2,239.5"/>
	<g>
		<path class="st7" d="M335.2,848.8c0,0,10.7,45,17.5,66.4c0.9,2.9-0.5,6-3.2,7.2l-61.4,27.5c-3.8,1.7-7.7-2.1-6.2-5.9
			c4.8-12,20.4-11.4,5.2-50.7c-10.9-28.4-19.4-58.1-19.4-58.1"/>
		<path class="st7" d="M335.2,848.8c0,0,10.7,45,17.5,66.4c0.9,2.9-0.5,6-3.2,7.2l-61.4,27.5c-3.8,1.7-7.7-2.1-6.2-5.9
			c4.8-12,20.4-11.4,5.2-50.7c-10.9-28.4-19.4-58.1-19.4-58.1"/>
		<g>
			<g>
				<path class="st8" d="M297,905.3c-2.5-0.1-4.9,0.1-7.4,0.6c-0.7,0.1-0.4,1.2,0.3,1c2.3-0.5,4.7-0.7,7.1-0.6
					C297.7,906.4,297.7,905.3,297,905.3L297,905.3z"/>
			</g>
		</g>
		<g>
			<g>
				<path class="st8" d="M298.5,912.2c-2.6-0.1-5.1,0.2-7.6,0.8c-0.7,0.2-0.4,1.2,0.3,1c2.4-0.6,4.9-0.8,7.3-0.8
					C299.2,913.3,299.2,912.2,298.5,912.2L298.5,912.2z"/>
			</g>
		</g>
		<g>
			<g>
				<path class="st8" d="M298.1,920c-2.2-0.2-4.4-0.1-6.6,0.4c-0.7,0.1-0.4,1.2,0.3,1c2.1-0.4,4.2-0.5,6.3-0.3
					c0.3,0,0.5-0.3,0.5-0.5C298.6,920.2,298.4,920,298.1,920L298.1,920z"/>
			</g>
		</g>
	</g>
	<path class="st9" d="M364.2,484.7c0,0-117.5,111-118,153c-0.4,42,69.2,239,69.2,239"/>
	<circle class="st10" cx="384.4" cy="446.9" r="60.6"/>
	<path class="st11" d="M325.3,460.6c0,0,108.1,67.5,112.4,64.2c1-0.7,6.5-31.8,9-44.6c2.6-12.8,0.9-26.4-4.9-31.3"/>
	<line class="st12" x1="383.5" y1="292" x2="384.3" y2="322.4"/>
	<path class="st7" d="M387.5,306.7c0,0-8.9,6.7-20.6,4.9l-0.6-13.1l1.9,0.1"/>
	<path class="st13" d="M377,308.2L377,308.2c15.6,1.2,29.3-10.6,30.4-26.2l1-13.4c1.1-14.4-9.7-26.9-24.2-28l0,0
		c-14.4-1.1-26.9,9.7-28,24.2l-1.3,17.8C353.9,295.8,363.8,307.2,377,308.2z"/>
	<path class="st7" d="M359.8,261.2c-0.2,0.3,0.2,8.9-2.9,10.1s-4.1-7-3.7-9.3"/>
	<path class="st7" d="M418.1,259.1c-1.2-4.6-11-13.5-18.4-11.9c0,0-6.9-13.8-26.9-9.7s-29.2,11.2-24,15.8c3.8,3.4,5.1,2.4,5.1,2.4
		s-7.5,2.3-4.2,6.8c6.5,8.9,35.9-3.7,39.2-5.3c-1.5,0.8-6.9,3.9-3.4,7c5.5,4.8,14.9-3.2,14.9-3.2s0.6,12.3,5.1,13.5
		c4.6,1.3,6.1-8.3,6.1-8.3s0.9,2.4,3.4,2.6c2.5,0.2,2.9-3.2-0.2-7.7C414.8,261.1,419.3,263.8,418.1,259.1z"/>
	<path class="st13" d="M349.4,270.3c-1.4,5.3,2,14,8.6,14.5c0,0,2.9-14.9,2.9-14.9c0.2-1-4.4-3.3-5.2-3.5
		C352.1,265.7,350.1,267.6,349.4,270.3z"/>
	<path class="st13" d="M415.6,275.2c0.6,5.4-4,13.6-10.6,13.1c0,0-4.3-12.6-1.7-15c0.8-0.7,5.9-2.8,6.7-2.8
		C413.6,270.3,415.3,272.4,415.6,275.2z"/>
	<g>
		<path class="st14" d="M463.4,451.8l-10.6-95.1c-2.3-20.5-19.6-36.1-40.3-36.1l-50.3-0.1c-33.2-0.1-41.5,15.7-39.8,44.8
			c0.6,10.7,0.6,21.4-0.3,32l-3,57.9c-0.2,3.9,2.9,7.2,6.9,7.2l127.9,0c3.6,0,6.8-1.9,8.4-4.9C463.3,455.9,463.6,453.8,463.4,451.8z
			"/>
	</g>
	<g>
		<path class="st13" d="M313.1,311.9l19.5,32.9c0,0,36.9-21.1,24.5-39.5C344.7,287,313.1,311.9,313.1,311.9z"/>
		<g>
			<g>
				<path class="st13" d="M363.4,286.7c-6.8,1.9-13.5,4.6-19.4,8.5c-4.3,2.8-8.1,6.2-11.4,10.1c-1.6,1.9-3.1,3.9-4.5,5.8
					c-0.5,0.6-0.5,1.8-0.3,2.5c0.2,0.7,0.8,1.6,1.5,1.9c0.7,0.4,1.7,0.6,2.5,0.3c0.8-0.3,1.4-0.8,1.9-1.5c0.5-0.7,1.1-1.5,1.7-2.2
					c0.1-0.1,0.2-0.2,0.2-0.3c0.1-0.2-0.6,0.7-0.2,0.3c0.2-0.2,0.3-0.4,0.5-0.6c0.3-0.4,0.6-0.8,0.9-1.2c1.4-1.7,2.8-3.3,4.4-4.8
					c0.9-0.8,1.8-1.6,2.7-2.4c0.2-0.2,0.5-0.4,0.7-0.6c0.5-0.4-0.4,0.3-0.2,0.1c0.1-0.1,0.3-0.2,0.4-0.3c0.5-0.4,1.1-0.8,1.7-1.2
					c2.4-1.7,5-3.1,7.7-4.4c0.4-0.2,0.8-0.4,1.2-0.6c0.2-0.1,0.5-0.2,0.7-0.3c0.1-0.1,0.8-0.4,0.3-0.1c-0.5,0.2,0.2-0.1,0.3-0.1
					c0.2-0.1,0.5-0.2,0.7-0.3c0.4-0.2,0.9-0.3,1.3-0.5c2.1-0.8,4.2-1.5,6.3-2.1c1.6-0.5,2.8-2.3,2.3-4
					C366.8,287.3,365.1,286.2,363.4,286.7L363.4,286.7z"/>
			</g>
		</g>
		<g>
			<g>
				<path class="st13" d="M365.5,295.4c-4.4,0.8-8.7,2.3-12.7,4.2c-3.4,1.7-6.6,3.7-9.7,5.8c-1.8,1.2-3.7,2.5-5.6,3.7
					c-1.4,0.9-2.1,2.9-1.2,4.4c0.9,1.4,2.9,2.1,4.4,1.2c3.2-2.1,6.3-4.3,9.6-6.3c1.6-1,3.2-1.9,4.9-2.8c0.9-0.4,1.7-0.9,2.6-1.2
					c0.1,0,0.2-0.1,0.3-0.1c0.5-0.2-0.2,0.1-0.2,0.1c0.2-0.1,0.5-0.2,0.7-0.3c0.5-0.2,1-0.4,1.5-0.6c2.3-0.8,4.8-1.5,7.2-1.9
					c1.7-0.3,2.8-2.4,2.3-4C368.9,295.9,367.3,295.1,365.5,295.4L365.5,295.4z"/>
			</g>
		</g>
		<g>
			<g>
				<path class="st13" d="M371.2,302.5c-0.1,0.1-0.2,0.1-0.4,0.2c-0.1,0-0.1,0.1-0.2,0.1C370.1,302.9,371.5,302.3,371.2,302.5
					c-0.5,0.2-0.9,0.4-1.3,0.5c-1.1,0.4-2.2,0.8-3.3,1.3c-2.9,1.1-5.8,2.2-8.7,3.4c-3.4,1.4-6.7,2.8-10,4.4
					c-2.6,1.3-5.2,2.7-7.5,4.5c-0.9,0.7-1.8,1.6-2.3,2.6c-0.4,0.8-0.6,1.6-0.6,2.4c0,1.2,0.5,2.1,1.3,3c1.1,1.3,3.5,1.2,4.6,0
					c1.3-1.4,1.1-3.2,0-4.6c-0.2-0.3,0.6,0.9,0.4,0.4c-0.1-0.1-0.2-0.5,0.1,0.2c0.3,0.6,0.2,0.4,0.1,0.2c-0.1-0.4,0.1,1.1,0.1,0.6
					c0-0.1,0-0.1,0-0.2c0.1,0.8-0.2,1-0.1,0.6c0-0.1,0-0.1,0.1-0.2c0.1-0.3-0.5,1-0.2,0.5c0.1-0.1,0.2-0.3,0.3-0.4
					c0.2-0.3-0.7,0.8-0.3,0.4c0.1-0.1,0.1-0.2,0.2-0.3c0.3-0.3,0.7-0.6,1-0.9c0.4-0.4-0.7,0.5-0.3,0.3c0.1-0.1,0.2-0.2,0.3-0.2
					c0.2-0.2,0.5-0.3,0.7-0.5c0.5-0.3,1-0.7,1.6-1c1.2-0.7,2.5-1.4,3.8-2c1.4-0.7,2.9-1.4,4.3-2c0.4-0.2,0.8-0.3,1.1-0.5
					c0.2-0.1,0.4-0.2,0.5-0.2c0.1,0,0.2-0.1,0.2-0.1c0.7-0.3-0.5,0.2-0.2,0.1c0.8-0.3,1.5-0.6,2.3-0.9c2.8-1.2,5.7-2.3,8.5-3.4
					c2.2-0.8,4.4-1.6,6.5-2.6c1.5-0.7,2-3,1.2-4.4C374.6,302,372.8,301.7,371.2,302.5L371.2,302.5z"/>
			</g>
		</g>
		<g>
			<g>
				<path class="st13" d="M370,313.9c-3.9,0.6-7.8,1.6-11.6,2.8c-2.8,0.9-5.7,2-8.1,3.6c-1.3,0.9-2.4,1.9-3.2,3.2
					c-0.5,0.8-1.1,1.7-1.7,2.5c-0.1,0.2-0.4,0.4,0.2-0.2c-0.1,0.1-0.2,0.2-0.2,0.3c-0.1,0.2-0.3,0.3-0.4,0.5
					c-0.3,0.4-0.7,0.8-1.1,1.2c-0.8,0.8-1.6,1.6-2.5,2.3c-0.4,0.3,0.2-0.1,0.2-0.2c-0.1,0.1-0.3,0.2-0.4,0.3
					c-0.2,0.2-0.5,0.3-0.7,0.5c-0.5,0.3-0.9,0.6-1.4,0.9c-1,0.6-2.1,1.1-3.1,1.6c-0.3,0.1,0.4-0.1,0.3-0.1c-0.2,0.1-0.4,0.1-0.5,0.2
					c-0.3,0.1-0.5,0.2-0.8,0.3c-0.6,0.2-1.2,0.4-1.7,0.6c-1.6,0.5-2.8,2.3-2.3,4c0.5,1.6,2.2,2.8,4,2.3c4.4-1.3,8.4-3.5,11.9-6.5
					c1.7-1.5,3.1-3.2,4.5-5c0.5-0.8,1-1.5,1.5-2.3c0.3-0.5-0.2,0.3-0.3,0.3c0.1-0.1,0.2-0.2,0.2-0.3c0.2-0.2,0.4-0.4,0.6-0.6
					c0.1-0.1,0.2-0.2,0.3-0.3c0.3-0.2-0.7,0.5-0.4,0.3c0.1,0,0.1-0.1,0.2-0.1c0.3-0.2,0.5-0.4,0.8-0.5c0.5-0.3,1.1-0.6,1.7-0.9
					c0.3-0.1,0.6-0.3,0.9-0.4c0.1-0.1,0.3-0.1,0.4-0.2c0.6-0.2-0.8,0.3-0.1,0c0.7-0.3,1.3-0.5,2-0.8c2.7-0.9,5.4-1.6,8.1-2.3
					c1.5-0.3,3-0.7,4.5-0.9c0.7-0.1,1.6-0.9,1.9-1.5c0.4-0.7,0.6-1.7,0.3-2.5c-0.3-0.8-0.7-1.5-1.5-1.9
					C371.7,313.7,370.9,313.7,370,313.9L370,313.9z"/>
			</g>
		</g>
		<g>
			<g>
				<path class="st13" d="M337,287.8c-0.7,0.8-1.3,1.6-1.9,2.4c0.2-0.3,0.4-0.6,0.7-0.9c-0.9,1.1-2,2.2-3,3.2
					c-1.4,1.4-2.7,2.8-4.1,4.3c-3,3.1-6,6.2-9,9.3c-1.3,1.4-2.7,2.8-4,4.2c-1.5,1.6-1.7,4.5,0,6.1c1.7,1.5,4.4,1.7,6.1,0
					c5.8-6.2,11.8-12.2,17.6-18.3c1.2-1.3,2.4-2.6,3.5-4c-0.2,0.3-0.4,0.6-0.7,0.9c0.3-0.4,0.7-0.8,1-1.2c0.8-0.9,1.3-1.8,1.3-3
					c0-1.1-0.5-2.3-1.3-3C341.5,286.3,338.5,286,337,287.8L337,287.8z"/>
			</g>
		</g>
	</g>
	<path class="st0" d="M260.1,403.3c-25.5-39.3,72.7-77.6,79-82.8"/>
	<path class="st1" d="M346.8,410.8l-21.5,51.6c0.3,0,0.5,0,0.8,0l127.9,0l-87.6-59.1L346.8,410.8z"/>
	<path class="st15" d="M300.7,339.3c13.2,1.3,38.7,4,51.5,6.3c1.8,0.3,3.2,1.6,3.8,3.3c3.1,9,11.6,39.4,4.6,87.5
		c-0.4,3-3.5,5-6.4,4.1c-9.5-3-29.6-8.3-45.5-5.8c-3.3,0.5-6.1-2.2-5.8-5.5c1.6-15.3,3.9-52.7-7.3-83.2
		C294.2,342.5,297,338.9,300.7,339.3z"/>
	<g>
		<g>
			<path class="st7" d="M380.4,282c-0.7-1-1.8-1.6-3-1.7c-1.2,0-2.4,0.6-3.1,1.6c-0.2,0.2-0.2,0.6-0.1,0.8c0.1,0.2,0.3,0.5,0.5,0.6
				c0.6,0.3,1.1,0.1,1.5-0.4c0,0-0.1,0.2,0,0.1c0,0,0.1-0.1,0.1-0.1c0.1-0.1,0.1-0.1,0.2-0.2c0.1-0.1-0.2,0.1,0,0c0,0,0.1,0,0.1-0.1
				c0.1,0,0.1-0.1,0.2-0.1c0,0,0.2-0.1,0.1,0c-0.2,0.1,0,0,0,0c0.1,0,0.2-0.1,0.3-0.1c0,0,0.1,0,0.2,0c0,0-0.2,0-0.1,0
				c0.1,0,0.2,0,0.3,0c0,0,0.1,0,0.1,0c0.1,0-0.2,0-0.1,0c0.1,0,0.2,0,0.3,0.1c0.1,0,0.2,0.1,0.2,0.1c0,0-0.2-0.1-0.1,0
				c0,0,0.1,0,0.1,0.1c0.1,0,0.1,0.1,0.2,0.1c0.1,0.1,0,0,0,0c0,0,0.1,0.1,0.1,0.1c0.1,0.1,0.1,0.1,0.2,0.2c0,0,0.2,0.2,0,0
				c-0.1-0.1,0,0,0,0c0.3,0.5,1,0.7,1.5,0.4C380.4,283.1,380.7,282.5,380.4,282L380.4,282z"/>
		</g>
	</g>
	<g>
		<g>
			<path class="st7" d="M374.6,288.4c0.2,0,0.4-0.1,0.6-0.1c-0.1,0-0.2,0-0.3,0c0.4,0,0.7,0,1.1,0c-0.1,0-0.2,0-0.3,0
				c0.3,0,0.6,0.1,0.9,0.2c-0.1,0-0.2-0.1-0.3-0.1c0.1,0.1,0.3,0.1,0.4,0.2c0.5,0.3,1.2,0.1,1.5-0.4c0.3-0.5,0.1-1.2-0.4-1.5
				c-1.1-0.7-2.5-0.8-3.8-0.4c-0.5,0.1-0.9,0.8-0.8,1.3C373.5,288.2,374,288.5,374.6,288.4L374.6,288.4z"/>
		</g>
	</g>
	<circle class="st7" cx="391.9" cy="278.1" r="1.9"/>
	<circle class="st7" cx="369" cy="276.5" r="1.9"/>
	<g>
		<g>
			<path class="st7" d="M395.2,267.2c-1.2-0.3-2.4-0.4-3.6-0.4c-0.6,0-1.1,0.5-1.1,1.1c0,0.6,0.5,1.1,1.1,1.1c0.7,0,1.3,0,2,0.1
				c-0.1,0-0.2,0-0.3,0c0.4,0.1,0.9,0.1,1.3,0.2c0.5,0.1,1.2-0.2,1.3-0.8C396,267.9,395.8,267.3,395.2,267.2L395.2,267.2z"/>
		</g>
	</g>
	<g>
		<g>
			<path class="st7" d="M372,265.3c-0.6-0.1-1.3-0.2-1.9-0.2c-0.6,0-1.3,0.1-1.9,0.2c-0.2,0-0.5,0.3-0.6,0.5
				c-0.1,0.2-0.2,0.6-0.1,0.8c0.1,0.3,0.2,0.5,0.5,0.6c0.1,0,0.2,0.1,0.3,0.1c0.2,0.1,0.4,0.1,0.6,0c0.1,0,0.1,0,0.2,0
				c-0.1,0-0.2,0-0.3,0c1-0.1,1.9-0.1,2.9,0c-0.1,0-0.2,0-0.3,0c0,0,0.1,0,0.1,0c0.3,0,0.6,0.1,0.8-0.1c0.2-0.1,0.4-0.4,0.5-0.6
				c0.1-0.3,0-0.6-0.1-0.8C372.5,265.6,372.3,265.4,372,265.3L372,265.3z"/>
		</g>
	</g>
	<g>
		<g>
			<path class="st16" d="M333.7,371.4c0.7,0,0.7-1.1,0-1.1C333,370.4,333,371.4,333.7,371.4L333.7,371.4z"/>
		</g>
	</g>
	<g>
		<path class="st13" d="M385,390.8l-23.9,29.9c0,0-33.6-26-18.7-42.5S385,390.8,385,390.8z"/>
		<g>
			<g>
				<path class="st13" d="M335.2,359.8c5.5,10.1,13.2,19.1,22.2,26.3c2.7,2.1,5.4,4.1,8.3,5.9c1.4,0.9,3.6,0.4,4.4-1.2
					c0.8-1.6,0.4-3.5-1.2-4.4c-2.4-1.5-4.6-3.1-6.9-4.7c0.8,0.6-0.1-0.1-0.3-0.2c-0.3-0.2-0.5-0.4-0.8-0.6c-0.6-0.5-1.2-0.9-1.7-1.4
					c-1-0.9-2-1.8-3-2.7c-2-1.9-4-3.9-5.8-6c-0.9-1-1.8-2.1-2.6-3.1c-0.1-0.1-0.2-0.4-0.4-0.5c0,0,0.5,0.6,0.1,0.2
					c-0.2-0.3-0.4-0.5-0.6-0.8c-0.4-0.6-0.9-1.2-1.3-1.8c-1.8-2.6-3.5-5.2-5-7.9c-0.8-1.5-3-2.1-4.4-1.2
					C334.8,356.3,334.3,358.2,335.2,359.8L335.2,359.8z"/>
			</g>
		</g>
		<g>
			<g>
				<path class="st13" d="M327,367.7c5.2,6.2,10.7,12,16.7,17.5c1.7,1.6,3.4,3.1,5.2,4.6c1.3,1.1,3.3,1.4,4.6,0
					c1.1-1.2,1.4-3.4,0-4.6c-6.1-5.2-11.9-10.9-17.3-16.9c-1.5-1.7-3.1-3.5-4.5-5.2c-1.1-1.3-3.5-1.2-4.6,0
					C325.7,364.5,325.8,366.3,327,367.7L327,367.7z"/>
			</g>
		</g>
		<g>
			<g>
				<path class="st13" d="M323.2,381.1c5.8,4.3,11.7,8.3,17.9,12.1c1.4,0.9,3.6,0.4,4.4-1.2c0.8-1.6,0.4-3.5-1.2-4.4
					c-6.1-3.8-12.1-7.8-17.9-12.1c-0.6-0.5-1.8-0.5-2.5-0.3c-0.7,0.2-1.6,0.8-1.9,1.5c-0.4,0.7-0.6,1.7-0.3,2.5
					C322,380,322.5,380.6,323.2,381.1L323.2,381.1z"/>
			</g>
		</g>
		<g>
			<g>
				<path class="st13" d="M325.5,393.5c3.6,2.5,7.1,5.1,10.7,7.7c4.8,3.5,9.8,6.9,14.9,10.1c2.6,1.6,5.3,3.2,8.1,4.5
					c0.8,0.4,1.6,0.6,2.5,0.3c0.7-0.2,1.6-0.8,1.9-1.5c0.7-1.4,0.5-3.7-1.2-4.4c-2.5-1.1-4.8-2.5-7.1-3.9c-2.7-1.7-5.4-3.4-8.1-5.2
					c-4.6-3.1-9-6.4-13.5-9.6c-1.6-1.2-3.3-2.3-4.9-3.5c-1.4-1-3.6-0.3-4.4,1.2C323.5,390.8,324,392.5,325.5,393.5L325.5,393.5z"/>
			</g>
		</g>
		<g>
			<g>
				<path class="st13" d="M357.6,368.3c0.8,1.2,1.5,2.4,2.3,3.5c1.1,1.6,2.3,3.2,3.4,4.7c2.9,3.9,5.7,7.9,8.6,11.8
					c1.3,1.8,2.6,3.5,3.8,5.3c0.7,0.9,1.4,1.7,2.6,2c1,0.3,2.4,0.2,3.3-0.4c1.8-1.2,2.9-3.9,1.5-5.9c-5.1-7.2-10.3-14.2-15.5-21.3
					c-1-1.3-1.8-2.7-2.7-4.1c-1.2-1.9-3.9-2.8-5.9-1.5C357.3,363.6,356.3,366.3,357.6,368.3L357.6,368.3z"/>
			</g>
		</g>
	</g>
	<g>
		<g>
			<path class="st7" d="M347.9,537.1c-1.4,9-2.8,18.1-4.3,27.1c-0.1,0.6,0.1,1.2,0.8,1.3c0.5,0.1,1.2-0.2,1.3-0.8
				c1.4-9,2.8-18.1,4.3-27.1c0.1-0.6-0.1-1.2-0.8-1.3C348.7,536.2,348,536.6,347.9,537.1L347.9,537.1z"/>
		</g>
	</g>
	<g>
		<g>
			<path class="st7" d="M326.9,773.2c3.5,11.6,6.9,23.3,10.4,34.9c3.4,11.6,6.9,23.1,10.3,34.7c1.9,6.5,3.9,13.1,5.8,19.6
				c0.4,1.3,2.5,0.8,2.1-0.6c-3.5-11.6-6.9-23.3-10.4-34.9c-3.4-11.6-6.9-23.1-10.3-34.7c-1.9-6.5-3.9-13.1-5.8-19.6
				C328.6,771.3,326.5,771.9,326.9,773.2L326.9,773.2z"/>
		</g>
	</g>
	<g>
		<g>
			<path class="st7" d="M408.7,479.1c3.7,5.6,8,10.9,12.8,15.6c1,1,2.5-0.5,1.5-1.5c-4.7-4.6-8.8-9.7-12.4-15.2
				C409.8,476.9,408,477.9,408.7,479.1L408.7,479.1z"/>
		</g>
	</g>
	<path class="st0" d="M418.3,348.7c0,0,74.3,48.8,68.5,93.7c-5.8,44.8-126-51.4-126-51.4"/>
	<g>
		<g>
			<path class="st1" d="M388.5,379.3c6.7,4.3,13.1,9.1,19.8,13.4c10.3,6.7,21.1,12.8,32.2,18.1c3.5,1.7,7.1,3.4,10.7,4.8
				c3.6,1.4,7.3,2.3,11.1,2.4c0.7,0,0.7-1.1,0-1.1c-7-0.1-13.4-3.3-19.5-6.2c-6.1-2.9-12.1-5.9-17.9-9.2c-9-5.1-17.7-10.7-26.2-16.5
				c-3.2-2.2-6.4-4.5-9.7-6.6C388.4,378,387.9,378.9,388.5,379.3L388.5,379.3z"/>
		</g>
	</g>
	<g>
		<rect x="547.5" y="839.7" class="st5" width="161.3" height="105"/>
	</g>
	<g>
		<g>
			<path class="st17" d="M262.8,239.9l-11.9,5.2c-4.4,2-9.6,0-11.6-4.5l-7.4-16.7c-3.3-7.6,0.1-16.4,7.6-19.7l0,0
				c5.4-2.4,8.3-8.4,6.6-14c-2.1-6.6-9.4-9.8-15.5-7.1c-3.6,1.6-6,4.8-6.6,8.4c-0.9,4.9-4.3,8.9-8.9,10.9l0,0
				c-11.1,4.9-23.4-4.6-21.2-16.5c2.6-14.2,12.5-26.7,27.3-32c19.5-6.9,41.5,1.7,51.1,20c8,15.3,5.7,32.9-4.1,45.5
				c-2,2.5-2.3,5.9-1,8.8v0C269.2,232.7,267.2,237.9,262.8,239.9z"/>
		</g>
		<g>
			<path class="st17" d="M271.3,263.2l-9.7,4.3c-5,2.2-10.9-0.1-13.1-5.1v0c-2.2-5,0.1-10.9,5.1-13.1l9.7-4.3
				c5-2.2,10.9,0.1,13.1,5.1v0C278.6,255.1,276.3,260.9,271.3,263.2z"/>
		</g>
	</g>
	<g>
		<g>
			<path class="st15" d="M510.3,194.2l-14.6-5.5c-5.4-2.1-8.2-8.1-6.1-13.6l7.7-20.5c3.5-9.3,13.9-14,23.1-10.5l0,0
				c6.6,2.5,14.2-0.1,17.4-6.4c3.8-7.4,0.2-16.3-7.3-19.1c-4.4-1.7-9.2-0.9-12.8,1.6c-4.8,3.4-11.2,4-16.7,1.9l0,0
				c-13.6-5.1-16.2-23.5-4.2-31.9c14.2-9.9,33.1-12.4,50.3-4.4c22.5,10.5,34,36.3,26.8,60.1c-6,19.8-22.8,32.9-41.7,35.4
				c-3.8,0.5-6.9,3.1-8.3,6.7v0C521.8,193.5,515.7,196.2,510.3,194.2z"/>
		</g>
		<g>
			<path class="st15" d="M498,221.2l-11.9-4.5c-6.2-2.3-9.3-9.2-6.9-15.4v0c2.3-6.2,9.2-9.3,15.4-6.9l11.9,4.5
				c6.2,2.3,9.3,9.2,6.9,15.4v0C511,220.4,504.1,223.6,498,221.2z"/>
		</g>
	</g>
	<g>
		<g>
			<path class="st2" d="M378.7,177.4l-19.5,2.1c-7.3,0.8-13.9-4.5-14.7-11.8l-3-27.5c-1.4-12.4,7.6-23.6,20-25h0
				c8.8-1,15.9-8.3,15.9-17.1c0-10.5-9.1-18.4-19.2-17.3c-5.9,0.7-10.8,4.2-13.4,9.2c-3.5,6.6-10.3,10.9-17.8,11.7l0,0
				c-18.3,2-31.7-17.3-23-33.5c10.3-19.2,30.2-32.9,54.1-33.7c31.3-1.1,59.1,21.4,64.6,52.2c4.6,25.7-6.8,50.1-26.7,63.7
				c-4,2.7-6,7.5-5.5,12.3v0C391.2,170,386,176.6,378.7,177.4z"/>
		</g>
		<g>
			<path class="st2" d="M380.3,214.9l-16,1.8c-8.3,0.9-15.7-5.1-16.6-13.3v0c-0.9-8.3,5.1-15.7,13.3-16.6l16-1.8
				c8.3-0.9,15.7,5.1,16.6,13.3v0C394.6,206.5,388.6,214,380.3,214.9z"/>
		</g>
	</g>
	<line class="st6" x1="466.9" y1="762.7" x2="708.8" y2="762.7"/>
	<line class="st6" x1="466.9" y1="944.8" x2="708.8" y2="944.8"/>
	<g>
		<g>
			<path class="st15" d="M835.9,839.6c-5.4,7.6-11.2,15.1-17.3,22.2c-6.1,7.1-12.5,14-19.1,20.5c-6.7,6.5-13.6,12.8-20.8,18.7
				c-7.2,6-14.7,11.6-22.5,16.9c-3.8,2.6-7.7,5.2-11.7,7.7c-4.3,2.7-8.6,5.3-13.1,7.4c-1.2,0.6-2.4,1.1-3.6,1.6
				c-0.6,0.3-0.4,1.3,0.3,1c4.8-1.9,9.3-4.4,13.7-7.1c4.1-2.5,8.1-5,12-7.7c7.8-5.2,15.4-10.8,22.7-16.7
				c7.3-5.9,14.4-12.2,21.2-18.7c6.8-6.5,13.3-13.4,19.5-20.5c6.2-7.1,12.1-14.4,17.6-22.1c0.7-0.9,1.4-1.9,2-2.8
				C837.2,839.5,836.3,839,835.9,839.6L835.9,839.6z"/>
		</g>
	</g>
	<g>
		<g>
			<path class="st15" d="M745.3,864c-2.3,8.1-3.9,16.4-4.8,24.8c-1,8.4-1.2,17-0.8,25.4c0.2,4.7,0.7,9.5,1.3,14.2
				c0.1,0.7,1.1,0.4,1-0.3c-1.1-8.3-1.6-16.7-1.4-25c0.2-8.4,1-16.8,2.6-25.1c0.8-4.6,1.9-9.2,3.2-13.7
				C746.5,863.6,745.5,863.3,745.3,864L745.3,864z"/>
		</g>
	</g>
	<g>
		<g>
			<path class="st15" d="M763.7,882.3c-1.6,7.7-1.8,15.7-0.7,23.5c0.3,2.2,0.7,4.5,1.2,6.6c0.2,0.7,1.2,0.4,1-0.3
				c-2.3-9.7-2.5-19.9-0.5-29.6C764.8,881.9,763.8,881.6,763.7,882.3L763.7,882.3z"/>
		</g>
	</g>
	<g>
		<g>
			<path class="st15" d="M839.5,868.5c-9.1,2.2-18.5,3.3-27.9,3.2c-0.7,0-0.7,1.1,0,1.1c9.5,0.1,19-1,28.2-3.2
				C840.5,869.4,840.2,868.4,839.5,868.5L839.5,868.5z"/>
		</g>
	</g>
</g>
</svg>
