<?xml version="1.0" encoding="utf-8"?>
<!-- Generator: Adobe Illustrator 23.0.5, SVG Export Plug-In . SVG Version: 6.00 Build 0)  -->
<svg version="1.1" id="PRINT" xmlns="http://www.w3.org/2000/svg" xmlns:xlink="http://www.w3.org/1999/xlink" x="0px" y="0px"
	 viewBox="0 0 350 350" style="enable-background:new 0 0 350 350;" xml:space="preserve">
<style type="text/css">
	.st0{fill:url(#SVGID_1_);}
	.st1{fill:url(#SVGID_2_);}
	.st2{fill:url(#SVGID_3_);}
	.st3{fill:url(#SVGID_4_);}
	.st4{fill:#EE5423;}
	.st5{fill:url(#SVGID_5_);}
	.st6{fill:#F4F4F4;}
	.st7{opacity:0.4;fill:#DC78AA;}
	.st8{display:none;fill:#FFFFFF;}
	.st9{fill:none;}
	.st10{fill:url(#SVGID_6_);}
	.st11{fill:url(#SVGID_7_);}
	.st12{fill:#161616;}
	.st13{fill:url(#SVGID_8_);}
	.st14{fill:url(#SVGID_9_);}
	.st15{fill:url(#SVGID_10_);}
	.st16{fill:#F4F4F4;stroke:#F4F4F4;stroke-width:0.9489;stroke-miterlimit:10;}
	.st17{fill:#E3F3F7;}
	.st18{fill:#F05922;}
	.st19{opacity:0.28;fill:url(#SVGID_11_);}
	.st20{fill:#E5E3E3;}
	.st21{fill:#D74F27;}
	.st22{fill:#FC2516;}
	.st23{fill:#FFFFFF;}
	.st24{fill:#009933;}
</style>
<g>
	<path class="st22" d="M340.95,175.26v5.16c-0.15,1.25-0.25,2.51-0.45,3.75c-1.15,7.13-3.93,13.55-8.39,19.25
		c-2.36,3.01-5.18,5.52-8.09,7.96c-6.05,5.06-10.87,11.11-14.35,18.21c-4.69,9.59-6.55,19.71-5.45,30.33
		c0.41,3.99,0.56,7.97-0.11,11.94c-2.3,13.71-9.62,23.94-21.75,30.63c-6.89,3.81-14.38,5.26-22.24,4.77
		c-3.73-0.23-7.44-0.61-11.2-0.44c-7.9,0.35-15.38,2.29-22.44,5.8c-7.31,3.63-13.46,8.72-18.64,15.01
		c-1.35,1.64-2.73,3.27-4.27,4.72c-6.57,6.17-14.34,9.89-23.29,11.1c-0.85,0.11-1.69,0.31-2.53,0.47h-5.76
		c-1.04-0.18-2.08-0.39-3.13-0.55c-7.9-1.17-14.88-4.35-21.01-9.46c-2.78-2.32-5-5.14-7.35-7.84c-5.12-5.87-11.15-10.54-18.18-13.89
		c-9.69-4.62-19.9-6.22-30.55-5.06c-3.28,0.36-6.56,0.34-9.83-0.06c-10.07-1.25-18.62-5.56-25.53-12.99
		c-8.49-9.15-12.09-20.01-11.03-32.41c0.47-5.46,0.58-10.9-0.33-16.32c-2.43-14.39-9.46-26.05-20.79-35.19
		c-8.7-7.03-13.71-16.15-15.21-27.23c-0.1-0.74-0.37-1.46-0.56-2.19v-6.67c0.2-0.72,0.48-1.43,0.59-2.17
		c1.52-10.08,6.02-18.56,13.63-25.36c2.37-2.12,4.89-4.1,7.09-6.39c11.83-12.33,17.05-27.06,15.77-44.1
		c-0.17-2.32-0.44-4.64-0.37-6.95c0.43-14.89,6.95-26.49,19.37-34.61c8.48-5.55,17.93-7.33,27.99-6.2
		c4.63,0.52,9.29,0.46,13.91-0.26c14.63-2.3,26.55-9.3,35.83-20.82c6.76-8.4,15.5-13.41,26.12-15.16c1.19-0.2,2.39-0.37,3.59-0.56
		h5.76c0.54,0.1,1.08,0.23,1.63,0.29c8.59,0.96,16.15,4.26,22.72,9.89c2.51,2.15,4.55,4.72,6.72,7.19
		c12.9,14.65,29.09,21.11,48.53,19.43c3.63-0.31,7.25-0.49,10.89,0.03c10.5,1.49,19.29,6.18,26.21,14.19
		c7.61,8.81,10.84,19.15,9.91,30.74c-0.44,5.41-0.67,10.79,0.19,16.17c2.29,14.35,9.07,26.11,20.32,35.29
		c2.4,1.96,4.67,4.03,6.61,6.44c5.38,6.67,8.69,14.17,9.22,22.81C340.72,174.38,340.86,174.82,340.95,175.26z"/>
	<g>
		<g>
			<path class="st23" d="M163.37,166.53c4.47,8.48,8.9,16.89,13.44,25.51c-0.8,0.06-1.31,0.13-1.82,0.13
				c-5.82,0.01-11.64-0.03-17.46,0.03c-1.24,0.01-1.92-0.36-2.49-1.5c-3.04-6.19-6.21-12.32-9.25-18.51
				c-0.61-1.24-1.29-1.9-2.73-1.7c-0.88,0.12-1.79,0.02-2.93,0.02c-0.05,0.79-0.12,1.48-0.12,2.17c-0.01,5.7-0.01,11.4-0.01,17.1
				c0,0.71,0,1.41,0,2.07c-1.53,0.39-16.24,0.52-19.39,0.22c-0.03-0.03-0.07-0.08-0.11-0.12c-0.04-0.04-0.1-0.08-0.11-0.13
				c-0.04-0.23-0.1-0.47-0.1-0.71c0-22.26,0-44.52,0.01-66.78c0-0.23,0.07-0.46,0.13-0.83c0.45-0.08,0.9-0.24,1.34-0.24
				c9.54,0.02,19.08-0.14,28.62,0.16c7.68,0.24,14.14,3.43,18.98,9.55c6.2,7.83,7.51,23.94-4.62,32.52
				C164.32,165.8,163.91,166.13,163.37,166.53z M140.12,153.95c0.45,0.07,0.74,0.16,1.03,0.16c2.46,0,4.92,0.05,7.37-0.05
				c3.15-0.13,5.27-2.09,5.61-5.02c0.44-3.7-1.02-6.27-4.11-7.27c-0.29-0.09-0.57-0.21-0.86-0.24c-2.98-0.25-5.95-0.14-9.04-0.09
				C140.12,145.68,140.12,149.73,140.12,153.95z"/>
			<path class="st23" d="M182.06,123.48c14.82,0,29.55,0,44.41,0c0,5.91,0,11.69,0,17.71c-8.27,0.13-16.45-0.03-24.83,0.09
				c-0.15,2.51-0.12,4.82-0.02,7.31c0.82,0.05,1.51,0.13,2.21,0.13c6,0.01,12,0,18,0.01c0.7,0,1.4,0.06,2.22,0.1
				c0,5.89,0,11.61,0,17.57c-7.45,0.09-14.81-0.02-22.37,0.07c-0.22,2.57-0.13,4.99-0.06,7.63c8.52,0,16.89,0,25.51,0
				c0.06,6.12,0.03,12.01,0.03,18.02c-15.17,0-30.08,0-44.98,0C181.76,190.81,181.64,125.89,182.06,123.48z"/>
			<path class="st23" d="M254.76,141.24c0,2.63,0,4.88,0,7.33c0.76,0.06,1.45,0.15,2.15,0.15c6,0.01,12,0.01,18,0.01
				c0.71,0,1.41,0,2.05,0c0.41,1.54,0.5,15.24,0.15,17.59c-0.65,0.04-1.35,0.12-2.04,0.12c-5.94,0.01-11.88,0-17.82,0.01
				c-0.77,0-1.54,0.06-2.44,0.1c0,2.56,0,4.98,0,7.61c4.32,0,8.5,0,12.68,0c4.13,0,8.27,0,12.35,0c0.52,1.38,0.65,15.52,0.22,17.79
				c-1.31,0.36-42.53,0.46-44.71,0.11c-0.41-1.35-0.49-66.51-0.06-68.57c14.7,0,29.43,0,44.16,0c0.42,1.28,0.56,14.27,0.18,17.58
				c-0.7,0.05-1.44,0.16-2.19,0.16c-6.72,0.01-13.44,0.01-20.16,0.01C256.51,141.24,255.74,141.24,254.76,141.24z"/>
			<path class="st23" d="M111.82,170.47c-7.5,0-14.85,0-22.44,0c-0.19,3.75-0.07,7.33-0.09,10.9c-0.02,3.53,0,7.05,0,10.52
				c-1.63,0.45-17.81,0.49-19.61,0.07c0-22.74,0-45.5,0-68.25c1.29-0.43,39.48-0.6,42.39-0.2c0.43,1.33,0.49,16.93,0.03,18.94
				c-7.47,0-15,0-22.66,0c0,3.05,0,5.88,0,8.98c7.48,0,14.88,0,22.4,0C111.82,157.84,111.82,163.99,111.82,170.47z"/>
		</g>
		<g>
			<path class="st23" d="M69.13,232.01c0-10.96,0-21.84,0-32.83c0.45-0.04,0.85-0.11,1.25-0.11c4.05-0.01,8.1-0.02,12.16,0
				c5.59,0.03,10.05,2.28,13.32,6.85c4.79,6.72,4.29,19.65-6.42,24.78c-2.03,0.97-4.21,1.37-6.43,1.4
				c-4.28,0.05-8.56,0.02-12.85,0.02C69.84,232.12,69.53,232.06,69.13,232.01z M79.02,222.87c1.63,0,3.1,0.07,4.56-0.02
				c1.92-0.12,3.36-1.15,4.43-2.71c1.12-1.64,1.36-3.48,1.25-5.4c-0.17-3.05-2.32-6.47-6.56-6.47c-1.21,0-2.45-0.22-3.68,0.2
				C79.02,213.26,79.02,217.99,79.02,222.87z"/>
			<path class="st23" d="M231.5,221.83c0,3.31,0,6.65,0,10.16c-3.19,0.09-6.2,0.05-9.18,0.03c-0.34-1.22-0.38-31.44-0.06-32.89
				c0.37-0.03,0.77-0.1,1.17-0.1c3.96-0.01,7.92-0.02,11.89,0.01c2.19,0.01,4.29,0.45,6.28,1.41c7.89,3.84,7.95,14.73,1.76,18.81
				c-0.19,0.12-0.35,0.29-0.63,0.53c2.1,3.98,4.19,7.95,6.35,12.05c-0.46,0.08-0.76,0.18-1.06,0.19c-2.63,0.01-5.25-0.02-7.88,0.03
				c-0.83,0.01-1.23-0.35-1.57-1.04c-1.28-2.61-2.6-5.19-3.91-7.78C233.77,221.47,233.77,221.47,231.5,221.83z M231.55,213.82
				c1.71,0.03,3.26,0.26,4.78-0.16c1.33-0.37,1.98-1.34,2-2.78c0.02-1.43-0.62-2.54-1.87-2.89c-1.6-0.44-3.23-0.29-4.91-0.11
				C231.55,209.88,231.55,211.75,231.55,213.82z"/>
			<path class="st23" d="M102.35,199.16c7.13,0,14.15,0,21.31,0c0.19,2.82,0.06,5.55,0.09,8.48c-4.08,0-7.96,0-11.95,0
				c0,1.23,0,2.27,0,3.47c0.48,0.04,0.96,0.12,1.45,0.12c2.53,0.01,5.07,0,7.6,0.01c0.5,0,0.99,0.05,1.59,0.08c0,2.8,0,5.5,0,8.38
				c-3.51,0.07-7-0.01-10.53,0.04c-0.39,1.18-0.14,2.3-0.18,3.61c2.12,0.1,4.14,0.04,6.14,0.05c1.97,0.01,3.94,0,6.08,0
				c0.06,2.97,0.06,5.75,0.01,8.63c-7.25,0-14.32,0-21.39,0c-0.05-0.04-0.08-0.07-0.11-0.1c-0.03-0.03-0.07-0.07-0.08-0.1
				c-0.04-0.13-0.08-0.27-0.08-0.4c-0.01-10.41-0.01-20.83-0.01-31.24C102.27,199.91,102.31,199.63,102.35,199.16z"/>
			<path class="st23" d="M196.72,199.26c1.44-0.3,20.06-0.27,21.26,0.04c0,2.67,0,5.36,0,8.21c-0.51,0.04-0.99,0.12-1.47,0.12
				c-2.95,0.01-5.9,0-8.85,0.01c-0.49,0-0.98,0.06-1.56,0.09c0,1.16,0,2.2,0,3.38c0.53,0.04,1.01,0.11,1.5,0.11
				c2.53,0.01,5.07,0,7.6,0.01c0.49,0,0.99,0.05,1.57,0.09c0,2.82,0,5.51,0,8.36c-3.56,0-7.04,0-10.64,0c0,1.27,0,2.38,0,3.67
				c4,0,7.94,0,11.82,0c0.45,1.19,0.49,7.3,0.1,8.69c-7.05,0-14.13,0-21.19,0C196.54,231.04,196.41,201.44,196.72,199.26z"/>
			<path class="st23" d="M183.86,199.17c3.52,0,6.81,0,10.28,0c-0.16,0.61-0.27,1.09-0.42,1.56c-3.17,9.96-6.35,19.93-9.53,29.89
				c-0.07,0.22-0.16,0.44-0.2,0.66c-0.14,0.66-0.55,0.87-1.2,0.86c-1.7-0.03-3.41-0.01-5.12-0.01c-1.47,0-2.93,0-4.51,0
				c-3.49-10.97-6.96-21.84-10.48-32.92c0.59-0.06,1.02-0.14,1.45-0.14c2.49-0.01,4.98-0.01,7.47,0c1.4,0,1.41,0.01,1.76,1.36
				c1.29,4.99,2.58,9.99,3.87,14.98c0.34,1.33,0.7,2.65,1.06,3.98c0.1,0.01,0.21,0.01,0.31,0.02
				C180.35,212.67,182.1,205.94,183.86,199.17z"/>
			<path class="st23" d="M259.4,231.95c0-0.55,0-1.05,0-1.54c0-2.99-0.04-5.99,0.02-8.98c0.02-1.28-0.26-2.4-0.88-3.53
				c-3.17-5.72-6.29-11.47-9.42-17.21c-0.23-0.43-0.44-0.88-0.73-1.44c0.47-0.08,0.77-0.17,1.07-0.17c2.72-0.01,5.43,0.02,8.15-0.02
				c0.81-0.01,1.25,0.29,1.58,1.01c1.38,3.02,2.8,6.01,4.21,9.01c0.19,0.41,0.4,0.81,0.71,1.41c0.28-0.5,0.5-0.82,0.66-1.16
				c1.43-3.04,2.88-6.07,4.26-9.14c0.38-0.84,0.86-1.16,1.78-1.14c2.58,0.06,5.16,0.02,7.74,0.03c0.39,0,0.79,0.07,1.37,0.13
				c-0.33,0.65-0.57,1.13-0.83,1.6c-3.2,5.86-6.38,11.73-9.61,17.57c-0.46,0.84-0.67,1.67-0.66,2.62c0.04,3.13,0.01,6.26,0.01,9.39
				c0,0.5,0,1,0,1.46C267.71,232.18,261.3,232.25,259.4,231.95z"/>
			<path class="st23" d="M127.81,231.98c0-10.92,0-21.77,0-32.61c0.98-0.39,7.64-0.47,9.3-0.08c0,7.77,0,15.58,0,23.53
				c0.63,0.05,1.12,0.13,1.6,0.13c2.53,0.01,5.07,0,7.6,0.01c0.49,0,0.99,0.05,1.65,0.09c0.08,3.02,0.06,5.94,0.02,8.81
				C146.83,232.17,129.84,232.26,127.81,231.98z"/>
			<path class="st23" d="M160.22,232.05c-3.12,0-6.1,0-9.06,0c-0.34-1-0.47-30.61-0.16-32.72c1.06-0.36,7.9-0.39,9.21-0.01
				C160.22,210.16,160.22,221.01,160.22,232.05z"/>
		</g>
	</g>
</g>
</svg>
