<svg xmlns="http://www.w3.org/2000/svg" xmlns:xlink="http://www.w3.org/1999/xlink" width="1043" height="488" viewBox="0 0 1043 488">
  <defs>
    <clipPath id="clip-Get_Discount">
      <rect width="1043" height="488"/>
    </clipPath>
  </defs>
  <g id="Get_Discount" data-name="Get Discount" clip-path="url(#clip-Get_Discount)">
    <g id="Group_1827" data-name="Group 1827">
      <g id="Group_1826" data-name="Group 1826" transform="translate(-460.098 -1652.5)">
        <g id="Group_1488" data-name="Group 1488" transform="translate(1095.53 1428.566)">
          <g id="Group_1816" data-name="Group 1816" transform="translate(-250.048 246.136)">
            <g id="Group_1817" data-name="Group 1817" transform="translate(285.76 57.082)">
              <path id="Path_342" data-name="Path 342" d="M-683.4,570.277l-5.925-17.84H-731.4l-5.335,17.84h-34.224l39.4-123.645h39.81l40.9,123.645Zm-39.87-45.042h24.906l-12.541-42.041Z" transform="translate(770.963 -446.632)" fill="#fff"/>
              <path id="Path_343" data-name="Path 343" d="M-629.564,539.718H-587v30.559h-74.187V446.632h31.618Z" transform="translate(790.301 -446.632)" fill="#fff"/>
              <path id="Path_344" data-name="Path 344" d="M-556.728,539.718h42.568v30.559h-74.187V446.632h31.618Z" transform="translate(803.131 -446.632)" fill="#fff"/>
            </g>
            <g id="Group_1487" data-name="Group 1487" transform="translate(16.35 226.582)">
              <path id="Path_345" data-name="Path 345" d="M-767.626,568.326h38.074V717.215h-38.074Z" transform="translate(767.626 -565.136)" fill="#fff"/>
              <path id="Path_346" data-name="Path 346" d="M-633.82,568.326v36.8h-36.8V717.215h-38.074V605.123h-36.8v-36.8Z" transform="translate(797.384 -565.136)" fill="#fff"/>
              <path id="Path_347" data-name="Path 347" d="M-653.881,681.482h57.641v35.732h-95.716V568.326H-597.3v35.522h-56.579v20.631h51.26v35.1h-51.26Z" transform="translate(869.342 -565.136)" fill="#fff"/>
              <path id="Path_348" data-name="Path 348" d="M-491.545,568.326V717.215H-529.4V637.027l-36.161,59.77h-3.828l-35.946-59.556v79.974h-38.074V568.326h38.074l37.861,63.6,38.074-63.6Z" transform="translate(934.591 -565.136)" fill="#fff"/>
              <path id="Path_349" data-name="Path 349" d="M-511.989,722.237q-23.612,0-39.138-10a52.762,52.762,0,0,1-21.693-27.012l32.542-18.929q8.3,19.779,29.352,19.78,17.437,0,17.443-9.914,0-6.533-10.057-10.542-4.244-1.755-18.66-5.921-20.419-5.95-32.329-16.7t-11.911-29.884q0-20.63,14.78-33.4t36.9-12.762q18.713,0,33.182,8.72T-459.453,601l-31.9,18.716q-7.019-16.59-23.184-16.59-6.811,0-10.317,2.783a8.626,8.626,0,0,0-3.509,7.056q0,4.919,5.2,8.341t20.273,7.911q10.622,3.829,17.337,6.245a70.656,70.656,0,0,1,14.6,7.621,32.219,32.219,0,0,1,11.712,13.371,44.817,44.817,0,0,1,3.835,19.2q0,21.907-15.528,34.244T-511.989,722.237Z" transform="translate(1029.482 -566.965)" fill="#fff"/>
            </g>
            <text id="ON" transform="translate(130 180)" fill="#fff" font-size="177" font-family="Gilroy-Heavy, Gilroy ☞" font-weight="800"><tspan x="-130.272" y="0">ON</tspan></text>
          </g>
        </g>
        <g id="Group_1818" data-name="Group 1818" transform="translate(243.236 35.264)">
          <path id="badge" d="M344.208,145.14A60.825,60.825,0,0,1,321.454,90.2a45.382,45.382,0,0,0-50.277-50.274,60.824,60.824,0,0,1-54.936-22.753,45.38,45.38,0,0,0-71.1,0A60.83,60.83,0,0,1,90.208,39.93,45.382,45.382,0,0,0,39.928,90.206a60.823,60.823,0,0,1-22.756,54.936,45.385,45.385,0,0,0,0,71.1A60.824,60.824,0,0,1,39.928,271.18,45.382,45.382,0,0,0,90.2,321.454a60.827,60.827,0,0,1,54.936,22.753,45.381,45.381,0,0,0,71.1,0,60.835,60.835,0,0,1,54.932-22.755,45.382,45.382,0,0,0,50.281-50.274,60.825,60.825,0,0,1,22.756-54.937,45.384,45.384,0,0,0,0-71.1Z" transform="translate(240.862 1675.175)" fill="#fc2516"/>
          <text id="Get_20_Off" data-name="Get 
20%
Off" transform="translate(422 1824)" fill="#fff" font-size="105" font-family="Gilroy-Heavy, Gilroy ☞" font-weight="800"><tspan x="-108.255" y="0">GET </tspan><tspan font-size="101"><tspan x="-101.96" y="80">20%</tspan><tspan x="-92.011" y="160">OFF</tspan></tspan></text>
        </g>
        <text id="Find_out_early_about_all_upcoming_promotions_and_new_products_" data-name="Find out early about all upcoming promotions and new  products " transform="translate(945 2104)" fill="#fff" font-size="26" font-family="SourceSansPro-Bold, Source Sans Pro" font-weight="700"><tspan x="-257.79" y="0">DISCOUNT TAKEN AT CHECKOUT T&amp;C&apos;S APPLY</tspan></text>
      </g>
    </g>
  </g>
</svg>
