<?xml version="1.0" encoding="utf-8"?>
<!-- Generator: Adobe Illustrator 23.0.5, SVG Export Plug-In . SVG Version: 6.00 Build 0)  -->
<svg version="1.1" id="Layer_1" xmlns="http://www.w3.org/2000/svg" xmlns:xlink="http://www.w3.org/1999/xlink" x="0px" y="0px"
	 viewBox="0 0 466.1 153.9" style="enable-background:new 0 0 466.1 153.9;" xml:space="preserve">
<style type="text/css">
	.st0{fill:#009933;}
	.st1{fill:#FFFFFF;}
	.st2{fill:#288936;}
	.st3{fill:#282828;}
</style>
<path class="st1" d="M434,153.9H32c-17.7,0-32-14.3-32-32V32C0,14.3,14.3,0,32,0h402.1c17.7,0,32,14.3,32,32v89.9
	C466.1,139.6,451.7,153.9,434,153.9z"/>
<path class="st3" d="M77.9,36c11.5,11.7,23.1,23.4,34.4,34.8C100.9,82.3,89.4,94.1,77.6,106c-0.4-0.7-0.7-1.3-0.9-1.8
	c-0.1-0.2,0-0.5,0-0.8c0-21.7,0-43.3,0-65C76.5,37.4,76.6,36.5,77.9,36z"/>
<path class="st3" d="M203.3,82.3c-3.8,0-7.4,0-11.1,0c0-1.6,0-3.1,0-4.7c5.4,0,10.8,0,16.3,0c0.6,4.8-0.3,9.2-3.3,13
	c-6.8,8.7-21.2,7.4-27.5-2.3c-7.1-11,0.3-25.5,13.5-26.5c4.8-0.4,10.2,1.6,12.8,4.7c-1.1,1.1-2.2,2.2-3.3,3.3
	c-1.2-0.7-2.3-1.6-3.7-2.1c-4.4-1.8-8.6-1.4-12.4,1.5c-3.8,2.9-5.3,6.9-4.7,11.6c1.3,10.4,12.4,13.4,19.1,8.8
	C201.7,87.9,203,85.5,203.3,82.3z"/>
<path class="st3" d="M275.5,76.4c0-0.6,0.1-1,0.1-1.6c1.5,0,3,0,4.7,0c0,0.4,0,0.8,0,1.2c0,6.3,0.1,12.7-0.1,19
	c-0.1,2-0.5,4.1-1.3,5.9c-1.6,3.6-4.8,5-8.6,5.2c-4.3,0.3-8.7-2.5-10.4-6.6c1.3-0.6,2.7-1.2,4-1.8c2.4,3.6,5,4.7,8.1,3.4
	c2.6-1,3.9-4.1,3.4-7.5h-0.1c-4.1,4.6-12.2,2.5-15.2-3.2c-3.7-7.1,0.9-15.8,8.9-16.5c2-0.2,3.8,0.4,5.4,1.6
	C274.7,75.8,275,76,275.5,76.4z M263.5,85.2c0,3.4,2.2,6.2,5.3,6.7c3.1,0.5,5.7-1.3,6.6-4.4c0.7-2.3,0.4-4.6-1-6.6
	c-1.5-2.1-4.1-2.9-6.5-2.1C265.2,79.6,263.5,82.2,263.5,85.2z"/>
<path class="st3" d="M78.6,106.3c11.5-11.6,22.9-23.3,34.4-35c3.2,3.3,6.4,6.5,9.5,9.8c-14.6,8.4-29.3,16.8-44,25.3
	C78.6,106.4,78.6,106.4,78.6,106.3z"/>
<path class="st3" d="M122.5,60.6c-3.2,3.2-6.3,6.4-9.5,9.7c-11.5-11.6-22.9-23.2-34.4-34.9c-0.1,0-0.1,0-0.2,0.1
	c0.4,0.2,0.9,0.2,1.3,0.5c14.2,8.1,28.3,16.3,42.4,24.4C122.3,60.5,122.4,60.6,122.5,60.6z"/>
<path class="st3" d="M321.9,63c4.5,0,8.9,0,13.3,0c0.3,0,0.6,0.1,0.9,0.2c4.9,1,8.4,5.3,8.3,10.1c-0.2,5.1-4,9.3-9.1,9.9
	c-2.2,0.2-4.5,0.1-6.7,0.2c-0.5,0-1.1,0-1.7,0c0,4.1,0,8.1,0,12.2c-1.7,0-3.3,0-4.9,0C321.9,84.8,321.9,74,321.9,63z M326.8,78.6
	c2.7,0,5.2,0.1,7.7,0c2.7-0.2,4.9-2.8,5.1-5.6c0.1-2.3-1.9-5-4.3-5.3c-2.8-0.3-5.6-0.1-8.4-0.1c0,0.4,0,0.7,0,1
	C326.8,71.8,326.8,75.1,326.8,78.6z"/>
<path class="st3" d="M369.2,82.6c0-1.8-1.1-3.1-2.9-3.8c-2.4-0.9-4.6-0.3-6.7,1.9c-1.4-0.6-2.8-1.2-4.6-1.9c1-1.1,1.7-2.2,2.6-3
	c4.9-3.8,15.5-2.4,16.7,6.8c0.3,2.6,0.1,5.2,0.1,7.9c0,1.7,0,3.3,0,5.1c-1.6,0-3.1,0-4.7,0c0-0.8-0.1-1.6-0.1-2.6
	c-0.3,0.3-0.5,0.4-0.6,0.6c-3.2,3.8-8.8,2.9-11.5,0.5c-3.5-3.1-3.2-8.2,0.6-10.8c3.1-2.1,6.5-2.4,10.1-1.2
	C368.5,82.3,368.8,82.5,369.2,82.6z M364.7,85.5c-1.2,0.3-2.4,0.5-3.6,1c-1.1,0.5-1.7,1.4-1.6,2.7c0.1,1.3,0.9,1.9,2,2.4
	c3,1.2,6.8-0.9,7.4-4.1c0.1-0.3-0.3-0.8-0.5-0.9C367.2,86.1,366,85.9,364.7,85.5z"/>
<path class="st3" d="M221.3,74.2c6.8,0.2,11.3,5,11.1,11.7c-0.2,6.4-5.3,11-12,10.7c-5.9-0.2-10.7-5.5-10.5-11.5
	C210,78.8,215.1,74,221.3,74.2z M214.9,85.2c0,3,1.7,5.6,4.3,6.4c3.1,1,6.4-0.6,7.6-3.8c1.4-3.5-0.1-7.5-3.2-8.9
	C219.4,77.1,214.9,80.3,214.9,85.2z"/>
<path class="st3" d="M245.5,74.2c6.5,0,11.2,4.7,11.2,11.3c0,6.5-4.8,11.2-11.4,11.2c-6.2,0-11.1-4.9-11.1-11.2
	C234.2,79,239.1,74.2,245.5,74.2z M251.7,85.3c0-3.2-1.6-5.6-4.1-6.5c-2.9-1-5.9,0.2-7.4,2.9c-1.7,2.9-1,6.8,1.5,8.9
	c1.9,1.6,4.1,1.9,6.4,0.9C250.6,90.2,251.6,87.9,251.7,85.3z"/>
<path class="st3" d="M311.5,82.5c-5.1,2.2-10,4.2-14.9,6.3c0.9,3.4,7.1,5.4,10.9,0.3c1.2,0.9,2.4,1.7,3.6,2.6
	c-3.2,5.7-11.7,6.7-16.6,2.1c-5.7-5.3-4.4-15.5,2.5-18.7c4.6-2.1,9.6-0.8,12.4,3.4C310.2,79.7,310.7,81.1,311.5,82.5z M305.5,80.7
	c-1.2-2-3.6-2.8-5.7-2c-2.5,1-4.3,3.8-3.8,6C299.1,83.4,302.3,82.1,305.5,80.7z"/>
<path class="st3" d="M123,80.6c-3.3-3.3-6.4-6.6-9.6-9.8c3-3,6-6.1,9.1-9.1c0.2-0.2,0.8-0.2,1.1-0.1c4.5,2.5,8.9,5,13.3,7.6
	c1.4,0.8,1.4,2.5,0,3.3C132.4,75.2,127.7,77.9,123,80.6z"/>
<path class="st3" d="M374.1,74.7c1.7,0,3.2-0.1,4.6,0c0.4,0,0.9,0.6,1,1c1.6,3.9,3.2,7.8,4.8,11.7c0.2,0.4,0.4,0.9,0.7,1.5
	c0.2-0.6,0.4-0.9,0.5-1.3c1.6-4,3.1-8,4.6-12c0.3-0.7,0.6-1.1,1.4-1c1.4,0.1,2.7,0,4.3,0c-0.7,1.7-1.4,3.2-2,4.8
	c-3.6,8.3-7.2,16.7-10.8,25c-0.3,0.8-0.7,1.2-1.6,1.1c-1.2-0.1-2.4,0-3.8,0c0.2-0.5,0.3-0.8,0.5-1.2c1.3-3,2.6-5.9,4-8.8
	c0.3-0.7,0.3-1.3,0-2c-2.5-5.8-5-11.5-7.5-17.3C374.6,75.8,374.4,75.4,374.1,74.7z"/>
<path class="st3" d="M283.4,63c1.6,0,3.2,0,4.9,0c0,10.9,0,21.7,0,32.6c-1.6,0-3.2,0-4.9,0C283.4,84.8,283.4,73.9,283.4,63z"/>
<path class="st3" d="M347,63c1.6,0,3.2,0,4.9,0c0,10.9,0,21.7,0,32.6c-1.6,0-3.2,0-4.9,0C347,84.8,347,74,347,63z"/>
<path class="st3" d="M275.1,41c0,3.8,0,7.5,0,11.2c0,0.1-0.1,0.2-0.1,0.4c-0.9,0-1.9,0-2.9,0c0-5.5,0-11,0-16.6c1.1,0,2.2-0.1,3.2,0
	c0.3,0,0.7,0.5,0.9,0.8c1.8,2.9,3.5,5.9,5.3,8.8c0.2,0.4,0.5,0.8,0.9,1.4c0-3.8,0-7.3,0-11c1,0,2,0,3.1,0c0,5.5,0,11,0,16.6
	c-1,0-2,0.1-2.9,0c-0.3,0-0.7-0.5-0.9-0.8c-1.9-3.2-3.9-6.4-5.8-9.6C275.6,41.8,275.4,41.5,275.1,41z"/>
<path class="st3" d="M269.5,44.3c0,5-3.8,8.8-8.7,8.8c-4.9-0.1-8.7-3.8-8.7-8.7c0-4.9,3.8-8.7,8.7-8.7
	C265.7,35.6,269.5,39.4,269.5,44.3z M255.3,44.2c-0.1,3.3,2.2,5.8,5.4,5.8c3.1,0.1,5.5-2.3,5.6-5.6c0.1-3.2-2.2-5.7-5.3-5.8
	C257.8,38.6,255.4,40.9,255.3,44.2z"/>
<path class="st3" d="M185.3,46.3c0-1,0-1.8,0-2.7c2.6,0,5.1,0,7.7,0c0.2,0,0.6,0.6,0.6,1c0.4,4.9-3.1,8.5-8.2,8.5
	c-4.4,0.1-8.2-3.1-8.8-7.3c-0.6-4.7,2-8.8,6.5-9.9c3.2-0.8,6.1-0.1,8.6,2.4c-0.7,0.7-1.4,1.3-2.2,2c-1.4-1.3-3.1-2-5.1-1.5
	c-1.1,0.3-2.3,0.9-3.1,1.6c-1.8,1.6-2,4.6-0.9,6.7c1.2,2.2,3.6,3.2,6.2,2.8c2-0.4,3.4-1.7,3.7-3.7C188.7,46.3,187.1,46.3,185.3,46.3
	z"/>
<path class="st3" d="M206.8,49.6c0,1.1,0,2,0,3c-3.5,0-7,0-10.5,0c0-5.5,0-11,0-16.5c3.5,0,6.9,0,10.5,0c0,1,0,1.9,0,3
	c-2.4,0-4.8,0-7.2,0c0,1.3,0,2.4,0,3.7c2.1,0,4.3,0,6.5,0c0,1.1,0,2,0,3c-2.1,0-4.2,0-6.5,0c0,1.3,0,2.5,0,3.8
	C201.9,49.6,204.3,49.6,206.8,49.6z"/>
<path class="st3" d="M238.3,39.1c-1.6,0-3.1,0-4.6,0c0-1,0-1.9,0-3c4.1,0,8.1,0,12.3,0c0,0.9,0,1.8,0,2.9c-1.5,0-2.9,0-4.5,0
	c0,4.6,0,9,0,13.6c-1.1,0-2.1,0-3.2,0C238.3,48.1,238.3,43.7,238.3,39.1z"/>
<path class="st3" d="M216.4,52.6c-1.1,0-2.1,0-3.2,0c0-4.5,0-8.9,0-13.5c-1.6,0-3,0-4.6,0c0-1.1,0-2,0-3c4.1,0,8.2,0,12.3,0
	c0,1,0,1.9,0,3c-1.5,0-2.9,0-4.5,0C216.4,43.6,216.4,48.1,216.4,52.6z"/>
<path class="st3" d="M231.4,52.6c-1,0-2,0-3,0c0-5.5,0-11,0-16.6c1,0,2,0,3,0C231.4,41.6,231.4,47.1,231.4,52.6z"/>
</svg>
