<svg xmlns="http://www.w3.org/2000/svg" xmlns:xlink="http://www.w3.org/1999/xlink" width="261" height="105" viewBox="0 0 261 105">
  <defs>
    <clipPath id="clip-Google_Play_button">
      <rect width="261" height="105"/>
    </clipPath>
  </defs>
  <g id="Google_Play_button" data-name="Google Play_button" clip-path="url(#clip-Google_Play_button)">
    <g id="Group_1468" data-name="Group 1468" transform="translate(17.817 14.754)">
      <path id="Path_79" data-name="Path 79" d="M221.465,11H23.764C11.964,11,10,15.086,10,24.8V72.777c0,9.709,4.041,13.715,13.751,13.715H221.466c9.716,0,13.9-4.012,13.9-13.728V24.8C235.366,15.086,231.181,11,221.465,11Z" transform="translate(-10 -11)" fill="#fff" fill-rule="evenodd"/>
      <g id="Group_113" data-name="Group 113" transform="translate(28.148 20.874)">
        <path id="Path_80" data-name="Path 80" d="M93.683,78.545A1.009,1.009,0,0,0,93,79.5v33.446a1.009,1.009,0,0,0,.674.954l17.768-17.684Z" transform="translate(-93 -78.487)" fill="#3c9" stroke="#fff" stroke-width="1.4"/>
        <path id="Path_81" data-name="Path 81" d="M119.815,90.953,97.89,78.338a1,1,0,0,0-.838-.078L114.81,95.935Z" transform="translate(-96.369 -78.203)" fill="#3c9" stroke="#fff" stroke-width="1.4"/>
        <path id="Path_82" data-name="Path 82" d="M97.842,200.941l21.933-12.619-5.014-4.99L96.994,201.016A1,1,0,0,0,97.842,200.941Z" transform="translate(-96.321 -165.6)" fill="#3c9" stroke="#fff" stroke-width="1.4"/>
        <path id="Path_83" data-name="Path 83" d="M207.348,163.767l7.132-4.1a1.015,1.015,0,0,0,0-1.76l-7.141-4.108-5.006,4.982Z" transform="translate(-183.893 -141.045)" fill="#3c9" stroke="#fff" stroke-width="1.4"/>
      </g>
      <g id="Group_114" data-name="Group 114" transform="translate(77.742 34.094)">
        <path id="Path_84" data-name="Path 84" d="M333.354,175.491a5.543,5.543,0,0,0-5.665,5.665,5.623,5.623,0,0,0,5.665,5.665,5.543,5.543,0,0,0,5.665-5.665A5.466,5.466,0,0,0,333.354,175.491Zm0,8.958a3.436,3.436,0,0,1,0-6.851,3.191,3.191,0,0,1,3.162,3.425A3.27,3.27,0,0,1,333.354,184.449ZM321.1,175.491a5.543,5.543,0,0,0-5.665,5.665,5.623,5.623,0,0,0,5.665,5.665,5.543,5.543,0,0,0,5.665-5.665A5.466,5.466,0,0,0,321.1,175.491Zm0,8.958a3.436,3.436,0,0,1,0-6.851,3.191,3.191,0,0,1,3.162,3.425A3.27,3.27,0,0,1,321.1,184.449ZM306.478,177.2v2.371h5.665a4.981,4.981,0,0,1-1.317,3.03,5.831,5.831,0,0,1-4.348,1.713,6.134,6.134,0,0,1-6.192-6.324,6.214,6.214,0,0,1,6.192-6.324,6.533,6.533,0,0,1,4.348,1.713l1.713-1.713a8.442,8.442,0,0,0-5.928-2.371,8.7,8.7,0,1,0,0,17.39,7.582,7.582,0,0,0,6.06-2.5,7.931,7.931,0,0,0,2.108-5.533,4.936,4.936,0,0,0-.132-1.449Zm59.812,1.844a5.119,5.119,0,0,0-4.743-3.557,5.306,5.306,0,0,0-5.27,5.665,5.513,5.513,0,0,0,5.533,5.665,5.4,5.4,0,0,0,4.611-2.5L364.577,183a3.211,3.211,0,0,1-2.767,1.581,2.858,2.858,0,0,1-2.767-1.713l7.51-3.162-.263-.659Zm-7.641,1.844a3.2,3.2,0,0,1,2.9-3.294,2.33,2.33,0,0,1,2.108,1.186l-5.006,2.108Zm-6.192,5.4h2.5V169.826h-2.5Zm-3.952-9.617a4.338,4.338,0,0,0-3.03-1.317,5.661,5.661,0,0,0-5.4,5.665,5.455,5.455,0,0,0,5.4,5.533,3.783,3.783,0,0,0,2.9-1.317h.132v.79c0,2.108-1.186,3.294-3.03,3.294a2.927,2.927,0,0,1-2.767-1.976l-2.108.922a5.435,5.435,0,0,0,5.006,3.294c2.9,0,5.27-1.713,5.27-5.8V175.754H348.5v.922Zm-2.9,7.773a3.436,3.436,0,0,1,0-6.851,3.451,3.451,0,0,1,0,6.851Zm32.145-14.624h-5.928v16.468h2.5V180.1h3.425a5.144,5.144,0,1,0,0-10.276Zm.132,7.9h-3.557v-5.665h3.557a2.894,2.894,0,0,1,2.9,2.766,3.015,3.015,0,0,1-2.9,2.9Zm15.151-2.371a4.428,4.428,0,0,0-4.348,2.5l2.24.922a2.327,2.327,0,0,1,2.24-1.186,2.476,2.476,0,0,1,2.635,2.108v.132a5.225,5.225,0,0,0-2.5-.659c-2.371,0-4.743,1.317-4.743,3.689a3.86,3.86,0,0,0,4.084,3.689,3.707,3.707,0,0,0,3.162-1.581h.132v1.317H398.3V179.97a4.986,4.986,0,0,0-5.27-4.611Zm-.264,9.09c-.79,0-1.976-.4-1.976-1.449,0-1.317,1.449-1.713,2.635-1.713a5.091,5.091,0,0,1,2.24.527A3.068,3.068,0,0,1,392.77,184.449Zm13.833-8.7-2.767,7.114H403.7l-2.9-7.114h-2.635l4.348,10.012-2.5,5.533h2.5l6.719-15.546ZM384.47,186.294h2.5V169.826h-2.5Z" transform="translate(-297.783 -169.299)" fill="#3c9"/>
      </g>
      <g id="Group_115" data-name="Group 115" transform="translate(78.635 20.874)">
        <path id="Path_85" data-name="Path 85" d="M303.409,94.888h4.1a2.755,2.755,0,0,1,.059.339,3.424,3.424,0,0,1,.023.4,4.642,4.642,0,0,1-.246,1.52,3.521,3.521,0,0,1-.772,1.275,3.871,3.871,0,0,1-1.345.924,4.609,4.609,0,0,1-1.789.327,4.53,4.53,0,0,1-1.719-.327,4.276,4.276,0,0,1-1.4-.912,4.379,4.379,0,0,1-.947-1.386,4.532,4.532,0,0,1,0-3.5,4.383,4.383,0,0,1,.947-1.386,4.282,4.282,0,0,1,1.4-.912,4.783,4.783,0,0,1,3.537.023,4.076,4.076,0,0,1,1.374.971l-1.088,1.064a2.973,2.973,0,0,0-3.2-.684,2.729,2.729,0,0,0-.9.579,2.764,2.764,0,0,0-.614.906,3.2,3.2,0,0,0,0,2.374,2.714,2.714,0,0,0,.62.906,2.787,2.787,0,0,0,.906.579,3.218,3.218,0,0,0,2.228.012,2.643,2.643,0,0,0,.789-.5,1.893,1.893,0,0,0,.4-.532,3.021,3.021,0,0,0,.263-.719h-2.631Z" transform="translate(-299.024 -90.924)" fill="#3c9"/>
        <path id="Path_86" data-name="Path 86" d="M359.19,93.53v1.941h3.356v1.5H359.19v1.941h3.731v1.5h-5.309V92.033h5.309v1.5Z" transform="translate(-347.729 -91.846)" fill="#3c9"/>
        <path id="Path_87" data-name="Path 87" d="M396.695,100.406V93.53h-2.339v-1.5h6.257v1.5h-2.339v6.876Z" transform="translate(-378.277 -91.846)" fill="#3c9"/>
        <path id="Path_88" data-name="Path 88" d="M453.358,92.033h1.579v8.373h-1.579Z" transform="translate(-427.327 -91.846)" fill="#3c9"/>
        <path id="Path_89" data-name="Path 89" d="M471.712,100.406V93.53h-2.339v-1.5h6.256v1.5h-2.339v6.876Z" transform="translate(-440.641 -91.846)" fill="#3c9"/>
        <path id="Path_90" data-name="Path 90" d="M528.936,99.671a4.405,4.405,0,0,1-1.737-.339,4.231,4.231,0,0,1-2.3-2.321,4.569,4.569,0,0,1,0-3.426,4.229,4.229,0,0,1,2.3-2.321,4.615,4.615,0,0,1,3.473,0,4.231,4.231,0,0,1,2.3,2.321,4.569,4.569,0,0,1,0,3.426,4.233,4.233,0,0,1-2.3,2.321A4.408,4.408,0,0,1,528.936,99.671Zm0-1.5a2.831,2.831,0,0,0,1.093-.211,2.75,2.75,0,0,0,.889-.585,2.663,2.663,0,0,0,.6-.906,3.3,3.3,0,0,0,0-2.351,2.667,2.667,0,0,0-.6-.906,2.753,2.753,0,0,0-.889-.585,2.945,2.945,0,0,0-2.187,0,2.751,2.751,0,0,0-.889.585,2.661,2.661,0,0,0-.6.906,3.3,3.3,0,0,0,0,2.351,2.658,2.658,0,0,0,.6.906,2.748,2.748,0,0,0,.889.585A2.831,2.831,0,0,0,528.936,98.175Z" transform="translate(-486.521 -90.924)" fill="#3c9"/>
        <path id="Path_91" data-name="Path 91" d="M583.98,92.033h1.836l3.368,5.613h.094l-.094-1.614v-4h1.567v8.373H589.09l-3.555-5.929h-.094l.094,1.614v4.315H583.98Z" transform="translate(-535.917 -91.846)" fill="#3c9"/>
      </g>
    </g>
  </g>
</svg>
