<svg id="Layer_1" data-name="Layer 1" xmlns="http://www.w3.org/2000/svg" viewBox="0 0 350 100"><defs><style>.cls-1{fill:#093;}.cls-2{fill:#231f20;}</style></defs><title>Logo</title><path class="cls-1" d="M58,7.47A43.3,43.3,0,0,0,56.47,94V81.16c-7.86-.6-16.52-5.43-25.11-17.3l11.77-7c15,17.76,25.74,1.31,25.74-2.72V8.85A43.75,43.75,0,0,0,58,7.47Zm-24.06,38a7.85,7.85,0,1,1,7.85-7.85A7.85,7.85,0,0,1,33.94,45.48Z"/><circle class="cls-1" cx="84.23" cy="37.63" r="7.85"/><path class="cls-2" d="M200.47,10.57v4.25a20.87,20.87,0,0,0-14.34-5.15,25.11,25.11,0,0,0-10.27,2.15,24.77,24.77,0,0,0-8.27,5.91,27,27,0,0,0-5.41,9.06,32.53,32.53,0,0,0-2,11.37,32.65,32.65,0,0,0,2,11.45,25.9,25.9,0,0,0,5.48,9A24.64,24.64,0,0,0,176,64.29a27.3,27.3,0,0,0,10.51,2c5.94,0,10.83-1.81,14.6-5.43v4.55h15.92V10.57Zm-.27,32.9a12.31,12.31,0,0,1-2.61,4.14,12.09,12.09,0,0,1-17.18,0,13,13,0,0,1-3.39-9.4c0-4.08,1.14-7.27,3.49-9.71a11.35,11.35,0,0,1,8.66-3.63,10.77,10.77,0,0,1,8.46,3.74,13.69,13.69,0,0,1,3.42,9.6A15.56,15.56,0,0,1,200.2,43.47Z"/><path class="cls-2" d="M292.59,10.57v4.25a20.91,20.91,0,0,0-14.34-5.15A25.3,25.3,0,0,0,268,11.82a24.83,24.83,0,0,0-8.26,5.91,26,26,0,0,0-4.39,6.62V9.92l-1.09-.18a9.63,9.63,0,0,0-1.31-.07,19.35,19.35,0,0,0-9.35,2.39,21.51,21.51,0,0,0-5.3,4.09V10.57H221.67V65.44h16.59V39.88a12.58,12.58,0,0,1,3.19-9c2.11-2.29,5-3.39,8.84-3.39,1.05,0,2.27.05,3.63.14H254a32.92,32.92,0,0,0-1.64,10.48,32.43,32.43,0,0,0,2,11.45,25.92,25.92,0,0,0,5.46,9,24.72,24.72,0,0,0,8.4,5.72,27.21,27.21,0,0,0,10.5,2c5.94,0,10.83-1.81,14.6-5.43v4.55h15.92V10.57Zm-2.89,37a12.09,12.09,0,0,1-17.18,0,13,13,0,0,1-3.38-9.4c0-4.09,1.14-7.27,3.49-9.71a11.31,11.31,0,0,1,8.65-3.63,10.77,10.77,0,0,1,8.47,3.74,13.78,13.78,0,0,1,3.41,9.6A12.88,12.88,0,0,1,289.7,47.61Z"/><path class="cls-2" d="M332.41,57.45a3.43,3.43,0,0,0,2-.86,2.55,2.55,0,0,0,.74-1.94,2.77,2.77,0,0,0-.92-2.17,4.11,4.11,0,0,0-2.72-.8h-3.82V62.1H329V57.56H331l2.83,4.54h1.6ZM330.8,56.3H329V52.88h2.21a3.82,3.82,0,0,1,1.8.4,1.33,1.33,0,0,1,.75,1.3A1.35,1.35,0,0,1,333,56,6.18,6.18,0,0,1,330.8,56.3Z"/><path class="cls-2" d="M338.66,52.58a8.67,8.67,0,0,0-3.22-3.2A8.8,8.8,0,0,0,331,48.22a9,9,0,0,0-4.53,1.16,8.72,8.72,0,0,0-4.44,7.7,8.71,8.71,0,0,0,1.22,4.55A8.86,8.86,0,0,0,331,66a9,9,0,0,0,7.7-13.46ZM337.45,61A7.42,7.42,0,0,1,331,64.74a7.66,7.66,0,0,1-3.8-1,7.25,7.25,0,0,1-2.75-2.72,7.88,7.88,0,0,1-1-4,7.6,7.6,0,0,1,1-3.89,7.13,7.13,0,0,1,2.75-2.7,7.67,7.67,0,0,1,3.8-1,7.18,7.18,0,0,1,3.75,1,7.55,7.55,0,0,1,2.74,2.73,7.36,7.36,0,0,1,1,3.8A7.7,7.7,0,0,1,337.45,61Z"/><path class="cls-2" d="M332.41,57.45a3.43,3.43,0,0,0,2-.86,2.55,2.55,0,0,0,.74-1.94,2.77,2.77,0,0,0-.92-2.17,4.11,4.11,0,0,0-2.72-.8h-3.82V62.1H329V57.56H331l2.83,4.54h1.6ZM330.8,56.3H329V52.88h2.21a3.82,3.82,0,0,1,1.8.4,1.33,1.33,0,0,1,.75,1.3A1.35,1.35,0,0,1,333,56,6.18,6.18,0,0,1,330.8,56.3Z"/><path class="cls-2" d="M332.41,57.45a3.43,3.43,0,0,0,2-.86,2.55,2.55,0,0,0,.74-1.94,2.77,2.77,0,0,0-.92-2.17,4.11,4.11,0,0,0-2.72-.8h-3.82V62.1H329V57.56H331l2.83,4.54h1.6ZM330.8,56.3H329V52.88h2.21a3.82,3.82,0,0,1,1.8.4,1.33,1.33,0,0,1,.75,1.3A1.35,1.35,0,0,1,333,56,6.18,6.18,0,0,1,330.8,56.3Z"/><path class="cls-2" d="M332.41,57.45a3.43,3.43,0,0,0,2-.86,2.55,2.55,0,0,0,.74-1.94,2.77,2.77,0,0,0-.92-2.17,4.11,4.11,0,0,0-2.72-.8h-3.82V62.1H329V57.56H331l2.83,4.54h1.6ZM330.8,56.3H329V52.88h2.21a3.82,3.82,0,0,1,1.8.4,1.33,1.33,0,0,1,.75,1.3A1.35,1.35,0,0,1,333,56,6.18,6.18,0,0,1,330.8,56.3Z"/><path class="cls-2" d="M159.25,11.06v50.6c0,17.22-8.49,22.68-10.31,23.88a20.92,20.92,0,0,1-6.39,2.71,32.34,32.34,0,0,1-8,.91c-3.61,0-10.3-1.88-13.8-3.28l3.09-13.67s7.94,1.64,9.72,1.64c2,0,8,0,8-11.94V11.06Z"/></svg>