<?xml version="1.0" encoding="utf-8"?>
<!-- Generator: Adobe Illustrator 23.0.5, SVG Export Plug-In . SVG Version: 6.00 Build 0)  -->
<svg version="1.1" id="Layer_1" xmlns="http://www.w3.org/2000/svg" xmlns:xlink="http://www.w3.org/1999/xlink" x="0px" y="0px"
	 viewBox="0 0 535 581" style="enable-background:new 0 0 535 581;" xml:space="preserve">
<style type="text/css">
	.st0{clip-path:url(#SVGID_2_);}
	.st1{fill:#33CC99;}
	.st2{fill:#FAF8F6;}
	.st3{enable-background:new    ;}
	.st4{fill:#FFFFFF;}
	.st5{fill:#5771E5;}
	.st6{fill:#ED6445;}
	.st7{fill:#89A8F5;}
	.st8{fill:#6E8BEB;}
	.st9{fill:#DE402F;}
	.st10{fill:#F5A431;}
	.st11{fill:#F7C04A;}
	.st12{fill:#96CFFA;}
	.st13{fill:#7AB8F5;}
</style>
<g>
	<defs>
		<rect id="SVGID_1_" width="535" height="581"/>
	</defs>
	<clipPath id="SVGID_2_">
		<use xlink:href="#SVGID_1_"  style="overflow:visible;"/>
	</clipPath>
	<g id="Jara_Marketplace" class="st0">
		<path id="Rectangle_17021" class="st1" d="M57,21.3h414c22.6,0,41,18.4,41,41v463c0,22.6-18.4,41-41,41H57c-22.6,0-41-18.4-41-41
			v-463C16,39.7,34.4,21.3,57,21.3z"/>
		<circle id="Ellipse_96" class="st2" cx="139.5" cy="131.8" r="67.5"/>
		<g class="st3">
			<path class="st4" d="M82,245.5c-2.4,0-4.5-0.5-6.1-1.6c-1.6-1-2.7-2.4-3.4-4.2l5-2.9c0.9,2,2.4,3.1,4.6,3.1
				c1.8,0,2.7-0.5,2.7-1.5c0-0.7-0.5-1.2-1.6-1.6c-0.4-0.2-1.4-0.5-2.9-0.9c-2.1-0.6-3.8-1.5-5-2.6c-1.2-1.1-1.8-2.7-1.8-4.6
				c0-2.1,0.8-3.9,2.3-5.2c1.5-1.3,3.4-2,5.7-2c1.9,0,3.7,0.5,5.1,1.4c1.5,0.9,2.6,2.2,3.4,3.9l-5,2.9c-0.7-1.7-1.9-2.6-3.6-2.6
				c-0.7,0-1.2,0.1-1.6,0.4c-0.4,0.3-0.5,0.7-0.5,1.1c0,0.5,0.3,0.9,0.8,1.3c0.5,0.4,1.6,0.8,3.1,1.2c1.1,0.4,2,0.7,2.7,1
				s1.4,0.6,2.3,1.2c0.8,0.5,1.4,1.2,1.8,2.1c0.4,0.8,0.6,1.8,0.6,3c0,2.3-0.8,4-2.4,5.3C86.8,244.9,84.7,245.5,82,245.5z"/>
			<path class="st4" d="M103,228c1.8,0,3.2,0.6,4.4,1.8c1.1,1.2,1.7,3,1.7,5.3v9.9h-5.5v-9.2c0-0.9-0.2-1.5-0.7-1.9
				c-0.5-0.4-1.1-0.7-1.8-0.7c-0.9,0-1.5,0.3-2,0.8c-0.5,0.5-0.7,1.3-0.7,2.2v8.8h-5.5v-23.1h5.5v8.3C99.4,228.7,100.9,228,103,228z
				"/>
			<path class="st4" d="M120,245.5c-2.4,0-4.5-0.8-6.2-2.5c-1.7-1.7-2.6-3.7-2.6-6.2s0.9-4.5,2.6-6.2c1.7-1.7,3.8-2.5,6.2-2.5
				c2.5,0,4.5,0.8,6.3,2.5c1.7,1.7,2.6,3.7,2.6,6.2s-0.9,4.5-2.6,6.2C124.5,244.6,122.4,245.5,120,245.5z M120,240.2
				c1,0,1.8-0.3,2.4-1c0.6-0.6,0.9-1.5,0.9-2.5s-0.3-1.8-0.9-2.5c-0.6-0.6-1.4-1-2.4-1c-0.9,0-1.7,0.3-2.4,1
				c-0.6,0.6-0.9,1.5-0.9,2.5s0.3,1.8,0.9,2.5C118.2,239.9,119,240.2,120,240.2z"/>
			<path class="st4" d="M141.4,228c2.2,0,4,0.8,5.5,2.5c1.5,1.7,2.2,3.7,2.2,6.2c0,2.5-0.7,4.6-2.2,6.2c-1.5,1.7-3.3,2.5-5.5,2.5
				c-2,0-3.6-0.7-4.7-2v8.1h-5.5v-23.1h5.5v1.5C137.8,228.7,139.4,228,141.4,228z M137.6,239.4c0.6,0.7,1.5,1,2.5,1s1.9-0.3,2.5-1
				c0.6-0.7,1-1.5,1-2.6s-0.3-1.9-1-2.6c-0.6-0.7-1.5-1-2.5-1s-1.9,0.3-2.5,1c-0.6,0.7-1,1.5-1,2.6S137,238.7,137.6,239.4z"/>
			<path class="st4" d="M168.3,226.5c-1.9-0.1-2.8,0.5-2.8,2h2.8v5.2h-2.8V245H160v-11.3h-2.1v-5.2h2.1c0-2.4,0.7-4.2,2.1-5.4
				c1.4-1.3,3.5-1.8,6.2-1.6V226.5z"/>
			<path class="st4" d="M175.4,231.6c0.3-1.1,0.9-1.9,1.8-2.5c0.9-0.6,2-0.9,3.1-0.9v6.1c-1.3-0.2-2.4,0-3.4,0.7
				c-1,0.7-1.5,1.7-1.5,3.2v6.8h-5.5v-16.5h5.5V231.6z"/>
			<path class="st4" d="M190,245.5c-2.4,0-4.5-0.8-6.2-2.5c-1.7-1.7-2.6-3.7-2.6-6.2s0.9-4.5,2.6-6.2c1.7-1.7,3.8-2.5,6.2-2.5
				c2.5,0,4.5,0.8,6.3,2.5c1.7,1.7,2.6,3.7,2.6,6.2s-0.9,4.5-2.6,6.2C194.5,244.6,192.4,245.5,190,245.5z M190,240.2
				c1,0,1.8-0.3,2.4-1c0.6-0.6,0.9-1.5,0.9-2.5s-0.3-1.8-0.9-2.5c-0.6-0.6-1.4-1-2.4-1c-0.9,0-1.7,0.3-2.4,1
				c-0.6,0.6-0.9,1.5-0.9,2.5s0.3,1.8,0.9,2.5C188.2,239.9,189,240.2,190,240.2z"/>
			<path class="st4" d="M220.1,228c1.9,0,3.4,0.6,4.5,1.8c1.1,1.2,1.7,2.9,1.7,5V245h-5.5v-9.5c0-1.5-0.7-2.3-2-2.3
				c-0.7,0-1.3,0.2-1.7,0.7c-0.4,0.5-0.6,1.2-0.6,2v9H211v-9.5c0-1.5-0.7-2.3-2.1-2.3c-0.7,0-1.3,0.2-1.7,0.7
				c-0.4,0.5-0.6,1.2-0.6,2v9h-5.5v-16.5h5.5v1.6c1-1.3,2.5-2,4.5-2c1.9,0,3.3,0.7,4.2,2.1C216.5,228.7,218.1,228,220.1,228z"/>
			<path class="st4" d="M247,233.8h-3.4v4.8c0,0.7,0.3,1.2,0.8,1.4c0.5,0.2,1.4,0.2,2.6,0.2v5c-3.3,0.4-5.6,0.1-6.9-0.9
				s-2-2.8-2-5.4v-4.9h-2.5v-5.2h2.5v-3l5.5-1.7v4.6h3.4V233.8z"/>
			<path class="st4" d="M259.6,228c1.8,0,3.2,0.6,4.4,1.8c1.1,1.2,1.7,3,1.7,5.3v9.9h-5.5v-9.2c0-0.9-0.2-1.5-0.7-1.9
				c-0.5-0.4-1.1-0.7-1.8-0.7c-0.9,0-1.5,0.3-2,0.8c-0.5,0.5-0.7,1.3-0.7,2.2v8.8h-5.5v-23.1h5.5v8.3C256,228.7,257.6,228,259.6,228
				z"/>
			<path class="st4" d="M273.5,238.8c0.5,1.3,1.8,2,3.7,2c1.2,0,2.2-0.4,3-1.2l4,2.8c-1.6,2-4,3.1-7.1,3.1c-2.8,0-5-0.8-6.7-2.5
				s-2.5-3.7-2.5-6.2c0-2.5,0.8-4.6,2.5-6.2c1.7-1.7,3.8-2.5,6.3-2.5c2.5,0,4.5,0.8,6.1,2.5c1.6,1.7,2.4,3.7,2.4,6.2
				c0,0.7-0.1,1.4-0.2,2H273.5z M273.5,235h6.3c-0.4-1.5-1.5-2.3-3.1-2.3C275,232.7,273.9,233.4,273.5,235z"/>
		</g>
		<g class="st3">
			<path class="st4" d="M80.8,280.5c-3.8,0-6.4-1.5-8-4.6l5-2.9c0.3,0.6,0.7,1.1,1.2,1.4s1,0.4,1.8,0.4c1.7,0,2.5-0.8,2.5-2.3v-15.5
				h5.9v15.6c0,2.5-0.8,4.4-2.3,5.9C85.4,279.8,83.4,280.5,80.8,280.5z"/>
			<path class="st4" d="M106.4,280l-1.1-3.3h-7.9l-1,3.3H90l7.4-23.1h7.4l7.6,23.1H106.4z M98.9,271.6h4.7l-2.3-7.9L98.9,271.6z"/>
			<path class="st4" d="M126.2,280l-4-7.5H120v7.5h-5.9v-23.1h9.2c2.4,0,4.3,0.8,5.9,2.3c1.6,1.5,2.4,3.4,2.4,5.7
				c0,1.4-0.4,2.7-1.1,3.8c-0.7,1.2-1.7,2.1-2.9,2.8l4.8,8.5H126.2z M120,262.3v5.2h3.3c0.7,0,1.3-0.2,1.8-0.7
				c0.5-0.5,0.7-1.1,0.7-1.9c0-0.8-0.2-1.4-0.7-1.9c-0.5-0.5-1.1-0.7-1.8-0.7H120z"/>
			<path class="st4" d="M149.3,280l-1.1-3.3h-7.9l-1,3.3h-6.4l7.4-23.1h7.4l7.6,23.1H149.3z M141.8,271.6h4.7l-2.3-7.9L141.8,271.6z
				"/>
			<path class="st4" d="M183.2,263c1.9,0,3.4,0.6,4.5,1.8c1.1,1.2,1.7,2.9,1.7,5V280h-5.5v-9.5c0-1.5-0.7-2.3-2-2.3
				c-0.7,0-1.3,0.2-1.7,0.7c-0.4,0.5-0.6,1.2-0.6,2v9h-5.5v-9.5c0-1.5-0.7-2.3-2.1-2.3c-0.7,0-1.3,0.2-1.7,0.7
				c-0.4,0.5-0.6,1.2-0.6,2v9h-5.5v-16.5h5.5v1.6c1-1.3,2.5-2,4.5-2c1.9,0,3.3,0.7,4.2,2.1C179.6,263.7,181.2,263,183.2,263z"/>
			<path class="st4" d="M204,263.5h5.5V280H204v-1.5c-1.1,1.3-2.7,2-4.7,2c-2.2,0-4-0.8-5.5-2.5s-2.2-3.7-2.2-6.2
				c0-2.5,0.7-4.6,2.2-6.2c1.5-1.7,3.3-2.5,5.5-2.5c2,0,3.6,0.7,4.7,2V263.5z M198.1,274.4c0.6,0.7,1.5,1,2.5,1c1,0,1.9-0.3,2.5-1
				c0.6-0.7,1-1.5,1-2.6s-0.3-1.9-1-2.6c-0.6-0.7-1.5-1-2.5-1c-1,0-1.9,0.3-2.5,1c-0.6,0.7-1,1.5-1,2.6S197.4,273.7,198.1,274.4z"/>
			<path class="st4" d="M218.2,266.6c0.3-1.1,0.9-1.9,1.8-2.5c0.9-0.6,2-0.9,3.1-0.9v6.1c-1.3-0.2-2.4,0-3.4,0.7
				c-1,0.7-1.5,1.7-1.5,3.2v6.8h-5.5v-16.5h5.5V266.6z"/>
			<path class="st4" d="M241.5,280h-6.1l-4.7-7v7h-5.5v-23.1h5.5v13.5l4.3-6.9h6.3l-5.5,8.3L241.5,280z"/>
			<path class="st4" d="M246.9,273.8c0.5,1.3,1.8,2,3.7,2c1.2,0,2.2-0.4,3-1.2l4,2.8c-1.6,2-4,3.1-7.1,3.1c-2.8,0-5-0.8-6.7-2.5
				s-2.5-3.7-2.5-6.2c0-2.5,0.8-4.6,2.5-6.2s3.8-2.5,6.3-2.5c2.5,0,4.5,0.8,6.1,2.5c1.6,1.7,2.4,3.7,2.4,6.2c0,0.7-0.1,1.4-0.2,2
				H246.9z M246.8,270h6.3c-0.4-1.5-1.5-2.3-3.1-2.3C248.4,267.7,247.3,268.4,246.8,270z"/>
			<path class="st4" d="M270.7,268.8h-3.4v4.8c0,0.7,0.3,1.2,0.8,1.4c0.5,0.2,1.4,0.2,2.6,0.2v5c-3.3,0.4-5.6,0.1-6.9-0.9
				s-2-2.8-2-5.4v-4.9h-2.5v-5.2h2.5v-3l5.5-1.7v4.6h3.4V268.8z"/>
			<path class="st4" d="M283.6,263c2.2,0,4,0.8,5.5,2.5c1.5,1.7,2.2,3.7,2.2,6.2c0,2.5-0.7,4.6-2.2,6.2s-3.3,2.5-5.5,2.5
				c-2,0-3.6-0.7-4.7-2v8.1h-5.5v-23.1h5.5v1.5C280,263.7,281.6,263,283.6,263z M279.9,274.4c0.6,0.7,1.5,1,2.5,1c1,0,1.9-0.3,2.5-1
				c0.6-0.7,1-1.5,1-2.6s-0.3-1.9-1-2.6c-0.6-0.7-1.5-1-2.5-1c-1,0-1.9,0.3-2.5,1c-0.6,0.7-1,1.5-1,2.6S279.2,273.7,279.9,274.4z"/>
			<path class="st4" d="M293.7,280v-24.1h5.5V280H293.7z"/>
			<path class="st4" d="M314,263.5h5.5V280H314v-1.5c-1.1,1.3-2.7,2-4.7,2c-2.2,0-4-0.8-5.5-2.5c-1.5-1.7-2.2-3.7-2.2-6.2
				c0-2.5,0.7-4.6,2.2-6.2c1.5-1.7,3.3-2.5,5.5-2.5c2,0,3.6,0.7,4.7,2V263.5z M308,274.4c0.6,0.7,1.5,1,2.5,1s1.9-0.3,2.5-1
				c0.6-0.7,1-1.5,1-2.6s-0.3-1.9-1-2.6c-0.6-0.7-1.5-1-2.5-1s-1.9,0.3-2.5,1c-0.6,0.7-1,1.5-1,2.6S307.4,273.7,308,274.4z"/>
			<path class="st4" d="M330.6,280.5c-2.5,0-4.6-0.8-6.3-2.5s-2.5-3.7-2.5-6.2s0.8-4.5,2.5-6.2s3.8-2.5,6.3-2.5
				c1.6,0,3.1,0.4,4.4,1.2c1.3,0.8,2.4,1.8,3.1,3.1l-4.7,2.7c-0.6-1.1-1.6-1.6-2.9-1.6c-0.9,0-1.7,0.3-2.3,0.9s-0.9,1.4-0.9,2.4
				s0.3,1.8,0.9,2.4s1.4,0.9,2.3,0.9c1.4,0,2.3-0.5,2.9-1.7l4.7,2.7c-0.7,1.3-1.8,2.4-3.1,3.1C333.7,280.1,332.2,280.5,330.6,280.5z
				"/>
			<path class="st4" d="M344.4,273.8c0.5,1.3,1.8,2,3.7,2c1.2,0,2.2-0.4,3-1.2l4,2.8c-1.6,2-4,3.1-7.1,3.1c-2.8,0-5-0.8-6.7-2.5
				s-2.5-3.7-2.5-6.2c0-2.5,0.8-4.6,2.5-6.2c1.6-1.7,3.8-2.5,6.3-2.5c2.5,0,4.5,0.8,6.1,2.5c1.6,1.7,2.4,3.7,2.4,6.2
				c0,0.7-0.1,1.4-0.2,2H344.4z M344.3,270h6.3c-0.4-1.5-1.5-2.3-3.1-2.3C345.9,267.7,344.8,268.4,344.3,270z"/>
		</g>
		<g class="st3">
			<path class="st4" d="M78.3,361.1c-1.1,0-2-0.2-2.9-0.6c-0.9-0.4-1.7-0.9-2.3-1.6l1.2-1.3c0.5,0.6,1.2,1,1.9,1.4
				c0.7,0.3,1.5,0.5,2.3,0.5c1,0,1.8-0.2,2.3-0.7c0.6-0.5,0.8-1,0.8-1.8c0-0.4-0.1-0.7-0.2-1c-0.1-0.3-0.3-0.5-0.5-0.7
				c-0.2-0.2-0.5-0.4-0.8-0.5c-0.3-0.2-0.6-0.3-1-0.5l-2.2-0.9c-0.4-0.2-0.7-0.3-1.1-0.6c-0.4-0.2-0.7-0.5-1-0.8
				c-0.3-0.3-0.5-0.7-0.7-1.1s-0.3-0.9-0.3-1.5c0-0.6,0.1-1.1,0.4-1.6c0.2-0.5,0.6-0.9,1-1.3s0.9-0.6,1.5-0.8
				c0.6-0.2,1.2-0.3,1.9-0.3c0.9,0,1.7,0.2,2.5,0.5s1.4,0.8,2,1.3l-1,1.2c-0.5-0.4-1-0.8-1.5-1s-1.2-0.4-1.9-0.4
				c-0.8,0-1.5,0.2-2,0.6c-0.5,0.4-0.8,0.9-0.8,1.6c0,0.4,0.1,0.7,0.2,0.9c0.1,0.3,0.3,0.5,0.6,0.7c0.2,0.2,0.5,0.4,0.8,0.5
				c0.3,0.1,0.6,0.3,0.9,0.4l2.1,0.9c0.4,0.2,0.8,0.4,1.2,0.6c0.4,0.2,0.7,0.5,1,0.8c0.3,0.3,0.5,0.7,0.7,1.1s0.2,0.9,0.2,1.5
				c0,0.6-0.1,1.2-0.4,1.7s-0.6,1-1,1.4s-1,0.7-1.6,0.9C79.8,361,79.1,361.1,78.3,361.1z"/>
			<path class="st4" d="M86.2,360.8v-16.4h1.9v4.5l-0.1,2.3c0.5-0.5,1.1-0.9,1.7-1.3s1.3-0.5,2-0.5c1.2,0,2,0.4,2.6,1.1
				c0.5,0.7,0.8,1.8,0.8,3.3v7.1h-1.9V354c0-1.1-0.2-1.8-0.5-2.3s-0.9-0.7-1.6-0.7c-0.6,0-1.1,0.1-1.5,0.4c-0.4,0.3-1,0.7-1.5,1.3
				v8.1H86.2z"/>
			<path class="st4" d="M103,361.1c-0.7,0-1.3-0.1-2-0.4s-1.2-0.6-1.6-1.1c-0.5-0.5-0.9-1.1-1.1-1.8c-0.3-0.7-0.4-1.6-0.4-2.5
				c0-0.9,0.1-1.8,0.4-2.5s0.7-1.3,1.1-1.9c0.5-0.5,1-0.9,1.6-1.2c0.6-0.3,1.3-0.4,2-0.4s1.3,0.1,2,0.4c0.6,0.3,1.2,0.6,1.6,1.2
				c0.5,0.5,0.9,1.1,1.1,1.9s0.4,1.6,0.4,2.5c0,0.9-0.1,1.7-0.4,2.5c-0.3,0.7-0.7,1.3-1.1,1.8c-0.5,0.5-1,0.9-1.6,1.1
				C104.4,360.9,103.7,361.1,103,361.1z M103,359.5c0.5,0,0.9-0.1,1.3-0.3c0.4-0.2,0.7-0.5,1-0.9c0.3-0.4,0.5-0.8,0.7-1.3
				c0.2-0.5,0.2-1.1,0.2-1.7c0-0.6-0.1-1.2-0.2-1.8c-0.2-0.5-0.4-1-0.7-1.4c-0.3-0.4-0.6-0.7-1-0.9c-0.4-0.2-0.8-0.3-1.3-0.3
				c-0.5,0-0.9,0.1-1.3,0.3c-0.4,0.2-0.7,0.5-1,0.9c-0.3,0.4-0.5,0.8-0.7,1.4c-0.2,0.5-0.2,1.1-0.2,1.8c0,0.6,0.1,1.2,0.2,1.7
				c0.2,0.5,0.4,1,0.7,1.3c0.3,0.4,0.6,0.7,1,0.9C102.1,359.4,102.6,359.5,103,359.5z"/>
			<path class="st4" d="M111.1,365.5v-15.9h1.6l0.2,1.3h0.1c0.5-0.4,1.1-0.8,1.7-1.1c0.6-0.3,1.2-0.5,1.9-0.5c0.7,0,1.4,0.1,1.9,0.4
				c0.6,0.3,1,0.7,1.4,1.2c0.4,0.5,0.6,1.1,0.8,1.8c0.2,0.7,0.3,1.5,0.3,2.4c0,1-0.1,1.8-0.4,2.5c-0.3,0.7-0.6,1.4-1.1,1.9
				s-1,0.9-1.5,1.2c-0.6,0.3-1.2,0.4-1.8,0.4c-0.5,0-1-0.1-1.6-0.3c-0.5-0.2-1-0.5-1.6-0.9l0,2v3.8H111.1z M115.8,359.5
				c0.5,0,0.9-0.1,1.3-0.3c0.4-0.2,0.7-0.5,1-0.9s0.5-0.8,0.7-1.4c0.2-0.6,0.2-1.2,0.2-1.9c0-0.6-0.1-1.2-0.2-1.7
				c-0.1-0.5-0.3-0.9-0.5-1.3s-0.5-0.6-0.9-0.8c-0.4-0.2-0.8-0.3-1.3-0.3c-0.5,0-1,0.1-1.4,0.4c-0.5,0.3-1,0.6-1.6,1.1v5.9
				c0.5,0.4,1,0.7,1.5,0.9C115,359.4,115.4,359.5,115.8,359.5z"/>
			<path class="st4" d="M128.7,365.6c-0.3,0-0.5,0-0.7-0.1s-0.4-0.1-0.6-0.2l0.4-1.5c0.1,0,0.3,0.1,0.4,0.1s0.3,0.1,0.4,0.1
				c0.6,0,1.2-0.2,1.6-0.7c0.4-0.5,0.7-1,1-1.7l0.3-0.8l-4.5-11.2h2l2.3,6.2c0.2,0.5,0.3,1,0.5,1.6s0.4,1.1,0.5,1.6h0.1
				c0.2-0.5,0.3-1,0.5-1.6c0.2-0.6,0.3-1.1,0.5-1.6l2-6.2h1.8l-4.2,12.1c-0.2,0.6-0.4,1.1-0.7,1.5s-0.5,0.9-0.9,1.2
				s-0.7,0.6-1.1,0.8S129.3,365.6,128.7,365.6z"/>
			<path class="st4" d="M143.5,361.1c-0.7,0-1.3-0.1-2-0.4s-1.2-0.6-1.6-1.1c-0.5-0.5-0.9-1.1-1.1-1.8c-0.3-0.7-0.4-1.6-0.4-2.5
				c0-0.9,0.1-1.8,0.4-2.5s0.7-1.3,1.1-1.9c0.5-0.5,1-0.9,1.6-1.2c0.6-0.3,1.3-0.4,2-0.4s1.3,0.1,2,0.4c0.6,0.3,1.2,0.6,1.6,1.2
				c0.5,0.5,0.9,1.1,1.1,1.9s0.4,1.6,0.4,2.5c0,0.9-0.1,1.7-0.4,2.5c-0.3,0.7-0.7,1.3-1.1,1.8c-0.5,0.5-1,0.9-1.6,1.1
				C144.9,360.9,144.2,361.1,143.5,361.1z M143.5,359.5c0.5,0,0.9-0.1,1.3-0.3c0.4-0.2,0.7-0.5,1-0.9c0.3-0.4,0.5-0.8,0.7-1.3
				c0.2-0.5,0.2-1.1,0.2-1.7c0-0.6-0.1-1.2-0.2-1.8c-0.2-0.5-0.4-1-0.7-1.4c-0.3-0.4-0.6-0.7-1-0.9c-0.4-0.2-0.8-0.3-1.3-0.3
				c-0.5,0-0.9,0.1-1.3,0.3c-0.4,0.2-0.7,0.5-1,0.9c-0.3,0.4-0.5,0.8-0.7,1.4c-0.2,0.5-0.2,1.1-0.2,1.8c0,0.6,0.1,1.2,0.2,1.7
				c0.2,0.5,0.4,1,0.7,1.3c0.3,0.4,0.6,0.7,1,0.9C142.6,359.4,143,359.5,143.5,359.5z"/>
			<path class="st4" d="M154.9,361.1c-1.2,0-2.1-0.4-2.6-1.1c-0.5-0.7-0.8-1.8-0.8-3.3v-7.1h1.9v6.8c0,1.1,0.2,1.8,0.5,2.3
				s0.9,0.7,1.6,0.7c0.6,0,1.1-0.1,1.5-0.4c0.4-0.3,0.9-0.8,1.5-1.4v-7.9h1.9v11.2h-1.6l-0.2-1.7h-0.1c-0.5,0.6-1.1,1.1-1.6,1.5
				C156.4,360.9,155.7,361.1,154.9,361.1z"/>
			<path class="st4" d="M164.1,360.8v-11.2h1.6l0.2,2h0.1c0.4-0.7,0.8-1.3,1.4-1.7s1.1-0.6,1.8-0.6c0.4,0,0.8,0.1,1.2,0.2l-0.4,1.7
				c-0.2-0.1-0.4-0.1-0.5-0.1c-0.2,0-0.3,0-0.6,0c-0.5,0-1,0.2-1.5,0.6c-0.5,0.4-1,1-1.3,2v7.2H164.1z"/>
			<path class="st4" d="M177,360.8v-9.6h-1.5v-1.4l1.5-0.1v-1.8c0-1.1,0.3-2.1,0.8-2.7s1.4-1,2.5-1c0.4,0,0.7,0,1,0.1
				c0.3,0.1,0.6,0.2,0.9,0.3l-0.4,1.4c-0.4-0.2-0.8-0.3-1.3-0.3c-1,0-1.6,0.7-1.6,2.2v1.8h2.4v1.5h-2.4v9.6H177z"/>
			<path class="st4" d="M185.5,361.1c-0.9,0-1.7-0.3-2.3-0.8s-0.9-1.3-0.9-2.3c0-1.2,0.5-2.2,1.6-2.8c1.1-0.7,2.8-1.1,5.2-1.4
				c0-0.4,0-0.7-0.1-1c-0.1-0.3-0.2-0.6-0.4-0.9s-0.4-0.5-0.7-0.6c-0.3-0.2-0.7-0.2-1.1-0.2c-0.6,0-1.3,0.1-1.8,0.4
				c-0.6,0.2-1.1,0.5-1.5,0.8l-0.7-1.3c0.5-0.3,1.2-0.7,1.9-1c0.8-0.3,1.6-0.5,2.5-0.5c1.4,0,2.4,0.4,3,1.3c0.6,0.8,0.9,2,0.9,3.3
				v6.9h-1.6l-0.2-1.3h-0.1c-0.5,0.4-1.1,0.8-1.7,1.1C186.9,360.9,186.3,361.1,185.5,361.1z M186.1,359.6c0.5,0,1-0.1,1.5-0.4
				c0.5-0.3,1-0.6,1.5-1.1V355c-0.9,0.1-1.7,0.3-2.4,0.4c-0.6,0.2-1.1,0.4-1.5,0.6c-0.4,0.2-0.7,0.5-0.9,0.8s-0.3,0.6-0.3,1
				c0,0.6,0.2,1.1,0.6,1.4C185.1,359.4,185.5,359.6,186.1,359.6z"/>
			<path class="st4" d="M197,360.8l-4-11.2h2l2.1,6.3c0.2,0.6,0.3,1.1,0.5,1.7s0.3,1.1,0.5,1.6h0.1c0.2-0.5,0.3-1.1,0.5-1.6
				c0.2-0.6,0.3-1.1,0.5-1.7l2.1-6.3h1.9l-4,11.2H197z"/>
			<path class="st4" d="M209.6,361.1c-0.7,0-1.3-0.1-2-0.4s-1.2-0.6-1.6-1.1c-0.5-0.5-0.9-1.1-1.1-1.8c-0.3-0.7-0.4-1.6-0.4-2.5
				c0-0.9,0.1-1.8,0.4-2.5s0.7-1.3,1.1-1.9c0.5-0.5,1-0.9,1.6-1.2c0.6-0.3,1.3-0.4,2-0.4s1.3,0.1,2,0.4c0.6,0.3,1.2,0.6,1.6,1.2
				c0.5,0.5,0.9,1.1,1.1,1.9s0.4,1.6,0.4,2.5c0,0.9-0.1,1.7-0.4,2.5c-0.3,0.7-0.7,1.3-1.1,1.8c-0.5,0.5-1,0.9-1.6,1.1
				C210.9,360.9,210.3,361.1,209.6,361.1z M209.6,359.5c0.5,0,0.9-0.1,1.3-0.3c0.4-0.2,0.7-0.5,1-0.9c0.3-0.4,0.5-0.8,0.7-1.3
				c0.2-0.5,0.2-1.1,0.2-1.7c0-0.6-0.1-1.2-0.2-1.8c-0.2-0.5-0.4-1-0.7-1.4c-0.3-0.4-0.6-0.7-1-0.9c-0.4-0.2-0.8-0.3-1.3-0.3
				c-0.5,0-0.9,0.1-1.3,0.3c-0.4,0.2-0.7,0.5-1,0.9c-0.3,0.4-0.5,0.8-0.7,1.4c-0.2,0.5-0.2,1.1-0.2,1.8c0,0.6,0.1,1.2,0.2,1.7
				c0.2,0.5,0.4,1,0.7,1.3c0.3,0.4,0.6,0.7,1,0.9C208.6,359.4,209.1,359.5,209.6,359.5z"/>
			<path class="st4" d="M217.7,360.8v-11.2h1.6l0.2,2h0.1c0.4-0.7,0.8-1.3,1.4-1.7s1.1-0.6,1.8-0.6c0.4,0,0.8,0.1,1.2,0.2l-0.4,1.7
				c-0.2-0.1-0.4-0.1-0.5-0.1c-0.2,0-0.3,0-0.6,0c-0.5,0-1,0.2-1.5,0.6c-0.5,0.4-1,1-1.3,2v7.2H217.7z"/>
			<path class="st4" d="M226.6,347.3c-0.4,0-0.7-0.1-0.9-0.3c-0.3-0.2-0.4-0.5-0.4-0.9c0-0.4,0.1-0.7,0.4-0.9
				c0.3-0.2,0.6-0.3,0.9-0.3s0.7,0.1,0.9,0.3c0.3,0.2,0.4,0.5,0.4,0.9c0,0.4-0.1,0.6-0.4,0.9C227.3,347.2,227,347.3,226.6,347.3z
				 M225.7,360.8v-11.2h1.9v11.2H225.7z"/>
			<path class="st4" d="M234.8,361.1c-0.6,0-1.1-0.1-1.5-0.3s-0.7-0.4-1-0.8s-0.4-0.7-0.5-1.2c-0.1-0.5-0.2-1-0.2-1.5v-6.2H230v-1.4
				l1.7-0.1l0.2-3.1h1.6v3.1h3v1.5h-3v6.2c0,0.7,0.1,1.2,0.4,1.6s0.7,0.6,1.3,0.6c0.2,0,0.4,0,0.6-0.1c0.2-0.1,0.4-0.1,0.6-0.2
				l0.4,1.4c-0.3,0.1-0.6,0.2-1,0.3C235.5,361,235.2,361.1,234.8,361.1z"/>
			<path class="st4" d="M243.3,361.1c-0.8,0-1.5-0.1-2.1-0.4c-0.7-0.3-1.2-0.7-1.7-1.1s-0.9-1.1-1.1-1.8c-0.3-0.7-0.4-1.5-0.4-2.5
				s0.1-1.7,0.4-2.5s0.7-1.3,1.1-1.9c0.5-0.5,1-0.9,1.6-1.2c0.6-0.3,1.2-0.4,1.9-0.4c0.7,0,1.3,0.1,1.9,0.4c0.6,0.2,1,0.6,1.4,1.1
				c0.4,0.5,0.7,1,0.9,1.7c0.2,0.6,0.3,1.4,0.3,2.2c0,0.2,0,0.4,0,0.6c0,0.2,0,0.4-0.1,0.5h-7.5c0.1,1.2,0.4,2.1,1.1,2.8
				c0.7,0.7,1.5,1,2.6,1c0.5,0,1-0.1,1.5-0.2s0.9-0.4,1.3-0.6l0.7,1.2c-0.5,0.3-1,0.6-1.6,0.8C244.8,361,244.1,361.1,243.3,361.1z
				 M239.8,354.3h6c0-1.1-0.2-2-0.7-2.6c-0.5-0.6-1.2-0.9-2-0.9c-0.4,0-0.8,0.1-1.1,0.2c-0.4,0.2-0.7,0.4-1,0.7
				c-0.3,0.3-0.5,0.7-0.7,1.1C240,353.3,239.8,353.8,239.8,354.3z"/>
			<path class="st4" d="M254.8,365.5v-15.9h1.6l0.2,1.3h0.1c0.5-0.4,1.1-0.8,1.7-1.1c0.6-0.3,1.2-0.5,1.9-0.5c0.7,0,1.4,0.1,1.9,0.4
				c0.6,0.3,1,0.7,1.4,1.2c0.4,0.5,0.6,1.1,0.8,1.8c0.2,0.7,0.3,1.5,0.3,2.4c0,1-0.1,1.8-0.4,2.5c-0.3,0.7-0.6,1.4-1.1,1.9
				s-1,0.9-1.5,1.2c-0.6,0.3-1.2,0.4-1.8,0.4c-0.5,0-1-0.1-1.6-0.3c-0.5-0.2-1-0.5-1.6-0.9l0,2v3.8H254.8z M259.4,359.5
				c0.5,0,0.9-0.1,1.3-0.3c0.4-0.2,0.7-0.5,1-0.9s0.5-0.8,0.7-1.4c0.2-0.6,0.2-1.2,0.2-1.9c0-0.6-0.1-1.2-0.2-1.7
				c-0.1-0.5-0.3-0.9-0.5-1.3s-0.5-0.6-0.9-0.8c-0.4-0.2-0.8-0.3-1.3-0.3c-0.5,0-1,0.1-1.4,0.4c-0.5,0.3-1,0.6-1.6,1.1v5.9
				c0.5,0.4,1,0.7,1.5,0.9C258.6,359.4,259,359.5,259.4,359.5z"/>
			<path class="st4" d="M267.5,360.8v-11.2h1.6l0.2,2h0.1c0.4-0.7,0.8-1.3,1.4-1.7s1.1-0.6,1.8-0.6c0.4,0,0.8,0.1,1.2,0.2l-0.4,1.7
				c-0.2-0.1-0.4-0.1-0.5-0.1c-0.2,0-0.3,0-0.6,0c-0.5,0-1,0.2-1.5,0.6c-0.5,0.4-1,1-1.3,2v7.2H267.5z"/>
			<path class="st4" d="M279.6,361.1c-0.7,0-1.3-0.1-2-0.4s-1.2-0.6-1.6-1.1c-0.5-0.5-0.9-1.1-1.1-1.8c-0.3-0.7-0.4-1.6-0.4-2.5
				c0-0.9,0.1-1.8,0.4-2.5c0.3-0.7,0.7-1.3,1.1-1.9c0.5-0.5,1-0.9,1.6-1.2c0.6-0.3,1.3-0.4,2-0.4s1.3,0.1,2,0.4
				c0.6,0.3,1.2,0.6,1.6,1.2c0.5,0.5,0.9,1.1,1.1,1.9c0.3,0.7,0.4,1.6,0.4,2.5c0,0.9-0.1,1.7-0.4,2.5c-0.3,0.7-0.7,1.3-1.1,1.8
				c-0.5,0.5-1,0.9-1.6,1.1S280.3,361.1,279.6,361.1z M279.6,359.5c0.5,0,0.9-0.1,1.3-0.3s0.7-0.5,1-0.9c0.3-0.4,0.5-0.8,0.7-1.3
				c0.2-0.5,0.2-1.1,0.2-1.7c0-0.6-0.1-1.2-0.2-1.8c-0.2-0.5-0.4-1-0.7-1.4c-0.3-0.4-0.6-0.7-1-0.9s-0.8-0.3-1.3-0.3
				c-0.5,0-0.9,0.1-1.3,0.3c-0.4,0.2-0.7,0.5-1,0.9c-0.3,0.4-0.5,0.8-0.7,1.4c-0.2,0.5-0.2,1.1-0.2,1.8c0,0.6,0.1,1.2,0.2,1.7
				c0.2,0.5,0.4,1,0.7,1.3c0.3,0.4,0.6,0.7,1,0.9C278.7,359.4,279.2,359.5,279.6,359.5z"/>
			<path class="st4" d="M291.6,361.1c-1.4,0-2.5-0.5-3.4-1.5c-0.8-1-1.3-2.5-1.3-4.3c0-0.9,0.1-1.7,0.4-2.4c0.3-0.7,0.6-1.3,1.1-1.9
				c0.4-0.5,1-0.9,1.5-1.2s1.2-0.4,1.8-0.4s1.2,0.1,1.7,0.3c0.5,0.2,1,0.5,1.4,0.9l-0.1-1.9v-4.3h1.9v16.4h-1.6l-0.2-1.3H295
				c-0.4,0.4-1,0.8-1.5,1.1C292.9,360.9,292.2,361.1,291.6,361.1z M292,359.5c0.5,0,1-0.1,1.5-0.4c0.5-0.3,0.9-0.6,1.4-1.2v-5.8
				c-0.5-0.4-0.9-0.7-1.4-0.9c-0.4-0.2-0.9-0.3-1.3-0.3c-0.4,0-0.9,0.1-1.3,0.3s-0.7,0.5-1,0.9c-0.3,0.4-0.5,0.8-0.7,1.3
				c-0.2,0.5-0.3,1.1-0.3,1.7c0,1.3,0.3,2.4,0.8,3.2C290.3,359.1,291,359.5,292,359.5z"/>
			<path class="st4" d="M303.8,361.1c-1.2,0-2.1-0.4-2.6-1.1c-0.5-0.7-0.8-1.8-0.8-3.3v-7.1h1.9v6.8c0,1.1,0.2,1.8,0.5,2.3
				c0.3,0.5,0.9,0.7,1.6,0.7c0.6,0,1.1-0.1,1.5-0.4c0.4-0.3,0.9-0.8,1.5-1.4v-7.9h1.9v11.2h-1.6l-0.2-1.7h-0.1
				c-0.5,0.6-1.1,1.1-1.6,1.5C305.3,360.9,304.6,361.1,303.8,361.1z"/>
			<path class="st4" d="M317.5,361.1c-0.7,0-1.4-0.1-2.1-0.4c-0.6-0.3-1.2-0.6-1.7-1.1c-0.5-0.5-0.8-1.1-1.1-1.8
				c-0.3-0.7-0.4-1.6-0.4-2.5c0-0.9,0.1-1.8,0.4-2.5c0.3-0.7,0.7-1.3,1.2-1.9s1.1-0.9,1.7-1.2c0.7-0.3,1.3-0.4,2.1-0.4
				c0.7,0,1.4,0.1,1.9,0.4c0.5,0.3,1,0.6,1.4,0.9l-1,1.2c-0.3-0.3-0.7-0.5-1-0.7c-0.4-0.2-0.8-0.3-1.2-0.3c-0.5,0-1,0.1-1.4,0.3
				c-0.4,0.2-0.8,0.5-1.1,0.9c-0.3,0.4-0.5,0.8-0.7,1.4c-0.2,0.5-0.3,1.1-0.3,1.8c0,0.6,0.1,1.2,0.3,1.7c0.2,0.5,0.4,1,0.7,1.3
				c0.3,0.4,0.7,0.7,1.1,0.9c0.4,0.2,0.9,0.3,1.4,0.3c0.5,0,1-0.1,1.4-0.3c0.4-0.2,0.8-0.5,1.2-0.8l0.8,1.3c-0.5,0.4-1.1,0.8-1.7,1
				S318.1,361.1,317.5,361.1z"/>
			<path class="st4" d="M326.8,361.1c-0.6,0-1.1-0.1-1.5-0.3s-0.7-0.4-1-0.8c-0.3-0.3-0.4-0.7-0.5-1.2s-0.2-1-0.2-1.5v-6.2H322v-1.4
				l1.7-0.1l0.2-3.1h1.6v3.1h3v1.5h-3v6.2c0,0.7,0.1,1.2,0.4,1.6c0.3,0.4,0.7,0.6,1.3,0.6c0.2,0,0.4,0,0.6-0.1
				c0.2-0.1,0.4-0.1,0.6-0.2l0.4,1.4c-0.3,0.1-0.6,0.2-1,0.3C327.5,361,327.2,361.1,326.8,361.1z"/>
			<path class="st4" d="M329.6,364.5l6.1-20h1.4l-6.1,20H329.6z"/>
			<path class="st4" d="M342.3,361.1c-0.8,0-1.6-0.1-2.3-0.4s-1.3-0.7-1.9-1.1l0.9-1.3c0.5,0.4,1,0.7,1.5,1c0.5,0.2,1.1,0.4,1.8,0.4
				c0.7,0,1.3-0.2,1.7-0.5c0.4-0.3,0.6-0.8,0.6-1.2c0-0.3-0.1-0.5-0.2-0.8c-0.2-0.2-0.3-0.4-0.6-0.6s-0.5-0.3-0.8-0.4
				c-0.3-0.1-0.6-0.2-0.9-0.4c-0.4-0.1-0.8-0.3-1.2-0.5c-0.4-0.2-0.8-0.4-1.1-0.6c-0.3-0.3-0.6-0.5-0.8-0.9
				c-0.2-0.3-0.3-0.7-0.3-1.2c0-0.4,0.1-0.9,0.3-1.3c0.2-0.4,0.4-0.7,0.8-1c0.3-0.3,0.7-0.5,1.2-0.7c0.5-0.2,1-0.2,1.6-0.2
				c0.7,0,1.4,0.1,1.9,0.4s1.1,0.5,1.5,0.9l-0.9,1.2c-0.4-0.3-0.8-0.5-1.2-0.7s-0.9-0.3-1.4-0.3c-0.7,0-1.2,0.2-1.6,0.5
				c-0.3,0.3-0.5,0.7-0.5,1.1c0,0.3,0.1,0.5,0.2,0.7c0.1,0.2,0.3,0.4,0.6,0.5c0.2,0.1,0.5,0.3,0.8,0.4c0.3,0.1,0.6,0.2,0.9,0.4
				c0.4,0.2,0.8,0.3,1.2,0.5s0.8,0.4,1.1,0.6c0.3,0.3,0.6,0.6,0.8,0.9c0.2,0.4,0.3,0.8,0.3,1.3c0,0.5-0.1,0.9-0.3,1.3
				c-0.2,0.4-0.4,0.8-0.8,1.1s-0.8,0.5-1.3,0.7C343.5,361,342.9,361.1,342.3,361.1z"/>
			<path class="st4" d="M353.5,361.1c-0.8,0-1.5-0.1-2.1-0.4c-0.7-0.3-1.2-0.7-1.7-1.1s-0.9-1.1-1.1-1.8c-0.3-0.7-0.4-1.5-0.4-2.5
				s0.1-1.7,0.4-2.5s0.7-1.3,1.1-1.9c0.5-0.5,1-0.9,1.6-1.2c0.6-0.3,1.2-0.4,1.9-0.4c0.7,0,1.3,0.1,1.9,0.4c0.6,0.2,1,0.6,1.4,1.1
				c0.4,0.5,0.7,1,0.9,1.7c0.2,0.6,0.3,1.4,0.3,2.2c0,0.2,0,0.4,0,0.6c0,0.2,0,0.4-0.1,0.5H350c0.1,1.2,0.4,2.1,1.1,2.8
				c0.7,0.7,1.5,1,2.6,1c0.5,0,1-0.1,1.5-0.2c0.5-0.2,0.9-0.4,1.3-0.6l0.7,1.2c-0.5,0.3-1,0.6-1.6,0.8
				C355,361,354.3,361.1,353.5,361.1z M350,354.3h6c0-1.1-0.2-2-0.7-2.6c-0.5-0.6-1.2-0.9-2-0.9c-0.4,0-0.8,0.1-1.1,0.2
				c-0.4,0.2-0.7,0.4-1,0.7c-0.3,0.3-0.5,0.7-0.7,1.1C350.2,353.3,350.1,353.8,350,354.3z"/>
			<path class="st4" d="M360.4,360.8v-11.2h1.6l0.2,2h0.1c0.4-0.7,0.8-1.3,1.4-1.7c0.5-0.4,1.1-0.6,1.8-0.6c0.4,0,0.8,0.1,1.2,0.2
				l-0.4,1.7c-0.2-0.1-0.4-0.1-0.5-0.1c-0.2,0-0.3,0-0.6,0c-0.5,0-1,0.2-1.5,0.6c-0.5,0.4-1,1-1.3,2v7.2H360.4z"/>
			<path class="st4" d="M371.4,360.8l-4-11.2h2l2.1,6.3c0.2,0.6,0.3,1.1,0.5,1.7c0.2,0.6,0.3,1.1,0.5,1.6h0.1
				c0.2-0.5,0.3-1.1,0.5-1.6s0.3-1.1,0.5-1.7l2.1-6.3h1.9l-4,11.2H371.4z"/>
			<path class="st4" d="M380.7,347.3c-0.4,0-0.7-0.1-0.9-0.3c-0.3-0.2-0.4-0.5-0.4-0.9c0-0.4,0.1-0.7,0.4-0.9
				c0.3-0.2,0.6-0.3,0.9-0.3c0.4,0,0.7,0.1,0.9,0.3c0.3,0.2,0.4,0.5,0.4,0.9c0,0.4-0.1,0.6-0.4,0.9
				C381.3,347.2,381,347.3,380.7,347.3z M379.7,360.8v-11.2h1.9v11.2H379.7z"/>
			<path class="st4" d="M389.8,361.1c-0.7,0-1.4-0.1-2.1-0.4s-1.2-0.6-1.7-1.1c-0.5-0.5-0.8-1.1-1.1-1.8c-0.3-0.7-0.4-1.6-0.4-2.5
				c0-0.9,0.1-1.8,0.4-2.5s0.7-1.3,1.2-1.9c0.5-0.5,1.1-0.9,1.7-1.2c0.7-0.3,1.3-0.4,2.1-0.4c0.7,0,1.4,0.1,1.9,0.4
				c0.5,0.3,1,0.6,1.4,0.9l-1,1.2c-0.3-0.3-0.7-0.5-1-0.7c-0.4-0.2-0.8-0.3-1.2-0.3c-0.5,0-1,0.1-1.4,0.3s-0.8,0.5-1.1,0.9
				c-0.3,0.4-0.5,0.8-0.7,1.4c-0.2,0.5-0.3,1.1-0.3,1.8c0,0.6,0.1,1.2,0.3,1.7c0.2,0.5,0.4,1,0.7,1.3c0.3,0.4,0.7,0.7,1.1,0.9
				c0.4,0.2,0.9,0.3,1.4,0.3c0.5,0,1-0.1,1.4-0.3c0.4-0.2,0.8-0.5,1.2-0.8l0.8,1.3c-0.5,0.4-1.1,0.8-1.7,1S390.4,361.1,389.8,361.1z
				"/>
			<path class="st4" d="M399.9,361.1c-0.8,0-1.5-0.1-2.1-0.4c-0.7-0.3-1.2-0.7-1.7-1.1c-0.5-0.5-0.9-1.1-1.1-1.8
				c-0.3-0.7-0.4-1.5-0.4-2.5s0.1-1.7,0.4-2.5c0.3-0.7,0.7-1.3,1.1-1.9c0.5-0.5,1-0.9,1.6-1.2c0.6-0.3,1.2-0.4,1.9-0.4
				c0.7,0,1.3,0.1,1.9,0.4c0.6,0.2,1,0.6,1.4,1.1c0.4,0.5,0.7,1,0.9,1.7c0.2,0.6,0.3,1.4,0.3,2.2c0,0.2,0,0.4,0,0.6
				c0,0.2,0,0.4-0.1,0.5h-7.5c0.1,1.2,0.4,2.1,1.1,2.8c0.7,0.7,1.5,1,2.6,1c0.5,0,1-0.1,1.5-0.2s0.9-0.4,1.3-0.6l0.7,1.2
				c-0.5,0.3-1,0.6-1.6,0.8C401.3,361,400.6,361.1,399.9,361.1z M396.4,354.3h6c0-1.1-0.2-2-0.7-2.6c-0.5-0.6-1.2-0.9-2-0.9
				c-0.4,0-0.8,0.1-1.1,0.2c-0.4,0.2-0.7,0.4-1,0.7s-0.5,0.7-0.7,1.1C396.6,353.3,396.4,353.8,396.4,354.3z"/>
			<path class="st4" d="M409.7,361.1c-0.8,0-1.6-0.1-2.3-0.4s-1.3-0.7-1.9-1.1l0.9-1.3c0.5,0.4,1,0.7,1.5,1c0.5,0.2,1.1,0.4,1.8,0.4
				c0.7,0,1.3-0.2,1.7-0.5c0.4-0.3,0.6-0.8,0.6-1.2c0-0.3-0.1-0.5-0.2-0.8c-0.2-0.2-0.3-0.4-0.6-0.6c-0.2-0.2-0.5-0.3-0.8-0.4
				c-0.3-0.1-0.6-0.2-0.9-0.4c-0.4-0.1-0.8-0.3-1.2-0.5c-0.4-0.2-0.8-0.4-1.1-0.6s-0.6-0.5-0.8-0.9c-0.2-0.3-0.3-0.7-0.3-1.2
				c0-0.4,0.1-0.9,0.3-1.3c0.2-0.4,0.4-0.7,0.8-1c0.3-0.3,0.7-0.5,1.2-0.7c0.5-0.2,1-0.2,1.6-0.2c0.7,0,1.4,0.1,1.9,0.4
				s1.1,0.5,1.5,0.9l-0.9,1.2c-0.4-0.3-0.8-0.5-1.2-0.7s-0.9-0.3-1.4-0.3c-0.7,0-1.2,0.2-1.6,0.5c-0.3,0.3-0.5,0.7-0.5,1.1
				c0,0.3,0.1,0.5,0.2,0.7c0.1,0.2,0.3,0.4,0.6,0.5c0.2,0.1,0.5,0.3,0.8,0.4c0.3,0.1,0.6,0.2,0.9,0.4c0.4,0.2,0.8,0.3,1.2,0.5
				c0.4,0.2,0.8,0.4,1.1,0.6s0.6,0.6,0.8,0.9c0.2,0.4,0.3,0.8,0.3,1.3c0,0.5-0.1,0.9-0.3,1.3c-0.2,0.4-0.4,0.8-0.8,1.1
				s-0.8,0.5-1.3,0.7C410.9,361,410.3,361.1,409.7,361.1z"/>
			<path class="st4" d="M425.3,361.1c-0.7,0-1.3-0.1-2-0.4s-1.2-0.6-1.6-1.1c-0.5-0.5-0.9-1.1-1.1-1.8c-0.3-0.7-0.4-1.6-0.4-2.5
				c0-0.9,0.1-1.8,0.4-2.5c0.3-0.7,0.7-1.3,1.1-1.9c0.5-0.5,1-0.9,1.6-1.2c0.6-0.3,1.3-0.4,2-0.4s1.3,0.1,2,0.4
				c0.6,0.3,1.2,0.6,1.6,1.2s0.9,1.1,1.1,1.9c0.3,0.7,0.4,1.6,0.4,2.5c0,0.9-0.1,1.7-0.4,2.5c-0.3,0.7-0.7,1.3-1.1,1.8
				c-0.5,0.5-1,0.9-1.6,1.1C426.7,360.9,426,361.1,425.3,361.1z M425.3,359.5c0.5,0,0.9-0.1,1.3-0.3c0.4-0.2,0.7-0.5,1-0.9
				c0.3-0.4,0.5-0.8,0.7-1.3c0.2-0.5,0.2-1.1,0.2-1.7c0-0.6-0.1-1.2-0.2-1.8c-0.2-0.5-0.4-1-0.7-1.4c-0.3-0.4-0.6-0.7-1-0.9
				c-0.4-0.2-0.8-0.3-1.3-0.3s-0.9,0.1-1.3,0.3s-0.7,0.5-1,0.9c-0.3,0.4-0.5,0.8-0.7,1.4c-0.2,0.5-0.2,1.1-0.2,1.8
				c0,0.6,0.1,1.2,0.2,1.7c0.2,0.5,0.4,1,0.7,1.3c0.3,0.4,0.6,0.7,1,0.9S424.9,359.5,425.3,359.5z"/>
			<path class="st4" d="M433.5,360.8v-11.2h1.6l0.2,1.6h0.1c0.5-0.5,1.1-1,1.7-1.3c0.6-0.4,1.3-0.5,2.1-0.5c1.2,0,2,0.4,2.6,1.1
				c0.5,0.7,0.8,1.8,0.8,3.3v7.1h-1.9V354c0-1.1-0.2-1.8-0.5-2.3s-0.9-0.7-1.6-0.7c-0.6,0-1.1,0.1-1.5,0.4c-0.4,0.3-1,0.7-1.5,1.3
				v8.1H433.5z"/>
		</g>
		<g class="st3">
			<path class="st4" d="M77.4,398.1c-0.6,0-1.1-0.1-1.5-0.3s-0.7-0.4-1-0.8s-0.4-0.7-0.5-1.2c-0.1-0.5-0.2-1-0.2-1.5v-6.2h-1.7v-1.4
				l1.7-0.1l0.2-3.1h1.6v3.1h3v1.5h-3v6.2c0,0.7,0.1,1.2,0.4,1.6s0.7,0.6,1.3,0.6c0.2,0,0.4,0,0.6-0.1c0.2-0.1,0.4-0.1,0.6-0.2
				l0.4,1.4c-0.3,0.1-0.6,0.2-1,0.3C78.1,398,77.8,398.1,77.4,398.1z"/>
			<path class="st4" d="M81.7,397.8v-16.4h1.9v4.5l-0.1,2.3c0.5-0.5,1.1-0.9,1.7-1.3s1.3-0.5,2-0.5c1.2,0,2,0.4,2.6,1.1
				c0.5,0.7,0.8,1.8,0.8,3.3v7.1h-1.9V391c0-1.1-0.2-1.8-0.5-2.3s-0.9-0.7-1.6-0.7c-0.6,0-1.1,0.1-1.5,0.4c-0.4,0.3-1,0.7-1.5,1.3
				v8.1H81.7z"/>
			<path class="st4" d="M98.7,398.1c-0.8,0-1.5-0.1-2.1-0.4c-0.7-0.3-1.2-0.7-1.7-1.1s-0.9-1.1-1.1-1.8c-0.3-0.7-0.4-1.5-0.4-2.5
				s0.1-1.7,0.4-2.5s0.7-1.3,1.1-1.9c0.5-0.5,1-0.9,1.6-1.2c0.6-0.3,1.2-0.4,1.9-0.4c0.7,0,1.3,0.1,1.9,0.4c0.6,0.2,1,0.6,1.4,1.1
				c0.4,0.5,0.7,1,0.9,1.7c0.2,0.6,0.3,1.4,0.3,2.2c0,0.2,0,0.4,0,0.6c0,0.2,0,0.4-0.1,0.5h-7.5c0.1,1.2,0.4,2.1,1.1,2.8
				c0.7,0.7,1.5,1,2.6,1c0.5,0,1-0.1,1.5-0.2s0.9-0.4,1.3-0.6l0.7,1.2c-0.5,0.3-1,0.6-1.6,0.8C100.2,398,99.5,398.1,98.7,398.1z
				 M95.2,391.3h6c0-1.1-0.2-2-0.7-2.6c-0.5-0.6-1.2-0.9-2-0.9c-0.4,0-0.8,0.1-1.1,0.2c-0.4,0.2-0.7,0.4-1,0.7
				c-0.3,0.3-0.5,0.7-0.7,1.1C95.4,390.3,95.2,390.8,95.2,391.3z"/>
			<path class="st4" d="M113.2,398.1c-1.9,0-3.3-0.8-4.2-2.4l1.4-1c0.3,0.6,0.7,1,1.2,1.3c0.4,0.3,0.9,0.4,1.4,0.4
				c0.8,0,1.4-0.2,1.8-0.7s0.6-1.3,0.6-2.5v-10.5h1.9v10.6c0,0.6-0.1,1.3-0.2,1.8c-0.2,0.6-0.4,1.1-0.7,1.5c-0.3,0.4-0.8,0.8-1.3,1
				C114.5,397.9,113.9,398.1,113.2,398.1z"/>
			<path class="st4" d="M119.4,397.8l5.1-15.1h2.2l5.1,15.1h-2l-1.4-4.6h-5.5l-1.4,4.6H119.4z M124,389.4l-0.7,2.3h4.5l-0.7-2.3
				c-0.3-0.8-0.5-1.7-0.8-2.5c-0.2-0.8-0.5-1.7-0.7-2.6h-0.1c-0.2,0.9-0.5,1.7-0.7,2.6C124.5,387.7,124.3,388.5,124,389.4z"/>
			<path class="st4" d="M133.9,397.8v-15.1h4.7c0.8,0,1.5,0.1,2.1,0.2c0.7,0.1,1.2,0.4,1.7,0.7c0.5,0.3,0.8,0.8,1.1,1.3
				c0.3,0.5,0.4,1.2,0.4,2c0,1.2-0.3,2.1-0.9,2.8c-0.6,0.7-1.4,1.2-2.5,1.4l3.8,6.6h-2.2l-3.6-6.4h-2.7v6.4H133.9z M135.8,389.9h2.5
				c1.2,0,2.1-0.2,2.7-0.7c0.6-0.5,0.9-1.2,0.9-2.2c0-1-0.3-1.7-0.9-2.1c-0.6-0.4-1.5-0.6-2.7-0.6h-2.5V389.9z"/>
			<path class="st4" d="M144.9,397.8l5.1-15.1h2.2l5.1,15.1h-2l-1.4-4.6h-5.5l-1.4,4.6H144.9z M149.5,389.4l-0.7,2.3h4.5l-0.7-2.3
				c-0.3-0.8-0.5-1.7-0.8-2.5c-0.2-0.8-0.5-1.7-0.7-2.6H151c-0.2,0.9-0.5,1.7-0.7,2.6C150,387.7,149.8,388.5,149.5,389.4z"/>
			<path class="st4" d="M163.8,397.8v-11.2h1.6l0.2,1.6h0.1c0.5-0.5,1-1,1.6-1.3c0.6-0.4,1.2-0.5,1.9-0.5c0.9,0,1.5,0.2,2,0.6
				c0.5,0.4,0.8,0.9,1.1,1.6c0.6-0.6,1.2-1.2,1.8-1.6c0.6-0.4,1.2-0.6,1.9-0.6c1.1,0,2,0.4,2.6,1.1c0.6,0.7,0.8,1.8,0.8,3.3v7.1
				h-1.9V391c0-1.1-0.2-1.8-0.5-2.3s-0.9-0.7-1.6-0.7c-0.8,0-1.8,0.6-2.8,1.7v8.1h-1.9V391c0-1.1-0.2-1.8-0.5-2.3
				c-0.3-0.5-0.9-0.7-1.6-0.7c-0.8,0-1.8,0.6-2.8,1.7v8.1H163.8z"/>
			<path class="st4" d="M185.5,398.1c-0.9,0-1.7-0.3-2.3-0.8s-0.9-1.3-0.9-2.3c0-1.2,0.5-2.2,1.6-2.8c1.1-0.7,2.8-1.1,5.2-1.4
				c0-0.4,0-0.7-0.1-1c-0.1-0.3-0.2-0.6-0.4-0.9s-0.4-0.5-0.7-0.6c-0.3-0.2-0.7-0.2-1.1-0.2c-0.6,0-1.3,0.1-1.8,0.4
				c-0.6,0.2-1.1,0.5-1.5,0.8l-0.7-1.3c0.5-0.3,1.2-0.7,1.9-1c0.8-0.3,1.6-0.5,2.5-0.5c1.4,0,2.4,0.4,3,1.3c0.6,0.8,0.9,2,0.9,3.3
				v6.9h-1.6l-0.2-1.3h-0.1c-0.5,0.4-1.1,0.8-1.7,1.1C186.8,397.9,186.2,398.1,185.5,398.1z M186,396.6c0.5,0,1-0.1,1.5-0.4
				c0.5-0.3,1-0.6,1.5-1.1V392c-0.9,0.1-1.7,0.3-2.4,0.4c-0.6,0.2-1.1,0.4-1.5,0.6c-0.4,0.2-0.7,0.5-0.9,0.8s-0.3,0.6-0.3,1
				c0,0.6,0.2,1.1,0.6,1.4C185,396.4,185.5,396.6,186,396.6z"/>
			<path class="st4" d="M194.5,397.8v-11.2h1.6l0.2,2h0.1c0.4-0.7,0.8-1.3,1.4-1.7s1.1-0.6,1.8-0.6c0.4,0,0.8,0.1,1.2,0.2l-0.4,1.7
				c-0.2-0.1-0.4-0.1-0.5-0.1c-0.2,0-0.3,0-0.6,0c-0.5,0-1,0.2-1.5,0.6c-0.5,0.4-1,1-1.3,2v7.2H194.5z"/>
			<path class="st4" d="M202.5,397.8v-16.4h1.9v11.1h0.1l4.8-5.9h2.1l-3.7,4.5l4.3,6.7h-2.1l-3.3-5.4l-2.1,2.4v2.9H202.5z"/>
			<path class="st4" d="M218,398.1c-0.8,0-1.5-0.1-2.1-0.4c-0.7-0.3-1.2-0.7-1.7-1.1s-0.9-1.1-1.1-1.8c-0.3-0.7-0.4-1.5-0.4-2.5
				s0.1-1.7,0.4-2.5s0.7-1.3,1.1-1.9c0.5-0.5,1-0.9,1.6-1.2c0.6-0.3,1.2-0.4,1.9-0.4c0.7,0,1.3,0.1,1.9,0.4c0.6,0.2,1,0.6,1.4,1.1
				c0.4,0.5,0.7,1,0.9,1.7c0.2,0.6,0.3,1.4,0.3,2.2c0,0.2,0,0.4,0,0.6c0,0.2,0,0.4-0.1,0.5h-7.5c0.1,1.2,0.4,2.1,1.1,2.8
				c0.7,0.7,1.5,1,2.6,1c0.5,0,1-0.1,1.5-0.2s0.9-0.4,1.3-0.6l0.7,1.2c-0.5,0.3-1,0.6-1.6,0.8C219.4,398,218.7,398.1,218,398.1z
				 M214.5,391.3h6c0-1.1-0.2-2-0.7-2.6c-0.5-0.6-1.2-0.9-2-0.9c-0.4,0-0.8,0.1-1.1,0.2c-0.4,0.2-0.7,0.4-1,0.7
				c-0.3,0.3-0.5,0.7-0.7,1.1C214.6,390.3,214.5,390.8,214.5,391.3z"/>
			<path class="st4" d="M228.1,398.1c-0.6,0-1.1-0.1-1.5-0.3s-0.7-0.4-1-0.8s-0.4-0.7-0.5-1.2c-0.1-0.5-0.2-1-0.2-1.5v-6.2h-1.7
				v-1.4l1.7-0.1l0.2-3.1h1.6v3.1h3v1.5h-3v6.2c0,0.7,0.1,1.2,0.4,1.6s0.7,0.6,1.3,0.6c0.2,0,0.4,0,0.6-0.1c0.2-0.1,0.4-0.1,0.6-0.2
				l0.4,1.4c-0.3,0.1-0.6,0.2-1,0.3C228.9,398,228.5,398.1,228.1,398.1z"/>
			<path class="st4" d="M232.4,402.5v-15.9h1.6l0.2,1.3h0.1c0.5-0.4,1.1-0.8,1.7-1.1c0.6-0.3,1.2-0.5,1.9-0.5c0.7,0,1.4,0.1,1.9,0.4
				c0.6,0.3,1,0.7,1.4,1.2c0.4,0.5,0.6,1.1,0.8,1.8c0.2,0.7,0.3,1.5,0.3,2.4c0,1-0.1,1.8-0.4,2.5c-0.3,0.7-0.6,1.4-1.1,1.9
				s-1,0.9-1.5,1.2c-0.6,0.3-1.2,0.4-1.8,0.4c-0.5,0-1-0.1-1.6-0.3c-0.5-0.2-1-0.5-1.6-0.9l0,2v3.8H232.4z M237,396.5
				c0.5,0,0.9-0.1,1.3-0.3c0.4-0.2,0.7-0.5,1-0.9s0.5-0.8,0.7-1.4c0.2-0.6,0.2-1.2,0.2-1.9c0-0.6-0.1-1.2-0.2-1.7
				c-0.1-0.5-0.3-0.9-0.5-1.3s-0.5-0.6-0.9-0.8c-0.4-0.2-0.8-0.3-1.3-0.3c-0.5,0-1,0.1-1.4,0.4c-0.5,0.3-1,0.6-1.6,1.1v5.9
				c0.5,0.4,1,0.7,1.5,0.9C236.2,396.4,236.7,396.5,237,396.5z"/>
			<path class="st4" d="M247.2,398.1c-0.7,0-1.2-0.2-1.5-0.6c-0.3-0.4-0.5-1.1-0.5-1.9v-14.1h1.9v14.3c0,0.3,0.1,0.5,0.2,0.6
				c0.1,0.1,0.2,0.2,0.4,0.2c0.1,0,0.1,0,0.2,0c0.1,0,0.1,0,0.2,0l0.3,1.4c-0.1,0.1-0.3,0.1-0.4,0.1
				C247.6,398.1,247.4,398.1,247.2,398.1z"/>
			<path class="st4" d="M253.6,398.1c-0.9,0-1.7-0.3-2.3-0.8s-0.9-1.3-0.9-2.3c0-1.2,0.5-2.2,1.6-2.8c1.1-0.7,2.8-1.1,5.2-1.4
				c0-0.4,0-0.7-0.1-1c-0.1-0.3-0.2-0.6-0.4-0.9s-0.4-0.5-0.7-0.6c-0.3-0.2-0.7-0.2-1.1-0.2c-0.6,0-1.3,0.1-1.8,0.4
				c-0.6,0.2-1.1,0.5-1.5,0.8l-0.7-1.3c0.5-0.3,1.2-0.7,1.9-1c0.8-0.3,1.6-0.5,2.5-0.5c1.4,0,2.4,0.4,3,1.3c0.6,0.8,0.9,2,0.9,3.3
				v6.9h-1.6l-0.2-1.3h-0.1c-0.5,0.4-1.1,0.8-1.7,1.1C255,397.9,254.3,398.1,253.6,398.1z M254.2,396.6c0.5,0,1-0.1,1.5-0.4
				c0.5-0.3,1-0.6,1.5-1.1V392c-0.9,0.1-1.7,0.3-2.4,0.4c-0.6,0.2-1.1,0.4-1.5,0.6c-0.4,0.2-0.7,0.5-0.9,0.8s-0.3,0.6-0.3,1
				c0,0.6,0.2,1.1,0.6,1.4C253.1,396.4,253.6,396.6,254.2,396.6z"/>
			<path class="st4" d="M267,398.1c-0.7,0-1.4-0.1-2.1-0.4s-1.2-0.6-1.7-1.1c-0.5-0.5-0.8-1.1-1.1-1.8c-0.3-0.7-0.4-1.6-0.4-2.5
				c0-0.9,0.1-1.8,0.4-2.5c0.3-0.7,0.7-1.3,1.2-1.9s1.1-0.9,1.7-1.2c0.7-0.3,1.3-0.4,2.1-0.4c0.7,0,1.4,0.1,1.9,0.4
				c0.5,0.3,1,0.6,1.4,0.9l-1,1.2c-0.3-0.3-0.7-0.5-1-0.7c-0.4-0.2-0.8-0.3-1.2-0.3c-0.5,0-1,0.1-1.4,0.3s-0.8,0.5-1.1,0.9
				c-0.3,0.4-0.5,0.8-0.7,1.4c-0.2,0.5-0.3,1.1-0.3,1.8c0,0.6,0.1,1.2,0.3,1.7c0.2,0.5,0.4,1,0.7,1.3c0.3,0.4,0.7,0.7,1.1,0.9
				c0.4,0.2,0.9,0.3,1.4,0.3c0.5,0,1-0.1,1.4-0.3c0.4-0.2,0.8-0.5,1.2-0.8l0.8,1.3c-0.5,0.4-1.1,0.8-1.7,1S267.7,398.1,267,398.1z"
				/>
			<path class="st4" d="M277.2,398.1c-0.8,0-1.5-0.1-2.1-0.4c-0.7-0.3-1.2-0.7-1.7-1.1s-0.9-1.1-1.1-1.8c-0.3-0.7-0.4-1.5-0.4-2.5
				s0.1-1.7,0.4-2.5s0.7-1.3,1.1-1.9c0.5-0.5,1-0.9,1.6-1.2c0.6-0.3,1.2-0.4,1.9-0.4c0.7,0,1.3,0.1,1.9,0.4s1,0.6,1.4,1.1
				c0.4,0.5,0.7,1,0.9,1.7c0.2,0.6,0.3,1.4,0.3,2.2c0,0.2,0,0.4,0,0.6c0,0.2,0,0.4-0.1,0.5h-7.5c0.1,1.2,0.4,2.1,1.1,2.8
				c0.7,0.7,1.5,1,2.6,1c0.5,0,1-0.1,1.5-0.2c0.5-0.2,0.9-0.4,1.3-0.6l0.7,1.2c-0.5,0.3-1,0.6-1.6,0.8
				C278.6,398,277.9,398.1,277.2,398.1z M273.6,391.3h6c0-1.1-0.2-2-0.7-2.6c-0.5-0.6-1.2-0.9-2-0.9c-0.4,0-0.8,0.1-1.1,0.2
				s-0.7,0.4-1,0.7s-0.5,0.7-0.7,1.1C273.8,390.3,273.7,390.8,273.6,391.3z"/>
			<path class="st4" d="M291.2,398.1c-0.9,0-1.7-0.3-2.3-0.8s-0.9-1.3-0.9-2.3c0-1.2,0.5-2.2,1.6-2.8c1.1-0.7,2.8-1.1,5.2-1.4
				c0-0.4,0-0.7-0.1-1c-0.1-0.3-0.2-0.6-0.4-0.9s-0.4-0.5-0.7-0.6s-0.7-0.2-1.1-0.2c-0.6,0-1.3,0.1-1.8,0.4
				c-0.6,0.2-1.1,0.5-1.5,0.8l-0.7-1.3c0.5-0.3,1.2-0.7,1.9-1c0.8-0.3,1.6-0.5,2.5-0.5c1.4,0,2.4,0.4,3,1.3s0.9,2,0.9,3.3v6.9h-1.6
				l-0.2-1.3h-0.1c-0.5,0.4-1.1,0.8-1.7,1.1C292.6,397.9,291.9,398.1,291.2,398.1z M291.8,396.6c0.5,0,1-0.1,1.5-0.4s1-0.6,1.5-1.1
				V392c-0.9,0.1-1.7,0.3-2.4,0.4c-0.6,0.2-1.1,0.4-1.5,0.6c-0.4,0.2-0.7,0.5-0.9,0.8c-0.2,0.3-0.3,0.6-0.3,1c0,0.6,0.2,1.1,0.6,1.4
				C290.7,396.4,291.2,396.6,291.8,396.6z"/>
			<path class="st4" d="M300.2,397.8v-11.2h1.6l0.2,1.6h0.1c0.5-0.5,1.1-1,1.7-1.3c0.6-0.4,1.3-0.5,2.1-0.5c1.2,0,2,0.4,2.6,1.1
				c0.5,0.7,0.8,1.8,0.8,3.3v7.1h-1.9V391c0-1.1-0.2-1.8-0.5-2.3c-0.3-0.5-0.9-0.7-1.6-0.7c-0.6,0-1.1,0.1-1.5,0.4s-1,0.7-1.5,1.3
				v8.1H300.2z"/>
			<path class="st4" d="M316.6,398.1c-1.4,0-2.5-0.5-3.4-1.5c-0.8-1-1.3-2.5-1.3-4.3c0-0.9,0.1-1.7,0.4-2.4c0.3-0.7,0.6-1.3,1.1-1.9
				c0.4-0.5,1-0.9,1.5-1.2c0.6-0.3,1.2-0.4,1.8-0.4c0.6,0,1.2,0.1,1.7,0.3c0.5,0.2,1,0.5,1.4,0.9l-0.1-1.9v-4.3h1.9v16.4h-1.6
				l-0.2-1.3H320c-0.4,0.4-1,0.8-1.5,1.1C317.9,397.9,317.3,398.1,316.6,398.1z M317,396.5c0.5,0,1-0.1,1.5-0.4s0.9-0.6,1.4-1.2
				v-5.8c-0.5-0.4-0.9-0.7-1.4-0.9c-0.4-0.2-0.9-0.3-1.3-0.3c-0.4,0-0.9,0.1-1.3,0.3c-0.4,0.2-0.7,0.5-1,0.9
				c-0.3,0.4-0.5,0.8-0.7,1.3s-0.3,1.1-0.3,1.7c0,1.3,0.3,2.4,0.8,3.2C315.3,396.1,316.1,396.5,317,396.5z"/>
			<path class="st4" d="M330.2,397.8v-11.2h1.6l0.2,1.6h0.1c0.5-0.5,1-1,1.6-1.3c0.6-0.4,1.2-0.5,1.9-0.5c0.9,0,1.5,0.2,2,0.6
				c0.5,0.4,0.8,0.9,1.1,1.6c0.6-0.6,1.2-1.2,1.8-1.6c0.6-0.4,1.2-0.6,1.9-0.6c1.1,0,2,0.4,2.6,1.1c0.6,0.7,0.8,1.8,0.8,3.3v7.1
				h-1.9V391c0-1.1-0.2-1.8-0.5-2.3c-0.3-0.5-0.9-0.7-1.6-0.7c-0.8,0-1.8,0.6-2.8,1.7v8.1H337V391c0-1.1-0.2-1.8-0.5-2.3
				c-0.3-0.5-0.9-0.7-1.6-0.7c-0.8,0-1.8,0.6-2.8,1.7v8.1H330.2z"/>
			<path class="st4" d="M351.8,398.1c-0.9,0-1.7-0.3-2.3-0.8s-0.9-1.3-0.9-2.3c0-1.2,0.5-2.2,1.6-2.8c1.1-0.7,2.8-1.1,5.2-1.4
				c0-0.4,0-0.7-0.1-1c-0.1-0.3-0.2-0.6-0.4-0.9s-0.4-0.5-0.7-0.6c-0.3-0.2-0.7-0.2-1.1-0.2c-0.6,0-1.3,0.1-1.8,0.4
				c-0.6,0.2-1.1,0.5-1.5,0.8l-0.7-1.3c0.5-0.3,1.2-0.7,1.9-1s1.6-0.5,2.5-0.5c1.4,0,2.4,0.4,3,1.3c0.6,0.8,0.9,2,0.9,3.3v6.9h-1.6
				l-0.2-1.3h-0.1c-0.5,0.4-1.1,0.8-1.7,1.1C353.2,397.9,352.5,398.1,351.8,398.1z M352.4,396.6c0.5,0,1-0.1,1.5-0.4
				c0.5-0.3,1-0.6,1.5-1.1V392c-0.9,0.1-1.7,0.3-2.4,0.4c-0.6,0.2-1.2,0.4-1.5,0.6c-0.4,0.2-0.7,0.5-0.9,0.8c-0.2,0.3-0.3,0.6-0.3,1
				c0,0.6,0.2,1.1,0.6,1.4C351.3,396.4,351.8,396.6,352.4,396.6z"/>
			<path class="st4" d="M360.8,397.8v-16.4h1.9v11.1h0.1l4.8-5.9h2.1l-3.7,4.5l4.3,6.7h-2.1l-3.3-5.4l-2.1,2.4v2.9H360.8z"/>
			<path class="st4" d="M376.3,398.1c-0.8,0-1.5-0.1-2.1-0.4c-0.7-0.3-1.2-0.7-1.7-1.1c-0.5-0.5-0.9-1.1-1.1-1.8
				c-0.3-0.7-0.4-1.5-0.4-2.5s0.1-1.7,0.4-2.5c0.3-0.7,0.7-1.3,1.1-1.9c0.5-0.5,1-0.9,1.6-1.2c0.6-0.3,1.2-0.4,1.9-0.4
				c0.7,0,1.3,0.1,1.9,0.4s1,0.6,1.4,1.1s0.7,1,0.9,1.7c0.2,0.6,0.3,1.4,0.3,2.2c0,0.2,0,0.4,0,0.6c0,0.2,0,0.4-0.1,0.5h-7.5
				c0.1,1.2,0.4,2.1,1.1,2.8c0.7,0.7,1.5,1,2.6,1c0.5,0,1-0.1,1.5-0.2s0.9-0.4,1.3-0.6l0.7,1.2c-0.5,0.3-1,0.6-1.6,0.8
				C377.8,398,377.1,398.1,376.3,398.1z M372.8,391.3h6c0-1.1-0.2-2-0.7-2.6c-0.5-0.6-1.2-0.9-2-0.9c-0.4,0-0.8,0.1-1.1,0.2
				c-0.4,0.2-0.7,0.4-1,0.7c-0.3,0.3-0.5,0.7-0.7,1.1C373,390.3,372.9,390.8,372.8,391.3z"/>
			<path class="st4" d="M388,402.6c-0.3,0-0.5,0-0.7-0.1s-0.4-0.1-0.6-0.2l0.4-1.5c0.1,0,0.3,0.1,0.4,0.1c0.2,0,0.3,0.1,0.4,0.1
				c0.6,0,1.2-0.2,1.6-0.7s0.7-1,1-1.7l0.3-0.8l-4.5-11.2h2l2.3,6.2c0.2,0.5,0.3,1,0.5,1.6s0.4,1.1,0.5,1.6h0.1
				c0.2-0.5,0.3-1,0.5-1.6c0.2-0.6,0.3-1.1,0.5-1.6l2-6.2h1.8l-4.2,12.1c-0.2,0.6-0.4,1.1-0.7,1.5c-0.2,0.5-0.5,0.9-0.9,1.2
				c-0.3,0.3-0.7,0.6-1.2,0.8S388.6,402.6,388,402.6z"/>
			<path class="st4" d="M402.8,398.1c-0.7,0-1.3-0.1-2-0.4s-1.2-0.6-1.6-1.1c-0.5-0.5-0.9-1.1-1.1-1.8c-0.3-0.7-0.4-1.6-0.4-2.5
				c0-0.9,0.1-1.8,0.4-2.5s0.7-1.3,1.1-1.9s1-0.9,1.6-1.2c0.6-0.3,1.3-0.4,2-0.4c0.7,0,1.3,0.1,2,0.4c0.6,0.3,1.2,0.6,1.6,1.2
				c0.5,0.5,0.9,1.1,1.1,1.9s0.4,1.6,0.4,2.5c0,0.9-0.1,1.7-0.4,2.5c-0.3,0.7-0.7,1.3-1.1,1.8c-0.5,0.5-1,0.9-1.6,1.1
				S403.5,398.1,402.8,398.1z M402.8,396.5c0.5,0,0.9-0.1,1.3-0.3c0.4-0.2,0.7-0.5,1-0.9c0.3-0.4,0.5-0.8,0.7-1.3
				c0.2-0.5,0.2-1.1,0.2-1.7c0-0.6-0.1-1.2-0.2-1.8c-0.2-0.5-0.4-1-0.7-1.4c-0.3-0.4-0.6-0.7-1-0.9c-0.4-0.2-0.8-0.3-1.3-0.3
				c-0.5,0-0.9,0.1-1.3,0.3s-0.7,0.5-1,0.9c-0.3,0.4-0.5,0.8-0.7,1.4c-0.2,0.5-0.2,1.1-0.2,1.8c0,0.6,0.1,1.2,0.2,1.7
				c0.2,0.5,0.4,1,0.7,1.3c0.3,0.4,0.6,0.7,1,0.9S402.3,396.5,402.8,396.5z"/>
			<path class="st4" d="M414.2,398.1c-1.2,0-2.1-0.4-2.6-1.1c-0.5-0.7-0.8-1.8-0.8-3.3v-7.1h1.9v6.8c0,1.1,0.2,1.8,0.5,2.3
				c0.3,0.5,0.9,0.7,1.6,0.7c0.6,0,1.1-0.1,1.5-0.4c0.4-0.3,0.9-0.8,1.5-1.4v-7.9h1.9v11.2h-1.6l-0.2-1.7h-0.1
				c-0.5,0.6-1.1,1.1-1.6,1.5C415.7,397.9,415,398.1,414.2,398.1z"/>
			<path class="st4" d="M423.4,397.8v-11.2h1.6l0.2,2h0.1c0.4-0.7,0.8-1.3,1.4-1.7s1.1-0.6,1.8-0.6c0.4,0,0.8,0.1,1.2,0.2l-0.4,1.7
				c-0.2-0.1-0.4-0.1-0.5-0.1c-0.2,0-0.3,0-0.6,0c-0.5,0-1,0.2-1.5,0.6c-0.5,0.4-1,1-1.3,2v7.2H423.4z"/>
		</g>
		<g class="st3">
			<path class="st4" d="M77.4,435.1c-0.6,0-1.1-0.1-1.5-0.3s-0.7-0.4-1-0.8s-0.4-0.7-0.5-1.2c-0.1-0.5-0.2-1-0.2-1.5v-6.2h-1.7v-1.4
				l1.7-0.1l0.2-3.1h1.6v3.1h3v1.5h-3v6.2c0,0.7,0.1,1.2,0.4,1.6s0.7,0.6,1.3,0.6c0.2,0,0.4,0,0.6-0.1c0.2-0.1,0.4-0.1,0.6-0.2
				l0.4,1.4c-0.3,0.1-0.6,0.2-1,0.3C78.1,435,77.8,435.1,77.4,435.1z"/>
			<path class="st4" d="M81.7,434.8v-11.2h1.6l0.2,2h0.1c0.4-0.7,0.8-1.3,1.4-1.7s1.1-0.6,1.8-0.6c0.4,0,0.8,0.1,1.2,0.2l-0.4,1.7
				c-0.2-0.1-0.4-0.1-0.5-0.1c-0.2,0-0.3,0-0.6,0c-0.5,0-1,0.2-1.5,0.6c-0.5,0.4-1,1-1.3,2v7.2H81.7z"/>
			<path class="st4" d="M91.7,435.1c-0.9,0-1.7-0.3-2.3-0.8s-0.9-1.3-0.9-2.3c0-1.2,0.5-2.2,1.6-2.8c1.1-0.7,2.8-1.1,5.2-1.4
				c0-0.4,0-0.7-0.1-1c-0.1-0.3-0.2-0.6-0.4-0.9s-0.4-0.5-0.7-0.6c-0.3-0.2-0.7-0.2-1.1-0.2c-0.6,0-1.3,0.1-1.8,0.4
				c-0.6,0.2-1.1,0.5-1.5,0.8l-0.7-1.3c0.5-0.3,1.2-0.7,1.9-1c0.8-0.3,1.6-0.5,2.5-0.5c1.4,0,2.4,0.4,3,1.3c0.6,0.8,0.9,2,0.9,3.3
				v6.9h-1.6l-0.2-1.3h-0.1c-0.5,0.4-1.1,0.8-1.7,1.1C93,434.9,92.4,435.1,91.7,435.1z M92.2,433.6c0.5,0,1-0.1,1.5-0.4
				c0.5-0.3,1-0.6,1.5-1.1V429c-0.9,0.1-1.7,0.3-2.4,0.4c-0.6,0.2-1.1,0.4-1.5,0.6c-0.4,0.2-0.7,0.5-0.9,0.8s-0.3,0.6-0.3,1
				c0,0.6,0.2,1.1,0.6,1.4C91.2,433.4,91.7,433.6,92.2,433.6z"/>
			<path class="st4" d="M100.7,434.8v-11.2h1.6l0.2,1.6h0.1c0.5-0.5,1.1-1,1.7-1.3c0.6-0.4,1.3-0.5,2.1-0.5c1.2,0,2,0.4,2.6,1.1
				c0.5,0.7,0.8,1.8,0.8,3.3v7.1h-1.9V428c0-1.1-0.2-1.8-0.5-2.3s-0.9-0.7-1.6-0.7c-0.6,0-1.1,0.1-1.5,0.4c-0.4,0.3-1,0.7-1.5,1.3
				v8.1H100.7z"/>
			<path class="st4" d="M116.2,435.1c-0.8,0-1.6-0.1-2.3-0.4s-1.3-0.7-1.9-1.1l0.9-1.3c0.5,0.4,1,0.7,1.5,1c0.5,0.2,1.1,0.4,1.8,0.4
				c0.7,0,1.3-0.2,1.7-0.5c0.4-0.3,0.6-0.8,0.6-1.2c0-0.3-0.1-0.5-0.2-0.8s-0.3-0.4-0.6-0.6c-0.2-0.2-0.5-0.3-0.8-0.4
				c-0.3-0.1-0.6-0.2-0.9-0.4c-0.4-0.1-0.8-0.3-1.2-0.5c-0.4-0.2-0.8-0.4-1.1-0.6c-0.3-0.3-0.6-0.5-0.8-0.9
				c-0.2-0.3-0.3-0.7-0.3-1.2c0-0.4,0.1-0.9,0.3-1.3c0.2-0.4,0.4-0.7,0.8-1c0.3-0.3,0.7-0.5,1.2-0.7c0.5-0.2,1-0.2,1.6-0.2
				c0.7,0,1.4,0.1,1.9,0.4s1.1,0.5,1.5,0.9l-0.9,1.2c-0.4-0.3-0.8-0.5-1.2-0.7s-0.9-0.3-1.4-0.3c-0.7,0-1.2,0.2-1.6,0.5
				s-0.5,0.7-0.5,1.1c0,0.3,0.1,0.5,0.2,0.7c0.1,0.2,0.3,0.4,0.6,0.5s0.5,0.3,0.8,0.4c0.3,0.1,0.6,0.2,0.9,0.4
				c0.4,0.2,0.8,0.3,1.2,0.5c0.4,0.2,0.8,0.4,1.1,0.6c0.3,0.3,0.6,0.6,0.8,0.9c0.2,0.4,0.3,0.8,0.3,1.3c0,0.5-0.1,0.9-0.3,1.3
				c-0.2,0.4-0.4,0.8-0.8,1.1s-0.8,0.5-1.3,0.7C117.4,435,116.8,435.1,116.2,435.1z"/>
			<path class="st4" d="M123.2,434.8v-9.6h-1.5v-1.4l1.5-0.1v-1.8c0-1.1,0.3-2.1,0.8-2.7s1.4-1,2.5-1c0.4,0,0.7,0,1,0.1
				c0.3,0.1,0.6,0.2,0.9,0.3l-0.4,1.4c-0.4-0.2-0.8-0.3-1.3-0.3c-1,0-1.6,0.7-1.6,2.2v1.8h2.4v1.5h-2.4v9.6H123.2z"/>
			<path class="st4" d="M133.9,435.1c-0.8,0-1.5-0.1-2.1-0.4c-0.7-0.3-1.2-0.7-1.7-1.1s-0.9-1.1-1.1-1.8c-0.3-0.7-0.4-1.5-0.4-2.5
				s0.1-1.7,0.4-2.5s0.7-1.3,1.1-1.9c0.5-0.5,1-0.9,1.6-1.2c0.6-0.3,1.2-0.4,1.9-0.4c0.7,0,1.3,0.1,1.9,0.4c0.6,0.2,1,0.6,1.4,1.1
				c0.4,0.5,0.7,1,0.9,1.7c0.2,0.6,0.3,1.4,0.3,2.2c0,0.2,0,0.4,0,0.6c0,0.2,0,0.4-0.1,0.5h-7.5c0.1,1.2,0.4,2.1,1.1,2.8
				c0.7,0.7,1.5,1,2.6,1c0.5,0,1-0.1,1.5-0.2s0.9-0.4,1.3-0.6l0.7,1.2c-0.5,0.3-1,0.6-1.6,0.8C135.4,435,134.7,435.1,133.9,435.1z
				 M130.4,428.3h6c0-1.1-0.2-2-0.7-2.6c-0.5-0.6-1.2-0.9-2-0.9c-0.4,0-0.8,0.1-1.1,0.2c-0.4,0.2-0.7,0.4-1,0.7
				c-0.3,0.3-0.5,0.7-0.7,1.1C130.6,427.3,130.5,427.8,130.4,428.3z"/>
			<path class="st4" d="M140.8,434.8v-11.2h1.6l0.2,2h0.1c0.4-0.7,0.8-1.3,1.4-1.7s1.1-0.6,1.8-0.6c0.4,0,0.8,0.1,1.2,0.2l-0.4,1.7
				c-0.2-0.1-0.4-0.1-0.5-0.1c-0.2,0-0.3,0-0.6,0c-0.5,0-1,0.2-1.5,0.6c-0.5,0.4-1,1-1.3,2v7.2H140.8z"/>
			<path class="st4" d="M155.1,434.8l-3.1-11.2h1.9l1.7,6.5c0.1,0.5,0.2,1.1,0.3,1.6c0.1,0.5,0.2,1,0.3,1.5h0.1
				c0.1-0.5,0.2-1,0.4-1.6c0.1-0.5,0.3-1,0.4-1.6l1.7-6.5h1.8l1.7,6.5c0.1,0.5,0.3,1.1,0.4,1.6c0.1,0.5,0.3,1,0.4,1.5h0.1
				c0.1-0.5,0.2-1,0.3-1.5c0.1-0.5,0.2-1,0.3-1.6l1.6-6.5h1.8l-3,11.2h-2.3l-1.6-6c-0.1-0.5-0.3-1.1-0.4-1.6
				c-0.1-0.5-0.2-1.1-0.4-1.6h-0.1c-0.1,0.6-0.2,1.1-0.4,1.6c-0.1,0.5-0.3,1.1-0.4,1.6l-1.6,6H155.1z"/>
			<path class="st4" d="M170.9,421.3c-0.4,0-0.7-0.1-0.9-0.3c-0.3-0.2-0.4-0.5-0.4-0.9c0-0.4,0.1-0.7,0.4-0.9
				c0.3-0.2,0.6-0.3,0.9-0.3s0.7,0.1,0.9,0.3c0.3,0.2,0.4,0.5,0.4,0.9c0,0.4-0.1,0.6-0.4,0.9C171.5,421.2,171.2,421.3,170.9,421.3z
				 M169.9,434.8v-11.2h1.9v11.2H169.9z"/>
			<path class="st4" d="M179.1,435.1c-0.6,0-1.1-0.1-1.5-0.3s-0.7-0.4-1-0.8s-0.4-0.7-0.5-1.2c-0.1-0.5-0.2-1-0.2-1.5v-6.2h-1.7
				v-1.4l1.7-0.1l0.2-3.1h1.6v3.1h3v1.5h-3v6.2c0,0.7,0.1,1.2,0.4,1.6s0.7,0.6,1.3,0.6c0.2,0,0.4,0,0.6-0.1c0.2-0.1,0.4-0.1,0.6-0.2
				l0.4,1.4c-0.3,0.1-0.6,0.2-1,0.3C179.8,435,179.4,435.1,179.1,435.1z"/>
			<path class="st4" d="M183.3,434.8v-16.4h1.9v4.5l-0.1,2.3c0.5-0.5,1.1-0.9,1.7-1.3s1.3-0.5,2-0.5c1.2,0,2,0.4,2.6,1.1
				c0.5,0.7,0.8,1.8,0.8,3.3v7.1h-1.9V428c0-1.1-0.2-1.8-0.5-2.3s-0.9-0.7-1.6-0.7c-0.6,0-1.1,0.1-1.5,0.4c-0.4,0.3-1,0.7-1.5,1.3
				v8.1H183.3z"/>
			<path class="st4" d="M204.8,435.1c-0.7,0-1.4-0.1-2.1-0.4s-1.2-0.6-1.7-1.1c-0.5-0.5-0.8-1.1-1.1-1.8c-0.3-0.7-0.4-1.6-0.4-2.5
				c0-0.9,0.1-1.8,0.4-2.5c0.3-0.7,0.7-1.3,1.2-1.9s1.1-0.9,1.7-1.2c0.7-0.3,1.3-0.4,2.1-0.4c0.7,0,1.4,0.1,1.9,0.4
				c0.5,0.3,1,0.6,1.4,0.9l-1,1.2c-0.3-0.3-0.7-0.5-1-0.7c-0.4-0.2-0.8-0.3-1.2-0.3c-0.5,0-1,0.1-1.4,0.3s-0.8,0.5-1.1,0.9
				c-0.3,0.4-0.5,0.8-0.7,1.4c-0.2,0.5-0.3,1.1-0.3,1.8c0,0.6,0.1,1.2,0.3,1.7c0.2,0.5,0.4,1,0.7,1.3c0.3,0.4,0.7,0.7,1.1,0.9
				c0.4,0.2,0.9,0.3,1.4,0.3c0.5,0,1-0.1,1.4-0.3c0.4-0.2,0.8-0.5,1.2-0.8l0.8,1.3c-0.5,0.4-1.1,0.8-1.7,1S205.5,435.1,204.8,435.1z
				"/>
			<path class="st4" d="M213.3,435.1c-0.9,0-1.7-0.3-2.3-0.8s-0.9-1.3-0.9-2.3c0-1.2,0.5-2.2,1.6-2.8c1.1-0.7,2.8-1.1,5.2-1.4
				c0-0.4,0-0.7-0.1-1c-0.1-0.3-0.2-0.6-0.4-0.9s-0.4-0.5-0.7-0.6c-0.3-0.2-0.7-0.2-1.1-0.2c-0.6,0-1.3,0.1-1.8,0.4
				c-0.6,0.2-1.1,0.5-1.5,0.8l-0.7-1.3c0.5-0.3,1.2-0.7,1.9-1c0.8-0.3,1.6-0.5,2.5-0.5c1.4,0,2.4,0.4,3,1.3c0.6,0.8,0.9,2,0.9,3.3
				v6.9h-1.6l-0.2-1.3H217c-0.5,0.4-1.1,0.8-1.7,1.1C214.6,434.9,214,435.1,213.3,435.1z M213.8,433.6c0.5,0,1-0.1,1.5-0.4
				c0.5-0.3,1-0.6,1.5-1.1V429c-0.9,0.1-1.7,0.3-2.4,0.4c-0.6,0.2-1.1,0.4-1.5,0.6c-0.4,0.2-0.7,0.5-0.9,0.8s-0.3,0.6-0.3,1
				c0,0.6,0.2,1.1,0.6,1.4C212.8,433.4,213.3,433.6,213.8,433.6z"/>
			<path class="st4" d="M225.2,435.1c-0.8,0-1.6-0.1-2.3-0.4s-1.3-0.7-1.9-1.1l0.9-1.3c0.5,0.4,1,0.7,1.5,1c0.5,0.2,1.1,0.4,1.8,0.4
				c0.7,0,1.3-0.2,1.7-0.5c0.4-0.3,0.6-0.8,0.6-1.2c0-0.3-0.1-0.5-0.2-0.8s-0.3-0.4-0.6-0.6c-0.2-0.2-0.5-0.3-0.8-0.4
				c-0.3-0.1-0.6-0.2-0.9-0.4c-0.4-0.1-0.8-0.3-1.2-0.5c-0.4-0.2-0.8-0.4-1.1-0.6c-0.3-0.3-0.6-0.5-0.8-0.9
				c-0.2-0.3-0.3-0.7-0.3-1.2c0-0.4,0.1-0.9,0.3-1.3c0.2-0.4,0.4-0.7,0.8-1c0.3-0.3,0.7-0.5,1.2-0.7c0.5-0.2,1-0.2,1.6-0.2
				c0.7,0,1.4,0.1,1.9,0.4s1.1,0.5,1.5,0.9l-0.9,1.2c-0.4-0.3-0.8-0.5-1.2-0.7s-0.9-0.3-1.4-0.3c-0.7,0-1.2,0.2-1.6,0.5
				s-0.5,0.7-0.5,1.1c0,0.3,0.1,0.5,0.2,0.7c0.1,0.2,0.3,0.4,0.6,0.5s0.5,0.3,0.8,0.4c0.3,0.1,0.6,0.2,0.9,0.4
				c0.4,0.2,0.8,0.3,1.2,0.5c0.4,0.2,0.8,0.4,1.1,0.6c0.3,0.3,0.6,0.6,0.8,0.9c0.2,0.4,0.3,0.8,0.3,1.3c0,0.5-0.1,0.9-0.3,1.3
				c-0.2,0.4-0.4,0.8-0.8,1.1s-0.8,0.5-1.3,0.7C226.4,435,225.9,435.1,225.2,435.1z"/>
			<path class="st4" d="M231.9,434.8v-16.4h1.9v4.5l-0.1,2.3c0.5-0.5,1.1-0.9,1.7-1.3s1.3-0.5,2-0.5c1.2,0,2,0.4,2.6,1.1
				c0.5,0.7,0.8,1.8,0.8,3.3v7.1H239V428c0-1.1-0.2-1.8-0.5-2.3s-0.9-0.7-1.6-0.7c-0.6,0-1.1,0.1-1.5,0.4c-0.4,0.3-1,0.7-1.5,1.3
				v8.1H231.9z"/>
			<path class="st4" d="M244.1,438.7l-0.5-1.1c0.7-0.3,1.2-0.7,1.5-1.2s0.5-1,0.5-1.6c0,0-0.1,0-0.2,0c-0.4,0-0.7-0.1-1-0.3
				c-0.3-0.2-0.4-0.5-0.4-1c0-0.4,0.1-0.7,0.4-1c0.3-0.2,0.6-0.4,1-0.4c0.5,0,0.9,0.2,1.2,0.6c0.3,0.4,0.4,0.9,0.4,1.6
				c0,1-0.3,1.9-0.8,2.6C245.8,437.7,245,438.3,244.1,438.7z"/>
			<path class="st4" d="M259.2,435.1c-0.7,0-1.4-0.1-2.1-0.4s-1.2-0.6-1.7-1.1c-0.5-0.5-0.8-1.1-1.1-1.8c-0.3-0.7-0.4-1.6-0.4-2.5
				c0-0.9,0.1-1.8,0.4-2.5c0.3-0.7,0.7-1.3,1.2-1.9s1.1-0.9,1.7-1.2c0.7-0.3,1.3-0.4,2.1-0.4c0.7,0,1.4,0.1,1.9,0.4
				c0.5,0.3,1,0.6,1.4,0.9l-1,1.2c-0.3-0.3-0.7-0.5-1-0.7c-0.4-0.2-0.8-0.3-1.2-0.3c-0.5,0-1,0.1-1.4,0.3s-0.8,0.5-1.1,0.9
				c-0.3,0.4-0.5,0.8-0.7,1.4c-0.2,0.5-0.3,1.1-0.3,1.8c0,0.6,0.1,1.2,0.3,1.7c0.2,0.5,0.4,1,0.7,1.3c0.3,0.4,0.7,0.7,1.1,0.9
				c0.4,0.2,0.9,0.3,1.4,0.3c0.5,0,1-0.1,1.4-0.3c0.4-0.2,0.8-0.5,1.2-0.8l0.8,1.3c-0.5,0.4-1.1,0.8-1.7,1S259.8,435.1,259.2,435.1z
				"/>
			<path class="st4" d="M267.6,435.1c-0.9,0-1.7-0.3-2.3-0.8s-0.9-1.3-0.9-2.3c0-1.2,0.5-2.2,1.6-2.8c1.1-0.7,2.8-1.1,5.2-1.4
				c0-0.4,0-0.7-0.1-1c-0.1-0.3-0.2-0.6-0.4-0.9s-0.4-0.5-0.7-0.6s-0.7-0.2-1.1-0.2c-0.6,0-1.3,0.1-1.8,0.4
				c-0.6,0.2-1.1,0.5-1.5,0.8l-0.7-1.3c0.5-0.3,1.2-0.7,1.9-1c0.8-0.3,1.6-0.5,2.5-0.5c1.4,0,2.4,0.4,3,1.3s0.9,2,0.9,3.3v6.9h-1.6
				l-0.2-1.3h-0.1c-0.5,0.4-1.1,0.8-1.7,1.1C269,434.9,268.3,435.1,267.6,435.1z M268.1,433.6c0.5,0,1-0.1,1.5-0.4s1-0.6,1.5-1.1
				V429c-0.9,0.1-1.7,0.3-2.4,0.4c-0.6,0.2-1.1,0.4-1.5,0.6c-0.4,0.2-0.7,0.5-0.9,0.8s-0.3,0.6-0.3,1c0,0.6,0.2,1.1,0.6,1.4
				C267.1,433.4,267.6,433.6,268.1,433.6z"/>
			<path class="st4" d="M276.6,434.8v-11.2h1.6l0.2,2h0.1c0.4-0.7,0.8-1.3,1.4-1.7c0.5-0.4,1.1-0.6,1.8-0.6c0.4,0,0.8,0.1,1.2,0.2
				l-0.4,1.7c-0.2-0.1-0.4-0.1-0.5-0.1c-0.2,0-0.3,0-0.6,0c-0.5,0-1,0.2-1.5,0.6c-0.5,0.4-1,1-1.3,2v7.2H276.6z"/>
			<path class="st4" d="M288.2,435.1c-1.4,0-2.5-0.5-3.4-1.5c-0.8-1-1.3-2.5-1.3-4.3c0-0.9,0.1-1.7,0.4-2.4c0.3-0.7,0.6-1.3,1.1-1.9
				c0.4-0.5,1-0.9,1.5-1.2c0.6-0.3,1.2-0.4,1.8-0.4c0.6,0,1.2,0.1,1.7,0.3c0.5,0.2,1,0.5,1.4,0.9l-0.1-1.9v-4.3h1.9v16.4h-1.6
				l-0.2-1.3h-0.1c-0.4,0.4-1,0.8-1.5,1.1C289.5,434.9,288.8,435.1,288.2,435.1z M288.6,433.5c0.5,0,1-0.1,1.5-0.4s0.9-0.6,1.4-1.2
				v-5.8c-0.5-0.4-0.9-0.7-1.4-0.9c-0.4-0.2-0.9-0.3-1.3-0.3c-0.4,0-0.9,0.1-1.3,0.3c-0.4,0.2-0.7,0.5-1,0.9
				c-0.3,0.4-0.5,0.8-0.7,1.3s-0.3,1.1-0.3,1.7c0,1.3,0.3,2.4,0.8,3.2C286.8,433.1,287.6,433.5,288.6,433.5z"/>
			<path class="st4" d="M296.8,438.7l-0.5-1.1c0.7-0.3,1.2-0.7,1.5-1.2c0.4-0.5,0.5-1,0.5-1.6c0,0-0.1,0-0.2,0c-0.4,0-0.7-0.1-1-0.3
				c-0.3-0.2-0.4-0.5-0.4-1c0-0.4,0.1-0.7,0.4-1c0.3-0.2,0.6-0.4,1-0.4c0.5,0,0.9,0.2,1.2,0.6c0.3,0.4,0.4,0.9,0.4,1.6
				c0,1-0.3,1.9-0.8,2.6C298.4,437.7,297.7,438.3,296.8,438.7z"/>
			<path class="st4" d="M313,435.1c-0.8,0-1.5-0.1-2.2-0.3c-0.7-0.2-1.2-0.6-1.7-1.1c-0.5-0.5-0.9-1.2-1.1-2s-0.4-1.8-0.4-3.1v-8.9
				h1.9v8.9c0,0.9,0.1,1.7,0.3,2.3c0.2,0.6,0.4,1.1,0.7,1.5c0.3,0.4,0.7,0.6,1.1,0.8s0.9,0.2,1.4,0.2c0.5,0,1-0.1,1.4-0.2
				c0.4-0.2,0.8-0.4,1.1-0.8c0.3-0.4,0.6-0.9,0.8-1.5s0.3-1.4,0.3-2.3v-8.9h1.8v8.9c0,1.2-0.1,2.2-0.4,3.1s-0.7,1.5-1.1,2
				c-0.5,0.5-1.1,0.9-1.7,1.1C314.5,435,313.8,435.1,313,435.1z"/>
			<path class="st4" d="M326.4,435.1c-1.1,0-2-0.2-2.9-0.6s-1.7-0.9-2.3-1.6l1.2-1.3c0.5,0.6,1.2,1,1.9,1.4c0.7,0.3,1.5,0.5,2.3,0.5
				c1,0,1.8-0.2,2.3-0.7s0.8-1,0.8-1.8c0-0.4-0.1-0.7-0.2-1c-0.1-0.3-0.3-0.5-0.5-0.7c-0.2-0.2-0.5-0.4-0.8-0.5s-0.6-0.3-1-0.5
				l-2.2-0.9c-0.4-0.2-0.7-0.3-1.1-0.6c-0.4-0.2-0.7-0.5-1-0.8s-0.5-0.7-0.7-1.1s-0.3-0.9-0.3-1.5c0-0.6,0.1-1.1,0.4-1.6
				c0.2-0.5,0.6-0.9,1-1.3s0.9-0.6,1.5-0.8c0.6-0.2,1.2-0.3,1.9-0.3c0.9,0,1.7,0.2,2.5,0.5s1.4,0.8,2,1.3l-1,1.2
				c-0.5-0.4-1-0.8-1.5-1s-1.2-0.4-1.9-0.4c-0.8,0-1.5,0.2-2,0.6c-0.5,0.4-0.8,0.9-0.8,1.6c0,0.4,0.1,0.7,0.2,0.9
				c0.1,0.3,0.3,0.5,0.6,0.7c0.2,0.2,0.5,0.4,0.8,0.5s0.6,0.3,0.9,0.4l2.1,0.9c0.4,0.2,0.8,0.4,1.2,0.6c0.4,0.2,0.7,0.5,1,0.8
				c0.3,0.3,0.5,0.7,0.7,1.1c0.2,0.4,0.2,0.9,0.2,1.5c0,0.6-0.1,1.2-0.4,1.7c-0.2,0.5-0.6,1-1,1.4c-0.4,0.4-1,0.7-1.6,0.9
				C327.9,435,327.2,435.1,326.4,435.1z"/>
			<path class="st4" d="M338.4,435.1c-1.1,0-2-0.2-2.9-0.6c-0.9-0.4-1.7-0.9-2.3-1.6l1.2-1.3c0.5,0.6,1.2,1,1.9,1.4
				c0.7,0.3,1.5,0.5,2.3,0.5c1,0,1.8-0.2,2.3-0.7c0.6-0.5,0.8-1,0.8-1.8c0-0.4-0.1-0.7-0.2-1c-0.1-0.3-0.3-0.5-0.5-0.7
				s-0.5-0.4-0.8-0.5c-0.3-0.2-0.6-0.3-1-0.5l-2.2-0.9c-0.4-0.2-0.7-0.3-1.1-0.6c-0.4-0.2-0.7-0.5-1-0.8c-0.3-0.3-0.5-0.7-0.7-1.1
				s-0.3-0.9-0.3-1.5c0-0.6,0.1-1.1,0.4-1.6c0.2-0.5,0.6-0.9,1-1.3s0.9-0.6,1.5-0.8c0.6-0.2,1.2-0.3,1.9-0.3c0.9,0,1.7,0.2,2.5,0.5
				s1.4,0.8,2,1.3l-1,1.2c-0.5-0.4-1-0.8-1.5-1s-1.2-0.4-1.9-0.4c-0.8,0-1.5,0.2-2,0.6c-0.5,0.4-0.8,0.9-0.8,1.6
				c0,0.4,0.1,0.7,0.2,0.9c0.1,0.3,0.3,0.5,0.6,0.7c0.2,0.2,0.5,0.4,0.8,0.5c0.3,0.1,0.6,0.3,0.9,0.4l2.1,0.9
				c0.4,0.2,0.8,0.4,1.2,0.6c0.4,0.2,0.7,0.5,1,0.8c0.3,0.3,0.5,0.7,0.7,1.1c0.2,0.4,0.2,0.9,0.2,1.5c0,0.6-0.1,1.2-0.4,1.7
				c-0.2,0.5-0.6,1-1,1.4c-0.4,0.4-1,0.7-1.6,0.9C339.9,435,339.2,435.1,338.4,435.1z"/>
			<path class="st4" d="M346.5,434.8v-15.1h3.8c2.3,0,4.1,0.6,5.3,1.9c1.2,1.3,1.8,3.1,1.8,5.5c0,1.2-0.2,2.3-0.5,3.2
				c-0.3,0.9-0.8,1.7-1.4,2.4c-0.6,0.7-1.3,1.2-2.2,1.5c-0.9,0.3-1.9,0.5-3,0.5H346.5z M348.4,433.2h1.7c1.8,0,3.1-0.5,4-1.6
				c0.9-1.1,1.3-2.5,1.3-4.5c0-1.9-0.4-3.4-1.3-4.4c-0.9-1-2.2-1.5-4-1.5h-1.7V433.2z"/>
			<path class="st4" d="M369.4,435.1c-0.7,0-1.3-0.1-2-0.4s-1.2-0.6-1.6-1.1c-0.5-0.5-0.9-1.1-1.1-1.8c-0.3-0.7-0.4-1.6-0.4-2.5
				c0-0.9,0.1-1.8,0.4-2.5s0.7-1.3,1.1-1.9c0.5-0.5,1-0.9,1.6-1.2c0.6-0.3,1.3-0.4,2-0.4c0.7,0,1.3,0.1,2,0.4
				c0.6,0.3,1.2,0.6,1.6,1.2c0.5,0.5,0.9,1.1,1.1,1.9s0.4,1.6,0.4,2.5c0,0.9-0.1,1.7-0.4,2.5c-0.3,0.7-0.7,1.3-1.1,1.8
				c-0.5,0.5-1,0.9-1.6,1.1C370.7,434.9,370.1,435.1,369.4,435.1z M369.4,433.5c0.5,0,0.9-0.1,1.3-0.3s0.7-0.5,1-0.9
				c0.3-0.4,0.5-0.8,0.7-1.3c0.2-0.5,0.2-1.1,0.2-1.7c0-0.6-0.1-1.2-0.2-1.8c-0.2-0.5-0.4-1-0.7-1.4c-0.3-0.4-0.6-0.7-1-0.9
				s-0.8-0.3-1.3-0.3c-0.5,0-0.9,0.1-1.3,0.3c-0.4,0.2-0.7,0.5-1,0.9c-0.3,0.4-0.5,0.8-0.7,1.4c-0.2,0.5-0.2,1.1-0.2,1.8
				c0,0.6,0.1,1.2,0.2,1.7c0.2,0.5,0.4,1,0.7,1.3c0.3,0.4,0.6,0.7,1,0.9C368.5,433.4,368.9,433.5,369.4,433.5z"/>
			<path class="st4" d="M377.5,434.8v-11.2h1.6l0.2,2h0.1c0.4-0.7,0.8-1.3,1.4-1.7s1.1-0.6,1.8-0.6c0.4,0,0.8,0.1,1.2,0.2l-0.4,1.7
				c-0.2-0.1-0.4-0.1-0.5-0.1c-0.2,0-0.3,0-0.6,0c-0.5,0-1,0.2-1.5,0.6c-0.5,0.4-1,1-1.3,2v7.2H377.5z"/>
			<path class="st4" d="M395,435.1c-0.5,0-1.1-0.1-1.6-0.4c-0.6-0.3-1.1-0.6-1.6-1h-0.1l-0.2,1.2h-1.5v-16.4h1.9v4.5l0,2
				c0.5-0.4,1.1-0.8,1.7-1.1c0.6-0.3,1.2-0.4,1.8-0.4c0.7,0,1.4,0.1,1.9,0.4c0.6,0.3,1,0.7,1.4,1.2s0.7,1.1,0.9,1.8
				c0.2,0.7,0.3,1.5,0.3,2.3c0,1-0.1,1.8-0.4,2.6c-0.3,0.8-0.6,1.4-1.1,1.9s-1,0.9-1.5,1.2C396.3,434.9,395.7,435.1,395,435.1z
				 M394.7,433.5c0.5,0,0.9-0.1,1.3-0.3s0.7-0.5,1-0.9c0.3-0.4,0.5-0.8,0.7-1.4c0.2-0.6,0.2-1.2,0.2-1.9c0-0.6-0.1-1.2-0.2-1.7
				s-0.3-0.9-0.5-1.3s-0.5-0.6-0.9-0.8c-0.4-0.2-0.8-0.3-1.3-0.3c-0.9,0-1.9,0.5-3,1.5v5.9c0.5,0.4,1,0.7,1.5,0.9
				C393.9,433.4,394.3,433.5,394.7,433.5z"/>
			<path class="st4" d="M405.1,435.1c-0.9,0-1.7-0.3-2.3-0.8s-0.9-1.3-0.9-2.3c0-1.2,0.5-2.2,1.6-2.8c1.1-0.7,2.8-1.1,5.2-1.4
				c0-0.4,0-0.7-0.1-1c-0.1-0.3-0.2-0.6-0.4-0.9s-0.4-0.5-0.7-0.6c-0.3-0.2-0.7-0.2-1.1-0.2c-0.6,0-1.3,0.1-1.8,0.4
				c-0.6,0.2-1.1,0.5-1.5,0.8l-0.7-1.3c0.5-0.3,1.2-0.7,1.9-1s1.6-0.5,2.5-0.5c1.4,0,2.4,0.4,3,1.3c0.6,0.8,0.9,2,0.9,3.3v6.9H409
				l-0.2-1.3h-0.1c-0.5,0.4-1.1,0.8-1.7,1.1C406.4,434.9,405.8,435.1,405.1,435.1z M405.6,433.6c0.5,0,1-0.1,1.5-0.4
				c0.5-0.3,1-0.6,1.5-1.1V429c-0.9,0.1-1.7,0.3-2.4,0.4c-0.6,0.2-1.2,0.4-1.5,0.6c-0.4,0.2-0.7,0.5-0.9,0.8c-0.2,0.3-0.3,0.6-0.3,1
				c0,0.6,0.2,1.1,0.6,1.4C404.6,433.4,405.1,433.6,405.6,433.6z"/>
			<path class="st4" d="M414.1,434.8v-11.2h1.6l0.2,1.6h0.1c0.5-0.5,1.1-1,1.7-1.3s1.3-0.5,2.1-0.5c1.2,0,2,0.4,2.6,1.1
				c0.5,0.7,0.8,1.8,0.8,3.3v7.1h-1.9V428c0-1.1-0.2-1.8-0.5-2.3c-0.3-0.5-0.9-0.7-1.6-0.7c-0.6,0-1.1,0.1-1.5,0.4
				c-0.4,0.3-1,0.7-1.5,1.3v8.1H414.1z"/>
			<path class="st4" d="M426.7,434.8v-16.4h1.9v11.1h0.1l4.8-5.9h2.1l-3.7,4.5l4.3,6.7h-2.1l-3.3-5.4l-2.1,2.4v2.9H426.7z"/>
		</g>
		<g class="st3">
			<path class="st4" d="M77.4,472.1c-0.6,0-1.1-0.1-1.5-0.3s-0.7-0.4-1-0.8s-0.4-0.7-0.5-1.2c-0.1-0.5-0.2-1-0.2-1.5v-6.2h-1.7v-1.4
				l1.7-0.1l0.2-3.1h1.6v3.1h3v1.5h-3v6.2c0,0.7,0.1,1.2,0.4,1.6s0.7,0.6,1.3,0.6c0.2,0,0.4,0,0.6-0.1c0.2-0.1,0.4-0.1,0.6-0.2
				l0.4,1.4c-0.3,0.1-0.6,0.2-1,0.3C78.1,472,77.8,472.1,77.4,472.1z"/>
			<path class="st4" d="M81.7,471.8v-11.2h1.6l0.2,2h0.1c0.4-0.7,0.8-1.3,1.4-1.7s1.1-0.6,1.8-0.6c0.4,0,0.8,0.1,1.2,0.2l-0.4,1.7
				c-0.2-0.1-0.4-0.1-0.5-0.1c-0.2,0-0.3,0-0.6,0c-0.5,0-1,0.2-1.5,0.6c-0.5,0.4-1,1-1.3,2v7.2H81.7z"/>
			<path class="st4" d="M91.7,472.1c-0.9,0-1.7-0.3-2.3-0.8s-0.9-1.3-0.9-2.3c0-1.2,0.5-2.2,1.6-2.8c1.1-0.7,2.8-1.1,5.2-1.4
				c0-0.4,0-0.7-0.1-1c-0.1-0.3-0.2-0.6-0.4-0.9s-0.4-0.5-0.7-0.6c-0.3-0.2-0.7-0.2-1.1-0.2c-0.6,0-1.3,0.1-1.8,0.4
				c-0.6,0.2-1.1,0.5-1.5,0.8l-0.7-1.3c0.5-0.3,1.2-0.7,1.9-1c0.8-0.3,1.6-0.5,2.5-0.5c1.4,0,2.4,0.4,3,1.3c0.6,0.8,0.9,2,0.9,3.3
				v6.9h-1.6l-0.2-1.3h-0.1c-0.5,0.4-1.1,0.8-1.7,1.1C93,471.9,92.4,472.1,91.7,472.1z M92.2,470.6c0.5,0,1-0.1,1.5-0.4
				c0.5-0.3,1-0.6,1.5-1.1V466c-0.9,0.1-1.7,0.3-2.4,0.4c-0.6,0.2-1.1,0.4-1.5,0.6c-0.4,0.2-0.7,0.5-0.9,0.8s-0.3,0.6-0.3,1
				c0,0.6,0.2,1.1,0.6,1.4C91.2,470.4,91.7,470.6,92.2,470.6z"/>
			<path class="st4" d="M100.7,471.8v-11.2h1.6l0.2,1.6h0.1c0.5-0.5,1.1-1,1.7-1.3c0.6-0.4,1.3-0.5,2.1-0.5c1.2,0,2,0.4,2.6,1.1
				c0.5,0.7,0.8,1.8,0.8,3.3v7.1h-1.9V465c0-1.1-0.2-1.8-0.5-2.3s-0.9-0.7-1.6-0.7c-0.6,0-1.1,0.1-1.5,0.4c-0.4,0.3-1,0.7-1.5,1.3
				v8.1H100.7z"/>
			<path class="st4" d="M116.2,472.1c-0.8,0-1.6-0.1-2.3-0.4s-1.3-0.7-1.9-1.1l0.9-1.3c0.5,0.4,1,0.7,1.5,1c0.5,0.2,1.1,0.4,1.8,0.4
				c0.7,0,1.3-0.2,1.7-0.5c0.4-0.3,0.6-0.8,0.6-1.2c0-0.3-0.1-0.5-0.2-0.8s-0.3-0.4-0.6-0.6c-0.2-0.2-0.5-0.3-0.8-0.4
				c-0.3-0.1-0.6-0.2-0.9-0.4c-0.4-0.1-0.8-0.3-1.2-0.5c-0.4-0.2-0.8-0.4-1.1-0.6c-0.3-0.3-0.6-0.5-0.8-0.9
				c-0.2-0.3-0.3-0.7-0.3-1.2c0-0.4,0.1-0.9,0.3-1.3c0.2-0.4,0.4-0.7,0.8-1c0.3-0.3,0.7-0.5,1.2-0.7c0.5-0.2,1-0.2,1.6-0.2
				c0.7,0,1.4,0.1,1.9,0.4s1.1,0.5,1.5,0.9l-0.9,1.2c-0.4-0.3-0.8-0.5-1.2-0.7s-0.9-0.3-1.4-0.3c-0.7,0-1.2,0.2-1.6,0.5
				s-0.5,0.7-0.5,1.1c0,0.3,0.1,0.5,0.2,0.7c0.1,0.2,0.3,0.4,0.6,0.5s0.5,0.3,0.8,0.4c0.3,0.1,0.6,0.2,0.9,0.4
				c0.4,0.2,0.8,0.3,1.2,0.5c0.4,0.2,0.8,0.4,1.1,0.6c0.3,0.3,0.6,0.6,0.8,0.9c0.2,0.4,0.3,0.8,0.3,1.3c0,0.5-0.1,0.9-0.3,1.3
				c-0.2,0.4-0.4,0.8-0.8,1.1s-0.8,0.5-1.3,0.7C117.4,472,116.8,472.1,116.2,472.1z"/>
			<path class="st4" d="M123.2,471.8v-9.6h-1.5v-1.4l1.5-0.1v-1.8c0-1.1,0.3-2.1,0.8-2.7s1.4-1,2.5-1c0.4,0,0.7,0,1,0.1
				c0.3,0.1,0.6,0.2,0.9,0.3l-0.4,1.4c-0.4-0.2-0.8-0.3-1.3-0.3c-1,0-1.6,0.7-1.6,2.2v1.8h2.4v1.5h-2.4v9.6H123.2z"/>
			<path class="st4" d="M133.9,472.1c-0.8,0-1.5-0.1-2.1-0.4c-0.7-0.3-1.2-0.7-1.7-1.1s-0.9-1.1-1.1-1.8c-0.3-0.7-0.4-1.5-0.4-2.5
				s0.1-1.7,0.4-2.5s0.7-1.3,1.1-1.9c0.5-0.5,1-0.9,1.6-1.2c0.6-0.3,1.2-0.4,1.9-0.4c0.7,0,1.3,0.1,1.9,0.4c0.6,0.2,1,0.6,1.4,1.1
				c0.4,0.5,0.7,1,0.9,1.7c0.2,0.6,0.3,1.4,0.3,2.2c0,0.2,0,0.4,0,0.6c0,0.2,0,0.4-0.1,0.5h-7.5c0.1,1.2,0.4,2.1,1.1,2.8
				c0.7,0.7,1.5,1,2.6,1c0.5,0,1-0.1,1.5-0.2s0.9-0.4,1.3-0.6l0.7,1.2c-0.5,0.3-1,0.6-1.6,0.8C135.4,472,134.7,472.1,133.9,472.1z
				 M130.4,465.3h6c0-1.1-0.2-2-0.7-2.6c-0.5-0.6-1.2-0.9-2-0.9c-0.4,0-0.8,0.1-1.1,0.2c-0.4,0.2-0.7,0.4-1,0.7
				c-0.3,0.3-0.5,0.7-0.7,1.1C130.6,464.3,130.5,464.8,130.4,465.3z"/>
			<path class="st4" d="M140.8,471.8v-11.2h1.6l0.2,2h0.1c0.4-0.7,0.8-1.3,1.4-1.7s1.1-0.6,1.8-0.6c0.4,0,0.8,0.1,1.2,0.2l-0.4,1.7
				c-0.2-0.1-0.4-0.1-0.5-0.1c-0.2,0-0.3,0-0.6,0c-0.5,0-1,0.2-1.5,0.6c-0.5,0.4-1,1-1.3,2v7.2H140.8z"/>
			<path class="st4" d="M148.5,472.1c-0.4,0-0.7-0.1-1-0.4c-0.3-0.3-0.4-0.6-0.4-1c0-0.4,0.1-0.8,0.4-1.1c0.3-0.3,0.6-0.4,1-0.4
				c0.4,0,0.7,0.1,1,0.4c0.3,0.3,0.4,0.6,0.4,1.1c0,0.4-0.1,0.8-0.4,1C149.1,471.9,148.8,472.1,148.5,472.1z"/>
		</g>
		<g id="Group_1830" transform="translate(-4920.51 -2569.216)">
			<g id="store" transform="translate(5016.587 2657.587)">
				<path id="Path_2259" class="st5" d="M4.3,43.4h78v43.4h-78V43.4z"/>
				<path id="Path_2260" class="st6" d="M86.8,41.9H0l9-13.5h68.9l0.3,0.4l4.3,6.5L86.8,41.9z"/>
				<path id="Path_2261" class="st5" d="M9,6h68.9v22.5H9V6z"/>
				<path id="Path_2262" class="st7" d="M82.4,0l-1.5,6H6L4.5,0H82.4z"/>
				<path id="Path_2263" class="st8" d="M67.4,22.5c0-1.7,1.3-3,3-3V15c-1.7,0-3-1.3-3-3H19.5c0,1.7-1.3,3-3,3v4.5c1.7,0,3,1.3,3,3
					L67.4,22.5z"/>
				<path id="Path_2264" class="st9" d="M4.3,50.9c2.4,0,4.3-1.9,4.3-4.3v-4.6H0v4.6C0,49,1.9,50.9,4.3,50.9
					C4.3,50.9,4.3,50.9,4.3,50.9z"/>
				<path id="Path_2265" class="st10" d="M13,50.9c2.4,0,4.3-1.9,4.3-4.3v-4.6H8.7v4.6C8.7,49,10.6,50.9,13,50.9
					C13,50.9,13,50.9,13,50.9z"/>
				<g id="Group_1828" transform="translate(17.369 41.925)">
					<path id="Path_2266" class="st9" d="M4.3,9C6.7,9,8.7,7,8.7,4.6V0H0v4.6C0,7,1.9,9,4.3,9C4.3,9,4.3,9,4.3,9z"/>
					<path id="Path_2267" class="st9" d="M21.7,9c2.4,0,4.3-1.9,4.3-4.3V0h-8.7v4.6C17.4,7,19.3,9,21.7,9L21.7,9z"/>
					<path id="Path_2268" class="st9" d="M39.1,9c2.4,0,4.3-1.9,4.3-4.3l0,0V0h-8.7v4.6C34.7,7,36.7,9,39.1,9C39.1,9,39.1,9,39.1,9z
						"/>
					<path id="Path_2269" class="st9" d="M56.4,9c2.4,0,4.3-1.9,4.3-4.3l0,0V0h-8.7v4.6C52.1,7,54.1,9,56.4,9z"/>
				</g>
				<path id="Path_2270" class="st6" d="M0,41.9l9-13.5"/>
				<path id="Path_2271" class="st11" d="M26.4,28.4l-9,13.5H8.7l9-13.5H26.4z"/>
				<path id="Path_2272" class="st10" d="M30.4,50.9c2.4,0,4.3-1.9,4.3-4.3v-4.6h-8.7v4.6C26.1,49,28,50.9,30.4,50.9L30.4,50.9z"/>
				<path id="Path_2273" class="st11" d="M43.7,28.4l-9,13.5h-8.7l9-13.5H43.7z"/>
				<path id="Path_2274" class="st10" d="M47.8,50.9c2.4,0,4.3-1.9,4.3-4.3l0,0v-4.6h-8.7v4.6C43.4,49,45.4,50.9,47.8,50.9
					C47.8,50.9,47.8,50.9,47.8,50.9z"/>
				<path id="Path_2275" class="st11" d="M61.1,28.4l-9,13.5h-8.7l9-13.5H61.1z"/>
				<path id="Path_2276" class="st10" d="M65.1,50.9c2.4,0,4.3-1.9,4.3-4.3l0,0v-4.6h-8.7v4.6C60.8,49,62.7,50.9,65.1,50.9
					C65.1,50.9,65.1,50.9,65.1,50.9z"/>
				<path id="Path_2277" class="st11" d="M78.2,28.9l-8.7,13h-8.7l9-13.5h8.1L78.2,28.9z"/>
				<path id="Path_2278" class="st10" d="M82.5,50.9c2.4,0,4.3-1.9,4.3-4.3l0,0v-4.6h-8.7v4.6C78.2,49,80.1,50.9,82.5,50.9z"/>
				<path id="Path_2279" class="st11" d="M86.8,41.9h-8.7l4.3-6.5L86.8,41.9z"/>
				<path id="Path_2280" class="st12" d="M10.5,56.9h19.5v18H10.5V56.9z"/>
				<path id="Path_2281" class="st7" d="M35.9,56.9h15v29.9h-15V56.9z"/>
				<ellipse id="Ellipse_95" class="st8" cx="40" cy="72.1" rx="1.1" ry="1.7"/>
				<path id="Path_2282" class="st13" d="M29.9,56.9v3.6L19,71.4l-2.1-2.1l12.4-12.4H29.9z"/>
				<path id="Path_2283" class="st13" d="M16,66.9l-5.6,5.5v-4.2l3.4-3.4L16,66.9z"/>
				<path id="Path_2284" class="st13" d="M15.4,63.3l3-3l2.1,2.1l-3,3L15.4,63.3z"/>
				<path id="Path_2285" class="st12" d="M56.9,56.9h19.5v18H56.9V56.9z"/>
				<path id="Path_2286" class="st13" d="M76.4,56.9v3.6L65.4,71.4l-2.1-2.1l12.4-12.4H76.4z"/>
				<path id="Path_2287" class="st13" d="M62.4,66.9l-5.6,5.5v-4.2l3.4-3.4L62.4,66.9z"/>
				<path id="Path_2288" class="st13" d="M61.8,63.3l3-3l2.1,2.1l-3,3L61.8,63.3z"/>
			</g>
			<g class="st3">
				<path class="st4" d="M5052.5,2677.5c-0.8,0-1.4-0.3-1.7-1l1.1-0.6c0.1,0.1,0.2,0.2,0.2,0.3c0.1,0.1,0.2,0.1,0.4,0.1
					c0.4,0,0.5-0.2,0.5-0.5v-3.3h1.3v3.3c0,0.5-0.2,0.9-0.5,1.2C5053.5,2677.3,5053,2677.5,5052.5,2677.5z"/>
				<path class="st4" d="M5057.9,2677.4l-0.2-0.7h-1.7l-0.2,0.7h-1.4l1.6-4.9h1.6l1.6,4.9H5057.9z M5056.3,2675.6h1l-0.5-1.7
					L5056.3,2675.6z"/>
				<path class="st4" d="M5062.1,2677.4l-0.9-1.6h-0.4v1.6h-1.3v-4.9h2c0.5,0,0.9,0.2,1.3,0.5c0.3,0.3,0.5,0.7,0.5,1.2
					c0,0.3-0.1,0.6-0.2,0.8s-0.4,0.4-0.6,0.6l1,1.8H5062.1z M5060.8,2673.6v1.1h0.7c0.2,0,0.3,0,0.4-0.1s0.1-0.2,0.1-0.4
					c0-0.2,0-0.3-0.1-0.4s-0.2-0.2-0.4-0.2H5060.8z"/>
				<path class="st4" d="M5067,2677.4l-0.2-0.7h-1.7l-0.2,0.7h-1.4l1.6-4.9h1.6l1.6,4.9H5067z M5065.4,2675.6h1l-0.5-1.7
					L5065.4,2675.6z"/>
			</g>
		</g>
	</g>
</g>
</svg>
