<?xml version="1.0" encoding="utf-8"?>
<!-- Generator: Adobe Illustrator 23.0.5, SVG Export Plug-In . SVG Version: 6.00 Build 0)  -->
<svg version="1.1" id="Layer_1" xmlns="http://www.w3.org/2000/svg" xmlns:xlink="http://www.w3.org/1999/xlink" x="0px" y="0px"
	 viewBox="0 0 550 711" style="enable-background:new 0 0 550 711;" xml:space="preserve">
<style type="text/css">
	.st0{clip-path:url(#SVGID_2_);}
	.st1{fill:#33CC99;}
	.st2{enable-background:new    ;}
	.st3{fill:#FFFFFF;}
	.st4{fill:#FAF8F6;}
	.st5{fill:#FFE480;}
	.st6{fill:#FFCB02;}
	.st7{fill:#FBFBFB;}
	.st8{fill:#2488FF;}
	.st9{fill:#57A4FF;}
	.st10{fill:#FFC477;}
	.st11{fill:#FFA733;}
</style>
<g>
	<defs>
		<rect id="SVGID_1_" y="0" width="550" height="711"/>
	</defs>
	<clipPath id="SVGID_2_">
		<use xlink:href="#SVGID_1_"  style="overflow:visible;"/>
	</clipPath>
	<g id="Jara_For_Brands_" class="st0">
		<path id="Rectangle_17019" class="st1" d="M68,39h414c22.6,0,41,18.4,41,41v551c0,22.6-18.4,41-41,41H68c-22.6,0-41-18.4-41-41V80
			C27,57.4,45.4,39,68,39z"/>
		<g id="Group_1825" transform="translate(5540.625 -374.664)">
			<g class="st2">
				<path class="st3" d="M-5409.4,975.7c-1.9,0-3.4-0.4-4.6-1.2c-1.2-0.8-2.1-1.8-2.5-3.2l3.8-2.2c0.6,1.5,1.8,2.3,3.5,2.3
					c1.4,0,2-0.4,2-1.2c0-0.5-0.4-0.9-1.2-1.2c-0.3-0.1-1.1-0.4-2.2-0.7c-1.6-0.5-2.9-1.1-3.8-2c-0.9-0.8-1.4-2-1.4-3.5
					c0-1.6,0.6-2.9,1.7-3.9c1.2-1,2.6-1.5,4.3-1.5c1.5,0,2.8,0.3,3.9,1s2,1.7,2.6,3l-3.8,2.2c-0.5-1.3-1.5-2-2.7-2
					c-0.5,0-0.9,0.1-1.2,0.3s-0.4,0.5-0.4,0.8c0,0.4,0.2,0.7,0.6,1c0.4,0.3,1.2,0.6,2.4,0.9c0.8,0.3,1.5,0.5,2,0.7s1.1,0.5,1.7,0.9
					c0.6,0.4,1.1,0.9,1.4,1.6c0.3,0.6,0.5,1.4,0.5,2.3c0,1.7-0.6,3.1-1.8,4C-5405.8,975.2-5407.4,975.7-5409.4,975.7z"/>
				<path class="st3" d="M-5393.8,966.8h-2.6v3.6c0,0.6,0.2,0.9,0.6,1c0.4,0.1,1.1,0.2,2,0.1v3.8c-2.5,0.3-4.2,0.1-5.2-0.7
					s-1.5-2.1-1.5-4.1v-3.7h-1.9v-4h1.9v-2.3l4.1-1.3v3.5h2.6V966.8z"/>
				<path class="st3" d="M-5383.3,962.8h4.1v12.5h-4.1v-1.2c-0.9,1-2,1.5-3.5,1.5c-1.7,0-3.1-0.6-4.2-1.9c-1.1-1.3-1.7-2.8-1.7-4.7
					c0-1.9,0.6-3.5,1.7-4.7c1.1-1.3,2.5-1.9,4.2-1.9c1.5,0,2.7,0.5,3.5,1.5V962.8z M-5387.8,971.1c0.5,0.5,1.1,0.8,1.9,0.8
					c0.8,0,1.4-0.3,1.9-0.8s0.7-1.2,0.7-2s-0.2-1.5-0.7-2s-1.1-0.8-1.9-0.8c-0.8,0-1.4,0.3-1.9,0.8s-0.7,1.2-0.7,2
					S-5388.3,970.6-5387.8,971.1z"/>
				<path class="st3" d="M-5372.6,965.2c0.2-0.8,0.7-1.5,1.4-1.9s1.5-0.7,2.4-0.7v4.6c-1-0.1-1.8,0-2.6,0.5
					c-0.8,0.5-1.2,1.3-1.2,2.5v5.2h-4.1v-12.5h4.1V965.2z"/>
				<path class="st3" d="M-5359.2,966.8h-2.6v3.6c0,0.6,0.2,0.9,0.6,1c0.4,0.1,1.1,0.2,2,0.1v3.8c-2.5,0.3-4.2,0.1-5.2-0.7
					s-1.5-2.1-1.5-4.1v-3.7h-1.9v-4h1.9v-2.3l4.1-1.3v3.5h2.6V966.8z"/>
				<path class="st3" d="M-5346.8,971h6v4.3h-10.5v-17.5h4.5V971z"/>
				<path class="st3" d="M-5335.8,970.6c0.4,1,1.4,1.5,2.8,1.5c0.9,0,1.7-0.3,2.3-0.9l3,2.1c-1.2,1.5-3,2.3-5.4,2.3
					c-2.1,0-3.8-0.6-5.1-1.9c-1.3-1.2-1.9-2.8-1.9-4.7c0-1.9,0.6-3.5,1.9-4.7s2.8-1.9,4.8-1.9c1.9,0,3.4,0.6,4.6,1.9
					c1.2,1.3,1.8,2.8,1.8,4.7c0,0.6-0.1,1.1-0.2,1.6H-5335.8z M-5335.8,967.7h4.8c-0.3-1.2-1.1-1.8-2.4-1.8
					C-5334.6,966-5335.5,966.6-5335.8,967.7z"/>
				<path class="st3" d="M-5316.4,962.8h4.1v12.5h-4.1v-1.2c-0.9,1-2,1.5-3.5,1.5c-1.7,0-3.1-0.6-4.2-1.9c-1.1-1.3-1.7-2.8-1.7-4.7
					c0-1.9,0.6-3.5,1.7-4.7c1.1-1.3,2.5-1.9,4.2-1.9c1.5,0,2.7,0.5,3.5,1.5V962.8z M-5320.9,971.1c0.5,0.5,1.1,0.8,1.9,0.8
					c0.8,0,1.4-0.3,1.9-0.8s0.7-1.2,0.7-2s-0.2-1.5-0.7-2s-1.1-0.8-1.9-0.8c-0.8,0-1.4,0.3-1.9,0.8s-0.7,1.2-0.7,2
					S-5321.4,970.6-5320.9,971.1z"/>
				<path class="st3" d="M-5305.7,965.2c0.2-0.8,0.7-1.5,1.4-1.9s1.5-0.7,2.4-0.7v4.6c-1-0.1-1.8,0-2.6,0.5
					c-0.8,0.5-1.2,1.3-1.2,2.5v5.2h-4.1v-12.5h4.1V965.2z"/>
				<path class="st3" d="M-5292.8,962.5c1.3,0,2.5,0.5,3.3,1.4c0.9,0.9,1.3,2.3,1.3,4v7.5h-4.1v-7c0-0.6-0.2-1.1-0.5-1.5
					c-0.3-0.3-0.8-0.5-1.4-0.5c-0.6,0-1.2,0.2-1.5,0.6c-0.4,0.4-0.5,1-0.5,1.7v6.7h-4.1v-12.5h4.1v1.3
					C-5295.5,963-5294.3,962.5-5292.8,962.5z"/>
				<path class="st3" d="M-5282.1,961.1c-0.5,0.5-1,0.7-1.7,0.7s-1.2-0.2-1.7-0.7c-0.5-0.5-0.7-1-0.7-1.7c0-0.7,0.2-1.2,0.7-1.7
					s1-0.7,1.7-0.7s1.2,0.2,1.7,0.7s0.7,1,0.7,1.7C-5281.4,960.1-5281.7,960.6-5282.1,961.1z M-5285.9,975.3v-12.5h4.1v12.5H-5285.9
					z"/>
				<path class="st3" d="M-5271.7,962.5c1.3,0,2.5,0.5,3.3,1.4c0.9,0.9,1.3,2.3,1.3,4v7.5h-4.1v-7c0-0.6-0.2-1.1-0.5-1.5
					c-0.3-0.3-0.8-0.5-1.4-0.5c-0.6,0-1.2,0.2-1.5,0.6c-0.4,0.4-0.5,1-0.5,1.7v6.7h-4.1v-12.5h4.1v1.3
					C-5274.5,963-5273.3,962.5-5271.7,962.5z"/>
				<path class="st3" d="M-5256,962.8h4.1v12c0,1-0.2,1.9-0.6,2.7c-0.4,0.8-0.9,1.4-1.5,1.9c-0.6,0.5-1.3,0.8-2.1,1
					c-0.8,0.2-1.6,0.3-2.4,0.3c-1.4,0-2.6-0.3-3.7-0.8s-1.9-1.3-2.5-2.3l3.5-2c0.6,1,1.5,1.4,2.7,1.4c0.8,0,1.4-0.2,1.8-0.6
					c0.5-0.4,0.7-0.9,0.7-1.7v-1.2c-0.8,1-2,1.5-3.5,1.5c-1.7,0-3.1-0.6-4.3-1.8s-1.7-2.7-1.7-4.5s0.6-3.3,1.7-4.5s2.5-1.8,4.3-1.8
					c1.5,0,2.7,0.5,3.5,1.5V962.8z M-5260.5,970.7c0.5,0.5,1.1,0.7,1.9,0.7c0.8,0,1.4-0.2,1.9-0.7c0.5-0.5,0.7-1.1,0.7-1.9
					s-0.2-1.4-0.7-1.9s-1.1-0.7-1.9-0.7c-0.8,0-1.4,0.2-1.9,0.7c-0.5,0.5-0.7,1.1-0.7,1.9S-5261,970.2-5260.5,970.7z"/>
			</g>
			<g class="st2">
				<path class="st3" d="M-5449.2,642.8c-3.8,0-6.4-1.5-8-4.6l5-2.9c0.3,0.6,0.7,1.1,1.2,1.4s1,0.4,1.8,0.4c1.7,0,2.5-0.8,2.5-2.3
					v-15.5h5.9v15.6c0,2.5-0.8,4.4-2.3,5.9C-5444.6,642.1-5446.6,642.8-5449.2,642.8z"/>
				<path class="st3" d="M-5426.1,625.8h5.5v16.5h-5.5v-1.5c-1.1,1.3-2.7,2-4.7,2c-2.2,0-4-0.8-5.5-2.5s-2.2-3.7-2.2-6.2
					c0-2.5,0.7-4.6,2.2-6.2c1.5-1.7,3.3-2.5,5.5-2.5c2,0,3.6,0.7,4.7,2V625.8z M-5432.1,636.7c0.6,0.7,1.5,1,2.5,1
					c1,0,1.9-0.3,2.5-1c0.6-0.7,1-1.5,1-2.6s-0.3-1.9-1-2.6c-0.6-0.7-1.5-1-2.5-1c-1,0-1.9,0.3-2.5,1c-0.6,0.7-1,1.5-1,2.6
					S-5432.7,636-5432.1,636.7z"/>
				<path class="st3" d="M-5412,628.9c0.3-1.1,0.9-1.9,1.8-2.5c0.9-0.6,2-0.9,3.1-0.9v6.1c-1.3-0.2-2.4,0-3.4,0.7
					c-1,0.7-1.5,1.7-1.5,3.2v6.8h-5.5v-16.5h5.5V628.9z"/>
				<path class="st3" d="M-5393.7,625.8h5.5v16.5h-5.5v-1.5c-1.1,1.3-2.7,2-4.7,2c-2.2,0-4-0.8-5.5-2.5s-2.2-3.7-2.2-6.2
					c0-2.5,0.7-4.6,2.2-6.2c1.5-1.7,3.3-2.5,5.5-2.5c2,0,3.6,0.7,4.7,2V625.8z M-5399.7,636.7c0.6,0.7,1.5,1,2.5,1
					c1,0,1.9-0.3,2.5-1c0.6-0.7,1-1.5,1-2.6s-0.3-1.9-1-2.6c-0.6-0.7-1.5-1-2.5-1c-1,0-1.9,0.3-2.5,1c-0.6,0.7-1,1.5-1,2.6
					S-5400.3,636-5399.7,636.7z"/>
				<path class="st3" d="M-5363.2,624.9h-8.3v3.8h8.1v5.7h-8.1v7.9h-5.9v-23.1h14.2V624.9z"/>
				<path class="st3" d="M-5352.5,642.8c-2.4,0-4.5-0.8-6.2-2.5c-1.7-1.7-2.6-3.7-2.6-6.2s0.9-4.5,2.6-6.2c1.7-1.7,3.8-2.5,6.2-2.5
					c2.5,0,4.5,0.8,6.3,2.5c1.7,1.7,2.6,3.7,2.6,6.2s-0.9,4.5-2.6,6.2C-5347.9,642-5350,642.8-5352.5,642.8z M-5352.5,637.5
					c1,0,1.8-0.3,2.4-1c0.6-0.6,0.9-1.5,0.9-2.5s-0.3-1.8-0.9-2.5c-0.6-0.6-1.4-1-2.4-1c-0.9,0-1.7,0.3-2.4,1
					c-0.6,0.6-0.9,1.5-0.9,2.5s0.3,1.8,0.9,2.5C-5354.2,637.2-5353.4,637.5-5352.5,637.5z"/>
				<path class="st3" d="M-5335.8,628.9c0.3-1.1,0.9-1.9,1.8-2.5c0.9-0.6,2-0.9,3.1-0.9v6.1c-1.3-0.2-2.4,0-3.4,0.7
					c-1,0.7-1.5,1.7-1.5,3.2v6.8h-5.5v-16.5h5.5V628.9z"/>
				<path class="st3" d="M-5306.4,630.4c1.9,1.1,2.9,2.9,2.9,5.2c0,2-0.7,3.7-2.1,4.9c-1.4,1.2-3.3,1.8-5.6,1.8h-9.7v-23.1h9.1
					c2.3,0,4.2,0.6,5.5,1.8c1.4,1.2,2.1,2.8,2.1,4.8C-5304.3,627.7-5305,629.3-5306.4,630.4z M-5312.1,624.5h-3v3.6h3
					c0.5,0,1-0.2,1.3-0.5c0.4-0.3,0.5-0.8,0.5-1.3c0-0.5-0.2-1-0.5-1.3S-5311.5,624.5-5312.1,624.5z M-5311.4,637.1
					c0.6,0,1.1-0.2,1.5-0.5c0.4-0.4,0.6-0.8,0.6-1.4c0-0.6-0.2-1.1-0.6-1.4c-0.4-0.4-0.9-0.5-1.5-0.5h-3.7v3.9H-5311.4z"/>
				<path class="st3" d="M-5295.9,628.9c0.3-1.1,0.9-1.9,1.8-2.5c0.9-0.6,2-0.9,3.1-0.9v6.1c-1.3-0.2-2.4,0-3.4,0.7
					c-1,0.7-1.5,1.7-1.5,3.2v6.8h-5.5v-16.5h5.5V628.9z"/>
				<path class="st3" d="M-5277.7,625.8h5.5v16.5h-5.5v-1.5c-1.1,1.3-2.7,2-4.7,2c-2.2,0-4-0.8-5.5-2.5s-2.2-3.7-2.2-6.2
					c0-2.5,0.7-4.6,2.2-6.2c1.5-1.7,3.3-2.5,5.5-2.5c2,0,3.6,0.7,4.7,2V625.8z M-5283.6,636.7c0.6,0.7,1.5,1,2.5,1
					c1,0,1.9-0.3,2.5-1c0.6-0.7,1-1.5,1-2.6s-0.3-1.9-1-2.6c-0.6-0.7-1.5-1-2.5-1c-1,0-1.9,0.3-2.5,1c-0.6,0.7-1,1.5-1,2.6
					S-5284.3,636-5283.6,636.7z"/>
				<path class="st3" d="M-5258.9,625.4c1.8,0,3.2,0.6,4.4,1.8c1.1,1.2,1.7,3,1.7,5.3v9.9h-5.5v-9.2c0-0.9-0.2-1.5-0.7-1.9
					c-0.5-0.4-1.1-0.7-1.8-0.7c-0.9,0-1.5,0.3-2,0.8c-0.5,0.5-0.7,1.3-0.7,2.2v8.8h-5.5v-16.5h5.5v1.7
					C-5262.5,626.1-5261,625.4-5258.9,625.4z"/>
				<path class="st3" d="M-5238.3,619.2h5.5v23.1h-5.5v-1.5c-1.1,1.3-2.7,2-4.7,2c-2.2,0-4-0.8-5.5-2.5s-2.2-3.7-2.2-6.2
					c0-2.5,0.7-4.6,2.2-6.2c1.5-1.7,3.3-2.5,5.5-2.5c2,0,3.6,0.7,4.7,2V619.2z M-5244.3,636.7c0.6,0.7,1.5,1,2.5,1
					c1,0,1.9-0.3,2.5-1c0.6-0.7,1-1.5,1-2.6s-0.3-1.9-1-2.6c-0.6-0.7-1.5-1-2.5-1c-1,0-1.9,0.3-2.5,1c-0.6,0.7-1,1.5-1,2.6
					S-5244.9,636-5244.3,636.7z"/>
				<path class="st3" d="M-5224.5,630.6c0,0.3,0.3,0.5,0.9,0.7s1.2,0.4,2,0.6c0.8,0.2,1.6,0.5,2.4,0.8c0.8,0.3,1.5,0.8,2.1,1.6
					c0.6,0.8,0.8,1.8,0.8,3c0,1.9-0.7,3.3-2.1,4.2c-1.4,0.9-3.1,1.4-5,1.4c-3.7,0-6.2-1.3-7.4-3.9l4.8-2.4c0.4,1.2,1.3,1.8,2.6,1.8
					c1,0,1.5-0.3,1.5-0.9c0-0.3-0.3-0.6-0.8-0.7c-0.6-0.2-1.2-0.4-2-0.7s-1.5-0.5-2.4-0.8c-0.8-0.3-1.5-0.8-2-1.5
					c-0.5-0.7-0.8-1.6-0.8-2.7c0-1.8,0.7-3.1,2-4.1s2.9-1.5,4.7-1.5c3.3,0,5.5,1.3,6.8,3.8l-4.6,2.1c-0.5-0.9-1.2-1.4-2-1.4
					C-5224.1,629.9-5224.5,630.1-5224.5,630.6z"/>
			</g>
			<g class="st2">
				<path class="st3" d="M-5454.3,714.7l-3.2-15.1h2l1.6,8.2c0.1,0.8,0.3,1.6,0.4,2.4c0.2,0.8,0.3,1.6,0.4,2.4h0.1
					c0.2-0.8,0.3-1.6,0.5-2.4c0.2-0.8,0.4-1.6,0.5-2.4l2.1-8.2h1.7l2.1,8.2c0.2,0.8,0.4,1.6,0.6,2.4s0.4,1.6,0.6,2.5h0.1
					c0.1-0.8,0.3-1.6,0.4-2.4c0.1-0.8,0.3-1.6,0.4-2.4l1.6-8.2h1.8l-3.1,15.1h-2.3l-2.3-9.1c-0.1-0.6-0.3-1.2-0.4-1.7
					c-0.1-0.6-0.2-1.1-0.4-1.7h-0.1c-0.1,0.6-0.2,1.2-0.4,1.7c-0.1,0.6-0.3,1.1-0.4,1.7l-2.2,9.1H-5454.3z"/>
				<path class="st3" d="M-5438,714.7v-16.4h1.9v4.5l-0.1,2.3c0.5-0.5,1.1-0.9,1.7-1.3s1.3-0.5,2-0.5c1.2,0,2,0.4,2.6,1.1
					c0.5,0.7,0.8,1.8,0.8,3.3v7.1h-1.9v-6.8c0-1.1-0.2-1.8-0.5-2.3s-0.9-0.7-1.6-0.7c-0.6,0-1.1,0.1-1.5,0.4c-0.4,0.3-1,0.7-1.5,1.3
					v8.1H-5438z"/>
				<path class="st3" d="M-5425.3,719.5c-0.3,0-0.5,0-0.7-0.1s-0.4-0.1-0.6-0.2l0.4-1.5c0.1,0,0.3,0.1,0.4,0.1s0.3,0.1,0.4,0.1
					c0.6,0,1.2-0.2,1.6-0.7c0.4-0.5,0.7-1,1-1.7l0.3-0.8l-4.5-11.2h2l2.3,6.2c0.2,0.5,0.3,1,0.5,1.6s0.4,1.1,0.5,1.6h0.1
					c0.2-0.5,0.3-1,0.5-1.6c0.2-0.6,0.3-1.1,0.5-1.6l2-6.2h1.8l-4.2,12.1c-0.2,0.6-0.4,1.1-0.7,1.5s-0.5,0.9-0.9,1.2
					s-0.7,0.6-1.1,0.8S-5424.8,719.5-5425.3,719.5z"/>
				<path class="st3" d="M-5405.2,715c-0.5,0-1.1-0.1-1.6-0.4c-0.6-0.3-1.1-0.6-1.6-1h-0.1l-0.2,1.2h-1.5v-16.4h1.9v4.5l0,2
					c0.5-0.4,1.1-0.8,1.7-1.1c0.6-0.3,1.2-0.4,1.8-0.4c0.7,0,1.4,0.1,1.9,0.4c0.6,0.3,1,0.7,1.4,1.2c0.4,0.5,0.7,1.1,0.9,1.8
					c0.2,0.7,0.3,1.5,0.3,2.3c0,1-0.1,1.8-0.4,2.6s-0.6,1.4-1.1,1.9s-1,0.9-1.5,1.2C-5404,714.8-5404.6,715-5405.2,715z
					 M-5405.6,713.4c0.5,0,0.9-0.1,1.3-0.3c0.4-0.2,0.7-0.5,1-0.9s0.5-0.8,0.7-1.4c0.2-0.6,0.2-1.2,0.2-1.9c0-0.6-0.1-1.2-0.2-1.7
					c-0.1-0.5-0.3-0.9-0.5-1.3s-0.5-0.6-0.9-0.8c-0.4-0.2-0.8-0.3-1.3-0.3c-0.9,0-1.9,0.5-3,1.5v5.9c0.5,0.4,1,0.7,1.5,0.9
					C-5406.4,713.3-5405.9,713.4-5405.6,713.4z"/>
				<path class="st3" d="M-5392.9,715c-0.8,0-1.5-0.1-2.1-0.4c-0.7-0.3-1.2-0.7-1.7-1.1s-0.9-1.1-1.1-1.8c-0.3-0.7-0.4-1.5-0.4-2.5
					s0.1-1.7,0.4-2.5s0.7-1.3,1.1-1.9c0.5-0.5,1-0.9,1.6-1.2c0.6-0.3,1.2-0.4,1.9-0.4c0.7,0,1.3,0.1,1.9,0.4c0.6,0.2,1,0.6,1.4,1.1
					c0.4,0.5,0.7,1,0.9,1.7c0.2,0.6,0.3,1.4,0.3,2.2c0,0.2,0,0.4,0,0.6c0,0.2,0,0.4-0.1,0.5h-7.5c0.1,1.2,0.4,2.1,1.1,2.8
					c0.7,0.7,1.5,1,2.6,1c0.5,0,1-0.1,1.5-0.2s0.9-0.4,1.3-0.6l0.7,1.2c-0.5,0.3-1,0.6-1.6,0.8C-5391.5,714.9-5392.2,715-5392.9,715
					z M-5396.5,708.2h6c0-1.1-0.2-2-0.7-2.6c-0.5-0.6-1.2-0.9-2-0.9c-0.4,0-0.8,0.1-1.1,0.2c-0.4,0.2-0.7,0.4-1,0.7
					c-0.3,0.3-0.5,0.7-0.7,1.1C-5396.3,707.2-5396.4,707.7-5396.5,708.2z"/>
				<path class="st3" d="M-5378.9,715c-0.9,0-1.7-0.3-2.3-0.8s-0.9-1.3-0.9-2.3c0-1.2,0.5-2.2,1.6-2.8c1.1-0.7,2.8-1.1,5.2-1.4
					c0-0.4,0-0.7-0.1-1c-0.1-0.3-0.2-0.6-0.4-0.9s-0.4-0.5-0.7-0.6c-0.3-0.2-0.7-0.2-1.1-0.2c-0.6,0-1.3,0.1-1.8,0.4
					c-0.6,0.2-1.1,0.5-1.5,0.8l-0.7-1.3c0.5-0.3,1.2-0.7,1.9-1c0.8-0.3,1.6-0.5,2.5-0.5c1.4,0,2.4,0.4,3,1.3c0.6,0.8,0.9,2,0.9,3.3
					v6.9h-1.6l-0.2-1.3h-0.1c-0.5,0.4-1.1,0.8-1.7,1.1C-5377.5,714.8-5378.2,715-5378.9,715z M-5378.3,713.5c0.5,0,1-0.1,1.5-0.4
					c0.5-0.3,1-0.6,1.5-1.1v-3.1c-0.9,0.1-1.7,0.3-2.4,0.4c-0.6,0.2-1.1,0.4-1.5,0.6c-0.4,0.2-0.7,0.5-0.9,0.8s-0.3,0.6-0.3,1
					c0,0.6,0.2,1.1,0.6,1.4C-5379.3,713.3-5378.9,713.5-5378.3,713.5z"/>
				<path class="st3" d="M-5365.3,714.7v-11.2h1.6l0.2,2h0.1c0.4-0.7,0.8-1.3,1.4-1.7s1.1-0.6,1.8-0.6c0.4,0,0.8,0.1,1.2,0.2
					l-0.4,1.7c-0.2-0.1-0.4-0.1-0.5-0.1c-0.2,0-0.3,0-0.6,0c-0.5,0-1,0.2-1.5,0.6c-0.5,0.4-1,1-1.3,2v7.2H-5365.3z"/>
				<path class="st3" d="M-5353,715c-0.8,0-1.5-0.1-2.1-0.4c-0.7-0.3-1.2-0.7-1.7-1.1s-0.9-1.1-1.1-1.8c-0.3-0.7-0.4-1.5-0.4-2.5
					s0.1-1.7,0.4-2.5s0.7-1.3,1.1-1.9c0.5-0.5,1-0.9,1.6-1.2c0.6-0.3,1.2-0.4,1.9-0.4c0.7,0,1.3,0.1,1.9,0.4c0.6,0.2,1,0.6,1.4,1.1
					c0.4,0.5,0.7,1,0.9,1.7c0.2,0.6,0.3,1.4,0.3,2.2c0,0.2,0,0.4,0,0.6c0,0.2,0,0.4-0.1,0.5h-7.5c0.1,1.2,0.4,2.1,1.1,2.8
					c0.7,0.7,1.5,1,2.6,1c0.5,0,1-0.1,1.5-0.2s0.9-0.4,1.3-0.6l0.7,1.2c-0.5,0.3-1,0.6-1.6,0.8C-5351.5,714.9-5352.2,715-5353,715z
					 M-5356.5,708.2h6c0-1.1-0.2-2-0.7-2.6c-0.5-0.6-1.2-0.9-2-0.9c-0.4,0-0.8,0.1-1.1,0.2c-0.4,0.2-0.7,0.4-1,0.7
					c-0.3,0.3-0.5,0.7-0.7,1.1C-5356.3,707.2-5356.4,707.7-5356.5,708.2z"/>
				<path class="st3" d="M-5342.6,719.9c-0.7,0-1.3-0.1-1.9-0.2c-0.6-0.1-1.1-0.3-1.5-0.6s-0.7-0.6-0.9-0.9
					c-0.2-0.4-0.3-0.8-0.3-1.3c0-0.5,0.1-0.9,0.4-1.4c0.3-0.4,0.7-0.8,1.2-1.2v-0.1c-0.3-0.2-0.5-0.4-0.7-0.7s-0.3-0.7-0.3-1.1
					c0-0.5,0.1-0.9,0.4-1.2s0.5-0.6,0.8-0.8v-0.1c-0.4-0.3-0.7-0.7-1-1.2s-0.4-1.1-0.4-1.8c0-0.6,0.1-1.2,0.3-1.7
					c0.2-0.5,0.5-0.9,0.9-1.3c0.4-0.3,0.8-0.6,1.3-0.8c0.5-0.2,1.1-0.3,1.6-0.3c0.3,0,0.6,0,0.9,0.1c0.3,0.1,0.5,0.1,0.7,0.2h3.9
					v1.4h-2.3c0.3,0.3,0.5,0.6,0.7,1c0.2,0.4,0.3,0.8,0.3,1.3c0,0.6-0.1,1.1-0.3,1.6c-0.2,0.5-0.5,0.9-0.9,1.2
					c-0.4,0.3-0.8,0.6-1.3,0.8c-0.5,0.2-1,0.3-1.6,0.3c-0.3,0-0.6,0-0.9-0.1c-0.3-0.1-0.6-0.2-0.8-0.3c-0.2,0.2-0.4,0.4-0.5,0.6
					c-0.1,0.2-0.2,0.5-0.2,0.8c0,0.4,0.1,0.6,0.4,0.9c0.3,0.2,0.8,0.3,1.6,0.3h2.2c1.3,0,2.3,0.2,2.9,0.6s1,1.1,1,2
					c0,0.5-0.1,1-0.4,1.5s-0.6,0.9-1.1,1.2s-1.1,0.6-1.8,0.8C-5340.9,719.8-5341.7,719.9-5342.6,719.9z M-5342.3,718.5
					c0.5,0,1-0.1,1.5-0.2c0.4-0.1,0.8-0.3,1.1-0.5s0.5-0.4,0.7-0.7c0.2-0.3,0.3-0.6,0.3-0.9c0-0.5-0.2-0.9-0.6-1.1
					c-0.4-0.2-0.9-0.3-1.7-0.3h-1.9c-0.2,0-0.4,0-0.7,0c-0.3,0-0.5-0.1-0.7-0.1c-0.4,0.3-0.7,0.6-0.9,0.9c-0.2,0.3-0.3,0.6-0.3,1
					c0,0.6,0.3,1.1,0.9,1.4C-5344.1,718.4-5343.3,718.5-5342.3,718.5z M-5342.6,709.9c0.3,0,0.6-0.1,0.9-0.2
					c0.3-0.1,0.5-0.3,0.8-0.5c0.2-0.2,0.4-0.5,0.5-0.8s0.2-0.7,0.2-1.1c0-0.8-0.2-1.5-0.7-1.9s-1-0.7-1.7-0.7
					c-0.7,0-1.2,0.2-1.7,0.7s-0.7,1.1-0.7,1.9c0,0.4,0.1,0.8,0.2,1.1c0.1,0.3,0.3,0.6,0.5,0.8c0.2,0.2,0.5,0.4,0.8,0.5
					C-5343.2,709.8-5342.9,709.9-5342.6,709.9z"/>
				<path class="st3" d="M-5331.5,715c-1.2,0-2.1-0.4-2.6-1.1c-0.5-0.7-0.8-1.8-0.8-3.3v-7.1h1.9v6.8c0,1.1,0.2,1.8,0.5,2.3
					s0.9,0.7,1.6,0.7c0.6,0,1.1-0.1,1.5-0.4c0.4-0.3,0.9-0.8,1.5-1.4v-7.9h1.9v11.2h-1.6l-0.2-1.7h-0.1c-0.5,0.6-1.1,1.1-1.6,1.5
					C-5330,714.8-5330.7,715-5331.5,715z"/>
				<path class="st3" d="M-5320.2,715c-0.7,0-1.2-0.2-1.5-0.6c-0.3-0.4-0.5-1.1-0.5-1.9v-14.1h1.9v14.3c0,0.3,0.1,0.5,0.2,0.6
					c0.1,0.1,0.2,0.2,0.4,0.2c0.1,0,0.1,0,0.2,0c0.1,0,0.1,0,0.2,0l0.3,1.4c-0.1,0.1-0.3,0.1-0.4,0.1
					C-5319.8,715-5320,715-5320.2,715z"/>
				<path class="st3" d="M-5313.8,715c-0.9,0-1.7-0.3-2.3-0.8s-0.9-1.3-0.9-2.3c0-1.2,0.5-2.2,1.6-2.8c1.1-0.7,2.8-1.1,5.2-1.4
					c0-0.4,0-0.7-0.1-1c-0.1-0.3-0.2-0.6-0.4-0.9s-0.4-0.5-0.7-0.6c-0.3-0.2-0.7-0.2-1.1-0.2c-0.6,0-1.3,0.1-1.8,0.4
					c-0.6,0.2-1.1,0.5-1.5,0.8l-0.7-1.3c0.5-0.3,1.2-0.7,1.9-1c0.8-0.3,1.6-0.5,2.5-0.5c1.4,0,2.4,0.4,3,1.3c0.6,0.8,0.9,2,0.9,3.3
					v6.9h-1.6l-0.2-1.3h-0.1c-0.5,0.4-1.1,0.8-1.7,1.1C-5312.4,714.8-5313.1,715-5313.8,715z M-5313.2,713.5c0.5,0,1-0.1,1.5-0.4
					c0.5-0.3,1-0.6,1.5-1.1v-3.1c-0.9,0.1-1.7,0.3-2.4,0.4c-0.6,0.2-1.1,0.4-1.5,0.6c-0.4,0.2-0.7,0.5-0.9,0.8s-0.3,0.6-0.3,1
					c0,0.6,0.2,1.1,0.6,1.4C-5314.3,713.3-5313.8,713.5-5313.2,713.5z"/>
				<path class="st3" d="M-5304.8,714.7v-11.2h1.6l0.2,2h0.1c0.4-0.7,0.8-1.3,1.4-1.7s1.1-0.6,1.8-0.6c0.4,0,0.8,0.1,1.2,0.2
					l-0.4,1.7c-0.2-0.1-0.4-0.1-0.5-0.1c-0.2,0-0.3,0-0.6,0c-0.5,0-1,0.2-1.5,0.6c-0.5,0.4-1,1-1.3,2v7.2H-5304.8z"/>
				<path class="st3" d="M-5287.3,715c-0.5,0-1.1-0.1-1.6-0.4c-0.6-0.3-1.1-0.6-1.6-1h-0.1l-0.2,1.2h-1.5v-16.4h1.9v4.5l0,2
					c0.5-0.4,1.1-0.8,1.7-1.1c0.6-0.3,1.2-0.4,1.8-0.4c0.7,0,1.4,0.1,1.9,0.4c0.6,0.3,1,0.7,1.4,1.2c0.4,0.5,0.7,1.1,0.9,1.8
					c0.2,0.7,0.3,1.5,0.3,2.3c0,1-0.1,1.8-0.4,2.6s-0.6,1.4-1.1,1.9s-1,0.9-1.5,1.2C-5286,714.8-5286.6,715-5287.3,715z
					 M-5287.6,713.4c0.5,0,0.9-0.1,1.3-0.3c0.4-0.2,0.7-0.5,1-0.9s0.5-0.8,0.7-1.4c0.2-0.6,0.2-1.2,0.2-1.9c0-0.6-0.1-1.2-0.2-1.7
					c-0.1-0.5-0.3-0.9-0.5-1.3s-0.5-0.6-0.9-0.8c-0.4-0.2-0.8-0.3-1.3-0.3c-0.9,0-1.9,0.5-3,1.5v5.9c0.5,0.4,1,0.7,1.5,0.9
					C-5288.4,713.3-5287.9,713.4-5287.6,713.4z"/>
				<path class="st3" d="M-5276.2,715c-1.2,0-2.1-0.4-2.6-1.1c-0.5-0.7-0.8-1.8-0.8-3.3v-7.1h1.9v6.8c0,1.1,0.2,1.8,0.5,2.3
					s0.9,0.7,1.6,0.7c0.6,0,1.1-0.1,1.5-0.4c0.4-0.3,0.9-0.8,1.5-1.4v-7.9h1.9v11.2h-1.6l-0.2-1.7h-0.1c-0.5,0.6-1.1,1.1-1.6,1.5
					C-5274.8,714.8-5275.4,715-5276.2,715z"/>
				<path class="st3" d="M-5264,715c-0.8,0-1.6-0.1-2.3-0.4s-1.3-0.7-1.9-1.1l0.9-1.3c0.5,0.4,1,0.7,1.5,1c0.5,0.2,1.1,0.4,1.8,0.4
					c0.7,0,1.3-0.2,1.7-0.5c0.4-0.3,0.6-0.8,0.6-1.2c0-0.3-0.1-0.5-0.2-0.8c-0.2-0.2-0.3-0.4-0.6-0.6s-0.5-0.3-0.8-0.4
					c-0.3-0.1-0.6-0.2-0.9-0.4c-0.4-0.1-0.8-0.3-1.2-0.5c-0.4-0.2-0.8-0.4-1.1-0.6c-0.3-0.3-0.6-0.5-0.8-0.9
					c-0.2-0.3-0.3-0.7-0.3-1.2c0-0.4,0.1-0.9,0.3-1.3c0.2-0.4,0.4-0.7,0.8-1c0.3-0.3,0.7-0.5,1.2-0.7c0.5-0.2,1-0.2,1.6-0.2
					c0.7,0,1.4,0.1,1.9,0.4s1.1,0.5,1.5,0.9l-0.9,1.2c-0.4-0.3-0.8-0.5-1.2-0.7s-0.9-0.3-1.4-0.3c-0.7,0-1.2,0.2-1.6,0.5
					s-0.5,0.7-0.5,1.1c0,0.3,0.1,0.5,0.2,0.7c0.1,0.2,0.3,0.4,0.6,0.5s0.5,0.3,0.8,0.4c0.3,0.1,0.6,0.2,0.9,0.4
					c0.4,0.2,0.8,0.3,1.2,0.5s0.8,0.4,1.1,0.6c0.3,0.3,0.6,0.6,0.8,0.9c0.2,0.4,0.3,0.8,0.3,1.3c0,0.5-0.1,0.9-0.3,1.3
					c-0.2,0.4-0.4,0.8-0.8,1.1s-0.8,0.5-1.3,0.7C-5262.8,714.9-5263.4,715-5264,715z"/>
				<path class="st3" d="M-5256.4,701.2c-0.4,0-0.7-0.1-0.9-0.3c-0.3-0.2-0.4-0.5-0.4-0.9c0-0.4,0.1-0.7,0.4-0.9
					c0.3-0.2,0.6-0.3,0.9-0.3c0.4,0,0.7,0.1,0.9,0.3c0.3,0.2,0.4,0.5,0.4,0.9c0,0.4-0.1,0.6-0.4,0.9
					C-5255.7,701.1-5256,701.2-5256.4,701.2z M-5257.3,714.7v-11.2h1.9v11.2H-5257.3z"/>
				<path class="st3" d="M-5251.7,714.7v-11.2h1.6l0.2,1.6h0.1c0.5-0.5,1.1-1,1.7-1.3s1.3-0.5,2.1-0.5c1.2,0,2,0.4,2.6,1.1
					c0.5,0.7,0.8,1.8,0.8,3.3v7.1h-1.9v-6.8c0-1.1-0.2-1.8-0.5-2.3s-0.9-0.7-1.6-0.7c-0.6,0-1.1,0.1-1.5,0.4c-0.4,0.3-1,0.7-1.5,1.3
					v8.1H-5251.7z"/>
				<path class="st3" d="M-5234.6,715c-0.8,0-1.5-0.1-2.1-0.4c-0.7-0.3-1.2-0.7-1.7-1.1s-0.9-1.1-1.1-1.8c-0.3-0.7-0.4-1.5-0.4-2.5
					s0.1-1.7,0.4-2.5s0.7-1.3,1.1-1.9c0.5-0.5,1-0.9,1.6-1.2c0.6-0.3,1.2-0.4,1.9-0.4c0.7,0,1.3,0.1,1.9,0.4c0.6,0.2,1,0.6,1.4,1.1
					c0.4,0.5,0.7,1,0.9,1.7c0.2,0.6,0.3,1.4,0.3,2.2c0,0.2,0,0.4,0,0.6c0,0.2,0,0.4-0.1,0.5h-7.5c0.1,1.2,0.4,2.1,1.1,2.8
					c0.7,0.7,1.5,1,2.6,1c0.5,0,1-0.1,1.5-0.2c0.5-0.2,0.9-0.4,1.3-0.6l0.7,1.2c-0.5,0.3-1,0.6-1.6,0.8
					C-5233.1,714.9-5233.8,715-5234.6,715z M-5238.1,708.2h6c0-1.1-0.2-2-0.7-2.6c-0.5-0.6-1.2-0.9-2-0.9c-0.4,0-0.8,0.1-1.1,0.2
					c-0.4,0.2-0.7,0.4-1,0.7c-0.3,0.3-0.5,0.7-0.7,1.1C-5237.9,707.2-5238,707.7-5238.1,708.2z"/>
				<path class="st3" d="M-5224.8,715c-0.8,0-1.6-0.1-2.3-0.4s-1.3-0.7-1.9-1.1l0.9-1.3c0.5,0.4,1,0.7,1.5,1
					c0.5,0.2,1.1,0.4,1.8,0.4c0.7,0,1.3-0.2,1.7-0.5c0.4-0.3,0.6-0.8,0.6-1.2c0-0.3-0.1-0.5-0.2-0.8s-0.3-0.4-0.6-0.6
					c-0.2-0.2-0.5-0.3-0.8-0.4c-0.3-0.1-0.6-0.2-0.9-0.4c-0.4-0.1-0.8-0.3-1.2-0.5c-0.4-0.2-0.8-0.4-1.1-0.6s-0.6-0.5-0.8-0.9
					c-0.2-0.3-0.3-0.7-0.3-1.2c0-0.4,0.1-0.9,0.3-1.3c0.2-0.4,0.4-0.7,0.8-1c0.3-0.3,0.7-0.5,1.2-0.7c0.5-0.2,1-0.2,1.6-0.2
					c0.7,0,1.4,0.1,1.9,0.4c0.6,0.2,1.1,0.5,1.5,0.9l-0.9,1.2c-0.4-0.3-0.8-0.5-1.2-0.7s-0.9-0.3-1.4-0.3c-0.7,0-1.2,0.2-1.6,0.5
					s-0.5,0.7-0.5,1.1c0,0.3,0.1,0.5,0.2,0.7c0.1,0.2,0.3,0.4,0.6,0.5s0.5,0.3,0.8,0.4c0.3,0.1,0.6,0.2,0.9,0.4
					c0.4,0.2,0.8,0.3,1.2,0.5s0.8,0.4,1.1,0.6c0.3,0.3,0.6,0.6,0.8,0.9c0.2,0.4,0.3,0.8,0.3,1.3c0,0.5-0.1,0.9-0.3,1.3
					c-0.2,0.4-0.4,0.8-0.8,1.1c-0.3,0.3-0.8,0.5-1.3,0.7C-5223.5,714.9-5224.1,715-5224.8,715z"/>
				<path class="st3" d="M-5215.1,715c-0.8,0-1.6-0.1-2.3-0.4s-1.3-0.7-1.9-1.1l0.9-1.3c0.5,0.4,1,0.7,1.5,1
					c0.5,0.2,1.1,0.4,1.8,0.4c0.7,0,1.3-0.2,1.7-0.5c0.4-0.3,0.6-0.8,0.6-1.2c0-0.3-0.1-0.5-0.2-0.8c-0.2-0.2-0.3-0.4-0.6-0.6
					s-0.5-0.3-0.8-0.4c-0.3-0.1-0.6-0.2-0.9-0.4c-0.4-0.1-0.8-0.3-1.2-0.5c-0.4-0.2-0.8-0.4-1.1-0.6c-0.3-0.3-0.6-0.5-0.8-0.9
					c-0.2-0.3-0.3-0.7-0.3-1.2c0-0.4,0.1-0.9,0.3-1.3c0.2-0.4,0.4-0.7,0.8-1c0.3-0.3,0.7-0.5,1.2-0.7c0.5-0.2,1-0.2,1.6-0.2
					c0.7,0,1.4,0.1,1.9,0.4s1.1,0.5,1.5,0.9l-0.9,1.2c-0.4-0.3-0.8-0.5-1.2-0.7s-0.9-0.3-1.4-0.3c-0.7,0-1.2,0.2-1.6,0.5
					c-0.3,0.3-0.5,0.7-0.5,1.1c0,0.3,0.1,0.5,0.2,0.7c0.1,0.2,0.3,0.4,0.6,0.5c0.2,0.1,0.5,0.3,0.8,0.4c0.3,0.1,0.6,0.2,0.9,0.4
					c0.4,0.2,0.8,0.3,1.2,0.5s0.8,0.4,1.1,0.6c0.3,0.3,0.6,0.6,0.8,0.9c0.2,0.4,0.3,0.8,0.3,1.3c0,0.5-0.1,0.9-0.3,1.3
					c-0.2,0.4-0.4,0.8-0.8,1.1s-0.8,0.5-1.3,0.7C-5213.9,714.9-5214.5,715-5215.1,715z"/>
				<path class="st3" d="M-5208.8,718.6l-0.5-1.1c0.7-0.3,1.2-0.7,1.5-1.2s0.5-1,0.5-1.6c0,0-0.1,0-0.2,0c-0.4,0-0.7-0.1-1-0.3
					c-0.3-0.2-0.4-0.5-0.4-1c0-0.4,0.1-0.7,0.4-1c0.3-0.2,0.6-0.4,1-0.4c0.5,0,0.9,0.2,1.2,0.6c0.3,0.4,0.4,0.9,0.4,1.6
					c0,1-0.3,1.9-0.8,2.6S-5207.8,718.2-5208.8,718.6z"/>
				<path class="st3" d="M-5196.3,714.7l-3.1-11.2h1.9l1.7,6.5c0.1,0.5,0.2,1.1,0.3,1.6c0.1,0.5,0.2,1,0.3,1.5h0.1
					c0.1-0.5,0.2-1,0.4-1.6c0.1-0.5,0.3-1,0.4-1.6l1.7-6.5h1.8l1.7,6.5c0.1,0.5,0.3,1.1,0.4,1.6c0.1,0.5,0.3,1,0.4,1.5h0.1
					c0.1-0.5,0.2-1,0.3-1.5c0.1-0.5,0.2-1,0.3-1.6l1.6-6.5h1.8l-3,11.2h-2.3l-1.6-6c-0.1-0.5-0.3-1.1-0.4-1.6s-0.2-1.1-0.4-1.6h-0.1
					c-0.1,0.6-0.2,1.1-0.4,1.6c-0.1,0.5-0.3,1.1-0.4,1.6l-1.6,6H-5196.3z"/>
				<path class="st3" d="M-5181.6,714.7v-16.4h1.9v4.5l-0.1,2.3c0.5-0.5,1.1-0.9,1.7-1.3c0.6-0.4,1.3-0.5,2-0.5c1.2,0,2,0.4,2.6,1.1
					c0.5,0.7,0.8,1.8,0.8,3.3v7.1h-1.9v-6.8c0-1.1-0.2-1.8-0.5-2.3s-0.9-0.7-1.6-0.7c-0.6,0-1.1,0.1-1.5,0.4c-0.4,0.3-1,0.7-1.5,1.3
					v8.1H-5181.6z"/>
				<path class="st3" d="M-5164.5,715c-0.8,0-1.5-0.1-2.1-0.4c-0.7-0.3-1.2-0.7-1.7-1.1c-0.5-0.5-0.9-1.1-1.1-1.8
					c-0.3-0.7-0.4-1.5-0.4-2.5s0.1-1.7,0.4-2.5c0.3-0.7,0.7-1.3,1.1-1.9c0.5-0.5,1-0.9,1.6-1.2c0.6-0.3,1.2-0.4,1.9-0.4
					c0.7,0,1.3,0.1,1.9,0.4s1,0.6,1.4,1.1s0.7,1,0.9,1.7c0.2,0.6,0.3,1.4,0.3,2.2c0,0.2,0,0.4,0,0.6c0,0.2,0,0.4-0.1,0.5h-7.5
					c0.1,1.2,0.4,2.1,1.1,2.8c0.7,0.7,1.5,1,2.6,1c0.5,0,1-0.1,1.5-0.2s0.9-0.4,1.3-0.6l0.7,1.2c-0.5,0.3-1,0.6-1.6,0.8
					C-5163.1,714.9-5163.8,715-5164.5,715z M-5168,708.2h6c0-1.1-0.2-2-0.7-2.6c-0.5-0.6-1.2-0.9-2-0.9c-0.4,0-0.8,0.1-1.1,0.2
					c-0.4,0.2-0.7,0.4-1,0.7c-0.3,0.3-0.5,0.7-0.7,1.1C-5167.9,707.2-5168,707.7-5168,708.2z"/>
				<path class="st3" d="M-5157.6,714.7v-11.2h1.6l0.2,1.6h0.1c0.5-0.5,1.1-1,1.7-1.3c0.6-0.4,1.3-0.5,2.1-0.5c1.2,0,2,0.4,2.6,1.1
					c0.5,0.7,0.8,1.8,0.8,3.3v7.1h-1.9v-6.8c0-1.1-0.2-1.8-0.5-2.3c-0.3-0.5-0.9-0.7-1.6-0.7c-0.6,0-1.1,0.1-1.5,0.4
					c-0.4,0.3-1,0.7-1.5,1.3v8.1H-5157.6z"/>
				<path class="st3" d="M-5140.3,719.5c-0.3,0-0.5,0-0.7-0.1c-0.2,0-0.4-0.1-0.6-0.2l0.4-1.5c0.1,0,0.3,0.1,0.4,0.1
					s0.3,0.1,0.4,0.1c0.6,0,1.2-0.2,1.6-0.7s0.7-1,1-1.7l0.3-0.8l-4.5-11.2h2l2.3,6.2c0.2,0.5,0.3,1,0.5,1.6
					c0.2,0.5,0.4,1.1,0.5,1.6h0.1c0.2-0.5,0.3-1,0.5-1.6s0.3-1.1,0.5-1.6l2-6.2h1.8l-4.2,12.1c-0.2,0.6-0.4,1.1-0.7,1.5
					s-0.5,0.9-0.9,1.2s-0.7,0.6-1.1,0.8C-5139.2,719.4-5139.7,719.5-5140.3,719.5z"/>
				<path class="st3" d="M-5125.5,715c-0.7,0-1.3-0.1-2-0.4s-1.2-0.6-1.6-1.1c-0.5-0.5-0.9-1.1-1.1-1.8c-0.3-0.7-0.4-1.6-0.4-2.5
					c0-0.9,0.1-1.8,0.4-2.5c0.3-0.7,0.7-1.3,1.1-1.9c0.5-0.5,1-0.9,1.6-1.2c0.6-0.3,1.3-0.4,2-0.4c0.7,0,1.3,0.1,2,0.4
					c0.6,0.3,1.2,0.6,1.6,1.2s0.9,1.1,1.1,1.9c0.3,0.7,0.4,1.6,0.4,2.5c0,0.9-0.1,1.7-0.4,2.5c-0.3,0.7-0.7,1.3-1.1,1.8
					c-0.5,0.5-1,0.9-1.6,1.1S-5124.8,715-5125.5,715z M-5125.5,713.4c0.5,0,0.9-0.1,1.3-0.3s0.7-0.5,1-0.9c0.3-0.4,0.5-0.8,0.7-1.3
					c0.2-0.5,0.2-1.1,0.2-1.7c0-0.6-0.1-1.2-0.2-1.8c-0.2-0.5-0.4-1-0.7-1.4c-0.3-0.4-0.6-0.7-1-0.9s-0.8-0.3-1.3-0.3
					c-0.5,0-0.9,0.1-1.3,0.3s-0.7,0.5-1,0.9c-0.3,0.4-0.5,0.8-0.7,1.4c-0.2,0.5-0.2,1.1-0.2,1.8c0,0.6,0.1,1.2,0.2,1.7
					c0.2,0.5,0.4,1,0.7,1.3c0.3,0.4,0.6,0.7,1,0.9S-5125.9,713.4-5125.5,713.4z"/>
				<path class="st3" d="M-5114.1,715c-1.2,0-2.1-0.4-2.6-1.1c-0.5-0.7-0.8-1.8-0.8-3.3v-7.1h1.9v6.8c0,1.1,0.2,1.8,0.5,2.3
					c0.3,0.5,0.9,0.7,1.6,0.7c0.6,0,1.1-0.1,1.5-0.4c0.4-0.3,0.9-0.8,1.5-1.4v-7.9h1.9v11.2h-1.6l-0.2-1.7h-0.1
					c-0.5,0.6-1.1,1.1-1.6,1.5C-5112.6,714.8-5113.3,715-5114.1,715z"/>
				<path class="st3" d="M-5095.8,715c-0.7,0-1.4-0.1-2.1-0.4c-0.6-0.3-1.2-0.6-1.7-1.1c-0.5-0.5-0.8-1.1-1.1-1.8
					c-0.3-0.7-0.4-1.6-0.4-2.5c0-0.9,0.1-1.8,0.4-2.5c0.3-0.7,0.7-1.3,1.2-1.9c0.5-0.5,1.1-0.9,1.7-1.2c0.7-0.3,1.3-0.4,2.1-0.4
					c0.7,0,1.4,0.1,1.9,0.4c0.5,0.3,1,0.6,1.4,0.9l-1,1.2c-0.3-0.3-0.7-0.5-1-0.7c-0.4-0.2-0.8-0.3-1.2-0.3c-0.5,0-1,0.1-1.4,0.3
					c-0.4,0.2-0.8,0.5-1.1,0.9c-0.3,0.4-0.5,0.8-0.7,1.4c-0.2,0.5-0.3,1.1-0.3,1.8c0,0.6,0.1,1.2,0.3,1.7c0.2,0.5,0.4,1,0.7,1.3
					c0.3,0.4,0.7,0.7,1.1,0.9c0.4,0.2,0.9,0.3,1.4,0.3c0.5,0,1-0.1,1.4-0.3c0.4-0.2,0.8-0.5,1.2-0.8l0.8,1.3c-0.5,0.4-1.1,0.8-1.7,1
					C-5094.5,714.9-5095.2,715-5095.8,715z"/>
				<path class="st3" d="M-5087.4,715c-0.9,0-1.7-0.3-2.3-0.8c-0.6-0.6-0.9-1.3-0.9-2.3c0-1.2,0.5-2.2,1.6-2.8
					c1.1-0.7,2.8-1.1,5.2-1.4c0-0.4,0-0.7-0.1-1c-0.1-0.3-0.2-0.6-0.4-0.9s-0.4-0.5-0.7-0.6s-0.7-0.2-1.1-0.2
					c-0.6,0-1.3,0.1-1.8,0.4c-0.6,0.2-1.1,0.5-1.5,0.8l-0.7-1.3c0.5-0.3,1.2-0.7,1.9-1s1.6-0.5,2.5-0.5c1.4,0,2.4,0.4,3,1.3
					s0.9,2,0.9,3.3v6.9h-1.6l-0.2-1.3h-0.1c-0.5,0.4-1.1,0.8-1.7,1.1C-5086,714.8-5086.7,715-5087.4,715z M-5086.9,713.5
					c0.5,0,1-0.1,1.5-0.4c0.5-0.3,1-0.6,1.5-1.1v-3.1c-0.9,0.1-1.7,0.3-2.4,0.4c-0.6,0.2-1.1,0.4-1.5,0.6c-0.4,0.2-0.7,0.5-0.9,0.8
					c-0.2,0.3-0.3,0.6-0.3,1c0,0.6,0.2,1.1,0.6,1.4C-5087.9,713.3-5087.4,713.5-5086.9,713.5z"/>
				<path class="st3" d="M-5078.4,714.7v-11.2h1.6l0.2,1.6h0.1c0.5-0.5,1.1-1,1.7-1.3c0.6-0.4,1.3-0.5,2.1-0.5c1.2,0,2,0.4,2.6,1.1
					c0.5,0.7,0.8,1.8,0.8,3.3v7.1h-1.9v-6.8c0-1.1-0.2-1.8-0.5-2.3c-0.3-0.5-0.9-0.7-1.6-0.7c-0.6,0-1.1,0.1-1.5,0.4
					c-0.4,0.3-1,0.7-1.5,1.3v8.1H-5078.4z"/>
			</g>
			<g class="st2">
				<path class="st3" d="M-5451.2,752c-0.5,0-1.1-0.1-1.6-0.4c-0.6-0.3-1.1-0.6-1.6-1h-0.1l-0.2,1.2h-1.5v-16.4h1.9v4.5l0,2
					c0.5-0.4,1.1-0.8,1.7-1.1c0.6-0.3,1.2-0.4,1.8-0.4c0.7,0,1.4,0.1,1.9,0.4c0.6,0.3,1,0.7,1.4,1.2c0.4,0.5,0.7,1.1,0.9,1.8
					c0.2,0.7,0.3,1.5,0.3,2.3c0,1-0.1,1.8-0.4,2.6s-0.6,1.4-1.1,1.9s-1,0.9-1.5,1.2C-5449.9,751.8-5450.5,752-5451.2,752z
					 M-5451.5,750.4c0.5,0,0.9-0.1,1.3-0.3c0.4-0.2,0.7-0.5,1-0.9s0.5-0.8,0.7-1.4c0.2-0.6,0.2-1.2,0.2-1.9c0-0.6-0.1-1.2-0.2-1.7
					c-0.1-0.5-0.3-0.9-0.5-1.3s-0.5-0.6-0.9-0.8c-0.4-0.2-0.8-0.3-1.3-0.3c-0.9,0-1.9,0.5-3,1.5v5.9c0.5,0.4,1,0.7,1.5,0.9
					C-5452.3,750.3-5451.9,750.4-5451.5,750.4z"/>
				<path class="st3" d="M-5438.9,752c-0.8,0-1.5-0.1-2.1-0.4c-0.7-0.3-1.2-0.7-1.7-1.1s-0.9-1.1-1.1-1.8c-0.3-0.7-0.4-1.5-0.4-2.5
					s0.1-1.7,0.4-2.5s0.7-1.3,1.1-1.9c0.5-0.5,1-0.9,1.6-1.2c0.6-0.3,1.2-0.4,1.9-0.4c0.7,0,1.3,0.1,1.9,0.4c0.6,0.2,1,0.6,1.4,1.1
					c0.4,0.5,0.7,1,0.9,1.7c0.2,0.6,0.3,1.4,0.3,2.2c0,0.2,0,0.4,0,0.6c0,0.2,0,0.4-0.1,0.5h-7.5c0.1,1.2,0.4,2.1,1.1,2.8
					c0.7,0.7,1.5,1,2.6,1c0.5,0,1-0.1,1.5-0.2s0.9-0.4,1.3-0.6l0.7,1.2c-0.5,0.3-1,0.6-1.6,0.8C-5437.4,751.9-5438.1,752-5438.9,752
					z M-5442.4,745.2h6c0-1.1-0.2-2-0.7-2.6c-0.5-0.6-1.2-0.9-2-0.9c-0.4,0-0.8,0.1-1.1,0.2c-0.4,0.2-0.7,0.4-1,0.7
					c-0.3,0.3-0.5,0.7-0.7,1.1C-5442.2,744.2-5442.3,744.7-5442.4,745.2z"/>
				<path class="st3" d="M-5424.8,752c-0.9,0-1.7-0.3-2.3-0.8s-0.9-1.3-0.9-2.3c0-1.2,0.5-2.2,1.6-2.8c1.1-0.7,2.8-1.1,5.2-1.4
					c0-0.4,0-0.7-0.1-1c-0.1-0.3-0.2-0.6-0.4-0.9s-0.4-0.5-0.7-0.6c-0.3-0.2-0.7-0.2-1.1-0.2c-0.6,0-1.3,0.1-1.8,0.4
					c-0.6,0.2-1.1,0.5-1.5,0.8l-0.7-1.3c0.5-0.3,1.2-0.7,1.9-1c0.8-0.3,1.6-0.5,2.5-0.5c1.4,0,2.4,0.4,3,1.3c0.6,0.8,0.9,2,0.9,3.3
					v6.9h-1.6l-0.2-1.3h-0.1c-0.5,0.4-1.1,0.8-1.7,1.1C-5423.4,751.8-5424.1,752-5424.8,752z M-5424.3,750.5c0.5,0,1-0.1,1.5-0.4
					c0.5-0.3,1-0.6,1.5-1.1v-3.1c-0.9,0.1-1.7,0.3-2.4,0.4c-0.6,0.2-1.1,0.4-1.5,0.6c-0.4,0.2-0.7,0.5-0.9,0.8s-0.3,0.6-0.3,1
					c0,0.6,0.2,1.1,0.6,1.4C-5425.3,750.3-5424.8,750.5-5424.3,750.5z"/>
				<path class="st3" d="M-5409.4,751.7l-3.1-11.2h1.9l1.7,6.5c0.1,0.5,0.2,1.1,0.3,1.6c0.1,0.5,0.2,1,0.3,1.5h0.1
					c0.1-0.5,0.2-1,0.4-1.6c0.1-0.5,0.3-1,0.4-1.6l1.7-6.5h1.8l1.7,6.5c0.1,0.5,0.3,1.1,0.4,1.6c0.1,0.5,0.3,1,0.4,1.5h0.1
					c0.1-0.5,0.2-1,0.3-1.5c0.1-0.5,0.2-1,0.3-1.6l1.6-6.5h1.8l-3,11.2h-2.3l-1.6-6c-0.1-0.5-0.3-1.1-0.4-1.6
					c-0.1-0.5-0.2-1.1-0.4-1.6h-0.1c-0.1,0.6-0.2,1.1-0.4,1.6c-0.1,0.5-0.3,1.1-0.4,1.6l-1.6,6H-5409.4z"/>
				<path class="st3" d="M-5390.4,752c-0.7,0-1.3-0.1-2-0.4s-1.2-0.6-1.6-1.1c-0.5-0.5-0.9-1.1-1.1-1.8c-0.3-0.7-0.4-1.6-0.4-2.5
					c0-0.9,0.1-1.8,0.4-2.5s0.7-1.3,1.1-1.9c0.5-0.5,1-0.9,1.6-1.2c0.6-0.3,1.3-0.4,2-0.4s1.3,0.1,2,0.4c0.6,0.3,1.2,0.6,1.6,1.2
					c0.5,0.5,0.9,1.1,1.1,1.9s0.4,1.6,0.4,2.5c0,0.9-0.1,1.7-0.4,2.5c-0.3,0.7-0.7,1.3-1.1,1.8c-0.5,0.5-1,0.9-1.6,1.1
					C-5389.1,751.9-5389.7,752-5390.4,752z M-5390.4,750.4c0.5,0,0.9-0.1,1.3-0.3c0.4-0.2,0.7-0.5,1-0.9c0.3-0.4,0.5-0.8,0.7-1.3
					c0.2-0.5,0.2-1.1,0.2-1.7c0-0.6-0.1-1.2-0.2-1.8c-0.2-0.5-0.4-1-0.7-1.4c-0.3-0.4-0.6-0.7-1-0.9c-0.4-0.2-0.8-0.3-1.3-0.3
					c-0.5,0-0.9,0.1-1.3,0.3c-0.4,0.2-0.7,0.5-1,0.9c-0.3,0.4-0.5,0.8-0.7,1.4c-0.2,0.5-0.2,1.1-0.2,1.8c0,0.6,0.1,1.2,0.2,1.7
					c0.2,0.5,0.4,1,0.7,1.3c0.3,0.4,0.6,0.7,1,0.9C-5391.3,750.3-5390.9,750.4-5390.4,750.4z"/>
				<path class="st3" d="M-5382.3,751.7v-11.2h1.6l0.2,2h0.1c0.4-0.7,0.8-1.3,1.4-1.7s1.1-0.6,1.8-0.6c0.4,0,0.8,0.1,1.2,0.2
					l-0.4,1.7c-0.2-0.1-0.4-0.1-0.5-0.1c-0.2,0-0.3,0-0.6,0c-0.5,0-1,0.2-1.5,0.6c-0.5,0.4-1,1-1.3,2v7.2H-5382.3z"/>
				<path class="st3" d="M-5372.3,752c-0.7,0-1.2-0.2-1.5-0.6c-0.3-0.4-0.5-1.1-0.5-1.9v-14.1h1.9v14.3c0,0.3,0.1,0.5,0.2,0.6
					c0.1,0.1,0.2,0.2,0.4,0.2c0.1,0,0.1,0,0.2,0c0.1,0,0.1,0,0.2,0l0.3,1.4c-0.1,0.1-0.3,0.1-0.4,0.1
					C-5371.9,752-5372.1,752-5372.3,752z"/>
				<path class="st3" d="M-5364.6,752c-1.4,0-2.5-0.5-3.4-1.5c-0.8-1-1.3-2.5-1.3-4.3c0-0.9,0.1-1.7,0.4-2.4
					c0.3-0.7,0.6-1.3,1.1-1.9c0.4-0.5,1-0.9,1.5-1.2c0.6-0.3,1.2-0.4,1.8-0.4s1.2,0.1,1.7,0.3c0.5,0.2,1,0.5,1.4,0.9l-0.1-1.9v-4.3
					h1.9v16.4h-1.6l-0.2-1.3h-0.1c-0.4,0.4-1,0.8-1.5,1.1C-5363.4,751.8-5364,752-5364.6,752z M-5364.2,750.4c0.5,0,1-0.1,1.5-0.4
					s0.9-0.6,1.4-1.2V743c-0.5-0.4-0.9-0.7-1.4-0.9c-0.4-0.2-0.9-0.3-1.3-0.3c-0.4,0-0.9,0.1-1.3,0.3s-0.7,0.5-1,0.9
					c-0.3,0.4-0.5,0.8-0.7,1.3c-0.2,0.5-0.3,1.1-0.3,1.7c0,1.3,0.3,2.4,0.8,3.2C-5366,750-5365.2,750.4-5364.2,750.4z"/>
				<path class="st3" d="M-5356.6,746.7v-1.4h5.3v1.4H-5356.6z"/>
				<path class="st3" d="M-5344.1,752c-0.7,0-1.4-0.1-2.1-0.4s-1.2-0.6-1.7-1.1c-0.5-0.5-0.8-1.1-1.1-1.8c-0.3-0.7-0.4-1.6-0.4-2.5
					c0-0.9,0.1-1.8,0.4-2.5c0.3-0.7,0.7-1.3,1.2-1.9s1.1-0.9,1.7-1.2c0.7-0.3,1.3-0.4,2.1-0.4c0.7,0,1.4,0.1,1.9,0.4
					c0.5,0.3,1,0.6,1.4,0.9l-1,1.2c-0.3-0.3-0.7-0.5-1-0.7c-0.4-0.2-0.8-0.3-1.2-0.3c-0.5,0-1,0.1-1.4,0.3s-0.8,0.5-1.1,0.9
					c-0.3,0.4-0.5,0.8-0.7,1.4c-0.2,0.5-0.3,1.1-0.3,1.8c0,0.6,0.1,1.2,0.3,1.7c0.2,0.5,0.4,1,0.7,1.3c0.3,0.4,0.7,0.7,1.1,0.9
					c0.4,0.2,0.9,0.3,1.4,0.3c0.5,0,1-0.1,1.4-0.3c0.4-0.2,0.8-0.5,1.2-0.8l0.8,1.3c-0.5,0.4-1.1,0.8-1.7,1S-5343.5,752-5344.1,752z
					"/>
				<path class="st3" d="M-5336.1,752c-0.7,0-1.2-0.2-1.5-0.6c-0.3-0.4-0.5-1.1-0.5-1.9v-14.1h1.9v14.3c0,0.3,0.1,0.5,0.2,0.6
					c0.1,0.1,0.2,0.2,0.4,0.2c0.1,0,0.1,0,0.2,0c0.1,0,0.1,0,0.2,0l0.3,1.4c-0.1,0.1-0.3,0.1-0.4,0.1
					C-5335.6,752-5335.8,752-5336.1,752z"/>
				<path class="st3" d="M-5329.6,752c-0.9,0-1.7-0.3-2.3-0.8s-0.9-1.3-0.9-2.3c0-1.2,0.5-2.2,1.6-2.8c1.1-0.7,2.8-1.1,5.2-1.4
					c0-0.4,0-0.7-0.1-1c-0.1-0.3-0.2-0.6-0.4-0.9s-0.4-0.5-0.7-0.6c-0.3-0.2-0.7-0.2-1.1-0.2c-0.6,0-1.3,0.1-1.8,0.4
					c-0.6,0.2-1.1,0.5-1.5,0.8l-0.7-1.3c0.5-0.3,1.2-0.7,1.9-1c0.8-0.3,1.6-0.5,2.5-0.5c1.4,0,2.4,0.4,3,1.3c0.6,0.8,0.9,2,0.9,3.3
					v6.9h-1.6l-0.2-1.3h-0.1c-0.5,0.4-1.1,0.8-1.7,1.1C-5328.3,751.8-5328.9,752-5329.6,752z M-5329.1,750.5c0.5,0,1-0.1,1.5-0.4
					c0.5-0.3,1-0.6,1.5-1.1v-3.1c-0.9,0.1-1.7,0.3-2.4,0.4c-0.6,0.2-1.1,0.4-1.5,0.6c-0.4,0.2-0.7,0.5-0.9,0.8s-0.3,0.6-0.3,1
					c0,0.6,0.2,1.1,0.6,1.4C-5330.1,750.3-5329.6,750.5-5329.1,750.5z"/>
				<path class="st3" d="M-5317.7,752c-0.8,0-1.6-0.1-2.3-0.4s-1.3-0.7-1.9-1.1l0.9-1.3c0.5,0.4,1,0.7,1.5,1
					c0.5,0.2,1.1,0.4,1.8,0.4c0.7,0,1.3-0.2,1.7-0.5c0.4-0.3,0.6-0.8,0.6-1.2c0-0.3-0.1-0.5-0.2-0.8s-0.3-0.4-0.6-0.6
					c-0.2-0.2-0.5-0.3-0.8-0.4c-0.3-0.1-0.6-0.2-0.9-0.4c-0.4-0.1-0.8-0.3-1.2-0.5c-0.4-0.2-0.8-0.4-1.1-0.6
					c-0.3-0.3-0.6-0.5-0.8-0.9c-0.2-0.3-0.3-0.7-0.3-1.2c0-0.4,0.1-0.9,0.3-1.3c0.2-0.4,0.4-0.7,0.8-1c0.3-0.3,0.7-0.5,1.2-0.7
					c0.5-0.2,1-0.2,1.6-0.2c0.7,0,1.4,0.1,1.9,0.4s1.1,0.5,1.5,0.9l-0.9,1.2c-0.4-0.3-0.8-0.5-1.2-0.7s-0.9-0.3-1.4-0.3
					c-0.7,0-1.2,0.2-1.6,0.5s-0.5,0.7-0.5,1.1c0,0.3,0.1,0.5,0.2,0.7c0.1,0.2,0.3,0.4,0.6,0.5s0.5,0.3,0.8,0.4
					c0.3,0.1,0.6,0.2,0.9,0.4c0.4,0.2,0.8,0.3,1.2,0.5c0.4,0.2,0.8,0.4,1.1,0.6c0.3,0.3,0.6,0.6,0.8,0.9c0.2,0.4,0.3,0.8,0.3,1.3
					c0,0.5-0.1,0.9-0.3,1.3c-0.2,0.4-0.4,0.8-0.8,1.1s-0.8,0.5-1.3,0.7C-5316.4,751.9-5317,752-5317.7,752z"/>
				<path class="st3" d="M-5308,752c-0.8,0-1.6-0.1-2.3-0.4s-1.3-0.7-1.9-1.1l0.9-1.3c0.5,0.4,1,0.7,1.5,1c0.5,0.2,1.1,0.4,1.8,0.4
					c0.7,0,1.3-0.2,1.7-0.5c0.4-0.3,0.6-0.8,0.6-1.2c0-0.3-0.1-0.5-0.2-0.8s-0.3-0.4-0.6-0.6c-0.2-0.2-0.5-0.3-0.8-0.4
					c-0.3-0.1-0.6-0.2-0.9-0.4c-0.4-0.1-0.8-0.3-1.2-0.5c-0.4-0.2-0.8-0.4-1.1-0.6c-0.3-0.3-0.6-0.5-0.8-0.9
					c-0.2-0.3-0.3-0.7-0.3-1.2c0-0.4,0.1-0.9,0.3-1.3c0.2-0.4,0.4-0.7,0.8-1c0.3-0.3,0.7-0.5,1.2-0.7c0.5-0.2,1-0.2,1.6-0.2
					c0.7,0,1.4,0.1,1.9,0.4s1.1,0.5,1.5,0.9l-0.9,1.2c-0.4-0.3-0.8-0.5-1.2-0.7s-0.9-0.3-1.4-0.3c-0.7,0-1.2,0.2-1.6,0.5
					s-0.5,0.7-0.5,1.1c0,0.3,0.1,0.5,0.2,0.7c0.1,0.2,0.3,0.4,0.6,0.5s0.5,0.3,0.8,0.4c0.3,0.1,0.6,0.2,0.9,0.4
					c0.4,0.2,0.8,0.3,1.2,0.5c0.4,0.2,0.8,0.4,1.1,0.6c0.3,0.3,0.6,0.6,0.8,0.9c0.2,0.4,0.3,0.8,0.3,1.3c0,0.5-0.1,0.9-0.3,1.3
					c-0.2,0.4-0.4,0.8-0.8,1.1s-0.8,0.5-1.3,0.7C-5306.8,751.9-5307.4,752-5308,752z"/>
				<path class="st3" d="M-5291.8,752c-0.5,0-1.1-0.1-1.6-0.4c-0.6-0.3-1.1-0.6-1.6-1h-0.1l-0.2,1.2h-1.5v-16.4h1.9v4.5l0,2
					c0.5-0.4,1.1-0.8,1.7-1.1c0.6-0.3,1.2-0.4,1.8-0.4c0.7,0,1.4,0.1,1.9,0.4c0.6,0.3,1,0.7,1.4,1.2c0.4,0.5,0.7,1.1,0.9,1.8
					c0.2,0.7,0.3,1.5,0.3,2.3c0,1-0.1,1.8-0.4,2.6s-0.6,1.4-1.1,1.9s-1,0.9-1.5,1.2C-5290.5,751.8-5291.1,752-5291.8,752z
					 M-5292.1,750.4c0.5,0,0.9-0.1,1.3-0.3c0.4-0.2,0.7-0.5,1-0.9s0.5-0.8,0.7-1.4c0.2-0.6,0.2-1.2,0.2-1.9c0-0.6-0.1-1.2-0.2-1.7
					c-0.1-0.5-0.3-0.9-0.5-1.3s-0.5-0.6-0.9-0.8c-0.4-0.2-0.8-0.3-1.3-0.3c-0.9,0-1.9,0.5-3,1.5v5.9c0.5,0.4,1,0.7,1.5,0.9
					C-5292.9,750.3-5292.5,750.4-5292.1,750.4z"/>
				<path class="st3" d="M-5284,751.7v-11.2h1.6l0.2,2h0.1c0.4-0.7,0.8-1.3,1.4-1.7s1.1-0.6,1.8-0.6c0.4,0,0.8,0.1,1.2,0.2l-0.4,1.7
					c-0.2-0.1-0.4-0.1-0.5-0.1c-0.2,0-0.3,0-0.6,0c-0.5,0-1,0.2-1.5,0.6c-0.5,0.4-1,1-1.3,2v7.2H-5284z"/>
				<path class="st3" d="M-5274,752c-0.9,0-1.7-0.3-2.3-0.8s-0.9-1.3-0.9-2.3c0-1.2,0.5-2.2,1.6-2.8c1.1-0.7,2.8-1.1,5.2-1.4
					c0-0.4,0-0.7-0.1-1c-0.1-0.3-0.2-0.6-0.4-0.9s-0.4-0.5-0.7-0.6c-0.3-0.2-0.7-0.2-1.1-0.2c-0.6,0-1.3,0.1-1.8,0.4
					c-0.6,0.2-1.1,0.5-1.5,0.8l-0.7-1.3c0.5-0.3,1.2-0.7,1.9-1c0.8-0.3,1.6-0.5,2.5-0.5c1.4,0,2.4,0.4,3,1.3c0.6,0.8,0.9,2,0.9,3.3
					v6.9h-1.6l-0.2-1.3h-0.1c-0.5,0.4-1.1,0.8-1.7,1.1C-5272.6,751.8-5273.3,752-5274,752z M-5273.5,750.5c0.5,0,1-0.1,1.5-0.4
					c0.5-0.3,1-0.6,1.5-1.1v-3.1c-0.9,0.1-1.7,0.3-2.4,0.4c-0.6,0.2-1.1,0.4-1.5,0.6c-0.4,0.2-0.7,0.5-0.9,0.8s-0.3,0.6-0.3,1
					c0,0.6,0.2,1.1,0.6,1.4C-5274.5,750.3-5274,750.5-5273.5,750.5z"/>
				<path class="st3" d="M-5265,751.7v-11.2h1.6l0.2,1.6h0.1c0.5-0.5,1.1-1,1.7-1.3c0.6-0.4,1.3-0.5,2.1-0.5c1.2,0,2,0.4,2.6,1.1
					c0.5,0.7,0.8,1.8,0.8,3.3v7.1h-1.9v-6.8c0-1.1-0.2-1.8-0.5-2.3c-0.3-0.5-0.9-0.7-1.6-0.7c-0.6,0-1.1,0.1-1.5,0.4s-1,0.7-1.5,1.3
					v8.1H-5265z"/>
				<path class="st3" d="M-5248.6,752c-1.4,0-2.5-0.5-3.4-1.5c-0.8-1-1.3-2.5-1.3-4.3c0-0.9,0.1-1.7,0.4-2.4
					c0.3-0.7,0.6-1.3,1.1-1.9c0.4-0.5,1-0.9,1.5-1.2s1.2-0.4,1.8-0.4s1.2,0.1,1.7,0.3c0.5,0.2,1,0.5,1.4,0.9l-0.1-1.9v-4.3h1.9v16.4
					h-1.6l-0.2-1.3h-0.1c-0.4,0.4-1,0.8-1.5,1.1C-5247.3,751.8-5247.9,752-5248.6,752z M-5248.2,750.4c0.5,0,1-0.1,1.5-0.4
					c0.5-0.3,0.9-0.6,1.4-1.2V743c-0.5-0.4-0.9-0.7-1.4-0.9c-0.4-0.2-0.9-0.3-1.3-0.3c-0.4,0-0.9,0.1-1.3,0.3s-0.7,0.5-1,0.9
					c-0.3,0.4-0.5,0.8-0.7,1.3c-0.2,0.5-0.3,1.1-0.3,1.7c0,1.3,0.3,2.4,0.8,3.2C-5249.9,750-5249.2,750.4-5248.2,750.4z"/>
				<path class="st3" d="M-5237.8,747.2c-0.1-0.6-0.1-1.1,0.1-1.6c0.1-0.5,0.3-0.9,0.5-1.3c0.2-0.4,0.5-0.8,0.8-1.1
					c0.3-0.4,0.6-0.7,0.8-1s0.5-0.7,0.7-1c0.2-0.4,0.3-0.7,0.3-1.1c0-0.6-0.2-1.1-0.6-1.6c-0.4-0.4-0.9-0.7-1.7-0.7
					c-0.5,0-1,0.1-1.4,0.4c-0.5,0.2-0.9,0.6-1.2,1l-1.1-1c0.5-0.6,1.1-1,1.7-1.4c0.7-0.4,1.4-0.5,2.2-0.5c1.2,0,2.1,0.3,2.8,1
					c0.7,0.7,1,1.6,1,2.7c0,0.5-0.1,1-0.3,1.4c-0.2,0.4-0.4,0.8-0.7,1.2c-0.3,0.4-0.6,0.7-0.9,1.1s-0.6,0.7-0.8,1.1
					c-0.3,0.4-0.4,0.8-0.6,1.2c-0.1,0.4-0.2,0.9-0.1,1.5H-5237.8z M-5237,752c-0.4,0-0.7-0.1-1-0.4c-0.3-0.3-0.4-0.6-0.4-1
					c0-0.4,0.1-0.8,0.4-1.1c0.3-0.3,0.6-0.4,1-0.4c0.4,0,0.7,0.1,1,0.4c0.3,0.3,0.4,0.6,0.4,1.1c0,0.4-0.1,0.8-0.4,1
					C-5236.3,751.8-5236.6,752-5237,752z"/>
				<path class="st3" d="M-5228.4,752c-0.4,0-0.7-0.1-1-0.4c-0.3-0.3-0.4-0.6-0.4-1c0-0.4,0.1-0.8,0.4-1.1c0.3-0.3,0.6-0.4,1-0.4
					c0.4,0,0.7,0.1,1,0.4c0.3,0.3,0.4,0.6,0.4,1.1c0,0.4-0.1,0.8-0.4,1C-5227.7,751.8-5228,752-5228.4,752z M-5229.1,747.2l-0.3-8.7
					l0-2.2h1.9l0,2.2l-0.3,8.7H-5229.1z"/>
				<path class="st3" d="M-5215.6,752c-1.9,0-3.3-0.8-4.2-2.4l1.4-1c0.3,0.6,0.7,1,1.2,1.3c0.4,0.3,0.9,0.4,1.4,0.4
					c0.8,0,1.4-0.2,1.8-0.7c0.4-0.5,0.6-1.3,0.6-2.5v-10.5h1.9v10.6c0,0.6-0.1,1.3-0.2,1.8c-0.2,0.6-0.4,1.1-0.7,1.5
					c-0.3,0.4-0.8,0.8-1.3,1S-5214.9,752-5215.6,752z"/>
				<path class="st3" d="M-5205,752c-0.9,0-1.7-0.3-2.3-0.8s-0.9-1.3-0.9-2.3c0-1.2,0.5-2.2,1.6-2.8c1.1-0.7,2.8-1.1,5.2-1.4
					c0-0.4,0-0.7-0.1-1c-0.1-0.3-0.2-0.6-0.4-0.9c-0.2-0.3-0.4-0.5-0.7-0.6s-0.7-0.2-1.1-0.2c-0.6,0-1.3,0.1-1.8,0.4
					c-0.6,0.2-1.1,0.5-1.5,0.8l-0.7-1.3c0.5-0.3,1.2-0.7,1.9-1c0.8-0.3,1.6-0.5,2.5-0.5c1.4,0,2.4,0.4,3,1.3s0.9,2,0.9,3.3v6.9h-1.6
					l-0.2-1.3h-0.1c-0.5,0.4-1.1,0.8-1.7,1.1C-5203.6,751.8-5204.3,752-5205,752z M-5204.5,750.5c0.5,0,1-0.1,1.5-0.4
					c0.5-0.3,1-0.6,1.5-1.1v-3.1c-0.9,0.1-1.7,0.3-2.4,0.4c-0.6,0.2-1.2,0.4-1.5,0.6c-0.4,0.2-0.7,0.5-0.9,0.8s-0.3,0.6-0.3,1
					c0,0.6,0.2,1.1,0.6,1.4C-5205.5,750.3-5205,750.5-5204.5,750.5z"/>
				<path class="st3" d="M-5196,751.7v-11.2h1.6l0.2,2h0.1c0.4-0.7,0.8-1.3,1.4-1.7s1.1-0.6,1.8-0.6c0.4,0,0.8,0.1,1.2,0.2l-0.4,1.7
					c-0.2-0.1-0.4-0.1-0.5-0.1c-0.2,0-0.3,0-0.6,0c-0.5,0-1,0.2-1.5,0.6c-0.5,0.4-1,1-1.3,2v7.2H-5196z"/>
				<path class="st3" d="M-5186,752c-0.9,0-1.7-0.3-2.3-0.8s-0.9-1.3-0.9-2.3c0-1.2,0.5-2.2,1.6-2.8c1.1-0.7,2.8-1.1,5.2-1.4
					c0-0.4,0-0.7-0.1-1c-0.1-0.3-0.2-0.6-0.4-0.9s-0.4-0.5-0.7-0.6s-0.7-0.2-1.1-0.2c-0.6,0-1.3,0.1-1.8,0.4
					c-0.6,0.2-1.1,0.5-1.5,0.8l-0.7-1.3c0.5-0.3,1.2-0.7,1.9-1c0.8-0.3,1.6-0.5,2.5-0.5c1.4,0,2.4,0.4,3,1.3s0.9,2,0.9,3.3v6.9h-1.6
					l-0.2-1.3h-0.1c-0.5,0.4-1.1,0.8-1.7,1.1C-5184.6,751.8-5185.3,752-5186,752z M-5185.4,750.5c0.5,0,1-0.1,1.5-0.4s1-0.6,1.5-1.1
					v-3.1c-0.9,0.1-1.7,0.3-2.4,0.4c-0.6,0.2-1.1,0.4-1.5,0.6c-0.4,0.2-0.7,0.5-0.9,0.8c-0.2,0.3-0.3,0.6-0.3,1
					c0,0.6,0.2,1.1,0.6,1.4C-5186.5,750.3-5186,750.5-5185.4,750.5z"/>
				<path class="st3" d="M-5172,751.7v-9.6h-1.5v-1.4l1.5-0.1v-1.8c0-1.1,0.3-2.1,0.8-2.7s1.4-1,2.5-1c0.4,0,0.7,0,1,0.1
					c0.3,0.1,0.6,0.2,0.9,0.3l-0.4,1.4c-0.4-0.2-0.8-0.3-1.3-0.3c-1,0-1.6,0.7-1.6,2.2v1.8h2.4v1.5h-2.4v9.6H-5172z"/>
				<path class="st3" d="M-5161.5,752c-0.7,0-1.3-0.1-2-0.4s-1.2-0.6-1.6-1.1c-0.5-0.5-0.9-1.1-1.1-1.8c-0.3-0.7-0.4-1.6-0.4-2.5
					c0-0.9,0.1-1.8,0.4-2.5s0.7-1.3,1.1-1.9s1-0.9,1.6-1.2c0.6-0.3,1.3-0.4,2-0.4c0.7,0,1.3,0.1,2,0.4c0.6,0.3,1.2,0.6,1.6,1.2
					s0.9,1.1,1.1,1.9c0.3,0.7,0.4,1.6,0.4,2.5c0,0.9-0.1,1.7-0.4,2.5c-0.3,0.7-0.7,1.3-1.1,1.8c-0.5,0.5-1,0.9-1.6,1.1
					S-5160.8,752-5161.5,752z M-5161.5,750.4c0.5,0,0.9-0.1,1.3-0.3c0.4-0.2,0.7-0.5,1-0.9c0.3-0.4,0.5-0.8,0.7-1.3
					c0.2-0.5,0.2-1.1,0.2-1.7c0-0.6-0.1-1.2-0.2-1.8c-0.2-0.5-0.4-1-0.7-1.4c-0.3-0.4-0.6-0.7-1-0.9c-0.4-0.2-0.8-0.3-1.3-0.3
					c-0.5,0-0.9,0.1-1.3,0.3s-0.7,0.5-1,0.9c-0.3,0.4-0.5,0.8-0.7,1.4c-0.2,0.5-0.2,1.1-0.2,1.8c0,0.6,0.1,1.2,0.2,1.7
					c0.2,0.5,0.4,1,0.7,1.3c0.3,0.4,0.6,0.7,1,0.9S-5162,750.4-5161.5,750.4z"/>
				<path class="st3" d="M-5153.4,751.7v-11.2h1.6l0.2,2h0.1c0.4-0.7,0.8-1.3,1.4-1.7s1.1-0.6,1.8-0.6c0.4,0,0.8,0.1,1.2,0.2
					l-0.4,1.7c-0.2-0.1-0.4-0.1-0.5-0.1c-0.2,0-0.3,0-0.6,0c-0.5,0-1,0.2-1.5,0.6c-0.5,0.4-1,1-1.3,2v7.2H-5153.4z"/>
				<path class="st3" d="M-5140.7,751.7v-15.1h4.5c0.8,0,1.5,0.1,2.1,0.2c0.6,0.1,1.2,0.4,1.6,0.6c0.5,0.3,0.8,0.7,1.1,1.1
					s0.4,1,0.4,1.7c0,0.8-0.2,1.4-0.6,2c-0.4,0.6-0.9,1-1.6,1.3v0.1c0.9,0.2,1.7,0.6,2.2,1.2s0.9,1.4,0.9,2.5c0,0.7-0.1,1.4-0.4,1.9
					c-0.3,0.6-0.7,1-1.2,1.4c-0.5,0.4-1.1,0.6-1.8,0.8c-0.7,0.2-1.5,0.3-2.3,0.3H-5140.7z M-5138.7,743h2.2c1.3,0,2.2-0.2,2.8-0.7
					s0.9-1,0.9-1.8c0-0.9-0.3-1.5-0.9-1.9c-0.6-0.4-1.5-0.6-2.7-0.6h-2.3V743z M-5138.7,750.2h2.6c1.3,0,2.3-0.2,3-0.7
					c0.7-0.5,1.1-1.2,1.1-2.2c0-0.9-0.4-1.6-1.1-2.1c-0.7-0.4-1.7-0.7-3.1-0.7h-2.6V750.2z"/>
				<path class="st3" d="M-5127.3,751.7v-11.2h1.6l0.2,2h0.1c0.4-0.7,0.8-1.3,1.4-1.7s1.1-0.6,1.8-0.6c0.4,0,0.8,0.1,1.2,0.2
					l-0.4,1.7c-0.2-0.1-0.4-0.1-0.5-0.1c-0.2,0-0.3,0-0.6,0c-0.5,0-1,0.2-1.5,0.6c-0.5,0.4-1,1-1.3,2v7.2H-5127.3z"/>
				<path class="st3" d="M-5117.3,752c-0.9,0-1.7-0.3-2.3-0.8c-0.6-0.6-0.9-1.3-0.9-2.3c0-1.2,0.5-2.2,1.6-2.8
					c1.1-0.7,2.8-1.1,5.2-1.4c0-0.4,0-0.7-0.1-1c-0.1-0.3-0.2-0.6-0.4-0.9s-0.4-0.5-0.7-0.6s-0.7-0.2-1.1-0.2
					c-0.6,0-1.3,0.1-1.8,0.4c-0.6,0.2-1.1,0.5-1.5,0.8l-0.7-1.3c0.5-0.3,1.2-0.7,1.9-1s1.6-0.5,2.5-0.5c1.4,0,2.4,0.4,3,1.3
					s0.9,2,0.9,3.3v6.9h-1.6l-0.2-1.3h-0.1c-0.5,0.4-1.1,0.8-1.7,1.1C-5115.9,751.8-5116.6,752-5117.3,752z M-5116.8,750.5
					c0.5,0,1-0.1,1.5-0.4c0.5-0.3,1-0.6,1.5-1.1v-3.1c-0.9,0.1-1.7,0.3-2.4,0.4c-0.6,0.2-1.1,0.4-1.5,0.6c-0.4,0.2-0.7,0.5-0.9,0.8
					c-0.2,0.3-0.3,0.6-0.3,1c0,0.6,0.2,1.1,0.6,1.4C-5117.8,750.3-5117.3,750.5-5116.8,750.5z"/>
				<path class="st3" d="M-5108.3,751.7v-11.2h1.6l0.2,1.6h0.1c0.5-0.5,1.1-1,1.7-1.3c0.6-0.4,1.3-0.5,2.1-0.5c1.2,0,2,0.4,2.6,1.1
					c0.5,0.7,0.8,1.8,0.8,3.3v7.1h-1.9v-6.8c0-1.1-0.2-1.8-0.5-2.3c-0.3-0.5-0.9-0.7-1.6-0.7c-0.6,0-1.1,0.1-1.5,0.4
					c-0.4,0.3-1,0.7-1.5,1.3v8.1H-5108.3z"/>
				<path class="st3" d="M-5091.9,752c-1.4,0-2.5-0.5-3.4-1.5c-0.8-1-1.3-2.5-1.3-4.3c0-0.9,0.1-1.7,0.4-2.4
					c0.3-0.7,0.6-1.3,1.1-1.9s1-0.9,1.5-1.2s1.2-0.4,1.8-0.4c0.6,0,1.2,0.1,1.7,0.3c0.5,0.2,1,0.5,1.4,0.9l-0.1-1.9v-4.3h1.9v16.4
					h-1.6l-0.2-1.3h-0.1c-0.4,0.4-1,0.8-1.5,1.1C-5090.6,751.8-5091.2,752-5091.9,752z M-5091.5,750.4c0.5,0,1-0.1,1.5-0.4
					s0.9-0.6,1.4-1.2V743c-0.5-0.4-0.9-0.7-1.4-0.9c-0.4-0.2-0.9-0.3-1.3-0.3c-0.4,0-0.9,0.1-1.3,0.3c-0.4,0.2-0.7,0.5-1,0.9
					c-0.3,0.4-0.5,0.8-0.7,1.3s-0.3,1.1-0.3,1.7c0,1.3,0.3,2.4,0.8,3.2C-5093.2,750-5092.5,750.4-5091.5,750.4z"/>
				<path class="st3" d="M-5080,752c-0.8,0-1.6-0.1-2.3-0.4s-1.3-0.7-1.9-1.1l0.9-1.3c0.5,0.4,1,0.7,1.5,1c0.5,0.2,1.1,0.4,1.8,0.4
					c0.7,0,1.3-0.2,1.7-0.5c0.4-0.3,0.6-0.8,0.6-1.2c0-0.3-0.1-0.5-0.2-0.8s-0.3-0.4-0.6-0.6c-0.2-0.2-0.5-0.3-0.8-0.4
					c-0.3-0.1-0.6-0.2-0.9-0.4c-0.4-0.1-0.8-0.3-1.2-0.5c-0.4-0.2-0.8-0.4-1.1-0.6s-0.6-0.5-0.8-0.9c-0.2-0.3-0.3-0.7-0.3-1.2
					c0-0.4,0.1-0.9,0.3-1.3c0.2-0.4,0.4-0.7,0.8-1c0.3-0.3,0.7-0.5,1.2-0.7c0.5-0.2,1-0.2,1.6-0.2c0.7,0,1.4,0.1,1.9,0.4
					c0.6,0.2,1.1,0.5,1.5,0.9l-0.9,1.2c-0.4-0.3-0.8-0.5-1.2-0.7s-0.9-0.3-1.4-0.3c-0.7,0-1.2,0.2-1.6,0.5c-0.3,0.3-0.5,0.7-0.5,1.1
					c0,0.3,0.1,0.5,0.2,0.7c0.1,0.2,0.3,0.4,0.6,0.5c0.2,0.1,0.5,0.3,0.8,0.4c0.3,0.1,0.6,0.2,0.9,0.4c0.4,0.2,0.8,0.3,1.2,0.5
					s0.8,0.4,1.1,0.6s0.6,0.6,0.8,0.9c0.2,0.4,0.3,0.8,0.3,1.3c0,0.5-0.1,0.9-0.3,1.3c-0.2,0.4-0.4,0.8-0.8,1.1s-0.8,0.5-1.3,0.7
					C-5078.8,751.9-5079.4,752-5080,752z"/>
			</g>
			<g class="st2">
				<path class="st3" d="M-5455.1,775.2c-0.4,0-0.7-0.1-0.9-0.3c-0.3-0.2-0.4-0.5-0.4-0.9c0-0.4,0.1-0.7,0.4-0.9
					c0.3-0.2,0.6-0.3,0.9-0.3s0.7,0.1,0.9,0.3c0.3,0.2,0.4,0.5,0.4,0.9c0,0.4-0.1,0.6-0.4,0.9
					C-5454.5,775.1-5454.8,775.2-5455.1,775.2z M-5456.1,788.7v-11.2h1.9v11.2H-5456.1z"/>
				<path class="st3" d="M-5447.5,789c-0.8,0-1.6-0.1-2.3-0.4s-1.3-0.7-1.9-1.1l0.9-1.3c0.5,0.4,1,0.7,1.5,1
					c0.5,0.2,1.1,0.4,1.8,0.4c0.7,0,1.3-0.2,1.7-0.5c0.4-0.3,0.6-0.8,0.6-1.2c0-0.3-0.1-0.5-0.2-0.8s-0.3-0.4-0.6-0.6
					c-0.2-0.2-0.5-0.3-0.8-0.4c-0.3-0.1-0.6-0.2-0.9-0.4c-0.4-0.1-0.8-0.3-1.2-0.5c-0.4-0.2-0.8-0.4-1.1-0.6
					c-0.3-0.3-0.6-0.5-0.8-0.9c-0.2-0.3-0.3-0.7-0.3-1.2c0-0.4,0.1-0.9,0.3-1.3c0.2-0.4,0.4-0.7,0.8-1c0.3-0.3,0.7-0.5,1.2-0.7
					c0.5-0.2,1-0.2,1.6-0.2c0.7,0,1.4,0.1,1.9,0.4s1.1,0.5,1.5,0.9l-0.9,1.2c-0.4-0.3-0.8-0.5-1.2-0.7s-0.9-0.3-1.4-0.3
					c-0.7,0-1.2,0.2-1.6,0.5s-0.5,0.7-0.5,1.1c0,0.3,0.1,0.5,0.2,0.7c0.1,0.2,0.3,0.4,0.6,0.5s0.5,0.3,0.8,0.4
					c0.3,0.1,0.6,0.2,0.9,0.4c0.4,0.2,0.8,0.3,1.2,0.5c0.4,0.2,0.8,0.4,1.1,0.6c0.3,0.3,0.6,0.6,0.8,0.9c0.2,0.4,0.3,0.8,0.3,1.3
					c0,0.5-0.1,0.9-0.3,1.3c-0.2,0.4-0.4,0.8-0.8,1.1s-0.8,0.5-1.3,0.7C-5446.3,788.9-5446.9,789-5447.5,789z"/>
				<path class="st3" d="M-5432.7,789c-0.6,0-1.1-0.1-1.5-0.3s-0.7-0.4-1-0.8s-0.4-0.7-0.5-1.2c-0.1-0.5-0.2-1-0.2-1.5v-6.2h-1.7
					v-1.4l1.7-0.1l0.2-3.1h1.6v3.1h3v1.5h-3v6.2c0,0.7,0.1,1.2,0.4,1.6s0.7,0.6,1.3,0.6c0.2,0,0.4,0,0.6-0.1
					c0.2-0.1,0.4-0.1,0.6-0.2l0.4,1.4c-0.3,0.1-0.6,0.2-1,0.3C-5432,788.9-5432.3,789-5432.7,789z"/>
				<path class="st3" d="M-5428.4,788.7v-16.4h1.9v4.5l-0.1,2.3c0.5-0.5,1.1-0.9,1.7-1.3s1.3-0.5,2-0.5c1.2,0,2,0.4,2.6,1.1
					c0.5,0.7,0.8,1.8,0.8,3.3v7.1h-1.9v-6.8c0-1.1-0.2-1.8-0.5-2.3s-0.9-0.7-1.6-0.7c-0.6,0-1.1,0.1-1.5,0.4c-0.4,0.3-1,0.7-1.5,1.3
					v8.1H-5428.4z"/>
				<path class="st3" d="M-5411.4,789c-0.8,0-1.5-0.1-2.1-0.4c-0.7-0.3-1.2-0.7-1.7-1.1s-0.9-1.1-1.1-1.8c-0.3-0.7-0.4-1.5-0.4-2.5
					s0.1-1.7,0.4-2.5s0.7-1.3,1.1-1.9c0.5-0.5,1-0.9,1.6-1.2c0.6-0.3,1.2-0.4,1.9-0.4c0.7,0,1.3,0.1,1.9,0.4c0.6,0.2,1,0.6,1.4,1.1
					c0.4,0.5,0.7,1,0.9,1.7c0.2,0.6,0.3,1.4,0.3,2.2c0,0.2,0,0.4,0,0.6c0,0.2,0,0.4-0.1,0.5h-7.5c0.1,1.2,0.4,2.1,1.1,2.8
					c0.7,0.7,1.5,1,2.6,1c0.5,0,1-0.1,1.5-0.2s0.9-0.4,1.3-0.6l0.7,1.2c-0.5,0.3-1,0.6-1.6,0.8C-5410,788.9-5410.6,789-5411.4,789z
					 M-5414.9,782.2h6c0-1.1-0.2-2-0.7-2.6c-0.5-0.6-1.2-0.9-2-0.9c-0.4,0-0.8,0.1-1.1,0.2c-0.4,0.2-0.7,0.4-1,0.7
					c-0.3,0.3-0.5,0.7-0.7,1.1C-5414.7,781.2-5414.9,781.7-5414.9,782.2z"/>
				<path class="st3" d="M-5396.7,789c-1.2,0-2.1-0.4-2.6-1.1c-0.5-0.7-0.8-1.8-0.8-3.3v-7.1h1.9v6.8c0,1.1,0.2,1.8,0.5,2.3
					s0.9,0.7,1.6,0.7c0.6,0,1.1-0.1,1.5-0.4c0.4-0.3,0.9-0.8,1.5-1.4v-7.9h1.9v11.2h-1.6l-0.2-1.7h-0.1c-0.5,0.6-1.1,1.1-1.6,1.5
					C-5395.2,788.8-5395.9,789-5396.7,789z"/>
				<path class="st3" d="M-5385.4,789c-0.7,0-1.2-0.2-1.5-0.6c-0.3-0.4-0.5-1.1-0.5-1.9v-14.1h1.9v14.3c0,0.3,0.1,0.5,0.2,0.6
					c0.1,0.1,0.2,0.2,0.4,0.2c0.1,0,0.1,0,0.2,0c0.1,0,0.1,0,0.2,0l0.3,1.4c-0.1,0.1-0.3,0.1-0.4,0.1
					C-5384.9,789-5385.2,789-5385.4,789z"/>
				<path class="st3" d="M-5378,789c-0.6,0-1.1-0.1-1.5-0.3s-0.7-0.4-1-0.8s-0.4-0.7-0.5-1.2c-0.1-0.5-0.2-1-0.2-1.5v-6.2h-1.7v-1.4
					l1.7-0.1l0.2-3.1h1.6v3.1h3v1.5h-3v6.2c0,0.7,0.1,1.2,0.4,1.6s0.7,0.6,1.3,0.6c0.2,0,0.4,0,0.6-0.1c0.2-0.1,0.4-0.1,0.6-0.2
					l0.4,1.4c-0.3,0.1-0.6,0.2-1,0.3C-5377.3,788.9-5377.7,789-5378,789z"/>
				<path class="st3" d="M-5372.8,775.2c-0.4,0-0.7-0.1-0.9-0.3c-0.3-0.2-0.4-0.5-0.4-0.9c0-0.4,0.1-0.7,0.4-0.9
					c0.3-0.2,0.6-0.3,0.9-0.3s0.7,0.1,0.9,0.3c0.3,0.2,0.4,0.5,0.4,0.9c0,0.4-0.1,0.6-0.4,0.9
					C-5372.1,775.1-5372.4,775.2-5372.8,775.2z M-5373.8,788.7v-11.2h1.9v11.2H-5373.8z"/>
				<path class="st3" d="M-5368.1,788.7v-11.2h1.6l0.2,1.6h0.1c0.5-0.5,1-1,1.6-1.3c0.6-0.4,1.2-0.5,1.9-0.5c0.9,0,1.5,0.2,2,0.6
					c0.5,0.4,0.8,0.9,1.1,1.6c0.6-0.6,1.2-1.2,1.8-1.6c0.6-0.4,1.2-0.6,1.9-0.6c1.1,0,2,0.4,2.6,1.1c0.6,0.7,0.8,1.8,0.8,3.3v7.1
					h-1.9v-6.8c0-1.1-0.2-1.8-0.5-2.3s-0.9-0.7-1.6-0.7c-0.8,0-1.8,0.6-2.8,1.7v8.1h-1.9v-6.8c0-1.1-0.2-1.8-0.5-2.3
					c-0.3-0.5-0.9-0.7-1.6-0.7c-0.8,0-1.8,0.6-2.8,1.7v8.1H-5368.1z"/>
				<path class="st3" d="M-5346.5,789c-0.9,0-1.7-0.3-2.3-0.8s-0.9-1.3-0.9-2.3c0-1.2,0.5-2.2,1.6-2.8c1.1-0.7,2.8-1.1,5.2-1.4
					c0-0.4,0-0.7-0.1-1c-0.1-0.3-0.2-0.6-0.4-0.9s-0.4-0.5-0.7-0.6c-0.3-0.2-0.7-0.2-1.1-0.2c-0.6,0-1.3,0.1-1.8,0.4
					c-0.6,0.2-1.1,0.5-1.5,0.8l-0.7-1.3c0.5-0.3,1.2-0.7,1.9-1c0.8-0.3,1.6-0.5,2.5-0.5c1.4,0,2.4,0.4,3,1.3c0.6,0.8,0.9,2,0.9,3.3
					v6.9h-1.6l-0.2-1.3h-0.1c-0.5,0.4-1.1,0.8-1.7,1.1C-5345.1,788.8-5345.8,789-5346.5,789z M-5345.9,787.5c0.5,0,1-0.1,1.5-0.4
					c0.5-0.3,1-0.6,1.5-1.1v-3.1c-0.9,0.1-1.7,0.3-2.4,0.4c-0.6,0.2-1.1,0.4-1.5,0.6c-0.4,0.2-0.7,0.5-0.9,0.8s-0.3,0.6-0.3,1
					c0,0.6,0.2,1.1,0.6,1.4C-5346.9,787.3-5346.5,787.5-5345.9,787.5z"/>
				<path class="st3" d="M-5334.3,789c-0.6,0-1.1-0.1-1.5-0.3s-0.7-0.4-1-0.8s-0.4-0.7-0.5-1.2c-0.1-0.5-0.2-1-0.2-1.5v-6.2h-1.7
					v-1.4l1.7-0.1l0.2-3.1h1.6v3.1h3v1.5h-3v6.2c0,0.7,0.1,1.2,0.4,1.6s0.7,0.6,1.3,0.6c0.2,0,0.4,0,0.6-0.1
					c0.2-0.1,0.4-0.1,0.6-0.2l0.4,1.4c-0.3,0.1-0.6,0.2-1,0.3C-5333.6,788.9-5333.9,789-5334.3,789z"/>
				<path class="st3" d="M-5325.8,789c-0.8,0-1.5-0.1-2.1-0.4c-0.7-0.3-1.2-0.7-1.7-1.1s-0.9-1.1-1.1-1.8c-0.3-0.7-0.4-1.5-0.4-2.5
					s0.1-1.7,0.4-2.5s0.7-1.3,1.1-1.9c0.5-0.5,1-0.9,1.6-1.2c0.6-0.3,1.2-0.4,1.9-0.4c0.7,0,1.3,0.1,1.9,0.4c0.6,0.2,1,0.6,1.4,1.1
					c0.4,0.5,0.7,1,0.9,1.7c0.2,0.6,0.3,1.4,0.3,2.2c0,0.2,0,0.4,0,0.6c0,0.2,0,0.4-0.1,0.5h-7.5c0.1,1.2,0.4,2.1,1.1,2.8
					c0.7,0.7,1.5,1,2.6,1c0.5,0,1-0.1,1.5-0.2s0.9-0.4,1.3-0.6l0.7,1.2c-0.5,0.3-1,0.6-1.6,0.8C-5324.3,788.9-5325,789-5325.8,789z
					 M-5329.3,782.2h6c0-1.1-0.2-2-0.7-2.6c-0.5-0.6-1.2-0.9-2-0.9c-0.4,0-0.8,0.1-1.1,0.2c-0.4,0.2-0.7,0.4-1,0.7
					c-0.3,0.3-0.5,0.7-0.7,1.1C-5329.1,781.2-5329.3,781.7-5329.3,782.2z"/>
				<path class="st3" d="M-5312.3,789c-0.7,0-1.2-0.2-1.5-0.6c-0.3-0.4-0.5-1.1-0.5-1.9v-14.1h1.9v14.3c0,0.3,0.1,0.5,0.2,0.6
					c0.1,0.1,0.2,0.2,0.4,0.2c0.1,0,0.1,0,0.2,0c0.1,0,0.1,0,0.2,0l0.3,1.4c-0.1,0.1-0.3,0.1-0.4,0.1
					C-5311.8,789-5312.1,789-5312.3,789z"/>
				<path class="st3" d="M-5303.9,789c-0.8,0-1.5-0.1-2.1-0.4c-0.7-0.3-1.2-0.7-1.7-1.1s-0.9-1.1-1.1-1.8c-0.3-0.7-0.4-1.5-0.4-2.5
					s0.1-1.7,0.4-2.5s0.7-1.3,1.1-1.9c0.5-0.5,1-0.9,1.6-1.2c0.6-0.3,1.2-0.4,1.9-0.4c0.7,0,1.3,0.1,1.9,0.4c0.6,0.2,1,0.6,1.4,1.1
					c0.4,0.5,0.7,1,0.9,1.7c0.2,0.6,0.3,1.4,0.3,2.2c0,0.2,0,0.4,0,0.6c0,0.2,0,0.4-0.1,0.5h-7.5c0.1,1.2,0.4,2.1,1.1,2.8
					c0.7,0.7,1.5,1,2.6,1c0.5,0,1-0.1,1.5-0.2s0.9-0.4,1.3-0.6l0.7,1.2c-0.5,0.3-1,0.6-1.6,0.8C-5302.5,788.9-5303.2,789-5303.9,789
					z M-5307.4,782.2h6c0-1.1-0.2-2-0.7-2.6c-0.5-0.6-1.2-0.9-2-0.9c-0.4,0-0.8,0.1-1.1,0.2c-0.4,0.2-0.7,0.4-1,0.7
					c-0.3,0.3-0.5,0.7-0.7,1.1C-5307.3,781.2-5307.4,781.7-5307.4,782.2z"/>
				<path class="st3" d="M-5294.8,789c-0.9,0-1.7-0.3-2.3-0.8s-0.9-1.3-0.9-2.3c0-1.2,0.5-2.2,1.6-2.8c1.1-0.7,2.8-1.1,5.2-1.4
					c0-0.4,0-0.7-0.1-1c-0.1-0.3-0.2-0.6-0.4-0.9s-0.4-0.5-0.7-0.6c-0.3-0.2-0.7-0.2-1.1-0.2c-0.6,0-1.3,0.1-1.8,0.4
					c-0.6,0.2-1.1,0.5-1.5,0.8l-0.7-1.3c0.5-0.3,1.2-0.7,1.9-1c0.8-0.3,1.6-0.5,2.5-0.5c1.4,0,2.4,0.4,3,1.3c0.6,0.8,0.9,2,0.9,3.3
					v6.9h-1.6l-0.2-1.3h-0.1c-0.5,0.4-1.1,0.8-1.7,1.1C-5293.4,788.8-5294.1,789-5294.8,789z M-5294.2,787.5c0.5,0,1-0.1,1.5-0.4
					c0.5-0.3,1-0.6,1.5-1.1v-3.1c-0.9,0.1-1.7,0.3-2.4,0.4c-0.6,0.2-1.1,0.4-1.5,0.6c-0.4,0.2-0.7,0.5-0.9,0.8s-0.3,0.6-0.3,1
					c0,0.6,0.2,1.1,0.6,1.4C-5295.3,787.3-5294.8,787.5-5294.2,787.5z"/>
				<path class="st3" d="M-5285.8,788.7v-11.2h1.6l0.2,2h0.1c0.4-0.7,0.8-1.3,1.4-1.7s1.1-0.6,1.8-0.6c0.4,0,0.8,0.1,1.2,0.2
					l-0.4,1.7c-0.2-0.1-0.4-0.1-0.5-0.1c-0.2,0-0.3,0-0.6,0c-0.5,0-1,0.2-1.5,0.6c-0.5,0.4-1,1-1.3,2v7.2H-5285.8z"/>
				<path class="st3" d="M-5277.8,788.7v-11.2h1.6l0.2,1.6h0.1c0.5-0.5,1.1-1,1.7-1.3c0.6-0.4,1.3-0.5,2.1-0.5c1.2,0,2,0.4,2.6,1.1
					c0.5,0.7,0.8,1.8,0.8,3.3v7.1h-1.9v-6.8c0-1.1-0.2-1.8-0.5-2.3s-0.9-0.7-1.6-0.7c-0.6,0-1.1,0.1-1.5,0.4c-0.4,0.3-1,0.7-1.5,1.3
					v8.1H-5277.8z"/>
				<path class="st3" d="M-5264.3,775.2c-0.4,0-0.7-0.1-0.9-0.3c-0.3-0.2-0.4-0.5-0.4-0.9c0-0.4,0.1-0.7,0.4-0.9
					c0.3-0.2,0.6-0.3,0.9-0.3s0.7,0.1,0.9,0.3c0.3,0.2,0.4,0.5,0.4,0.9c0,0.4-0.1,0.6-0.4,0.9
					C-5263.6,775.1-5263.9,775.2-5264.3,775.2z M-5265.2,788.7v-11.2h1.9v11.2H-5265.2z"/>
				<path class="st3" d="M-5259.6,788.7v-11.2h1.6l0.2,1.6h0.1c0.5-0.5,1.1-1,1.7-1.3c0.6-0.4,1.3-0.5,2.1-0.5c1.2,0,2,0.4,2.6,1.1
					c0.5,0.7,0.8,1.8,0.8,3.3v7.1h-1.9v-6.8c0-1.1-0.2-1.8-0.5-2.3c-0.3-0.5-0.9-0.7-1.6-0.7c-0.6,0-1.1,0.1-1.5,0.4s-1,0.7-1.5,1.3
					v8.1H-5259.6z"/>
				<path class="st3" d="M-5243.2,793.9c-0.7,0-1.3-0.1-1.9-0.2c-0.6-0.1-1.1-0.3-1.5-0.6s-0.7-0.6-0.9-0.9s-0.3-0.8-0.3-1.3
					c0-0.5,0.1-0.9,0.4-1.4c0.3-0.4,0.7-0.8,1.2-1.2v-0.1c-0.3-0.2-0.5-0.4-0.7-0.7c-0.2-0.3-0.3-0.7-0.3-1.1c0-0.5,0.1-0.9,0.4-1.2
					c0.3-0.4,0.5-0.6,0.8-0.8v-0.1c-0.4-0.3-0.7-0.7-1-1.2s-0.4-1.1-0.4-1.8c0-0.6,0.1-1.2,0.3-1.7c0.2-0.5,0.5-0.9,0.9-1.3
					c0.4-0.3,0.8-0.6,1.3-0.8c0.5-0.2,1.1-0.3,1.6-0.3c0.3,0,0.6,0,0.9,0.1c0.3,0.1,0.5,0.1,0.7,0.2h3.9v1.4h-2.3
					c0.3,0.3,0.5,0.6,0.7,1c0.2,0.4,0.3,0.8,0.3,1.3c0,0.6-0.1,1.1-0.3,1.6c-0.2,0.5-0.5,0.9-0.9,1.2c-0.4,0.3-0.8,0.6-1.3,0.8
					c-0.5,0.2-1,0.3-1.6,0.3c-0.3,0-0.6,0-0.9-0.1c-0.3-0.1-0.6-0.2-0.8-0.3c-0.2,0.2-0.4,0.4-0.5,0.6c-0.1,0.2-0.2,0.5-0.2,0.8
					c0,0.4,0.1,0.6,0.4,0.9c0.3,0.2,0.8,0.3,1.6,0.3h2.2c1.3,0,2.3,0.2,2.9,0.6c0.7,0.4,1,1.1,1,2c0,0.5-0.1,1-0.4,1.5
					s-0.6,0.9-1.1,1.2s-1.1,0.6-1.8,0.8C-5241.5,793.8-5242.3,793.9-5243.2,793.9z M-5242.9,792.5c0.5,0,1-0.1,1.5-0.2
					c0.4-0.1,0.8-0.3,1.1-0.5s0.5-0.4,0.7-0.7c0.2-0.3,0.3-0.6,0.3-0.9c0-0.5-0.2-0.9-0.6-1.1c-0.4-0.2-0.9-0.3-1.7-0.3h-1.9
					c-0.2,0-0.4,0-0.7,0c-0.3,0-0.5-0.1-0.7-0.1c-0.4,0.3-0.7,0.6-0.9,0.9c-0.2,0.3-0.3,0.6-0.3,1c0,0.6,0.3,1.1,0.9,1.4
					C-5244.7,792.4-5243.9,792.5-5242.9,792.5z M-5243.2,783.9c0.3,0,0.6-0.1,0.9-0.2c0.3-0.1,0.5-0.3,0.8-0.5
					c0.2-0.2,0.4-0.5,0.5-0.8s0.2-0.7,0.2-1.1c0-0.8-0.2-1.5-0.7-1.9s-1-0.7-1.7-0.7s-1.2,0.2-1.7,0.7c-0.5,0.5-0.7,1.1-0.7,1.9
					c0,0.4,0.1,0.8,0.2,1.1c0.1,0.3,0.3,0.6,0.5,0.8c0.2,0.2,0.5,0.4,0.8,0.5C-5243.8,783.8-5243.5,783.9-5243.2,783.9z"/>
				<path class="st3" d="M-5230.8,788.7v-16.4h1.9v4.5l-0.1,2.3c0.5-0.5,1.1-0.9,1.7-1.3c0.6-0.4,1.3-0.5,2-0.5c1.2,0,2,0.4,2.6,1.1
					c0.5,0.7,0.8,1.8,0.8,3.3v7.1h-1.9v-6.8c0-1.1-0.2-1.8-0.5-2.3s-0.9-0.7-1.6-0.7c-0.6,0-1.1,0.1-1.5,0.4c-0.4,0.3-1,0.7-1.5,1.3
					v8.1H-5230.8z"/>
				<path class="st3" d="M-5215,789c-1.2,0-2.1-0.4-2.6-1.1c-0.5-0.7-0.8-1.8-0.8-3.3v-7.1h1.9v6.8c0,1.1,0.2,1.8,0.5,2.3
					s0.9,0.7,1.6,0.7c0.6,0,1.1-0.1,1.5-0.4c0.4-0.3,0.9-0.8,1.5-1.4v-7.9h1.9v11.2h-1.6l-0.2-1.7h-0.1c-0.5,0.6-1.1,1.1-1.6,1.5
					C-5213.5,788.8-5214.2,789-5215,789z"/>
				<path class="st3" d="M-5200.8,789c-0.5,0-1.1-0.1-1.6-0.4c-0.6-0.3-1.1-0.6-1.6-1h-0.1l-0.2,1.2h-1.5v-16.4h1.9v4.5l0,2
					c0.5-0.4,1.1-0.8,1.7-1.1c0.6-0.3,1.2-0.4,1.8-0.4c0.7,0,1.4,0.1,1.9,0.4c0.6,0.3,1,0.7,1.4,1.2c0.4,0.5,0.7,1.1,0.9,1.8
					c0.2,0.7,0.3,1.5,0.3,2.3c0,1-0.1,1.8-0.4,2.6s-0.6,1.4-1.1,1.9c-0.4,0.5-1,0.9-1.5,1.2C-5199.6,788.8-5200.2,789-5200.8,789z
					 M-5201.1,787.4c0.5,0,0.9-0.1,1.3-0.3s0.7-0.5,1-0.9s0.5-0.8,0.7-1.4c0.2-0.6,0.2-1.2,0.2-1.9c0-0.6-0.1-1.2-0.2-1.7
					c-0.1-0.5-0.3-0.9-0.5-1.3c-0.2-0.4-0.5-0.6-0.9-0.8c-0.4-0.2-0.8-0.3-1.3-0.3c-0.9,0-1.9,0.5-3,1.5v5.9c0.5,0.4,1,0.7,1.5,0.9
					C-5201.9,787.3-5201.5,787.4-5201.1,787.4z"/>
				<path class="st3" d="M-5188.1,788.7v-9.6h-1.5v-1.4l1.5-0.1v-1.8c0-1.1,0.3-2.1,0.8-2.7c0.5-0.7,1.4-1,2.5-1c0.4,0,0.7,0,1,0.1
					c0.3,0.1,0.6,0.2,0.9,0.3l-0.4,1.4c-0.4-0.2-0.8-0.3-1.3-0.3c-1,0-1.6,0.7-1.6,2.2v1.8h2.4v1.5h-2.4v9.6H-5188.1z"/>
				<path class="st3" d="M-5177.6,789c-0.7,0-1.3-0.1-2-0.4s-1.2-0.6-1.6-1.1c-0.5-0.5-0.9-1.1-1.1-1.8c-0.3-0.7-0.4-1.6-0.4-2.5
					c0-0.9,0.1-1.8,0.4-2.5c0.3-0.7,0.7-1.3,1.1-1.9c0.5-0.5,1-0.9,1.6-1.2c0.6-0.3,1.3-0.4,2-0.4s1.3,0.1,2,0.4
					c0.6,0.3,1.2,0.6,1.6,1.2c0.5,0.5,0.9,1.1,1.1,1.9c0.3,0.7,0.4,1.6,0.4,2.5c0,0.9-0.1,1.7-0.4,2.5c-0.3,0.7-0.7,1.3-1.1,1.8
					c-0.5,0.5-1,0.9-1.6,1.1S-5176.9,789-5177.6,789z M-5177.6,787.4c0.5,0,0.9-0.1,1.3-0.3s0.7-0.5,1-0.9c0.3-0.4,0.5-0.8,0.7-1.3
					c0.2-0.5,0.2-1.1,0.2-1.7c0-0.6-0.1-1.2-0.2-1.8c-0.2-0.5-0.4-1-0.7-1.4c-0.3-0.4-0.6-0.7-1-0.9s-0.8-0.3-1.3-0.3
					c-0.5,0-0.9,0.1-1.3,0.3c-0.4,0.2-0.7,0.5-1,0.9c-0.3,0.4-0.5,0.8-0.7,1.4c-0.2,0.5-0.2,1.1-0.2,1.8c0,0.6,0.1,1.2,0.2,1.7
					c0.2,0.5,0.4,1,0.7,1.3c0.3,0.4,0.6,0.7,1,0.9C-5178.5,787.3-5178.1,787.4-5177.6,787.4z"/>
				<path class="st3" d="M-5169.5,788.7v-11.2h1.6l0.2,2h0.1c0.4-0.7,0.8-1.3,1.4-1.7c0.5-0.4,1.1-0.6,1.8-0.6
					c0.4,0,0.8,0.1,1.2,0.2l-0.4,1.7c-0.2-0.1-0.4-0.1-0.5-0.1c-0.2,0-0.3,0-0.6,0c-0.5,0-1,0.2-1.5,0.6c-0.5,0.4-1,1-1.3,2v7.2
					H-5169.5z"/>
				<path class="st3" d="M-5154.3,789c-0.9,0-1.7-0.3-2.3-0.8c-0.6-0.6-0.9-1.3-0.9-2.3c0-1.2,0.5-2.2,1.6-2.8
					c1.1-0.7,2.8-1.1,5.2-1.4c0-0.4,0-0.7-0.1-1c-0.1-0.3-0.2-0.6-0.4-0.9s-0.4-0.5-0.7-0.6s-0.7-0.2-1.1-0.2
					c-0.6,0-1.3,0.1-1.8,0.4c-0.6,0.2-1.1,0.5-1.5,0.8l-0.7-1.3c0.5-0.3,1.2-0.7,1.9-1s1.6-0.5,2.5-0.5c1.4,0,2.4,0.4,3,1.3
					s0.9,2,0.9,3.3v6.9h-1.6l-0.2-1.3h-0.1c-0.5,0.4-1.1,0.8-1.7,1.1C-5153,788.8-5153.6,789-5154.3,789z M-5153.8,787.5
					c0.5,0,1-0.1,1.5-0.4c0.5-0.3,1-0.6,1.5-1.1v-3.1c-0.9,0.1-1.7,0.3-2.4,0.4c-0.6,0.2-1.1,0.4-1.5,0.6c-0.4,0.2-0.7,0.5-0.9,0.8
					c-0.2,0.3-0.3,0.6-0.3,1c0,0.6,0.2,1.1,0.6,1.4C-5154.8,787.3-5154.3,787.5-5153.8,787.5z"/>
				<path class="st3" d="M-5143.3,789c-0.7,0-1.2-0.2-1.5-0.6c-0.3-0.4-0.5-1.1-0.5-1.9v-14.1h1.9v14.3c0,0.3,0.1,0.5,0.2,0.6
					s0.2,0.2,0.4,0.2c0.1,0,0.1,0,0.2,0s0.1,0,0.2,0l0.3,1.4c-0.1,0.1-0.3,0.1-0.4,0.1C-5142.8,789-5143.1,789-5143.3,789z"/>
				<path class="st3" d="M-5137.5,789c-0.7,0-1.2-0.2-1.5-0.6c-0.3-0.4-0.5-1.1-0.5-1.9v-14.1h1.9v14.3c0,0.3,0.1,0.5,0.2,0.6
					s0.2,0.2,0.4,0.2c0.1,0,0.1,0,0.2,0s0.1,0,0.2,0l0.3,1.4c-0.1,0.1-0.3,0.1-0.4,0.1C-5137,789-5137.2,789-5137.5,789z"/>
				<path class="st3" d="M-5125.5,789c-0.6,0-1.1-0.1-1.5-0.3s-0.7-0.4-1-0.8s-0.4-0.7-0.5-1.2s-0.2-1-0.2-1.5v-6.2h-1.7v-1.4
					l1.7-0.1l0.2-3.1h1.6v3.1h3v1.5h-3v6.2c0,0.7,0.1,1.2,0.4,1.6s0.7,0.6,1.3,0.6c0.2,0,0.4,0,0.6-0.1c0.2-0.1,0.4-0.1,0.6-0.2
					l0.4,1.4c-0.3,0.1-0.6,0.2-1,0.3S-5125.1,789-5125.5,789z"/>
				<path class="st3" d="M-5121.2,788.7v-16.4h1.9v4.5l-0.1,2.3c0.5-0.5,1.1-0.9,1.7-1.3s1.3-0.5,2-0.5c1.2,0,2,0.4,2.6,1.1
					c0.5,0.7,0.8,1.8,0.8,3.3v7.1h-1.9v-6.8c0-1.1-0.2-1.8-0.5-2.3c-0.3-0.5-0.9-0.7-1.6-0.7c-0.6,0-1.1,0.1-1.5,0.4
					c-0.4,0.3-1,0.7-1.5,1.3v8.1H-5121.2z"/>
				<path class="st3" d="M-5107.7,775.2c-0.4,0-0.7-0.1-0.9-0.3c-0.3-0.2-0.4-0.5-0.4-0.9c0-0.4,0.1-0.7,0.4-0.9
					c0.3-0.2,0.6-0.3,0.9-0.3c0.4,0,0.7,0.1,0.9,0.3c0.3,0.2,0.4,0.5,0.4,0.9c0,0.4-0.1,0.6-0.4,0.9
					C-5107.1,775.1-5107.4,775.2-5107.7,775.2z M-5108.7,788.7v-11.2h1.9v11.2H-5108.7z"/>
				<path class="st3" d="M-5103,788.7v-11.2h1.6l0.2,1.6h0.1c0.5-0.5,1.1-1,1.7-1.3c0.6-0.4,1.3-0.5,2.1-0.5c1.2,0,2,0.4,2.6,1.1
					c0.5,0.7,0.8,1.8,0.8,3.3v7.1h-1.9v-6.8c0-1.1-0.2-1.8-0.5-2.3c-0.3-0.5-0.9-0.7-1.6-0.7c-0.6,0-1.1,0.1-1.5,0.4
					c-0.4,0.3-1,0.7-1.5,1.3v8.1H-5103z"/>
				<path class="st3" d="M-5086.7,793.9c-0.7,0-1.3-0.1-1.9-0.2c-0.6-0.1-1.1-0.3-1.5-0.6s-0.7-0.6-0.9-0.9
					c-0.2-0.4-0.3-0.8-0.3-1.3c0-0.5,0.1-0.9,0.4-1.4c0.3-0.4,0.7-0.8,1.2-1.2v-0.1c-0.3-0.2-0.5-0.4-0.7-0.7
					c-0.2-0.3-0.3-0.7-0.3-1.1c0-0.5,0.1-0.9,0.4-1.2c0.3-0.4,0.5-0.6,0.8-0.8v-0.1c-0.4-0.3-0.7-0.7-1-1.2s-0.4-1.1-0.4-1.8
					c0-0.6,0.1-1.2,0.3-1.7c0.2-0.5,0.5-0.9,0.9-1.3c0.4-0.3,0.8-0.6,1.3-0.8c0.5-0.2,1.1-0.3,1.6-0.3c0.3,0,0.6,0,0.9,0.1
					s0.5,0.1,0.7,0.2h3.9v1.4h-2.3c0.3,0.3,0.5,0.6,0.7,1c0.2,0.4,0.3,0.8,0.3,1.3c0,0.6-0.1,1.1-0.3,1.6c-0.2,0.5-0.5,0.9-0.9,1.2
					c-0.4,0.3-0.8,0.6-1.3,0.8c-0.5,0.2-1,0.3-1.6,0.3c-0.3,0-0.6,0-0.9-0.1s-0.6-0.2-0.8-0.3c-0.2,0.2-0.4,0.4-0.5,0.6
					c-0.1,0.2-0.2,0.5-0.2,0.8c0,0.4,0.1,0.6,0.4,0.9c0.3,0.2,0.8,0.3,1.6,0.3h2.2c1.3,0,2.3,0.2,2.9,0.6c0.7,0.4,1,1.1,1,2
					c0,0.5-0.1,1-0.4,1.5s-0.6,0.9-1.1,1.2c-0.5,0.4-1.1,0.6-1.8,0.8C-5085,793.8-5085.8,793.9-5086.7,793.9z M-5086.4,792.5
					c0.5,0,1-0.1,1.5-0.2c0.4-0.1,0.8-0.3,1.1-0.5s0.5-0.4,0.7-0.7s0.3-0.6,0.3-0.9c0-0.5-0.2-0.9-0.6-1.1c-0.4-0.2-0.9-0.3-1.7-0.3
					h-1.9c-0.2,0-0.4,0-0.7,0c-0.3,0-0.5-0.1-0.7-0.1c-0.4,0.3-0.7,0.6-0.9,0.9c-0.2,0.3-0.3,0.6-0.3,1c0,0.6,0.3,1.1,0.9,1.4
					S-5087.4,792.5-5086.4,792.5z M-5086.7,783.9c0.3,0,0.6-0.1,0.9-0.2c0.3-0.1,0.5-0.3,0.8-0.5c0.2-0.2,0.4-0.5,0.5-0.8
					s0.2-0.7,0.2-1.1c0-0.8-0.2-1.5-0.7-1.9s-1-0.7-1.7-0.7s-1.2,0.2-1.7,0.7c-0.5,0.5-0.7,1.1-0.7,1.9c0,0.4,0.1,0.8,0.2,1.1
					s0.3,0.6,0.5,0.8c0.2,0.2,0.5,0.4,0.8,0.5C-5087.3,783.8-5087,783.9-5086.7,783.9z"/>
				<path class="st3" d="M-5076,789c-0.8,0-1.6-0.1-2.3-0.4s-1.3-0.7-1.9-1.1l0.9-1.3c0.5,0.4,1,0.7,1.5,1c0.5,0.2,1.1,0.4,1.8,0.4
					c0.7,0,1.3-0.2,1.7-0.5c0.4-0.3,0.6-0.8,0.6-1.2c0-0.3-0.1-0.5-0.2-0.8s-0.3-0.4-0.6-0.6c-0.2-0.2-0.5-0.3-0.8-0.4
					c-0.3-0.1-0.6-0.2-0.9-0.4c-0.4-0.1-0.8-0.3-1.2-0.5c-0.4-0.2-0.8-0.4-1.1-0.6s-0.6-0.5-0.8-0.9c-0.2-0.3-0.3-0.7-0.3-1.2
					c0-0.4,0.1-0.9,0.3-1.3c0.2-0.4,0.4-0.7,0.8-1c0.3-0.3,0.7-0.5,1.2-0.7c0.5-0.2,1-0.2,1.6-0.2c0.7,0,1.4,0.1,1.9,0.4
					c0.6,0.2,1.1,0.5,1.5,0.9l-0.9,1.2c-0.4-0.3-0.8-0.5-1.2-0.7s-0.9-0.3-1.4-0.3c-0.7,0-1.2,0.2-1.6,0.5c-0.3,0.3-0.5,0.7-0.5,1.1
					c0,0.3,0.1,0.5,0.2,0.7c0.1,0.2,0.3,0.4,0.6,0.5c0.2,0.1,0.5,0.3,0.8,0.4c0.3,0.1,0.6,0.2,0.9,0.4c0.4,0.2,0.8,0.3,1.2,0.5
					s0.8,0.4,1.1,0.6s0.6,0.6,0.8,0.9c0.2,0.4,0.3,0.8,0.3,1.3c0,0.5-0.1,0.9-0.3,1.3c-0.2,0.4-0.4,0.8-0.8,1.1s-0.8,0.5-1.3,0.7
					C-5074.7,788.9-5075.3,789-5076,789z"/>
			</g>
			<g class="st2">
				<path class="st3" d="M-5451.7,826c-0.7,0-1.4-0.1-2.1-0.4s-1.2-0.6-1.7-1.1c-0.5-0.5-0.8-1.1-1.1-1.8c-0.3-0.7-0.4-1.6-0.4-2.5
					c0-0.9,0.1-1.8,0.4-2.5c0.3-0.7,0.7-1.3,1.2-1.9s1.1-0.9,1.7-1.2c0.7-0.3,1.3-0.4,2.1-0.4c0.7,0,1.4,0.1,1.9,0.4
					c0.5,0.3,1,0.6,1.4,0.9l-1,1.2c-0.3-0.3-0.7-0.5-1-0.7c-0.4-0.2-0.8-0.3-1.2-0.3c-0.5,0-1,0.1-1.4,0.3s-0.8,0.5-1.1,0.9
					c-0.3,0.4-0.5,0.8-0.7,1.4c-0.2,0.5-0.3,1.1-0.3,1.8c0,0.6,0.1,1.2,0.3,1.7c0.2,0.5,0.4,1,0.7,1.3c0.3,0.4,0.7,0.7,1.1,0.9
					c0.4,0.2,0.9,0.3,1.4,0.3c0.5,0,1-0.1,1.4-0.3c0.4-0.2,0.8-0.5,1.2-0.8l0.8,1.3c-0.5,0.4-1.1,0.8-1.7,1S-5451,826-5451.7,826z"
					/>
				<path class="st3" d="M-5442.4,826c-1.2,0-2.1-0.4-2.6-1.1c-0.5-0.7-0.8-1.8-0.8-3.3v-7.1h1.9v6.8c0,1.1,0.2,1.8,0.5,2.3
					s0.9,0.7,1.6,0.7c0.6,0,1.1-0.1,1.5-0.4c0.4-0.3,0.9-0.8,1.5-1.4v-7.9h1.9v11.2h-1.6l-0.2-1.7h-0.1c-0.5,0.6-1.1,1.1-1.6,1.5
					C-5440.9,825.8-5441.6,826-5442.4,826z"/>
				<path class="st3" d="M-5430.2,826c-0.8,0-1.6-0.1-2.3-0.4s-1.3-0.7-1.9-1.1l0.9-1.3c0.5,0.4,1,0.7,1.5,1
					c0.5,0.2,1.1,0.4,1.8,0.4c0.7,0,1.3-0.2,1.7-0.5c0.4-0.3,0.6-0.8,0.6-1.2c0-0.3-0.1-0.5-0.2-0.8s-0.3-0.4-0.6-0.6
					c-0.2-0.2-0.5-0.3-0.8-0.4c-0.3-0.1-0.6-0.2-0.9-0.4c-0.4-0.1-0.8-0.3-1.2-0.5c-0.4-0.2-0.8-0.4-1.1-0.6
					c-0.3-0.3-0.6-0.5-0.8-0.9c-0.2-0.3-0.3-0.7-0.3-1.2c0-0.4,0.1-0.9,0.3-1.3c0.2-0.4,0.4-0.7,0.8-1c0.3-0.3,0.7-0.5,1.2-0.7
					c0.5-0.2,1-0.2,1.6-0.2c0.7,0,1.4,0.1,1.9,0.4s1.1,0.5,1.5,0.9l-0.9,1.2c-0.4-0.3-0.8-0.5-1.2-0.7s-0.9-0.3-1.4-0.3
					c-0.7,0-1.2,0.2-1.6,0.5s-0.5,0.7-0.5,1.1c0,0.3,0.1,0.5,0.2,0.7c0.1,0.2,0.3,0.4,0.6,0.5s0.5,0.3,0.8,0.4
					c0.3,0.1,0.6,0.2,0.9,0.4c0.4,0.2,0.8,0.3,1.2,0.5c0.4,0.2,0.8,0.4,1.1,0.6c0.3,0.3,0.6,0.6,0.8,0.9c0.2,0.4,0.3,0.8,0.3,1.3
					c0,0.5-0.1,0.9-0.3,1.3c-0.2,0.4-0.4,0.8-0.8,1.1s-0.8,0.5-1.3,0.7C-5428.9,825.9-5429.5,826-5430.2,826z"/>
				<path class="st3" d="M-5420.4,826c-0.6,0-1.1-0.1-1.5-0.3s-0.7-0.4-1-0.8s-0.4-0.7-0.5-1.2c-0.1-0.5-0.2-1-0.2-1.5v-6.2h-1.7
					v-1.4l1.7-0.1l0.2-3.1h1.6v3.1h3v1.5h-3v6.2c0,0.7,0.1,1.2,0.4,1.6s0.7,0.6,1.3,0.6c0.2,0,0.4,0,0.6-0.1
					c0.2-0.1,0.4-0.1,0.6-0.2l0.4,1.4c-0.3,0.1-0.6,0.2-1,0.3C-5419.7,825.9-5420.1,826-5420.4,826z"/>
				<path class="st3" d="M-5412.1,826c-0.7,0-1.3-0.1-2-0.4s-1.2-0.6-1.6-1.1c-0.5-0.5-0.9-1.1-1.1-1.8c-0.3-0.7-0.4-1.6-0.4-2.5
					c0-0.9,0.1-1.8,0.4-2.5s0.7-1.3,1.1-1.9c0.5-0.5,1-0.9,1.6-1.2c0.6-0.3,1.3-0.4,2-0.4s1.3,0.1,2,0.4c0.6,0.3,1.2,0.6,1.6,1.2
					c0.5,0.5,0.9,1.1,1.1,1.9s0.4,1.6,0.4,2.5c0,0.9-0.1,1.7-0.4,2.5c-0.3,0.7-0.7,1.3-1.1,1.8c-0.5,0.5-1,0.9-1.6,1.1
					C-5410.8,825.9-5411.4,826-5412.1,826z M-5412.1,824.4c0.5,0,0.9-0.1,1.3-0.3c0.4-0.2,0.7-0.5,1-0.9c0.3-0.4,0.5-0.8,0.7-1.3
					c0.2-0.5,0.2-1.1,0.2-1.7c0-0.6-0.1-1.2-0.2-1.8c-0.2-0.5-0.4-1-0.7-1.4c-0.3-0.4-0.6-0.7-1-0.9c-0.4-0.2-0.8-0.3-1.3-0.3
					c-0.5,0-0.9,0.1-1.3,0.3c-0.4,0.2-0.7,0.5-1,0.9c-0.3,0.4-0.5,0.8-0.7,1.4c-0.2,0.5-0.2,1.1-0.2,1.8c0,0.6,0.1,1.2,0.2,1.7
					c0.2,0.5,0.4,1,0.7,1.3c0.3,0.4,0.6,0.7,1,0.9C-5413.1,824.3-5412.6,824.4-5412.1,824.4z"/>
				<path class="st3" d="M-5404,825.7v-11.2h1.6l0.2,1.6h0.1c0.5-0.5,1-1,1.6-1.3c0.6-0.4,1.2-0.5,1.9-0.5c0.9,0,1.5,0.2,2,0.6
					c0.5,0.4,0.8,0.9,1.1,1.6c0.6-0.6,1.2-1.2,1.8-1.6c0.6-0.4,1.2-0.6,1.9-0.6c1.1,0,2,0.4,2.6,1.1c0.6,0.7,0.8,1.8,0.8,3.3v7.1
					h-1.9v-6.8c0-1.1-0.2-1.8-0.5-2.3s-0.9-0.7-1.6-0.7c-0.8,0-1.8,0.6-2.8,1.7v8.1h-1.9v-6.8c0-1.1-0.2-1.8-0.5-2.3
					c-0.3-0.5-0.9-0.7-1.6-0.7c-0.8,0-1.8,0.6-2.8,1.7v8.1H-5404z"/>
				<path class="st3" d="M-5380.4,826c-0.8,0-1.5-0.1-2.1-0.4c-0.7-0.3-1.2-0.7-1.7-1.1s-0.9-1.1-1.1-1.8c-0.3-0.7-0.4-1.5-0.4-2.5
					s0.1-1.7,0.4-2.5s0.7-1.3,1.1-1.9c0.5-0.5,1-0.9,1.6-1.2c0.6-0.3,1.2-0.4,1.9-0.4c0.7,0,1.3,0.1,1.9,0.4c0.6,0.2,1,0.6,1.4,1.1
					c0.4,0.5,0.7,1,0.9,1.7c0.2,0.6,0.3,1.4,0.3,2.2c0,0.2,0,0.4,0,0.6c0,0.2,0,0.4-0.1,0.5h-7.5c0.1,1.2,0.4,2.1,1.1,2.8
					c0.7,0.7,1.5,1,2.6,1c0.5,0,1-0.1,1.5-0.2s0.9-0.4,1.3-0.6l0.7,1.2c-0.5,0.3-1,0.6-1.6,0.8C-5379,825.9-5379.7,826-5380.4,826z
					 M-5383.9,819.2h6c0-1.1-0.2-2-0.7-2.6c-0.5-0.6-1.2-0.9-2-0.9c-0.4,0-0.8,0.1-1.1,0.2c-0.4,0.2-0.7,0.4-1,0.7
					c-0.3,0.3-0.5,0.7-0.7,1.1C-5383.8,818.2-5383.9,818.7-5383.9,819.2z"/>
				<path class="st3" d="M-5373.5,825.7v-11.2h1.6l0.2,2h0.1c0.4-0.7,0.8-1.3,1.4-1.7s1.1-0.6,1.8-0.6c0.4,0,0.8,0.1,1.2,0.2
					l-0.4,1.7c-0.2-0.1-0.4-0.1-0.5-0.1c-0.2,0-0.3,0-0.6,0c-0.5,0-1,0.2-1.5,0.6c-0.5,0.4-1,1-1.3,2v7.2H-5373.5z"/>
				<path class="st3" d="M-5356.4,826c-0.8,0-1.5-0.1-2.1-0.4c-0.7-0.3-1.2-0.7-1.7-1.1s-0.9-1.1-1.1-1.8c-0.3-0.7-0.4-1.5-0.4-2.5
					s0.1-1.7,0.4-2.5s0.7-1.3,1.1-1.9c0.5-0.5,1-0.9,1.6-1.2c0.6-0.3,1.2-0.4,1.9-0.4c0.7,0,1.3,0.1,1.9,0.4c0.6,0.2,1,0.6,1.4,1.1
					c0.4,0.5,0.7,1,0.9,1.7c0.2,0.6,0.3,1.4,0.3,2.2c0,0.2,0,0.4,0,0.6c0,0.2,0,0.4-0.1,0.5h-7.5c0.1,1.2,0.4,2.1,1.1,2.8
					c0.7,0.7,1.5,1,2.6,1c0.5,0,1-0.1,1.5-0.2s0.9-0.4,1.3-0.6l0.7,1.2c-0.5,0.3-1,0.6-1.6,0.8C-5355,825.9-5355.7,826-5356.4,826z
					 M-5360,819.2h6c0-1.1-0.2-2-0.7-2.6c-0.5-0.6-1.2-0.9-2-0.9c-0.4,0-0.8,0.1-1.1,0.2c-0.4,0.2-0.7,0.4-1,0.7
					c-0.3,0.3-0.5,0.7-0.7,1.1C-5359.8,818.2-5359.9,818.7-5360,819.2z"/>
				<path class="st3" d="M-5351.3,825.7l3.7-5.8l-3.4-5.3h2l1.5,2.5c0.2,0.3,0.3,0.6,0.5,0.9s0.4,0.6,0.6,0.9h0.1
					c0.2-0.3,0.3-0.6,0.5-0.9s0.3-0.6,0.5-0.9l1.4-2.5h2l-3.4,5.5l3.6,5.6h-2l-1.6-2.6c-0.2-0.3-0.4-0.7-0.6-1
					c-0.2-0.3-0.4-0.7-0.6-1h-0.1c-0.2,0.3-0.4,0.6-0.6,1c-0.2,0.3-0.4,0.7-0.6,1l-1.5,2.6H-5351.3z"/>
				<path class="st3" d="M-5339.5,830.4v-15.9h1.6l0.2,1.3h0.1c0.5-0.4,1.1-0.8,1.7-1.1c0.6-0.3,1.2-0.5,1.9-0.5
					c0.7,0,1.4,0.1,1.9,0.4c0.6,0.3,1,0.7,1.4,1.2c0.4,0.5,0.6,1.1,0.8,1.8c0.2,0.7,0.3,1.5,0.3,2.4c0,1-0.1,1.8-0.4,2.5
					c-0.3,0.7-0.6,1.4-1.1,1.9s-1,0.9-1.5,1.2c-0.6,0.3-1.2,0.4-1.8,0.4c-0.5,0-1-0.1-1.6-0.3c-0.5-0.2-1-0.5-1.6-0.9l0,2v3.8
					H-5339.5z M-5334.8,824.4c0.5,0,0.9-0.1,1.3-0.3c0.4-0.2,0.7-0.5,1-0.9s0.5-0.8,0.7-1.4c0.2-0.6,0.2-1.2,0.2-1.9
					c0-0.6-0.1-1.2-0.2-1.7c-0.1-0.5-0.3-0.9-0.5-1.3s-0.5-0.6-0.9-0.8c-0.4-0.2-0.8-0.3-1.3-0.3c-0.5,0-1,0.1-1.4,0.4
					c-0.5,0.3-1,0.6-1.6,1.1v5.9c0.5,0.4,1,0.7,1.5,0.9C-5335.6,824.3-5335.2,824.4-5334.8,824.4z"/>
				<path class="st3" d="M-5322.2,826c-0.8,0-1.5-0.1-2.1-0.4c-0.7-0.3-1.2-0.7-1.7-1.1s-0.9-1.1-1.1-1.8c-0.3-0.7-0.4-1.5-0.4-2.5
					s0.1-1.7,0.4-2.5s0.7-1.3,1.1-1.9c0.5-0.5,1-0.9,1.6-1.2c0.6-0.3,1.2-0.4,1.9-0.4c0.7,0,1.3,0.1,1.9,0.4c0.6,0.2,1,0.6,1.4,1.1
					c0.4,0.5,0.7,1,0.9,1.7c0.2,0.6,0.3,1.4,0.3,2.2c0,0.2,0,0.4,0,0.6c0,0.2,0,0.4-0.1,0.5h-7.5c0.1,1.2,0.4,2.1,1.1,2.8
					c0.7,0.7,1.5,1,2.6,1c0.5,0,1-0.1,1.5-0.2s0.9-0.4,1.3-0.6l0.7,1.2c-0.5,0.3-1,0.6-1.6,0.8C-5320.7,825.9-5321.4,826-5322.2,826
					z M-5325.7,819.2h6c0-1.1-0.2-2-0.7-2.6c-0.5-0.6-1.2-0.9-2-0.9c-0.4,0-0.8,0.1-1.1,0.2c-0.4,0.2-0.7,0.4-1,0.7
					c-0.3,0.3-0.5,0.7-0.7,1.1C-5325.5,818.2-5325.6,818.7-5325.7,819.2z"/>
				<path class="st3" d="M-5315.3,825.7v-11.2h1.6l0.2,2h0.1c0.4-0.7,0.8-1.3,1.4-1.7s1.1-0.6,1.8-0.6c0.4,0,0.8,0.1,1.2,0.2
					l-0.4,1.7c-0.2-0.1-0.4-0.1-0.5-0.1c-0.2,0-0.3,0-0.6,0c-0.5,0-1,0.2-1.5,0.6c-0.5,0.4-1,1-1.3,2v7.2H-5315.3z"/>
				<path class="st3" d="M-5306.3,812.2c-0.4,0-0.7-0.1-0.9-0.3c-0.3-0.2-0.4-0.5-0.4-0.9c0-0.4,0.1-0.7,0.4-0.9
					c0.3-0.2,0.6-0.3,0.9-0.3s0.7,0.1,0.9,0.3c0.3,0.2,0.4,0.5,0.4,0.9c0,0.4-0.1,0.6-0.4,0.9
					C-5305.7,812.1-5306,812.2-5306.3,812.2z M-5307.3,825.7v-11.2h1.9v11.2H-5307.3z"/>
				<path class="st3" d="M-5297.1,826c-0.8,0-1.5-0.1-2.1-0.4c-0.7-0.3-1.2-0.7-1.7-1.1s-0.9-1.1-1.1-1.8c-0.3-0.7-0.4-1.5-0.4-2.5
					s0.1-1.7,0.4-2.5s0.7-1.3,1.1-1.9c0.5-0.5,1-0.9,1.6-1.2c0.6-0.3,1.2-0.4,1.9-0.4c0.7,0,1.3,0.1,1.9,0.4c0.6,0.2,1,0.6,1.4,1.1
					c0.4,0.5,0.7,1,0.9,1.7c0.2,0.6,0.3,1.4,0.3,2.2c0,0.2,0,0.4,0,0.6c0,0.2,0,0.4-0.1,0.5h-7.5c0.1,1.2,0.4,2.1,1.1,2.8
					c0.7,0.7,1.5,1,2.6,1c0.5,0,1-0.1,1.5-0.2s0.9-0.4,1.3-0.6l0.7,1.2c-0.5,0.3-1,0.6-1.6,0.8C-5295.7,825.9-5296.4,826-5297.1,826
					z M-5300.6,819.2h6c0-1.1-0.2-2-0.7-2.6c-0.5-0.6-1.2-0.9-2-0.9c-0.4,0-0.8,0.1-1.1,0.2c-0.4,0.2-0.7,0.4-1,0.7
					c-0.3,0.3-0.5,0.7-0.7,1.1C-5300.4,818.2-5300.6,818.7-5300.6,819.2z"/>
				<path class="st3" d="M-5290.2,825.7v-11.2h1.6l0.2,1.6h0.1c0.5-0.5,1.1-1,1.7-1.3c0.6-0.4,1.3-0.5,2.1-0.5c1.2,0,2,0.4,2.6,1.1
					c0.5,0.7,0.8,1.8,0.8,3.3v7.1h-1.9v-6.8c0-1.1-0.2-1.8-0.5-2.3s-0.9-0.7-1.6-0.7c-0.6,0-1.1,0.1-1.5,0.4c-0.4,0.3-1,0.7-1.5,1.3
					v8.1H-5290.2z"/>
				<path class="st3" d="M-5273.2,826c-0.7,0-1.4-0.1-2.1-0.4s-1.2-0.6-1.7-1.1c-0.5-0.5-0.8-1.1-1.1-1.8c-0.3-0.7-0.4-1.6-0.4-2.5
					c0-0.9,0.1-1.8,0.4-2.5c0.3-0.7,0.7-1.3,1.2-1.9s1.1-0.9,1.7-1.2c0.7-0.3,1.3-0.4,2.1-0.4c0.7,0,1.4,0.1,1.9,0.4
					c0.5,0.3,1,0.6,1.4,0.9l-1,1.2c-0.3-0.3-0.7-0.5-1-0.7c-0.4-0.2-0.8-0.3-1.2-0.3c-0.5,0-1,0.1-1.4,0.3s-0.8,0.5-1.1,0.9
					c-0.3,0.4-0.5,0.8-0.7,1.4c-0.2,0.5-0.3,1.1-0.3,1.8c0,0.6,0.1,1.2,0.3,1.7c0.2,0.5,0.4,1,0.7,1.3c0.3,0.4,0.7,0.7,1.1,0.9
					c0.4,0.2,0.9,0.3,1.4,0.3c0.5,0,1-0.1,1.4-0.3c0.4-0.2,0.8-0.5,1.2-0.8l0.8,1.3c-0.5,0.4-1.1,0.8-1.7,1S-5272.6,826-5273.2,826z
					"/>
				<path class="st3" d="M-5263.1,826c-0.8,0-1.5-0.1-2.1-0.4c-0.7-0.3-1.2-0.7-1.7-1.1s-0.9-1.1-1.1-1.8c-0.3-0.7-0.4-1.5-0.4-2.5
					s0.1-1.7,0.4-2.5s0.7-1.3,1.1-1.9c0.5-0.5,1-0.9,1.6-1.2c0.6-0.3,1.2-0.4,1.9-0.4c0.7,0,1.3,0.1,1.9,0.4s1,0.6,1.4,1.1
					c0.4,0.5,0.7,1,0.9,1.7c0.2,0.6,0.3,1.4,0.3,2.2c0,0.2,0,0.4,0,0.6c0,0.2,0,0.4-0.1,0.5h-7.5c0.1,1.2,0.4,2.1,1.1,2.8
					c0.7,0.7,1.5,1,2.6,1c0.5,0,1-0.1,1.5-0.2c0.5-0.2,0.9-0.4,1.3-0.6l0.7,1.2c-0.5,0.3-1,0.6-1.6,0.8
					C-5261.7,825.9-5262.4,826-5263.1,826z M-5266.6,819.2h6c0-1.1-0.2-2-0.7-2.6c-0.5-0.6-1.2-0.9-2-0.9c-0.4,0-0.8,0.1-1.1,0.2
					s-0.7,0.4-1,0.7c-0.3,0.3-0.5,0.7-0.7,1.1C-5266.5,818.2-5266.6,818.7-5266.6,819.2z"/>
				<path class="st3" d="M-5256.6,829.6l-0.5-1.1c0.7-0.3,1.2-0.7,1.5-1.2c0.4-0.5,0.5-1,0.5-1.6c0,0-0.1,0-0.2,0
					c-0.4,0-0.7-0.1-1-0.3c-0.3-0.2-0.4-0.5-0.4-1c0-0.4,0.1-0.7,0.4-1c0.3-0.2,0.6-0.4,1-0.4c0.5,0,0.9,0.2,1.2,0.6
					c0.3,0.4,0.4,0.9,0.4,1.6c0,1-0.3,1.9-0.8,2.6S-5255.7,829.2-5256.6,829.6z"/>
				<path class="st3" d="M-5243,826c-0.8,0-1.6-0.1-2.3-0.4s-1.3-0.7-1.9-1.1l0.9-1.3c0.5,0.4,1,0.7,1.5,1c0.5,0.2,1.1,0.4,1.8,0.4
					c0.7,0,1.3-0.2,1.7-0.5c0.4-0.3,0.6-0.8,0.6-1.2c0-0.3-0.1-0.5-0.2-0.8s-0.3-0.4-0.6-0.6c-0.2-0.2-0.5-0.3-0.8-0.4
					c-0.3-0.1-0.6-0.2-0.9-0.4c-0.4-0.1-0.8-0.3-1.2-0.5c-0.4-0.2-0.8-0.4-1.1-0.6s-0.6-0.5-0.8-0.9c-0.2-0.3-0.3-0.7-0.3-1.2
					c0-0.4,0.1-0.9,0.3-1.3c0.2-0.4,0.4-0.7,0.8-1c0.3-0.3,0.7-0.5,1.2-0.7c0.5-0.2,1-0.2,1.6-0.2c0.7,0,1.4,0.1,1.9,0.4
					c0.6,0.2,1.1,0.5,1.5,0.9l-0.9,1.2c-0.4-0.3-0.8-0.5-1.2-0.7s-0.9-0.3-1.4-0.3c-0.7,0-1.2,0.2-1.6,0.5s-0.5,0.7-0.5,1.1
					c0,0.3,0.1,0.5,0.2,0.7c0.1,0.2,0.3,0.4,0.6,0.5s0.5,0.3,0.8,0.4c0.3,0.1,0.6,0.2,0.9,0.4c0.4,0.2,0.8,0.3,1.2,0.5
					s0.8,0.4,1.1,0.6c0.3,0.3,0.6,0.6,0.8,0.9c0.2,0.4,0.3,0.8,0.3,1.3c0,0.5-0.1,0.9-0.3,1.3c-0.2,0.4-0.4,0.8-0.8,1.1
					c-0.3,0.3-0.8,0.5-1.3,0.7C-5241.8,825.9-5242.3,826-5243,826z"/>
				<path class="st3" d="M-5233.7,826c-0.9,0-1.7-0.3-2.3-0.8s-0.9-1.3-0.9-2.3c0-1.2,0.5-2.2,1.6-2.8c1.1-0.7,2.8-1.1,5.2-1.4
					c0-0.4,0-0.7-0.1-1c-0.1-0.3-0.2-0.6-0.4-0.9c-0.2-0.3-0.4-0.5-0.7-0.6s-0.7-0.2-1.1-0.2c-0.6,0-1.3,0.1-1.8,0.4
					c-0.6,0.2-1.1,0.5-1.5,0.8l-0.7-1.3c0.5-0.3,1.2-0.7,1.9-1c0.8-0.3,1.6-0.5,2.5-0.5c1.4,0,2.4,0.4,3,1.3s0.9,2,0.9,3.3v6.9h-1.6
					l-0.2-1.3h-0.1c-0.5,0.4-1.1,0.8-1.7,1.1C-5232.3,825.8-5233,826-5233.7,826z M-5233.2,824.5c0.5,0,1-0.1,1.5-0.4
					c0.5-0.3,1-0.6,1.5-1.1v-3.1c-0.9,0.1-1.7,0.3-2.4,0.4c-0.6,0.2-1.2,0.4-1.5,0.6c-0.4,0.2-0.7,0.5-0.9,0.8s-0.3,0.6-0.3,1
					c0,0.6,0.2,1.1,0.6,1.4C-5234.2,824.3-5233.7,824.5-5233.2,824.5z"/>
				<path class="st3" d="M-5222.7,826c-0.7,0-1.2-0.2-1.5-0.6c-0.3-0.4-0.5-1.1-0.5-1.9v-14.1h1.9v14.3c0,0.3,0.1,0.5,0.2,0.6
					s0.2,0.2,0.4,0.2c0.1,0,0.1,0,0.2,0c0.1,0,0.1,0,0.2,0l0.3,1.4c-0.1,0.1-0.3,0.1-0.4,0.1C-5222.2,826-5222.4,826-5222.7,826z"/>
				<path class="st3" d="M-5214.3,826c-0.8,0-1.5-0.1-2.1-0.4c-0.7-0.3-1.2-0.7-1.7-1.1s-0.9-1.1-1.1-1.8c-0.3-0.7-0.4-1.5-0.4-2.5
					s0.1-1.7,0.4-2.5s0.7-1.3,1.1-1.9c0.5-0.5,1-0.9,1.6-1.2c0.6-0.3,1.2-0.4,1.9-0.4c0.7,0,1.3,0.1,1.9,0.4s1,0.6,1.4,1.1
					c0.4,0.5,0.7,1,0.9,1.7c0.2,0.6,0.3,1.4,0.3,2.2c0,0.2,0,0.4,0,0.6c0,0.2,0,0.4-0.1,0.5h-7.5c0.1,1.2,0.4,2.1,1.1,2.8
					c0.7,0.7,1.5,1,2.6,1c0.5,0,1-0.1,1.5-0.2c0.5-0.2,0.9-0.4,1.3-0.6l0.7,1.2c-0.5,0.3-1,0.6-1.6,0.8
					C-5212.8,825.9-5213.5,826-5214.3,826z M-5217.8,819.2h6c0-1.1-0.2-2-0.7-2.6c-0.5-0.6-1.2-0.9-2-0.9c-0.4,0-0.8,0.1-1.1,0.2
					s-0.7,0.4-1,0.7s-0.5,0.7-0.7,1.1C-5217.6,818.2-5217.8,818.7-5217.8,819.2z"/>
				<path class="st3" d="M-5204.5,826c-0.8,0-1.6-0.1-2.3-0.4s-1.3-0.7-1.9-1.1l0.9-1.3c0.5,0.4,1,0.7,1.5,1
					c0.5,0.2,1.1,0.4,1.8,0.4c0.7,0,1.3-0.2,1.7-0.5c0.4-0.3,0.6-0.8,0.6-1.2c0-0.3-0.1-0.5-0.2-0.8s-0.3-0.4-0.6-0.6
					c-0.2-0.2-0.5-0.3-0.8-0.4c-0.3-0.1-0.6-0.2-0.9-0.4c-0.4-0.1-0.8-0.3-1.2-0.5c-0.4-0.2-0.8-0.4-1.1-0.6
					c-0.3-0.3-0.6-0.5-0.8-0.9c-0.2-0.3-0.3-0.7-0.3-1.2c0-0.4,0.1-0.9,0.3-1.3c0.2-0.4,0.4-0.7,0.8-1c0.3-0.3,0.7-0.5,1.2-0.7
					c0.5-0.2,1-0.2,1.6-0.2c0.7,0,1.4,0.1,1.9,0.4c0.6,0.2,1.1,0.5,1.5,0.9l-0.9,1.2c-0.4-0.3-0.8-0.5-1.2-0.7s-0.9-0.3-1.4-0.3
					c-0.7,0-1.2,0.2-1.6,0.5s-0.5,0.7-0.5,1.1c0,0.3,0.1,0.5,0.2,0.7s0.3,0.4,0.6,0.5s0.5,0.3,0.8,0.4c0.3,0.1,0.6,0.2,0.9,0.4
					c0.4,0.2,0.8,0.3,1.2,0.5c0.4,0.2,0.8,0.4,1.1,0.6s0.6,0.6,0.8,0.9c0.2,0.4,0.3,0.8,0.3,1.3c0,0.5-0.1,0.9-0.3,1.3
					c-0.2,0.4-0.4,0.8-0.8,1.1c-0.3,0.3-0.8,0.5-1.3,0.7C-5203.3,825.9-5203.8,826-5204.5,826z"/>
				<path class="st3" d="M-5198.1,829.6l-0.5-1.1c0.7-0.3,1.2-0.7,1.5-1.2c0.4-0.5,0.5-1,0.5-1.6c0,0-0.1,0-0.2,0
					c-0.4,0-0.7-0.1-1-0.3c-0.3-0.2-0.4-0.5-0.4-1c0-0.4,0.1-0.7,0.4-1c0.3-0.2,0.6-0.4,1-0.4c0.5,0,0.9,0.2,1.2,0.6
					c0.3,0.4,0.4,0.9,0.4,1.6c0,1-0.3,1.9-0.8,2.6S-5197.2,829.2-5198.1,829.6z"/>
				<path class="st3" d="M-5184.5,826c-0.8,0-1.6-0.1-2.3-0.4s-1.3-0.7-1.9-1.1l0.9-1.3c0.5,0.4,1,0.7,1.5,1
					c0.5,0.2,1.1,0.4,1.8,0.4c0.7,0,1.3-0.2,1.7-0.5c0.4-0.3,0.6-0.8,0.6-1.2c0-0.3-0.1-0.5-0.2-0.8c-0.2-0.2-0.3-0.4-0.6-0.6
					c-0.2-0.2-0.5-0.3-0.8-0.4c-0.3-0.1-0.6-0.2-0.9-0.4c-0.4-0.1-0.8-0.3-1.2-0.5c-0.4-0.2-0.8-0.4-1.1-0.6s-0.6-0.5-0.8-0.9
					c-0.2-0.3-0.3-0.7-0.3-1.2c0-0.4,0.1-0.9,0.3-1.3c0.2-0.4,0.4-0.7,0.8-1c0.3-0.3,0.7-0.5,1.2-0.7c0.5-0.2,1-0.2,1.6-0.2
					c0.7,0,1.4,0.1,1.9,0.4s1.1,0.5,1.5,0.9l-0.9,1.2c-0.4-0.3-0.8-0.5-1.2-0.7s-0.9-0.3-1.4-0.3c-0.7,0-1.2,0.2-1.6,0.5
					c-0.3,0.3-0.5,0.7-0.5,1.1c0,0.3,0.1,0.5,0.2,0.7c0.1,0.2,0.3,0.4,0.6,0.5c0.2,0.1,0.5,0.3,0.8,0.4c0.3,0.1,0.6,0.2,0.9,0.4
					c0.4,0.2,0.8,0.3,1.2,0.5c0.4,0.2,0.8,0.4,1.1,0.6s0.6,0.6,0.8,0.9c0.2,0.4,0.3,0.8,0.3,1.3c0,0.5-0.1,0.9-0.3,1.3
					c-0.2,0.4-0.4,0.8-0.8,1.1s-0.8,0.5-1.3,0.7C-5183.3,825.9-5183.9,826-5184.5,826z"/>
				<path class="st3" d="M-5173.3,826c-0.8,0-1.5-0.1-2.1-0.4c-0.7-0.3-1.2-0.7-1.7-1.1c-0.5-0.5-0.9-1.1-1.1-1.8
					c-0.3-0.7-0.4-1.5-0.4-2.5s0.1-1.7,0.4-2.5c0.3-0.7,0.7-1.3,1.1-1.9c0.5-0.5,1-0.9,1.6-1.2c0.6-0.3,1.2-0.4,1.9-0.4
					c0.7,0,1.3,0.1,1.9,0.4c0.6,0.2,1,0.6,1.4,1.1c0.4,0.5,0.7,1,0.9,1.7c0.2,0.6,0.3,1.4,0.3,2.2c0,0.2,0,0.4,0,0.6
					c0,0.2,0,0.4-0.1,0.5h-7.5c0.1,1.2,0.4,2.1,1.1,2.8c0.7,0.7,1.5,1,2.6,1c0.5,0,1-0.1,1.5-0.2s0.9-0.4,1.3-0.6l0.7,1.2
					c-0.5,0.3-1,0.6-1.6,0.8C-5171.8,825.9-5172.5,826-5173.3,826z M-5176.8,819.2h6c0-1.1-0.2-2-0.7-2.6c-0.5-0.6-1.2-0.9-2-0.9
					c-0.4,0-0.8,0.1-1.1,0.2c-0.4,0.2-0.7,0.4-1,0.7s-0.5,0.7-0.7,1.1C-5176.6,818.2-5176.7,818.7-5176.8,819.2z"/>
				<path class="st3" d="M-5166.4,825.7v-11.2h1.6l0.2,2h0.1c0.4-0.7,0.8-1.3,1.4-1.7s1.1-0.6,1.8-0.6c0.4,0,0.8,0.1,1.2,0.2
					l-0.4,1.7c-0.2-0.1-0.4-0.1-0.5-0.1c-0.2,0-0.3,0-0.6,0c-0.5,0-1,0.2-1.5,0.6c-0.5,0.4-1,1-1.3,2v7.2H-5166.4z"/>
				<path class="st3" d="M-5155.4,825.7l-4-11.2h2l2.1,6.3c0.2,0.6,0.3,1.1,0.5,1.7c0.2,0.6,0.3,1.1,0.5,1.6h0.1
					c0.2-0.5,0.3-1.1,0.5-1.6c0.2-0.6,0.3-1.1,0.5-1.7l2.1-6.3h1.9l-4,11.2H-5155.4z"/>
				<path class="st3" d="M-5146.1,812.2c-0.4,0-0.7-0.1-0.9-0.3c-0.3-0.2-0.4-0.5-0.4-0.9c0-0.4,0.1-0.7,0.4-0.9
					c0.3-0.2,0.6-0.3,0.9-0.3c0.4,0,0.7,0.1,0.9,0.3c0.3,0.2,0.4,0.5,0.4,0.9c0,0.4-0.1,0.6-0.4,0.9
					C-5145.5,812.1-5145.8,812.2-5146.1,812.2z M-5147.1,825.7v-11.2h1.9v11.2H-5147.1z"/>
				<path class="st3" d="M-5137,826c-0.7,0-1.4-0.1-2.1-0.4c-0.6-0.3-1.2-0.6-1.7-1.1c-0.5-0.5-0.8-1.1-1.1-1.8
					c-0.3-0.7-0.4-1.6-0.4-2.5c0-0.9,0.1-1.8,0.4-2.5c0.3-0.7,0.7-1.3,1.2-1.9c0.5-0.5,1.1-0.9,1.7-1.2c0.7-0.3,1.3-0.4,2.1-0.4
					c0.7,0,1.4,0.1,1.9,0.4c0.5,0.3,1,0.6,1.4,0.9l-1,1.2c-0.3-0.3-0.7-0.5-1-0.7c-0.4-0.2-0.8-0.3-1.2-0.3c-0.5,0-1,0.1-1.4,0.3
					c-0.4,0.2-0.8,0.5-1.1,0.9c-0.3,0.4-0.5,0.8-0.7,1.4c-0.2,0.5-0.3,1.1-0.3,1.8c0,0.6,0.1,1.2,0.3,1.7c0.2,0.5,0.4,1,0.7,1.3
					c0.3,0.4,0.7,0.7,1.1,0.9c0.4,0.2,0.9,0.3,1.4,0.3c0.5,0,1-0.1,1.4-0.3c0.4-0.2,0.8-0.5,1.2-0.8l0.8,1.3c-0.5,0.4-1.1,0.8-1.7,1
					C-5135.7,825.9-5136.4,826-5137,826z"/>
				<path class="st3" d="M-5126.9,826c-0.8,0-1.5-0.1-2.1-0.4c-0.7-0.3-1.2-0.7-1.7-1.1c-0.5-0.5-0.9-1.1-1.1-1.8
					c-0.3-0.7-0.4-1.5-0.4-2.5s0.1-1.7,0.4-2.5c0.3-0.7,0.7-1.3,1.1-1.9c0.5-0.5,1-0.9,1.6-1.2c0.6-0.3,1.2-0.4,1.9-0.4
					c0.7,0,1.3,0.1,1.9,0.4c0.6,0.2,1,0.6,1.4,1.1c0.4,0.5,0.7,1,0.9,1.7c0.2,0.6,0.3,1.4,0.3,2.2c0,0.2,0,0.4,0,0.6
					c0,0.2,0,0.4-0.1,0.5h-7.5c0.1,1.2,0.4,2.1,1.1,2.8c0.7,0.7,1.5,1,2.6,1c0.5,0,1-0.1,1.5-0.2c0.5-0.2,0.9-0.4,1.3-0.6l0.7,1.2
					c-0.5,0.3-1,0.6-1.6,0.8C-5125.5,825.9-5126.2,826-5126.9,826z M-5130.4,819.2h6c0-1.1-0.2-2-0.7-2.6c-0.5-0.6-1.2-0.9-2-0.9
					c-0.4,0-0.8,0.1-1.1,0.2s-0.7,0.4-1,0.7s-0.5,0.7-0.7,1.1C-5130.3,818.2-5130.4,818.7-5130.4,819.2z"/>
				<path class="st3" d="M-5120.4,829.6l-0.5-1.1c0.7-0.3,1.2-0.7,1.5-1.2s0.5-1,0.5-1.6c0,0-0.1,0-0.2,0c-0.4,0-0.7-0.1-1-0.3
					c-0.3-0.2-0.4-0.5-0.4-1c0-0.4,0.1-0.7,0.4-1c0.3-0.2,0.6-0.4,1-0.4c0.5,0,0.9,0.2,1.2,0.6c0.3,0.4,0.4,0.9,0.4,1.6
					c0,1-0.3,1.9-0.8,2.6C-5118.7,828.6-5119.5,829.2-5120.4,829.6z"/>
				<path class="st3" d="M-5107.1,826c-0.9,0-1.7-0.3-2.3-0.8c-0.6-0.6-0.9-1.3-0.9-2.3c0-1.2,0.5-2.2,1.6-2.8
					c1.1-0.7,2.8-1.1,5.2-1.4c0-0.4,0-0.7-0.1-1c-0.1-0.3-0.2-0.6-0.4-0.9s-0.4-0.5-0.7-0.6s-0.7-0.2-1.1-0.2
					c-0.6,0-1.3,0.1-1.8,0.4c-0.6,0.2-1.1,0.5-1.5,0.8l-0.7-1.3c0.5-0.3,1.2-0.7,1.9-1s1.6-0.5,2.5-0.5c1.4,0,2.4,0.4,3,1.3
					s0.9,2,0.9,3.3v6.9h-1.6l-0.2-1.3h-0.1c-0.5,0.4-1.1,0.8-1.7,1.1C-5105.8,825.8-5106.4,826-5107.1,826z M-5106.6,824.5
					c0.5,0,1-0.1,1.5-0.4c0.5-0.3,1-0.6,1.5-1.1v-3.1c-0.9,0.1-1.7,0.3-2.4,0.4c-0.6,0.2-1.1,0.4-1.5,0.6c-0.4,0.2-0.7,0.5-0.9,0.8
					c-0.2,0.3-0.3,0.6-0.3,1c0,0.6,0.2,1.1,0.6,1.4C-5107.6,824.3-5107.1,824.5-5106.6,824.5z"/>
				<path class="st3" d="M-5098.1,825.7v-11.2h1.6l0.2,1.6h0.1c0.5-0.5,1.1-1,1.7-1.3c0.6-0.4,1.3-0.5,2.1-0.5c1.2,0,2,0.4,2.6,1.1
					c0.5,0.7,0.8,1.8,0.8,3.3v7.1h-1.9v-6.8c0-1.1-0.2-1.8-0.5-2.3c-0.3-0.5-0.9-0.7-1.6-0.7c-0.6,0-1.1,0.1-1.5,0.4
					c-0.4,0.3-1,0.7-1.5,1.3v8.1H-5098.1z"/>
				<path class="st3" d="M-5081.7,826c-1.4,0-2.5-0.5-3.4-1.5c-0.8-1-1.3-2.5-1.3-4.3c0-0.9,0.1-1.7,0.4-2.4
					c0.3-0.7,0.6-1.3,1.1-1.9s1-0.9,1.5-1.2s1.2-0.4,1.8-0.4c0.6,0,1.2,0.1,1.7,0.3c0.5,0.2,1,0.5,1.4,0.9l-0.1-1.9v-4.3h1.9v16.4
					h-1.6l-0.2-1.3h-0.1c-0.4,0.4-1,0.8-1.5,1.1C-5080.5,825.8-5081.1,826-5081.7,826z M-5081.3,824.4c0.5,0,1-0.1,1.5-0.4
					s0.9-0.6,1.4-1.2V817c-0.5-0.4-0.9-0.7-1.4-0.9c-0.4-0.2-0.9-0.3-1.3-0.3c-0.4,0-0.9,0.1-1.3,0.3c-0.4,0.2-0.7,0.5-1,0.9
					c-0.3,0.4-0.5,0.8-0.7,1.3s-0.3,1.1-0.3,1.7c0,1.3,0.3,2.4,0.8,3.2C-5083.1,824-5082.3,824.4-5081.3,824.4z"/>
			</g>
			<g class="st2">
				<path class="st3" d="M-5456.1,862.7v-11.2h1.6l0.2,1.6h0.1c0.5-0.5,1-1,1.6-1.3c0.6-0.4,1.2-0.5,1.9-0.5c0.9,0,1.5,0.2,2,0.6
					c0.5,0.4,0.8,0.9,1.1,1.6c0.6-0.6,1.2-1.2,1.8-1.6c0.6-0.4,1.2-0.6,1.9-0.6c1.1,0,2,0.4,2.6,1.1c0.6,0.7,0.8,1.8,0.8,3.3v7.1
					h-1.9v-6.8c0-1.1-0.2-1.8-0.5-2.3s-0.9-0.7-1.6-0.7c-0.8,0-1.8,0.6-2.8,1.7v8.1h-1.9v-6.8c0-1.1-0.2-1.8-0.5-2.3
					c-0.3-0.5-0.9-0.7-1.6-0.7c-0.8,0-1.8,0.6-2.8,1.7v8.1H-5456.1z"/>
				<path class="st3" d="M-5433.8,863c-1.2,0-2.1-0.4-2.6-1.1c-0.5-0.7-0.8-1.8-0.8-3.3v-7.1h1.9v6.8c0,1.1,0.2,1.8,0.5,2.3
					s0.9,0.7,1.6,0.7c0.6,0,1.1-0.1,1.5-0.4c0.4-0.3,0.9-0.8,1.5-1.4v-7.9h1.9v11.2h-1.6l-0.2-1.7h-0.1c-0.5,0.6-1.1,1.1-1.6,1.5
					C-5432.3,862.8-5433,863-5433.8,863z"/>
				<path class="st3" d="M-5420.1,863c-0.7,0-1.4-0.1-2.1-0.4s-1.2-0.6-1.7-1.1c-0.5-0.5-0.8-1.1-1.1-1.8c-0.3-0.7-0.4-1.6-0.4-2.5
					c0-0.9,0.1-1.8,0.4-2.5c0.3-0.7,0.7-1.3,1.2-1.9s1.1-0.9,1.7-1.2c0.7-0.3,1.3-0.4,2.1-0.4c0.7,0,1.4,0.1,1.9,0.4
					c0.5,0.3,1,0.6,1.4,0.9l-1,1.2c-0.3-0.3-0.7-0.5-1-0.7c-0.4-0.2-0.8-0.3-1.2-0.3c-0.5,0-1,0.1-1.4,0.3s-0.8,0.5-1.1,0.9
					c-0.3,0.4-0.5,0.8-0.7,1.4c-0.2,0.5-0.3,1.1-0.3,1.8c0,0.6,0.1,1.2,0.3,1.7c0.2,0.5,0.4,1,0.7,1.3c0.3,0.4,0.7,0.7,1.1,0.9
					c0.4,0.2,0.9,0.3,1.4,0.3c0.5,0,1-0.1,1.4-0.3c0.4-0.2,0.8-0.5,1.2-0.8l0.8,1.3c-0.5,0.4-1.1,0.8-1.7,1S-5419.4,863-5420.1,863z
					"/>
				<path class="st3" d="M-5414,862.7v-16.4h1.9v4.5l-0.1,2.3c0.5-0.5,1.1-0.9,1.7-1.3s1.3-0.5,2-0.5c1.2,0,2,0.4,2.6,1.1
					c0.5,0.7,0.8,1.8,0.8,3.3v7.1h-1.9v-6.8c0-1.1-0.2-1.8-0.5-2.3s-0.9-0.7-1.6-0.7c-0.6,0-1.1,0.1-1.5,0.4c-0.4,0.3-1,0.7-1.5,1.3
					v8.1H-5414z"/>
				<path class="st3" d="M-5396.9,862.7v-11.2h1.6l0.2,1.6h0.1c0.5-0.5,1-1,1.6-1.3c0.6-0.4,1.2-0.5,1.9-0.5c0.9,0,1.5,0.2,2,0.6
					c0.5,0.4,0.8,0.9,1.1,1.6c0.6-0.6,1.2-1.2,1.8-1.6c0.6-0.4,1.2-0.6,1.9-0.6c1.1,0,2,0.4,2.6,1.1c0.6,0.7,0.8,1.8,0.8,3.3v7.1
					h-1.9v-6.8c0-1.1-0.2-1.8-0.5-2.3s-0.9-0.7-1.6-0.7c-0.8,0-1.8,0.6-2.8,1.7v8.1h-1.9v-6.8c0-1.1-0.2-1.8-0.5-2.3
					c-0.3-0.5-0.9-0.7-1.6-0.7c-0.8,0-1.8,0.6-2.8,1.7v8.1H-5396.9z"/>
				<path class="st3" d="M-5373.5,863c-0.7,0-1.3-0.1-2-0.4s-1.2-0.6-1.6-1.1c-0.5-0.5-0.9-1.1-1.1-1.8c-0.3-0.7-0.4-1.6-0.4-2.5
					c0-0.9,0.1-1.8,0.4-2.5s0.7-1.3,1.1-1.9c0.5-0.5,1-0.9,1.6-1.2c0.6-0.3,1.3-0.4,2-0.4s1.3,0.1,2,0.4c0.6,0.3,1.2,0.6,1.6,1.2
					c0.5,0.5,0.9,1.1,1.1,1.9s0.4,1.6,0.4,2.5c0,0.9-0.1,1.7-0.4,2.5c-0.3,0.7-0.7,1.3-1.1,1.8c-0.5,0.5-1,0.9-1.6,1.1
					C-5372.2,862.9-5372.8,863-5373.5,863z M-5373.5,861.4c0.5,0,0.9-0.1,1.3-0.3c0.4-0.2,0.7-0.5,1-0.9c0.3-0.4,0.5-0.8,0.7-1.3
					c0.2-0.5,0.2-1.1,0.2-1.7c0-0.6-0.1-1.2-0.2-1.8c-0.2-0.5-0.4-1-0.7-1.4c-0.3-0.4-0.6-0.7-1-0.9c-0.4-0.2-0.8-0.3-1.3-0.3
					c-0.5,0-0.9,0.1-1.3,0.3c-0.4,0.2-0.7,0.5-1,0.9c-0.3,0.4-0.5,0.8-0.7,1.4c-0.2,0.5-0.2,1.1-0.2,1.8c0,0.6,0.1,1.2,0.2,1.7
					c0.2,0.5,0.4,1,0.7,1.3c0.3,0.4,0.6,0.7,1,0.9C-5374.4,861.3-5374,861.4-5373.5,861.4z"/>
				<path class="st3" d="M-5365.4,862.7v-11.2h1.6l0.2,2h0.1c0.4-0.7,0.8-1.3,1.4-1.7s1.1-0.6,1.8-0.6c0.4,0,0.8,0.1,1.2,0.2
					l-0.4,1.7c-0.2-0.1-0.4-0.1-0.5-0.1c-0.2,0-0.3,0-0.6,0c-0.5,0-1,0.2-1.5,0.6c-0.5,0.4-1,1-1.3,2v7.2H-5365.4z"/>
				<path class="st3" d="M-5353.1,863c-0.8,0-1.5-0.1-2.1-0.4c-0.7-0.3-1.2-0.7-1.7-1.1s-0.9-1.1-1.1-1.8c-0.3-0.7-0.4-1.5-0.4-2.5
					s0.1-1.7,0.4-2.5s0.7-1.3,1.1-1.9c0.5-0.5,1-0.9,1.6-1.2c0.6-0.3,1.2-0.4,1.9-0.4c0.7,0,1.3,0.1,1.9,0.4c0.6,0.2,1,0.6,1.4,1.1
					c0.4,0.5,0.7,1,0.9,1.7c0.2,0.6,0.3,1.4,0.3,2.2c0,0.2,0,0.4,0,0.6c0,0.2,0,0.4-0.1,0.5h-7.5c0.1,1.2,0.4,2.1,1.1,2.8
					c0.7,0.7,1.5,1,2.6,1c0.5,0,1-0.1,1.5-0.2s0.9-0.4,1.3-0.6l0.7,1.2c-0.5,0.3-1,0.6-1.6,0.8C-5351.7,862.9-5352.4,863-5353.1,863
					z M-5356.6,856.2h6c0-1.1-0.2-2-0.7-2.6c-0.5-0.6-1.2-0.9-2-0.9c-0.4,0-0.8,0.1-1.1,0.2c-0.4,0.2-0.7,0.4-1,0.7
					c-0.3,0.3-0.5,0.7-0.7,1.1C-5356.5,855.2-5356.6,855.7-5356.6,856.2z"/>
				<path class="st3" d="M-5345.3,863c-0.4,0-0.7-0.1-1-0.4c-0.3-0.3-0.4-0.6-0.4-1c0-0.4,0.1-0.8,0.4-1.1c0.3-0.3,0.6-0.4,1-0.4
					c0.4,0,0.7,0.1,1,0.4c0.3,0.3,0.4,0.6,0.4,1.1c0,0.4-0.1,0.8-0.4,1C-5344.6,862.8-5344.9,863-5345.3,863z"/>
			</g>
			<path id="Icon_ionic-ios-arrow-dropright-circle" class="st3" d="M-5458,967c0,8.1,6.5,14.6,14.6,14.6s14.6-6.5,14.6-14.6
				c0-8.1-6.5-14.6-14.6-14.6C-5451.5,952.3-5458,958.9-5458,967C-5458,967-5458,967-5458,967z M-5440.8,967l-5.8-5.7
				c-0.5-0.5-0.5-1.4,0-1.9c0.5-0.5,1.4-0.5,1.9,0l6.7,6.7c0.5,0.5,0.5,1.3,0,1.9l-6.6,6.6c-0.5,0.5-1.4,0.6-1.9,0
				c-0.5-0.5-0.6-1.4,0-1.9c0,0,0,0,0,0L-5440.8,967z"/>
		</g>
		<g id="Group_1828" transform="translate(5540.625 -387.332)">
			<circle id="Ellipse_91" class="st4" cx="-5390.5" cy="535.5" r="67.5"/>
			<g id="Flat" transform="translate(-5454.997 472)">
				<path id="Path_2102" class="st1" d="M69.4,24L29.5,63.9l4.6,4.6l20.2,20.2l39.9-39.9V24H69.4z M86,35c-1.5,0-2.7-1.2-2.7-2.8
					c0-1.5,1.2-2.7,2.8-2.7c1.5,0,2.7,1.2,2.7,2.8c0,0.7-0.3,1.4-0.8,1.9C87.4,34.7,86.7,35,86,35L86,35z"/>
				<path id="Path_2104" class="st5" d="M99.6,41.9h-5.4v-2.8h5.4c1.5,0,2.7-1.1,2.8-2.6c0.1-1.5-1.1-2.8-2.6-2.9c0,0-0.1,0-0.1,0
					H87.3c-0.8,0-1.4-0.6-1.4-1.4c0-0.8,0.6-1.4,1.4-1.4h12.4c3,0,5.5,2.4,5.5,5.4C105.3,39.4,102.8,41.9,99.6,41.9
					C99.7,41.9,99.6,41.9,99.6,41.9z"/>
				<path id="Path_2105" class="st6" d="M81.9,46c1.4-0.9,1.8-2.8,0.8-4.1c-0.6-0.9-1.6-1.4-2.7-1.3c1-2.8-2.4-5.2-4.8-3.4
					c-0.5-1.6-2.3-2.5-4-2c-0.9,0.3-1.7,1.1-2,2c-2.5-1.8-5.9,0.6-4.8,3.4c-1.6-0.1-3.1,1.1-3.2,2.8c-0.1,1.1,0.4,2.1,1.3,2.7
					c-1.4,0.9-1.8,2.8-0.8,4.1c0.6,0.9,1.6,1.4,2.7,1.3c-1,2.8,2.4,5.2,4.8,3.4c0.5,1.6,2.3,2.5,4,2c0.9-0.3,1.7-1.1,2-2
					c2.5,1.8,5.9-0.6,4.8-3.4c1.6,0.1,3.1-1.1,3.2-2.8C83.3,47.7,82.8,46.6,81.9,46z"/>
				<g id="Group_1721" transform="translate(35.414 49.195)">
					<path id="Path_2107" class="st7" d="M0,15.1l8.3-8.3l1.9,1.9l-8.3,8.3L0,15.1z"/>
					<path id="Path_2108" class="st7" d="M4.1,19.3l8.3-8.3l1.9,1.9l-8.3,8.3L4.1,19.3z"/>
					<path id="Path_2109" class="st7" d="M8.3,23.4l8.3-8.3l1.9,1.9l-8.3,8.3L8.3,23.4z"/>
					<path id="Path_2110" class="st7" d="M12.4,27.5l8.3-8.3l1.9,1.9l-8.3,8.3L12.4,27.5z"/>
					<path id="Path_2111" class="st7" d="M20.7,27.5l4.1-4.1l1.9,1.9l-4.1,4.1L20.7,27.5z"/>
					<path id="Path_2112" class="st7" d="M16.5,1.9L18.5,0l3.4,3.4l-1.9,1.9L16.5,1.9z"/>
					<path id="Path_2113" class="st7" d="M21.7,7.1l1.9-1.9l8.6,8.6l-1.9,1.9L21.7,7.1z"/>
					<path id="Path_2114" class="st7" d="M13.8,7.5l1.9-1.9l11,11l-1.9,1.9L13.8,7.5z"/>
				</g>
				<path id="Path_2117" class="st8" d="M91.5,98.5h12.4v5.3H91.5V98.5z"/>
				<path id="Path_2124" class="st8" d="M91.5,87.9h12.4v5.3H91.5V87.9z"/>
				<path id="Path_2122" class="st9" d="M91.5,93.2h12.4v5.3H91.5V93.2z"/>
				<path id="Path_2123" class="st9" d="M91.5,82.5h12.4v5.3H91.5V82.5z"/>
				<path id="Path_2119" class="st10" d="M91.5,83.2v20.7H48.6c-1.7,0-3.4-0.4-4.9-1.2l-16.9-8.5c-2.5-1.3-3.5-4.3-2.3-6.8
					c0.9-1.7,2.6-2.8,4.6-2.8h0.6c0.8,0,1.5,0.2,2.2,0.5l15.5,7.7h5.5c-3,0-5.5-2.5-5.5-5.5s2.5-5.5,5.5-5.5l0,0h11.9l2.7-1.5
					c6.8-3.8,15.2-3.4,21.6,1.1c0.3,0.2,0.7,0.5,1,0.7L91.5,83.2z"/>
				<path id="Path_2120" class="st11" d="M91.5,83.2v20.7H54.9c13-4.1,25-11.2,34.3-22.5c0.3,0.2,0.7,0.5,1,0.7L91.5,83.2z"/>
				<path id="Path_2121" class="st11" d="M67.4,94.2H55c-0.8,0-1.4-0.6-1.4-1.4s0.6-1.4,1.4-1.4h12.4c0.8,0,1.4,0.6,1.4,1.4
					S68.1,94.2,67.4,94.2z"/>
			</g>
		</g>
	</g>
</g>
</svg>
