<?xml version="1.0" encoding="utf-8"?>
<!-- Generator: Adobe Illustrator 23.0.5, SVG Export Plug-In . SVG Version: 6.00 Build 0)  -->
<svg version="1.1" id="Layer_1" xmlns="http://www.w3.org/2000/svg" xmlns:xlink="http://www.w3.org/1999/xlink" x="0px" y="0px"
	 viewBox="0 0 535 771" style="enable-background:new 0 0 535 771;" xml:space="preserve">
<style type="text/css">
	.st0{clip-path:url(#SVGID_2_);}
	.st1{fill:#33CC99;}
	.st2{fill:#FFFFFF;}
	.st3{enable-background:new    ;}
	.st4{fill:#FABE2C;}
	.st5{fill:#6AA9FF;}
	.st6{fill:#FF435B;}
	.st7{fill:#FED843;}
	.st8{fill:#FF7B4A;}
	.st9{fill:#7ED8F6;}
	.st10{fill:#61729B;}
</style>
<g>
	<defs>
		<rect id="SVGID_1_" width="535" height="771"/>
	</defs>
	<clipPath id="SVGID_2_">
		<use xlink:href="#SVGID_1_"  style="overflow:visible;"/>
	</clipPath>
	<g id="Jara_Analytics" class="st0">
		<path id="Rectangle_17025" class="st1" d="M65.5,57.5h404c22.6,0,41,18.4,41,41v574c0,22.6-18.4,41-41,41h-404
			c-22.6,0-41-18.4-41-41v-574C24.5,75.9,42.9,57.5,65.5,57.5z"/>
		<circle id="Ellipse_104" class="st2" cx="167.7" cy="203" r="89.5"/>
		<g id="Component_46" transform="translate(83.88 308.265)">
			<g class="st3">
				<path class="st2" d="M8.8,48.7c-3.8,0-6.4-1.5-8-4.6l5-2.9c0.3,0.6,0.7,1.1,1.2,1.4s1,0.4,1.8,0.4c1.7,0,2.5-0.8,2.5-2.3V25.1
					h5.9v15.6c0,2.5-0.8,4.4-2.3,5.9C13.4,48,11.4,48.7,8.8,48.7z"/>
				<path class="st2" d="M31.9,31.7h5.5v16.5h-5.5v-1.5c-1.1,1.3-2.7,2-4.7,2c-2.2,0-4-0.8-5.5-2.5s-2.2-3.7-2.2-6.2
					c0-2.5,0.7-4.6,2.2-6.2c1.5-1.7,3.3-2.5,5.5-2.5c2,0,3.6,0.7,4.7,2V31.7z M25.9,42.6c0.6,0.7,1.5,1,2.5,1c1,0,1.9-0.3,2.5-1
					c0.6-0.7,1-1.5,1-2.6s-0.3-1.9-1-2.6c-0.6-0.7-1.5-1-2.5-1c-1,0-1.9,0.3-2.5,1c-0.6,0.7-1,1.5-1,2.6S25.3,41.9,25.9,42.6z"/>
				<path class="st2" d="M46,34.8c0.3-1.1,0.9-1.9,1.8-2.5c0.9-0.6,2-0.9,3.1-0.9v6.1c-1.3-0.2-2.4,0-3.4,0.7
					c-1,0.7-1.5,1.7-1.5,3.2v6.8h-5.5V31.7H46V34.8z"/>
				<path class="st2" d="M64.3,31.7h5.5v16.5h-5.5v-1.5c-1.1,1.3-2.7,2-4.7,2c-2.2,0-4-0.8-5.5-2.5s-2.2-3.7-2.2-6.2
					c0-2.5,0.7-4.6,2.2-6.2c1.5-1.7,3.3-2.5,5.5-2.5c2,0,3.6,0.7,4.7,2V31.7z M58.3,42.6c0.6,0.7,1.5,1,2.5,1c1,0,1.9-0.3,2.5-1
					c0.6-0.7,1-1.5,1-2.6s-0.3-1.9-1-2.6c-0.6-0.7-1.5-1-2.5-1c-1,0-1.9,0.3-2.5,1c-0.6,0.7-1,1.5-1,2.6S57.7,41.9,58.3,42.6z"/>
				<path class="st2" d="M95,48.2l-1.1-3.3h-7.9l-1,3.3h-6.4L86,25.1h7.4l7.6,23.1H95z M87.6,39.8h4.7L89.9,32L87.6,39.8z"/>
				<path class="st2" d="M112.6,31.3c1.8,0,3.2,0.6,4.4,1.8c1.1,1.2,1.7,3,1.7,5.3v9.9h-5.5v-9.2c0-0.9-0.2-1.5-0.7-1.9
					c-0.5-0.4-1.1-0.7-1.8-0.7c-0.9,0-1.5,0.3-2,0.8c-0.5,0.5-0.7,1.3-0.7,2.2v8.8h-5.5V31.7h5.5v1.7C109,32,110.6,31.3,112.6,31.3z
					"/>
				<path class="st2" d="M133.3,31.7h5.5v16.5h-5.5v-1.5c-1.1,1.3-2.7,2-4.7,2c-2.2,0-4-0.8-5.5-2.5s-2.2-3.7-2.2-6.2
					c0-2.5,0.7-4.6,2.2-6.2c1.5-1.7,3.3-2.5,5.5-2.5c2,0,3.6,0.7,4.7,2V31.7z M127.3,42.6c0.6,0.7,1.5,1,2.5,1c1,0,1.9-0.3,2.5-1
					c0.6-0.7,1-1.5,1-2.6s-0.3-1.9-1-2.6c-0.6-0.7-1.5-1-2.5-1c-1,0-1.9,0.3-2.5,1c-0.6,0.7-1,1.5-1,2.6S126.7,41.9,127.3,42.6z"/>
				<path class="st2" d="M141.9,48.2V24.1h5.5v24.1H141.9z"/>
				<path class="st2" d="M161,31.7h6.1L161.5,48c-0.9,2.5-2.1,4.3-3.7,5.4c-1.6,1.1-3.7,1.6-6.2,1.5v-5.1c1.2,0,2-0.1,2.6-0.4
					c0.6-0.3,1.1-0.8,1.5-1.6l-6.6-16h6.1l3.3,9.6L161,31.7z"/>
				<path class="st2" d="M178.9,37h-3.4v4.8c0,0.7,0.3,1.2,0.8,1.4c0.5,0.2,1.4,0.2,2.6,0.2v5c-3.3,0.4-5.6,0.1-6.9-0.9
					s-2-2.8-2-5.4V37h-2.5v-5.2h2.5v-3l5.5-1.7v4.6h3.4V37z"/>
				<path class="st2" d="M186.4,29.4c-0.6,0.6-1.4,0.9-2.2,0.9c-0.9,0-1.6-0.3-2.2-0.9c-0.6-0.6-0.9-1.4-0.9-2.2
					c0-0.9,0.3-1.6,0.9-2.2c0.6-0.6,1.4-0.9,2.2-0.9c0.9,0,1.6,0.3,2.2,0.9c0.6,0.6,0.9,1.4,0.9,2.2
					C187.4,28.1,187.1,28.8,186.4,29.4z M181.5,48.2V31.7h5.5v16.5H181.5z"/>
				<path class="st2" d="M198.1,48.7c-2.5,0-4.6-0.8-6.3-2.5s-2.5-3.7-2.5-6.2s0.8-4.5,2.5-6.2s3.8-2.5,6.3-2.5
					c1.6,0,3.1,0.4,4.4,1.2c1.3,0.8,2.4,1.8,3.1,3.1l-4.7,2.7c-0.6-1.1-1.6-1.6-2.9-1.6c-0.9,0-1.7,0.3-2.3,0.9
					c-0.6,0.6-0.9,1.4-0.9,2.4s0.3,1.8,0.9,2.4c0.6,0.6,1.4,0.9,2.3,0.9c1.4,0,2.3-0.5,2.9-1.7l4.7,2.7c-0.7,1.3-1.8,2.4-3.1,3.1
					C201.2,48.3,199.7,48.7,198.1,48.7z"/>
				<path class="st2" d="M212.6,36.5c0,0.3,0.3,0.5,0.9,0.7s1.2,0.4,2,0.6c0.8,0.2,1.6,0.5,2.4,0.8c0.8,0.3,1.5,0.8,2.1,1.6
					c0.6,0.8,0.8,1.8,0.8,3c0,1.9-0.7,3.3-2.1,4.2c-1.4,0.9-3.1,1.4-5,1.4c-3.7,0-6.2-1.3-7.4-3.9l4.8-2.4c0.4,1.2,1.3,1.8,2.6,1.8
					c1,0,1.5-0.3,1.5-0.9c0-0.3-0.3-0.6-0.8-0.7c-0.6-0.2-1.2-0.4-2-0.7c-0.8-0.3-1.5-0.5-2.4-0.8c-0.8-0.3-1.5-0.8-2-1.5
					s-0.8-1.6-0.8-2.7c0-1.8,0.7-3.1,2-4.1s2.9-1.5,4.7-1.5c3.3,0,5.5,1.3,6.8,3.8l-4.6,2.1c-0.5-0.9-1.2-1.4-2-1.4
					C213,35.8,212.6,36,212.6,36.5z"/>
			</g>
			<g class="st3">
				<path class="st2" d="M8,128.9c-1,0-1.9-0.2-2.7-0.5c-0.8-0.4-1.6-0.9-2.2-1.5s-1.1-1.5-1.4-2.5c-0.3-1-0.5-2.1-0.5-3.3
					c0-1.2,0.2-2.3,0.5-3.3c0.3-1,0.8-1.8,1.4-2.5c0.6-0.7,1.3-1.2,2.2-1.6s1.8-0.5,2.8-0.5c0.5,0,1,0.1,1.4,0.2s0.8,0.3,1.2,0.4
					c0.4,0.2,0.7,0.4,1,0.6c0.3,0.2,0.5,0.4,0.7,0.7l-1.1,1.2c-0.4-0.4-0.8-0.7-1.3-1c-0.5-0.3-1.1-0.4-1.9-0.4
					c-0.8,0-1.5,0.1-2.1,0.4c-0.6,0.3-1.1,0.7-1.6,1.2c-0.4,0.5-0.8,1.2-1,1.9c-0.2,0.8-0.4,1.6-0.4,2.5c0,1,0.1,1.8,0.3,2.6
					s0.5,1.4,1,1.9c0.4,0.5,0.9,1,1.6,1.2s1.3,0.4,2.2,0.4c0.5,0,1-0.1,1.5-0.2c0.5-0.2,0.9-0.4,1.2-0.7v-3.9H7.7v-1.6h4.9v6.3
					c-0.5,0.5-1.1,0.9-1.9,1.3C9.9,128.8,9,128.9,8,128.9z"/>
				<path class="st2" d="M18.7,128.9c-0.9,0-1.7-0.3-2.3-0.8s-0.9-1.3-0.9-2.3c0-1.2,0.5-2.2,1.6-2.8c1.1-0.7,2.8-1.1,5.2-1.4
					c0-0.4,0-0.7-0.1-1c-0.1-0.3-0.2-0.6-0.4-0.9s-0.4-0.5-0.7-0.6c-0.3-0.2-0.7-0.2-1.1-0.2c-0.6,0-1.3,0.1-1.8,0.4
					c-0.6,0.2-1.1,0.5-1.5,0.8l-0.7-1.3c0.5-0.3,1.2-0.7,1.9-1c0.8-0.3,1.6-0.5,2.5-0.5c1.4,0,2.4,0.4,3,1.3c0.6,0.8,0.9,2,0.9,3.3
					v6.9h-1.6l-0.2-1.3h-0.1c-0.5,0.4-1.1,0.8-1.7,1.1C20,128.8,19.4,128.9,18.7,128.9z M19.2,127.4c0.5,0,1-0.1,1.5-0.4
					c0.5-0.3,1-0.6,1.5-1.1v-3.1c-0.9,0.1-1.7,0.3-2.4,0.4c-0.6,0.2-1.1,0.4-1.5,0.6c-0.4,0.2-0.7,0.5-0.9,0.8s-0.3,0.6-0.3,1
					c0,0.6,0.2,1.1,0.6,1.4C18.2,127.3,18.7,127.4,19.2,127.4z"/>
				<path class="st2" d="M28.6,115.2c-0.4,0-0.7-0.1-0.9-0.3c-0.3-0.2-0.4-0.5-0.4-0.9c0-0.4,0.1-0.7,0.4-0.9
					c0.3-0.2,0.6-0.3,0.9-0.3s0.7,0.1,0.9,0.3c0.3,0.2,0.4,0.5,0.4,0.9c0,0.4-0.1,0.6-0.4,0.9C29.3,115.1,29,115.2,28.6,115.2z
					 M27.7,128.7v-11.2h1.9v11.2H27.7z"/>
				<path class="st2" d="M33.3,128.7v-11.2h1.6l0.2,1.6h0.1c0.5-0.5,1.1-1,1.7-1.3c0.6-0.4,1.3-0.5,2.1-0.5c1.2,0,2,0.4,2.6,1.1
					c0.5,0.7,0.8,1.8,0.8,3.3v7.1h-1.9v-6.8c0-1.1-0.2-1.8-0.5-2.3s-0.9-0.7-1.6-0.7c-0.6,0-1.1,0.1-1.5,0.4c-0.4,0.3-1,0.7-1.5,1.3
					v8.1H33.3z"/>
				<path class="st2" d="M50.5,133.4v-15.9h1.6l0.2,1.3h0.1c0.5-0.4,1.1-0.8,1.7-1.1c0.6-0.3,1.2-0.5,1.9-0.5c0.7,0,1.4,0.1,1.9,0.4
					c0.6,0.3,1,0.7,1.4,1.2c0.4,0.5,0.6,1.1,0.8,1.8c0.2,0.7,0.3,1.5,0.3,2.4c0,1-0.1,1.8-0.4,2.5c-0.3,0.7-0.6,1.4-1.1,1.9
					s-1,0.9-1.5,1.2c-0.6,0.3-1.2,0.4-1.8,0.4c-0.5,0-1-0.1-1.6-0.3c-0.5-0.2-1-0.5-1.6-0.9l0,2v3.8H50.5z M55.1,127.3
					c0.5,0,0.9-0.1,1.3-0.3c0.4-0.2,0.7-0.5,1-0.9s0.5-0.8,0.7-1.4c0.2-0.6,0.2-1.2,0.2-1.9c0-0.6-0.1-1.2-0.2-1.7
					c-0.1-0.5-0.3-0.9-0.5-1.3s-0.5-0.6-0.9-0.8c-0.4-0.2-0.8-0.3-1.3-0.3c-0.5,0-1,0.1-1.4,0.4c-0.5,0.3-1,0.6-1.6,1.1v5.9
					c0.5,0.4,1,0.7,1.5,0.9C54.3,127.3,54.8,127.3,55.1,127.3z"/>
				<path class="st2" d="M63.3,128.7v-11.2h1.6l0.2,2h0.1c0.4-0.7,0.8-1.3,1.4-1.7s1.1-0.6,1.8-0.6c0.4,0,0.8,0.1,1.2,0.2l-0.4,1.7
					c-0.2-0.1-0.4-0.1-0.5-0.1c-0.2,0-0.3,0-0.6,0c-0.5,0-1,0.2-1.5,0.6c-0.5,0.4-1,1-1.3,2v7.2H63.3z"/>
				<path class="st2" d="M72.2,115.2c-0.4,0-0.7-0.1-0.9-0.3c-0.3-0.2-0.4-0.5-0.4-0.9c0-0.4,0.1-0.7,0.4-0.9
					c0.3-0.2,0.6-0.3,0.9-0.3s0.7,0.1,0.9,0.3c0.3,0.2,0.4,0.5,0.4,0.9c0,0.4-0.1,0.6-0.4,0.9C72.9,115.1,72.6,115.2,72.2,115.2z
					 M71.3,128.7v-11.2h1.9v11.2H71.3z"/>
				<path class="st2" d="M81.3,128.9c-0.7,0-1.4-0.1-2.1-0.4s-1.2-0.6-1.7-1.1c-0.5-0.5-0.8-1.1-1.1-1.8c-0.3-0.7-0.4-1.6-0.4-2.5
					c0-0.9,0.1-1.8,0.4-2.5c0.3-0.7,0.7-1.3,1.2-1.9s1.1-0.9,1.7-1.2c0.7-0.3,1.3-0.4,2.1-0.4c0.7,0,1.4,0.1,1.9,0.4
					c0.5,0.3,1,0.6,1.4,0.9l-1,1.2c-0.3-0.3-0.7-0.5-1-0.7c-0.4-0.2-0.8-0.3-1.2-0.3c-0.5,0-1,0.1-1.4,0.3s-0.8,0.5-1.1,0.9
					c-0.3,0.4-0.5,0.8-0.7,1.4c-0.2,0.5-0.3,1.1-0.3,1.8c0,0.6,0.1,1.2,0.3,1.7c0.2,0.5,0.4,1,0.7,1.3c0.3,0.4,0.7,0.7,1.1,0.9
					c0.4,0.2,0.9,0.3,1.4,0.3c0.5,0,1-0.1,1.4-0.3c0.4-0.2,0.8-0.5,1.2-0.8l0.8,1.3c-0.5,0.4-1.1,0.8-1.7,1S82,128.9,81.3,128.9z"/>
				<path class="st2" d="M91.4,128.9c-0.8,0-1.5-0.1-2.1-0.4c-0.7-0.3-1.2-0.7-1.7-1.1s-0.9-1.1-1.1-1.8c-0.3-0.7-0.4-1.5-0.4-2.5
					s0.1-1.7,0.4-2.5s0.7-1.3,1.1-1.9c0.5-0.5,1-0.9,1.6-1.2c0.6-0.3,1.2-0.4,1.9-0.4c0.7,0,1.3,0.1,1.9,0.4c0.6,0.2,1,0.6,1.4,1.1
					c0.4,0.5,0.7,1,0.9,1.7c0.2,0.6,0.3,1.4,0.3,2.2c0,0.2,0,0.4,0,0.6c0,0.2,0,0.4-0.1,0.5H88c0.1,1.2,0.4,2.1,1.1,2.8
					c0.7,0.7,1.5,1,2.6,1c0.5,0,1-0.1,1.5-0.2s0.9-0.4,1.3-0.6l0.7,1.2c-0.5,0.3-1,0.6-1.6,0.8C92.9,128.8,92.2,128.9,91.4,128.9z
					 M87.9,122.2h6c0-1.1-0.2-2-0.7-2.6c-0.5-0.6-1.2-0.9-2-0.9c-0.4,0-0.8,0.1-1.1,0.2c-0.4,0.2-0.7,0.4-1,0.7
					c-0.3,0.3-0.5,0.7-0.7,1.1C88.1,121.1,88,121.6,87.9,122.2z"/>
				<path class="st2" d="M100.3,128.9c-0.7,0-1.2-0.2-1.5-0.6c-0.3-0.4-0.5-1.1-0.5-1.9v-14.1h1.9v14.3c0,0.3,0.1,0.5,0.2,0.6
					c0.1,0.1,0.2,0.2,0.4,0.2c0.1,0,0.1,0,0.2,0c0.1,0,0.1,0,0.2,0l0.3,1.4c-0.1,0.1-0.3,0.1-0.4,0.1
					C100.8,128.9,100.6,128.9,100.3,128.9z"/>
				<path class="st2" d="M108.7,128.9c-0.8,0-1.5-0.1-2.1-0.4c-0.7-0.3-1.2-0.7-1.7-1.1s-0.9-1.1-1.1-1.8c-0.3-0.7-0.4-1.5-0.4-2.5
					s0.1-1.7,0.4-2.5s0.7-1.3,1.1-1.9c0.5-0.5,1-0.9,1.6-1.2c0.6-0.3,1.2-0.4,1.9-0.4c0.7,0,1.3,0.1,1.9,0.4c0.6,0.2,1,0.6,1.4,1.1
					c0.4,0.5,0.7,1,0.9,1.7c0.2,0.6,0.3,1.4,0.3,2.2c0,0.2,0,0.4,0,0.6c0,0.2,0,0.4-0.1,0.5h-7.5c0.1,1.2,0.4,2.1,1.1,2.8
					c0.7,0.7,1.5,1,2.6,1c0.5,0,1-0.1,1.5-0.2s0.9-0.4,1.3-0.6l0.7,1.2c-0.5,0.3-1,0.6-1.6,0.8C110.2,128.8,109.5,128.9,108.7,128.9
					z M105.2,122.2h6c0-1.1-0.2-2-0.7-2.6c-0.5-0.6-1.2-0.9-2-0.9c-0.4,0-0.8,0.1-1.1,0.2c-0.4,0.2-0.7,0.4-1,0.7
					c-0.3,0.3-0.5,0.7-0.7,1.1C105.4,121.1,105.3,121.6,105.2,122.2z"/>
				<path class="st2" d="M118.5,128.9c-0.8,0-1.6-0.1-2.3-0.4s-1.3-0.7-1.9-1.1l0.9-1.3c0.5,0.4,1,0.7,1.5,1
					c0.5,0.2,1.1,0.4,1.8,0.4c0.7,0,1.3-0.2,1.7-0.5c0.4-0.3,0.6-0.8,0.6-1.2c0-0.3-0.1-0.5-0.2-0.8s-0.3-0.4-0.6-0.6
					c-0.2-0.2-0.5-0.3-0.8-0.4c-0.3-0.1-0.6-0.2-0.9-0.4c-0.4-0.1-0.8-0.3-1.2-0.5c-0.4-0.2-0.8-0.4-1.1-0.6
					c-0.3-0.3-0.6-0.5-0.8-0.9c-0.2-0.3-0.3-0.7-0.3-1.2c0-0.4,0.1-0.9,0.3-1.3c0.2-0.4,0.4-0.7,0.8-1c0.3-0.3,0.7-0.5,1.2-0.7
					c0.5-0.2,1-0.2,1.6-0.2c0.7,0,1.4,0.1,1.9,0.4s1.1,0.5,1.5,0.9l-0.9,1.2c-0.4-0.3-0.8-0.5-1.2-0.7s-0.9-0.3-1.4-0.3
					c-0.7,0-1.2,0.2-1.6,0.5s-0.5,0.7-0.5,1.1c0,0.3,0.1,0.5,0.2,0.7c0.1,0.2,0.3,0.4,0.6,0.5s0.5,0.3,0.8,0.4
					c0.3,0.1,0.6,0.2,0.9,0.4c0.4,0.2,0.8,0.3,1.2,0.5c0.4,0.2,0.8,0.4,1.1,0.6c0.3,0.3,0.6,0.6,0.8,0.9c0.2,0.4,0.3,0.8,0.3,1.3
					c0,0.5-0.1,0.9-0.3,1.3c-0.2,0.4-0.4,0.8-0.8,1.1s-0.8,0.5-1.3,0.7C119.8,128.8,119.2,128.9,118.5,128.9z"/>
				<path class="st2" d="M128.2,128.9c-0.8,0-1.6-0.1-2.3-0.4s-1.3-0.7-1.9-1.1l0.9-1.3c0.5,0.4,1,0.7,1.5,1
					c0.5,0.2,1.1,0.4,1.8,0.4c0.7,0,1.3-0.2,1.7-0.5c0.4-0.3,0.6-0.8,0.6-1.2c0-0.3-0.1-0.5-0.2-0.8s-0.3-0.4-0.6-0.6
					c-0.2-0.2-0.5-0.3-0.8-0.4c-0.3-0.1-0.6-0.2-0.9-0.4c-0.4-0.1-0.8-0.3-1.2-0.5c-0.4-0.2-0.8-0.4-1.1-0.6
					c-0.3-0.3-0.6-0.5-0.8-0.9c-0.2-0.3-0.3-0.7-0.3-1.2c0-0.4,0.1-0.9,0.3-1.3c0.2-0.4,0.4-0.7,0.8-1c0.3-0.3,0.7-0.5,1.2-0.7
					c0.5-0.2,1-0.2,1.6-0.2c0.7,0,1.4,0.1,1.9,0.4s1.1,0.5,1.5,0.9l-0.9,1.2c-0.4-0.3-0.8-0.5-1.2-0.7s-0.9-0.3-1.4-0.3
					c-0.7,0-1.2,0.2-1.6,0.5s-0.5,0.7-0.5,1.1c0,0.3,0.1,0.5,0.2,0.7c0.1,0.2,0.3,0.4,0.6,0.5s0.5,0.3,0.8,0.4
					c0.3,0.1,0.6,0.2,0.9,0.4c0.4,0.2,0.8,0.3,1.2,0.5c0.4,0.2,0.8,0.4,1.1,0.6c0.3,0.3,0.6,0.6,0.8,0.9c0.2,0.4,0.3,0.8,0.3,1.3
					c0,0.5-0.1,0.9-0.3,1.3c-0.2,0.4-0.4,0.8-0.8,1.1s-0.8,0.5-1.3,0.7C129.4,128.8,128.8,128.9,128.2,128.9z"/>
				<path class="st2" d="M140.4,115.2c-0.4,0-0.7-0.1-0.9-0.3c-0.3-0.2-0.4-0.5-0.4-0.9c0-0.4,0.1-0.7,0.4-0.9
					c0.3-0.2,0.6-0.3,0.9-0.3s0.7,0.1,0.9,0.3c0.3,0.2,0.4,0.5,0.4,0.9c0,0.4-0.1,0.6-0.4,0.9C141.1,115.1,140.8,115.2,140.4,115.2z
					 M139.5,128.7v-11.2h1.9v11.2H139.5z"/>
				<path class="st2" d="M145.1,128.7v-11.2h1.6l0.2,1.6h0.1c0.5-0.5,1.1-1,1.7-1.3c0.6-0.4,1.3-0.5,2.1-0.5c1.2,0,2,0.4,2.6,1.1
					c0.5,0.7,0.8,1.8,0.8,3.3v7.1h-1.9v-6.8c0-1.1-0.2-1.8-0.5-2.3s-0.9-0.7-1.6-0.7c-0.6,0-1.1,0.1-1.5,0.4c-0.4,0.3-1,0.7-1.5,1.3
					v8.1H145.1z"/>
				<path class="st2" d="M160.6,128.9c-0.8,0-1.6-0.1-2.3-0.4s-1.3-0.7-1.9-1.1l0.9-1.3c0.5,0.4,1,0.7,1.5,1
					c0.5,0.2,1.1,0.4,1.8,0.4c0.7,0,1.3-0.2,1.7-0.5c0.4-0.3,0.6-0.8,0.6-1.2c0-0.3-0.1-0.5-0.2-0.8s-0.3-0.4-0.6-0.6
					c-0.2-0.2-0.5-0.3-0.8-0.4c-0.3-0.1-0.6-0.2-0.9-0.4c-0.4-0.1-0.8-0.3-1.2-0.5c-0.4-0.2-0.8-0.4-1.1-0.6
					c-0.3-0.3-0.6-0.5-0.8-0.9c-0.2-0.3-0.3-0.7-0.3-1.2c0-0.4,0.1-0.9,0.3-1.3c0.2-0.4,0.4-0.7,0.8-1c0.3-0.3,0.7-0.5,1.2-0.7
					c0.5-0.2,1-0.2,1.6-0.2c0.7,0,1.4,0.1,1.9,0.4s1.1,0.5,1.5,0.9l-0.9,1.2c-0.4-0.3-0.8-0.5-1.2-0.7s-0.9-0.3-1.4-0.3
					c-0.7,0-1.2,0.2-1.6,0.5s-0.5,0.7-0.5,1.1c0,0.3,0.1,0.5,0.2,0.7c0.1,0.2,0.3,0.4,0.6,0.5s0.5,0.3,0.8,0.4
					c0.3,0.1,0.6,0.2,0.9,0.4c0.4,0.2,0.8,0.3,1.2,0.5c0.4,0.2,0.8,0.4,1.1,0.6c0.3,0.3,0.6,0.6,0.8,0.9c0.2,0.4,0.3,0.8,0.3,1.3
					c0,0.5-0.1,0.9-0.3,1.3c-0.2,0.4-0.4,0.8-0.8,1.1s-0.8,0.5-1.3,0.7C161.9,128.8,161.3,128.9,160.6,128.9z"/>
				<path class="st2" d="M168.3,115.2c-0.4,0-0.7-0.1-0.9-0.3c-0.3-0.2-0.4-0.5-0.4-0.9c0-0.4,0.1-0.7,0.4-0.9
					c0.3-0.2,0.6-0.3,0.9-0.3s0.7,0.1,0.9,0.3c0.3,0.2,0.4,0.5,0.4,0.9c0,0.4-0.1,0.6-0.4,0.9C169,115.1,168.7,115.2,168.3,115.2z
					 M167.3,128.7v-11.2h1.9v11.2H167.3z"/>
				<path class="st2" d="M176.8,133.8c-0.7,0-1.3-0.1-1.9-0.2c-0.6-0.1-1.1-0.3-1.5-0.6s-0.7-0.6-0.9-0.9c-0.2-0.4-0.3-0.8-0.3-1.3
					c0-0.5,0.1-0.9,0.4-1.4c0.3-0.4,0.7-0.8,1.2-1.2v-0.1c-0.3-0.2-0.5-0.4-0.7-0.7s-0.3-0.7-0.3-1.1c0-0.5,0.1-0.9,0.4-1.2
					s0.5-0.6,0.8-0.8v-0.1c-0.4-0.3-0.7-0.7-1-1.2s-0.4-1.1-0.4-1.8c0-0.6,0.1-1.2,0.3-1.7c0.2-0.5,0.5-0.9,0.9-1.3
					c0.4-0.3,0.8-0.6,1.3-0.8c0.5-0.2,1.1-0.3,1.6-0.3c0.3,0,0.6,0,0.9,0.1c0.3,0.1,0.5,0.1,0.7,0.2h3.9v1.4h-2.3
					c0.3,0.3,0.5,0.6,0.7,1c0.2,0.4,0.3,0.8,0.3,1.3c0,0.6-0.1,1.1-0.3,1.6c-0.2,0.5-0.5,0.9-0.9,1.2c-0.4,0.3-0.8,0.6-1.3,0.8
					c-0.5,0.2-1,0.3-1.6,0.3c-0.3,0-0.6,0-0.9-0.1c-0.3-0.1-0.6-0.2-0.8-0.3c-0.2,0.2-0.4,0.4-0.5,0.6c-0.1,0.2-0.2,0.5-0.2,0.8
					c0,0.4,0.1,0.6,0.4,0.9c0.3,0.2,0.8,0.3,1.6,0.3h2.2c1.3,0,2.3,0.2,2.9,0.6s1,1.1,1,2c0,0.5-0.1,1-0.4,1.5s-0.6,0.9-1.1,1.2
					s-1.1,0.6-1.8,0.8C178.4,133.7,177.6,133.8,176.8,133.8z M177.1,132.5c0.5,0,1-0.1,1.5-0.2c0.4-0.1,0.8-0.3,1.1-0.5
					s0.5-0.4,0.7-0.7c0.2-0.3,0.3-0.6,0.3-0.9c0-0.5-0.2-0.9-0.6-1.1c-0.4-0.2-0.9-0.3-1.7-0.3h-1.9c-0.2,0-0.4,0-0.7,0
					c-0.3,0-0.5-0.1-0.7-0.1c-0.4,0.3-0.7,0.6-0.9,0.9c-0.2,0.3-0.3,0.6-0.3,1c0,0.6,0.3,1.1,0.9,1.4
					C175.2,132.3,176,132.5,177.1,132.5z M176.8,123.9c0.3,0,0.6-0.1,0.9-0.2c0.3-0.1,0.5-0.3,0.8-0.5c0.2-0.2,0.4-0.5,0.5-0.8
					s0.2-0.7,0.2-1.1c0-0.8-0.2-1.5-0.7-1.9s-1-0.7-1.7-0.7c-0.7,0-1.2,0.2-1.7,0.7s-0.7,1.1-0.7,1.9c0,0.4,0.1,0.8,0.2,1.1
					c0.1,0.3,0.3,0.6,0.5,0.8c0.2,0.2,0.5,0.4,0.8,0.5C176.1,123.8,176.5,123.9,176.8,123.9z"/>
				<path class="st2" d="M184.6,128.7v-16.4h1.9v4.5l-0.1,2.3c0.5-0.5,1.1-0.9,1.7-1.3c0.6-0.4,1.3-0.5,2-0.5c1.2,0,2,0.4,2.6,1.1
					c0.5,0.7,0.8,1.8,0.8,3.3v7.1h-1.9v-6.8c0-1.1-0.2-1.8-0.5-2.3c-0.3-0.5-0.9-0.7-1.6-0.7c-0.6,0-1.1,0.1-1.5,0.4s-1,0.7-1.5,1.3
					v8.1H184.6z"/>
				<path class="st2" d="M200.6,128.9c-0.6,0-1.1-0.1-1.5-0.3s-0.7-0.4-1-0.8s-0.4-0.7-0.5-1.2s-0.2-1-0.2-1.5V119h-1.7v-1.4
					l1.7-0.1l0.2-3.1h1.6v3.1h3v1.5h-3v6.2c0,0.7,0.1,1.2,0.4,1.6s0.7,0.6,1.3,0.6c0.2,0,0.4,0,0.6-0.1c0.2-0.1,0.4-0.1,0.6-0.2
					l0.4,1.4c-0.3,0.1-0.6,0.2-1,0.3S201,128.9,200.6,128.9z"/>
				<path class="st2" d="M207.6,128.9c-0.8,0-1.6-0.1-2.3-0.4s-1.3-0.7-1.9-1.1l0.9-1.3c0.5,0.4,1,0.7,1.5,1
					c0.5,0.2,1.1,0.4,1.8,0.4c0.7,0,1.3-0.2,1.7-0.5c0.4-0.3,0.6-0.8,0.6-1.2c0-0.3-0.1-0.5-0.2-0.8s-0.3-0.4-0.6-0.6
					c-0.2-0.2-0.5-0.3-0.8-0.4c-0.3-0.1-0.6-0.2-0.9-0.4c-0.4-0.1-0.8-0.3-1.2-0.5c-0.4-0.2-0.8-0.4-1.1-0.6
					c-0.3-0.3-0.6-0.5-0.8-0.9c-0.2-0.3-0.3-0.7-0.3-1.2c0-0.4,0.1-0.9,0.3-1.3c0.2-0.4,0.4-0.7,0.8-1c0.3-0.3,0.7-0.5,1.2-0.7
					c0.5-0.2,1-0.2,1.6-0.2c0.7,0,1.4,0.1,1.9,0.4c0.6,0.2,1.1,0.5,1.5,0.9l-0.9,1.2c-0.4-0.3-0.8-0.5-1.2-0.7s-0.9-0.3-1.4-0.3
					c-0.7,0-1.2,0.2-1.6,0.5c-0.3,0.3-0.5,0.7-0.5,1.1c0,0.3,0.1,0.5,0.2,0.7s0.3,0.4,0.6,0.5c0.2,0.1,0.5,0.3,0.8,0.4
					c0.3,0.1,0.6,0.2,0.9,0.4c0.4,0.2,0.8,0.3,1.2,0.5s0.8,0.4,1.1,0.6s0.6,0.6,0.8,0.9c0.2,0.4,0.3,0.8,0.3,1.3
					c0,0.5-0.1,0.9-0.3,1.3c-0.2,0.4-0.4,0.8-0.8,1.1c-0.3,0.3-0.8,0.5-1.3,0.7C208.8,128.8,208.2,128.9,207.6,128.9z"/>
				<path class="st2" d="M219.9,115.2c-0.4,0-0.7-0.1-0.9-0.3c-0.3-0.2-0.4-0.5-0.4-0.9c0-0.4,0.1-0.7,0.4-0.9
					c0.3-0.2,0.6-0.3,0.9-0.3s0.7,0.1,0.9,0.3c0.3,0.2,0.4,0.5,0.4,0.9c0,0.4-0.1,0.6-0.4,0.9C220.5,115.1,220.2,115.2,219.9,115.2z
					 M218.9,128.7v-11.2h1.9v11.2H218.9z"/>
				<path class="st2" d="M224.5,128.7v-11.2h1.6l0.2,1.6h0.1c0.5-0.5,1.1-1,1.7-1.3c0.6-0.4,1.3-0.5,2.1-0.5c1.2,0,2,0.4,2.6,1.1
					c0.5,0.7,0.8,1.8,0.8,3.3v7.1h-1.9v-6.8c0-1.1-0.2-1.8-0.5-2.3c-0.3-0.5-0.9-0.7-1.6-0.7c-0.6,0-1.1,0.1-1.5,0.4s-1,0.7-1.5,1.3
					v8.1H224.5z"/>
				<path class="st2" d="M240.6,128.9c-0.6,0-1.1-0.1-1.5-0.3s-0.7-0.4-1-0.8s-0.4-0.7-0.5-1.2s-0.2-1-0.2-1.5V119h-1.7v-1.4
					l1.7-0.1l0.2-3.1h1.6v3.1h3v1.5h-3v6.2c0,0.7,0.1,1.2,0.4,1.6s0.7,0.6,1.3,0.6c0.2,0,0.4,0,0.6-0.1c0.2-0.1,0.4-0.1,0.6-0.2
					l0.4,1.4c-0.3,0.1-0.6,0.2-1,0.3S241,128.9,240.6,128.9z"/>
				<path class="st2" d="M248.9,128.9c-0.7,0-1.3-0.1-2-0.4s-1.2-0.6-1.6-1.1c-0.5-0.5-0.9-1.1-1.1-1.8c-0.3-0.7-0.4-1.6-0.4-2.5
					c0-0.9,0.1-1.8,0.4-2.5c0.3-0.7,0.7-1.3,1.1-1.9s1-0.9,1.6-1.2c0.6-0.3,1.3-0.4,2-0.4c0.7,0,1.3,0.1,2,0.4
					c0.6,0.3,1.2,0.6,1.6,1.2c0.5,0.5,0.9,1.1,1.1,1.9c0.3,0.7,0.4,1.6,0.4,2.5c0,0.9-0.1,1.7-0.4,2.5c-0.3,0.7-0.7,1.3-1.1,1.8
					c-0.5,0.5-1,0.9-1.6,1.1C250.3,128.8,249.6,128.9,248.9,128.9z M248.9,127.4c0.5,0,0.9-0.1,1.3-0.3s0.7-0.5,1-0.9
					c0.3-0.4,0.5-0.8,0.7-1.3c0.2-0.5,0.2-1.1,0.2-1.7c0-0.6-0.1-1.2-0.2-1.8c-0.2-0.5-0.4-1-0.7-1.4c-0.3-0.4-0.6-0.7-1-0.9
					s-0.8-0.3-1.3-0.3c-0.5,0-0.9,0.1-1.3,0.3s-0.7,0.5-1,0.9c-0.3,0.4-0.5,0.8-0.7,1.4c-0.2,0.5-0.2,1.1-0.2,1.8
					c0,0.6,0.1,1.2,0.2,1.7c0.2,0.5,0.4,1,0.7,1.3c0.3,0.4,0.6,0.7,1,0.9S248.4,127.4,248.9,127.4z"/>
				<path class="st2" d="M261.8,133.5c-0.3,0-0.5,0-0.7-0.1s-0.4-0.1-0.6-0.2l0.4-1.5c0.1,0,0.3,0.1,0.4,0.1s0.3,0.1,0.4,0.1
					c0.6,0,1.2-0.2,1.6-0.7c0.4-0.5,0.7-1,1-1.7l0.3-0.8l-4.5-11.2h2l2.3,6.2c0.2,0.5,0.3,1,0.5,1.6c0.2,0.5,0.4,1.1,0.5,1.6h0.1
					c0.2-0.5,0.3-1,0.5-1.6c0.2-0.6,0.3-1.1,0.5-1.6l2-6.2h1.8l-4.2,12.1c-0.2,0.6-0.4,1.1-0.7,1.5s-0.5,0.9-0.9,1.2
					c-0.3,0.3-0.7,0.6-1.2,0.8C262.9,133.4,262.4,133.5,261.8,133.5z"/>
				<path class="st2" d="M276.6,128.9c-0.7,0-1.3-0.1-2-0.4s-1.2-0.6-1.6-1.1c-0.5-0.5-0.9-1.1-1.1-1.8c-0.3-0.7-0.4-1.6-0.4-2.5
					c0-0.9,0.1-1.8,0.4-2.5c0.3-0.7,0.7-1.3,1.1-1.9s1-0.9,1.6-1.2c0.6-0.3,1.3-0.4,2-0.4c0.7,0,1.3,0.1,2,0.4
					c0.6,0.3,1.2,0.6,1.6,1.2c0.5,0.5,0.9,1.1,1.1,1.9c0.3,0.7,0.4,1.6,0.4,2.5c0,0.9-0.1,1.7-0.4,2.5c-0.3,0.7-0.7,1.3-1.1,1.8
					c-0.5,0.5-1,0.9-1.6,1.1C278,128.8,277.3,128.9,276.6,128.9z M276.6,127.4c0.5,0,0.9-0.1,1.3-0.3s0.7-0.5,1-0.9
					c0.3-0.4,0.5-0.8,0.7-1.3c0.2-0.5,0.2-1.1,0.2-1.7c0-0.6-0.1-1.2-0.2-1.8c-0.2-0.5-0.4-1-0.7-1.4c-0.3-0.4-0.6-0.7-1-0.9
					s-0.8-0.3-1.3-0.3c-0.5,0-0.9,0.1-1.3,0.3s-0.7,0.5-1,0.9c-0.3,0.4-0.5,0.8-0.7,1.4c-0.2,0.5-0.2,1.1-0.2,1.8
					c0,0.6,0.1,1.2,0.2,1.7c0.2,0.5,0.4,1,0.7,1.3c0.3,0.4,0.6,0.7,1,0.9S276.2,127.4,276.6,127.4z"/>
				<path class="st2" d="M288,128.9c-1.2,0-2.1-0.4-2.6-1.1c-0.5-0.7-0.8-1.8-0.8-3.3v-7.1h1.9v6.8c0,1.1,0.2,1.8,0.5,2.3
					c0.3,0.5,0.9,0.7,1.6,0.7c0.6,0,1.1-0.1,1.5-0.4c0.4-0.3,0.9-0.8,1.5-1.4v-7.9h1.9v11.2h-1.6l-0.2-1.7h-0.1
					c-0.5,0.6-1.1,1.1-1.6,1.5C289.5,128.7,288.8,128.9,288,128.9z"/>
				<path class="st2" d="M297.3,128.7v-11.2h1.6l0.2,2h0.1c0.4-0.7,0.8-1.3,1.4-1.7c0.5-0.4,1.1-0.6,1.8-0.6c0.4,0,0.8,0.1,1.2,0.2
					l-0.4,1.7c-0.2-0.1-0.4-0.1-0.5-0.1c-0.2,0-0.3,0-0.6,0c-0.5,0-1,0.2-1.5,0.6c-0.5,0.4-1,1-1.3,2v7.2H297.3z"/>
			</g>
			<g class="st3">
				<path class="st2" d="M6.3,175.9c-0.7,0-1.4-0.1-2.1-0.4s-1.2-0.6-1.7-1.1c-0.5-0.5-0.8-1.1-1.1-1.8c-0.3-0.7-0.4-1.6-0.4-2.5
					c0-0.9,0.1-1.8,0.4-2.5c0.3-0.7,0.7-1.3,1.2-1.9s1.1-0.9,1.7-1.2c0.7-0.3,1.3-0.4,2.1-0.4c0.7,0,1.4,0.1,1.9,0.4
					c0.5,0.3,1,0.6,1.4,0.9l-1,1.2c-0.3-0.3-0.7-0.5-1-0.7c-0.4-0.2-0.8-0.3-1.2-0.3c-0.5,0-1,0.1-1.4,0.3S4.3,166.6,4,167
					c-0.3,0.4-0.5,0.8-0.7,1.4c-0.2,0.5-0.3,1.1-0.3,1.8c0,0.6,0.1,1.2,0.3,1.7c0.2,0.5,0.4,1,0.7,1.3c0.3,0.4,0.7,0.7,1.1,0.9
					c0.4,0.2,0.9,0.3,1.4,0.3c0.5,0,1-0.1,1.4-0.3c0.4-0.2,0.8-0.5,1.2-0.8l0.8,1.3c-0.5,0.4-1.1,0.8-1.7,1S7,175.9,6.3,175.9z"/>
				<path class="st2" d="M15.6,175.9c-1.2,0-2.1-0.4-2.6-1.1c-0.5-0.7-0.8-1.8-0.8-3.3v-7.1h1.9v6.8c0,1.1,0.2,1.8,0.5,2.3
					s0.9,0.7,1.6,0.7c0.6,0,1.1-0.1,1.5-0.4c0.4-0.3,0.9-0.8,1.5-1.4v-7.9h1.9v11.2h-1.6l-0.2-1.7h-0.1c-0.5,0.6-1.1,1.1-1.6,1.5
					C17.1,175.7,16.4,175.9,15.6,175.9z"/>
				<path class="st2" d="M27.8,175.9c-0.8,0-1.6-0.1-2.3-0.4s-1.3-0.7-1.9-1.1l0.9-1.3c0.5,0.4,1,0.7,1.5,1c0.5,0.2,1.1,0.4,1.8,0.4
					c0.7,0,1.3-0.2,1.7-0.5c0.4-0.3,0.6-0.8,0.6-1.2c0-0.3-0.1-0.5-0.2-0.8s-0.3-0.4-0.6-0.6c-0.2-0.2-0.5-0.3-0.8-0.4
					c-0.3-0.1-0.6-0.2-0.9-0.4c-0.4-0.1-0.8-0.3-1.2-0.5c-0.4-0.2-0.8-0.4-1.1-0.6c-0.3-0.3-0.6-0.5-0.8-0.9
					c-0.2-0.3-0.3-0.7-0.3-1.2c0-0.4,0.1-0.9,0.3-1.3c0.2-0.4,0.4-0.7,0.8-1c0.3-0.3,0.7-0.5,1.2-0.7c0.5-0.2,1-0.2,1.6-0.2
					c0.7,0,1.4,0.1,1.9,0.4s1.1,0.5,1.5,0.9l-0.9,1.2c-0.4-0.3-0.8-0.5-1.2-0.7s-0.9-0.3-1.4-0.3c-0.7,0-1.2,0.2-1.6,0.5
					s-0.5,0.7-0.5,1.1c0,0.3,0.1,0.5,0.2,0.7c0.1,0.2,0.3,0.4,0.6,0.5s0.5,0.3,0.8,0.4c0.3,0.1,0.6,0.2,0.9,0.4
					c0.4,0.2,0.8,0.3,1.2,0.5c0.4,0.2,0.8,0.4,1.1,0.6c0.3,0.3,0.6,0.6,0.8,0.9c0.2,0.4,0.3,0.8,0.3,1.3c0,0.5-0.1,0.9-0.3,1.3
					c-0.2,0.4-0.4,0.8-0.8,1.1s-0.8,0.5-1.3,0.7C29.1,175.8,28.5,175.9,27.8,175.9z"/>
				<path class="st2" d="M37.6,175.9c-0.6,0-1.1-0.1-1.5-0.3s-0.7-0.4-1-0.8s-0.4-0.7-0.5-1.2c-0.1-0.5-0.2-1-0.2-1.5V166h-1.7v-1.4
					l1.7-0.1l0.2-3.1h1.6v3.1h3v1.5h-3v6.2c0,0.7,0.1,1.2,0.4,1.6s0.7,0.6,1.3,0.6c0.2,0,0.4,0,0.6-0.1c0.2-0.1,0.4-0.1,0.6-0.2
					l0.4,1.4c-0.3,0.1-0.6,0.2-1,0.3C38.3,175.9,37.9,175.9,37.6,175.9z"/>
				<path class="st2" d="M45.9,175.9c-0.7,0-1.3-0.1-2-0.4s-1.2-0.6-1.6-1.1c-0.5-0.5-0.9-1.1-1.1-1.8c-0.3-0.7-0.4-1.6-0.4-2.5
					c0-0.9,0.1-1.8,0.4-2.5s0.7-1.3,1.1-1.9c0.5-0.5,1-0.9,1.6-1.2c0.6-0.3,1.3-0.4,2-0.4s1.3,0.1,2,0.4c0.6,0.3,1.2,0.6,1.6,1.2
					c0.5,0.5,0.9,1.1,1.1,1.9s0.4,1.6,0.4,2.5c0,0.9-0.1,1.7-0.4,2.5c-0.3,0.7-0.7,1.3-1.1,1.8c-0.5,0.5-1,0.9-1.6,1.1
					C47.2,175.8,46.6,175.9,45.9,175.9z M45.9,174.4c0.5,0,0.9-0.1,1.3-0.3c0.4-0.2,0.7-0.5,1-0.9c0.3-0.4,0.5-0.8,0.7-1.3
					c0.2-0.5,0.2-1.1,0.2-1.7c0-0.6-0.1-1.2-0.2-1.8c-0.2-0.5-0.4-1-0.7-1.4c-0.3-0.4-0.6-0.7-1-0.9c-0.4-0.2-0.8-0.3-1.3-0.3
					c-0.5,0-0.9,0.1-1.3,0.3c-0.4,0.2-0.7,0.5-1,0.9c-0.3,0.4-0.5,0.8-0.7,1.4c-0.2,0.5-0.2,1.1-0.2,1.8c0,0.6,0.1,1.2,0.2,1.7
					c0.2,0.5,0.4,1,0.7,1.3c0.3,0.4,0.6,0.7,1,0.9C44.9,174.3,45.4,174.4,45.9,174.4z"/>
				<path class="st2" d="M54,175.7v-11.2h1.6l0.2,1.6h0.1c0.5-0.5,1-1,1.6-1.3c0.6-0.4,1.2-0.5,1.9-0.5c0.9,0,1.5,0.2,2,0.6
					c0.5,0.4,0.8,0.9,1.1,1.6c0.6-0.6,1.2-1.2,1.8-1.6c0.6-0.4,1.2-0.6,1.9-0.6c1.1,0,2,0.4,2.6,1.1c0.6,0.7,0.8,1.8,0.8,3.3v7.1
					h-1.9v-6.8c0-1.1-0.2-1.8-0.5-2.3s-0.9-0.7-1.6-0.7c-0.8,0-1.8,0.6-2.8,1.7v8.1h-1.9v-6.8c0-1.1-0.2-1.8-0.5-2.3
					c-0.3-0.5-0.9-0.7-1.6-0.7c-0.8,0-1.8,0.6-2.8,1.7v8.1H54z"/>
				<path class="st2" d="M77.6,175.9c-0.8,0-1.5-0.1-2.1-0.4c-0.7-0.3-1.2-0.7-1.7-1.1s-0.9-1.1-1.1-1.8c-0.3-0.7-0.4-1.5-0.4-2.5
					s0.1-1.7,0.4-2.5s0.7-1.3,1.1-1.9c0.5-0.5,1-0.9,1.6-1.2c0.6-0.3,1.2-0.4,1.9-0.4c0.7,0,1.3,0.1,1.9,0.4c0.6,0.2,1,0.6,1.4,1.1
					c0.4,0.5,0.7,1,0.9,1.7c0.2,0.6,0.3,1.4,0.3,2.2c0,0.2,0,0.4,0,0.6c0,0.2,0,0.4-0.1,0.5h-7.5c0.1,1.2,0.4,2.1,1.1,2.8
					c0.7,0.7,1.5,1,2.6,1c0.5,0,1-0.1,1.5-0.2s0.9-0.4,1.3-0.6l0.7,1.2c-0.5,0.3-1,0.6-1.6,0.8C79,175.8,78.3,175.9,77.6,175.9z
					 M74.1,169.2h6c0-1.1-0.2-2-0.7-2.6c-0.5-0.6-1.2-0.9-2-0.9c-0.4,0-0.8,0.1-1.1,0.2c-0.4,0.2-0.7,0.4-1,0.7
					c-0.3,0.3-0.5,0.7-0.7,1.1C74.2,168.1,74.1,168.6,74.1,169.2z"/>
				<path class="st2" d="M84.5,175.7v-11.2H86l0.2,2h0.1c0.4-0.7,0.8-1.3,1.4-1.7s1.1-0.6,1.8-0.6c0.4,0,0.8,0.1,1.2,0.2l-0.4,1.7
					c-0.2-0.1-0.4-0.1-0.5-0.1c-0.2,0-0.3,0-0.6,0c-0.5,0-1,0.2-1.5,0.6c-0.5,0.4-1,1-1.3,2v7.2H84.5z"/>
				<path class="st2" d="M95.3,175.9c-0.8,0-1.6-0.1-2.3-0.4s-1.3-0.7-1.9-1.1l0.9-1.3c0.5,0.4,1,0.7,1.5,1c0.5,0.2,1.1,0.4,1.8,0.4
					c0.7,0,1.3-0.2,1.7-0.5c0.4-0.3,0.6-0.8,0.6-1.2c0-0.3-0.1-0.5-0.2-0.8s-0.3-0.4-0.6-0.6c-0.2-0.2-0.5-0.3-0.8-0.4
					c-0.3-0.1-0.6-0.2-0.9-0.4c-0.4-0.1-0.8-0.3-1.2-0.5c-0.4-0.2-0.8-0.4-1.1-0.6c-0.3-0.3-0.6-0.5-0.8-0.9
					c-0.2-0.3-0.3-0.7-0.3-1.2c0-0.4,0.1-0.9,0.3-1.3c0.2-0.4,0.4-0.7,0.8-1c0.3-0.3,0.7-0.5,1.2-0.7c0.5-0.2,1-0.2,1.6-0.2
					c0.7,0,1.4,0.1,1.9,0.4s1.1,0.5,1.5,0.9l-0.9,1.2c-0.4-0.3-0.8-0.5-1.2-0.7s-0.9-0.3-1.4-0.3c-0.7,0-1.2,0.2-1.6,0.5
					s-0.5,0.7-0.5,1.1c0,0.3,0.1,0.5,0.2,0.7c0.1,0.2,0.3,0.4,0.6,0.5s0.5,0.3,0.8,0.4c0.3,0.1,0.6,0.2,0.9,0.4
					c0.4,0.2,0.8,0.3,1.2,0.5c0.4,0.2,0.8,0.4,1.1,0.6c0.3,0.3,0.6,0.6,0.8,0.9c0.2,0.4,0.3,0.8,0.3,1.3c0,0.5-0.1,0.9-0.3,1.3
					c-0.2,0.4-0.4,0.8-0.8,1.1s-0.8,0.5-1.3,0.7C96.5,175.8,95.9,175.9,95.3,175.9z"/>
				<path class="st2" d="M109.2,175.9c-0.9,0-1.7-0.3-2.3-0.8s-0.9-1.3-0.9-2.3c0-1.2,0.5-2.2,1.6-2.8c1.1-0.7,2.8-1.1,5.2-1.4
					c0-0.4,0-0.7-0.1-1c-0.1-0.3-0.2-0.6-0.4-0.9s-0.4-0.5-0.7-0.6c-0.3-0.2-0.7-0.2-1.1-0.2c-0.6,0-1.3,0.1-1.8,0.4
					c-0.6,0.2-1.1,0.5-1.5,0.8l-0.7-1.3c0.5-0.3,1.2-0.7,1.9-1c0.8-0.3,1.6-0.5,2.5-0.5c1.4,0,2.4,0.4,3,1.3c0.6,0.8,0.9,2,0.9,3.3
					v6.9h-1.6l-0.2-1.3h-0.1c-0.5,0.4-1.1,0.8-1.7,1.1C110.5,175.8,109.9,175.9,109.2,175.9z M109.7,174.4c0.5,0,1-0.1,1.5-0.4
					c0.5-0.3,1-0.6,1.5-1.1v-3.1c-0.9,0.1-1.7,0.3-2.4,0.4c-0.6,0.2-1.1,0.4-1.5,0.6c-0.4,0.2-0.7,0.5-0.9,0.8s-0.3,0.6-0.3,1
					c0,0.6,0.2,1.1,0.6,1.4C108.7,174.3,109.2,174.4,109.7,174.4z"/>
				<path class="st2" d="M118.2,175.7v-11.2h1.6l0.2,1.6h0.1c0.5-0.5,1.1-1,1.7-1.3c0.6-0.4,1.3-0.5,2.1-0.5c1.2,0,2,0.4,2.6,1.1
					c0.5,0.7,0.8,1.8,0.8,3.3v7.1h-1.9v-6.8c0-1.1-0.2-1.8-0.5-2.3s-0.9-0.7-1.6-0.7c-0.6,0-1.1,0.1-1.5,0.4c-0.4,0.3-1,0.7-1.5,1.3
					v8.1H118.2z"/>
				<path class="st2" d="M134.6,175.9c-1.4,0-2.5-0.5-3.4-1.5c-0.8-1-1.3-2.5-1.3-4.3c0-0.9,0.1-1.7,0.4-2.4
					c0.3-0.7,0.6-1.3,1.1-1.9c0.4-0.5,1-0.9,1.5-1.2c0.6-0.3,1.2-0.4,1.8-0.4s1.2,0.1,1.7,0.3c0.5,0.2,1,0.5,1.4,0.9l-0.1-1.9v-4.3
					h1.9v16.4h-1.6l-0.2-1.3H138c-0.4,0.4-1,0.8-1.5,1.1C135.8,175.8,135.2,175.9,134.6,175.9z M135,174.3c0.5,0,1-0.1,1.5-0.4
					s0.9-0.6,1.4-1.2V167c-0.5-0.4-0.9-0.7-1.4-0.9c-0.4-0.2-0.9-0.3-1.3-0.3c-0.4,0-0.9,0.1-1.3,0.3s-0.7,0.5-1,0.9
					c-0.3,0.4-0.5,0.8-0.7,1.3c-0.2,0.5-0.3,1.1-0.3,1.7c0,1.3,0.3,2.4,0.8,3.2C133.2,174,134,174.3,135,174.3z"/>
				<path class="st2" d="M151.6,175.9c-0.6,0-1.1-0.1-1.5-0.3s-0.7-0.4-1-0.8s-0.4-0.7-0.5-1.2c-0.1-0.5-0.2-1-0.2-1.5V166h-1.7
					v-1.4l1.7-0.1l0.2-3.1h1.6v3.1h3v1.5h-3v6.2c0,0.7,0.1,1.2,0.4,1.6s0.7,0.6,1.3,0.6c0.2,0,0.4,0,0.6-0.1
					c0.2-0.1,0.4-0.1,0.6-0.2l0.4,1.4c-0.3,0.1-0.6,0.2-1,0.3C152.3,175.9,152,175.9,151.6,175.9z"/>
				<path class="st2" d="M155.9,175.7v-16.4h1.9v4.5l-0.1,2.3c0.5-0.5,1.1-0.9,1.7-1.3s1.3-0.5,2-0.5c1.2,0,2,0.4,2.6,1.1
					c0.5,0.7,0.8,1.8,0.8,3.3v7.1H163v-6.8c0-1.1-0.2-1.8-0.5-2.3s-0.9-0.7-1.6-0.7c-0.6,0-1.1,0.1-1.5,0.4c-0.4,0.3-1,0.7-1.5,1.3
					v8.1H155.9z"/>
				<path class="st2" d="M172.9,175.9c-0.8,0-1.5-0.1-2.1-0.4c-0.7-0.3-1.2-0.7-1.7-1.1s-0.9-1.1-1.1-1.8c-0.3-0.7-0.4-1.5-0.4-2.5
					s0.1-1.7,0.4-2.5s0.7-1.3,1.1-1.9c0.5-0.5,1-0.9,1.6-1.2c0.6-0.3,1.2-0.4,1.9-0.4c0.7,0,1.3,0.1,1.9,0.4c0.6,0.2,1,0.6,1.4,1.1
					c0.4,0.5,0.7,1,0.9,1.7c0.2,0.6,0.3,1.4,0.3,2.2c0,0.2,0,0.4,0,0.6c0,0.2,0,0.4-0.1,0.5h-7.5c0.1,1.2,0.4,2.1,1.1,2.8
					c0.7,0.7,1.5,1,2.6,1c0.5,0,1-0.1,1.5-0.2s0.9-0.4,1.3-0.6l0.7,1.2c-0.5,0.3-1,0.6-1.6,0.8C174.4,175.8,173.7,175.9,172.9,175.9
					z M169.4,169.2h6c0-1.1-0.2-2-0.7-2.6c-0.5-0.6-1.2-0.9-2-0.9c-0.4,0-0.8,0.1-1.1,0.2c-0.4,0.2-0.7,0.4-1,0.7
					c-0.3,0.3-0.5,0.7-0.7,1.1C169.6,168.1,169.5,168.6,169.4,169.2z"/>
				<path class="st2" d="M180.8,162.2c-0.4,0-0.7-0.1-0.9-0.3c-0.3-0.2-0.4-0.5-0.4-0.9c0-0.4,0.1-0.7,0.4-0.9
					c0.3-0.2,0.6-0.3,0.9-0.3s0.7,0.1,0.9,0.3c0.3,0.2,0.4,0.5,0.4,0.9c0,0.4-0.1,0.6-0.4,0.9C181.5,162.1,181.1,162.2,180.8,162.2z
					 M179.8,175.7v-11.2h1.9v11.2H179.8z"/>
				<path class="st2" d="M185.5,175.7v-11.2h1.6l0.2,2h0.1c0.4-0.7,0.8-1.3,1.4-1.7c0.5-0.4,1.1-0.6,1.8-0.6c0.4,0,0.8,0.1,1.2,0.2
					l-0.4,1.7c-0.2-0.1-0.4-0.1-0.5-0.1c-0.2,0-0.3,0-0.6,0c-0.5,0-1,0.2-1.5,0.6c-0.5,0.4-1,1-1.3,2v7.2H185.5z"/>
				<path class="st2" d="M201,175.9c-0.8,0-1.6-0.1-2.3-0.4s-1.3-0.7-1.9-1.1l0.9-1.3c0.5,0.4,1,0.7,1.5,1c0.5,0.2,1.1,0.4,1.8,0.4
					c0.7,0,1.3-0.2,1.7-0.5c0.4-0.3,0.6-0.8,0.6-1.2c0-0.3-0.1-0.5-0.2-0.8s-0.3-0.4-0.6-0.6s-0.5-0.3-0.8-0.4
					c-0.3-0.1-0.6-0.2-0.9-0.4c-0.4-0.1-0.8-0.3-1.2-0.5c-0.4-0.2-0.8-0.4-1.1-0.6s-0.6-0.5-0.8-0.9c-0.2-0.3-0.3-0.7-0.3-1.2
					c0-0.4,0.1-0.9,0.3-1.3c0.2-0.4,0.4-0.7,0.8-1c0.3-0.3,0.7-0.5,1.2-0.7c0.5-0.2,1-0.2,1.6-0.2c0.7,0,1.4,0.1,1.9,0.4
					c0.6,0.2,1.1,0.5,1.5,0.9l-0.9,1.2c-0.4-0.3-0.8-0.5-1.2-0.7s-0.9-0.3-1.4-0.3c-0.7,0-1.2,0.2-1.6,0.5c-0.3,0.3-0.5,0.7-0.5,1.1
					c0,0.3,0.1,0.5,0.2,0.7c0.1,0.2,0.3,0.4,0.6,0.5c0.2,0.1,0.5,0.3,0.8,0.4c0.3,0.1,0.6,0.2,0.9,0.4c0.4,0.2,0.8,0.3,1.2,0.5
					c0.4,0.2,0.8,0.4,1.1,0.6c0.3,0.3,0.6,0.6,0.8,0.9c0.2,0.4,0.3,0.8,0.3,1.3c0,0.5-0.1,0.9-0.3,1.3c-0.2,0.4-0.4,0.8-0.8,1.1
					c-0.3,0.3-0.8,0.5-1.3,0.7C202.2,175.8,201.6,175.9,201,175.9z"/>
				<path class="st2" d="M207.7,175.7v-16.4h1.9v4.5l-0.1,2.3c0.5-0.5,1.1-0.9,1.7-1.3c0.6-0.4,1.3-0.5,2-0.5c1.2,0,2,0.4,2.6,1.1
					c0.5,0.7,0.8,1.8,0.8,3.3v7.1h-1.9v-6.8c0-1.1-0.2-1.8-0.5-2.3c-0.3-0.5-0.9-0.7-1.6-0.7c-0.6,0-1.1,0.1-1.5,0.4s-1,0.7-1.5,1.3
					v8.1H207.7z"/>
				<path class="st2" d="M224.5,175.9c-0.7,0-1.3-0.1-2-0.4s-1.2-0.6-1.6-1.1c-0.5-0.5-0.9-1.1-1.1-1.8c-0.3-0.7-0.4-1.6-0.4-2.5
					c0-0.9,0.1-1.8,0.4-2.5c0.3-0.7,0.7-1.3,1.1-1.9s1-0.9,1.6-1.2c0.6-0.3,1.3-0.4,2-0.4c0.7,0,1.3,0.1,2,0.4
					c0.6,0.3,1.2,0.6,1.6,1.2c0.5,0.5,0.9,1.1,1.1,1.9c0.3,0.7,0.4,1.6,0.4,2.5c0,0.9-0.1,1.7-0.4,2.5c-0.3,0.7-0.7,1.3-1.1,1.8
					c-0.5,0.5-1,0.9-1.6,1.1C225.9,175.8,225.2,175.9,224.5,175.9z M224.5,174.4c0.5,0,0.9-0.1,1.3-0.3s0.7-0.5,1-0.9
					c0.3-0.4,0.5-0.8,0.7-1.3c0.2-0.5,0.2-1.1,0.2-1.7c0-0.6-0.1-1.2-0.2-1.8c-0.2-0.5-0.4-1-0.7-1.4c-0.3-0.4-0.6-0.7-1-0.9
					s-0.8-0.3-1.3-0.3c-0.5,0-0.9,0.1-1.3,0.3s-0.7,0.5-1,0.9c-0.3,0.4-0.5,0.8-0.7,1.4c-0.2,0.5-0.2,1.1-0.2,1.8
					c0,0.6,0.1,1.2,0.2,1.7c0.2,0.5,0.4,1,0.7,1.3c0.3,0.4,0.6,0.7,1,0.9S224.1,174.4,224.5,174.4z"/>
				<path class="st2" d="M232.7,180.4v-15.9h1.6l0.2,1.3h0.1c0.5-0.4,1.1-0.8,1.7-1.1s1.2-0.5,1.9-0.5c0.7,0,1.4,0.1,1.9,0.4
					c0.6,0.3,1,0.7,1.4,1.2s0.6,1.1,0.8,1.8c0.2,0.7,0.3,1.5,0.3,2.4c0,1-0.1,1.8-0.4,2.5c-0.3,0.7-0.6,1.4-1.1,1.9
					c-0.4,0.5-1,0.9-1.5,1.2c-0.6,0.3-1.2,0.4-1.8,0.4c-0.5,0-1-0.1-1.6-0.3c-0.5-0.2-1-0.5-1.6-0.9l0,2v3.8H232.7z M237.3,174.3
					c0.5,0,0.9-0.1,1.3-0.3c0.4-0.2,0.7-0.5,1-0.9c0.3-0.4,0.5-0.8,0.7-1.4c0.2-0.6,0.2-1.2,0.2-1.9c0-0.6-0.1-1.2-0.2-1.7
					s-0.3-0.9-0.5-1.3c-0.2-0.4-0.5-0.6-0.9-0.8c-0.4-0.2-0.8-0.3-1.3-0.3c-0.5,0-1,0.1-1.4,0.4c-0.5,0.3-1,0.6-1.6,1.1v5.9
					c0.5,0.4,1,0.7,1.5,0.9C236.5,174.3,236.9,174.3,237.3,174.3z"/>
				<path class="st2" d="M245.4,180.4v-15.9h1.6l0.2,1.3h0.1c0.5-0.4,1.1-0.8,1.7-1.1c0.6-0.3,1.2-0.5,1.9-0.5
					c0.7,0,1.4,0.1,1.9,0.4c0.6,0.3,1,0.7,1.4,1.2c0.4,0.5,0.6,1.1,0.8,1.8c0.2,0.7,0.3,1.5,0.3,2.4c0,1-0.1,1.8-0.4,2.5
					c-0.3,0.7-0.6,1.4-1.1,1.9c-0.4,0.5-1,0.9-1.5,1.2c-0.6,0.3-1.2,0.4-1.8,0.4c-0.5,0-1-0.1-1.6-0.3c-0.5-0.2-1-0.5-1.6-0.9l0,2
					v3.8H245.4z M250.1,174.3c0.5,0,0.9-0.1,1.3-0.3s0.7-0.5,1-0.9c0.3-0.4,0.5-0.8,0.7-1.4c0.2-0.6,0.2-1.2,0.2-1.9
					c0-0.6-0.1-1.2-0.2-1.7c-0.1-0.5-0.3-0.9-0.5-1.3c-0.2-0.4-0.5-0.6-0.9-0.8c-0.4-0.2-0.8-0.3-1.3-0.3c-0.5,0-1,0.1-1.4,0.4
					s-1,0.6-1.6,1.1v5.9c0.5,0.4,1,0.7,1.5,0.9C249.3,174.3,249.7,174.3,250.1,174.3z"/>
				<path class="st2" d="M259.2,162.2c-0.4,0-0.7-0.1-0.9-0.3c-0.3-0.2-0.4-0.5-0.4-0.9c0-0.4,0.1-0.7,0.4-0.9
					c0.3-0.2,0.6-0.3,0.9-0.3s0.7,0.1,0.9,0.3c0.3,0.2,0.4,0.5,0.4,0.9c0,0.4-0.1,0.6-0.4,0.9C259.8,162.1,259.5,162.2,259.2,162.2z
					 M258.2,175.7v-11.2h1.9v11.2H258.2z"/>
				<path class="st2" d="M263.9,175.7v-11.2h1.6l0.2,1.6h0.1c0.5-0.5,1.1-1,1.7-1.3c0.6-0.4,1.3-0.5,2.1-0.5c1.2,0,2,0.4,2.6,1.1
					c0.5,0.7,0.8,1.8,0.8,3.3v7.1h-1.9v-6.8c0-1.1-0.2-1.8-0.5-2.3c-0.3-0.5-0.9-0.7-1.6-0.7c-0.6,0-1.1,0.1-1.5,0.4s-1,0.7-1.5,1.3
					v8.1H263.9z"/>
				<path class="st2" d="M280.2,180.8c-0.7,0-1.3-0.1-1.9-0.2c-0.6-0.1-1.1-0.3-1.5-0.6s-0.7-0.6-0.9-0.9c-0.2-0.4-0.3-0.8-0.3-1.3
					c0-0.5,0.1-0.9,0.4-1.4c0.3-0.4,0.7-0.8,1.2-1.2v-0.1c-0.3-0.2-0.5-0.4-0.7-0.7c-0.2-0.3-0.3-0.7-0.3-1.1c0-0.5,0.1-0.9,0.4-1.2
					s0.5-0.6,0.8-0.8v-0.1c-0.4-0.3-0.7-0.7-1-1.2s-0.4-1.1-0.4-1.8c0-0.6,0.1-1.2,0.3-1.7c0.2-0.5,0.5-0.9,0.9-1.3
					c0.4-0.3,0.8-0.6,1.3-0.8c0.5-0.2,1.1-0.3,1.6-0.3c0.3,0,0.6,0,0.9,0.1s0.5,0.1,0.7,0.2h3.9v1.4h-2.3c0.3,0.3,0.5,0.6,0.7,1
					c0.2,0.4,0.3,0.8,0.3,1.3c0,0.6-0.1,1.1-0.3,1.6c-0.2,0.5-0.5,0.9-0.9,1.2c-0.4,0.3-0.8,0.6-1.3,0.8c-0.5,0.2-1,0.3-1.6,0.3
					c-0.3,0-0.6,0-0.9-0.1c-0.3-0.1-0.6-0.2-0.8-0.3c-0.2,0.2-0.4,0.4-0.5,0.6c-0.1,0.2-0.2,0.5-0.2,0.8c0,0.4,0.1,0.6,0.4,0.9
					c0.3,0.2,0.8,0.3,1.6,0.3h2.2c1.3,0,2.3,0.2,2.9,0.6c0.7,0.4,1,1.1,1,2c0,0.5-0.1,1-0.4,1.5s-0.6,0.9-1.1,1.2
					c-0.5,0.4-1.1,0.6-1.8,0.8C281.9,180.7,281.1,180.8,280.2,180.8z M280.5,179.5c0.5,0,1-0.1,1.5-0.2c0.4-0.1,0.8-0.3,1.1-0.5
					s0.5-0.4,0.7-0.7c0.2-0.3,0.3-0.6,0.3-0.9c0-0.5-0.2-0.9-0.6-1.1c-0.4-0.2-0.9-0.3-1.7-0.3h-1.9c-0.2,0-0.4,0-0.7,0
					c-0.3,0-0.5-0.1-0.7-0.1c-0.4,0.3-0.7,0.6-0.9,0.9c-0.2,0.3-0.3,0.6-0.3,1c0,0.6,0.3,1.1,0.9,1.4S279.5,179.5,280.5,179.5z
					 M280.2,170.9c0.3,0,0.6-0.1,0.9-0.2c0.3-0.1,0.5-0.3,0.8-0.5c0.2-0.2,0.4-0.5,0.5-0.8c0.1-0.3,0.2-0.7,0.2-1.1
					c0-0.8-0.2-1.5-0.7-1.9s-1-0.7-1.7-0.7s-1.2,0.2-1.7,0.7s-0.7,1.1-0.7,1.9c0,0.4,0.1,0.8,0.2,1.1c0.1,0.3,0.3,0.6,0.5,0.8
					c0.2,0.2,0.5,0.4,0.8,0.5C279.6,170.8,279.9,170.9,280.2,170.9z"/>
			</g>
			<g class="st3">
				<path class="st2" d="M6.4,222.9c-0.8,0-1.5-0.1-2.1-0.4c-0.7-0.3-1.2-0.7-1.7-1.1s-0.9-1.1-1.1-1.8c-0.3-0.7-0.4-1.5-0.4-2.5
					s0.1-1.7,0.4-2.5s0.7-1.3,1.1-1.9c0.5-0.5,1-0.9,1.6-1.2c0.6-0.3,1.2-0.4,1.9-0.4c0.7,0,1.3,0.1,1.9,0.4c0.6,0.2,1,0.6,1.4,1.1
					c0.4,0.5,0.7,1,0.9,1.7c0.2,0.6,0.3,1.4,0.3,2.2c0,0.2,0,0.4,0,0.6c0,0.2,0,0.4-0.1,0.5H2.9c0.1,1.2,0.4,2.1,1.1,2.8
					c0.7,0.7,1.5,1,2.6,1c0.5,0,1-0.1,1.5-0.2c0.5-0.2,0.9-0.4,1.3-0.6l0.7,1.2c-0.5,0.3-1,0.6-1.6,0.8
					C7.9,222.8,7.2,222.9,6.4,222.9z M2.9,216.2h6c0-1.1-0.2-2-0.7-2.6c-0.5-0.6-1.2-0.9-2-0.9c-0.4,0-0.8,0.1-1.1,0.2
					c-0.4,0.2-0.7,0.4-1,0.7c-0.3,0.3-0.5,0.7-0.7,1.1C3.1,215.1,3,215.6,2.9,216.2z"/>
				<path class="st2" d="M11.6,222.7l3.7-5.8l-3.4-5.3h2l1.5,2.5c0.2,0.3,0.3,0.6,0.5,0.9s0.4,0.6,0.6,0.9h0.1
					c0.2-0.3,0.3-0.6,0.5-0.9s0.3-0.6,0.5-0.9l1.4-2.5h2l-3.4,5.5l3.6,5.6h-2l-1.6-2.6c-0.2-0.3-0.4-0.7-0.6-1
					c-0.2-0.3-0.4-0.7-0.6-1h-0.1c-0.2,0.3-0.4,0.6-0.6,1c-0.2,0.3-0.4,0.7-0.6,1l-1.5,2.6H11.6z"/>
				<path class="st2" d="M23.4,227.4v-15.9H25l0.2,1.3h0.1c0.5-0.4,1.1-0.8,1.7-1.1c0.6-0.3,1.2-0.5,1.9-0.5c0.7,0,1.4,0.1,1.9,0.4
					c0.6,0.3,1,0.7,1.4,1.2c0.4,0.5,0.6,1.1,0.8,1.8c0.2,0.7,0.3,1.5,0.3,2.4c0,1-0.1,1.8-0.4,2.5c-0.3,0.7-0.6,1.4-1.1,1.9
					s-1,0.9-1.5,1.2c-0.6,0.3-1.2,0.4-1.8,0.4c-0.5,0-1-0.1-1.6-0.3c-0.5-0.2-1-0.5-1.6-0.9l0,2v3.8H23.4z M28,221.3
					c0.5,0,0.9-0.1,1.3-0.3c0.4-0.2,0.7-0.5,1-0.9s0.5-0.8,0.7-1.4c0.2-0.6,0.2-1.2,0.2-1.9c0-0.6-0.1-1.2-0.2-1.7
					c-0.1-0.5-0.3-0.9-0.5-1.3s-0.5-0.6-0.9-0.8c-0.4-0.2-0.8-0.3-1.3-0.3c-0.5,0-1,0.1-1.4,0.4c-0.5,0.3-1,0.6-1.6,1.1v5.9
					c0.5,0.4,1,0.7,1.5,0.9C27.2,221.3,27.6,221.3,28,221.3z"/>
				<path class="st2" d="M40.7,222.9c-0.8,0-1.5-0.1-2.1-0.4c-0.7-0.3-1.2-0.7-1.7-1.1s-0.9-1.1-1.1-1.8c-0.3-0.7-0.4-1.5-0.4-2.5
					s0.1-1.7,0.4-2.5s0.7-1.3,1.1-1.9c0.5-0.5,1-0.9,1.6-1.2c0.6-0.3,1.2-0.4,1.9-0.4c0.7,0,1.3,0.1,1.9,0.4c0.6,0.2,1,0.6,1.4,1.1
					c0.4,0.5,0.7,1,0.9,1.7c0.2,0.6,0.3,1.4,0.3,2.2c0,0.2,0,0.4,0,0.6c0,0.2,0,0.4-0.1,0.5h-7.5c0.1,1.2,0.4,2.1,1.1,2.8
					c0.7,0.7,1.5,1,2.6,1c0.5,0,1-0.1,1.5-0.2s0.9-0.4,1.3-0.6l0.7,1.2c-0.5,0.3-1,0.6-1.6,0.8C42.1,222.8,41.5,222.9,40.7,222.9z
					 M37.2,216.2h6c0-1.1-0.2-2-0.7-2.6c-0.5-0.6-1.2-0.9-2-0.9c-0.4,0-0.8,0.1-1.1,0.2c-0.4,0.2-0.7,0.4-1,0.7
					c-0.3,0.3-0.5,0.7-0.7,1.1C37.4,215.1,37.2,215.6,37.2,216.2z"/>
				<path class="st2" d="M47.6,222.7v-11.2h1.6l0.2,2h0.1c0.4-0.7,0.8-1.3,1.4-1.7s1.1-0.6,1.8-0.6c0.4,0,0.8,0.1,1.2,0.2l-0.4,1.7
					c-0.2-0.1-0.4-0.1-0.5-0.1c-0.2,0-0.3,0-0.6,0c-0.5,0-1,0.2-1.5,0.6c-0.5,0.4-1,1-1.3,2v7.2H47.6z"/>
				<path class="st2" d="M56.5,209.2c-0.4,0-0.7-0.1-0.9-0.3c-0.3-0.2-0.4-0.5-0.4-0.9c0-0.4,0.1-0.7,0.4-0.9
					c0.3-0.2,0.6-0.3,0.9-0.3s0.7,0.1,0.9,0.3c0.3,0.2,0.4,0.5,0.4,0.9c0,0.4-0.1,0.6-0.4,0.9C57.2,209.1,56.9,209.2,56.5,209.2z
					 M55.5,222.7v-11.2h1.9v11.2H55.5z"/>
				<path class="st2" d="M65.7,222.9c-0.8,0-1.5-0.1-2.1-0.4c-0.7-0.3-1.2-0.7-1.7-1.1s-0.9-1.1-1.1-1.8c-0.3-0.7-0.4-1.5-0.4-2.5
					s0.1-1.7,0.4-2.5s0.7-1.3,1.1-1.9c0.5-0.5,1-0.9,1.6-1.2c0.6-0.3,1.2-0.4,1.9-0.4c0.7,0,1.3,0.1,1.9,0.4c0.6,0.2,1,0.6,1.4,1.1
					c0.4,0.5,0.7,1,0.9,1.7c0.2,0.6,0.3,1.4,0.3,2.2c0,0.2,0,0.4,0,0.6c0,0.2,0,0.4-0.1,0.5h-7.5c0.1,1.2,0.4,2.1,1.1,2.8
					c0.7,0.7,1.5,1,2.6,1c0.5,0,1-0.1,1.5-0.2s0.9-0.4,1.3-0.6l0.7,1.2c-0.5,0.3-1,0.6-1.6,0.8C67.2,222.8,66.5,222.9,65.7,222.9z
					 M62.2,216.2h6c0-1.1-0.2-2-0.7-2.6c-0.5-0.6-1.2-0.9-2-0.9c-0.4,0-0.8,0.1-1.1,0.2c-0.4,0.2-0.7,0.4-1,0.7
					c-0.3,0.3-0.5,0.7-0.7,1.1C62.4,215.1,62.3,215.6,62.2,216.2z"/>
				<path class="st2" d="M72.6,222.7v-11.2h1.6l0.2,1.6h0.1c0.5-0.5,1.1-1,1.7-1.3c0.6-0.4,1.3-0.5,2.1-0.5c1.2,0,2,0.4,2.6,1.1
					c0.5,0.7,0.8,1.8,0.8,3.3v7.1h-1.9v-6.8c0-1.1-0.2-1.8-0.5-2.3s-0.9-0.7-1.6-0.7c-0.6,0-1.1,0.1-1.5,0.4c-0.4,0.3-1,0.7-1.5,1.3
					v8.1H72.6z"/>
				<path class="st2" d="M89.6,222.9c-0.7,0-1.4-0.1-2.1-0.4s-1.2-0.6-1.7-1.1c-0.5-0.5-0.8-1.1-1.1-1.8c-0.3-0.7-0.4-1.6-0.4-2.5
					c0-0.9,0.1-1.8,0.4-2.5c0.3-0.7,0.7-1.3,1.2-1.9s1.1-0.9,1.7-1.2c0.7-0.3,1.3-0.4,2.1-0.4c0.7,0,1.4,0.1,1.9,0.4
					c0.5,0.3,1,0.6,1.4,0.9l-1,1.2c-0.3-0.3-0.7-0.5-1-0.7c-0.4-0.2-0.8-0.3-1.2-0.3c-0.5,0-1,0.1-1.4,0.3s-0.8,0.5-1.1,0.9
					c-0.3,0.4-0.5,0.8-0.7,1.4c-0.2,0.5-0.3,1.1-0.3,1.8c0,0.6,0.1,1.2,0.3,1.7c0.2,0.5,0.4,1,0.7,1.3c0.3,0.4,0.7,0.7,1.1,0.9
					c0.4,0.2,0.9,0.3,1.4,0.3c0.5,0,1-0.1,1.4-0.3c0.4-0.2,0.8-0.5,1.2-0.8l0.8,1.3c-0.5,0.4-1.1,0.8-1.7,1S90.3,222.9,89.6,222.9z"
					/>
				<path class="st2" d="M99.7,222.9c-0.8,0-1.5-0.1-2.1-0.4c-0.7-0.3-1.2-0.7-1.7-1.1s-0.9-1.1-1.1-1.8c-0.3-0.7-0.4-1.5-0.4-2.5
					s0.1-1.7,0.4-2.5s0.7-1.3,1.1-1.9c0.5-0.5,1-0.9,1.6-1.2c0.6-0.3,1.2-0.4,1.9-0.4c0.7,0,1.3,0.1,1.9,0.4c0.6,0.2,1,0.6,1.4,1.1
					c0.4,0.5,0.7,1,0.9,1.7c0.2,0.6,0.3,1.4,0.3,2.2c0,0.2,0,0.4,0,0.6c0,0.2,0,0.4-0.1,0.5h-7.5c0.1,1.2,0.4,2.1,1.1,2.8
					c0.7,0.7,1.5,1,2.6,1c0.5,0,1-0.1,1.5-0.2s0.9-0.4,1.3-0.6l0.7,1.2c-0.5,0.3-1,0.6-1.6,0.8C101.2,222.8,100.5,222.9,99.7,222.9z
					 M96.2,216.2h6c0-1.1-0.2-2-0.7-2.6c-0.5-0.6-1.2-0.9-2-0.9c-0.4,0-0.8,0.1-1.1,0.2c-0.4,0.2-0.7,0.4-1,0.7
					c-0.3,0.3-0.5,0.7-0.7,1.1C96.4,215.1,96.3,215.6,96.2,216.2z"/>
				<path class="st2" d="M114.7,222.9c-0.6,0-1.1-0.1-1.5-0.3s-0.7-0.4-1-0.8s-0.4-0.7-0.5-1.2c-0.1-0.5-0.2-1-0.2-1.5V213h-1.7
					v-1.4l1.7-0.1l0.2-3.1h1.6v3.1h3v1.5h-3v6.2c0,0.7,0.1,1.2,0.4,1.6s0.7,0.6,1.3,0.6c0.2,0,0.4,0,0.6-0.1
					c0.2-0.1,0.4-0.1,0.6-0.2l0.4,1.4c-0.3,0.1-0.6,0.2-1,0.3C115.4,222.9,115.1,222.9,114.7,222.9z"/>
				<path class="st2" d="M123,222.9c-0.7,0-1.3-0.1-2-0.4s-1.2-0.6-1.6-1.1c-0.5-0.5-0.9-1.1-1.1-1.8c-0.3-0.7-0.4-1.6-0.4-2.5
					c0-0.9,0.1-1.8,0.4-2.5s0.7-1.3,1.1-1.9c0.5-0.5,1-0.9,1.6-1.2c0.6-0.3,1.3-0.4,2-0.4s1.3,0.1,2,0.4c0.6,0.3,1.2,0.6,1.6,1.2
					c0.5,0.5,0.9,1.1,1.1,1.9c0.3,0.7,0.4,1.6,0.4,2.5c0,0.9-0.1,1.7-0.4,2.5c-0.3,0.7-0.7,1.3-1.1,1.8c-0.5,0.5-1,0.9-1.6,1.1
					C124.3,222.8,123.7,222.9,123,222.9z M123,221.4c0.5,0,0.9-0.1,1.3-0.3c0.4-0.2,0.7-0.5,1-0.9c0.3-0.4,0.5-0.8,0.7-1.3
					c0.2-0.5,0.2-1.1,0.2-1.7c0-0.6-0.1-1.2-0.2-1.8c-0.2-0.5-0.4-1-0.7-1.4c-0.3-0.4-0.6-0.7-1-0.9c-0.4-0.2-0.8-0.3-1.3-0.3
					c-0.5,0-0.9,0.1-1.3,0.3c-0.4,0.2-0.7,0.5-1,0.9c-0.3,0.4-0.5,0.8-0.7,1.4c-0.2,0.5-0.2,1.1-0.2,1.8c0,0.6,0.1,1.2,0.2,1.7
					c0.2,0.5,0.4,1,0.7,1.3c0.3,0.4,0.6,0.7,1,0.9C122.1,221.3,122.5,221.4,123,221.4z"/>
				<path class="st2" d="M140.7,222.9c-0.5,0-1.1-0.1-1.6-0.4c-0.6-0.3-1.1-0.6-1.6-1h-0.1l-0.2,1.2h-1.5v-16.4h1.9v4.5l0,2
					c0.5-0.4,1.1-0.8,1.7-1.1c0.6-0.3,1.2-0.4,1.8-0.4c0.7,0,1.4,0.1,1.9,0.4c0.6,0.3,1,0.7,1.4,1.2c0.4,0.5,0.7,1.1,0.9,1.8
					c0.2,0.7,0.3,1.5,0.3,2.3c0,1-0.1,1.8-0.4,2.6s-0.6,1.4-1.1,1.9s-1,0.9-1.5,1.2C141.9,222.8,141.3,222.9,140.7,222.9z
					 M140.3,221.3c0.5,0,0.9-0.1,1.3-0.3c0.4-0.2,0.7-0.5,1-0.9s0.5-0.8,0.7-1.4c0.2-0.6,0.2-1.2,0.2-1.9c0-0.6-0.1-1.2-0.2-1.7
					c-0.1-0.5-0.3-0.9-0.5-1.3s-0.5-0.6-0.9-0.8c-0.4-0.2-0.8-0.3-1.3-0.3c-0.9,0-1.9,0.5-3,1.5v5.9c0.5,0.4,1,0.7,1.5,0.9
					C139.6,221.3,140,221.3,140.3,221.3z"/>
				<path class="st2" d="M153,222.9c-0.8,0-1.5-0.1-2.1-0.4c-0.7-0.3-1.2-0.7-1.7-1.1s-0.9-1.1-1.1-1.8c-0.3-0.7-0.4-1.5-0.4-2.5
					s0.1-1.7,0.4-2.5s0.7-1.3,1.1-1.9c0.5-0.5,1-0.9,1.6-1.2c0.6-0.3,1.2-0.4,1.9-0.4c0.7,0,1.3,0.1,1.9,0.4c0.6,0.2,1,0.6,1.4,1.1
					c0.4,0.5,0.7,1,0.9,1.7c0.2,0.6,0.3,1.4,0.3,2.2c0,0.2,0,0.4,0,0.6c0,0.2,0,0.4-0.1,0.5h-7.5c0.1,1.2,0.4,2.1,1.1,2.8
					c0.7,0.7,1.5,1,2.6,1c0.5,0,1-0.1,1.5-0.2s0.9-0.4,1.3-0.6l0.7,1.2c-0.5,0.3-1,0.6-1.6,0.8C154.4,222.8,153.7,222.9,153,222.9z
					 M149.5,216.2h6c0-1.1-0.2-2-0.7-2.6c-0.5-0.6-1.2-0.9-2-0.9c-0.4,0-0.8,0.1-1.1,0.2c-0.4,0.2-0.7,0.4-1,0.7
					c-0.3,0.3-0.5,0.7-0.7,1.1C149.6,215.1,149.5,215.6,149.5,216.2z"/>
				<path class="st2" d="M163.1,222.9c-0.6,0-1.1-0.1-1.5-0.3s-0.7-0.4-1-0.8s-0.4-0.7-0.5-1.2c-0.1-0.5-0.2-1-0.2-1.5V213h-1.7
					v-1.4l1.7-0.1l0.2-3.1h1.6v3.1h3v1.5h-3v6.2c0,0.7,0.1,1.2,0.4,1.6s0.7,0.6,1.3,0.6c0.2,0,0.4,0,0.6-0.1
					c0.2-0.1,0.4-0.1,0.6-0.2l0.4,1.4c-0.3,0.1-0.6,0.2-1,0.3C163.8,222.9,163.5,222.9,163.1,222.9z"/>
				<path class="st2" d="M170.5,222.9c-0.6,0-1.1-0.1-1.5-0.3s-0.7-0.4-1-0.8s-0.4-0.7-0.5-1.2c-0.1-0.5-0.2-1-0.2-1.5V213h-1.7
					v-1.4l1.7-0.1l0.2-3.1h1.6v3.1h3v1.5h-3v6.2c0,0.7,0.1,1.2,0.4,1.6s0.7,0.6,1.3,0.6c0.2,0,0.4,0,0.6-0.1
					c0.2-0.1,0.4-0.1,0.6-0.2l0.4,1.4c-0.3,0.1-0.6,0.2-1,0.3C171.2,222.9,170.8,222.9,170.5,222.9z"/>
				<path class="st2" d="M178.9,222.9c-0.8,0-1.5-0.1-2.1-0.4c-0.7-0.3-1.2-0.7-1.7-1.1s-0.9-1.1-1.1-1.8c-0.3-0.7-0.4-1.5-0.4-2.5
					s0.1-1.7,0.4-2.5s0.7-1.3,1.1-1.9c0.5-0.5,1-0.9,1.6-1.2c0.6-0.3,1.2-0.4,1.9-0.4c0.7,0,1.3,0.1,1.9,0.4c0.6,0.2,1,0.6,1.4,1.1
					c0.4,0.5,0.7,1,0.9,1.7c0.2,0.6,0.3,1.4,0.3,2.2c0,0.2,0,0.4,0,0.6c0,0.2,0,0.4-0.1,0.5h-7.5c0.1,1.2,0.4,2.1,1.1,2.8
					c0.7,0.7,1.5,1,2.6,1c0.5,0,1-0.1,1.5-0.2s0.9-0.4,1.3-0.6l0.7,1.2c-0.5,0.3-1,0.6-1.6,0.8C180.4,222.8,179.7,222.9,178.9,222.9
					z M175.4,216.2h6c0-1.1-0.2-2-0.7-2.6c-0.5-0.6-1.2-0.9-2-0.9c-0.4,0-0.8,0.1-1.1,0.2c-0.4,0.2-0.7,0.4-1,0.7
					c-0.3,0.3-0.5,0.7-0.7,1.1C175.6,215.1,175.5,215.6,175.4,216.2z"/>
				<path class="st2" d="M185.8,222.7v-11.2h1.6l0.2,2h0.1c0.4-0.7,0.8-1.3,1.4-1.7c0.5-0.4,1.1-0.6,1.8-0.6c0.4,0,0.8,0.1,1.2,0.2
					l-0.4,1.7c-0.2-0.1-0.4-0.1-0.5-0.1c-0.2,0-0.3,0-0.6,0c-0.5,0-1,0.2-1.5,0.6c-0.5,0.4-1,1-1.3,2v7.2H185.8z"/>
				<path class="st2" d="M201.9,222.9c-0.6,0-1.1-0.1-1.5-0.3s-0.7-0.4-1-0.8s-0.4-0.7-0.5-1.2s-0.2-1-0.2-1.5V213H197v-1.4l1.7-0.1
					l0.2-3.1h1.6v3.1h3v1.5h-3v6.2c0,0.7,0.1,1.2,0.4,1.6s0.7,0.6,1.3,0.6c0.2,0,0.4,0,0.6-0.1c0.2-0.1,0.4-0.1,0.6-0.2l0.4,1.4
					c-0.3,0.1-0.6,0.2-1,0.3S202.2,222.9,201.9,222.9z"/>
				<path class="st2" d="M208.2,222.9c-0.9,0-1.7-0.3-2.3-0.8s-0.9-1.3-0.9-2.3c0-1.2,0.5-2.2,1.6-2.8c1.1-0.7,2.8-1.1,5.2-1.4
					c0-0.4,0-0.7-0.1-1c-0.1-0.3-0.2-0.6-0.4-0.9s-0.4-0.5-0.7-0.6s-0.7-0.2-1.1-0.2c-0.6,0-1.3,0.1-1.8,0.4
					c-0.6,0.2-1.1,0.5-1.5,0.8l-0.7-1.3c0.5-0.3,1.2-0.7,1.9-1s1.6-0.5,2.5-0.5c1.4,0,2.4,0.4,3,1.3s0.9,2,0.9,3.3v6.9h-1.6
					l-0.2-1.3h-0.1c-0.5,0.4-1.1,0.8-1.7,1.1C209.6,222.8,208.9,222.9,208.2,222.9z M208.8,221.4c0.5,0,1-0.1,1.5-0.4s1-0.6,1.5-1.1
					v-3.1c-0.9,0.1-1.7,0.3-2.4,0.4c-0.6,0.2-1.1,0.4-1.5,0.6c-0.4,0.2-0.7,0.5-0.9,0.8c-0.2,0.3-0.3,0.6-0.3,1
					c0,0.6,0.2,1.1,0.6,1.4C207.8,221.3,208.2,221.4,208.8,221.4z"/>
				<path class="st2" d="M218.2,209.2c-0.4,0-0.7-0.1-0.9-0.3c-0.3-0.2-0.4-0.5-0.4-0.9c0-0.4,0.1-0.7,0.4-0.9
					c0.3-0.2,0.6-0.3,0.9-0.3s0.7,0.1,0.9,0.3c0.3,0.2,0.4,0.5,0.4,0.9c0,0.4-0.1,0.6-0.4,0.9C218.9,209.1,218.6,209.2,218.2,209.2z
					 M217.3,222.7v-11.2h1.9v11.2H217.3z"/>
				<path class="st2" d="M224.9,222.9c-0.7,0-1.2-0.2-1.5-0.6c-0.3-0.4-0.5-1.1-0.5-1.9v-14.1h1.9v14.3c0,0.3,0.1,0.5,0.2,0.6
					s0.2,0.2,0.4,0.2c0.1,0,0.1,0,0.2,0c0.1,0,0.1,0,0.2,0l0.3,1.4c-0.1,0.1-0.3,0.1-0.4,0.1C225.4,222.9,225.2,222.9,224.9,222.9z"
					/>
				<path class="st2" d="M233.1,222.9c-0.7,0-1.3-0.1-2-0.4s-1.2-0.6-1.6-1.1c-0.5-0.5-0.9-1.1-1.1-1.8c-0.3-0.7-0.4-1.6-0.4-2.5
					c0-0.9,0.1-1.8,0.4-2.5c0.3-0.7,0.7-1.3,1.1-1.9s1-0.9,1.6-1.2c0.6-0.3,1.3-0.4,2-0.4c0.7,0,1.3,0.1,2,0.4
					c0.6,0.3,1.2,0.6,1.6,1.2c0.5,0.5,0.9,1.1,1.1,1.9c0.3,0.7,0.4,1.6,0.4,2.5c0,0.9-0.1,1.7-0.4,2.5c-0.3,0.7-0.7,1.3-1.1,1.8
					c-0.5,0.5-1,0.9-1.6,1.1C234.5,222.8,233.8,222.9,233.1,222.9z M233.1,221.4c0.5,0,0.9-0.1,1.3-0.3s0.7-0.5,1-0.9
					c0.3-0.4,0.5-0.8,0.7-1.3c0.2-0.5,0.2-1.1,0.2-1.7c0-0.6-0.1-1.2-0.2-1.8c-0.2-0.5-0.4-1-0.7-1.4c-0.3-0.4-0.6-0.7-1-0.9
					s-0.8-0.3-1.3-0.3c-0.5,0-0.9,0.1-1.3,0.3s-0.7,0.5-1,0.9c-0.3,0.4-0.5,0.8-0.7,1.4c-0.2,0.5-0.2,1.1-0.2,1.8
					c0,0.6,0.1,1.2,0.2,1.7c0.2,0.5,0.4,1,0.7,1.3c0.3,0.4,0.6,0.7,1,0.9S232.6,221.4,233.1,221.4z"/>
				<path class="st2" d="M241.2,222.7v-11.2h1.6l0.2,2h0.1c0.4-0.7,0.8-1.3,1.4-1.7c0.5-0.4,1.1-0.6,1.8-0.6c0.4,0,0.8,0.1,1.2,0.2
					l-0.4,1.7c-0.2-0.1-0.4-0.1-0.5-0.1c-0.2,0-0.3,0-0.6,0c-0.5,0-1,0.2-1.5,0.6c-0.5,0.4-1,1-1.3,2v7.2H241.2z"/>
				<path class="st2" d="M257.3,222.9c-0.6,0-1.1-0.1-1.5-0.3c-0.4-0.2-0.7-0.4-1-0.8s-0.4-0.7-0.5-1.2c-0.1-0.5-0.2-1-0.2-1.5V213
					h-1.7v-1.4l1.7-0.1l0.2-3.1h1.6v3.1h3v1.5h-3v6.2c0,0.7,0.1,1.2,0.4,1.6s0.7,0.6,1.3,0.6c0.2,0,0.4,0,0.6-0.1
					c0.2-0.1,0.4-0.1,0.6-0.2l0.4,1.4c-0.3,0.1-0.6,0.2-1,0.3C258.1,222.9,257.7,222.9,257.3,222.9z"/>
				<path class="st2" d="M261.6,222.7v-16.4h1.9v4.5l-0.1,2.3c0.5-0.5,1.1-0.9,1.7-1.3c0.6-0.4,1.3-0.5,2-0.5c1.2,0,2,0.4,2.6,1.1
					c0.5,0.7,0.8,1.8,0.8,3.3v7.1h-1.9v-6.8c0-1.1-0.2-1.8-0.5-2.3c-0.3-0.5-0.9-0.7-1.6-0.7c-0.6,0-1.1,0.1-1.5,0.4s-1,0.7-1.5,1.3
					v8.1H261.6z"/>
				<path class="st2" d="M278.6,222.9c-0.8,0-1.5-0.1-2.1-0.4c-0.7-0.3-1.2-0.7-1.7-1.1c-0.5-0.5-0.9-1.1-1.1-1.8
					c-0.3-0.7-0.4-1.5-0.4-2.5s0.1-1.7,0.4-2.5c0.3-0.7,0.7-1.3,1.1-1.9c0.5-0.5,1-0.9,1.6-1.2c0.6-0.3,1.2-0.4,1.9-0.4
					c0.7,0,1.3,0.1,1.9,0.4s1,0.6,1.4,1.1c0.4,0.5,0.7,1,0.9,1.7c0.2,0.6,0.3,1.4,0.3,2.2c0,0.2,0,0.4,0,0.6c0,0.2,0,0.4-0.1,0.5
					h-7.5c0.1,1.2,0.4,2.1,1.1,2.8c0.7,0.7,1.5,1,2.6,1c0.5,0,1-0.1,1.5-0.2s0.9-0.4,1.3-0.6l0.7,1.2c-0.5,0.3-1,0.6-1.6,0.8
					C280.1,222.8,279.4,222.9,278.6,222.9z M275.1,216.2h6c0-1.1-0.2-2-0.7-2.6c-0.5-0.6-1.2-0.9-2-0.9c-0.4,0-0.8,0.1-1.1,0.2
					s-0.7,0.4-1,0.7s-0.5,0.7-0.7,1.1C275.3,215.1,275.2,215.6,275.1,216.2z"/>
				<path class="st2" d="M286.5,209.2c-0.4,0-0.7-0.1-0.9-0.3c-0.3-0.2-0.4-0.5-0.4-0.9c0-0.4,0.1-0.7,0.4-0.9
					c0.3-0.2,0.6-0.3,0.9-0.3s0.7,0.1,0.9,0.3c0.3,0.2,0.4,0.5,0.4,0.9c0,0.4-0.1,0.6-0.4,0.9C287.2,209.1,286.9,209.2,286.5,209.2z
					 M285.5,222.7v-11.2h1.9v11.2H285.5z"/>
				<path class="st2" d="M291.2,222.7v-11.2h1.6l0.2,2h0.1c0.4-0.7,0.8-1.3,1.4-1.7c0.5-0.4,1.1-0.6,1.8-0.6c0.4,0,0.8,0.1,1.2,0.2
					l-0.4,1.7c-0.2-0.1-0.4-0.1-0.5-0.1c-0.2,0-0.3,0-0.6,0c-0.5,0-1,0.2-1.5,0.6c-0.5,0.4-1,1-1.3,2v7.2H291.2z"/>
			</g>
			<g class="st3">
				<path class="st2" d="M4.8,269.9c-0.8,0-1.6-0.1-2.3-0.4s-1.3-0.7-1.9-1.1l0.9-1.3c0.5,0.4,1,0.7,1.5,1c0.5,0.2,1.1,0.4,1.8,0.4
					c0.7,0,1.3-0.2,1.7-0.5c0.4-0.3,0.6-0.8,0.6-1.2c0-0.3-0.1-0.5-0.2-0.8s-0.3-0.4-0.6-0.6c-0.2-0.2-0.5-0.3-0.8-0.4
					c-0.3-0.1-0.6-0.2-0.9-0.4c-0.4-0.1-0.8-0.3-1.2-0.5c-0.4-0.2-0.8-0.4-1.1-0.6c-0.3-0.3-0.6-0.5-0.8-0.9
					c-0.2-0.3-0.3-0.7-0.3-1.2c0-0.4,0.1-0.9,0.3-1.3c0.2-0.4,0.4-0.7,0.8-1c0.3-0.3,0.7-0.5,1.2-0.7c0.5-0.2,1-0.2,1.6-0.2
					c0.7,0,1.4,0.1,1.9,0.4s1.1,0.5,1.5,0.9l-0.9,1.2c-0.4-0.3-0.8-0.5-1.2-0.7s-0.9-0.3-1.4-0.3c-0.7,0-1.2,0.2-1.6,0.5
					S3,260.9,3,261.3c0,0.3,0.1,0.5,0.2,0.7c0.1,0.2,0.3,0.4,0.6,0.5c0.2,0.1,0.5,0.3,0.8,0.4c0.3,0.1,0.6,0.2,0.9,0.4
					c0.4,0.2,0.8,0.3,1.2,0.5c0.4,0.2,0.8,0.4,1.1,0.6c0.3,0.3,0.6,0.6,0.8,0.9c0.2,0.4,0.3,0.8,0.3,1.3c0,0.5-0.1,0.9-0.3,1.3
					c-0.2,0.4-0.4,0.8-0.8,1.1c-0.3,0.3-0.8,0.5-1.3,0.7C6.1,269.8,5.5,269.9,4.8,269.9z"/>
				<path class="st2" d="M11.5,269.7v-16.4h1.9v4.5l-0.1,2.3c0.5-0.5,1.1-0.9,1.7-1.3s1.3-0.5,2-0.5c1.2,0,2,0.4,2.6,1.1
					c0.5,0.7,0.8,1.8,0.8,3.3v7.1h-1.9v-6.8c0-1.1-0.2-1.8-0.5-2.3s-0.9-0.7-1.6-0.7c-0.6,0-1.1,0.1-1.5,0.4c-0.4,0.3-1,0.7-1.5,1.3
					v8.1H11.5z"/>
				<path class="st2" d="M28.4,269.9c-0.7,0-1.3-0.1-2-0.4s-1.2-0.6-1.6-1.1c-0.5-0.5-0.9-1.1-1.1-1.8c-0.3-0.7-0.4-1.6-0.4-2.5
					c0-0.9,0.1-1.8,0.4-2.5s0.7-1.3,1.1-1.9c0.5-0.5,1-0.9,1.6-1.2c0.6-0.3,1.3-0.4,2-0.4s1.3,0.1,2,0.4c0.6,0.3,1.2,0.6,1.6,1.2
					c0.5,0.5,0.9,1.1,1.1,1.9s0.4,1.6,0.4,2.5c0,0.9-0.1,1.7-0.4,2.5c-0.3,0.7-0.7,1.3-1.1,1.8c-0.5,0.5-1,0.9-1.6,1.1
					C29.7,269.8,29.1,269.9,28.4,269.9z M28.4,268.4c0.5,0,0.9-0.1,1.3-0.3c0.4-0.2,0.7-0.5,1-0.9c0.3-0.4,0.5-0.8,0.7-1.3
					c0.2-0.5,0.2-1.1,0.2-1.7c0-0.6-0.1-1.2-0.2-1.8c-0.2-0.5-0.4-1-0.7-1.4c-0.3-0.4-0.6-0.7-1-0.9c-0.4-0.2-0.8-0.3-1.3-0.3
					c-0.5,0-0.9,0.1-1.3,0.3c-0.4,0.2-0.7,0.5-1,0.9c-0.3,0.4-0.5,0.8-0.7,1.4c-0.2,0.5-0.2,1.1-0.2,1.8c0,0.6,0.1,1.2,0.2,1.7
					c0.2,0.5,0.4,1,0.7,1.3c0.3,0.4,0.6,0.7,1,0.9C27.5,268.3,27.9,268.4,28.4,268.4z"/>
				<path class="st2" d="M36.5,274.4v-15.9h1.6l0.2,1.3h0.1c0.5-0.4,1.1-0.8,1.7-1.1c0.6-0.3,1.2-0.5,1.9-0.5c0.7,0,1.4,0.1,1.9,0.4
					c0.6,0.3,1,0.7,1.4,1.2c0.4,0.5,0.6,1.1,0.8,1.8c0.2,0.7,0.3,1.5,0.3,2.4c0,1-0.1,1.8-0.4,2.5c-0.3,0.7-0.6,1.4-1.1,1.9
					s-1,0.9-1.5,1.2c-0.6,0.3-1.2,0.4-1.8,0.4c-0.5,0-1-0.1-1.6-0.3c-0.5-0.2-1-0.5-1.6-0.9l0,2v3.8H36.5z M41.1,268.3
					c0.5,0,0.9-0.1,1.3-0.3c0.4-0.2,0.7-0.5,1-0.9s0.5-0.8,0.7-1.4c0.2-0.6,0.2-1.2,0.2-1.9c0-0.6-0.1-1.2-0.2-1.7
					c-0.1-0.5-0.3-0.9-0.5-1.3s-0.5-0.6-0.9-0.8c-0.4-0.2-0.8-0.3-1.3-0.3c-0.5,0-1,0.1-1.4,0.4c-0.5,0.3-1,0.6-1.6,1.1v5.9
					c0.5,0.4,1,0.7,1.5,0.9C40.3,268.3,40.8,268.3,41.1,268.3z"/>
				<path class="st2" d="M49.3,274.4v-15.9h1.6l0.2,1.3h0.1c0.5-0.4,1.1-0.8,1.7-1.1c0.6-0.3,1.2-0.5,1.9-0.5c0.7,0,1.4,0.1,1.9,0.4
					c0.6,0.3,1,0.7,1.4,1.2c0.4,0.5,0.6,1.1,0.8,1.8c0.2,0.7,0.3,1.5,0.3,2.4c0,1-0.1,1.8-0.4,2.5c-0.3,0.7-0.6,1.4-1.1,1.9
					s-1,0.9-1.5,1.2c-0.6,0.3-1.2,0.4-1.8,0.4c-0.5,0-1-0.1-1.6-0.3c-0.5-0.2-1-0.5-1.6-0.9l0,2v3.8H49.3z M53.9,268.3
					c0.5,0,0.9-0.1,1.3-0.3c0.4-0.2,0.7-0.5,1-0.9s0.5-0.8,0.7-1.4c0.2-0.6,0.2-1.2,0.2-1.9c0-0.6-0.1-1.2-0.2-1.7
					c-0.1-0.5-0.3-0.9-0.5-1.3s-0.5-0.6-0.9-0.8c-0.4-0.2-0.8-0.3-1.3-0.3c-0.5,0-1,0.1-1.4,0.4c-0.5,0.3-1,0.6-1.6,1.1v5.9
					c0.5,0.4,1,0.7,1.5,0.9C53.1,268.3,53.5,268.3,53.9,268.3z"/>
				<path class="st2" d="M63,256.2c-0.4,0-0.7-0.1-0.9-0.3c-0.3-0.2-0.4-0.5-0.4-0.9c0-0.4,0.1-0.7,0.4-0.9c0.3-0.2,0.6-0.3,0.9-0.3
					s0.7,0.1,0.9,0.3c0.3,0.2,0.4,0.5,0.4,0.9c0,0.4-0.1,0.6-0.4,0.9C63.7,256.1,63.4,256.2,63,256.2z M62,269.7v-11.2h1.9v11.2H62z
					"/>
				<path class="st2" d="M67.7,269.7v-11.2h1.6l0.2,1.6h0.1c0.5-0.5,1.1-1,1.7-1.3c0.6-0.4,1.3-0.5,2.1-0.5c1.2,0,2,0.4,2.6,1.1
					c0.5,0.7,0.8,1.8,0.8,3.3v7.1h-1.9v-6.8c0-1.1-0.2-1.8-0.5-2.3s-0.9-0.7-1.6-0.7c-0.6,0-1.1,0.1-1.5,0.4c-0.4,0.3-1,0.7-1.5,1.3
					v8.1H67.7z"/>
				<path class="st2" d="M84,274.8c-0.7,0-1.3-0.1-1.9-0.2c-0.6-0.1-1.1-0.3-1.5-0.6s-0.7-0.6-0.9-0.9c-0.2-0.4-0.3-0.8-0.3-1.3
					c0-0.5,0.1-0.9,0.4-1.4c0.3-0.4,0.7-0.8,1.2-1.2v-0.1c-0.3-0.2-0.5-0.4-0.7-0.7s-0.3-0.7-0.3-1.1c0-0.5,0.1-0.9,0.4-1.2
					s0.5-0.6,0.8-0.8v-0.1c-0.4-0.3-0.7-0.7-1-1.2s-0.4-1.1-0.4-1.8c0-0.6,0.1-1.2,0.3-1.7c0.2-0.5,0.5-0.9,0.9-1.3
					c0.4-0.3,0.8-0.6,1.3-0.8c0.5-0.2,1.1-0.3,1.6-0.3c0.3,0,0.6,0,0.9,0.1c0.3,0.1,0.5,0.1,0.7,0.2h3.9v1.4h-2.3
					c0.3,0.3,0.5,0.6,0.7,1c0.2,0.4,0.3,0.8,0.3,1.3c0,0.6-0.1,1.1-0.3,1.6c-0.2,0.5-0.5,0.9-0.9,1.2c-0.4,0.3-0.8,0.6-1.3,0.8
					c-0.5,0.2-1,0.3-1.6,0.3c-0.3,0-0.6,0-0.9-0.1c-0.3-0.1-0.6-0.2-0.8-0.3c-0.2,0.2-0.4,0.4-0.5,0.6c-0.1,0.2-0.2,0.5-0.2,0.8
					c0,0.4,0.1,0.6,0.4,0.9c0.3,0.2,0.8,0.3,1.6,0.3h2.2c1.3,0,2.3,0.2,2.9,0.6s1,1.1,1,2c0,0.5-0.1,1-0.4,1.5s-0.6,0.9-1.1,1.2
					s-1.1,0.6-1.8,0.8C85.7,274.7,84.9,274.8,84,274.8z M84.3,273.5c0.5,0,1-0.1,1.5-0.2c0.4-0.1,0.8-0.3,1.1-0.5s0.5-0.4,0.7-0.7
					c0.2-0.3,0.3-0.6,0.3-0.9c0-0.5-0.2-0.9-0.6-1.1c-0.4-0.2-0.9-0.3-1.7-0.3h-1.9c-0.2,0-0.4,0-0.7,0c-0.3,0-0.5-0.1-0.7-0.1
					c-0.4,0.3-0.7,0.6-0.9,0.9c-0.2,0.3-0.3,0.6-0.3,1c0,0.6,0.3,1.1,0.9,1.4C82.5,273.3,83.3,273.5,84.3,273.5z M84,264.9
					c0.3,0,0.6-0.1,0.9-0.2c0.3-0.1,0.5-0.3,0.8-0.5c0.2-0.2,0.4-0.5,0.5-0.8s0.2-0.7,0.2-1.1c0-0.8-0.2-1.5-0.7-1.9s-1-0.7-1.7-0.7
					c-0.7,0-1.2,0.2-1.7,0.7s-0.7,1.1-0.7,1.9c0,0.4,0.1,0.8,0.2,1.1c0.1,0.3,0.3,0.6,0.5,0.8c0.2,0.2,0.5,0.4,0.8,0.5
					C83.4,264.8,83.7,264.9,84,264.9z"/>
				<path class="st2" d="M101,269.9c-0.8,0-1.5-0.1-2.1-0.4c-0.7-0.3-1.2-0.7-1.7-1.1s-0.9-1.1-1.1-1.8c-0.3-0.7-0.4-1.5-0.4-2.5
					s0.1-1.7,0.4-2.5s0.7-1.3,1.1-1.9c0.5-0.5,1-0.9,1.6-1.2c0.6-0.3,1.2-0.4,1.9-0.4c0.7,0,1.3,0.1,1.9,0.4c0.6,0.2,1,0.6,1.4,1.1
					c0.4,0.5,0.7,1,0.9,1.7c0.2,0.6,0.3,1.4,0.3,2.2c0,0.2,0,0.4,0,0.6c0,0.2,0,0.4-0.1,0.5h-7.5c0.1,1.2,0.4,2.1,1.1,2.8
					c0.7,0.7,1.5,1,2.6,1c0.5,0,1-0.1,1.5-0.2s0.9-0.4,1.3-0.6l0.7,1.2c-0.5,0.3-1,0.6-1.6,0.8C102.4,269.8,101.8,269.9,101,269.9z
					 M97.5,263.2h6c0-1.1-0.2-2-0.7-2.6c-0.5-0.6-1.2-0.9-2-0.9c-0.4,0-0.8,0.1-1.1,0.2c-0.4,0.2-0.7,0.4-1,0.7
					c-0.3,0.3-0.5,0.7-0.7,1.1C97.7,262.1,97.5,262.6,97.5,263.2z"/>
				<path class="st2" d="M106.1,269.7l3.7-5.8l-3.4-5.3h2l1.5,2.5c0.2,0.3,0.3,0.6,0.5,0.9s0.4,0.6,0.6,0.9h0.1
					c0.2-0.3,0.3-0.6,0.5-0.9s0.3-0.6,0.5-0.9l1.4-2.5h2l-3.4,5.5l3.6,5.6h-2l-1.6-2.6c-0.2-0.3-0.4-0.7-0.6-1
					c-0.2-0.3-0.4-0.7-0.6-1h-0.1c-0.2,0.3-0.4,0.6-0.6,1c-0.2,0.3-0.4,0.7-0.6,1l-1.5,2.6H106.1z"/>
				<path class="st2" d="M118,274.4v-15.9h1.6l0.2,1.3h0.1c0.5-0.4,1.1-0.8,1.7-1.1c0.6-0.3,1.2-0.5,1.9-0.5c0.7,0,1.4,0.1,1.9,0.4
					c0.6,0.3,1,0.7,1.4,1.2c0.4,0.5,0.6,1.1,0.8,1.8c0.2,0.7,0.3,1.5,0.3,2.4c0,1-0.1,1.8-0.4,2.5c-0.3,0.7-0.6,1.4-1.1,1.9
					s-1,0.9-1.5,1.2c-0.6,0.3-1.2,0.4-1.8,0.4c-0.5,0-1-0.1-1.6-0.3c-0.5-0.2-1-0.5-1.6-0.9l0,2v3.8H118z M122.6,268.3
					c0.5,0,0.9-0.1,1.3-0.3c0.4-0.2,0.7-0.5,1-0.9s0.5-0.8,0.7-1.4c0.2-0.6,0.2-1.2,0.2-1.9c0-0.6-0.1-1.2-0.2-1.7
					c-0.1-0.5-0.3-0.9-0.5-1.3s-0.5-0.6-0.9-0.8c-0.4-0.2-0.8-0.3-1.3-0.3c-0.5,0-1,0.1-1.4,0.4c-0.5,0.3-1,0.6-1.6,1.1v5.9
					c0.5,0.4,1,0.7,1.5,0.9C121.8,268.3,122.2,268.3,122.6,268.3z"/>
				<path class="st2" d="M135.3,269.9c-0.8,0-1.5-0.1-2.1-0.4c-0.7-0.3-1.2-0.7-1.7-1.1s-0.9-1.1-1.1-1.8c-0.3-0.7-0.4-1.5-0.4-2.5
					s0.1-1.7,0.4-2.5s0.7-1.3,1.1-1.9c0.5-0.5,1-0.9,1.6-1.2c0.6-0.3,1.2-0.4,1.9-0.4c0.7,0,1.3,0.1,1.9,0.4c0.6,0.2,1,0.6,1.4,1.1
					c0.4,0.5,0.7,1,0.9,1.7c0.2,0.6,0.3,1.4,0.3,2.2c0,0.2,0,0.4,0,0.6c0,0.2,0,0.4-0.1,0.5h-7.5c0.1,1.2,0.4,2.1,1.1,2.8
					c0.7,0.7,1.5,1,2.6,1c0.5,0,1-0.1,1.5-0.2s0.9-0.4,1.3-0.6l0.7,1.2c-0.5,0.3-1,0.6-1.6,0.8C136.7,269.8,136,269.9,135.3,269.9z
					 M131.7,263.2h6c0-1.1-0.2-2-0.7-2.6c-0.5-0.6-1.2-0.9-2-0.9c-0.4,0-0.8,0.1-1.1,0.2c-0.4,0.2-0.7,0.4-1,0.7
					c-0.3,0.3-0.5,0.7-0.7,1.1C131.9,262.1,131.8,262.6,131.7,263.2z"/>
				<path class="st2" d="M142.1,269.7v-11.2h1.6l0.2,2h0.1c0.4-0.7,0.8-1.3,1.4-1.7s1.1-0.6,1.8-0.6c0.4,0,0.8,0.1,1.2,0.2l-0.4,1.7
					c-0.2-0.1-0.4-0.1-0.5-0.1c-0.2,0-0.3,0-0.6,0c-0.5,0-1,0.2-1.5,0.6c-0.5,0.4-1,1-1.3,2v7.2H142.1z"/>
				<path class="st2" d="M151.1,256.2c-0.4,0-0.7-0.1-0.9-0.3c-0.3-0.2-0.4-0.5-0.4-0.9c0-0.4,0.1-0.7,0.4-0.9
					c0.3-0.2,0.6-0.3,0.9-0.3s0.7,0.1,0.9,0.3c0.3,0.2,0.4,0.5,0.4,0.9c0,0.4-0.1,0.6-0.4,0.9C151.8,256.1,151.5,256.2,151.1,256.2z
					 M150.1,269.7v-11.2h1.9v11.2H150.1z"/>
				<path class="st2" d="M160.3,269.9c-0.8,0-1.5-0.1-2.1-0.4c-0.7-0.3-1.2-0.7-1.7-1.1s-0.9-1.1-1.1-1.8c-0.3-0.7-0.4-1.5-0.4-2.5
					s0.1-1.7,0.4-2.5s0.7-1.3,1.1-1.9c0.5-0.5,1-0.9,1.6-1.2c0.6-0.3,1.2-0.4,1.9-0.4c0.7,0,1.3,0.1,1.9,0.4c0.6,0.2,1,0.6,1.4,1.1
					c0.4,0.5,0.7,1,0.9,1.7c0.2,0.6,0.3,1.4,0.3,2.2c0,0.2,0,0.4,0,0.6c0,0.2,0,0.4-0.1,0.5h-7.5c0.1,1.2,0.4,2.1,1.1,2.8
					c0.7,0.7,1.5,1,2.6,1c0.5,0,1-0.1,1.5-0.2s0.9-0.4,1.3-0.6l0.7,1.2c-0.5,0.3-1,0.6-1.6,0.8C161.8,269.8,161.1,269.9,160.3,269.9
					z M156.8,263.2h6c0-1.1-0.2-2-0.7-2.6c-0.5-0.6-1.2-0.9-2-0.9c-0.4,0-0.8,0.1-1.1,0.2c-0.4,0.2-0.7,0.4-1,0.7
					c-0.3,0.3-0.5,0.7-0.7,1.1C157,262.1,156.8,262.6,156.8,263.2z"/>
				<path class="st2" d="M167.2,269.7v-11.2h1.6l0.2,1.6h0.1c0.5-0.5,1.1-1,1.7-1.3c0.6-0.4,1.3-0.5,2.1-0.5c1.2,0,2,0.4,2.6,1.1
					c0.5,0.7,0.8,1.8,0.8,3.3v7.1h-1.9v-6.8c0-1.1-0.2-1.8-0.5-2.3s-0.9-0.7-1.6-0.7c-0.6,0-1.1,0.1-1.5,0.4c-0.4,0.3-1,0.7-1.5,1.3
					v8.1H167.2z"/>
				<path class="st2" d="M184.2,269.9c-0.7,0-1.4-0.1-2.1-0.4s-1.2-0.6-1.7-1.1c-0.5-0.5-0.8-1.1-1.1-1.8c-0.3-0.7-0.4-1.6-0.4-2.5
					c0-0.9,0.1-1.8,0.4-2.5c0.3-0.7,0.7-1.3,1.2-1.9s1.1-0.9,1.7-1.2c0.7-0.3,1.3-0.4,2.1-0.4c0.7,0,1.4,0.1,1.9,0.4
					c0.5,0.3,1,0.6,1.4,0.9l-1,1.2c-0.3-0.3-0.7-0.5-1-0.7c-0.4-0.2-0.8-0.3-1.2-0.3c-0.5,0-1,0.1-1.4,0.3s-0.8,0.5-1.1,0.9
					c-0.3,0.4-0.5,0.8-0.7,1.4c-0.2,0.5-0.3,1.1-0.3,1.8c0,0.6,0.1,1.2,0.3,1.7c0.2,0.5,0.4,1,0.7,1.3c0.3,0.4,0.7,0.7,1.1,0.9
					c0.4,0.2,0.9,0.3,1.4,0.3c0.5,0,1-0.1,1.4-0.3c0.4-0.2,0.8-0.5,1.2-0.8l0.8,1.3c-0.5,0.4-1.1,0.8-1.7,1S184.9,269.9,184.2,269.9
					z"/>
				<path class="st2" d="M194.3,269.9c-0.8,0-1.5-0.1-2.1-0.4c-0.7-0.3-1.2-0.7-1.7-1.1c-0.5-0.5-0.9-1.1-1.1-1.8
					c-0.3-0.7-0.4-1.5-0.4-2.5s0.1-1.7,0.4-2.5c0.3-0.7,0.7-1.3,1.1-1.9c0.5-0.5,1-0.9,1.6-1.2c0.6-0.3,1.2-0.4,1.9-0.4
					c0.7,0,1.3,0.1,1.9,0.4s1,0.6,1.4,1.1c0.4,0.5,0.7,1,0.9,1.7c0.2,0.6,0.3,1.4,0.3,2.2c0,0.2,0,0.4,0,0.6c0,0.2,0,0.4-0.1,0.5
					h-7.5c0.1,1.2,0.4,2.1,1.1,2.8c0.7,0.7,1.5,1,2.6,1c0.5,0,1-0.1,1.5-0.2s0.9-0.4,1.3-0.6l0.7,1.2c-0.5,0.3-1,0.6-1.6,0.8
					C195.7,269.8,195.1,269.9,194.3,269.9z M190.8,263.2h6c0-1.1-0.2-2-0.7-2.6c-0.5-0.6-1.2-0.9-2-0.9c-0.4,0-0.8,0.1-1.1,0.2
					s-0.7,0.4-1,0.7s-0.5,0.7-0.7,1.1C191,262.1,190.8,262.6,190.8,263.2z"/>
				<path class="st2" d="M200.8,273.6l-0.5-1.1c0.7-0.3,1.2-0.7,1.5-1.2s0.5-1,0.5-1.6c0,0-0.1,0-0.2,0c-0.4,0-0.7-0.1-1-0.3
					c-0.3-0.2-0.4-0.5-0.4-1c0-0.4,0.1-0.7,0.4-1c0.3-0.2,0.6-0.4,1-0.4c0.5,0,0.9,0.2,1.2,0.6c0.3,0.4,0.4,0.9,0.4,1.6
					c0,1-0.3,1.9-0.8,2.6C202.5,272.6,201.8,273.2,200.8,273.6z"/>
				<path class="st2" d="M214.1,269.9c-0.9,0-1.7-0.3-2.3-0.8s-0.9-1.3-0.9-2.3c0-1.2,0.5-2.2,1.6-2.8c1.1-0.7,2.8-1.1,5.2-1.4
					c0-0.4,0-0.7-0.1-1c-0.1-0.3-0.2-0.6-0.4-0.9s-0.4-0.5-0.7-0.6c-0.3-0.2-0.7-0.2-1.1-0.2c-0.6,0-1.3,0.1-1.8,0.4
					c-0.6,0.2-1.1,0.5-1.5,0.8l-0.7-1.3c0.5-0.3,1.2-0.7,1.9-1c0.8-0.3,1.6-0.5,2.5-0.5c1.4,0,2.4,0.4,3,1.3c0.6,0.8,0.9,2,0.9,3.3
					v6.9H218l-0.2-1.3h-0.1c-0.5,0.4-1.1,0.8-1.7,1.1C215.4,269.8,214.8,269.9,214.1,269.9z M214.6,268.4c0.5,0,1-0.1,1.5-0.4
					c0.5-0.3,1-0.6,1.5-1.1v-3.1c-0.9,0.1-1.7,0.3-2.4,0.4c-0.6,0.2-1.2,0.4-1.5,0.6c-0.4,0.2-0.7,0.5-0.9,0.8
					c-0.2,0.3-0.3,0.6-0.3,1c0,0.6,0.2,1.1,0.6,1.4C213.6,268.3,214.1,268.4,214.6,268.4z"/>
				<path class="st2" d="M223.1,269.7v-11.2h1.6l0.2,1.6h0.1c0.5-0.5,1.1-1,1.7-1.3s1.3-0.5,2.1-0.5c1.2,0,2,0.4,2.6,1.1
					c0.5,0.7,0.8,1.8,0.8,3.3v7.1h-1.9v-6.8c0-1.1-0.2-1.8-0.5-2.3c-0.3-0.5-0.9-0.7-1.6-0.7c-0.6,0-1.1,0.1-1.5,0.4
					c-0.4,0.3-1,0.7-1.5,1.3v8.1H223.1z"/>
				<path class="st2" d="M239.5,269.9c-1.4,0-2.5-0.5-3.4-1.5s-1.3-2.5-1.3-4.3c0-0.9,0.1-1.7,0.4-2.4c0.3-0.7,0.6-1.3,1.1-1.9
					c0.4-0.5,1-0.9,1.5-1.2s1.2-0.4,1.8-0.4c0.6,0,1.2,0.1,1.7,0.3c0.5,0.2,1,0.5,1.4,0.9l-0.1-1.9v-4.3h1.9v16.4h-1.6l-0.2-1.3
					h-0.1c-0.4,0.4-1,0.8-1.5,1.1C240.8,269.8,240.2,269.9,239.5,269.9z M239.9,268.3c0.5,0,1-0.1,1.5-0.4s0.9-0.6,1.4-1.2V261
					c-0.5-0.4-0.9-0.7-1.4-0.9c-0.4-0.2-0.9-0.3-1.3-0.3c-0.4,0-0.9,0.1-1.3,0.3c-0.4,0.2-0.7,0.5-1,0.9c-0.3,0.4-0.5,0.8-0.7,1.3
					c-0.2,0.5-0.3,1.1-0.3,1.7c0,1.3,0.3,2.4,0.8,3.2C238.2,268,238.9,268.3,239.9,268.3z"/>
				<path class="st2" d="M253,269.7v-16.4h1.9v11.1h0.1l4.8-5.9h2.1l-3.7,4.5l4.3,6.7h-2.1l-3.3-5.4l-2.1,2.4v2.9H253z"/>
				<path class="st2" d="M268.5,269.9c-0.8,0-1.5-0.1-2.1-0.4c-0.7-0.3-1.2-0.7-1.7-1.1c-0.5-0.5-0.9-1.1-1.1-1.8
					c-0.3-0.7-0.4-1.5-0.4-2.5s0.1-1.7,0.4-2.5c0.3-0.7,0.7-1.3,1.1-1.9c0.5-0.5,1-0.9,1.6-1.2c0.6-0.3,1.2-0.4,1.9-0.4
					c0.7,0,1.3,0.1,1.9,0.4s1,0.6,1.4,1.1c0.4,0.5,0.7,1,0.9,1.7c0.2,0.6,0.3,1.4,0.3,2.2c0,0.2,0,0.4,0,0.6c0,0.2,0,0.4-0.1,0.5
					H265c0.1,1.2,0.4,2.1,1.1,2.8c0.7,0.7,1.5,1,2.6,1c0.5,0,1-0.1,1.5-0.2s0.9-0.4,1.3-0.6l0.7,1.2c-0.5,0.3-1,0.6-1.6,0.8
					C270,269.8,269.3,269.9,268.5,269.9z M265,263.2h6c0-1.1-0.2-2-0.7-2.6c-0.5-0.6-1.2-0.9-2-0.9c-0.4,0-0.8,0.1-1.1,0.2
					s-0.7,0.4-1,0.7s-0.5,0.7-0.7,1.1C265.2,262.1,265.1,262.6,265,263.2z"/>
				<path class="st2" d="M280,269.9c-0.8,0-1.5-0.1-2.1-0.4c-0.7-0.3-1.2-0.7-1.7-1.1c-0.5-0.5-0.9-1.1-1.1-1.8
					c-0.3-0.7-0.4-1.5-0.4-2.5s0.1-1.7,0.4-2.5c0.3-0.7,0.7-1.3,1.1-1.9c0.5-0.5,1-0.9,1.6-1.2c0.6-0.3,1.2-0.4,1.9-0.4
					c0.7,0,1.3,0.1,1.9,0.4s1,0.6,1.4,1.1c0.4,0.5,0.7,1,0.9,1.7c0.2,0.6,0.3,1.4,0.3,2.2c0,0.2,0,0.4,0,0.6c0,0.2,0,0.4-0.1,0.5
					h-7.5c0.1,1.2,0.4,2.1,1.1,2.8c0.7,0.7,1.5,1,2.6,1c0.5,0,1-0.1,1.5-0.2s0.9-0.4,1.3-0.6l0.7,1.2c-0.5,0.3-1,0.6-1.6,0.8
					C281.4,269.8,280.7,269.9,280,269.9z M276.4,263.2h6c0-1.1-0.2-2-0.7-2.6c-0.5-0.6-1.2-0.9-2-0.9c-0.4,0-0.8,0.1-1.1,0.2
					s-0.7,0.4-1,0.7s-0.5,0.7-0.7,1.1C276.6,262.1,276.5,262.6,276.4,263.2z"/>
				<path class="st2" d="M286.8,274.4v-15.9h1.6l0.2,1.3h0.1c0.5-0.4,1.1-0.8,1.7-1.1s1.2-0.5,1.9-0.5c0.7,0,1.4,0.1,1.9,0.4
					c0.6,0.3,1,0.7,1.4,1.2s0.6,1.1,0.8,1.8c0.2,0.7,0.3,1.5,0.3,2.4c0,1-0.1,1.8-0.4,2.5c-0.3,0.7-0.6,1.4-1.1,1.9
					c-0.4,0.5-1,0.9-1.5,1.2c-0.6,0.3-1.2,0.4-1.8,0.4c-0.5,0-1-0.1-1.6-0.3c-0.5-0.2-1-0.5-1.6-0.9l0,2v3.8H286.8z M291.5,268.3
					c0.5,0,0.9-0.1,1.3-0.3c0.4-0.2,0.7-0.5,1-0.9c0.3-0.4,0.5-0.8,0.7-1.4c0.2-0.6,0.2-1.2,0.2-1.9c0-0.6-0.1-1.2-0.2-1.7
					s-0.3-0.9-0.5-1.3c-0.2-0.4-0.5-0.6-0.9-0.8c-0.4-0.2-0.8-0.3-1.3-0.3c-0.5,0-1,0.1-1.4,0.4c-0.5,0.3-1,0.6-1.6,1.1v5.9
					c0.5,0.4,1,0.7,1.5,0.9C290.7,268.3,291.1,268.3,291.5,268.3z"/>
				<path class="st2" d="M307.7,269.9c-0.6,0-1.1-0.1-1.5-0.3s-0.7-0.4-1-0.8s-0.4-0.7-0.5-1.2s-0.2-1-0.2-1.5V260h-1.7v-1.4
					l1.7-0.1l0.2-3.1h1.6v3.1h3v1.5h-3v6.2c0,0.7,0.1,1.2,0.4,1.6s0.7,0.6,1.3,0.6c0.2,0,0.4,0,0.6-0.1c0.2-0.1,0.4-0.1,0.6-0.2
					l0.4,1.4c-0.3,0.1-0.6,0.2-1,0.3S308.1,269.9,307.7,269.9z"/>
				<path class="st2" d="M312,269.7v-16.4h1.9v4.5l-0.1,2.3c0.5-0.5,1.1-0.9,1.7-1.3c0.6-0.4,1.3-0.5,2-0.5c1.2,0,2,0.4,2.6,1.1
					c0.5,0.7,0.8,1.8,0.8,3.3v7.1H319v-6.8c0-1.1-0.2-1.8-0.5-2.3c-0.3-0.5-0.9-0.7-1.6-0.7c-0.6,0-1.1,0.1-1.5,0.4s-1,0.7-1.5,1.3
					v8.1H312z"/>
				<path class="st2" d="M329,269.9c-0.8,0-1.5-0.1-2.1-0.4c-0.7-0.3-1.2-0.7-1.7-1.1c-0.5-0.5-0.9-1.1-1.1-1.8
					c-0.3-0.7-0.4-1.5-0.4-2.5s0.1-1.7,0.4-2.5c0.3-0.7,0.7-1.3,1.1-1.9c0.5-0.5,1-0.9,1.6-1.2c0.6-0.3,1.2-0.4,1.9-0.4
					c0.7,0,1.3,0.1,1.9,0.4c0.6,0.2,1,0.6,1.4,1.1s0.7,1,0.9,1.7c0.2,0.6,0.3,1.4,0.3,2.2c0,0.2,0,0.4,0,0.6c0,0.2,0,0.4-0.1,0.5
					h-7.5c0.1,1.2,0.4,2.1,1.1,2.8c0.7,0.7,1.5,1,2.6,1c0.5,0,1-0.1,1.5-0.2s0.9-0.4,1.3-0.6l0.7,1.2c-0.5,0.3-1,0.6-1.6,0.8
					C330.5,269.8,329.8,269.9,329,269.9z M325.5,263.2h6c0-1.1-0.2-2-0.7-2.6c-0.5-0.6-1.2-0.9-2-0.9c-0.4,0-0.8,0.1-1.1,0.2
					c-0.4,0.2-0.7,0.4-1,0.7c-0.3,0.3-0.5,0.7-0.7,1.1C325.7,262.1,325.6,262.6,325.5,263.2z"/>
				<path class="st2" d="M335.9,269.7v-11.2h1.6l0.2,1.6h0.1c0.5-0.5,1-1,1.6-1.3c0.6-0.4,1.2-0.5,1.9-0.5c0.9,0,1.5,0.2,2,0.6
					c0.5,0.4,0.8,0.9,1.1,1.6c0.6-0.6,1.2-1.2,1.8-1.6c0.6-0.4,1.2-0.6,1.9-0.6c1.2,0,2,0.4,2.6,1.1c0.6,0.7,0.8,1.8,0.8,3.3v7.1
					h-1.9v-6.8c0-1.1-0.2-1.8-0.5-2.3c-0.3-0.5-0.9-0.7-1.6-0.7c-0.8,0-1.8,0.6-2.8,1.7v8.1h-1.9v-6.8c0-1.1-0.2-1.8-0.5-2.3
					s-0.9-0.7-1.6-0.7c-0.8,0-1.8,0.6-2.8,1.7v8.1H335.9z"/>
			</g>
			<g class="st3">
				<path class="st2" d="M6.3,316.9c-0.7,0-1.4-0.1-2.1-0.4s-1.2-0.6-1.7-1.1c-0.5-0.5-0.8-1.1-1.1-1.8c-0.3-0.7-0.4-1.6-0.4-2.5
					c0-0.9,0.1-1.8,0.4-2.5c0.3-0.7,0.7-1.3,1.2-1.9s1.1-0.9,1.7-1.2c0.7-0.3,1.3-0.4,2.1-0.4c0.7,0,1.4,0.1,1.9,0.4
					c0.5,0.3,1,0.6,1.4,0.9l-1,1.2c-0.3-0.3-0.7-0.5-1-0.7c-0.4-0.2-0.8-0.3-1.2-0.3c-0.5,0-1,0.1-1.4,0.3S4.3,307.6,4,308
					c-0.3,0.4-0.5,0.8-0.7,1.4c-0.2,0.5-0.3,1.1-0.3,1.8c0,0.6,0.1,1.2,0.3,1.7c0.2,0.5,0.4,1,0.7,1.3c0.3,0.4,0.7,0.7,1.1,0.9
					c0.4,0.2,0.9,0.3,1.4,0.3c0.5,0,1-0.1,1.4-0.3c0.4-0.2,0.8-0.5,1.2-0.8l0.8,1.3c-0.5,0.4-1.1,0.8-1.7,1S7,316.9,6.3,316.9z"/>
				<path class="st2" d="M16.2,316.9c-0.7,0-1.3-0.1-2-0.4s-1.2-0.6-1.6-1.1c-0.5-0.5-0.9-1.1-1.1-1.8c-0.3-0.7-0.4-1.6-0.4-2.5
					c0-0.9,0.1-1.8,0.4-2.5s0.7-1.3,1.1-1.9c0.5-0.5,1-0.9,1.6-1.2c0.6-0.3,1.3-0.4,2-0.4s1.3,0.1,2,0.4c0.6,0.3,1.2,0.6,1.6,1.2
					c0.5,0.5,0.9,1.1,1.1,1.9s0.4,1.6,0.4,2.5c0,0.9-0.1,1.7-0.4,2.5c-0.3,0.7-0.7,1.3-1.1,1.8c-0.5,0.5-1,0.9-1.6,1.1
					C17.6,316.8,16.9,316.9,16.2,316.9z M16.2,315.4c0.5,0,0.9-0.1,1.3-0.3c0.4-0.2,0.7-0.5,1-0.9c0.3-0.4,0.5-0.8,0.7-1.3
					c0.2-0.5,0.2-1.1,0.2-1.7c0-0.6-0.1-1.2-0.2-1.8c-0.2-0.5-0.4-1-0.7-1.4c-0.3-0.4-0.6-0.7-1-0.9c-0.4-0.2-0.8-0.3-1.3-0.3
					c-0.5,0-0.9,0.1-1.3,0.3c-0.4,0.2-0.7,0.5-1,0.9c-0.3,0.4-0.5,0.8-0.7,1.4c-0.2,0.5-0.2,1.1-0.2,1.8c0,0.6,0.1,1.2,0.2,1.7
					c0.2,0.5,0.4,1,0.7,1.3c0.3,0.4,0.6,0.7,1,0.9C15.3,315.3,15.8,315.4,16.2,315.4z"/>
				<path class="st2" d="M24.4,316.7v-11.2h1.6l0.2,1.6h0.1c0.5-0.5,1-1,1.6-1.3c0.6-0.4,1.2-0.5,1.9-0.5c0.9,0,1.5,0.2,2,0.6
					c0.5,0.4,0.8,0.9,1.1,1.6c0.6-0.6,1.2-1.2,1.8-1.6c0.6-0.4,1.2-0.6,1.9-0.6c1.1,0,2,0.4,2.6,1.1c0.6,0.7,0.8,1.8,0.8,3.3v7.1
					h-1.9v-6.8c0-1.1-0.2-1.8-0.5-2.3s-0.9-0.7-1.6-0.7c-0.8,0-1.8,0.6-2.8,1.7v8.1h-1.9v-6.8c0-1.1-0.2-1.8-0.5-2.3
					c-0.3-0.5-0.9-0.7-1.6-0.7c-0.8,0-1.8,0.6-2.8,1.7v8.1H24.4z"/>
				<path class="st2" d="M44.4,303.2c-0.4,0-0.7-0.1-0.9-0.3c-0.3-0.2-0.4-0.5-0.4-0.9c0-0.4,0.1-0.7,0.4-0.9
					c0.3-0.2,0.6-0.3,0.9-0.3s0.7,0.1,0.9,0.3c0.3,0.2,0.4,0.5,0.4,0.9c0,0.4-0.1,0.6-0.4,0.9C45.1,303.1,44.8,303.2,44.4,303.2z
					 M43.4,316.7v-11.2h1.9v11.2H43.4z"/>
				<path class="st2" d="M49.1,316.7v-11.2h1.6l0.2,1.6h0.1c0.5-0.5,1.1-1,1.7-1.3c0.6-0.4,1.3-0.5,2.1-0.5c1.2,0,2,0.4,2.6,1.1
					c0.5,0.7,0.8,1.8,0.8,3.3v7.1h-1.9v-6.8c0-1.1-0.2-1.8-0.5-2.3s-0.9-0.7-1.6-0.7c-0.6,0-1.1,0.1-1.5,0.4c-0.4,0.3-1,0.7-1.5,1.3
					v8.1H49.1z"/>
				<path class="st2" d="M65.4,321.8c-0.7,0-1.3-0.1-1.9-0.2c-0.6-0.1-1.1-0.3-1.5-0.6s-0.7-0.6-0.9-0.9c-0.2-0.4-0.3-0.8-0.3-1.3
					c0-0.5,0.1-0.9,0.4-1.4c0.3-0.4,0.7-0.8,1.2-1.2v-0.1c-0.3-0.2-0.5-0.4-0.7-0.7s-0.3-0.7-0.3-1.1c0-0.5,0.1-0.9,0.4-1.2
					s0.5-0.6,0.8-0.8v-0.1c-0.4-0.3-0.7-0.7-1-1.2s-0.4-1.1-0.4-1.8c0-0.6,0.1-1.2,0.3-1.7c0.2-0.5,0.5-0.9,0.9-1.3
					c0.4-0.3,0.8-0.6,1.3-0.8c0.5-0.2,1.1-0.3,1.6-0.3c0.3,0,0.6,0,0.9,0.1c0.3,0.1,0.5,0.1,0.7,0.2h3.9v1.4h-2.3
					c0.3,0.3,0.5,0.6,0.7,1c0.2,0.4,0.3,0.8,0.3,1.3c0,0.6-0.1,1.1-0.3,1.6c-0.2,0.5-0.5,0.9-0.9,1.2c-0.4,0.3-0.8,0.6-1.3,0.8
					c-0.5,0.2-1,0.3-1.6,0.3c-0.3,0-0.6,0-0.9-0.1c-0.3-0.1-0.6-0.2-0.8-0.3c-0.2,0.2-0.4,0.4-0.5,0.6c-0.1,0.2-0.2,0.5-0.2,0.8
					c0,0.4,0.1,0.6,0.4,0.9c0.3,0.2,0.8,0.3,1.6,0.3h2.2c1.3,0,2.3,0.2,2.9,0.6s1,1.1,1,2c0,0.5-0.1,1-0.4,1.5s-0.6,0.9-1.1,1.2
					s-1.1,0.6-1.8,0.8C67.1,321.7,66.3,321.8,65.4,321.8z M65.7,320.5c0.5,0,1-0.1,1.5-0.2c0.4-0.1,0.8-0.3,1.1-0.5s0.5-0.4,0.7-0.7
					c0.2-0.3,0.3-0.6,0.3-0.9c0-0.5-0.2-0.9-0.6-1.1c-0.4-0.2-0.9-0.3-1.7-0.3h-1.9c-0.2,0-0.4,0-0.7,0c-0.3,0-0.5-0.1-0.7-0.1
					c-0.4,0.3-0.7,0.6-0.9,0.9c-0.2,0.3-0.3,0.6-0.3,1c0,0.6,0.3,1.1,0.9,1.4C63.9,320.3,64.7,320.5,65.7,320.5z M65.4,311.9
					c0.3,0,0.6-0.1,0.9-0.2c0.3-0.1,0.5-0.3,0.8-0.5c0.2-0.2,0.4-0.5,0.5-0.8s0.2-0.7,0.2-1.1c0-0.8-0.2-1.5-0.7-1.9s-1-0.7-1.7-0.7
					c-0.7,0-1.2,0.2-1.7,0.7s-0.7,1.1-0.7,1.9c0,0.4,0.1,0.8,0.2,1.1c0.1,0.3,0.3,0.6,0.5,0.8c0.2,0.2,0.5,0.4,0.8,0.5
					C64.8,311.8,65.1,311.9,65.4,311.9z"/>
				<path class="st2" d="M82.8,316.9c-0.5,0-1.1-0.1-1.6-0.4c-0.6-0.3-1.1-0.6-1.6-1h-0.1l-0.2,1.2h-1.5v-16.4h1.9v4.5l0,2
					c0.5-0.4,1.1-0.8,1.7-1.1c0.6-0.3,1.2-0.4,1.8-0.4c0.7,0,1.4,0.1,1.9,0.4c0.6,0.3,1,0.7,1.4,1.2c0.4,0.5,0.7,1.1,0.9,1.8
					c0.2,0.7,0.3,1.5,0.3,2.3c0,1-0.1,1.8-0.4,2.6s-0.6,1.4-1.1,1.9s-1,0.9-1.5,1.2C84.1,316.8,83.4,316.9,82.8,316.9z M82.5,315.3
					c0.5,0,0.9-0.1,1.3-0.3c0.4-0.2,0.7-0.5,1-0.9s0.5-0.8,0.7-1.4c0.2-0.6,0.2-1.2,0.2-1.9c0-0.6-0.1-1.2-0.2-1.7
					c-0.1-0.5-0.3-0.9-0.5-1.3s-0.5-0.6-0.9-0.8c-0.4-0.2-0.8-0.3-1.3-0.3c-0.9,0-1.9,0.5-3,1.5v5.9c0.5,0.4,1,0.7,1.5,0.9
					C81.7,315.3,82.1,315.3,82.5,315.3z"/>
				<path class="st2" d="M92.8,316.9c-0.9,0-1.7-0.3-2.3-0.8s-0.9-1.3-0.9-2.3c0-1.2,0.5-2.2,1.6-2.8c1.1-0.7,2.8-1.1,5.2-1.4
					c0-0.4,0-0.7-0.1-1c-0.1-0.3-0.2-0.6-0.4-0.9s-0.4-0.5-0.7-0.6c-0.3-0.2-0.7-0.2-1.1-0.2c-0.6,0-1.3,0.1-1.8,0.4
					c-0.6,0.2-1.1,0.5-1.5,0.8l-0.7-1.3c0.5-0.3,1.2-0.7,1.9-1c0.8-0.3,1.6-0.5,2.5-0.5c1.4,0,2.4,0.4,3,1.3c0.6,0.8,0.9,2,0.9,3.3
					v6.9h-1.6l-0.2-1.3h-0.1c-0.5,0.4-1.1,0.8-1.7,1.1C94.2,316.8,93.5,316.9,92.8,316.9z M93.4,315.4c0.5,0,1-0.1,1.5-0.4
					c0.5-0.3,1-0.6,1.5-1.1v-3.1c-0.9,0.1-1.7,0.3-2.4,0.4c-0.6,0.2-1.1,0.4-1.5,0.6c-0.4,0.2-0.7,0.5-0.9,0.8s-0.3,0.6-0.3,1
					c0,0.6,0.2,1.1,0.6,1.4C92.4,315.3,92.8,315.4,93.4,315.4z"/>
				<path class="st2" d="M106.3,316.9c-0.7,0-1.4-0.1-2.1-0.4s-1.2-0.6-1.7-1.1c-0.5-0.5-0.8-1.1-1.1-1.8c-0.3-0.7-0.4-1.6-0.4-2.5
					c0-0.9,0.1-1.8,0.4-2.5c0.3-0.7,0.7-1.3,1.2-1.9s1.1-0.9,1.7-1.2c0.7-0.3,1.3-0.4,2.1-0.4c0.7,0,1.4,0.1,1.9,0.4
					c0.5,0.3,1,0.6,1.4,0.9l-1,1.2c-0.3-0.3-0.7-0.5-1-0.7c-0.4-0.2-0.8-0.3-1.2-0.3c-0.5,0-1,0.1-1.4,0.3s-0.8,0.5-1.1,0.9
					c-0.3,0.4-0.5,0.8-0.7,1.4c-0.2,0.5-0.3,1.1-0.3,1.8c0,0.6,0.1,1.2,0.3,1.7c0.2,0.5,0.4,1,0.7,1.3c0.3,0.4,0.7,0.7,1.1,0.9
					c0.4,0.2,0.9,0.3,1.4,0.3c0.5,0,1-0.1,1.4-0.3c0.4-0.2,0.8-0.5,1.2-0.8l0.8,1.3c-0.5,0.4-1.1,0.8-1.7,1S106.9,316.9,106.3,316.9
					z"/>
				<path class="st2" d="M112.3,316.7v-16.4h1.9v11.1h0.1l4.8-5.9h2.1l-3.7,4.5l4.3,6.7h-2.1l-3.3-5.4l-2.1,2.4v2.9H112.3z"/>
				<path class="st2" d="M125,316.9c-0.4,0-0.7-0.1-1-0.4c-0.3-0.3-0.4-0.6-0.4-1c0-0.4,0.1-0.8,0.4-1.1c0.3-0.3,0.6-0.4,1-0.4
					c0.4,0,0.7,0.1,1,0.4c0.3,0.3,0.4,0.6,0.4,1.1c0,0.4-0.1,0.8-0.4,1C125.7,316.8,125.4,316.9,125,316.9z"/>
			</g>
		</g>
		<g id="graph" transform="translate(116.407 130.512)">
			<g id="Group_1790" transform="translate(66.084 49.023)">
				<path id="Path_2189" class="st4" d="M6,3v12c0,1.7-1.3,3-3,3s-3-1.3-3-3V3c0-1.7,1.3-3,3-3S6,1.3,6,3z"/>
			</g>
			<g id="Group_1791" transform="translate(78.099 43.015)">
				<path id="Path_2190" class="st5" d="M6,3v18c0,1.7-1.3,3-3,3s-3-1.3-3-3l0,0V3c0-1.7,1.3-3,3-3S6,1.3,6,3z"/>
			</g>
			<g id="Group_1792" transform="translate(90.114 37.008)">
				<path id="Path_2191" class="st6" d="M6,3v24c0,1.7-1.3,3-3,3s-3-1.3-3-3V3c0-1.7,1.3-3,3-3S6,1.3,6,3z"/>
			</g>
			<path id="Path_2192" class="st7" d="M54.1,34v39.1l-25.4-1.6L9.4,58.9C16.3,42,32.8,31,51.1,31C52.7,31,54.1,32.3,54.1,34
				C54.1,34,54.1,34,54.1,34z"/>
			<path id="Path_2193" class="st8" d="M96.1,76.1c0,23.7-18.4,43.4-42.1,45c-1,0.1-2,0.1-3,0.1c-7.5,0-14.8-1.8-21.4-5.4l6-24.4
				l18.4-18.2h39C94.8,73.1,96.1,74.4,96.1,76.1C96.1,76.1,96.1,76.1,96.1,76.1z"/>
			<path id="Path_2194" class="st6" d="M96.1,76.1c0,23.7-18.4,43.4-42.1,45v-48h39C94.8,73.1,96.1,74.4,96.1,76.1
				C96.1,76.1,96.1,76.1,96.1,76.1z"/>
			<path id="Path_2195" class="st9" d="M54.1,73.1l-25.9,45.4c-0.9,1.4-2.7,1.8-4.1,1c0,0,0,0,0,0C4,106.8-4.8,82.3,2.6,59.9
				c0.5-1.6,2.2-2.4,3.8-1.9L54.1,73.1z"/>
			<g id="Group_1793" transform="translate(60.076 61.038)">
				<path id="Path_2196" class="st10" d="M42.5,3c0,1.7-1.3,3-3,3H3C1.3,6,0,4.7,0,3s1.3-3,3-3h36.5C41.1,0,42.5,1.3,42.5,3
					C42.5,3,42.5,3,42.5,3z"/>
			</g>
		</g>
	</g>
</g>
</svg>
