<?xml version="1.0" encoding="utf-8"?>
<!-- Generator: Adobe Illustrator 23.0.5, SVG Export Plug-In . SVG Version: 6.00 Build 0)  -->
<svg version="1.1" id="Layer_1" xmlns="http://www.w3.org/2000/svg" xmlns:xlink="http://www.w3.org/1999/xlink" x="0px" y="0px"
	 viewBox="0 0 496.1 740.1" style="enable-background:new 0 0 496.1 740.1;" xml:space="preserve">
<style type="text/css">
	.st0{fill:#288936;}
	.st1{fill:#FFFFFF;}
</style>
<title>Social media icons</title>
<path class="st0" d="M0.1,370.2c0-117,0.1-234-0.1-350.9C0,4.7,5.1,0,19.2,0c152.6,0.2,305.3,0.1,457.9,0.1c15.3,0,19,3.6,19,18.7
	c0,234.1,0,468.3,0,702.4c0,0.7,0,1.3,0,2c0,12.5-4.4,16.9-16.8,16.9c-123,0-246,0-368.9,0c-31,0-62,0-93,0c-2.8,0-5.7-0.1-8.4-0.9
	c-5.4-1.5-8.1-5.6-8.7-11c-0.3-2.5-0.1-5-0.1-7.5C0.1,603.8,0.1,487,0.1,370.2z"/>
<g>
	<path class="st1" d="M75.2,286.7c-5,0-8.6-2-10.7-6.1l6.3-3.6c0.5,1,1.1,1.7,1.8,2.1c0.6,0.4,1.5,0.6,2.7,0.6
		c2.7,0,4.1-1.2,4.1-3.7v-21.4h7.2V276c0,3.4-1.1,6-3.2,7.9C81.3,285.8,78.5,286.7,75.2,286.7z"/>
	<path class="st1" d="M107.6,263.6h6.8v22.5h-6.8V284c-1.6,1.8-3.8,2.7-6.7,2.7c-3,0-5.5-1.1-7.6-3.4c-2.1-2.3-3.1-5.1-3.1-8.4
		s1-6.1,3.1-8.4c2.1-2.3,4.6-3.4,7.6-3.4c2.9,0,5.1,0.9,6.7,2.7V263.6z M98.4,278.9c1,1,2.3,1.5,3.9,1.5c1.6,0,2.9-0.5,3.9-1.5
		c1-1,1.5-2.3,1.5-4c0-1.7-0.5-3-1.5-4c-1-1-2.3-1.5-3.9-1.5c-1.6,0-2.9,0.5-3.9,1.5c-1,1-1.5,2.3-1.5,4
		C96.9,276.5,97.4,277.9,98.4,278.9z"/>
	<path class="st1" d="M126.1,267.6c0.4-1.4,1.3-2.5,2.5-3.3c1.3-0.8,2.7-1.1,4.2-1.1v7.7c-1.7-0.3-3.2,0-4.6,0.8
		c-1.4,0.8-2.1,2.3-2.1,4.3v10.2h-6.8v-22.5h6.8V267.6z"/>
	<path class="st1" d="M151.6,263.6h6.8v22.5h-6.8V284c-1.6,1.8-3.8,2.7-6.7,2.7c-3,0-5.5-1.1-7.6-3.4c-2.1-2.3-3.1-5.1-3.1-8.4
		s1-6.1,3.1-8.4c2.1-2.3,4.6-3.4,7.6-3.4c2.9,0,5.1,0.9,6.7,2.7V263.6z M142.4,278.9c1,1,2.3,1.5,3.9,1.5c1.6,0,2.9-0.5,3.9-1.5
		c1-1,1.5-2.3,1.5-4c0-1.7-0.5-3-1.5-4c-1-1-2.3-1.5-3.9-1.5c-1.6,0-2.9,0.5-3.9,1.5c-1,1-1.5,2.3-1.5,4
		C140.9,276.5,141.4,277.9,142.4,278.9z"/>
	<path class="st1" d="M193.9,261.5H182v6.1h11.7v6.9H182v11.6h-7.2v-31.5h19.1V261.5z"/>
	<path class="st1" d="M217.2,283.3c-2.3,2.3-5.1,3.4-8.5,3.4s-6.1-1.1-8.5-3.4c-2.3-2.3-3.5-5.1-3.5-8.4s1.2-6.1,3.5-8.4
		c2.3-2.3,5.1-3.4,8.5-3.4s6.1,1.1,8.5,3.4c2.3,2.3,3.5,5.1,3.5,8.4S219.5,281,217.2,283.3z M205.1,278.7c1,1,2.2,1.5,3.7,1.5
		c1.5,0,2.7-0.5,3.7-1.5c1-1,1.5-2.3,1.5-3.8c0-1.6-0.5-2.8-1.5-3.8c-1-1-2.2-1.5-3.7-1.5c-1.5,0-2.7,0.5-3.7,1.5
		c-1,1-1.5,2.3-1.5,3.8C203.6,276.4,204.1,277.7,205.1,278.7z"/>
	<path class="st1" d="M231.3,267.6c0.4-1.4,1.3-2.5,2.5-3.3c1.3-0.8,2.7-1.1,4.2-1.1v7.7c-1.7-0.3-3.2,0-4.6,0.8
		c-1.4,0.8-2.1,2.3-2.1,4.3v10.2h-6.8v-22.5h6.8V267.6z"/>
	<path class="st1" d="M85.4,320.8c2.6,1.7,3.9,4,3.9,7.1c0,2.7-1,4.9-2.9,6.7s-4.4,2.6-7.2,2.6H65.9v-31.5h12.3
		c2.8,0,5.2,0.8,7.1,2.5c1.9,1.7,2.9,3.8,2.9,6.5C88.2,317.1,87.3,319.2,85.4,320.8z M78.2,312.4h-5.1v5.6h5.1c0.8,0,1.5-0.3,2-0.8
		c0.5-0.5,0.8-1.2,0.8-2s-0.3-1.5-0.8-2C79.7,312.6,79,312.4,78.2,312.4z M79.1,330.4c0.9,0,1.6-0.3,2.2-0.8
		c0.5-0.6,0.8-1.3,0.8-2.2c0-0.9-0.3-1.6-0.8-2.2c-0.5-0.6-1.3-0.8-2.2-0.8h-6v6H79.1z"/>
	<path class="st1" d="M99.4,318.6c0.4-1.4,1.3-2.5,2.5-3.3c1.3-0.8,2.7-1.1,4.2-1.1v7.7c-1.7-0.3-3.2,0-4.6,0.8
		c-1.4,0.8-2.1,2.3-2.1,4.3v10.2h-6.8v-22.5h6.8V318.6z"/>
	<path class="st1" d="M125,314.6h6.8v22.5H125V335c-1.6,1.8-3.8,2.7-6.7,2.7c-3,0-5.5-1.1-7.6-3.4c-2.1-2.3-3.1-5.1-3.1-8.4
		s1-6.1,3.1-8.4c2.1-2.3,4.6-3.4,7.6-3.4c2.9,0,5.1,0.9,6.7,2.7V314.6z M115.8,329.9c1,1,2.3,1.5,3.9,1.5c1.6,0,2.9-0.5,3.9-1.5
		c1-1,1.5-2.3,1.5-4c0-1.7-0.5-3-1.5-4c-1-1-2.3-1.5-3.9-1.5c-1.6,0-2.9,0.5-3.9,1.5c-1,1-1.5,2.3-1.5,4
		C114.3,327.5,114.8,328.9,115.8,329.9z"/>
	<path class="st1" d="M149.9,314c2.4,0,4.4,0.8,6,2.5c1.6,1.7,2.4,3.9,2.4,6.8v13.8h-6.8v-12.8c0-1.3-0.4-2.3-1.1-3
		c-0.7-0.7-1.7-1.1-2.8-1.1c-1.3,0-2.3,0.4-3.1,1.2c-0.8,0.8-1.1,1.9-1.1,3.5v12.3h-6.8v-22.5h6.8v2.1
		C144.8,314.9,146.9,314,149.9,314z"/>
	<path class="st1" d="M179.3,305.6h6.8v31.5h-6.8V335c-1.6,1.8-3.8,2.7-6.7,2.7c-3,0-5.5-1.1-7.6-3.4c-2.1-2.3-3.1-5.1-3.1-8.4
		s1-6.1,3.1-8.4c2.1-2.3,4.6-3.4,7.6-3.4c2.9,0,5.1,0.9,6.7,2.7V305.6z M170,329.9c1,1,2.3,1.5,3.9,1.5c1.6,0,2.9-0.5,3.9-1.5
		c1-1,1.5-2.3,1.5-4c0-1.7-0.5-3-1.5-4c-1-1-2.3-1.5-3.9-1.5c-1.6,0-2.9,0.5-3.9,1.5c-1,1-1.5,2.3-1.5,4
		C168.5,327.5,169,328.9,170,329.9z"/>
	<path class="st1" d="M197.1,321.2c0,0.4,0.4,0.8,1.1,1.1c0.8,0.3,1.7,0.6,2.8,0.9c1.1,0.3,2.2,0.7,3.2,1.1s2,1.2,2.8,2.2
		s1.1,2.3,1.1,3.9c0,2.4-0.9,4.3-2.7,5.5c-1.8,1.2-4,1.9-6.7,1.9c-4.7,0-8-1.8-9.7-5.4l5.9-3.3c0.6,1.8,1.9,2.7,3.8,2.7
		c1.6,0,2.4-0.5,2.4-1.4c0-0.5-0.4-0.8-1.1-1.1s-1.7-0.6-2.8-0.9c-1.1-0.3-2.2-0.7-3.2-1.1c-1.1-0.5-2-1.2-2.8-2.2
		c-0.8-1-1.1-2.2-1.1-3.6c0-2.3,0.8-4.2,2.5-5.4c1.7-1.3,3.8-1.9,6.3-1.9c1.9,0,3.6,0.4,5.1,1.2c1.5,0.8,2.8,2,3.7,3.6l-5.8,3.1
		c-0.7-1.3-1.7-2-3-2C197.8,319.9,197.1,320.3,197.1,321.2z"/>
</g>
<g>
	<path class="st1" d="M66.6,423.1l-3-16.3h3.8l1.1,7.6c0.1,0.8,0.2,1.7,0.3,2.6c0.1,0.9,0.2,1.7,0.3,2.6h0.1
		c0.2-0.9,0.3-1.7,0.5-2.6s0.3-1.7,0.5-2.6l1.8-7.6h3.1l1.8,7.6c0.2,0.8,0.3,1.7,0.5,2.5c0.2,0.9,0.3,1.7,0.5,2.6h0.1
		c0.1-0.9,0.2-1.8,0.3-2.6c0.1-0.8,0.2-1.7,0.3-2.5l1.1-7.6h3.5l-2.9,16.3h-4.6l-1.6-7.4c-0.1-0.6-0.3-1.3-0.4-1.9
		c-0.1-0.6-0.2-1.3-0.3-1.9h-0.1c-0.1,0.6-0.2,1.2-0.3,1.9s-0.2,1.3-0.4,1.9l-1.5,7.4H66.6z"/>
	<path class="st1" d="M85.2,423.1v-17.5h3.7v4.3l-0.2,2.2c0.5-0.4,1-0.8,1.6-1.2c0.6-0.4,1.4-0.5,2.2-0.5c1.3,0,2.3,0.4,2.9,1.3
		c0.6,0.9,0.9,2.1,0.9,3.7v7.7h-3.7v-7.2c0-0.9-0.1-1.5-0.4-1.9c-0.2-0.3-0.6-0.5-1.2-0.5c-0.5,0-0.9,0.1-1.2,0.3
		c-0.3,0.2-0.7,0.5-1.1,0.9v8.4H85.2z"/>
	<path class="st1" d="M100.8,427.9c-0.4,0-0.7,0-1-0.1c-0.3,0-0.5-0.1-0.8-0.2l0.6-2.8c0.1,0,0.3,0.1,0.4,0.1c0.2,0,0.3,0,0.4,0
		c0.6,0,1.1-0.2,1.4-0.5s0.6-0.7,0.8-1.2l0.2-0.7l-4.8-12.1h3.7l1.8,5.3c0.2,0.6,0.4,1.1,0.5,1.7c0.1,0.6,0.3,1.2,0.5,1.8h0.1
		c0.1-0.6,0.3-1.2,0.4-1.8c0.1-0.6,0.3-1.2,0.4-1.8l1.5-5.3h3.5l-4.3,12.5c-0.3,0.8-0.6,1.5-0.9,2.1c-0.3,0.6-0.7,1.1-1.1,1.5
		c-0.4,0.4-0.9,0.7-1.4,0.9C102.2,427.8,101.5,427.9,100.8,427.9z"/>
	<path class="st1" d="M124,423.4c-0.5,0-1.1-0.1-1.7-0.4c-0.6-0.3-1.1-0.7-1.6-1.2h-0.1l-0.3,1.3h-2.9v-17.5h3.7v4.3l-0.1,1.9
		c0.5-0.4,1-0.8,1.6-1c0.6-0.2,1.1-0.4,1.7-0.4c0.8,0,1.4,0.2,2,0.5s1.1,0.7,1.5,1.3c0.4,0.5,0.8,1.2,1,2c0.2,0.8,0.3,1.6,0.3,2.6
		c0,1.1-0.1,2-0.4,2.8c-0.3,0.8-0.7,1.5-1.2,2.1c-0.5,0.6-1,1-1.7,1.3C125.3,423.2,124.6,423.4,124,423.4z M123.1,420.4
		c0.6,0,1.2-0.3,1.6-0.9c0.5-0.6,0.7-1.5,0.7-2.8c0-2.2-0.7-3.4-2.2-3.4c-0.7,0-1.4,0.4-2.1,1.1v5.1c0.3,0.3,0.7,0.5,1,0.6
		C122.5,420.3,122.8,420.4,123.1,420.4z"/>
	<path class="st1" d="M137.3,423.4c-0.9,0-1.7-0.1-2.5-0.4c-0.8-0.3-1.4-0.7-2-1.3c-0.6-0.6-1-1.2-1.3-2c-0.3-0.8-0.5-1.7-0.5-2.8
		c0-1,0.2-1.9,0.5-2.7s0.8-1.5,1.3-2.1c0.5-0.6,1.2-1,1.9-1.3c0.7-0.3,1.4-0.5,2.2-0.5c0.9,0,1.7,0.2,2.3,0.5
		c0.7,0.3,1.2,0.7,1.6,1.3c0.4,0.5,0.8,1.2,1,1.9c0.2,0.7,0.3,1.5,0.3,2.4c0,0.3,0,0.7,0,1c0,0.3-0.1,0.5-0.1,0.7h-7.4
		c0.2,0.9,0.5,1.6,1.1,2s1.3,0.6,2.1,0.6c0.9,0,1.8-0.3,2.7-0.8l1.2,2.2c-0.6,0.4-1.3,0.8-2.1,1S138.1,423.4,137.3,423.4z
		 M134.6,415.5h4.5c0-0.7-0.2-1.3-0.5-1.7s-0.8-0.7-1.6-0.7c-0.6,0-1.1,0.2-1.5,0.6C135,414.1,134.7,414.7,134.6,415.5z"/>
	<path class="st1" d="M152.9,423.4c-0.6,0-1.1-0.1-1.5-0.3s-0.8-0.5-1.2-0.8s-0.6-0.7-0.7-1.2c-0.2-0.5-0.3-0.9-0.3-1.5
		c0-1.3,0.6-2.3,1.7-3c1.1-0.7,2.9-1.2,5.3-1.5c0-0.6-0.2-1-0.5-1.3c-0.3-0.3-0.8-0.5-1.5-0.5c-0.5,0-1.1,0.1-1.6,0.3
		c-0.5,0.2-1.1,0.5-1.7,0.8l-1.3-2.4c0.8-0.5,1.6-0.9,2.5-1.2s1.8-0.5,2.8-0.5c1.6,0,2.8,0.5,3.7,1.4c0.8,0.9,1.3,2.3,1.3,4.2v7.1
		h-3l-0.3-1.3h-0.1c-0.5,0.5-1.1,0.8-1.7,1.1C154.2,423.2,153.6,423.4,152.9,423.4z M154.1,420.5c0.4,0,0.8-0.1,1.1-0.3
		c0.3-0.2,0.6-0.4,0.9-0.8v-2.2c-1.3,0.2-2.2,0.5-2.7,0.8c-0.5,0.3-0.8,0.8-0.8,1.3c0,0.4,0.1,0.7,0.4,0.9
		C153.3,420.4,153.7,420.5,154.1,420.5z"/>
	<path class="st1" d="M167.9,423.1v-12.4h3l0.3,2.2h0.1c0.4-0.9,1-1.5,1.6-1.9c0.6-0.4,1.3-0.6,1.9-0.6c0.4,0,0.6,0,0.9,0.1
		c0.2,0,0.4,0.1,0.6,0.2l-0.6,3.2c-0.2-0.1-0.5-0.1-0.6-0.1c-0.2,0-0.4,0-0.7,0c-0.5,0-1,0.2-1.5,0.5c-0.5,0.3-0.9,0.9-1.3,1.8v7.2
		H167.9z"/>
	<path class="st1" d="M183.2,423.4c-0.9,0-1.7-0.1-2.5-0.4c-0.8-0.3-1.4-0.7-2-1.3c-0.6-0.6-1-1.2-1.3-2c-0.3-0.8-0.5-1.7-0.5-2.8
		c0-1,0.2-1.9,0.5-2.7s0.8-1.5,1.3-2.1c0.5-0.6,1.2-1,1.9-1.3c0.7-0.3,1.4-0.5,2.2-0.5c0.9,0,1.7,0.2,2.3,0.5
		c0.7,0.3,1.2,0.7,1.6,1.3c0.4,0.5,0.8,1.2,1,1.9c0.2,0.7,0.3,1.5,0.3,2.4c0,0.3,0,0.7,0,1c0,0.3-0.1,0.5-0.1,0.7h-7.4
		c0.2,0.9,0.5,1.6,1.1,2s1.3,0.6,2.1,0.6c0.9,0,1.8-0.3,2.7-0.8l1.2,2.2c-0.6,0.4-1.3,0.8-2.1,1S183.9,423.4,183.2,423.4z
		 M180.4,415.5h4.5c0-0.7-0.2-1.3-0.5-1.7s-0.8-0.7-1.6-0.7c-0.6,0-1.1,0.2-1.5,0.6C180.8,414.1,180.5,414.7,180.4,415.5z"/>
	<path class="st1" d="M194.7,428.3c-0.7,0-1.4-0.1-2-0.2s-1.2-0.3-1.7-0.6c-0.5-0.3-0.8-0.6-1.1-1c-0.3-0.4-0.4-0.9-0.4-1.4
		c0-1,0.6-1.8,1.8-2.5v-0.1c-0.3-0.2-0.6-0.5-0.8-0.8s-0.3-0.8-0.3-1.3c0-0.5,0.1-0.9,0.4-1.3s0.6-0.8,1-1v-0.1
		c-0.4-0.3-0.8-0.7-1.2-1.3c-0.3-0.6-0.5-1.2-0.5-1.9c0-0.8,0.1-1.4,0.4-2c0.3-0.6,0.7-1,1.1-1.4c0.5-0.4,1-0.7,1.6-0.8
		s1.3-0.3,1.9-0.3c0.7,0,1.4,0.1,1.9,0.3h4.5v2.7h-2c0.1,0.2,0.2,0.4,0.3,0.7c0.1,0.3,0.1,0.6,0.1,0.9c0,0.7-0.1,1.3-0.4,1.9
		c-0.3,0.5-0.6,1-1,1.3c-0.4,0.3-1,0.6-1.6,0.8s-1.2,0.3-1.9,0.3c-0.5,0-1-0.1-1.5-0.3c-0.2,0.1-0.3,0.3-0.4,0.4
		c-0.1,0.1-0.1,0.3-0.1,0.5c0,0.3,0.1,0.5,0.4,0.7c0.3,0.1,0.8,0.2,1.5,0.2h2c1.5,0,2.7,0.2,3.5,0.7c0.8,0.5,1.2,1.3,1.2,2.4
		c0,0.6-0.2,1.2-0.5,1.8c-0.3,0.5-0.8,1-1.4,1.4s-1.3,0.7-2.2,0.9C196.8,428.2,195.8,428.3,194.7,428.3z M195.3,426
		c0.8,0,1.5-0.1,2-0.4c0.5-0.3,0.8-0.7,0.8-1.1c0-0.4-0.2-0.6-0.5-0.8c-0.3-0.1-0.8-0.2-1.4-0.2H195c-0.4,0-0.8,0-1,0
		s-0.5-0.1-0.7-0.1c-0.4,0.4-0.7,0.8-0.7,1.2c0,0.5,0.3,0.8,0.8,1.1S194.5,426,195.3,426z M195,416.9c0.5,0,0.9-0.2,1.2-0.5
		c0.3-0.3,0.5-0.9,0.5-1.6c0-0.7-0.2-1.1-0.5-1.5c-0.3-0.3-0.7-0.5-1.2-0.5c-0.5,0-0.9,0.2-1.2,0.5c-0.3,0.3-0.5,0.8-0.5,1.5
		c0,0.7,0.2,1.2,0.5,1.6C194.1,416.7,194.5,416.9,195,416.9z"/>
	<path class="st1" d="M207.4,423.4c-1.4,0-2.3-0.4-2.9-1.3c-0.6-0.9-0.9-2.1-0.9-3.7v-7.7h3.7v7.2c0,0.9,0.1,1.5,0.4,1.8
		c0.3,0.3,0.6,0.5,1.2,0.5c0.5,0,0.9-0.1,1.2-0.3c0.3-0.2,0.7-0.6,1-1v-8.2h3.7v12.4h-3l-0.3-1.7h-0.1c-0.5,0.6-1.1,1.1-1.7,1.5
		C209,423.2,208.2,423.4,207.4,423.4z"/>
	<path class="st1" d="M221.2,423.4c-0.6,0-1.2-0.1-1.6-0.3c-0.4-0.2-0.8-0.5-1-0.8c-0.3-0.4-0.4-0.8-0.6-1.3
		c-0.1-0.5-0.2-1.1-0.2-1.7v-13.7h3.7v13.8c0,0.4,0.1,0.7,0.2,0.8c0.1,0.2,0.3,0.2,0.4,0.2c0.1,0,0.2,0,0.2,0c0.1,0,0.1,0,0.2,0
		l0.5,2.7c-0.2,0.1-0.5,0.2-0.8,0.2C222,423.3,221.6,423.4,221.2,423.4z"/>
	<path class="st1" d="M228.1,423.4c-0.6,0-1.1-0.1-1.5-0.3s-0.8-0.5-1.2-0.8s-0.6-0.7-0.7-1.2c-0.2-0.5-0.3-0.9-0.3-1.5
		c0-1.3,0.6-2.3,1.7-3c1.1-0.7,2.9-1.2,5.3-1.5c0-0.6-0.2-1-0.5-1.3c-0.3-0.3-0.8-0.5-1.5-0.5c-0.5,0-1.1,0.1-1.6,0.3
		c-0.5,0.2-1.1,0.5-1.7,0.8l-1.3-2.4c0.8-0.5,1.6-0.9,2.5-1.2s1.8-0.5,2.8-0.5c1.6,0,2.8,0.5,3.7,1.4c0.8,0.9,1.3,2.3,1.3,4.2v7.1
		h-3l-0.3-1.3h-0.1c-0.5,0.5-1.1,0.8-1.7,1.1C229.5,423.2,228.8,423.4,228.1,423.4z M229.4,420.5c0.4,0,0.8-0.1,1.1-0.3
		c0.3-0.2,0.6-0.4,0.9-0.8v-2.2c-1.3,0.2-2.2,0.5-2.7,0.8c-0.5,0.3-0.8,0.8-0.8,1.3c0,0.4,0.1,0.7,0.4,0.9
		C228.6,420.4,228.9,420.5,229.4,420.5z"/>
	<path class="st1" d="M238.2,423.1v-12.4h3l0.3,2.2h0.1c0.4-0.9,1-1.5,1.6-1.9c0.6-0.4,1.3-0.6,1.9-0.6c0.4,0,0.6,0,0.9,0.1
		c0.2,0,0.4,0.1,0.6,0.2l-0.6,3.2c-0.2-0.1-0.5-0.1-0.6-0.1c-0.2,0-0.4,0-0.7,0c-0.5,0-1,0.2-1.5,0.5c-0.5,0.3-0.9,0.9-1.3,1.8v7.2
		H238.2z"/>
	<path class="st1" d="M259.6,423.4c-0.5,0-1.1-0.1-1.7-0.4c-0.6-0.3-1.1-0.7-1.6-1.2h-0.1l-0.3,1.3h-2.9v-17.5h3.7v4.3l-0.1,1.9
		c0.5-0.4,1-0.8,1.6-1c0.6-0.2,1.1-0.4,1.7-0.4c0.8,0,1.4,0.2,2,0.5s1.1,0.7,1.5,1.3c0.4,0.5,0.8,1.2,1,2c0.2,0.8,0.3,1.6,0.3,2.6
		c0,1.1-0.1,2-0.4,2.8c-0.3,0.8-0.7,1.5-1.2,2.1c-0.5,0.6-1,1-1.7,1.3C260.9,423.2,260.3,423.4,259.6,423.4z M258.8,420.4
		c0.6,0,1.2-0.3,1.6-0.9c0.5-0.6,0.7-1.5,0.7-2.8c0-2.2-0.7-3.4-2.2-3.4c-0.7,0-1.4,0.4-2.1,1.1v5.1c0.3,0.3,0.7,0.5,1,0.6
		C258.1,420.3,258.5,420.4,258.8,420.4z"/>
	<path class="st1" d="M271.2,423.4c-1.4,0-2.3-0.4-2.9-1.3c-0.6-0.9-0.9-2.1-0.9-3.7v-7.7h3.7v7.2c0,0.9,0.1,1.5,0.4,1.8
		c0.3,0.3,0.6,0.5,1.2,0.5c0.5,0,0.9-0.1,1.2-0.3c0.3-0.2,0.7-0.6,1-1v-8.2h3.7v12.4h-3l-0.3-1.7h-0.1c-0.5,0.6-1.1,1.1-1.7,1.5
		C272.8,423.2,272,423.4,271.2,423.4z"/>
	<path class="st1" d="M285.3,423.4c-0.8,0-1.7-0.2-2.5-0.5c-0.9-0.3-1.6-0.7-2.2-1.3l1.6-2.3c0.6,0.4,1.1,0.8,1.6,1s1,0.3,1.6,0.3
		c0.5,0,1-0.1,1.2-0.3c0.3-0.2,0.4-0.4,0.4-0.8c0-0.2-0.1-0.4-0.2-0.5c-0.1-0.2-0.3-0.3-0.6-0.4c-0.2-0.1-0.5-0.3-0.8-0.4
		c-0.3-0.1-0.6-0.2-0.9-0.4c-0.4-0.2-0.8-0.3-1.1-0.5s-0.7-0.4-1-0.7c-0.3-0.3-0.6-0.6-0.8-1c-0.2-0.4-0.3-0.8-0.3-1.4
		c0-0.6,0.1-1.1,0.3-1.6c0.2-0.5,0.5-0.9,1-1.2c0.4-0.3,0.9-0.6,1.5-0.8c0.6-0.2,1.2-0.3,1.9-0.3c1,0,1.8,0.2,2.5,0.5
		c0.7,0.3,1.3,0.7,1.9,1.1l-1.6,2.2c-0.5-0.3-0.9-0.6-1.3-0.8c-0.4-0.2-0.9-0.3-1.3-0.3c-0.9,0-1.4,0.3-1.4,1c0,0.2,0.1,0.4,0.2,0.5
		s0.3,0.3,0.5,0.4c0.2,0.1,0.5,0.2,0.8,0.3s0.6,0.2,0.9,0.3c0.4,0.1,0.8,0.3,1.2,0.5s0.8,0.4,1.1,0.7c0.3,0.3,0.6,0.6,0.8,1
		c0.2,0.4,0.3,0.9,0.3,1.5c0,0.6-0.1,1.1-0.3,1.6s-0.5,0.9-1,1.3c-0.4,0.4-1,0.6-1.6,0.8C286.9,423.3,286.1,423.4,285.3,423.4z"/>
	<path class="st1" d="M294.6,408.8c-0.6,0-1.1-0.2-1.5-0.5c-0.4-0.4-0.6-0.8-0.6-1.4c0-0.6,0.2-1,0.6-1.4c0.4-0.3,0.9-0.5,1.5-0.5
		c0.6,0,1.1,0.2,1.5,0.5c0.4,0.4,0.6,0.8,0.6,1.4c0,0.6-0.2,1-0.6,1.4S295.2,408.8,294.6,408.8z M292.7,423.1v-12.4h3.7v12.4H292.7z
		"/>
	<path class="st1" d="M299.6,423.1v-12.4h3l0.3,1.6h0.1c0.5-0.5,1.1-0.9,1.8-1.3c0.6-0.4,1.4-0.6,2.2-0.6c1.3,0,2.3,0.4,2.9,1.3
		c0.6,0.9,0.9,2.1,0.9,3.7v7.7h-3.7v-7.2c0-0.9-0.1-1.5-0.4-1.9c-0.2-0.3-0.6-0.5-1.2-0.5c-0.5,0-0.9,0.1-1.2,0.3
		c-0.3,0.2-0.7,0.5-1.1,0.9v8.4H299.6z"/>
	<path class="st1" d="M319.5,423.4c-0.9,0-1.7-0.1-2.5-0.4c-0.8-0.3-1.4-0.7-2-1.3c-0.6-0.6-1-1.2-1.3-2c-0.3-0.8-0.5-1.7-0.5-2.8
		c0-1,0.2-1.9,0.5-2.7s0.8-1.5,1.3-2.1c0.5-0.6,1.2-1,1.9-1.3c0.7-0.3,1.4-0.5,2.2-0.5c0.9,0,1.7,0.2,2.3,0.5
		c0.7,0.3,1.2,0.7,1.6,1.3c0.4,0.5,0.8,1.2,1,1.9c0.2,0.7,0.3,1.5,0.3,2.4c0,0.3,0,0.7,0,1c0,0.3-0.1,0.5-0.1,0.7h-7.4
		c0.2,0.9,0.5,1.6,1.1,2s1.3,0.6,2.1,0.6c0.9,0,1.8-0.3,2.7-0.8l1.2,2.2c-0.6,0.4-1.3,0.8-2.1,1S320.2,423.4,319.5,423.4z
		 M316.7,415.5h4.5c0-0.7-0.2-1.3-0.5-1.7s-0.8-0.7-1.6-0.7c-0.6,0-1.1,0.2-1.5,0.6C317.1,414.1,316.9,414.7,316.7,415.5z"/>
	<path class="st1" d="M330.5,423.4c-0.8,0-1.7-0.2-2.5-0.5c-0.9-0.3-1.6-0.7-2.2-1.3l1.6-2.3c0.6,0.4,1.1,0.8,1.6,1s1,0.3,1.6,0.3
		c0.5,0,1-0.1,1.2-0.3c0.3-0.2,0.4-0.4,0.4-0.8c0-0.2-0.1-0.4-0.2-0.5c-0.1-0.2-0.3-0.3-0.6-0.4c-0.2-0.1-0.5-0.3-0.8-0.4
		c-0.3-0.1-0.6-0.2-0.9-0.4c-0.4-0.2-0.8-0.3-1.1-0.5s-0.7-0.4-1-0.7c-0.3-0.3-0.6-0.6-0.8-1c-0.2-0.4-0.3-0.8-0.3-1.4
		c0-0.6,0.1-1.1,0.3-1.6c0.2-0.5,0.5-0.9,1-1.2c0.4-0.3,0.9-0.6,1.5-0.8c0.6-0.2,1.2-0.3,1.9-0.3c1,0,1.8,0.2,2.5,0.5
		c0.7,0.3,1.3,0.7,1.9,1.1l-1.6,2.2c-0.5-0.3-0.9-0.6-1.3-0.8c-0.4-0.2-0.9-0.3-1.3-0.3c-0.9,0-1.4,0.3-1.4,1c0,0.2,0.1,0.4,0.2,0.5
		s0.3,0.3,0.5,0.4c0.2,0.1,0.5,0.2,0.8,0.3s0.6,0.2,0.9,0.3c0.4,0.1,0.8,0.3,1.2,0.5s0.8,0.4,1.1,0.7c0.3,0.3,0.6,0.6,0.8,1
		c0.2,0.4,0.3,0.9,0.3,1.5c0,0.6-0.1,1.1-0.3,1.6s-0.5,0.9-1,1.3c-0.4,0.4-1,0.6-1.6,0.8C332.1,423.3,331.4,423.4,330.5,423.4z"/>
	<path class="st1" d="M341.6,423.4c-0.8,0-1.7-0.2-2.5-0.5c-0.9-0.3-1.6-0.7-2.2-1.3l1.6-2.3c0.6,0.4,1.1,0.8,1.6,1s1,0.3,1.6,0.3
		c0.5,0,1-0.1,1.2-0.3c0.3-0.2,0.4-0.4,0.4-0.8c0-0.2-0.1-0.4-0.2-0.5c-0.1-0.2-0.3-0.3-0.6-0.4c-0.2-0.1-0.5-0.3-0.8-0.4
		c-0.3-0.1-0.6-0.2-0.9-0.4c-0.4-0.2-0.8-0.3-1.1-0.5s-0.7-0.4-1-0.7c-0.3-0.3-0.6-0.6-0.8-1c-0.2-0.4-0.3-0.8-0.3-1.4
		c0-0.6,0.1-1.1,0.3-1.6c0.2-0.5,0.5-0.9,1-1.2c0.4-0.3,0.9-0.6,1.5-0.8c0.6-0.2,1.2-0.3,1.9-0.3c1,0,1.8,0.2,2.5,0.5
		c0.7,0.3,1.3,0.7,1.9,1.1l-1.6,2.2c-0.5-0.3-0.9-0.6-1.3-0.8c-0.4-0.2-0.9-0.3-1.3-0.3c-0.9,0-1.4,0.3-1.4,1c0,0.2,0.1,0.4,0.2,0.5
		s0.3,0.3,0.5,0.4c0.2,0.1,0.5,0.2,0.8,0.3s0.6,0.2,0.9,0.3c0.4,0.1,0.8,0.3,1.2,0.5s0.8,0.4,1.1,0.7c0.3,0.3,0.6,0.6,0.8,1
		c0.2,0.4,0.3,0.9,0.3,1.5c0,0.6-0.1,1.1-0.3,1.6s-0.5,0.9-1,1.3c-0.4,0.4-1,0.6-1.6,0.8C343.2,423.3,342.4,423.4,341.6,423.4z"/>
	<path class="st1" d="M349.3,427.9l-0.8-1.9c0.9-0.3,1.6-0.8,2.1-1.3s0.7-1.1,0.7-1.8h-0.2c-0.6,0-1.1-0.2-1.5-0.5
		c-0.5-0.4-0.7-0.9-0.7-1.5c0-0.6,0.2-1.1,0.7-1.5c0.4-0.4,1-0.6,1.6-0.6c0.8,0,1.5,0.3,1.9,0.9c0.4,0.6,0.6,1.5,0.6,2.6
		c0,1.4-0.4,2.6-1.1,3.6C351.9,426.8,350.8,427.5,349.3,427.9z"/>
	<path class="st1" d="M363.6,423.1l-3.1-12.4h3.6l1.2,5.8c0.1,0.6,0.2,1.2,0.3,1.8c0.1,0.6,0.2,1.2,0.3,1.9h0.1
		c0.1-0.6,0.2-1.3,0.3-1.9c0.1-0.6,0.2-1.2,0.4-1.8l1.4-5.8h3.2l1.4,5.8c0.1,0.6,0.3,1.2,0.4,1.8c0.1,0.6,0.2,1.2,0.4,1.9h0.1
		c0.1-0.6,0.2-1.3,0.3-1.9c0.1-0.6,0.2-1.2,0.3-1.8l1.2-5.8h3.4l-3,12.4h-4.3l-1.1-5c-0.1-0.6-0.3-1.2-0.4-1.8
		c-0.1-0.6-0.2-1.2-0.3-1.9h-0.1c-0.1,0.7-0.2,1.3-0.3,1.9c-0.1,0.6-0.2,1.2-0.3,1.8l-1.1,5H363.6z"/>
	<path class="st1" d="M380.9,423.1v-17.5h3.7v4.3l-0.2,2.2c0.5-0.4,1-0.8,1.6-1.2c0.6-0.4,1.4-0.5,2.2-0.5c1.3,0,2.3,0.4,2.9,1.3
		c0.6,0.9,0.9,2.1,0.9,3.7v7.7h-3.7v-7.2c0-0.9-0.1-1.5-0.4-1.9c-0.2-0.3-0.6-0.5-1.2-0.5c-0.5,0-0.9,0.1-1.2,0.3
		c-0.3,0.2-0.7,0.5-1.1,0.9v8.4H380.9z"/>
	<path class="st1" d="M400.7,423.4c-0.9,0-1.7-0.1-2.5-0.4c-0.8-0.3-1.4-0.7-2-1.3c-0.6-0.6-1-1.2-1.3-2c-0.3-0.8-0.5-1.7-0.5-2.8
		c0-1,0.2-1.9,0.5-2.7s0.8-1.5,1.3-2.1c0.5-0.6,1.2-1,1.9-1.3c0.7-0.3,1.4-0.5,2.2-0.5c0.9,0,1.7,0.2,2.3,0.5
		c0.7,0.3,1.2,0.7,1.6,1.3c0.4,0.5,0.8,1.2,1,1.9c0.2,0.7,0.3,1.5,0.3,2.4c0,0.3,0,0.7,0,1c0,0.3-0.1,0.5-0.1,0.7H398
		c0.2,0.9,0.5,1.6,1.1,2s1.3,0.6,2.1,0.6c0.9,0,1.8-0.3,2.7-0.8l1.2,2.2c-0.6,0.4-1.3,0.8-2.1,1S401.5,423.4,400.7,423.4z
		 M398,415.5h4.5c0-0.7-0.2-1.3-0.5-1.7s-0.8-0.7-1.6-0.7c-0.6,0-1.1,0.2-1.5,0.6C398.4,414.1,398.1,414.7,398,415.5z"/>
	<path class="st1" d="M408.1,423.1v-12.4h3l0.3,1.6h0.1c0.5-0.5,1.1-0.9,1.8-1.3c0.6-0.4,1.4-0.6,2.2-0.6c1.3,0,2.3,0.4,2.9,1.3
		c0.6,0.9,0.9,2.1,0.9,3.7v7.7h-3.7v-7.2c0-0.9-0.1-1.5-0.4-1.9c-0.2-0.3-0.6-0.5-1.2-0.5c-0.5,0-0.9,0.1-1.2,0.3
		c-0.3,0.2-0.7,0.5-1.1,0.9v8.4H408.1z"/>
	<path class="st1" d="M66.2,457.9c-0.4,0-0.7,0-1-0.1c-0.3,0-0.5-0.1-0.8-0.2l0.6-2.8c0.1,0,0.3,0.1,0.4,0.1c0.2,0,0.3,0,0.4,0
		c0.6,0,1.1-0.2,1.4-0.5s0.6-0.7,0.8-1.2l0.2-0.7l-4.8-12.1h3.7L69,446c0.2,0.6,0.4,1.1,0.5,1.7c0.1,0.6,0.3,1.2,0.5,1.8h0.1
		c0.1-0.6,0.3-1.2,0.4-1.8c0.1-0.6,0.3-1.2,0.4-1.8l1.5-5.3h3.5l-4.3,12.5c-0.3,0.8-0.6,1.5-0.9,2.1c-0.3,0.6-0.7,1.1-1.1,1.5
		c-0.4,0.4-0.9,0.7-1.4,0.9C67.6,457.8,66.9,457.9,66.2,457.9z"/>
	<path class="st1" d="M83,453.4c-0.8,0-1.5-0.1-2.3-0.4c-0.7-0.3-1.4-0.7-1.9-1.3c-0.6-0.5-1-1.2-1.3-2s-0.5-1.7-0.5-2.8
		c0-1,0.2-2,0.5-2.8c0.3-0.8,0.8-1.5,1.3-2s1.2-1,1.9-1.3c0.7-0.3,1.5-0.4,2.3-0.4c0.8,0,1.5,0.1,2.3,0.4c0.7,0.3,1.4,0.7,1.9,1.3
		c0.6,0.5,1,1.2,1.3,2c0.3,0.8,0.5,1.7,0.5,2.8c0,1-0.2,2-0.5,2.8c-0.3,0.8-0.8,1.5-1.3,2c-0.6,0.6-1.2,1-1.9,1.3
		C84.5,453.2,83.8,453.4,83,453.4z M83,450.4c0.8,0,1.3-0.3,1.7-1c0.4-0.6,0.6-1.5,0.6-2.6c0-1.1-0.2-1.9-0.6-2.6
		c-0.4-0.6-0.9-0.9-1.7-0.9c-0.8,0-1.3,0.3-1.7,0.9c-0.4,0.6-0.6,1.5-0.6,2.6c0,1.1,0.2,1.9,0.6,2.6C81.6,450.1,82.2,450.4,83,450.4
		z"/>
	<path class="st1" d="M95.3,453.4c-1.4,0-2.3-0.4-2.9-1.3c-0.6-0.9-0.9-2.1-0.9-3.7v-7.7h3.7v7.2c0,0.9,0.1,1.5,0.4,1.8
		c0.3,0.3,0.6,0.5,1.2,0.5c0.5,0,0.9-0.1,1.2-0.3c0.3-0.2,0.7-0.6,1-1v-8.2h3.7v12.4h-3l-0.3-1.7h-0.1c-0.5,0.6-1.1,1.1-1.7,1.5
		C96.8,453.2,96.1,453.4,95.3,453.4z"/>
	<path class="st1" d="M116.1,453.4c-0.9,0-1.7-0.1-2.4-0.4c-0.7-0.3-1.4-0.7-1.9-1.3c-0.5-0.5-1-1.2-1.3-2c-0.3-0.8-0.5-1.7-0.5-2.8
		c0-1,0.2-2,0.5-2.8c0.4-0.8,0.8-1.5,1.4-2c0.6-0.5,1.3-1,2.1-1.3c0.8-0.3,1.6-0.4,2.5-0.4c0.8,0,1.4,0.1,2,0.4
		c0.6,0.3,1.1,0.6,1.6,1l-1.7,2.4c-0.6-0.5-1.1-0.7-1.7-0.7c-0.9,0-1.6,0.3-2.1,0.9c-0.5,0.6-0.8,1.5-0.8,2.6c0,1.1,0.3,1.9,0.8,2.6
		c0.5,0.6,1.2,1,2,1c0.4,0,0.8-0.1,1.2-0.3s0.7-0.4,1.1-0.6l1.5,2.4c-0.6,0.5-1.3,0.9-2,1.1C117.5,453.2,116.8,453.4,116.1,453.4z"
		/>
	<path class="st1" d="M125.3,453.4c-0.6,0-1.1-0.1-1.5-0.3s-0.8-0.5-1.2-0.8s-0.6-0.7-0.7-1.2c-0.2-0.5-0.3-0.9-0.3-1.5
		c0-1.3,0.6-2.3,1.7-3c1.1-0.7,2.9-1.2,5.3-1.5c0-0.6-0.2-1-0.5-1.3c-0.3-0.3-0.8-0.5-1.5-0.5c-0.5,0-1.1,0.1-1.6,0.3
		c-0.5,0.2-1.1,0.5-1.7,0.8L122,442c0.8-0.5,1.6-0.9,2.5-1.2s1.8-0.5,2.8-0.5c1.6,0,2.8,0.5,3.7,1.4c0.8,0.9,1.3,2.3,1.3,4.2v7.1h-3
		l-0.3-1.3h-0.1c-0.5,0.5-1.1,0.8-1.7,1.1C126.6,453.2,126,453.4,125.3,453.4z M126.5,450.5c0.4,0,0.8-0.1,1.1-0.3
		c0.3-0.2,0.6-0.4,0.9-0.8v-2.2c-1.3,0.2-2.2,0.5-2.7,0.8c-0.5,0.3-0.8,0.8-0.8,1.3c0,0.4,0.1,0.7,0.4,0.9
		C125.7,450.4,126.1,450.5,126.5,450.5z"/>
	<path class="st1" d="M135.3,453.1v-12.4h3l0.3,1.6h0.1c0.5-0.5,1.1-0.9,1.8-1.3c0.6-0.4,1.4-0.6,2.2-0.6c1.3,0,2.3,0.4,2.9,1.3
		c0.6,0.9,0.9,2.1,0.9,3.7v7.7h-3.7v-7.2c0-0.9-0.1-1.5-0.4-1.9c-0.2-0.3-0.6-0.5-1.2-0.5c-0.5,0-0.9,0.1-1.2,0.3
		c-0.3,0.2-0.7,0.5-1.1,0.9v8.4H135.3z"/>
	<path class="st1" d="M161.1,453.4c-0.5,0-1.1-0.1-1.7-0.4c-0.6-0.3-1.1-0.7-1.6-1.2h-0.1l-0.3,1.3h-2.9v-17.5h3.7v4.3l-0.1,1.9
		c0.5-0.4,1-0.8,1.6-1c0.6-0.2,1.1-0.4,1.7-0.4c0.8,0,1.4,0.2,2,0.5s1.1,0.7,1.5,1.3c0.4,0.5,0.8,1.2,1,2c0.2,0.8,0.3,1.6,0.3,2.6
		c0,1.1-0.1,2-0.4,2.8c-0.3,0.8-0.7,1.5-1.2,2.1c-0.5,0.6-1,1-1.7,1.3C162.4,453.2,161.8,453.4,161.1,453.4z M160.3,450.4
		c0.6,0,1.2-0.3,1.6-0.9c0.5-0.6,0.7-1.5,0.7-2.8c0-2.2-0.7-3.4-2.2-3.4c-0.7,0-1.4,0.4-2.1,1.1v5.1c0.3,0.3,0.7,0.5,1,0.6
		C159.6,450.3,160,450.4,160.3,450.4z"/>
	<path class="st1" d="M174.5,453.4c-0.9,0-1.7-0.1-2.5-0.4c-0.8-0.3-1.4-0.7-2-1.3c-0.6-0.6-1-1.2-1.3-2c-0.3-0.8-0.5-1.7-0.5-2.8
		c0-1,0.2-1.9,0.5-2.7s0.8-1.5,1.3-2.1c0.5-0.6,1.2-1,1.9-1.3c0.7-0.3,1.4-0.5,2.2-0.5c0.9,0,1.7,0.2,2.3,0.5
		c0.7,0.3,1.2,0.7,1.6,1.3c0.4,0.5,0.8,1.2,1,1.9c0.2,0.7,0.3,1.5,0.3,2.4c0,0.3,0,0.7,0,1c0,0.3-0.1,0.5-0.1,0.7h-7.4
		c0.2,0.9,0.5,1.6,1.1,2s1.3,0.6,2.1,0.6c0.9,0,1.8-0.3,2.7-0.8l1.2,2.2c-0.6,0.4-1.3,0.8-2.1,1S175.3,453.4,174.5,453.4z
		 M171.8,445.5h4.5c0-0.7-0.2-1.3-0.5-1.7s-0.8-0.7-1.6-0.7c-0.6,0-1.1,0.2-1.5,0.6C172.2,444.1,171.9,444.7,171.8,445.5z"/>
	<path class="st1" d="M190,453.4c-0.6,0-1.1-0.1-1.5-0.3s-0.8-0.5-1.2-0.8s-0.6-0.7-0.7-1.2c-0.2-0.5-0.3-0.9-0.3-1.5
		c0-1.3,0.6-2.3,1.7-3c1.1-0.7,2.9-1.2,5.3-1.5c0-0.6-0.2-1-0.5-1.3c-0.3-0.3-0.8-0.5-1.5-0.5c-0.5,0-1.1,0.1-1.6,0.3
		c-0.5,0.2-1.1,0.5-1.7,0.8l-1.3-2.4c0.8-0.5,1.6-0.9,2.5-1.2s1.8-0.5,2.8-0.5c1.6,0,2.8,0.5,3.7,1.4c0.8,0.9,1.3,2.3,1.3,4.2v7.1
		h-3l-0.3-1.3h-0.1c-0.5,0.5-1.1,0.8-1.7,1.1C191.4,453.2,190.7,453.4,190,453.4z M191.3,450.5c0.4,0,0.8-0.1,1.1-0.3
		c0.3-0.2,0.6-0.4,0.9-0.8v-2.2c-1.3,0.2-2.2,0.5-2.7,0.8c-0.5,0.3-0.8,0.8-0.8,1.3c0,0.4,0.1,0.7,0.4,0.9
		C190.5,450.4,190.8,450.5,191.3,450.5z"/>
	<path class="st1" d="M207.2,453.1l-3.1-12.4h3.6l1.2,5.8c0.1,0.6,0.2,1.2,0.3,1.8c0.1,0.6,0.2,1.2,0.3,1.9h0.1
		c0.1-0.6,0.2-1.3,0.3-1.9c0.1-0.6,0.2-1.2,0.4-1.8l1.4-5.8h3.2l1.4,5.8c0.1,0.6,0.3,1.2,0.4,1.8c0.1,0.6,0.2,1.2,0.4,1.9h0.1
		c0.1-0.6,0.2-1.3,0.3-1.9c0.1-0.6,0.2-1.2,0.3-1.8l1.2-5.8h3.4l-3,12.4H215l-1.1-5c-0.1-0.6-0.3-1.2-0.4-1.8
		c-0.1-0.6-0.2-1.2-0.3-1.9h-0.1c-0.1,0.7-0.2,1.3-0.3,1.9c-0.1,0.6-0.2,1.2-0.3,1.8l-1.1,5H207.2z"/>
	<path class="st1" d="M229.6,453.4c-0.8,0-1.5-0.1-2.3-0.4c-0.7-0.3-1.4-0.7-1.9-1.3c-0.6-0.5-1-1.2-1.3-2s-0.5-1.7-0.5-2.8
		c0-1,0.2-2,0.5-2.8c0.3-0.8,0.8-1.5,1.3-2s1.2-1,1.9-1.3c0.7-0.3,1.5-0.4,2.3-0.4c0.8,0,1.5,0.1,2.3,0.4c0.7,0.3,1.4,0.7,1.9,1.3
		c0.6,0.5,1,1.2,1.3,2c0.3,0.8,0.5,1.7,0.5,2.8c0,1-0.2,2-0.5,2.8c-0.3,0.8-0.8,1.5-1.3,2c-0.6,0.6-1.2,1-1.9,1.3
		C231.1,453.2,230.4,453.4,229.6,453.4z M229.6,450.4c0.8,0,1.3-0.3,1.7-1c0.4-0.6,0.6-1.5,0.6-2.6c0-1.1-0.2-1.9-0.6-2.6
		c-0.4-0.6-0.9-0.9-1.7-0.9c-0.8,0-1.3,0.3-1.7,0.9c-0.4,0.6-0.6,1.5-0.6,2.6c0,1.1,0.2,1.9,0.6,2.6
		C228.3,450.1,228.8,450.4,229.6,450.4z"/>
	<path class="st1" d="M238.2,453.1v-12.4h3l0.3,2.2h0.1c0.4-0.9,1-1.5,1.6-1.9c0.6-0.4,1.3-0.6,1.9-0.6c0.4,0,0.6,0,0.9,0.1
		c0.2,0,0.4,0.1,0.6,0.2l-0.6,3.2c-0.2-0.1-0.5-0.1-0.6-0.1c-0.2,0-0.4,0-0.7,0c-0.5,0-1,0.2-1.5,0.5c-0.5,0.3-0.9,0.9-1.3,1.8v7.2
		H238.2z"/>
	<path class="st1" d="M251.5,453.4c-0.6,0-1.2-0.1-1.6-0.3c-0.4-0.2-0.8-0.5-1-0.8c-0.3-0.4-0.4-0.8-0.6-1.3
		c-0.1-0.5-0.2-1.1-0.2-1.7v-13.7h3.7v13.8c0,0.4,0.1,0.7,0.2,0.8c0.1,0.2,0.3,0.2,0.4,0.2c0.1,0,0.2,0,0.2,0c0.1,0,0.1,0,0.2,0
		l0.5,2.7c-0.2,0.1-0.5,0.2-0.8,0.2C252.3,453.3,251.9,453.4,251.5,453.4z"/>
	<path class="st1" d="M259.7,453.4c-0.8,0-1.5-0.1-2.1-0.5c-0.6-0.3-1.2-0.7-1.6-1.3c-0.4-0.6-0.8-1.2-1-2c-0.2-0.8-0.4-1.7-0.4-2.7
		s0.1-1.9,0.4-2.7c0.3-0.8,0.7-1.5,1.1-2c0.5-0.6,1-1,1.6-1.3s1.3-0.5,1.9-0.5c0.7,0,1.3,0.1,1.7,0.4c0.4,0.2,0.9,0.5,1.3,0.9
		l-0.1-1.9v-4.2h3.7v17.5h-3l-0.3-1.2H263c-0.4,0.4-0.9,0.8-1.5,1.1C260.9,453.2,260.3,453.4,259.7,453.4z M260.6,450.4
		c0.4,0,0.8-0.1,1.1-0.3c0.3-0.2,0.6-0.5,0.9-0.9v-5.1c-0.3-0.3-0.7-0.5-1-0.6c-0.4-0.1-0.7-0.2-1-0.2c-0.6,0-1.1,0.3-1.6,0.8
		c-0.4,0.6-0.7,1.4-0.7,2.6c0,1.2,0.2,2.1,0.6,2.7S259.9,450.4,260.6,450.4z"/>
	<path class="st1" d="M269,448v-2.6h6.1v2.6H269z"/>
	<path class="st1" d="M283.3,453.4c-0.9,0-1.7-0.1-2.4-0.4c-0.7-0.3-1.4-0.7-1.9-1.3c-0.5-0.5-1-1.2-1.3-2c-0.3-0.8-0.5-1.7-0.5-2.8
		c0-1,0.2-2,0.5-2.8c0.4-0.8,0.8-1.5,1.4-2c0.6-0.5,1.3-1,2.1-1.3c0.8-0.3,1.6-0.4,2.5-0.4c0.8,0,1.4,0.1,2,0.4
		c0.6,0.3,1.1,0.6,1.6,1l-1.7,2.4c-0.6-0.5-1.1-0.7-1.7-0.7c-0.9,0-1.6,0.3-2.1,0.9c-0.5,0.6-0.8,1.5-0.8,2.6c0,1.1,0.3,1.9,0.8,2.6
		c0.5,0.6,1.2,1,2,1c0.4,0,0.8-0.1,1.2-0.3s0.7-0.4,1.1-0.6l1.5,2.4c-0.6,0.5-1.3,0.9-2,1.1C284.7,453.2,284,453.4,283.3,453.4z"/>
	<path class="st1" d="M292.9,453.4c-0.6,0-1.2-0.1-1.6-0.3c-0.4-0.2-0.8-0.5-1-0.8c-0.3-0.4-0.4-0.8-0.6-1.3
		c-0.1-0.5-0.2-1.1-0.2-1.7v-13.7h3.7v13.8c0,0.4,0.1,0.7,0.2,0.8c0.1,0.2,0.3,0.2,0.4,0.2c0.1,0,0.2,0,0.2,0c0.1,0,0.1,0,0.2,0
		l0.5,2.7c-0.2,0.1-0.5,0.2-0.8,0.2C293.7,453.3,293.3,453.4,292.9,453.4z"/>
	<path class="st1" d="M299.8,453.4c-0.6,0-1.1-0.1-1.5-0.3s-0.8-0.5-1.2-0.8s-0.6-0.7-0.7-1.2c-0.2-0.5-0.3-0.9-0.3-1.5
		c0-1.3,0.6-2.3,1.7-3c1.1-0.7,2.9-1.2,5.3-1.5c0-0.6-0.2-1-0.5-1.3c-0.3-0.3-0.8-0.5-1.5-0.5c-0.5,0-1.1,0.1-1.6,0.3
		c-0.5,0.2-1.1,0.5-1.7,0.8l-1.3-2.4c0.8-0.5,1.6-0.9,2.5-1.2s1.8-0.5,2.8-0.5c1.6,0,2.8,0.5,3.7,1.4c0.8,0.9,1.3,2.3,1.3,4.2v7.1
		h-3l-0.3-1.3h-0.1c-0.5,0.5-1.1,0.8-1.7,1.1C301.2,453.2,300.5,453.4,299.8,453.4z M301.1,450.5c0.4,0,0.8-0.1,1.1-0.3
		c0.3-0.2,0.6-0.4,0.9-0.8v-2.2c-1.3,0.2-2.2,0.5-2.7,0.8c-0.5,0.3-0.8,0.8-0.8,1.3c0,0.4,0.1,0.7,0.4,0.9
		C300.3,450.4,300.6,450.5,301.1,450.5z"/>
	<path class="st1" d="M313.5,453.4c-0.8,0-1.7-0.2-2.5-0.5c-0.9-0.3-1.6-0.7-2.2-1.3l1.6-2.3c0.6,0.4,1.1,0.8,1.6,1s1,0.3,1.6,0.3
		c0.5,0,1-0.1,1.2-0.3c0.3-0.2,0.4-0.4,0.4-0.8c0-0.2-0.1-0.4-0.2-0.5c-0.1-0.2-0.3-0.3-0.6-0.4c-0.2-0.1-0.5-0.3-0.8-0.4
		c-0.3-0.1-0.6-0.2-0.9-0.4c-0.4-0.2-0.8-0.3-1.1-0.5s-0.7-0.4-1-0.7c-0.3-0.3-0.6-0.6-0.8-1c-0.2-0.4-0.3-0.8-0.3-1.4
		c0-0.6,0.1-1.1,0.3-1.6c0.2-0.5,0.5-0.9,1-1.2c0.4-0.3,0.9-0.6,1.5-0.8c0.6-0.2,1.2-0.3,1.9-0.3c1,0,1.8,0.2,2.5,0.5
		c0.7,0.3,1.3,0.7,1.9,1.1l-1.6,2.2c-0.5-0.3-0.9-0.6-1.3-0.8c-0.4-0.2-0.9-0.3-1.3-0.3c-0.9,0-1.4,0.3-1.4,1c0,0.2,0.1,0.4,0.2,0.5
		s0.3,0.3,0.5,0.4c0.2,0.1,0.5,0.2,0.8,0.3s0.6,0.2,0.9,0.3c0.4,0.1,0.8,0.3,1.2,0.5s0.8,0.4,1.1,0.7c0.3,0.3,0.6,0.6,0.8,1
		c0.2,0.4,0.3,0.9,0.3,1.5c0,0.6-0.1,1.1-0.3,1.6s-0.5,0.9-1,1.3c-0.4,0.4-1,0.6-1.6,0.8C315.1,453.3,314.4,453.4,313.5,453.4z"/>
	<path class="st1" d="M324.6,453.4c-0.8,0-1.7-0.2-2.5-0.5c-0.9-0.3-1.6-0.7-2.2-1.3l1.6-2.3c0.6,0.4,1.1,0.8,1.6,1s1,0.3,1.6,0.3
		c0.5,0,1-0.1,1.2-0.3c0.3-0.2,0.4-0.4,0.4-0.8c0-0.2-0.1-0.4-0.2-0.5c-0.1-0.2-0.3-0.3-0.6-0.4c-0.2-0.1-0.5-0.3-0.8-0.4
		c-0.3-0.1-0.6-0.2-0.9-0.4c-0.4-0.2-0.8-0.3-1.1-0.5s-0.7-0.4-1-0.7c-0.3-0.3-0.6-0.6-0.8-1c-0.2-0.4-0.3-0.8-0.3-1.4
		c0-0.6,0.1-1.1,0.3-1.6c0.2-0.5,0.5-0.9,1-1.2c0.4-0.3,0.9-0.6,1.5-0.8c0.6-0.2,1.2-0.3,1.9-0.3c1,0,1.8,0.2,2.5,0.5
		c0.7,0.3,1.3,0.7,1.9,1.1l-1.6,2.2c-0.5-0.3-0.9-0.6-1.3-0.8c-0.4-0.2-0.9-0.3-1.3-0.3c-0.9,0-1.4,0.3-1.4,1c0,0.2,0.1,0.4,0.2,0.5
		s0.3,0.3,0.5,0.4c0.2,0.1,0.5,0.2,0.8,0.3s0.6,0.2,0.9,0.3c0.4,0.1,0.8,0.3,1.2,0.5s0.8,0.4,1.1,0.7c0.3,0.3,0.6,0.6,0.8,1
		c0.2,0.4,0.3,0.9,0.3,1.5c0,0.6-0.1,1.1-0.3,1.6s-0.5,0.9-1,1.3c-0.4,0.4-1,0.6-1.6,0.8C326.2,453.3,325.4,453.4,324.6,453.4z"/>
	<path class="st1" d="M343.5,453.4c-0.5,0-1.1-0.1-1.7-0.4c-0.6-0.3-1.1-0.7-1.6-1.2h-0.1l-0.3,1.3H337v-17.5h3.7v4.3l-0.1,1.9
		c0.5-0.4,1-0.8,1.6-1c0.6-0.2,1.1-0.4,1.7-0.4c0.8,0,1.4,0.2,2,0.5s1.1,0.7,1.5,1.3c0.4,0.5,0.8,1.2,1,2c0.2,0.8,0.3,1.6,0.3,2.6
		c0,1.1-0.1,2-0.4,2.8c-0.3,0.8-0.7,1.5-1.2,2.1c-0.5,0.6-1,1-1.7,1.3C344.8,453.2,344.2,453.4,343.5,453.4z M342.7,450.4
		c0.6,0,1.2-0.3,1.6-0.9c0.5-0.6,0.7-1.5,0.7-2.8c0-2.2-0.7-3.4-2.2-3.4c-0.7,0-1.4,0.4-2.1,1.1v5.1c0.3,0.3,0.7,0.5,1,0.6
		C342,450.3,342.4,450.4,342.7,450.4z"/>
	<path class="st1" d="M351.4,453.1v-12.4h3l0.3,2.2h0.1c0.4-0.9,1-1.5,1.6-1.9c0.6-0.4,1.3-0.6,1.9-0.6c0.4,0,0.6,0,0.9,0.1
		c0.2,0,0.4,0.1,0.6,0.2l-0.6,3.2c-0.2-0.1-0.5-0.1-0.6-0.1c-0.2,0-0.4,0-0.7,0c-0.5,0-1,0.2-1.5,0.5c-0.5,0.3-0.9,0.9-1.3,1.8v7.2
		H351.4z"/>
	<path class="st1" d="M363.7,453.4c-0.6,0-1.1-0.1-1.5-0.3s-0.8-0.5-1.2-0.8s-0.6-0.7-0.7-1.2c-0.2-0.5-0.3-0.9-0.3-1.5
		c0-1.3,0.6-2.3,1.7-3c1.1-0.7,2.9-1.2,5.3-1.5c0-0.6-0.2-1-0.5-1.3c-0.3-0.3-0.8-0.5-1.5-0.5c-0.5,0-1.1,0.1-1.6,0.3
		c-0.5,0.2-1.1,0.5-1.7,0.8l-1.3-2.4c0.8-0.5,1.6-0.9,2.5-1.2s1.8-0.5,2.8-0.5c1.6,0,2.8,0.5,3.7,1.4c0.8,0.9,1.3,2.3,1.3,4.2v7.1
		h-3l-0.3-1.3h-0.1c-0.5,0.5-1.1,0.8-1.7,1.1C365.1,453.2,364.4,453.4,363.7,453.4z M365,450.5c0.4,0,0.8-0.1,1.1-0.3
		c0.3-0.2,0.6-0.4,0.9-0.8v-2.2c-1.3,0.2-2.2,0.5-2.7,0.8c-0.5,0.3-0.8,0.8-0.8,1.3c0,0.4,0.1,0.7,0.4,0.9
		C364.2,450.4,364.5,450.5,365,450.5z"/>
	<path class="st1" d="M373.8,453.1v-12.4h3l0.3,1.6h0.1c0.5-0.5,1.1-0.9,1.8-1.3c0.6-0.4,1.4-0.6,2.2-0.6c1.3,0,2.3,0.4,2.9,1.3
		c0.6,0.9,0.9,2.1,0.9,3.7v7.7h-3.7v-7.2c0-0.9-0.1-1.5-0.4-1.9c-0.2-0.3-0.6-0.5-1.2-0.5c-0.5,0-0.9,0.1-1.2,0.3
		c-0.3,0.2-0.7,0.5-1.1,0.9v8.4H373.8z"/>
	<path class="st1" d="M392.5,453.4c-0.8,0-1.5-0.1-2.1-0.5c-0.6-0.3-1.2-0.7-1.6-1.3s-0.8-1.2-1-2c-0.2-0.8-0.4-1.7-0.4-2.7
		s0.1-1.9,0.4-2.7c0.3-0.8,0.7-1.5,1.1-2c0.5-0.6,1-1,1.6-1.3s1.3-0.5,1.9-0.5c0.7,0,1.3,0.1,1.7,0.4c0.4,0.2,0.9,0.5,1.3,0.9
		l-0.1-1.9v-4.2h3.7v17.5h-3l-0.3-1.2h-0.1c-0.4,0.4-0.9,0.8-1.5,1.1C393.7,453.2,393.1,453.4,392.5,453.4z M393.5,450.4
		c0.4,0,0.8-0.1,1.1-0.3c0.3-0.2,0.6-0.5,0.9-0.9v-5.1c-0.3-0.3-0.7-0.5-1-0.6c-0.4-0.1-0.7-0.2-1-0.2c-0.6,0-1.1,0.3-1.6,0.8
		c-0.4,0.6-0.7,1.4-0.7,2.6c0,1.2,0.2,2.1,0.6,2.7S392.7,450.4,393.5,450.4z"/>
	<path class="st1" d="M404.6,447.3c-0.1-0.6-0.1-1.1,0.1-1.5c0.1-0.5,0.3-0.9,0.5-1.3c0.2-0.4,0.5-0.8,0.8-1.1
		c0.3-0.3,0.6-0.7,0.8-1c0.3-0.3,0.5-0.6,0.7-0.9c0.2-0.3,0.3-0.6,0.3-0.9c0-0.5-0.2-0.9-0.5-1.2c-0.3-0.3-0.7-0.4-1.2-0.4
		c-0.5,0-0.9,0.1-1.2,0.3s-0.7,0.5-1,0.8l-2-1.9c0.6-0.7,1.3-1.2,2.1-1.6s1.7-0.6,2.7-0.6c0.7,0,1.3,0.1,1.9,0.3
		c0.6,0.2,1.1,0.4,1.5,0.8c0.4,0.4,0.8,0.8,1,1.3c0.2,0.5,0.4,1.2,0.4,1.9c0,0.5-0.1,1-0.3,1.4c-0.2,0.4-0.4,0.8-0.7,1.1
		s-0.6,0.7-0.9,1c-0.3,0.3-0.6,0.7-0.9,1c-0.3,0.3-0.5,0.7-0.6,1.1s-0.2,0.8-0.1,1.3H404.6z M406.2,453.4c-0.6,0-1.2-0.2-1.6-0.7
		c-0.4-0.4-0.6-1-0.6-1.6c0-0.7,0.2-1.2,0.6-1.7c0.4-0.4,0.9-0.7,1.6-0.7c0.6,0,1.2,0.2,1.6,0.7c0.4,0.4,0.6,1,0.6,1.7
		c0,0.7-0.2,1.2-0.6,1.6C407.4,453.1,406.9,453.4,406.2,453.4z"/>
	<path class="st1" d="M416.6,453.4c-0.6,0-1.2-0.2-1.6-0.7c-0.4-0.4-0.6-1-0.6-1.6c0-0.7,0.2-1.2,0.6-1.7c0.4-0.4,1-0.7,1.6-0.7
		c0.6,0,1.2,0.2,1.6,0.7c0.4,0.4,0.6,1,0.6,1.7c0,0.7-0.2,1.2-0.6,1.6C417.8,453.1,417.2,453.4,416.6,453.4z M415.4,447.3l-0.5-7.6
		l-0.1-3.3h3.7l-0.1,3.3l-0.5,7.6H415.4z"/>
	<path class="st1" d="M68.9,483.4c-1.3,0-2.3-0.2-3.1-0.7c-0.8-0.5-1.5-1.2-2.1-2.2l2.5-1.8c0.3,0.5,0.6,1,1.1,1.2
		c0.4,0.3,0.8,0.4,1.2,0.4c0.7,0,1.2-0.2,1.5-0.6c0.3-0.4,0.5-1.2,0.5-2.2v-10.6h3.7v10.9c0,0.8-0.1,1.5-0.3,2.2
		c-0.2,0.7-0.5,1.3-1,1.8c-0.4,0.5-1,0.9-1.6,1.2C70.5,483.2,69.8,483.4,68.9,483.4z"/>
	<path class="st1" d="M80.7,483.4c-0.6,0-1.1-0.1-1.5-0.3s-0.8-0.5-1.2-0.8s-0.6-0.7-0.7-1.2c-0.2-0.5-0.3-0.9-0.3-1.5
		c0-1.3,0.6-2.3,1.7-3c1.1-0.7,2.9-1.2,5.3-1.5c0-0.6-0.2-1-0.5-1.3c-0.3-0.3-0.8-0.5-1.5-0.5c-0.5,0-1.1,0.1-1.6,0.3
		c-0.5,0.2-1.1,0.5-1.7,0.8l-1.3-2.4c0.8-0.5,1.6-0.9,2.5-1.2s1.8-0.5,2.8-0.5c1.6,0,2.8,0.5,3.7,1.4c0.8,0.9,1.3,2.3,1.3,4.2v7.1
		h-3l-0.3-1.3h-0.1c-0.5,0.5-1.1,0.8-1.7,1.1C82,483.2,81.4,483.4,80.7,483.4z M81.9,480.5c0.4,0,0.8-0.1,1.1-0.3
		c0.3-0.2,0.6-0.4,0.9-0.8v-2.2c-1.3,0.2-2.2,0.5-2.7,0.8c-0.5,0.3-0.8,0.8-0.8,1.3c0,0.4,0.1,0.7,0.4,0.9
		C81.1,480.4,81.5,480.5,81.9,480.5z"/>
	<path class="st1" d="M90.7,483.1v-12.4h3l0.3,2.2h0.1c0.4-0.9,1-1.5,1.6-1.9c0.6-0.4,1.3-0.6,1.9-0.6c0.4,0,0.6,0,0.9,0.1
		c0.2,0,0.4,0.1,0.6,0.2l-0.6,3.2c-0.2-0.1-0.5-0.1-0.6-0.1c-0.2,0-0.4,0-0.7,0c-0.5,0-1,0.2-1.5,0.5c-0.5,0.3-0.9,0.9-1.3,1.8v7.2
		H90.7z"/>
	<path class="st1" d="M103.1,483.4c-0.6,0-1.1-0.1-1.5-0.3s-0.8-0.5-1.2-0.8s-0.6-0.7-0.7-1.2c-0.2-0.5-0.3-0.9-0.3-1.5
		c0-1.3,0.6-2.3,1.7-3c1.1-0.7,2.9-1.2,5.3-1.5c0-0.6-0.2-1-0.5-1.3c-0.3-0.3-0.8-0.5-1.5-0.5c-0.5,0-1.1,0.1-1.6,0.3
		c-0.5,0.2-1.1,0.5-1.7,0.8l-1.3-2.4c0.8-0.5,1.6-0.9,2.5-1.2s1.8-0.5,2.8-0.5c1.6,0,2.8,0.5,3.7,1.4c0.8,0.9,1.3,2.3,1.3,4.2v7.1
		h-3l-0.3-1.3h-0.1c-0.5,0.5-1.1,0.8-1.7,1.1C104.4,483.2,103.8,483.4,103.1,483.4z M104.4,480.5c0.4,0,0.8-0.1,1.1-0.3
		c0.3-0.2,0.6-0.4,0.9-0.8v-2.2c-1.3,0.2-2.2,0.5-2.7,0.8c-0.5,0.3-0.8,0.8-0.8,1.3c0,0.4,0.1,0.7,0.4,0.9
		C103.6,480.4,103.9,480.5,104.4,480.5z"/>
	<path class="st1" d="M118.8,483.1v-9.5h-1.6v-2.7l1.6-0.1V470c0-0.7,0.1-1.3,0.2-1.9c0.2-0.6,0.4-1.1,0.8-1.5s0.8-0.8,1.4-1
		c0.6-0.3,1.3-0.4,2.1-0.4c0.5,0,1,0,1.4,0.2c0.4,0.1,0.8,0.2,1.1,0.3l-0.7,2.7c-0.5-0.2-0.9-0.3-1.3-0.3c-0.5,0-0.8,0.1-1.1,0.4
		c-0.3,0.3-0.4,0.7-0.4,1.4v0.8h2.2v2.9h-2.2v9.5H118.8z"/>
	<path class="st1" d="M131.8,483.4c-0.8,0-1.5-0.1-2.3-0.4c-0.7-0.3-1.4-0.7-1.9-1.3c-0.6-0.5-1-1.2-1.3-2s-0.5-1.7-0.5-2.8
		c0-1,0.2-2,0.5-2.8c0.3-0.8,0.8-1.5,1.3-2s1.2-1,1.9-1.3c0.7-0.3,1.5-0.4,2.3-0.4c0.8,0,1.5,0.1,2.3,0.4c0.7,0.3,1.4,0.7,1.9,1.3
		c0.6,0.5,1,1.2,1.3,2c0.3,0.8,0.5,1.7,0.5,2.8c0,1-0.2,2-0.5,2.8c-0.3,0.8-0.8,1.5-1.3,2c-0.6,0.6-1.2,1-1.9,1.3
		C133.3,483.2,132.5,483.4,131.8,483.4z M131.8,480.4c0.8,0,1.3-0.3,1.7-1c0.4-0.6,0.6-1.5,0.6-2.6c0-1.1-0.2-1.9-0.6-2.6
		c-0.4-0.6-0.9-0.9-1.7-0.9c-0.8,0-1.3,0.3-1.7,0.9c-0.4,0.6-0.6,1.5-0.6,2.6c0,1.1,0.2,1.9,0.6,2.6
		C130.4,480.1,131,480.4,131.8,480.4z"/>
	<path class="st1" d="M140.3,483.1v-12.4h3l0.3,2.2h0.1c0.4-0.9,1-1.5,1.6-1.9c0.6-0.4,1.3-0.6,1.9-0.6c0.4,0,0.6,0,0.9,0.1
		c0.2,0,0.4,0.1,0.6,0.2l-0.6,3.2c-0.2-0.1-0.5-0.1-0.6-0.1c-0.2,0-0.4,0-0.7,0c-0.5,0-1,0.2-1.5,0.5c-0.5,0.3-0.9,0.9-1.3,1.8v7.2
		H140.3z"/>
	<path class="st1" d="M155.6,483.1v-16.3h5.6c0.9,0,1.6,0.1,2.4,0.2c0.7,0.1,1.4,0.3,1.9,0.7c0.5,0.3,1,0.7,1.3,1.3
		c0.3,0.5,0.5,1.2,0.5,2c0,0.4,0,0.7-0.1,1.1c-0.1,0.4-0.2,0.7-0.4,1s-0.4,0.6-0.7,0.8c-0.3,0.3-0.6,0.4-0.9,0.6v0.1
		c0.4,0.1,0.8,0.3,1.1,0.5c0.4,0.2,0.7,0.5,0.9,0.8c0.3,0.3,0.5,0.7,0.6,1.1c0.1,0.4,0.2,0.9,0.2,1.5c0,0.8-0.2,1.5-0.5,2.1
		c-0.3,0.6-0.8,1.1-1.4,1.5c-0.6,0.4-1.2,0.7-2,0.9c-0.8,0.2-1.6,0.3-2.5,0.3H155.6z M159.2,473.3h1.7c0.9,0,1.6-0.2,2-0.5
		c0.4-0.4,0.6-0.8,0.6-1.4c0-0.6-0.2-1.1-0.6-1.3s-1.1-0.4-1.9-0.4h-1.8V473.3z M159.2,480.2h2.1c2,0,3-0.7,3-2.2
		c0-0.7-0.3-1.2-0.8-1.5c-0.5-0.3-1.3-0.5-2.3-0.5h-2.1V480.2z"/>
	<path class="st1" d="M170.4,483.1v-12.4h3l0.3,2.2h0.1c0.4-0.9,1-1.5,1.6-1.9c0.6-0.4,1.3-0.6,1.9-0.6c0.4,0,0.6,0,0.9,0.1
		c0.2,0,0.4,0.1,0.6,0.2l-0.6,3.2c-0.2-0.1-0.5-0.1-0.6-0.1c-0.2,0-0.4,0-0.7,0c-0.5,0-1,0.2-1.5,0.5c-0.5,0.3-0.9,0.9-1.3,1.8v7.2
		H170.4z"/>
	<path class="st1" d="M182.8,483.4c-0.6,0-1.1-0.1-1.5-0.3s-0.8-0.5-1.2-0.8s-0.6-0.7-0.7-1.2c-0.2-0.5-0.3-0.9-0.3-1.5
		c0-1.3,0.6-2.3,1.7-3c1.1-0.7,2.9-1.2,5.3-1.5c0-0.6-0.2-1-0.5-1.3c-0.3-0.3-0.8-0.5-1.5-0.5c-0.5,0-1.1,0.1-1.6,0.3
		c-0.5,0.2-1.1,0.5-1.7,0.8l-1.3-2.4c0.8-0.5,1.6-0.9,2.5-1.2s1.8-0.5,2.8-0.5c1.6,0,2.8,0.5,3.7,1.4c0.8,0.9,1.3,2.3,1.3,4.2v7.1
		h-3l-0.3-1.3h-0.1c-0.5,0.5-1.1,0.8-1.7,1.1C184.1,483.2,183.5,483.4,182.8,483.4z M184,480.5c0.4,0,0.8-0.1,1.1-0.3
		c0.3-0.2,0.6-0.4,0.9-0.8v-2.2c-1.3,0.2-2.2,0.5-2.7,0.8c-0.5,0.3-0.8,0.8-0.8,1.3c0,0.4,0.1,0.7,0.4,0.9
		C183.2,480.4,183.6,480.5,184,480.5z"/>
	<path class="st1" d="M192.8,483.1v-12.4h3l0.3,1.6h0.1c0.5-0.5,1.1-0.9,1.8-1.3c0.6-0.4,1.4-0.6,2.2-0.6c1.3,0,2.3,0.4,2.9,1.3
		c0.6,0.9,0.9,2.1,0.9,3.7v7.7h-3.7v-7.2c0-0.9-0.1-1.5-0.4-1.9c-0.2-0.3-0.6-0.5-1.2-0.5c-0.5,0-0.9,0.1-1.2,0.3
		c-0.3,0.2-0.7,0.5-1.1,0.9v8.4H192.8z"/>
	<path class="st1" d="M211.5,483.4c-0.8,0-1.5-0.1-2.1-0.5c-0.6-0.3-1.2-0.7-1.6-1.3s-0.8-1.2-1-2c-0.2-0.8-0.4-1.7-0.4-2.7
		s0.1-1.9,0.4-2.7c0.3-0.8,0.7-1.5,1.1-2c0.5-0.6,1-1,1.6-1.3s1.3-0.5,1.9-0.5c0.7,0,1.3,0.1,1.7,0.4c0.4,0.2,0.9,0.5,1.3,0.9
		l-0.1-1.9v-4.2h3.7v17.5h-3l-0.3-1.2h-0.1c-0.4,0.4-0.9,0.8-1.5,1.1C212.7,483.2,212.1,483.4,211.5,483.4z M212.5,480.4
		c0.4,0,0.8-0.1,1.1-0.3c0.3-0.2,0.6-0.5,0.9-0.9v-5.1c-0.3-0.3-0.7-0.5-1-0.6c-0.4-0.1-0.7-0.2-1-0.2c-0.6,0-1.1,0.3-1.6,0.8
		c-0.4,0.6-0.7,1.4-0.7,2.6c0,1.2,0.2,2.1,0.6,2.7S211.8,480.4,212.5,480.4z"/>
	<path class="st1" d="M225.1,483.4c-0.8,0-1.7-0.2-2.5-0.5c-0.9-0.3-1.6-0.7-2.2-1.3l1.6-2.3c0.6,0.4,1.1,0.8,1.6,1s1,0.3,1.6,0.3
		c0.5,0,1-0.1,1.2-0.3c0.3-0.2,0.4-0.4,0.4-0.8c0-0.2-0.1-0.4-0.2-0.5c-0.1-0.2-0.3-0.3-0.6-0.4c-0.2-0.1-0.5-0.3-0.8-0.4
		c-0.3-0.1-0.6-0.2-0.9-0.4c-0.4-0.2-0.8-0.3-1.1-0.5s-0.7-0.4-1-0.7c-0.3-0.3-0.6-0.6-0.8-1c-0.2-0.4-0.3-0.8-0.3-1.4
		c0-0.6,0.1-1.1,0.3-1.6c0.2-0.5,0.5-0.9,1-1.2c0.4-0.3,0.9-0.6,1.5-0.8c0.6-0.2,1.2-0.3,1.9-0.3c1,0,1.8,0.2,2.5,0.5
		c0.7,0.3,1.3,0.7,1.9,1.1l-1.6,2.2c-0.5-0.3-0.9-0.6-1.3-0.8c-0.4-0.2-0.9-0.3-1.3-0.3c-0.9,0-1.4,0.3-1.4,1c0,0.2,0.1,0.4,0.2,0.5
		s0.3,0.3,0.5,0.4c0.2,0.1,0.5,0.2,0.8,0.3s0.6,0.2,0.9,0.3c0.4,0.1,0.8,0.3,1.2,0.5s0.8,0.4,1.1,0.7c0.3,0.3,0.6,0.6,0.8,1
		c0.2,0.4,0.3,0.9,0.3,1.5c0,0.6-0.1,1.1-0.3,1.6s-0.5,0.9-1,1.3c-0.4,0.4-1,0.6-1.6,0.8C226.6,483.3,225.9,483.4,225.1,483.4z"/>
	<path class="st1" d="M239.3,468.8c-0.6,0-1.1-0.2-1.5-0.5c-0.4-0.4-0.6-0.8-0.6-1.4c0-0.6,0.2-1,0.6-1.4c0.4-0.3,0.9-0.5,1.5-0.5
		c0.6,0,1.1,0.2,1.5,0.5c0.4,0.4,0.6,0.8,0.6,1.4c0,0.6-0.2,1-0.6,1.4S240,468.8,239.3,468.8z M237.5,483.1v-12.4h3.7v12.4H237.5z"
		/>
	<path class="st1" d="M248.1,483.4c-0.8,0-1.7-0.2-2.5-0.5c-0.9-0.3-1.6-0.7-2.2-1.3l1.6-2.3c0.6,0.4,1.1,0.8,1.6,1s1,0.3,1.6,0.3
		c0.5,0,1-0.1,1.2-0.3c0.3-0.2,0.4-0.4,0.4-0.8c0-0.2-0.1-0.4-0.2-0.5c-0.1-0.2-0.3-0.3-0.6-0.4c-0.2-0.1-0.5-0.3-0.8-0.4
		c-0.3-0.1-0.6-0.2-0.9-0.4c-0.4-0.2-0.8-0.3-1.1-0.5s-0.7-0.4-1-0.7c-0.3-0.3-0.6-0.6-0.8-1c-0.2-0.4-0.3-0.8-0.3-1.4
		c0-0.6,0.1-1.1,0.3-1.6c0.2-0.5,0.5-0.9,1-1.2c0.4-0.3,0.9-0.6,1.5-0.8c0.6-0.2,1.2-0.3,1.9-0.3c1,0,1.8,0.2,2.5,0.5
		c0.7,0.3,1.3,0.7,1.9,1.1l-1.6,2.2c-0.5-0.3-0.9-0.6-1.3-0.8c-0.4-0.2-0.9-0.3-1.3-0.3c-0.9,0-1.4,0.3-1.4,1c0,0.2,0.1,0.4,0.2,0.5
		s0.3,0.3,0.5,0.4c0.2,0.1,0.5,0.2,0.8,0.3s0.6,0.2,0.9,0.3c0.4,0.1,0.8,0.3,1.2,0.5s0.8,0.4,1.1,0.7c0.3,0.3,0.6,0.6,0.8,1
		c0.2,0.4,0.3,0.9,0.3,1.5c0,0.6-0.1,1.1-0.3,1.6s-0.5,0.9-1,1.3c-0.4,0.4-1,0.6-1.6,0.8C249.6,483.3,248.9,483.4,248.1,483.4z"/>
	<path class="st1" d="M265.3,483.4c-0.8,0-1.4-0.1-2-0.3c-0.5-0.2-1-0.6-1.3-1c-0.3-0.4-0.6-0.9-0.8-1.5s-0.2-1.2-0.2-2v-5h-1.7
		v-2.7l1.9-0.2l0.4-3.3h3v3.3h3v2.9h-3v5c0,0.7,0.1,1.2,0.4,1.5s0.7,0.5,1.2,0.5c0.2,0,0.4,0,0.6-0.1c0.2,0,0.4-0.1,0.6-0.2l0.6,2.7
		c-0.3,0.1-0.7,0.2-1.2,0.3C266.4,483.3,265.9,483.4,265.3,483.4z"/>
	<path class="st1" d="M270.1,483.1v-17.5h3.7v4.3l-0.2,2.2c0.5-0.4,1-0.8,1.6-1.2c0.6-0.4,1.4-0.5,2.2-0.5c1.3,0,2.3,0.4,2.9,1.3
		c0.6,0.9,0.9,2.1,0.9,3.7v7.7h-3.7v-7.2c0-0.9-0.1-1.5-0.4-1.9c-0.2-0.3-0.6-0.5-1.2-0.5c-0.5,0-0.9,0.1-1.2,0.3
		c-0.3,0.2-0.7,0.5-1.1,0.9v8.4H270.1z"/>
	<path class="st1" d="M289.9,483.4c-0.9,0-1.7-0.1-2.5-0.4c-0.8-0.3-1.4-0.7-2-1.3c-0.6-0.6-1-1.2-1.3-2c-0.3-0.8-0.5-1.7-0.5-2.8
		c0-1,0.2-1.9,0.5-2.7s0.8-1.5,1.3-2.1c0.5-0.6,1.2-1,1.9-1.3c0.7-0.3,1.4-0.5,2.2-0.5c0.9,0,1.7,0.2,2.3,0.5
		c0.7,0.3,1.2,0.7,1.6,1.3c0.4,0.5,0.8,1.2,1,1.9c0.2,0.7,0.3,1.5,0.3,2.4c0,0.3,0,0.7,0,1c0,0.3-0.1,0.5-0.1,0.7h-7.4
		c0.2,0.9,0.5,1.6,1.1,2s1.3,0.6,2.1,0.6c0.9,0,1.8-0.3,2.7-0.8l1.2,2.2c-0.6,0.4-1.3,0.8-2.1,1S290.6,483.4,289.9,483.4z
		 M287.1,475.5h4.5c0-0.7-0.2-1.3-0.5-1.7s-0.8-0.7-1.6-0.7c-0.6,0-1.1,0.2-1.5,0.6C287.5,474.1,287.3,474.7,287.1,475.5z"/>
	<path class="st1" d="M306,483.4c-1.4,0-2.3-0.4-2.9-1.3c-0.6-0.9-0.9-2.1-0.9-3.7v-7.7h3.7v7.2c0,0.9,0.1,1.5,0.4,1.8
		c0.3,0.3,0.6,0.5,1.2,0.5c0.5,0,0.9-0.1,1.2-0.3c0.3-0.2,0.7-0.6,1-1v-8.2h3.7v12.4h-3l-0.3-1.7h-0.1c-0.5,0.6-1.1,1.1-1.7,1.5
		C307.6,483.2,306.9,483.4,306,483.4z"/>
	<path class="st1" d="M319.9,483.4c-0.6,0-1.2-0.1-1.6-0.3c-0.4-0.2-0.8-0.5-1-0.8c-0.3-0.4-0.4-0.8-0.6-1.3
		c-0.1-0.5-0.2-1.1-0.2-1.7v-13.7h3.7v13.8c0,0.4,0.1,0.7,0.2,0.8c0.1,0.2,0.3,0.2,0.4,0.2c0.1,0,0.2,0,0.2,0c0.1,0,0.1,0,0.2,0
		l0.5,2.7c-0.2,0.1-0.5,0.2-0.8,0.2C320.6,483.3,320.3,483.4,319.9,483.4z"/>
	<path class="st1" d="M328.4,483.4c-0.8,0-1.4-0.1-2-0.3c-0.5-0.2-1-0.6-1.3-1c-0.3-0.4-0.6-0.9-0.8-1.5s-0.2-1.2-0.2-2v-5h-1.7
		v-2.7l1.9-0.2l0.4-3.3h3v3.3h3v2.9h-3v5c0,0.7,0.1,1.2,0.4,1.5s0.7,0.5,1.2,0.5c0.2,0,0.4,0,0.6-0.1c0.2,0,0.4-0.1,0.6-0.2l0.6,2.7
		c-0.3,0.1-0.7,0.2-1.2,0.3C329.5,483.3,329,483.4,328.4,483.4z"/>
	<path class="st1" d="M335,468.8c-0.6,0-1.1-0.2-1.5-0.5c-0.4-0.4-0.6-0.8-0.6-1.4c0-0.6,0.2-1,0.6-1.4c0.4-0.3,0.9-0.5,1.5-0.5
		c0.6,0,1.1,0.2,1.5,0.5c0.4,0.4,0.6,0.8,0.6,1.4c0,0.6-0.2,1-0.6,1.4S335.7,468.8,335,468.8z M333.2,483.1v-12.4h3.7v12.4H333.2z"
		/>
	<path class="st1" d="M340.1,483.1v-12.4h3l0.3,1.6h0.1c0.5-0.5,1.1-1,1.6-1.3c0.6-0.4,1.3-0.6,2.1-0.6c0.9,0,1.6,0.2,2.1,0.5
		s1,0.9,1.3,1.5c0.6-0.6,1.1-1.1,1.7-1.5c0.6-0.4,1.3-0.6,2.2-0.6c1.3,0,2.3,0.4,2.9,1.3s0.9,2.1,0.9,3.7v7.7h-3.7v-7.2
		c0-0.9-0.1-1.5-0.4-1.9c-0.2-0.3-0.6-0.5-1.2-0.5c-0.6,0-1.3,0.4-2.1,1.2v8.4h-3.7v-7.2c0-0.9-0.1-1.5-0.4-1.9
		c-0.2-0.3-0.6-0.5-1.2-0.5c-0.6,0-1.3,0.4-2.1,1.2v8.4H340.1z"/>
	<path class="st1" d="M364.6,483.4c-0.6,0-1.1-0.1-1.5-0.3s-0.8-0.5-1.2-0.8s-0.6-0.7-0.7-1.2c-0.2-0.5-0.3-0.9-0.3-1.5
		c0-1.3,0.6-2.3,1.7-3c1.1-0.7,2.9-1.2,5.3-1.5c0-0.6-0.2-1-0.5-1.3c-0.3-0.3-0.8-0.5-1.5-0.5c-0.5,0-1.1,0.1-1.6,0.3
		c-0.5,0.2-1.1,0.5-1.7,0.8l-1.3-2.4c0.8-0.5,1.6-0.9,2.5-1.2s1.8-0.5,2.8-0.5c1.6,0,2.8,0.5,3.7,1.4c0.8,0.9,1.3,2.3,1.3,4.2v7.1
		h-3l-0.3-1.3h-0.1c-0.5,0.5-1.1,0.8-1.7,1.1C366,483.2,365.3,483.4,364.6,483.4z M365.9,480.5c0.4,0,0.8-0.1,1.1-0.3
		c0.3-0.2,0.6-0.4,0.9-0.8v-2.2c-1.3,0.2-2.2,0.5-2.7,0.8c-0.5,0.3-0.8,0.8-0.8,1.3c0,0.4,0.1,0.7,0.4,0.9
		C365.1,480.4,365.5,480.5,365.9,480.5z"/>
	<path class="st1" d="M379,483.4c-0.8,0-1.4-0.1-2-0.3c-0.5-0.2-1-0.6-1.3-1c-0.3-0.4-0.6-0.9-0.8-1.5s-0.2-1.2-0.2-2v-5H373v-2.7
		l1.9-0.2l0.4-3.3h3v3.3h3v2.9h-3v5c0,0.7,0.1,1.2,0.4,1.5s0.7,0.5,1.2,0.5c0.2,0,0.4,0,0.6-0.1c0.2,0,0.4-0.1,0.6-0.2l0.6,2.7
		c-0.3,0.1-0.7,0.2-1.2,0.3C380.1,483.3,379.6,483.4,379,483.4z"/>
	<path class="st1" d="M388.9,483.4c-0.9,0-1.7-0.1-2.5-0.4c-0.8-0.3-1.4-0.7-2-1.3c-0.6-0.6-1-1.2-1.3-2c-0.3-0.8-0.5-1.7-0.5-2.8
		c0-1,0.2-1.9,0.5-2.7s0.8-1.5,1.3-2.1c0.5-0.6,1.2-1,1.9-1.3c0.7-0.3,1.4-0.5,2.2-0.5c0.9,0,1.7,0.2,2.3,0.5
		c0.7,0.3,1.2,0.7,1.6,1.3c0.4,0.5,0.8,1.2,1,1.9c0.2,0.7,0.3,1.5,0.3,2.4c0,0.3,0,0.7,0,1c0,0.3-0.1,0.5-0.1,0.7h-7.4
		c0.2,0.9,0.5,1.6,1.1,2s1.3,0.6,2.1,0.6c0.9,0,1.8-0.3,2.7-0.8l1.2,2.2c-0.6,0.4-1.3,0.8-2.1,1S389.7,483.4,388.9,483.4z
		 M386.2,475.5h4.5c0-0.7-0.2-1.3-0.5-1.7s-0.8-0.7-1.6-0.7c-0.6,0-1.1,0.2-1.5,0.6C386.6,474.1,386.3,474.7,386.2,475.5z"/>
	<path class="st1" d="M68.2,513.4c-0.6,0-1.2-0.1-1.6-0.3c-0.4-0.2-0.8-0.5-1-0.8c-0.3-0.4-0.4-0.8-0.6-1.3
		c-0.1-0.5-0.2-1.1-0.2-1.7v-13.7h3.7v13.8c0,0.4,0.1,0.7,0.2,0.8c0.1,0.2,0.3,0.2,0.4,0.2c0.1,0,0.2,0,0.2,0c0.1,0,0.1,0,0.2,0
		l0.5,2.7c-0.2,0.1-0.5,0.2-0.8,0.2C69,513.3,68.6,513.4,68.2,513.4z"/>
	<path class="st1" d="M77.5,513.4c-0.9,0-1.7-0.1-2.5-0.4c-0.8-0.3-1.4-0.7-2-1.3c-0.6-0.6-1-1.2-1.3-2c-0.3-0.8-0.5-1.7-0.5-2.8
		c0-1,0.2-1.9,0.5-2.7s0.8-1.5,1.3-2.1c0.5-0.6,1.2-1,1.9-1.3c0.7-0.3,1.4-0.5,2.2-0.5c0.9,0,1.7,0.2,2.3,0.5
		c0.7,0.3,1.2,0.7,1.6,1.3c0.4,0.5,0.8,1.2,1,1.9c0.2,0.7,0.3,1.5,0.3,2.4c0,0.3,0,0.7,0,1c0,0.3-0.1,0.5-0.1,0.7h-7.4
		c0.2,0.9,0.5,1.6,1.1,2s1.3,0.6,2.1,0.6c0.9,0,1.8-0.3,2.7-0.8l1.2,2.2c-0.6,0.4-1.3,0.8-2.1,1S78.3,513.4,77.5,513.4z M74.8,505.5
		h4.5c0-0.7-0.2-1.3-0.5-1.7s-0.8-0.7-1.6-0.7c-0.6,0-1.1,0.2-1.5,0.6C75.2,504.1,74.9,504.7,74.8,505.5z"/>
	<path class="st1" d="M87.8,513.4c-0.6,0-1.1-0.1-1.5-0.3s-0.8-0.5-1.2-0.8s-0.6-0.7-0.7-1.2c-0.2-0.5-0.3-0.9-0.3-1.5
		c0-1.3,0.6-2.3,1.7-3c1.1-0.7,2.9-1.2,5.3-1.5c0-0.6-0.2-1-0.5-1.3c-0.3-0.3-0.8-0.5-1.5-0.5c-0.5,0-1.1,0.1-1.6,0.3
		c-0.5,0.2-1.1,0.5-1.7,0.8l-1.3-2.4c0.8-0.5,1.6-0.9,2.5-1.2s1.8-0.5,2.8-0.5c1.6,0,2.8,0.5,3.7,1.4c0.8,0.9,1.3,2.3,1.3,4.2v7.1
		h-3l-0.3-1.3h-0.1c-0.5,0.5-1.1,0.8-1.7,1.1C89.1,513.2,88.5,513.4,87.8,513.4z M89,510.5c0.4,0,0.8-0.1,1.1-0.3
		c0.3-0.2,0.6-0.4,0.9-0.8v-2.2c-1.3,0.2-2.2,0.5-2.7,0.8c-0.5,0.3-0.8,0.8-0.8,1.3c0,0.4,0.1,0.7,0.4,0.9
		C88.3,510.4,88.6,510.5,89,510.5z"/>
	<path class="st1" d="M97.8,513.1v-12.4h3l0.3,2.2h0.1c0.4-0.9,1-1.5,1.6-1.9c0.6-0.4,1.3-0.6,1.9-0.6c0.4,0,0.6,0,0.9,0.1
		c0.2,0,0.4,0.1,0.6,0.2l-0.6,3.2c-0.2-0.1-0.5-0.1-0.6-0.1c-0.2,0-0.4,0-0.7,0c-0.5,0-1,0.2-1.5,0.5c-0.5,0.3-0.9,0.9-1.3,1.8v7.2
		H97.8z"/>
	<path class="st1" d="M107.8,513.1v-12.4h3l0.3,1.6h0.1c0.5-0.5,1.1-0.9,1.8-1.3c0.6-0.4,1.4-0.6,2.2-0.6c1.3,0,2.3,0.4,2.9,1.3
		c0.6,0.9,0.9,2.1,0.9,3.7v7.7h-3.7v-7.2c0-0.9-0.1-1.5-0.4-1.9c-0.2-0.3-0.6-0.5-1.2-0.5c-0.5,0-0.9,0.1-1.2,0.3
		c-0.3,0.2-0.7,0.5-1.1,0.9v8.4H107.8z"/>
	<path class="st1" d="M123.9,498.8c-0.6,0-1.1-0.2-1.5-0.5c-0.4-0.4-0.6-0.8-0.6-1.4c0-0.6,0.2-1,0.6-1.4c0.4-0.3,0.9-0.5,1.5-0.5
		c0.6,0,1.1,0.2,1.5,0.5c0.4,0.4,0.6,0.8,0.6,1.4c0,0.6-0.2,1-0.6,1.4S124.5,498.8,123.9,498.8z M122.1,513.1v-12.4h3.7v12.4H122.1z
		"/>
	<path class="st1" d="M129,513.1v-12.4h3l0.3,1.6h0.1c0.5-0.5,1.1-0.9,1.8-1.3c0.6-0.4,1.4-0.6,2.2-0.6c1.3,0,2.3,0.4,2.9,1.3
		c0.6,0.9,0.9,2.1,0.9,3.7v7.7h-3.7v-7.2c0-0.9-0.1-1.5-0.4-1.9c-0.2-0.3-0.6-0.5-1.2-0.5c-0.5,0-0.9,0.1-1.2,0.3
		c-0.3,0.2-0.7,0.5-1.1,0.9v8.4H129z"/>
	<path class="st1" d="M147.7,518.3c-0.7,0-1.4-0.1-2-0.2s-1.2-0.3-1.7-0.6c-0.5-0.3-0.8-0.6-1.1-1c-0.3-0.4-0.4-0.9-0.4-1.4
		c0-1,0.6-1.8,1.8-2.5v-0.1c-0.3-0.2-0.6-0.5-0.8-0.8s-0.3-0.8-0.3-1.3c0-0.5,0.1-0.9,0.4-1.3s0.6-0.8,1-1v-0.1
		c-0.4-0.3-0.8-0.7-1.2-1.3c-0.3-0.6-0.5-1.2-0.5-1.9c0-0.8,0.1-1.4,0.4-2c0.3-0.6,0.7-1,1.1-1.4c0.5-0.4,1-0.7,1.6-0.8
		s1.3-0.3,1.9-0.3c0.7,0,1.4,0.1,1.9,0.3h4.5v2.7h-2c0.1,0.2,0.2,0.4,0.3,0.7c0.1,0.3,0.1,0.6,0.1,0.9c0,0.7-0.1,1.3-0.4,1.9
		c-0.3,0.5-0.6,1-1,1.3c-0.4,0.3-1,0.6-1.6,0.8s-1.2,0.3-1.9,0.3c-0.5,0-1-0.1-1.5-0.3c-0.2,0.1-0.3,0.3-0.4,0.4
		c-0.1,0.1-0.1,0.3-0.1,0.5c0,0.3,0.1,0.5,0.4,0.7c0.3,0.1,0.8,0.2,1.5,0.2h2c1.5,0,2.7,0.2,3.5,0.7c0.8,0.5,1.2,1.3,1.2,2.4
		c0,0.6-0.2,1.2-0.5,1.8c-0.3,0.5-0.8,1-1.4,1.4s-1.3,0.7-2.2,0.9C149.7,518.2,148.8,518.3,147.7,518.3z M148.3,516
		c0.8,0,1.5-0.1,2-0.4c0.5-0.3,0.8-0.7,0.8-1.1c0-0.4-0.2-0.6-0.5-0.8c-0.3-0.1-0.8-0.2-1.4-0.2H148c-0.4,0-0.8,0-1,0
		s-0.5-0.1-0.7-0.1c-0.4,0.4-0.7,0.8-0.7,1.2c0,0.5,0.3,0.8,0.8,1.1S147.4,516,148.3,516z M148,506.9c0.5,0,0.9-0.2,1.2-0.5
		c0.3-0.3,0.5-0.9,0.5-1.6c0-0.7-0.2-1.1-0.5-1.5c-0.3-0.3-0.7-0.5-1.2-0.5c-0.5,0-0.9,0.2-1.2,0.5c-0.3,0.3-0.5,0.8-0.5,1.5
		c0,0.7,0.2,1.2,0.5,1.6C147.1,506.7,147.5,506.9,148,506.9z"/>
	<path class="st1" d="M161.6,513.1v-17.5h3.7v4.3l-0.2,2.2c0.5-0.4,1-0.8,1.6-1.2c0.6-0.4,1.4-0.5,2.2-0.5c1.3,0,2.3,0.4,2.9,1.3
		c0.6,0.9,0.9,2.1,0.9,3.7v7.7h-3.7v-7.2c0-0.9-0.1-1.5-0.4-1.9c-0.2-0.3-0.6-0.5-1.2-0.5c-0.5,0-0.9,0.1-1.2,0.3
		c-0.3,0.2-0.7,0.5-1.1,0.9v8.4H161.6z"/>
	<path class="st1" d="M179.6,513.4c-1.4,0-2.3-0.4-2.9-1.3c-0.6-0.9-0.9-2.1-0.9-3.7v-7.7h3.7v7.2c0,0.9,0.1,1.5,0.4,1.8
		c0.3,0.3,0.6,0.5,1.2,0.5c0.5,0,0.9-0.1,1.2-0.3c0.3-0.2,0.7-0.6,1-1v-8.2h3.7v12.4h-3l-0.3-1.7h-0.1c-0.5,0.6-1.1,1.1-1.7,1.5
		C181.2,513.2,180.5,513.4,179.6,513.4z"/>
	<path class="st1" d="M196.6,513.4c-0.5,0-1.1-0.1-1.7-0.4c-0.6-0.3-1.1-0.7-1.6-1.2h-0.1l-0.3,1.3h-2.9v-17.5h3.7v4.3l-0.1,1.9
		c0.5-0.4,1-0.8,1.6-1c0.6-0.2,1.1-0.4,1.7-0.4c0.8,0,1.4,0.2,2,0.5s1.1,0.7,1.5,1.3c0.4,0.5,0.8,1.2,1,2c0.2,0.8,0.3,1.6,0.3,2.6
		c0,1.1-0.1,2-0.4,2.8c-0.3,0.8-0.7,1.5-1.2,2.1c-0.5,0.6-1,1-1.7,1.3C197.9,513.2,197.3,513.4,196.6,513.4z M195.8,510.4
		c0.6,0,1.2-0.3,1.6-0.9c0.5-0.6,0.7-1.5,0.7-2.8c0-2.2-0.7-3.4-2.2-3.4c-0.7,0-1.4,0.4-2.1,1.1v5.1c0.3,0.3,0.7,0.5,1,0.6
		C195.1,510.3,195.4,510.4,195.8,510.4z"/>
	<path class="st1" d="M210.1,513.1v-9.5h-1.6v-2.7l1.6-0.1V500c0-0.7,0.1-1.3,0.2-1.9c0.2-0.6,0.4-1.1,0.8-1.5s0.8-0.8,1.4-1
		c0.6-0.3,1.3-0.4,2.1-0.4c0.5,0,1,0,1.4,0.2c0.4,0.1,0.8,0.2,1.1,0.3l-0.7,2.7c-0.5-0.2-0.9-0.3-1.3-0.3c-0.5,0-0.8,0.1-1.1,0.4
		c-0.3,0.3-0.4,0.7-0.4,1.4v0.8h2.2v2.9h-2.2v9.5H210.1z"/>
	<path class="st1" d="M223,513.4c-0.8,0-1.5-0.1-2.3-0.4c-0.7-0.3-1.4-0.7-1.9-1.3c-0.6-0.5-1-1.2-1.3-2s-0.5-1.7-0.5-2.8
		c0-1,0.2-2,0.5-2.8c0.3-0.8,0.8-1.5,1.3-2s1.2-1,1.9-1.3c0.7-0.3,1.5-0.4,2.3-0.4c0.8,0,1.5,0.1,2.3,0.4c0.7,0.3,1.4,0.7,1.9,1.3
		c0.6,0.5,1,1.2,1.3,2c0.3,0.8,0.5,1.7,0.5,2.8c0,1-0.2,2-0.5,2.8c-0.3,0.8-0.8,1.5-1.3,2c-0.6,0.6-1.2,1-1.9,1.3
		C224.6,513.2,223.8,513.4,223,513.4z M223,510.4c0.8,0,1.3-0.3,1.7-1c0.4-0.6,0.6-1.5,0.6-2.6c0-1.1-0.2-1.9-0.6-2.6
		c-0.4-0.6-0.9-0.9-1.7-0.9c-0.8,0-1.3,0.3-1.7,0.9c-0.4,0.6-0.6,1.5-0.6,2.6c0,1.1,0.2,1.9,0.6,2.6
		C221.7,510.1,222.3,510.4,223,510.4z"/>
	<path class="st1" d="M231.6,513.1v-12.4h3l0.3,2.2h0.1c0.4-0.9,1-1.5,1.6-1.9c0.6-0.4,1.3-0.6,1.9-0.6c0.4,0,0.6,0,0.9,0.1
		c0.2,0,0.4,0.1,0.6,0.2l-0.6,3.2c-0.2-0.1-0.5-0.1-0.6-0.1c-0.2,0-0.4,0-0.7,0c-0.5,0-1,0.2-1.5,0.5c-0.5,0.3-0.9,0.9-1.3,1.8v7.2
		H231.6z"/>
	<path class="st1" d="M249.7,513.4c-0.6,0-1.1-0.1-1.5-0.3s-0.8-0.5-1.2-0.8s-0.6-0.7-0.7-1.2c-0.2-0.5-0.3-0.9-0.3-1.5
		c0-1.3,0.6-2.3,1.7-3c1.1-0.7,2.9-1.2,5.3-1.5c0-0.6-0.2-1-0.5-1.3c-0.3-0.3-0.8-0.5-1.5-0.5c-0.5,0-1.1,0.1-1.6,0.3
		c-0.5,0.2-1.1,0.5-1.7,0.8l-1.3-2.4c0.8-0.5,1.6-0.9,2.5-1.2s1.8-0.5,2.8-0.5c1.6,0,2.8,0.5,3.7,1.4c0.8,0.9,1.3,2.3,1.3,4.2v7.1
		h-3l-0.3-1.3h-0.1c-0.5,0.5-1.1,0.8-1.7,1.1C251,513.2,250.4,513.4,249.7,513.4z M250.9,510.5c0.4,0,0.8-0.1,1.1-0.3
		c0.3-0.2,0.6-0.4,0.9-0.8v-2.2c-1.3,0.2-2.2,0.5-2.7,0.8c-0.5,0.3-0.8,0.8-0.8,1.3c0,0.4,0.1,0.7,0.4,0.9
		C250.1,510.4,250.5,510.5,250.9,510.5z"/>
	<path class="st1" d="M263.1,513.4c-0.6,0-1.2-0.1-1.6-0.3c-0.4-0.2-0.8-0.5-1-0.8c-0.3-0.4-0.4-0.8-0.6-1.3
		c-0.1-0.5-0.2-1.1-0.2-1.7v-13.7h3.7v13.8c0,0.4,0.1,0.7,0.2,0.8c0.1,0.2,0.3,0.2,0.4,0.2c0.1,0,0.2,0,0.2,0c0.1,0,0.1,0,0.2,0
		l0.5,2.7c-0.2,0.1-0.5,0.2-0.8,0.2C263.9,513.3,263.5,513.4,263.1,513.4z"/>
	<path class="st1" d="M270.2,513.4c-0.6,0-1.2-0.1-1.6-0.3c-0.4-0.2-0.8-0.5-1-0.8c-0.3-0.4-0.4-0.8-0.6-1.3
		c-0.1-0.5-0.2-1.1-0.2-1.7v-13.7h3.7v13.8c0,0.4,0.1,0.7,0.2,0.8c0.1,0.2,0.3,0.2,0.4,0.2c0.1,0,0.2,0,0.2,0c0.1,0,0.1,0,0.2,0
		l0.5,2.7c-0.2,0.1-0.5,0.2-0.8,0.2C271,513.3,270.6,513.4,270.2,513.4z"/>
	<path class="st1" d="M283.8,513.4c-0.8,0-1.4-0.1-2-0.3c-0.5-0.2-1-0.6-1.3-1c-0.3-0.4-0.6-0.9-0.8-1.5s-0.2-1.2-0.2-2v-5h-1.7
		v-2.7l1.9-0.2l0.4-3.3h3v3.3h3v2.9h-3v5c0,0.7,0.1,1.2,0.4,1.5s0.7,0.5,1.2,0.5c0.2,0,0.4,0,0.6-0.1c0.2,0,0.4-0.1,0.6-0.2l0.6,2.7
		c-0.3,0.1-0.7,0.2-1.2,0.3C284.9,513.3,284.4,513.4,283.8,513.4z"/>
	<path class="st1" d="M288.6,513.1v-17.5h3.7v4.3l-0.2,2.2c0.5-0.4,1-0.8,1.6-1.2c0.6-0.4,1.4-0.5,2.2-0.5c1.3,0,2.3,0.4,2.9,1.3
		c0.6,0.9,0.9,2.1,0.9,3.7v7.7h-3.7v-7.2c0-0.9-0.1-1.5-0.4-1.9c-0.2-0.3-0.6-0.5-1.2-0.5c-0.5,0-0.9,0.1-1.2,0.3
		c-0.3,0.2-0.7,0.5-1.1,0.9v8.4H288.6z"/>
	<path class="st1" d="M304.7,498.8c-0.6,0-1.1-0.2-1.5-0.5c-0.4-0.4-0.6-0.8-0.6-1.4c0-0.6,0.2-1,0.6-1.4c0.4-0.3,0.9-0.5,1.5-0.5
		c0.6,0,1.1,0.2,1.5,0.5c0.4,0.4,0.6,0.8,0.6,1.4c0,0.6-0.2,1-0.6,1.4S305.3,498.8,304.7,498.8z M302.9,513.1v-12.4h3.7v12.4H302.9z
		"/>
	<path class="st1" d="M309.8,513.1v-12.4h3l0.3,1.6h0.1c0.5-0.5,1.1-0.9,1.8-1.3c0.6-0.4,1.4-0.6,2.2-0.6c1.3,0,2.3,0.4,2.9,1.3
		c0.6,0.9,0.9,2.1,0.9,3.7v7.7h-3.7v-7.2c0-0.9-0.1-1.5-0.4-1.9c-0.2-0.3-0.6-0.5-1.2-0.5c-0.5,0-0.9,0.1-1.2,0.3
		c-0.3,0.2-0.7,0.5-1.1,0.9v8.4H309.8z"/>
	<path class="st1" d="M328.5,518.3c-0.7,0-1.4-0.1-2-0.2s-1.2-0.3-1.7-0.6c-0.5-0.3-0.8-0.6-1.1-1c-0.3-0.4-0.4-0.9-0.4-1.4
		c0-1,0.6-1.8,1.8-2.5v-0.1c-0.3-0.2-0.6-0.5-0.8-0.8s-0.3-0.8-0.3-1.3c0-0.5,0.1-0.9,0.4-1.3s0.6-0.8,1-1v-0.1
		c-0.4-0.3-0.8-0.7-1.2-1.3c-0.3-0.6-0.5-1.2-0.5-1.9c0-0.8,0.1-1.4,0.4-2c0.3-0.6,0.7-1,1.1-1.4c0.5-0.4,1-0.7,1.6-0.8
		s1.3-0.3,1.9-0.3c0.7,0,1.4,0.1,1.9,0.3h4.5v2.7h-2c0.1,0.2,0.2,0.4,0.3,0.7c0.1,0.3,0.1,0.6,0.1,0.9c0,0.7-0.1,1.3-0.4,1.9
		c-0.3,0.5-0.6,1-1,1.3c-0.4,0.3-1,0.6-1.6,0.8s-1.2,0.3-1.9,0.3c-0.5,0-1-0.1-1.5-0.3c-0.2,0.1-0.3,0.3-0.4,0.4
		c-0.1,0.1-0.1,0.3-0.1,0.5c0,0.3,0.1,0.5,0.4,0.7c0.3,0.1,0.8,0.2,1.5,0.2h2c1.5,0,2.7,0.2,3.5,0.7c0.8,0.5,1.2,1.3,1.2,2.4
		c0,0.6-0.2,1.2-0.5,1.8c-0.3,0.5-0.8,1-1.4,1.4s-1.3,0.7-2.2,0.9C330.5,518.2,329.5,518.3,328.5,518.3z M329.1,516
		c0.8,0,1.5-0.1,2-0.4c0.5-0.3,0.8-0.7,0.8-1.1c0-0.4-0.2-0.6-0.5-0.8c-0.3-0.1-0.8-0.2-1.4-0.2h-1.3c-0.4,0-0.8,0-1,0
		s-0.5-0.1-0.7-0.1c-0.4,0.4-0.7,0.8-0.7,1.2c0,0.5,0.3,0.8,0.8,1.1S328.2,516,329.1,516z M328.8,506.9c0.5,0,0.9-0.2,1.2-0.5
		c0.3-0.3,0.5-0.9,0.5-1.6c0-0.7-0.2-1.1-0.5-1.5c-0.3-0.3-0.7-0.5-1.2-0.5c-0.5,0-0.9,0.2-1.2,0.5c-0.3,0.3-0.5,0.8-0.5,1.5
		c0,0.7,0.2,1.2,0.5,1.6C327.9,506.7,328.3,506.9,328.8,506.9z"/>
	<path class="st1" d="M341.1,513.4c-0.8,0-1.7-0.2-2.5-0.5c-0.9-0.3-1.6-0.7-2.2-1.3l1.6-2.3c0.6,0.4,1.1,0.8,1.6,1s1,0.3,1.6,0.3
		c0.5,0,1-0.1,1.2-0.3c0.3-0.2,0.4-0.4,0.4-0.8c0-0.2-0.1-0.4-0.2-0.5c-0.1-0.2-0.3-0.3-0.6-0.4c-0.2-0.1-0.5-0.3-0.8-0.4
		c-0.3-0.1-0.6-0.2-0.9-0.4c-0.4-0.2-0.8-0.3-1.1-0.5s-0.7-0.4-1-0.7c-0.3-0.3-0.6-0.6-0.8-1c-0.2-0.4-0.3-0.8-0.3-1.4
		c0-0.6,0.1-1.1,0.3-1.6c0.2-0.5,0.5-0.9,1-1.2c0.4-0.3,0.9-0.6,1.5-0.8c0.6-0.2,1.2-0.3,1.9-0.3c1,0,1.8,0.2,2.5,0.5
		c0.7,0.3,1.3,0.7,1.9,1.1l-1.6,2.2c-0.5-0.3-0.9-0.6-1.3-0.8c-0.4-0.2-0.9-0.3-1.3-0.3c-0.9,0-1.4,0.3-1.4,1c0,0.2,0.1,0.4,0.2,0.5
		s0.3,0.3,0.5,0.4c0.2,0.1,0.5,0.2,0.8,0.3s0.6,0.2,0.9,0.3c0.4,0.1,0.8,0.3,1.2,0.5s0.8,0.4,1.1,0.7c0.3,0.3,0.6,0.6,0.8,1
		c0.2,0.4,0.3,0.9,0.3,1.5c0,0.6-0.1,1.1-0.3,1.6s-0.5,0.9-1,1.3c-0.4,0.4-1,0.6-1.6,0.8C342.6,513.3,341.9,513.4,341.1,513.4z"/>
	<path class="st1" d="M358.9,513.4c-0.9,0-1.7-0.1-2.4-0.4c-0.7-0.3-1.4-0.7-1.9-1.3c-0.5-0.5-1-1.2-1.3-2c-0.3-0.8-0.5-1.7-0.5-2.8
		c0-1,0.2-2,0.5-2.8c0.4-0.8,0.8-1.5,1.4-2c0.6-0.5,1.3-1,2.1-1.3c0.8-0.3,1.6-0.4,2.5-0.4c0.8,0,1.4,0.1,2,0.4
		c0.6,0.3,1.1,0.6,1.6,1l-1.7,2.4c-0.6-0.5-1.1-0.7-1.7-0.7c-0.9,0-1.6,0.3-2.1,0.9c-0.5,0.6-0.8,1.5-0.8,2.6c0,1.1,0.3,1.9,0.8,2.6
		c0.5,0.6,1.2,1,2,1c0.4,0,0.8-0.1,1.2-0.3s0.7-0.4,1.1-0.6l1.5,2.4c-0.6,0.5-1.3,0.9-2,1.1C360.3,513.2,359.6,513.4,358.9,513.4z"
		/>
	<path class="st1" d="M368.9,513.4c-1.4,0-2.3-0.4-2.9-1.3c-0.6-0.9-0.9-2.1-0.9-3.7v-7.7h3.7v7.2c0,0.9,0.1,1.5,0.4,1.8
		c0.3,0.3,0.6,0.5,1.2,0.5c0.5,0,0.9-0.1,1.2-0.3c0.3-0.2,0.7-0.6,1-1v-8.2h3.7v12.4h-3l-0.3-1.7h-0.1c-0.5,0.6-1.1,1.1-1.7,1.5
		C370.5,513.2,369.7,513.4,368.9,513.4z"/>
	<path class="st1" d="M383,513.4c-0.8,0-1.7-0.2-2.5-0.5c-0.9-0.3-1.6-0.7-2.2-1.3l1.6-2.3c0.6,0.4,1.1,0.8,1.6,1s1,0.3,1.6,0.3
		c0.5,0,1-0.1,1.2-0.3c0.3-0.2,0.4-0.4,0.4-0.8c0-0.2-0.1-0.4-0.2-0.5c-0.1-0.2-0.3-0.3-0.6-0.4c-0.2-0.1-0.5-0.3-0.8-0.4
		c-0.3-0.1-0.6-0.2-0.9-0.4c-0.4-0.2-0.8-0.3-1.1-0.5s-0.7-0.4-1-0.7c-0.3-0.3-0.6-0.6-0.8-1c-0.2-0.4-0.3-0.8-0.3-1.4
		c0-0.6,0.1-1.1,0.3-1.6c0.2-0.5,0.5-0.9,1-1.2c0.4-0.3,0.9-0.6,1.5-0.8c0.6-0.2,1.2-0.3,1.9-0.3c1,0,1.8,0.2,2.5,0.5
		c0.7,0.3,1.3,0.7,1.9,1.1l-1.6,2.2c-0.5-0.3-0.9-0.6-1.3-0.8c-0.4-0.2-0.9-0.3-1.3-0.3c-0.9,0-1.4,0.3-1.4,1c0,0.2,0.1,0.4,0.2,0.5
		s0.3,0.3,0.5,0.4c0.2,0.1,0.5,0.2,0.8,0.3s0.6,0.2,0.9,0.3c0.4,0.1,0.8,0.3,1.2,0.5s0.8,0.4,1.1,0.7c0.3,0.3,0.6,0.6,0.8,1
		c0.2,0.4,0.3,0.9,0.3,1.5c0,0.6-0.1,1.1-0.3,1.6s-0.5,0.9-1,1.3c-0.4,0.4-1,0.6-1.6,0.8C384.6,513.3,383.8,513.4,383,513.4z"/>
	<path class="st1" d="M394.7,513.4c-0.8,0-1.4-0.1-2-0.3c-0.5-0.2-1-0.6-1.3-1c-0.3-0.4-0.6-0.9-0.8-1.5s-0.2-1.2-0.2-2v-5h-1.7
		v-2.7l1.9-0.2l0.4-3.3h3v3.3h3v2.9h-3v5c0,0.7,0.1,1.2,0.4,1.5s0.7,0.5,1.2,0.5c0.2,0,0.4,0,0.6-0.1c0.2,0,0.4-0.1,0.6-0.2l0.6,2.7
		c-0.3,0.1-0.7,0.2-1.2,0.3C395.8,513.3,395.3,513.4,394.7,513.4z"/>
	<path class="st1" d="M404.4,513.4c-0.8,0-1.5-0.1-2.3-0.4c-0.7-0.3-1.4-0.7-1.9-1.3c-0.6-0.5-1-1.2-1.3-2s-0.5-1.7-0.5-2.8
		c0-1,0.2-2,0.5-2.8c0.3-0.8,0.8-1.5,1.3-2s1.2-1,1.9-1.3c0.7-0.3,1.5-0.4,2.3-0.4c0.8,0,1.5,0.1,2.3,0.4c0.7,0.3,1.4,0.7,1.9,1.3
		c0.6,0.5,1,1.2,1.3,2c0.3,0.8,0.5,1.7,0.5,2.8c0,1-0.2,2-0.5,2.8c-0.3,0.8-0.8,1.5-1.3,2c-0.6,0.6-1.2,1-1.9,1.3
		C405.9,513.2,405.2,513.4,404.4,513.4z M404.4,510.4c0.8,0,1.3-0.3,1.7-1c0.4-0.6,0.6-1.5,0.6-2.6c0-1.1-0.2-1.9-0.6-2.6
		c-0.4-0.6-0.9-0.9-1.7-0.9c-0.8,0-1.3,0.3-1.7,0.9c-0.4,0.6-0.6,1.5-0.6,2.6c0,1.1,0.2,1.9,0.6,2.6
		C403,510.1,403.6,510.4,404.4,510.4z"/>
	<path class="st1" d="M412.9,513.1v-12.4h3l0.3,1.6h0.1c0.5-0.5,1.1-1,1.6-1.3c0.6-0.4,1.3-0.6,2.1-0.6c0.9,0,1.6,0.2,2.1,0.5
		s1,0.9,1.3,1.5c0.6-0.6,1.1-1.1,1.7-1.5c0.6-0.4,1.3-0.6,2.2-0.6c1.3,0,2.3,0.4,2.9,1.3s0.9,2.1,0.9,3.7v7.7h-3.7v-7.2
		c0-0.9-0.1-1.5-0.4-1.9c-0.2-0.3-0.6-0.5-1.2-0.5c-0.6,0-1.3,0.4-2.1,1.2v8.4h-3.7v-7.2c0-0.9-0.1-1.5-0.4-1.9
		c-0.2-0.3-0.6-0.5-1.2-0.5c-0.6,0-1.3,0.4-2.1,1.2v8.4H412.9z"/>
	<path class="st1" d="M439.9,513.4c-0.9,0-1.7-0.1-2.5-0.4c-0.8-0.3-1.4-0.7-2-1.3c-0.6-0.6-1-1.2-1.3-2c-0.3-0.8-0.5-1.7-0.5-2.8
		c0-1,0.2-1.9,0.5-2.7s0.8-1.5,1.3-2.1c0.5-0.6,1.2-1,1.9-1.3c0.7-0.3,1.4-0.5,2.2-0.5c0.9,0,1.7,0.2,2.3,0.5
		c0.7,0.3,1.2,0.7,1.6,1.3c0.4,0.5,0.8,1.2,1,1.9c0.2,0.7,0.3,1.5,0.3,2.4c0,0.3,0,0.7,0,1c0,0.3-0.1,0.5-0.1,0.7h-7.4
		c0.2,0.9,0.5,1.6,1.1,2s1.3,0.6,2.1,0.6c0.9,0,1.8-0.3,2.7-0.8l1.2,2.2c-0.6,0.4-1.3,0.8-2.1,1S440.6,513.4,439.9,513.4z
		 M437.1,505.5h4.5c0-0.7-0.2-1.3-0.5-1.7s-0.8-0.7-1.6-0.7c-0.6,0-1.1,0.2-1.5,0.6C437.6,504.1,437.3,504.7,437.1,505.5z"/>
	<path class="st1" d="M447.3,513.1v-12.4h3l0.3,2.2h0.1c0.4-0.9,1-1.5,1.6-1.9c0.6-0.4,1.3-0.6,1.9-0.6c0.4,0,0.6,0,0.9,0.1
		c0.2,0,0.4,0.1,0.6,0.2l-0.6,3.2c-0.2-0.1-0.5-0.1-0.6-0.1c-0.2,0-0.4,0-0.7,0c-0.5,0-1,0.2-1.5,0.5c-0.5,0.3-0.9,0.9-1.3,1.8v7.2
		H447.3z"/>
	<path class="st1" d="M70.4,543.4c-0.9,0-1.7-0.1-2.5-0.4c-0.8-0.3-1.4-0.7-2-1.3c-0.6-0.6-1-1.2-1.3-2c-0.3-0.8-0.5-1.7-0.5-2.8
		c0-1,0.2-1.9,0.5-2.7s0.8-1.5,1.3-2.1c0.5-0.6,1.2-1,1.9-1.3c0.7-0.3,1.4-0.5,2.2-0.5c0.9,0,1.7,0.2,2.3,0.5
		c0.7,0.3,1.2,0.7,1.6,1.3c0.4,0.5,0.8,1.2,1,1.9c0.2,0.7,0.3,1.5,0.3,2.4c0,0.3,0,0.7,0,1c0,0.3-0.1,0.5-0.1,0.7h-7.4
		c0.2,0.9,0.5,1.6,1.1,2s1.3,0.6,2.1,0.6c0.9,0,1.8-0.3,2.7-0.8l1.2,2.2c-0.6,0.4-1.3,0.8-2.1,1S71.1,543.4,70.4,543.4z M67.6,535.5
		h4.5c0-0.7-0.2-1.3-0.5-1.7s-0.8-0.7-1.6-0.7c-0.6,0-1.1,0.2-1.5,0.6C68.1,534.1,67.8,534.7,67.6,535.5z"/>
	<path class="st1" d="M76.1,543.1l3.8-6.5l-3.6-6h3.9l1.1,2c0.2,0.4,0.3,0.7,0.5,1.1c0.2,0.4,0.4,0.7,0.5,1.1h0.1
		c0.1-0.3,0.3-0.7,0.4-1.1c0.1-0.4,0.3-0.7,0.4-1.1l0.9-2H88l-3.6,6.4l3.8,6h-4l-1.2-2c-0.2-0.4-0.4-0.7-0.6-1.1
		c-0.2-0.4-0.4-0.7-0.6-1.1h-0.1c-0.2,0.4-0.3,0.7-0.5,1.1c-0.2,0.4-0.3,0.7-0.5,1.1l-1,2H76.1z"/>
	<path class="st1" d="M90.2,547.7v-17h3l0.3,1.2h0.1c0.5-0.4,1-0.8,1.6-1.1c0.6-0.3,1.2-0.4,1.9-0.4c0.8,0,1.4,0.2,2,0.5
		s1.1,0.7,1.5,1.3c0.4,0.5,0.7,1.2,1,2c0.2,0.8,0.3,1.6,0.3,2.6c0,1.1-0.1,2-0.4,2.8c-0.3,0.8-0.7,1.5-1.2,2.1c-0.5,0.6-1,1-1.7,1.3
		c-0.6,0.3-1.3,0.5-1.9,0.5c-0.5,0-1-0.1-1.5-0.3c-0.5-0.2-1-0.5-1.4-1l0.1,2v3.6H90.2z M95.9,540.4c0.6,0,1.2-0.3,1.6-0.9
		c0.5-0.6,0.7-1.5,0.7-2.8c0-2.2-0.7-3.4-2.2-3.4c-0.7,0-1.4,0.4-2.1,1.1v5.1c0.3,0.3,0.7,0.5,1,0.6
		C95.2,540.3,95.6,540.4,95.9,540.4z"/>
	<path class="st1" d="M110.1,543.4c-0.9,0-1.7-0.1-2.5-0.4c-0.8-0.3-1.4-0.7-2-1.3c-0.6-0.6-1-1.2-1.3-2c-0.3-0.8-0.5-1.7-0.5-2.8
		c0-1,0.2-1.9,0.5-2.7s0.8-1.5,1.3-2.1c0.5-0.6,1.2-1,1.9-1.3c0.7-0.3,1.4-0.5,2.2-0.5c0.9,0,1.7,0.2,2.3,0.5
		c0.7,0.3,1.2,0.7,1.6,1.3c0.4,0.5,0.8,1.2,1,1.9c0.2,0.7,0.3,1.5,0.3,2.4c0,0.3,0,0.7,0,1c0,0.3-0.1,0.5-0.1,0.7h-7.4
		c0.2,0.9,0.5,1.6,1.1,2s1.3,0.6,2.1,0.6c0.9,0,1.8-0.3,2.7-0.8l1.2,2.2c-0.6,0.4-1.3,0.8-2.1,1S110.9,543.4,110.1,543.4z
		 M107.4,535.5h4.5c0-0.7-0.2-1.3-0.5-1.7s-0.8-0.7-1.6-0.7c-0.6,0-1.1,0.2-1.5,0.6C107.8,534.1,107.5,534.7,107.4,535.5z"/>
	<path class="st1" d="M117.5,543.1v-12.4h3l0.3,2.2h0.1c0.4-0.9,1-1.5,1.6-1.9c0.6-0.4,1.3-0.6,1.9-0.6c0.4,0,0.6,0,0.9,0.1
		c0.2,0,0.4,0.1,0.6,0.2l-0.6,3.2c-0.2-0.1-0.5-0.1-0.6-0.1c-0.2,0-0.4,0-0.7,0c-0.5,0-1,0.2-1.5,0.5c-0.5,0.3-0.9,0.9-1.3,1.8v7.2
		H117.5z"/>
	<path class="st1" d="M129.3,528.8c-0.6,0-1.1-0.2-1.5-0.5c-0.4-0.4-0.6-0.8-0.6-1.4c0-0.6,0.2-1,0.6-1.4c0.4-0.3,0.9-0.5,1.5-0.5
		c0.6,0,1.1,0.2,1.5,0.5c0.4,0.4,0.6,0.8,0.6,1.4c0,0.6-0.2,1-0.6,1.4S129.9,528.8,129.3,528.8z M127.5,543.1v-12.4h3.7v12.4H127.5z
		"/>
	<path class="st1" d="M139.9,543.4c-0.9,0-1.7-0.1-2.5-0.4c-0.8-0.3-1.4-0.7-2-1.3c-0.6-0.6-1-1.2-1.3-2c-0.3-0.8-0.5-1.7-0.5-2.8
		c0-1,0.2-1.9,0.5-2.7s0.8-1.5,1.3-2.1c0.5-0.6,1.2-1,1.9-1.3c0.7-0.3,1.4-0.5,2.2-0.5c0.9,0,1.7,0.2,2.3,0.5
		c0.7,0.3,1.2,0.7,1.6,1.3c0.4,0.5,0.8,1.2,1,1.9c0.2,0.7,0.3,1.5,0.3,2.4c0,0.3,0,0.7,0,1c0,0.3-0.1,0.5-0.1,0.7h-7.4
		c0.2,0.9,0.5,1.6,1.1,2s1.3,0.6,2.1,0.6c0.9,0,1.8-0.3,2.7-0.8l1.2,2.2c-0.6,0.4-1.3,0.8-2.1,1S140.7,543.4,139.9,543.4z
		 M137.2,535.5h4.5c0-0.7-0.2-1.3-0.5-1.7s-0.8-0.7-1.6-0.7c-0.6,0-1.1,0.2-1.5,0.6C137.6,534.1,137.3,534.7,137.2,535.5z"/>
	<path class="st1" d="M147.3,543.1v-12.4h3l0.3,1.6h0.1c0.5-0.5,1.1-0.9,1.8-1.3c0.6-0.4,1.4-0.6,2.2-0.6c1.3,0,2.3,0.4,2.9,1.3
		c0.6,0.9,0.9,2.1,0.9,3.7v7.7h-3.7v-7.2c0-0.9-0.1-1.5-0.4-1.9c-0.2-0.3-0.6-0.5-1.2-0.5c-0.5,0-0.9,0.1-1.2,0.3
		c-0.3,0.2-0.7,0.5-1.1,0.9v8.4H147.3z"/>
	<path class="st1" d="M167,543.4c-0.9,0-1.7-0.1-2.4-0.4c-0.7-0.3-1.4-0.7-1.9-1.3c-0.5-0.5-1-1.2-1.3-2c-0.3-0.8-0.5-1.7-0.5-2.8
		c0-1,0.2-2,0.5-2.8c0.4-0.8,0.8-1.5,1.4-2c0.6-0.5,1.3-1,2.1-1.3c0.8-0.3,1.6-0.4,2.5-0.4c0.8,0,1.4,0.1,2,0.4
		c0.6,0.3,1.1,0.6,1.6,1l-1.7,2.4c-0.6-0.5-1.1-0.7-1.7-0.7c-0.9,0-1.6,0.3-2.1,0.9c-0.5,0.6-0.8,1.5-0.8,2.6c0,1.1,0.3,1.9,0.8,2.6
		c0.5,0.6,1.2,1,2,1c0.4,0,0.8-0.1,1.2-0.3s0.7-0.4,1.1-0.6l1.5,2.4c-0.6,0.5-1.3,0.9-2,1.1C168.4,543.2,167.7,543.4,167,543.4z"/>
	<path class="st1" d="M178.1,543.4c-0.9,0-1.7-0.1-2.5-0.4c-0.8-0.3-1.4-0.7-2-1.3c-0.6-0.6-1-1.2-1.3-2c-0.3-0.8-0.5-1.7-0.5-2.8
		c0-1,0.2-1.9,0.5-2.7s0.8-1.5,1.3-2.1c0.5-0.6,1.2-1,1.9-1.3c0.7-0.3,1.4-0.5,2.2-0.5c0.9,0,1.7,0.2,2.3,0.5
		c0.7,0.3,1.2,0.7,1.6,1.3c0.4,0.5,0.8,1.2,1,1.9c0.2,0.7,0.3,1.5,0.3,2.4c0,0.3,0,0.7,0,1c0,0.3-0.1,0.5-0.1,0.7h-7.4
		c0.2,0.9,0.5,1.6,1.1,2s1.3,0.6,2.1,0.6c0.9,0,1.8-0.3,2.7-0.8l1.2,2.2c-0.6,0.4-1.3,0.8-2.1,1S178.9,543.4,178.1,543.4z
		 M175.4,535.5h4.5c0-0.7-0.2-1.3-0.5-1.7s-0.8-0.7-1.6-0.7c-0.6,0-1.1,0.2-1.5,0.6C175.8,534.1,175.5,534.7,175.4,535.5z"/>
	<path class="st1" d="M185.8,547.9l-0.8-1.9c0.9-0.3,1.6-0.8,2.1-1.3s0.7-1.1,0.7-1.8h-0.2c-0.6,0-1.1-0.2-1.5-0.5
		c-0.5-0.4-0.7-0.9-0.7-1.5c0-0.6,0.2-1.1,0.7-1.5c0.4-0.4,1-0.6,1.6-0.6c0.8,0,1.5,0.3,1.9,0.9c0.4,0.6,0.6,1.5,0.6,2.6
		c0,1.4-0.4,2.6-1.1,3.6C188.4,546.8,187.3,547.5,185.8,547.9z"/>
	<path class="st1" d="M201.7,543.4c-0.8,0-1.7-0.2-2.5-0.5c-0.9-0.3-1.6-0.7-2.2-1.3l1.6-2.3c0.6,0.4,1.1,0.8,1.6,1s1,0.3,1.6,0.3
		c0.5,0,1-0.1,1.2-0.3c0.3-0.2,0.4-0.4,0.4-0.8c0-0.2-0.1-0.4-0.2-0.5c-0.1-0.2-0.3-0.3-0.6-0.4c-0.2-0.1-0.5-0.3-0.8-0.4
		c-0.3-0.1-0.6-0.2-0.9-0.4c-0.4-0.2-0.8-0.3-1.1-0.5s-0.7-0.4-1-0.7c-0.3-0.3-0.6-0.6-0.8-1c-0.2-0.4-0.3-0.8-0.3-1.4
		c0-0.6,0.1-1.1,0.3-1.6c0.2-0.5,0.5-0.9,1-1.2c0.4-0.3,0.9-0.6,1.5-0.8c0.6-0.2,1.2-0.3,1.9-0.3c1,0,1.8,0.2,2.5,0.5
		c0.7,0.3,1.3,0.7,1.9,1.1l-1.6,2.2c-0.5-0.3-0.9-0.6-1.3-0.8c-0.4-0.2-0.9-0.3-1.3-0.3c-0.9,0-1.4,0.3-1.4,1c0,0.2,0.1,0.4,0.2,0.5
		s0.3,0.3,0.5,0.4c0.2,0.1,0.5,0.2,0.8,0.3s0.6,0.2,0.9,0.3c0.4,0.1,0.8,0.3,1.2,0.5s0.8,0.4,1.1,0.7c0.3,0.3,0.6,0.6,0.8,1
		c0.2,0.4,0.3,0.9,0.3,1.5c0,0.6-0.1,1.1-0.3,1.6s-0.5,0.9-1,1.3c-0.4,0.4-1,0.6-1.6,0.8C203.2,543.3,202.5,543.4,201.7,543.4z"/>
	<path class="st1" d="M212.2,543.4c-0.6,0-1.1-0.1-1.5-0.3s-0.8-0.5-1.2-0.8s-0.6-0.7-0.7-1.2c-0.2-0.5-0.3-0.9-0.3-1.5
		c0-1.3,0.6-2.3,1.7-3c1.1-0.7,2.9-1.2,5.3-1.5c0-0.6-0.2-1-0.5-1.3c-0.3-0.3-0.8-0.5-1.5-0.5c-0.5,0-1.1,0.1-1.6,0.3
		c-0.5,0.2-1.1,0.5-1.7,0.8L209,532c0.8-0.5,1.6-0.9,2.5-1.2s1.8-0.5,2.8-0.5c1.6,0,2.8,0.5,3.7,1.4c0.8,0.9,1.3,2.3,1.3,4.2v7.1h-3
		l-0.3-1.3h-0.1c-0.5,0.5-1.1,0.8-1.7,1.1C213.6,543.2,212.9,543.4,212.2,543.4z M213.5,540.5c0.4,0,0.8-0.1,1.1-0.3
		c0.3-0.2,0.6-0.4,0.9-0.8v-2.2c-1.3,0.2-2.2,0.5-2.7,0.8c-0.5,0.3-0.8,0.8-0.8,1.3c0,0.4,0.1,0.7,0.4,0.9
		C212.7,540.4,213,540.5,213.5,540.5z"/>
	<path class="st1" d="M225.7,543.4c-0.6,0-1.2-0.1-1.6-0.3c-0.4-0.2-0.8-0.5-1-0.8c-0.3-0.4-0.4-0.8-0.6-1.3
		c-0.1-0.5-0.2-1.1-0.2-1.7v-13.7h3.7v13.8c0,0.4,0.1,0.7,0.2,0.8c0.1,0.2,0.3,0.2,0.4,0.2c0.1,0,0.2,0,0.2,0c0.1,0,0.1,0,0.2,0
		l0.5,2.7c-0.2,0.1-0.5,0.2-0.8,0.2C226.4,543.3,226.1,543.4,225.7,543.4z"/>
	<path class="st1" d="M235,543.4c-0.9,0-1.7-0.1-2.5-0.4c-0.8-0.3-1.4-0.7-2-1.3c-0.6-0.6-1-1.2-1.3-2c-0.3-0.8-0.5-1.7-0.5-2.8
		c0-1,0.2-1.9,0.5-2.7s0.8-1.5,1.3-2.1c0.5-0.6,1.2-1,1.9-1.3c0.7-0.3,1.4-0.5,2.2-0.5c0.9,0,1.7,0.2,2.3,0.5
		c0.7,0.3,1.2,0.7,1.6,1.3c0.4,0.5,0.8,1.2,1,1.9c0.2,0.7,0.3,1.5,0.3,2.4c0,0.3,0,0.7,0,1c0,0.3-0.1,0.5-0.1,0.7h-7.4
		c0.2,0.9,0.5,1.6,1.1,2s1.3,0.6,2.1,0.6c0.9,0,1.8-0.3,2.7-0.8l1.2,2.2c-0.6,0.4-1.3,0.8-2.1,1S235.7,543.4,235,543.4z
		 M232.2,535.5h4.5c0-0.7-0.2-1.3-0.5-1.7s-0.8-0.7-1.6-0.7c-0.6,0-1.1,0.2-1.5,0.6C232.6,534.1,232.4,534.7,232.2,535.5z"/>
	<path class="st1" d="M246,543.4c-0.8,0-1.7-0.2-2.5-0.5c-0.9-0.3-1.6-0.7-2.2-1.3l1.6-2.3c0.6,0.4,1.1,0.8,1.6,1s1,0.3,1.6,0.3
		c0.5,0,1-0.1,1.2-0.3c0.3-0.2,0.4-0.4,0.4-0.8c0-0.2-0.1-0.4-0.2-0.5c-0.1-0.2-0.3-0.3-0.6-0.4c-0.2-0.1-0.5-0.3-0.8-0.4
		c-0.3-0.1-0.6-0.2-0.9-0.4c-0.4-0.2-0.8-0.3-1.1-0.5s-0.7-0.4-1-0.7c-0.3-0.3-0.6-0.6-0.8-1c-0.2-0.4-0.3-0.8-0.3-1.4
		c0-0.6,0.1-1.1,0.3-1.6c0.2-0.5,0.5-0.9,1-1.2c0.4-0.3,0.9-0.6,1.5-0.8c0.6-0.2,1.2-0.3,1.9-0.3c1,0,1.8,0.2,2.5,0.5
		c0.7,0.3,1.3,0.7,1.9,1.1l-1.6,2.2c-0.5-0.3-0.9-0.6-1.3-0.8c-0.4-0.2-0.9-0.3-1.3-0.3c-0.9,0-1.4,0.3-1.4,1c0,0.2,0.1,0.4,0.2,0.5
		s0.3,0.3,0.5,0.4c0.2,0.1,0.5,0.2,0.8,0.3s0.6,0.2,0.9,0.3c0.4,0.1,0.8,0.3,1.2,0.5s0.8,0.4,1.1,0.7c0.3,0.3,0.6,0.6,0.8,1
		c0.2,0.4,0.3,0.9,0.3,1.5c0,0.6-0.1,1.1-0.3,1.6s-0.5,0.9-1,1.3c-0.4,0.4-1,0.6-1.6,0.8C247.6,543.3,246.9,543.4,246,543.4z"/>
	<path class="st1" d="M253.7,547.9L253,546c0.9-0.3,1.6-0.8,2.1-1.3s0.7-1.1,0.7-1.8h-0.2c-0.6,0-1.1-0.2-1.5-0.5
		c-0.5-0.4-0.7-0.9-0.7-1.5c0-0.6,0.2-1.1,0.7-1.5c0.4-0.4,1-0.6,1.6-0.6c0.8,0,1.5,0.3,1.9,0.9c0.4,0.6,0.6,1.5,0.6,2.6
		c0,1.4-0.4,2.6-1.1,3.6C256.3,546.8,255.2,547.5,253.7,547.9z"/>
	<path class="st1" d="M269.6,543.4c-0.8,0-1.7-0.2-2.5-0.5c-0.9-0.3-1.6-0.7-2.2-1.3l1.6-2.3c0.6,0.4,1.1,0.8,1.6,1s1,0.3,1.6,0.3
		c0.5,0,1-0.1,1.2-0.3c0.3-0.2,0.4-0.4,0.4-0.8c0-0.2-0.1-0.4-0.2-0.5c-0.1-0.2-0.3-0.3-0.6-0.4c-0.2-0.1-0.5-0.3-0.8-0.4
		c-0.3-0.1-0.6-0.2-0.9-0.4c-0.4-0.2-0.8-0.3-1.1-0.5s-0.7-0.4-1-0.7c-0.3-0.3-0.6-0.6-0.8-1c-0.2-0.4-0.3-0.8-0.3-1.4
		c0-0.6,0.1-1.1,0.3-1.6c0.2-0.5,0.5-0.9,1-1.2c0.4-0.3,0.9-0.6,1.5-0.8c0.6-0.2,1.2-0.3,1.9-0.3c1,0,1.8,0.2,2.5,0.5
		c0.7,0.3,1.3,0.7,1.9,1.1l-1.6,2.2c-0.5-0.3-0.9-0.6-1.3-0.8c-0.4-0.2-0.9-0.3-1.3-0.3c-0.9,0-1.4,0.3-1.4,1c0,0.2,0.1,0.4,0.2,0.5
		s0.3,0.3,0.5,0.4c0.2,0.1,0.5,0.2,0.8,0.3s0.6,0.2,0.9,0.3c0.4,0.1,0.8,0.3,1.2,0.5s0.8,0.4,1.1,0.7c0.3,0.3,0.6,0.6,0.8,1
		c0.2,0.4,0.3,0.9,0.3,1.5c0,0.6-0.1,1.1-0.3,1.6s-0.5,0.9-1,1.3c-0.4,0.4-1,0.6-1.6,0.8C271.2,543.3,270.4,543.4,269.6,543.4z"/>
	<path class="st1" d="M282.6,543.4c-0.9,0-1.7-0.1-2.5-0.4c-0.8-0.3-1.4-0.7-2-1.3c-0.6-0.6-1-1.2-1.3-2c-0.3-0.8-0.5-1.7-0.5-2.8
		c0-1,0.2-1.9,0.5-2.7s0.8-1.5,1.3-2.1c0.5-0.6,1.2-1,1.9-1.3c0.7-0.3,1.4-0.5,2.2-0.5c0.9,0,1.7,0.2,2.3,0.5
		c0.7,0.3,1.2,0.7,1.6,1.3c0.4,0.5,0.8,1.2,1,1.9c0.2,0.7,0.3,1.5,0.3,2.4c0,0.3,0,0.7,0,1c0,0.3-0.1,0.5-0.1,0.7h-7.4
		c0.2,0.9,0.5,1.6,1.1,2s1.3,0.6,2.1,0.6c0.9,0,1.8-0.3,2.7-0.8l1.2,2.2c-0.6,0.4-1.3,0.8-2.1,1S283.3,543.4,282.6,543.4z
		 M279.8,535.5h4.5c0-0.7-0.2-1.3-0.5-1.7s-0.8-0.7-1.6-0.7c-0.6,0-1.1,0.2-1.5,0.6C280.2,534.1,280,534.7,279.8,535.5z"/>
	<path class="st1" d="M290,543.1v-12.4h3l0.3,2.2h0.1c0.4-0.9,1-1.5,1.6-1.9c0.6-0.4,1.3-0.6,1.9-0.6c0.4,0,0.6,0,0.9,0.1
		c0.2,0,0.4,0.1,0.6,0.2l-0.6,3.2c-0.2-0.1-0.5-0.1-0.6-0.1c-0.2,0-0.4,0-0.7,0c-0.5,0-1,0.2-1.5,0.5c-0.5,0.3-0.9,0.9-1.3,1.8v7.2
		H290z"/>
	<path class="st1" d="M302.9,543.1l-4.2-12.4h3.7l1.6,5.9c0.2,0.6,0.3,1.2,0.5,1.9c0.2,0.6,0.3,1.3,0.5,1.9h0.1
		c0.2-0.7,0.3-1.3,0.5-1.9c0.2-0.6,0.3-1.3,0.5-1.9l1.6-5.9h3.5l-4,12.4H302.9z"/>
	<path class="st1" d="M315,528.8c-0.6,0-1.1-0.2-1.5-0.5c-0.4-0.4-0.6-0.8-0.6-1.4c0-0.6,0.2-1,0.6-1.4c0.4-0.3,0.9-0.5,1.5-0.5
		c0.6,0,1.1,0.2,1.5,0.5c0.4,0.4,0.6,0.8,0.6,1.4c0,0.6-0.2,1-0.6,1.4S315.6,528.8,315,528.8z M313.2,543.1v-12.4h3.7v12.4H313.2z"
		/>
	<path class="st1" d="M325.5,543.4c-0.9,0-1.7-0.1-2.4-0.4c-0.7-0.3-1.4-0.7-1.9-1.3c-0.5-0.5-1-1.2-1.3-2c-0.3-0.8-0.5-1.7-0.5-2.8
		c0-1,0.2-2,0.5-2.8c0.4-0.8,0.8-1.5,1.4-2c0.6-0.5,1.3-1,2.1-1.3c0.8-0.3,1.6-0.4,2.5-0.4c0.8,0,1.4,0.1,2,0.4
		c0.6,0.3,1.1,0.6,1.6,1l-1.7,2.4c-0.6-0.5-1.1-0.7-1.7-0.7c-0.9,0-1.6,0.3-2.1,0.9c-0.5,0.6-0.8,1.5-0.8,2.6c0,1.1,0.3,1.9,0.8,2.6
		c0.5,0.6,1.2,1,2,1c0.4,0,0.8-0.1,1.2-0.3s0.7-0.4,1.1-0.6l1.5,2.4c-0.6,0.5-1.3,0.9-2,1.1C326.9,543.2,326.2,543.4,325.5,543.4z"
		/>
	<path class="st1" d="M336.6,543.4c-0.9,0-1.7-0.1-2.5-0.4c-0.8-0.3-1.4-0.7-2-1.3c-0.6-0.6-1-1.2-1.3-2c-0.3-0.8-0.5-1.7-0.5-2.8
		c0-1,0.2-1.9,0.5-2.7s0.8-1.5,1.3-2.1c0.5-0.6,1.2-1,1.9-1.3c0.7-0.3,1.4-0.5,2.2-0.5c0.9,0,1.7,0.2,2.3,0.5
		c0.7,0.3,1.2,0.7,1.6,1.3c0.4,0.5,0.8,1.2,1,1.9c0.2,0.7,0.3,1.5,0.3,2.4c0,0.3,0,0.7,0,1c0,0.3-0.1,0.5-0.1,0.7h-7.4
		c0.2,0.9,0.5,1.6,1.1,2s1.3,0.6,2.1,0.6c0.9,0,1.8-0.3,2.7-0.8l1.2,2.2c-0.6,0.4-1.3,0.8-2.1,1S337.3,543.4,336.6,543.4z
		 M333.8,535.5h4.5c0-0.7-0.2-1.3-0.5-1.7s-0.8-0.7-1.6-0.7c-0.6,0-1.1,0.2-1.5,0.6C334.3,534.1,334,534.7,333.8,535.5z"/>
	<path class="st1" d="M344.3,547.9l-0.8-1.9c0.9-0.3,1.6-0.8,2.1-1.3s0.7-1.1,0.7-1.8h-0.2c-0.6,0-1.1-0.2-1.5-0.5
		c-0.5-0.4-0.7-0.9-0.7-1.5c0-0.6,0.2-1.1,0.7-1.5c0.4-0.4,1-0.6,1.6-0.6c0.8,0,1.5,0.3,1.9,0.9c0.4,0.6,0.6,1.5,0.6,2.6
		c0,1.4-0.4,2.6-1.1,3.6C346.9,546.8,345.7,547.5,344.3,547.9z"/>
	<path class="st1" d="M359.6,543.4c-0.6,0-1.1-0.1-1.5-0.3s-0.8-0.5-1.2-0.8s-0.6-0.7-0.7-1.2c-0.2-0.5-0.3-0.9-0.3-1.5
		c0-1.3,0.6-2.3,1.7-3c1.1-0.7,2.9-1.2,5.3-1.5c0-0.6-0.2-1-0.5-1.3c-0.3-0.3-0.8-0.5-1.5-0.5c-0.5,0-1.1,0.1-1.6,0.3
		c-0.5,0.2-1.1,0.5-1.7,0.8l-1.3-2.4c0.8-0.5,1.6-0.9,2.5-1.2s1.8-0.5,2.8-0.5c1.6,0,2.8,0.5,3.7,1.4c0.8,0.9,1.3,2.3,1.3,4.2v7.1
		h-3l-0.3-1.3h-0.1c-0.5,0.5-1.1,0.8-1.7,1.1C361,543.2,360.3,543.4,359.6,543.4z M360.9,540.5c0.4,0,0.8-0.1,1.1-0.3
		c0.3-0.2,0.6-0.4,0.9-0.8v-2.2c-1.3,0.2-2.2,0.5-2.7,0.8c-0.5,0.3-0.8,0.8-0.8,1.3c0,0.4,0.1,0.7,0.4,0.9
		C360.1,540.4,360.4,540.5,360.9,540.5z"/>
	<path class="st1" d="M369.7,543.1v-12.4h3l0.3,1.6h0.1c0.5-0.5,1.1-0.9,1.8-1.3c0.6-0.4,1.4-0.6,2.2-0.6c1.3,0,2.3,0.4,2.9,1.3
		c0.6,0.9,0.9,2.1,0.9,3.7v7.7h-3.7v-7.2c0-0.9-0.1-1.5-0.4-1.9c-0.2-0.3-0.6-0.5-1.2-0.5c-0.5,0-0.9,0.1-1.2,0.3
		c-0.3,0.2-0.7,0.5-1.1,0.9v8.4H369.7z"/>
	<path class="st1" d="M388.4,543.4c-0.8,0-1.5-0.1-2.1-0.5c-0.6-0.3-1.2-0.7-1.6-1.3s-0.8-1.2-1-2c-0.2-0.8-0.4-1.7-0.4-2.7
		s0.1-1.9,0.4-2.7c0.3-0.8,0.7-1.5,1.1-2c0.5-0.6,1-1,1.6-1.3s1.3-0.5,1.9-0.5c0.7,0,1.3,0.1,1.7,0.4c0.4,0.2,0.9,0.5,1.3,0.9
		l-0.1-1.9v-4.2h3.7v17.5h-3l-0.3-1.2h-0.1c-0.4,0.4-0.9,0.8-1.5,1.1C389.6,543.2,389,543.4,388.4,543.4z M389.3,540.4
		c0.4,0,0.8-0.1,1.1-0.3c0.3-0.2,0.6-0.5,0.9-0.9v-5.1c-0.3-0.3-0.7-0.5-1-0.6c-0.4-0.1-0.7-0.2-1-0.2c-0.6,0-1.1,0.3-1.6,0.8
		c-0.4,0.6-0.7,1.4-0.7,2.6c0,1.2,0.2,2.1,0.6,2.7S388.6,540.4,389.3,540.4z"/>
	<path class="st1" d="M403.3,543.1v-12.4h3l0.3,1.6h0.1c0.5-0.5,1.1-1,1.6-1.3c0.6-0.4,1.3-0.6,2.1-0.6c0.9,0,1.6,0.2,2.1,0.5
		s1,0.9,1.3,1.5c0.6-0.6,1.1-1.1,1.7-1.5c0.6-0.4,1.3-0.6,2.2-0.6c1.3,0,2.3,0.4,2.9,1.3s0.9,2.1,0.9,3.7v7.7h-3.7v-7.2
		c0-0.9-0.1-1.5-0.4-1.9c-0.2-0.3-0.6-0.5-1.2-0.5c-0.6,0-1.3,0.4-2.1,1.2v8.4h-3.7v-7.2c0-0.9-0.1-1.5-0.4-1.9
		c-0.2-0.3-0.6-0.5-1.2-0.5c-0.6,0-1.3,0.4-2.1,1.2v8.4H403.3z"/>
	<path class="st1" d="M428.4,543.4c-1.4,0-2.3-0.4-2.9-1.3c-0.6-0.9-0.9-2.1-0.9-3.7v-7.7h3.7v7.2c0,0.9,0.1,1.5,0.4,1.8
		c0.3,0.3,0.6,0.5,1.2,0.5c0.5,0,0.9-0.1,1.2-0.3c0.3-0.2,0.7-0.6,1-1v-8.2h3.7v12.4h-3l-0.3-1.7h-0.1c-0.5,0.6-1.1,1.1-1.7,1.5
		C430,543.2,429.3,543.4,428.4,543.4z"/>
	<path class="st1" d="M444.3,543.4c-0.9,0-1.7-0.1-2.4-0.4c-0.7-0.3-1.4-0.7-1.9-1.3c-0.5-0.5-1-1.2-1.3-2c-0.3-0.8-0.5-1.7-0.5-2.8
		c0-1,0.2-2,0.5-2.8c0.4-0.8,0.8-1.5,1.4-2c0.6-0.5,1.3-1,2.1-1.3c0.8-0.3,1.6-0.4,2.5-0.4c0.8,0,1.4,0.1,2,0.4
		c0.6,0.3,1.1,0.6,1.6,1l-1.7,2.4c-0.6-0.5-1.1-0.7-1.7-0.7c-0.9,0-1.6,0.3-2.1,0.9c-0.5,0.6-0.8,1.5-0.8,2.6c0,1.1,0.3,1.9,0.8,2.6
		c0.5,0.6,1.2,1,2,1c0.4,0,0.8-0.1,1.2-0.3s0.7-0.4,1.1-0.6l1.5,2.4c-0.6,0.5-1.3,0.9-2,1.1C445.7,543.2,445,543.4,444.3,543.4z"/>
	<path class="st1" d="M450.6,543.1v-17.5h3.7v4.3l-0.2,2.2c0.5-0.4,1-0.8,1.6-1.2c0.6-0.4,1.4-0.5,2.2-0.5c1.3,0,2.3,0.4,2.9,1.3
		c0.6,0.9,0.9,2.1,0.9,3.7v7.7h-3.7v-7.2c0-0.9-0.1-1.5-0.4-1.9c-0.2-0.3-0.6-0.5-1.2-0.5c-0.5,0-0.9,0.1-1.2,0.3
		c-0.3,0.2-0.7,0.5-1.1,0.9v8.4H450.6z"/>
	<path class="st1" d="M64.8,573.1v-12.4h3l0.3,1.6h0.1c0.5-0.5,1.1-1,1.6-1.3c0.6-0.4,1.3-0.6,2.1-0.6c0.9,0,1.6,0.2,2.1,0.5
		s1,0.9,1.3,1.5c0.6-0.6,1.1-1.1,1.7-1.5c0.6-0.4,1.3-0.6,2.2-0.6c1.3,0,2.3,0.4,2.9,1.3s0.9,2.1,0.9,3.7v7.7h-3.7v-7.2
		c0-0.9-0.1-1.5-0.4-1.9c-0.2-0.3-0.6-0.5-1.2-0.5c-0.6,0-1.3,0.4-2.1,1.2v8.4h-3.7v-7.2c0-0.9-0.1-1.5-0.4-1.9
		c-0.2-0.3-0.6-0.5-1.2-0.5c-0.6,0-1.3,0.4-2.1,1.2v8.4H64.8z"/>
	<path class="st1" d="M91.6,573.4c-0.8,0-1.5-0.1-2.3-0.4c-0.7-0.3-1.4-0.7-1.9-1.3c-0.6-0.5-1-1.2-1.3-2s-0.5-1.7-0.5-2.8
		c0-1,0.2-2,0.5-2.8c0.3-0.8,0.8-1.5,1.3-2s1.2-1,1.9-1.3c0.7-0.3,1.5-0.4,2.3-0.4c0.8,0,1.5,0.1,2.3,0.4c0.7,0.3,1.4,0.7,1.9,1.3
		c0.6,0.5,1,1.2,1.3,2c0.3,0.8,0.5,1.7,0.5,2.8c0,1-0.2,2-0.5,2.8c-0.3,0.8-0.8,1.5-1.3,2c-0.6,0.6-1.2,1-1.9,1.3
		C93.1,573.2,92.4,573.4,91.6,573.4z M91.6,570.4c0.8,0,1.3-0.3,1.7-1c0.4-0.6,0.6-1.5,0.6-2.6c0-1.1-0.2-1.9-0.6-2.6
		c-0.4-0.6-0.9-0.9-1.7-0.9c-0.8,0-1.3,0.3-1.7,0.9c-0.4,0.6-0.6,1.5-0.6,2.6c0,1.1,0.2,1.9,0.6,2.6
		C90.2,570.1,90.8,570.4,91.6,570.4z"/>
	<path class="st1" d="M100.1,573.1v-12.4h3l0.3,2.2h0.1c0.4-0.9,1-1.5,1.6-1.9c0.6-0.4,1.3-0.6,1.9-0.6c0.4,0,0.6,0,0.9,0.1
		c0.2,0,0.4,0.1,0.6,0.2l-0.6,3.2c-0.2-0.1-0.5-0.1-0.6-0.1c-0.2,0-0.4,0-0.7,0c-0.5,0-1,0.2-1.5,0.5c-0.5,0.3-0.9,0.9-1.3,1.8v7.2
		H100.1z"/>
	<path class="st1" d="M115.4,573.4c-0.9,0-1.7-0.1-2.5-0.4c-0.8-0.3-1.4-0.7-2-1.3c-0.6-0.6-1-1.2-1.3-2c-0.3-0.8-0.5-1.7-0.5-2.8
		c0-1,0.2-1.9,0.5-2.7s0.8-1.5,1.3-2.1c0.5-0.6,1.2-1,1.9-1.3c0.7-0.3,1.4-0.5,2.2-0.5c0.9,0,1.7,0.2,2.3,0.5
		c0.7,0.3,1.2,0.7,1.6,1.3c0.4,0.5,0.8,1.2,1,1.9c0.2,0.7,0.3,1.5,0.3,2.4c0,0.3,0,0.7,0,1c0,0.3-0.1,0.5-0.1,0.7h-7.4
		c0.2,0.9,0.5,1.6,1.1,2s1.3,0.6,2.1,0.6c0.9,0,1.8-0.3,2.7-0.8l1.2,2.2c-0.6,0.4-1.3,0.8-2.1,1S116.1,573.4,115.4,573.4z
		 M112.6,565.5h4.5c0-0.7-0.2-1.3-0.5-1.7s-0.8-0.7-1.6-0.7c-0.6,0-1.1,0.2-1.5,0.6C113,564.1,112.8,564.7,112.6,565.5z"/>
	<path class="st1" d="M124.9,573.4c-0.6,0-1.2-0.2-1.6-0.7c-0.4-0.4-0.6-1-0.6-1.6c0-0.7,0.2-1.2,0.6-1.7c0.4-0.4,1-0.7,1.6-0.7
		c0.6,0,1.2,0.2,1.6,0.7c0.4,0.4,0.6,1,0.6,1.7c0,0.7-0.2,1.2-0.6,1.6C126.1,573.1,125.5,573.4,124.9,573.4z"/>
</g>
<g>
	<path class="st1" d="M99,651.7c0.6,0.5,1.3,1,2,1.3s1.5,0.5,2.3,0.5c0.9,0,1.6-0.2,2.1-0.6s0.7-0.9,0.7-1.5c0-0.3-0.1-0.6-0.2-0.8
		s-0.3-0.4-0.5-0.6c-0.2-0.2-0.5-0.3-0.8-0.5c-0.3-0.1-0.6-0.3-1-0.4l-2.3-1c-0.4-0.2-0.8-0.4-1.2-0.6c-0.4-0.3-0.7-0.5-1.1-0.9
		c-0.3-0.4-0.6-0.8-0.8-1.2c-0.2-0.5-0.3-1-0.3-1.6c0-0.7,0.1-1.3,0.4-1.8s0.7-1,1.1-1.5c0.5-0.4,1.1-0.7,1.7-1
		c0.7-0.2,1.4-0.4,2.2-0.4c1,0,1.9,0.2,2.8,0.6s1.6,0.9,2.3,1.5l-1.5,1.9c-0.5-0.4-1.1-0.8-1.6-1c-0.6-0.3-1.2-0.4-1.9-0.4
		c-0.8,0-1.4,0.2-1.9,0.5s-0.7,0.8-0.7,1.4c0,0.3,0.1,0.6,0.2,0.8c0.1,0.2,0.3,0.4,0.6,0.6c0.2,0.2,0.5,0.3,0.8,0.5
		c0.3,0.1,0.6,0.3,1,0.4l2.2,0.9c0.5,0.2,0.9,0.4,1.3,0.7c0.4,0.3,0.7,0.6,1,0.9c0.3,0.3,0.5,0.8,0.7,1.2c0.2,0.5,0.3,1,0.3,1.6
		c0,0.7-0.1,1.3-0.4,1.9c-0.3,0.6-0.7,1.1-1.2,1.5c-0.5,0.4-1.1,0.8-1.9,1c-0.7,0.3-1.5,0.4-2.5,0.4c-1.1,0-2.2-0.2-3.2-0.6
		c-1-0.4-1.9-1-2.7-1.8L99,651.7z"/>
	<path class="st1" d="M112.3,645.7h-1.8v-2.2l1.9-0.1l0.4-3.3h2.4v3.3h3.1v2.3h-3.1v5.8c0,1.4,0.6,2.2,1.7,2.2c0.2,0,0.4,0,0.7-0.1
		s0.4-0.1,0.6-0.2l0.5,2.1c-0.3,0.1-0.7,0.2-1.1,0.3c-0.4,0.1-0.9,0.1-1.4,0.1c-0.7,0-1.3-0.1-1.8-0.3c-0.5-0.2-0.9-0.5-1.2-0.9
		c-0.3-0.4-0.5-0.9-0.7-1.4c-0.1-0.5-0.2-1.1-0.2-1.8V645.7z"/>
	<path class="st1" d="M120,652.4c0-1.3,0.6-2.3,1.7-3s3-1.2,5.5-1.5c0-0.3,0-0.6-0.1-0.9c-0.1-0.3-0.2-0.5-0.4-0.8
		c-0.2-0.2-0.4-0.4-0.7-0.5s-0.6-0.2-1-0.2c-0.6,0-1.2,0.1-1.8,0.3c-0.6,0.2-1.1,0.5-1.7,0.9l-1.1-1.9c0.7-0.4,1.4-0.8,2.3-1.1
		c0.8-0.3,1.8-0.5,2.7-0.5c1.5,0,2.7,0.5,3.4,1.4c0.8,0.9,1.1,2.2,1.1,3.9v7.3h-2.4l-0.2-1.3h-0.1c-0.5,0.5-1.1,0.9-1.8,1.2
		s-1.3,0.5-2,0.5c-1.1,0-2-0.3-2.6-1S120,653.5,120,652.4z M122.8,652.2c0,0.6,0.2,1,0.5,1.2c0.3,0.3,0.7,0.4,1.3,0.4
		c0.5,0,1-0.1,1.4-0.3c0.4-0.2,0.9-0.6,1.3-1v-2.8c-0.8,0.1-1.5,0.2-2.1,0.4c-0.6,0.2-1,0.4-1.4,0.6c-0.3,0.2-0.6,0.4-0.7,0.7
		C122.8,651.6,122.8,651.9,122.8,652.2z"/>
	<path class="st1" d="M133.6,643.5h2.4l0.2,2.2h0.1c0.4-0.8,1-1.4,1.6-1.8c0.6-0.4,1.3-0.6,1.9-0.6c0.6,0,1,0.1,1.4,0.3l-0.5,2.5
		c-0.2-0.1-0.4-0.1-0.6-0.1c-0.2,0-0.4-0.1-0.7-0.1c-0.5,0-1,0.2-1.5,0.6c-0.5,0.4-1,1-1.4,2v7.5h-2.9V643.5z"/>
	<path class="st1" d="M143.3,645.7h-1.8v-2.2l1.9-0.1l0.4-3.3h2.4v3.3h3.1v2.3h-3.1v5.8c0,1.4,0.6,2.2,1.7,2.2c0.2,0,0.4,0,0.7-0.1
		s0.4-0.1,0.6-0.2l0.5,2.1c-0.3,0.1-0.7,0.2-1.1,0.3c-0.4,0.1-0.9,0.1-1.4,0.1c-0.7,0-1.3-0.1-1.8-0.3c-0.5-0.2-0.9-0.5-1.2-0.9
		c-0.3-0.4-0.5-0.9-0.7-1.4c-0.1-0.5-0.2-1.1-0.2-1.8V645.7z"/>
	<path class="st1" d="M157.3,639.4h2.9v13.9h6.8v2.5h-9.7V639.4z"/>
	<path class="st1" d="M168.5,649.6c0-1,0.2-1.9,0.5-2.7c0.3-0.8,0.7-1.5,1.3-2c0.5-0.6,1.1-1,1.8-1.3c0.7-0.3,1.4-0.5,2.1-0.5
		c0.8,0,1.6,0.1,2.2,0.4c0.6,0.3,1.2,0.7,1.6,1.2c0.4,0.5,0.7,1.1,1,1.9s0.3,1.5,0.3,2.3c0,0.6,0,1-0.1,1.3h-7.8
		c0.1,1.1,0.5,2,1.2,2.6c0.6,0.6,1.5,0.9,2.5,0.9c0.5,0,1-0.1,1.5-0.2c0.5-0.2,0.9-0.4,1.4-0.7l1,1.8c-0.6,0.4-1.2,0.7-1.9,1
		c-0.7,0.3-1.5,0.4-2.3,0.4c-0.9,0-1.6-0.1-2.4-0.4c-0.7-0.3-1.4-0.7-1.9-1.3c-0.5-0.5-1-1.2-1.3-2
		C168.6,651.5,168.5,650.6,168.5,649.6z M176.7,648.5c0-1-0.2-1.8-0.6-2.3c-0.4-0.5-1-0.8-1.9-0.8c-0.7,0-1.4,0.3-1.9,0.8
		c-0.6,0.5-0.9,1.3-1,2.3H176.7z"/>
	<path class="st1" d="M181.1,652.4c0-1.3,0.6-2.3,1.7-3s3-1.2,5.5-1.5c0-0.3,0-0.6-0.1-0.9c-0.1-0.3-0.2-0.5-0.4-0.8
		c-0.2-0.2-0.4-0.4-0.7-0.5s-0.6-0.2-1-0.2c-0.6,0-1.2,0.1-1.8,0.3c-0.6,0.2-1.1,0.5-1.7,0.9l-1.1-1.9c0.7-0.4,1.4-0.8,2.3-1.1
		c0.8-0.3,1.8-0.5,2.7-0.5c1.5,0,2.7,0.5,3.4,1.4c0.8,0.9,1.1,2.2,1.1,3.9v7.3h-2.4l-0.2-1.3h-0.1c-0.5,0.5-1.1,0.9-1.8,1.2
		s-1.3,0.5-2,0.5c-1.1,0-2-0.3-2.6-1S181.1,653.5,181.1,652.4z M183.9,652.2c0,0.6,0.2,1,0.5,1.2c0.3,0.3,0.7,0.4,1.3,0.4
		c0.5,0,1-0.1,1.4-0.3c0.4-0.2,0.9-0.6,1.3-1v-2.8c-0.8,0.1-1.5,0.2-2.1,0.4c-0.6,0.2-1,0.4-1.4,0.6c-0.3,0.2-0.6,0.4-0.7,0.7
		C184,651.6,183.9,651.9,183.9,652.2z"/>
	<path class="st1" d="M194.7,643.5h2.4l0.2,2.2h0.1c0.4-0.8,1-1.4,1.6-1.8c0.6-0.4,1.3-0.6,1.9-0.6c0.6,0,1,0.1,1.4,0.3l-0.5,2.5
		c-0.2-0.1-0.4-0.1-0.6-0.1c-0.2,0-0.4-0.1-0.7-0.1c-0.5,0-1,0.2-1.5,0.6c-0.5,0.4-1,1-1.4,2v7.5h-2.9V643.5z"/>
	<path class="st1" d="M204,643.5h2.4l0.2,1.7h0.1c0.5-0.5,1.1-1,1.8-1.4c0.6-0.4,1.4-0.6,2.2-0.6c1.3,0,2.3,0.4,2.9,1.3
		s0.9,2,0.9,3.6v7.7h-2.9v-7.3c0-1-0.1-1.7-0.4-2.1c-0.3-0.4-0.8-0.6-1.5-0.6c-0.5,0-1,0.1-1.4,0.4c-0.4,0.3-0.9,0.6-1.4,1.1v8.6
		H204V643.5z"/>
	<path class="st1" d="M219.5,641.3c-0.5,0-0.9-0.2-1.3-0.5c-0.3-0.3-0.5-0.7-0.5-1.2s0.2-0.9,0.5-1.2c0.3-0.3,0.8-0.5,1.3-0.5
		s0.9,0.2,1.3,0.5s0.5,0.7,0.5,1.2s-0.2,0.9-0.5,1.2S220,641.3,219.5,641.3z M218,643.5h2.9v12.3H218V643.5z"/>
	<path class="st1" d="M224.6,643.5h2.4l0.2,1.7h0.1c0.5-0.5,1.1-1,1.8-1.4c0.6-0.4,1.4-0.6,2.2-0.6c1.3,0,2.3,0.4,2.9,1.3
		s0.9,2,0.9,3.6v7.7h-2.9v-7.3c0-1-0.1-1.7-0.4-2.1c-0.3-0.4-0.8-0.6-1.5-0.6c-0.5,0-1,0.1-1.4,0.4c-0.4,0.3-0.9,0.6-1.4,1.1v8.6
		h-2.9V643.5z"/>
	<path class="st1" d="M237.8,658c0-0.5,0.1-1,0.5-1.4c0.3-0.4,0.7-0.8,1.3-1.2v-0.1c-0.3-0.2-0.6-0.5-0.8-0.8s-0.3-0.8-0.3-1.3
		c0-0.5,0.1-0.9,0.4-1.3s0.6-0.7,0.9-1v-0.1c-0.4-0.3-0.8-0.8-1.1-1.3c-0.3-0.6-0.5-1.2-0.5-1.9c0-0.7,0.1-1.3,0.4-1.9
		s0.6-1,1.1-1.4s1-0.7,1.5-0.8s1.2-0.3,1.9-0.3c0.3,0,0.7,0,1,0.1c0.3,0.1,0.6,0.1,0.8,0.2h4.4v2.1H247c0.2,0.2,0.4,0.5,0.5,0.9
		c0.1,0.4,0.2,0.8,0.2,1.2c0,0.7-0.1,1.3-0.4,1.8c-0.2,0.5-0.6,1-1,1.3c-0.4,0.3-0.9,0.6-1.5,0.8c-0.6,0.2-1.2,0.3-1.8,0.3
		c-0.3,0-0.5,0-0.8-0.1c-0.3-0.1-0.6-0.1-0.8-0.3c-0.2,0.2-0.3,0.3-0.4,0.5c-0.1,0.2-0.2,0.4-0.2,0.7c0,0.3,0.1,0.6,0.4,0.8
		c0.3,0.2,0.8,0.3,1.6,0.3h2.2c1.5,0,2.6,0.2,3.4,0.7c0.8,0.5,1.1,1.2,1.1,2.3c0,0.6-0.2,1.2-0.5,1.7c-0.3,0.5-0.7,1-1.3,1.4
		c-0.6,0.4-1.3,0.7-2.1,0.9c-0.8,0.2-1.7,0.3-2.7,0.3c-0.7,0-1.4-0.1-2-0.2c-0.6-0.1-1.2-0.3-1.6-0.6c-0.5-0.3-0.8-0.6-1.1-1
		C237.9,659,237.8,658.5,237.8,658z M240.2,657.5c0,0.5,0.3,1,0.8,1.3c0.6,0.3,1.3,0.5,2.3,0.5c1,0,1.8-0.2,2.4-0.6
		c0.6-0.4,0.9-0.9,0.9-1.4c0-0.5-0.2-0.8-0.6-1c-0.4-0.2-0.9-0.3-1.6-0.3h-1.7c-0.7,0-1.2-0.1-1.7-0.2
		C240.5,656.4,240.2,656.9,240.2,657.5z M243,650c0.6,0,1.1-0.2,1.5-0.6c0.4-0.4,0.6-1,0.6-1.8c0-0.8-0.2-1.4-0.6-1.8
		c-0.4-0.4-0.9-0.6-1.5-0.6s-1.1,0.2-1.5,0.6c-0.4,0.4-0.6,1-0.6,1.8c0,0.8,0.2,1.4,0.6,1.8C241.9,649.8,242.4,650,243,650z"/>
</g>
<path class="st1" d="M73.5,658.4c-0.1,0-0.2,0-0.3,0c0,0-0.1,0-0.1,0c-0.4,0-0.8,0-1.2-0.1c-0.6-0.1-1.2-0.2-1.8-0.4
	c-1.2-0.4-2.3-1-3.3-1.9c-0.8-0.7-1.6-1.5-2.1-2.5c-0.9-1.4-1.3-3-1.4-4.6c0-0.1,0-0.2,0-0.3c0-0.3,0-0.5,0-0.8c0,0,0,0,0-0.1
	c0-0.5,0.1-1.1,0.2-1.6c0.3-1.3,0.8-2.5,1.5-3.6c0.6-0.9,1.4-1.7,2.3-2.4c1-0.8,2.1-1.3,3.3-1.6c0.7-0.2,1.4-0.3,2.2-0.4
	c0.1,0,0.2,0,0.3,0c0.2,0,0.5,0,0.7,0c0,0,0.1,0,0.1,0c0.2,0,0.4,0,0.6,0c0.6,0.1,1.2,0.2,1.7,0.3c1.2,0.4,2.4,0.9,3.4,1.7
	c1.1,0.9,2,1.9,2.7,3.1c0.8,1.4,1.2,2.9,1.3,4.5c0,0.1,0,0.2,0,0.4c0,0.1,0,0.2,0,0.3c0,0,0,0.1,0,0.1c0,0.3,0,0.7-0.1,1
	c-0.1,0.8-0.3,1.6-0.6,2.4c-0.8,1.9-2,3.4-3.7,4.6c-0.8,0.6-1.6,1-2.6,1.3C75.6,658.2,74.6,658.4,73.5,658.4
	C73.6,658.4,73.5,658.4,73.5,658.4z M75.1,648.3C75.1,648.3,75.1,648.3,75.1,648.3c-1.3,1.3-2.6,2.6-3.8,3.9
	c-0.1,0.1-0.1,0.1-0.2,0.2c-0.3,0.4-0.2,1.1,0.3,1.3c0.4,0.2,0.8,0.2,1.2-0.2c1.5-1.5,3-3,4.5-4.5c0.4-0.4,0.4-1,0-1.4
	c-1.5-1.5-3.1-3.1-4.6-4.6c-0.1-0.1-0.2-0.1-0.2-0.2c-0.5-0.2-1-0.1-1.3,0.4c-0.2,0.4-0.1,0.8,0.2,1.1c1.2,1.2,2.4,2.4,3.7,3.6
	C74.9,648.1,75,648.2,75.1,648.3z"/>
<g id="ELEMENTS">
	<path class="st1" d="M159.6,111c-0.1,0.1-0.1,0.2-0.2,0.3c-0.2,1.6-1,3.1-2.1,4.3c-2.7,3-6,4.1-9.9,3.1c-3.9-1-6.3-3.6-7.1-7.5
		c-1.1-5.3,2.3-10.4,7.6-11.5c4.7-1,9.4,1.6,11.1,6.1c0.2,0.4,0.2,0.9,0.3,1.3c0,0.2,0.1,0.4,0.2,0.5V111z"/>
	<path class="st1" d="M98.7,133.3c-0.1,0-0.2,0-0.3,0.1c-4.7,2.8-9.4,5.6-14.1,8.5c-0.1,0.1-0.1,0.1-0.2,0.2
		c0.1,0.2,0.2,0.3,0.3,0.5c3.1,4.2,6.5,8.1,10.4,11.6c3,2.7,6.3,4.9,9.9,6.6c3.1,1.5,6.5,2.4,10,2.8c0.1,0,0.3,0,0.4,0.1
		c0.1,0,0.1,0,0.1,0.1c0,0.2,0.1,0.4,0.1,0.6c0,4.9,0,9.7,0,14.6c0,0.2,0,0.4-0.1,0.6c-0.2,0-0.5,0.1-0.7,0.1
		c-1.8-0.1-3.6-0.2-5.3-0.5c-4.7-0.7-9.3-2-13.6-3.9c-9.3-4-17.3-10.6-23-19c-7-10.2-10.2-22.4-9.3-34.7c0.9-11.4,5-21.6,12.4-30.4
		c7-8.4,15.8-14.2,26.3-17.3c3.2-1,6.6-1.6,9.9-1.9c6.1-0.6,12.2-0.2,18.1,1.3c0.2,0.1,0.4,0.1,0.7,0.2c0,0.4,0,0.8,0,1.2V109
		c0,6.8,0,13.5,0,20.3c0,1-0.2,1.9-0.5,2.9c-1.7,4.1-4.4,7.3-8.2,9.4c-3.5,2-7.2,2.3-11,1c-2.5-0.8-4.8-2.2-6.8-3.9
		c-1.7-1.4-3.3-2.9-4.8-4.6C99.2,133.8,99,133.6,98.7,133.3z M87.2,99.5c-5.4,0-9.8,4.4-9.8,9.8c0,5.4,4.4,9.8,9.8,9.8
		c5.4,0,9.8-4.4,9.8-9.8C97,103.9,92.7,99.5,87.2,99.5C87.2,99.5,87.2,99.5,87.2,99.5z"/>
</g>
</svg>
