<?xml version="1.0" encoding="utf-8"?>
<!-- Generator: Adobe Illustrator 23.0.5, SVG Export Plug-In . SVG Version: 6.00 Build 0)  -->
<svg version="1.1" id="PRINT" xmlns="http://www.w3.org/2000/svg" xmlns:xlink="http://www.w3.org/1999/xlink" x="0px" y="0px"
	 viewBox="0 0 100 100" style="enable-background:new 0 0 100 100;" xml:space="preserve">
<style type="text/css">
	.st0{fill:url(#SVGID_1_);}
	.st1{fill:url(#SVGID_2_);}
	.st2{fill:url(#SVGID_3_);}
	.st3{fill:url(#SVGID_4_);}
	.st4{fill:#EE5423;}
	.st5{fill:url(#SVGID_5_);}
	.st6{fill:#F4F4F4;}
	.st7{opacity:0.4;fill:#DC78AA;}
	.st8{display:none;fill:#FFFFFF;}
	.st9{fill:none;}
	.st10{fill:url(#SVGID_6_);}
	.st11{fill:url(#SVGID_7_);}
	.st12{fill:#161616;}
	.st13{fill:url(#SVGID_8_);}
	.st14{fill:url(#SVGID_9_);}
	.st15{fill:url(#SVGID_10_);}
	.st16{fill:#F4F4F4;stroke:#F4F4F4;stroke-width:0.9489;stroke-miterlimit:10;}
	.st17{fill:#E3F3F7;}
	.st18{fill:#F05922;}
	.st19{opacity:0.28;fill:url(#SVGID_11_);}
	.st20{fill:#E5E3E3;}
	.st21{fill:#D74F27;}
	.st22{fill:#FC2516;}
	.st23{fill:#FFFFFF;}
	.st24{fill:#009933;}
</style>
<path class="st24" d="M51.26,97.38c-1.04,0-2.09,0-3.13,0c-0.45-0.03-0.9-0.07-1.35-0.1c-2.85-0.15-5.65-0.59-8.42-1.26
	c-5.29-1.28-10.21-3.42-14.77-6.38c-3.64-2.36-6.89-5.18-9.76-8.43c-3.25-3.68-5.88-7.75-7.87-12.23
	c-2.3-5.16-3.62-10.56-4.01-16.19c-0.22-3.13-0.16-6.25,0.24-9.37c0.5-3.9,1.45-7.68,2.89-11.34c2.71-6.88,6.78-12.82,12.21-17.83
	c4.31-3.97,9.19-7.04,14.63-9.23c5.31-2.13,10.83-3.24,16.54-3.4c2.65-0.07,5.3,0.08,7.93,0.45c5.74,0.8,11.16,2.6,16.25,5.37
	c4.56,2.48,8.59,5.64,12.13,9.44c2.78,2.99,5.15,6.27,7.08,9.87c3.33,6.19,5.22,12.8,5.63,19.83c0.03,0.47,0.06,0.93,0.09,1.4
	c0,1.2,0,2.4,0,3.6c-0.05,0.65-0.1,1.3-0.15,1.95c-0.28,3.5-0.94,6.92-2,10.27c-2.53,8-6.86,14.87-12.97,20.63
	c-2.72,2.56-5.7,4.78-8.95,6.63c-6.49,3.69-13.46,5.8-20.93,6.23C52.15,97.32,51.7,97.35,51.26,97.38z M60.99,27.69
	c-0.01-0.15-0.02-0.3-0.03-0.44c-0.19-2.32-2.39-4.17-4.71-3.95c-1.16,0.11-2.13,0.57-2.95,1.39c-3.05,3.07-6.11,6.13-9.17,9.2
	c-4.06,4.07-8.13,8.15-12.19,12.22c-0.88,0.88-1.33,1.94-1.33,3.18c0,1.27,0.5,2.34,1.4,3.24c1.86,1.86,3.72,3.73,5.58,5.59
	c5.36,5.38,10.73,10.76,16.09,16.15c0.79,0.79,1.7,1.3,2.82,1.44c2.54,0.32,4.89-1.68,4.94-4.25c0.03-1.33-0.44-2.46-1.39-3.4
	c-2.49-2.46-4.97-4.91-7.45-7.37c-3.68-3.65-7.36-7.29-11.04-10.94c-0.27-0.26-0.27-0.26-0.01-0.53c3.71-3.76,7.42-7.53,11.13-11.29
	c2.28-2.31,4.56-4.63,6.86-6.94C60.46,30.09,60.99,29.01,60.99,27.69z"/>
</svg>
