<?xml version="1.0" encoding="utf-8"?>
<!-- Generator: Adobe Illustrator 23.0.5, SVG Export Plug-In . SVG Version: 6.00 Build 0)  -->
<svg version="1.1" xmlns="http://www.w3.org/2000/svg" xmlns:xlink="http://www.w3.org/1999/xlink" x="0px" y="0px"
	 viewBox="0 0 500 500" style="enable-background:new 0 0 500 500;" xml:space="preserve">
<style type="text/css">
	.st0{fill:#54883F;}
	.st1{fill:#4C4C4C;}
	.st2{opacity:0.8;fill:url(#SVGID_1_);}
	.st3{fill:url(#SVGID_2_);}
	.st4{opacity:0.8;fill:url(#SVGID_3_);}
	.st5{fill:url(#SVGID_4_);}
	.st6{fill:#FFFFFF;}
	.st7{opacity:0.8;fill:url(#SVGID_5_);}
	.st8{fill:url(#SVGID_6_);}
	.st9{opacity:0.8;fill:url(#SVGID_7_);}
	.st10{fill:url(#SVGID_8_);}
	.st11{fill-rule:evenodd;clip-rule:evenodd;fill:#FFFFFF;}
	.st12{opacity:0.8;fill:url(#SVGID_9_);}
	.st13{fill:url(#SVGID_10_);}
	.st14{opacity:0.8;fill:url(#SVGID_11_);}
	.st15{fill:url(#SVGID_12_);}
	.st16{opacity:0.8;fill:url(#SVGID_13_);}
	.st17{fill:url(#SVGID_14_);}
	.st18{opacity:0.8;fill:url(#SVGID_15_);}
	.st19{fill:url(#SVGID_16_);}
	.st20{fill-rule:evenodd;clip-rule:evenodd;fill:#EE1D52;}
	.st21{fill-rule:evenodd;clip-rule:evenodd;fill:#69C9D0;}
	.st22{opacity:0.8;fill:url(#SVGID_17_);}
	.st23{fill:url(#SVGID_18_);}
	.st24{opacity:0.8;fill:url(#SVGID_19_);}
	.st25{fill:url(#SVGID_20_);}
	.st26{opacity:0.8;fill:url(#SVGID_21_);}
	.st27{fill:url(#SVGID_22_);}
	.st28{opacity:0.8;fill:url(#SVGID_23_);}
	.st29{fill:url(#SVGID_24_);}
	.st30{opacity:0.8;fill:url(#SVGID_25_);}
	.st31{opacity:0.8;fill:url(#SVGID_26_);}
	.st32{opacity:0.8;fill:url(#SVGID_27_);}
	.st33{opacity:0.8;fill:url(#SVGID_28_);}
	.st34{opacity:0.8;fill:url(#SVGID_29_);}
	.st35{opacity:0.8;fill:url(#SVGID_30_);}
	.st36{opacity:0.8;fill:url(#SVGID_31_);}
	.st37{opacity:0.8;fill:url(#SVGID_32_);}
	.st38{opacity:0.8;fill:url(#SVGID_33_);}
	.st39{opacity:0.8;fill:url(#SVGID_34_);}
	.st40{opacity:0.8;fill:url(#SVGID_35_);}
	.st41{opacity:0.8;fill:url(#SVGID_36_);}
	.st42{fill:#FFFFFF;stroke:#54883F;stroke-miterlimit:10;}
</style>
<g id="BACKGROUND">
</g>
<g id="ELEMENTS">
	<circle class="st0" cx="249" cy="251" r="240"/>
	<path class="st6" d="M262.6,339.1c-0.4,3.9-0.5,7.3,0,10.9c1.1,0.1,2.1,0.2,3.1,0.3c5.8,0,11.5,0,17.3,0c0.9,0,1.8,0.1,2.7,0
		c2.7-0.3,5.2,1.9,5.1,4.9c-0.1,5.1,0.1,10.3,0,15.4c-0.1,3.1-1.7,4.7-4.8,4.8c-0.9,0-1.8,0-2.7,0c-25.2,0-50.5,0-75.7,0
		c-1,0-2.1,0-3.1,0c-2.5-0.2-4.2-1.5-4.3-4c-0.2-5.6-0.2-11.3,0-16.9c0.1-2.8,1.9-4.1,5-4.2c5.5-0.1,11,0,16.5,0c1.5,0,3.1,0,4.6,0
		c0.6,0,1.2-0.2,1.8-0.2c0.9-3.1,0.8-8,0-10.7c-1.6-0.8-3.3-0.5-4.9-0.5c-27.8,0-55.6,0-83.4,0c-2.2,0-4.4-0.1-6.5-0.3
		c-6.2-0.6-10.5-6.4-10.6-11c-0.1-2-0.2-4.1-0.2-6.1c0-40.6,0-81.2,0-121.8c0-1.8,0-3.6,0.2-5.4c0.6-6.3,5.6-11.1,11.9-11.5
		c1.5-0.1,3.1,0,4.6,0c1,0,2-0.1,3-0.2c0.9-1.4,0.6-2.8,0.6-4.2c0-9.6,0-19.2,0-28.8c0-1,0-2.1,0.1-3.1c0.3-2.8,1.9-4.3,4.8-4.5
		c0.8,0,1.5,0,2.3,0c25.5,0,51,0,76.5,0c0.9,0,1.8,0,2.7,0c2.5,0.2,4,1.5,4.4,4c0.2,1.3,0.2,2.6,0.2,3.8c0,9.4,0,18.7,0,28.1
		c0,1.4,0.1,2.8,0.1,4.4c0.9,0.2,1.6,0.5,2.3,0.5c6.3,0,12.6,0,18.8,0c0.6,0,1.2-0.1,2-0.2c0-1,0-1.8,0-2.8
		c-1.2-0.1-2.2-0.2-3.2-0.3c-1.5-0.1-3.1,0-4.6-0.1c-2.2-0.2-3.8-1.7-4.1-3.9c-0.1-0.4-0.1-0.8-0.1-1.1c0-5-0.1-10,0-15
		c0.1-3.5,1.7-5,5.3-5.1c2.1-0.1,4.3,0.2,6.6-0.3c0.1-1.1,0.2-2.1,0.3-3.1c0.3-3.1,1.8-4.7,4.8-5c1-0.1,2,0,3.1,0c7,0,14.1,0,21.1,0
		c2.5,0,4.8-0.3,7.2-1c15.1-4.7,30.3-9.4,45.4-14.1c0.9-0.3,1.7-0.5,2.6-0.8c3.9-1,6.2,0.6,6.6,4.7c0.1,1.1,0.1,2.3,0.1,3.5
		c0,4,0,7.9,0,11.9c0,1.3-0.2,2.6,0.8,4c1.1,0.1,2.3,0.1,3.6,0.2c6.6,0.3,12,6,12,12.7c0,6.5-5.4,12.1-11.8,12.4c-0.8,0-1.5,0-2.3,0
		c-1.9,0.1-2,0.4-1.6,2.9c1.9,0.7,4,0.3,6,0.4c1.8,0,3.6,0.1,5.3,0.8c5,2,7.8,5.7,8.4,10.9c0.1,1.1,0.1,2.3,0.1,3.5
		c0,42,0,84,0,126.1c0,0.9,0,1.8,0,2.7c-0.3,6.2-4.8,11.1-11,11.9c-2.2,0.3-4.3,0.3-6.5,0.3c-27.5,0-55.1,0-82.6,0
		C266.5,338.9,264.8,339,262.6,339.1z M233.9,192.2c-0.1,1.4-0.1,2.7-0.1,3.9c0,4.2,0,8.5,0,12.7c0,0.9,0,1.8-0.1,2.7
		c-0.3,3-2,4.6-5,4.7c-0.9,0.1-1.8,0-2.7,0c-25.1,0-50.2,0-75.3,0c-0.9,0-1.8,0-2.7,0c-3.2-0.2-4.9-1.8-5.1-5c-0.1-0.9,0-1.8,0-2.7
		c0-4.5,0-9,0-13.5c0-1-0.2-2-0.3-3.1c-2.7-0.5-5.3-0.4-7.8-0.2c-1.8,0.2-2.9,1.6-3,3.5c-0.1,1.3-0.1,2.6-0.1,3.8
		c0,36.3,0,72.5,0,108.8c0,1,0,2.1,0,3.1c0,0.7,0.2,1.4,0.4,2.4c1.8,0,3.5,0.1,5.1,0.1c72.2,0,144.5,0,216.7,0c1,0,2.1,0,3.1,0
		c0.7,0,1.4-0.2,2.3-0.4c0.1-1.3,0.2-2.5,0.2-3.6c0-37.1,0-74.3,0-111.4c0-1,0-2.1-0.2-3.1c-0.3-1.6-1.4-2.9-3-3.1
		c-2.5-0.3-5.1-0.4-7.7,0.2c-0.2,0.9-0.4,1.6-0.4,2.3c-0.1,1.1,0,2.3-0.1,3.5c-0.2,5.3-2.5,6.9-7.5,5.4c-8.9-2.7-17.9-5.4-26.8-8.2
		c-7.3-2.2-14.7-4.5-22-6.8c-1.9-0.6-3.7-0.9-5.5-0.1c-0.3,1.1-0.6,2.1-0.7,3.1c-0.9,6-1.7,11.9-2.5,17.9c-0.2,1.1-0.3,2.3-0.6,3.4
		c-0.6,2.3-2.1,3.5-4.4,3.6c-4,0.1-7.9,0.1-11.9,0c-2.8-0.1-4.4-1.7-4.8-4.5c-0.1-1-0.1-2-0.1-3.1c0-4.6,0-9.2,0-13.8
		c0-1,0.2-2.1-0.8-2.8C256.5,191.5,237.3,191.6,233.9,192.2z M224.4,206.9c0.1-1.7,0.2-3.2,0.2-4.7c0-15.2,0-30.5,0-45.7
		c0-1,0-2.1-0.1-3.1c-0.1-0.7-0.3-1.4-0.5-2.3c-1.5,0-2.9-0.1-4.3-0.1c-14,0-27.9,0-41.9,0c-7.3,0-14.6,0-21.9,0
		c-1.1,0-2.3-0.3-3.6,0.9c-0.1,1.4-0.2,3-0.2,4.6c0,15.1,0,30.2,0,45.3c0,1,0,2.1,0.1,3.1c0.1,0.7,0.4,1.4,0.5,2
		C156.2,207.4,220.6,207.4,224.4,206.9z M338.6,140.6c-1.2,0.3-2.2,0.4-3.2,0.7c-12.2,3.7-24.4,7.5-36.6,11.2
		c-0.6,0.2-1.2,0.5-1.8,0.6c-1.3,0.4-1.8,1.3-1.9,2.6c0,0.8-0.1,1.5-0.1,2.3c0,5.9,0,11.8,0,17.7c0,4.2,0,4.2,3.9,5.4
		c12.2,3.8,24.4,7.5,36.6,11.2c1,0.3,1.9,0.4,3.1,0.7c0.1-0.7,0.3-1.2,0.3-1.7C339.2,185.5,338.9,143.8,338.6,140.6z M359.3,322.7
		c-1-0.1-1.7-0.3-2.3-0.3c-74.7,0-149.3,0-224,0.1c-0.3,0-0.7,0.3-1,0.4c-0.6,1.3-0.5,2.6-0.3,3.8c0.2,1.7,1.3,2.7,3.1,2.9
		c1.1,0.1,2.3,0.1,3.5,0.1c71.5,0,142.9,0,214.4,0c1,0,2.1,0,3.1,0c2.2-0.2,3.5-1.3,3.8-3.6C359.5,325.1,359.4,324.1,359.3,322.7z
		 M281.5,359.5c-1.4-0.1-2.5-0.2-3.6-0.2c-4.4,0-8.7,0-13.1,0c-17,0-34.1,0-51.1,0c-1.4,0-2.8-0.3-4.2,0.5c-0.4,2.1-0.5,4.2,0.1,6.6
		c1.5,0.1,2.9,0.1,4.3,0.1c15.6,0,31.3,0,46.9,0c5.9,0,11.8,0,17.7,0c1,0,2-0.2,3-0.3C282,364,282,362,281.5,359.5z M266.5,178
		c0.4,0.3,0.7,0.6,1.1,0.6c5.4,0.1,10.7,0.1,16.1,0.1c0.6,0,1.2-0.3,2-0.5c0.3-3.9,0.2-7.7,0.1-11.5c-0.1-3.8,0.4-7.6-0.3-11.5
		c-0.8-0.1-1.4-0.3-2-0.3c-4.9,0-9.7,0-14.6,0c-0.4,0-0.8-0.1-1.1,0.1c-0.5,0.3-1.1,0.7-1.3,1.2c-0.2,0.7-0.2,1.5-0.2,2.3
		c0,5.6,0,11.3,0,16.9C266.3,176.2,266.4,177.1,266.5,178z M252.6,339.1c-4.3-0.3-8.5-0.2-12.7-0.1c-0.6,0-1.2,0.3-1.9,0.5
		c-0.4,1.9-0.3,3.7-0.2,5.5c0.1,1.7-0.5,3.6,0.7,5.3c4.7,0.1,9.4,0.1,14,0C253.5,347.4,253.6,342.8,252.6,339.1z M271.2,188
		c-0.7,2.8-1,12.3-0.5,17.4c0,0.6,0.4,1.2,0.6,1.8c0.8,0,1.4,0,2,0c0.2,0,0.4-0.2,0.9-0.4c1.2-5.3,1.7-10.9,2.5-16.4
		c0.1-0.7-0.1-1.5-0.2-2.3C274.6,187.6,273,187.6,271.2,188z M348.7,170.3c1.2,0.1,2.2,0.2,3.2,0.1c2.1-0.2,3.3-1.6,3.3-3.5
		c0-2-1.2-3.4-3.2-3.6c-1.1-0.1-2.3-0.4-3.5,0.8C348.1,165.8,347.9,167.8,348.7,170.3z M257.2,163.6c-2.7-0.3-3.1-0.2-3.1,1.7
		c0,1.6-0.4,3.3,0.6,5c0.8-0.1,1.6-0.1,2.5-0.2C257.2,167.8,257.2,165.8,257.2,163.6z"/>
	<path class="st6" d="M196,306.2c-16.5,0-33.1,0-49.6,0c-1.2,0-2.3,0.1-3.5-0.1c-2.4-0.3-3.9-1.9-4.1-4.4c-0.1-1-0.1-2-0.1-3.1
		c0-19.9,0-39.7,0-59.6c0-0.9,0-1.8,0-2.7c0.2-2.7,1.7-4.2,4.4-4.4c1-0.1,2,0,3.1,0c33.4,0,66.9,0,100.3,0c1.2,0,2.3,0,3.5,0.1
		c2.1,0.2,3.5,1.6,3.8,3.7c0.1,0.9,0.1,1.8,0.1,2.7c0,20.4,0,40.7,0,61.1c0,0.8,0,1.5-0.1,2.3c-0.2,2.4-1.7,4-4.1,4.3
		c-1.1,0.2-2.3,0.1-3.5,0.1C229.6,306.2,212.8,306.2,196,306.2z M244.9,245c-1.7,0.2-2.7,1.1-3.8,1.7c-11.7,7.2-23.3,14.4-35,21.5
		c-2.3,1.4-4.6,2.8-6.9,4.2c-1.8,1.1-3.7,1-5.5,0c-0.9-0.5-1.8-1-2.6-1.6c-5.7-3.5-11.3-7-17-10.5c-7.7-4.8-15.5-9.5-23.2-14.3
		c-0.8-0.5-1.6-1.4-2.9-0.8c0,1.2-0.1,2.5-0.1,3.7c0,11.9,0,23.8,0,35.7c0,3.3,0,6.7,0,10c0,0.7,0.3,1.4,0.6,2.3
		c1.5,0,2.9,0.1,4.3,0.1c29.1,0,58.2,0,87.2,0c0.9,0,1.8,0.1,2.7,0c0.7-0.1,1.4-0.3,2.2-0.5C244.9,279.4,244.9,262.4,244.9,245z
		 M160.7,240.9c-0.1,0.2-0.2,0.4-0.3,0.6c12,7.4,23.9,14.7,35.8,22c0.7-0.3,1.1-0.5,1.6-0.8c11.2-6.9,22.5-13.8,33.7-20.7
		c0.4-0.2,1-0.4,0.6-1.2C208.3,240.9,184.5,240.9,160.7,240.9z"/>
	<path class="st6" d="M344.2,239.4c1,0.2,1.7,0.3,2.5,0.4c4.2,0.5,5.5,2,5.6,6.3c0,0.5,0,1,0,1.5c0,14.2,0,28.4,0,42.6
		c0,1,0,2.1-0.1,3.1c-0.3,2.9-2.4,4.6-4.8,4.5c-0.9-0.1-1.8,0-2.7,0c-21.3,0-42.5,0-63.8,0c-0.9,0-1.8,0-2.7,0
		c-2.7-0.2-4.3-1.6-4.6-4.3c-0.2-1.6-0.1-3.3-0.1-5c0-1.9-0.1-3.8-0.2-5.7c0-0.2-0.2-0.4-0.4-0.9c-1.6-0.6-3.4-0.3-5.1-0.3
		c-4.9-0.1-6.5-1.5-6.5-6.4c0-15.1,0-30.2,0-45.3c0-0.6,0-1.3,0.1-1.9c0.4-2.6,2-4.1,4.6-4.4c0.9-0.1,1.8-0.1,2.7-0.1
		c22.7,0,45.3,0,68,0c0.9,0,1.8,0,2.7,0.1c2.8,0.3,4.4,1.9,4.6,4.7c0.1,2.6,0,5.1,0.1,7.7C344,237.1,344.1,238.2,344.2,239.4z
		 M342.8,288.4c0.1-1.3,0.3-2.4,0.3-3.5c0-10.5,0-21,0-31.5c0-4.1-0.2-4.3-4.4-4.3c-7.2,0-14.4,0-21.5,0c-9.7,0-19.5,0-29.2,0
		c-1.5,0-3.1-0.2-4.5,0.5c-0.7,1.4-0.6,2.8-0.6,4.2c0,5.9,0,11.8,0,17.7c0,4.5,0,9,0,13.5c0,1.2-0.3,2.6,0.8,3.6
		C287.1,289,339.2,289,342.8,288.4z M334.6,232.9c-3.6-0.7-40.9-0.9-60.9-0.5c-0.9,0-1.7,0.2-2.5,0.3c-1,1.4-0.7,2.9-0.7,4.3
		c0,7.4,0,14.8,0,22.3c0,3.3,0,6.7,0,10c0,0.9,0.1,1.8,0.4,2.6c0.1,0.3,0.8,0.6,1.2,0.6c0.4,0,1.1-0.4,1.2-0.7c0.2-1,0.2-2,0.2-3
		c0-7,0-14.1,0-21.1c0-1,0-2.1,0.1-3.1c0.3-2.6,1.7-4.2,4.3-4.6c1.1-0.2,2.3-0.2,3.4-0.2c9.1,0,18.2,0,27.2,0c7.4,0,14.8,0,22.3,0
		c1.2,0,2.6,0.3,3.9-0.8C334.9,237.1,335.1,235.1,334.6,232.9z"/>
	<path class="st6" d="M175.7,178.7c0-3.2,0-6.4,0-9.6c0-0.9,0-1.8,0.1-2.7c0.3-3,2.8-4.7,5.8-3.8c0.7,0.2,1.4,0.6,2.1,0.9
		c7.2,3.6,14.4,7.2,21.6,10.8c0.5,0.2,0.9,0.5,1.3,0.7c3.4,2.2,3.3,5.9-0.2,8c-0.3,0.2-0.7,0.4-1,0.6c-7.3,3.7-14.6,7.3-22,11
		c-1.2,0.6-2.3,1-3.7,0.9c-2.1-0.1-3.7-1.4-4-3.4c-0.2-0.9-0.1-1.8-0.1-2.7C175.7,185.9,175.7,182.3,175.7,178.7z M193.6,179.4
		c-0.1-0.8-0.7-1.1-1.2-1.4c-1.9-1-3.9-2-5.8-2.9c-0.5-0.2-1.1-0.2-1.9-0.4c0,1.7,0,3.1,0,4.5c0.1,1.3-0.3,2.8,0.6,4.3
		C188.2,182.3,190.9,181,193.6,179.4z"/>
	<path class="st6" d="M335.2,265c-0.8,0.1-1.4,0.3-2,0.3c-8.2,0-16.4,0-24.6,0c-0.5,0-1-0.2-1.4-0.3c-0.9-2.5-1-3.9-0.4-8.1
		c0.6-0.1,1.3-0.4,2.1-0.4c8.2,0,16.4,0,24.6,0c0.6,0,1.2,0.2,1.8,0.3C336.1,259.9,336.1,261.5,335.2,265z"/>
	<path class="st6" d="M314.9,281.2c-0.6-2.8-0.8-5.4,0-8c3-0.7,17.1-0.7,20.4-0.1c0.8,2.7,0.9,5.4-0.1,8.1
		C332,281.7,318.5,281.8,314.9,281.2z"/>
	<path class="st6" d="M306.9,273.2c0.3,2.7,0.5,5.2-0.1,7.7c-2.6,0.9-11,1-16.2,0.3c-1.2-2.7-1-5.5-0.1-8.2
		C294.4,272.4,303.7,272.5,306.9,273.2z"/>
	<path class="st6" d="M290.4,264.9c-0.7-2.9-0.8-5.5,0.1-8.2c2.7-0.6,5.3-0.5,8,0c1,2.4,0.7,4.8,0.4,7.2c-0.1,0.8-0.8,1.3-1.7,1.3
		C295.1,265.3,292.9,265.6,290.4,264.9z"/>
</g>
</svg>
