<?xml version="1.0" encoding="utf-8"?>
<!-- Generator: Adobe Illustrator 23.0.5, SVG Export Plug-In . SVG Version: 6.00 Build 0)  -->
<svg version="1.1" id="Layer_1" xmlns="http://www.w3.org/2000/svg" xmlns:xlink="http://www.w3.org/1999/xlink" x="0px" y="0px"
	 viewBox="0 0 372.7 498.9" style="enable-background:new 0 0 372.7 498.9;" xml:space="preserve">
<style type="text/css">
	.st0{fill:#288936;}
	.st1{fill:#FFFFFF;}
</style>
<g id="BACKGROUND">
</g>
<path class="st0" d="M372.7,498.9c-124.4,0-248.5,0-372.7,0C0,332.6,0,166.4,0,0c124.2,0,248.5,0,372.7,0
	C372.7,166.3,372.7,332.6,372.7,498.9z"/>
<g>
	<path class="st1" d="M46.9,74c3.2,0,5.9,1,8,3.1c2.2,2.1,3.2,4.7,3.2,7.9c0,3.2-1.1,5.9-3.2,7.9c-2.2,2.1-4.8,3.1-8,3.1h-4.2v9.5
		h-8.1V74H46.9z M46.9,88.4c0.9,0,1.7-0.3,2.3-0.9c0.6-0.6,0.9-1.4,0.9-2.4c0-1-0.3-1.8-0.9-2.4c-0.6-0.6-1.4-0.9-2.3-0.9h-4.2v6.7
		H46.9z"/>
	<path class="st1" d="M76,83h7.5v22.5H76v-2.1c-1.5,1.8-3.7,2.7-6.4,2.7c-3,0-5.5-1.1-7.5-3.4c-2-2.3-3-5.1-3-8.5c0-3.4,1-6.2,3-8.5
		c2-2.3,4.5-3.4,7.5-3.4c2.7,0,4.9,0.9,6.4,2.7V83z M67.8,97.8c0.9,0.9,2,1.3,3.4,1.3s2.5-0.4,3.4-1.3c0.9-0.9,1.3-2.1,1.3-3.6
		c0-1.5-0.4-2.7-1.3-3.6c-0.9-0.9-2-1.3-3.4-1.3s-2.6,0.4-3.4,1.3c-0.9,0.9-1.3,2.1-1.3,3.6C66.5,95.7,67,96.9,67.8,97.8z"/>
	<path class="st1" d="M102,83h8.3l-7.7,22.1c-1.2,3.4-2.9,5.8-5.1,7.3c-2.2,1.5-5,2.2-8.5,2v-7c1.6,0,2.8-0.2,3.6-0.6
		c0.8-0.4,1.5-1.1,2-2.1l-9-21.8H94l4.5,13L102,83z"/>
	<path class="st1" d="M136.9,83h8.3l-7.7,22.1c-1.2,3.4-2.9,5.8-5.1,7.3c-2.2,1.5-5,2.2-8.5,2v-7c1.6,0,2.8-0.2,3.6-0.6
		c0.8-0.4,1.5-1.1,2-2.1l-9-21.8h8.4l4.5,13L136.9,83z"/>
	<path class="st1" d="M157.3,106.1c-3.3,0-6.2-1.1-8.5-3.4c-2.3-2.3-3.5-5.1-3.5-8.4s1.2-6.1,3.5-8.4c2.3-2.3,5.2-3.4,8.5-3.4
		c3.4,0,6.2,1.1,8.5,3.4c2.3,2.3,3.5,5.1,3.5,8.4s-1.2,6.1-3.5,8.4C163.5,105,160.6,106.1,157.3,106.1z M157.3,98.9
		c1.3,0,2.4-0.4,3.3-1.3c0.9-0.9,1.3-2,1.3-3.4c0-1.4-0.4-2.5-1.3-3.4c-0.9-0.9-1.9-1.3-3.3-1.3c-1.3,0-2.4,0.4-3.2,1.3
		c-0.9,0.9-1.3,2-1.3,3.4c0,1.4,0.4,2.5,1.3,3.4C154.9,98.5,156,98.9,157.3,98.9z"/>
	<path class="st1" d="M186.9,83h7.5v22.5h-7.5v-2.3c-1.3,1.9-3.4,2.9-6.3,2.9c-2.4,0-4.4-0.8-6-2.5c-1.5-1.7-2.3-4.1-2.3-7.2V83h7.5
		v12.5c0,1.2,0.3,2.1,0.9,2.7c0.6,0.6,1.4,0.9,2.5,0.9c1.2,0,2.1-0.4,2.7-1.1c0.6-0.7,1-1.7,1-3V83z"/>
	<path class="st1" d="M206.1,87.2c0.4-1.5,1.3-2.6,2.5-3.4c1.3-0.8,2.7-1.2,4.2-1.2v8.3c-1.7-0.3-3.3,0-4.7,0.9s-2.1,2.4-2.1,4.4
		v9.3h-7.5V83h7.5V87.2z"/>
	<path class="st1" d="M41.1,139c0.7,1.8,2.4,2.7,5,2.7c1.6,0,3-0.5,4.1-1.6l5.4,3.8c-2.2,2.8-5.4,4.2-9.7,4.2
		c-3.8,0-6.9-1.1-9.2-3.4c-2.3-2.2-3.4-5.1-3.4-8.5c0-3.4,1.1-6.2,3.4-8.5c2.3-2.3,5.1-3.4,8.6-3.4c3.4,0,6.1,1.1,8.3,3.4
		c2.2,2.3,3.3,5.1,3.3,8.5c0,1-0.1,1.9-0.3,2.8H41.1z M41,133.8h8.6c-0.6-2.1-2-3.1-4.2-3.1C43.1,130.7,41.6,131.7,41,133.8z"/>
	<path class="st1" d="M60.1,147.5v-32.9h7.5v32.9H60.1z"/>
	<path class="st1" d="M78.5,139c0.7,1.8,2.4,2.7,5,2.7c1.6,0,3-0.5,4.1-1.6L93,144c-2.2,2.8-5.4,4.2-9.7,4.2c-3.8,0-6.9-1.1-9.2-3.4
		c-2.3-2.2-3.4-5.1-3.4-8.5c0-3.4,1.1-6.2,3.4-8.5c2.3-2.3,5.1-3.4,8.6-3.4c3.4,0,6.1,1.1,8.3,3.4c2.2,2.3,3.3,5.1,3.3,8.5
		c0,1-0.1,1.9-0.3,2.8H78.5z M78.4,133.8H87c-0.6-2.1-2-3.1-4.2-3.1C80.5,130.7,79,131.7,78.4,133.8z"/>
	<path class="st1" d="M108.3,148.1c-3.4,0-6.3-1.1-8.5-3.4c-2.3-2.3-3.4-5.1-3.4-8.5c0-3.4,1.1-6.2,3.4-8.5c2.3-2.3,5.1-3.4,8.5-3.4
		c2.2,0,4.2,0.5,6.1,1.6c1.8,1.1,3.2,2.5,4.2,4.2l-6.4,3.7c-0.8-1.5-2.1-2.2-3.9-2.2c-1.3,0-2.3,0.4-3.1,1.3c-0.8,0.9-1.3,2-1.3,3.3
		s0.4,2.5,1.3,3.3c0.8,0.9,1.9,1.3,3.1,1.3c1.9,0,3.2-0.7,3.9-2.3l6.4,3.7c-1,1.8-2.4,3.2-4.2,4.3
		C112.6,147.6,110.5,148.1,108.3,148.1z"/>
	<path class="st1" d="M134.9,132.2h-4.7v6.5c0,1,0.4,1.6,1.1,1.8c0.7,0.2,1.9,0.3,3.6,0.2v6.8c-4.5,0.5-7.6,0.1-9.4-1.2
		c-1.8-1.4-2.7-3.8-2.7-7.4v-6.7h-3.4V125h3.4v-4l7.5-2.3v6.3h4.7V132.2z"/>
	<path class="st1" d="M146.2,129.2c0.4-1.5,1.3-2.6,2.5-3.4c1.3-0.8,2.7-1.2,4.2-1.2v8.3c-1.7-0.3-3.3,0-4.7,0.9s-2.1,2.4-2.1,4.4
		v9.3h-7.5V125h7.5V129.2z"/>
	<path class="st1" d="M162.5,121.9c-0.9,0.9-1.9,1.3-3,1.3s-2.2-0.4-3-1.3s-1.3-1.9-1.3-3s0.4-2.2,1.3-3c0.9-0.8,1.9-1.3,3-1.3
		s2.2,0.4,3,1.3c0.9,0.8,1.3,1.8,1.3,3S163.4,121,162.5,121.9z M155.8,147.5V125h7.5v22.5H155.8z"/>
	<path class="st1" d="M178.4,148.1c-3.4,0-6.3-1.1-8.5-3.4c-2.3-2.3-3.4-5.1-3.4-8.5c0-3.4,1.1-6.2,3.4-8.5c2.3-2.3,5.1-3.4,8.5-3.4
		c2.2,0,4.2,0.5,6.1,1.6c1.8,1.1,3.2,2.5,4.2,4.2l-6.4,3.7c-0.8-1.5-2.1-2.2-3.9-2.2c-1.3,0-2.3,0.4-3.1,1.3c-0.8,0.9-1.3,2-1.3,3.3
		s0.4,2.5,1.3,3.3c0.8,0.9,1.9,1.3,3.1,1.3c1.9,0,3.2-0.7,3.9-2.3l6.4,3.7c-1,1.8-2.4,3.2-4.2,4.3
		C182.6,147.6,180.6,148.1,178.4,148.1z"/>
	<path class="st1" d="M197.8,121.9c-0.9,0.9-1.9,1.3-3,1.3s-2.2-0.4-3-1.3s-1.3-1.9-1.3-3s0.4-2.2,1.3-3c0.9-0.8,1.9-1.3,3-1.3
		s2.2,0.4,3,1.3c0.9,0.8,1.3,1.8,1.3,3S198.7,121,197.8,121.9z M191,147.5V125h7.5v22.5H191z"/>
	<path class="st1" d="M216.8,132.2h-4.7v6.5c0,1,0.4,1.6,1.1,1.8c0.7,0.2,1.9,0.3,3.6,0.2v6.8c-4.5,0.5-7.6,0.1-9.4-1.2
		c-1.8-1.4-2.7-3.8-2.7-7.4v-6.7h-3.4V125h3.4v-4l7.5-2.3v6.3h4.7V132.2z"/>
	<path class="st1" d="M234.8,125h8.3l-7.7,22.1c-1.2,3.4-2.9,5.8-5.1,7.3c-2.2,1.5-5,2.2-8.5,2v-7c1.6,0,2.8-0.2,3.6-0.6
		c0.8-0.4,1.5-1.1,2-2.1l-9-21.8h8.4l4.5,13L234.8,125z"/>
	<path class="st1" d="M269.3,124.4c3,0,5.5,1.1,7.5,3.4c2,2.3,3,5.1,3,8.5c0,3.4-1,6.2-3,8.5c-2,2.3-4.5,3.4-7.5,3.4
		c-2.7,0-4.9-0.9-6.4-2.7v2.1h-7.5V116h7.5v11.1C264.5,125.3,266.6,124.4,269.3,124.4z M264.3,139.8c0.9,0.9,2,1.3,3.4,1.3
		c1.4,0,2.5-0.4,3.4-1.3c0.9-0.9,1.3-2.1,1.3-3.6c0-1.5-0.4-2.7-1.3-3.6c-0.9-0.9-2-1.3-3.4-1.3c-1.4,0-2.6,0.4-3.4,1.3
		c-0.9,0.9-1.3,2.1-1.3,3.6C262.9,137.7,263.4,138.9,264.3,139.8z"/>
	<path class="st1" d="M289.9,121.9c-0.9,0.9-1.9,1.3-3,1.3s-2.2-0.4-3-1.3s-1.3-1.9-1.3-3s0.4-2.2,1.3-3c0.9-0.8,1.9-1.3,3-1.3
		s2.2,0.4,3,1.3c0.9,0.8,1.3,1.8,1.3,3S290.8,121,289.9,121.9z M283.2,147.5V125h7.5v22.5H283.2z"/>
	<path class="st1" d="M294.9,147.5v-32.9h7.5v32.9H294.9z"/>
	<path class="st1" d="M306.7,147.5v-32.9h7.5v32.9H306.7z"/>
</g>
<g id="ELEMENTS">
	<g>
		<path class="st1" d="M105.2,267.9c0.7-0.6,1.5-1.2,2.3-1.8c4.2-3.8,8.4-7.6,12.7-11.3c0.7-0.7,1.5-1.4,2.4-1.9
			c3.1-2.1,7.3-2.1,10.3,0c0.8,0.6,1.6,1.3,2.4,1.9c4.2,3.7,8.3,7.4,12.5,11.1c0.8,0.7,1.5,1.7,2.6,2c1.1-0.2,1.8-1.1,2.5-1.7
			c2.9-2.5,5.8-5.1,8.7-7.7c0.7-0.6,1.4-1.2,2.1-1.7c6.3-4,13.4,0.6,14,6.7c0.1,0.9,0.1,1.8,0.1,2.7c0,53.4,0,106.8,0,160.2
			c0,0.7,0,1.4,0,2.1c-0.3,3.5-2,6.2-5.2,7.7c-3.3,1.5-6.5,1.2-9.5-1c-0.7-0.5-1.2-1.1-1.8-1.6c-2.7-2.4-5.5-4.9-8.2-7.3
			c-0.7-0.7-1.5-1.3-2.2-1.8c-1.3,0.2-1.9,1.1-2.6,1.7c-4.2,3.7-8.3,7.4-12.5,11.1c-0.7,0.7-1.5,1.4-2.3,2c-3.4,2.5-7.6,2.6-11,0.1
			c-0.8-0.6-1.6-1.3-2.3-2c-4.2-3.7-8.3-7.4-12.5-11.2c-0.7-0.7-1.5-1.3-2.5-2c-1,0.8-1.8,1.5-2.7,2.2c-4.3,3.9-8.7,7.6-12.9,11.6
			c-4.4,4.2-9.9,4.1-14.1,0c-4.2-4-8.6-7.7-12.9-11.6c-0.8-0.7-1.7-1.4-2.5-2.1c-1.3,0.2-1.9,1.1-2.7,1.7c-3.2,2.8-6.4,5.6-9.6,8.4
			c-1.9,1.7-4.1,2.5-6.7,2.4c-4-0.2-7.4-2.9-8.4-6.8c-0.2-1-0.3-2-0.4-3c0-1,0-2,0-3c0-52.1,0-104.2,0-156.3c0-1.5,0-3.1,0.1-4.6
			c0.6-4.4,3.6-7.4,7.9-8c2.2-0.3,4.2,0.2,6.1,1.4c0.7,0.5,1.4,1.1,2.1,1.7c2.8,2.5,5.6,4.9,8.4,7.4c0.7,0.7,1.5,1.3,2.2,1.8
			c1.4,0,2-0.9,2.7-1.6c4.2-3.8,8.5-7.6,12.7-11.3c0.6-0.5,1.2-1.1,1.8-1.6c3.6-2.8,8.2-2.8,11.8,0.1c1.4,1.1,2.6,2.3,3.9,3.4
			c3.5,3.1,7,6.2,10.5,9.3C103.3,266.7,103.9,267.5,105.2,267.9z M42.2,265.9c-0.6,1.5-0.4,2.8-0.4,4.1c0,50.7,0,101.4,0,152.1
			c0,0.9,0,1.8,0,2.8c0,0.5,0.2,0.9,0.3,1.4c1.1,0,1.6-0.7,2.2-1.2c2.5-2.2,5-4.5,7.5-6.7c0.7-0.7,1.5-1.4,2.3-2
			c3.4-2.5,7.7-2.5,11,0c0.7,0.5,1.2,1.1,1.8,1.6c4.2,3.8,8.4,7.6,12.7,11.3c0.8,0.7,1.5,1.7,2.8,1.9c0.8-0.7,1.6-1.4,2.5-2.1
			c4.2-3.7,8.3-7.4,12.5-11.2c0.7-0.6,1.4-1.2,2.1-1.8c3.3-2.4,7.5-2.3,10.8,0.1c0.9,0.7,1.7,1.4,2.5,2.1c4.1,3.6,8.1,7.3,12.3,10.9
			c0.7,0.7,1.5,1.3,2.5,2c0.9-0.7,1.7-1.4,2.5-2c4.2-3.8,8.4-7.6,12.7-11.3c0.7-0.7,1.5-1.4,2.3-2c3.1-2.2,7.1-2.2,10.3-0.1
			c0.8,0.6,1.6,1.3,2.4,1.9c2.8,2.5,5.6,5,8.4,7.4c0.4,0.4,1,0.6,1.5,0.9c0.7-1.5,0.5-3,0.5-4.4c0-50.5,0-101-0.1-151.4c0-1,0-2,0-3
			c0-0.4-0.2-0.9-0.4-1.6c-0.8,0.6-1.4,0.9-1.9,1.4c-2.6,2.3-5.2,4.6-7.7,6.9c-0.7,0.6-1.4,1.2-2.1,1.8c-3.4,2.6-7.8,2.6-11.3,0
			c-0.7-0.5-1.2-1.1-1.8-1.6c-4.2-3.7-8.3-7.4-12.5-11.1c-0.8-0.7-1.5-1.6-2.8-2c-1.1,0.4-1.8,1.2-2.6,1.9
			c-4.1,3.6-8.1,7.3-12.3,10.9c-0.7,0.6-1.4,1.2-2.1,1.8c-3.5,2.6-7.8,2.6-11.3,0c-0.8-0.6-1.5-1.3-2.3-2
			c-4.1-3.6-8.1-7.3-12.3-10.9c-0.7-0.7-1.5-1.3-2.2-1.8c-1.3,0.2-2,1.1-2.7,1.7c-4.4,3.9-8.9,7.7-13.1,11.8
			c-4.2,4.1-10.1,4.2-14.4,0c-2.7-2.6-5.6-5-8.4-7.5C43.5,266.7,42.9,266.4,42.2,265.9z"/>
		<path class="st1" d="M104.9,341.5c13.2,0,26.4,0,39.5,0c1.1,0,2.2,0,3.3,0.1c2.4,0.4,4,2.3,4,4.6c0,2.2-1.5,4.1-3.8,4.5
			c-1.2,0.2-2.4,0.2-3.6,0.2c-9.7,0-19.4,0-29.2,0c-16.3,0-32.6,0-48.9,0c-1.2,0-2.5,0-3.6-0.1c-2.7-0.4-4.3-2.2-4.3-4.6
			c0-2.6,1.8-4.4,4.6-4.6c1-0.1,2,0,3,0C78.9,341.5,91.9,341.5,104.9,341.5z"/>
		<path class="st1" d="M104.9,377.5c-13.1,0-26.1,0-39.2,0c-1.1,0-2.2,0-3.3-0.1c-2.4-0.3-4-2.2-4-4.6c0-2.4,1.6-4.2,4-4.6
			c0.9-0.1,1.8-0.1,2.7-0.1c26.7,0,53.3,0,79.9,0c0.9,0,1.8,0,2.7,0.1c2.4,0.4,4,2.2,4.1,4.6c0,2.3-1.7,4.3-4,4.6
			c-1.1,0.1-2.2,0.1-3.3,0.1C131.2,377.5,118,377.5,104.9,377.5z"/>
		<path class="st1" d="M84.8,324.3c-6.6,0-13.1,0-19.7,0c-1,0-2.1,0-3-0.2c-2.3-0.5-3.7-2.3-3.8-4.5c0-2.4,1.5-4.2,3.9-4.7
			c0.8-0.1,1.6-0.1,2.4-0.1c13.6,0,27.1,0,40.7,0c0.8,0,1.6,0,2.4,0.1c2.4,0.4,4,2.3,4.1,4.6c0,2.3-1.6,4.2-4,4.7
			c-1,0.2-2,0.2-3,0.2C98.1,324.3,91.4,324.3,84.8,324.3z"/>
	</g>
</g>
</svg>
