<?xml version="1.0" encoding="utf-8"?>
<!-- Generator: Adobe Illustrator 23.0.5, SVG Export Plug-In . SVG Version: 6.00 Build 0)  -->
<svg version="1.1" id="Layer_1" xmlns="http://www.w3.org/2000/svg" xmlns:xlink="http://www.w3.org/1999/xlink" x="0px" y="0px"
	 viewBox="0 0 392.7 523.9" style="enable-background:new 0 0 392.7 523.9;" xml:space="preserve">
<style type="text/css">
	.st0{fill:#288936;}
	.st1{fill:#FFFFFF;}
</style>
<g id="BACKGROUND">
</g>
<path class="st0" d="M392.7,523.9c-131.1,0-261.9,0-392.7,0C0,349.3,0,174.7,0,0c130.9,0,261.8,0,392.7,0
	C392.7,174.6,392.7,349.3,392.7,523.9z"/>
<g>
	<path class="st1" d="M51.4,65.9c3.3,0,6,1,8.2,3.1c2.2,2.1,3.3,4.8,3.3,8.2s-1.1,6.2-3.3,8.2c-2.2,2.1-4.9,3.1-8.2,3.1h-3.6v8.9h-9
		V65.9H51.4z M51.4,79.8c0.7,0,1.3-0.2,1.8-0.7c0.5-0.5,0.7-1.1,0.7-1.9s-0.2-1.4-0.7-1.9c-0.5-0.5-1.1-0.7-1.8-0.7h-3.6v5.1H51.4z"
		/>
	<path class="st1" d="M80,74.9h8.3v22.5H80v-2c-1.4,1.8-3.5,2.7-6,2.7c-3,0-5.5-1.1-7.4-3.4c-1.9-2.3-2.9-5.1-2.9-8.5s1-6.3,2.9-8.5
		c1.9-2.3,4.4-3.4,7.4-3.4c2.6,0,4.6,0.9,6,2.7V74.9z M73.1,89.2c0.7,0.8,1.7,1.2,2.9,1.2c1.2,0,2.2-0.4,2.9-1.2
		c0.7-0.8,1.1-1.8,1.1-3s-0.4-2.2-1.1-3c-0.7-0.8-1.7-1.2-2.9-1.2c-1.2,0-2.2,0.4-2.9,1.2c-0.7,0.8-1.1,1.8-1.1,3
		S72.4,88.4,73.1,89.2z"/>
	<path class="st1" d="M106.4,74.9h9.4l-7.6,22.5c-1.1,3.3-2.8,5.6-5.2,7.1c-2.3,1.5-5.4,2.1-9.3,2v-7.9c1.5,0,2.7-0.1,3.5-0.3
		c0.8-0.2,1.5-0.6,1.9-1.2l-9-22h9.5l4,12L106.4,74.9z"/>
	<path class="st1" d="M152.5,74.9h8.8l-6.5,22.5h-8.5l-2.8-10.6l-2.8,10.6h-8.5l-6.5-22.5h8.8l2.6,12.5l3.2-12.5h6.3l3.2,12.5
		L152.5,74.9z"/>
	<path class="st1" d="M168.1,73.2c-1.3,0-2.3-0.5-3.3-1.4c-0.9-0.9-1.4-2-1.4-3.2s0.5-2.3,1.4-3.2c0.9-0.9,2-1.4,3.3-1.4
		c1.2,0,2.3,0.5,3.2,1.4c0.9,0.9,1.4,2,1.4,3.2s-0.5,2.3-1.4,3.2C170.4,72.7,169.4,73.2,168.1,73.2z M164,97.4V74.9h8.3v22.5H164z"
		/>
	<path class="st1" d="M190.7,82.8H186v4.9c0,0.8,0.2,1.3,0.5,1.7c0.4,0.4,0.9,0.6,1.6,0.6c0.7,0,1.6,0,2.6,0v7.5
		c-4.7,0.7-8.1,0.3-10.1-1.2c-2-1.5-3-4.2-3-8.1v-5.3h-3.1v-7.9h3.1v-3.8l8.3-2.5v6.3h4.7V82.8z"/>
	<path class="st1" d="M208,74.3c2.5,0,4.4,0.8,5.9,2.5c1.5,1.7,2.2,4.2,2.2,7.6v13h-8.3V85.3c0-2-0.9-3-2.8-3c-1,0-1.7,0.3-2.3,0.9
		c-0.5,0.6-0.8,1.5-0.8,2.6v11.6h-8.3V65.9h8.3v11.2C203.4,75.2,205.4,74.3,208,74.3z"/>
	<path class="st1" d="M52.8,122.9h9.4l-7.6,22.5c-1.1,3.3-2.8,5.6-5.2,7.1c-2.3,1.5-5.4,2.1-9.3,2v-7.9c1.5,0,2.7-0.1,3.5-0.3
		c0.8-0.2,1.5-0.6,1.9-1.2l-9-22H46l4,12L52.8,122.9z"/>
	<path class="st1" d="M74,146c-3.4,0-6.2-1.1-8.6-3.4c-2.4-2.3-3.5-5.1-3.5-8.5c0-3.4,1.2-6.2,3.5-8.5c2.3-2.3,5.2-3.4,8.6-3.4
		c3.4,0,6.3,1.1,8.6,3.4c2.3,2.3,3.5,5.1,3.5,8.5c0,3.4-1.2,6.2-3.5,8.5C80.3,144.9,77.4,146,74,146z M71.3,137
		c0.7,0.7,1.6,1.1,2.7,1.1c1.1,0,2-0.4,2.7-1.1c0.7-0.7,1.1-1.7,1.1-2.9s-0.4-2.1-1.1-2.9c-0.7-0.7-1.6-1.1-2.7-1.1
		c-1.1,0-2,0.4-2.7,1.1c-0.7,0.7-1.1,1.7-1.1,2.9S70.6,136.3,71.3,137z"/>
	<path class="st1" d="M102.7,122.9h8.3v22.5h-8.3v-2.2c-1.4,1.9-3.4,2.8-6,2.8c-2.5,0-4.4-0.8-5.9-2.5c-1.5-1.7-2.2-4.2-2.2-7.6v-13
		h8.3V135c0,2,0.9,3,2.8,3c1,0,1.7-0.3,2.3-0.9c0.5-0.6,0.8-1.5,0.8-2.6V122.9z"/>
	<path class="st1" d="M122.9,127.3c0.4-1.5,1.2-2.7,2.5-3.6c1.2-0.8,2.7-1.3,4.3-1.3v9c-1.8-0.2-3.4,0.1-4.7,1.1s-2,2.5-2,4.5v8.4
		h-8.3v-22.5h8.3V127.3z"/>
	<path class="st1" d="M156.5,113.9h8.3v31.5h-8.3v-2c-1.4,1.8-3.5,2.7-6,2.7c-3,0-5.5-1.1-7.4-3.4c-1.9-2.3-2.9-5.1-2.9-8.5
		s1-6.3,2.9-8.5c1.9-2.3,4.4-3.4,7.4-3.4c2.6,0,4.6,0.9,6,2.7V113.9z M149.6,137.2c0.7,0.8,1.7,1.2,2.9,1.2c1.2,0,2.2-0.4,2.9-1.2
		c0.7-0.8,1.1-1.8,1.1-3s-0.4-2.2-1.1-3c-0.7-0.8-1.7-1.2-2.9-1.2c-1.2,0-2.2,0.4-2.9,1.2c-0.7,0.8-1.1,1.8-1.1,3
		S148.8,136.4,149.6,137.2z"/>
	<path class="st1" d="M175.7,137c0.7,1.5,2.3,2.3,4.6,2.3c1.4,0,2.7-0.5,3.8-1.4l5.4,4.6c-2.3,2.4-5.4,3.6-9.5,3.6
		c-3.8,0-6.9-1.1-9.2-3.4c-2.3-2.2-3.5-5-3.5-8.4c0-3.4,1.1-6.3,3.4-8.5c2.3-2.3,5.1-3.4,8.6-3.4c3.4,0,6.2,1.1,8.4,3.4
		c2.2,2.2,3.3,5,3.3,8.4c0,1-0.1,2-0.4,2.9H175.7z M175.6,131.6h7.6c-0.5-1.8-1.7-2.7-3.6-2.7C177.6,128.9,176.3,129.8,175.6,131.6z
		"/>
	<path class="st1" d="M207.9,122.3c3,0,5.5,1.1,7.4,3.4c1.9,2.3,2.9,5.1,2.9,8.5s-1,6.3-2.9,8.5c-1.9,2.3-4.4,3.4-7.4,3.4
		c-2.6,0-4.6-0.9-6-2.7v2h-8.3v-31.5h8.3v11C203.3,123.2,205.3,122.3,207.9,122.3z M203,137.2c0.7,0.8,1.7,1.2,2.9,1.2
		c1.2,0,2.2-0.4,2.9-1.2c0.7-0.8,1.1-1.8,1.1-3s-0.4-2.2-1.1-3c-0.7-0.8-1.7-1.2-2.9-1.2c-1.2,0-2.2,0.4-2.9,1.2
		c-0.7,0.8-1.1,1.8-1.1,3S202.2,136.4,203,137.2z"/>
	<path class="st1" d="M225,121.2c-1.3,0-2.3-0.5-3.3-1.4c-0.9-0.9-1.4-2-1.4-3.2s0.5-2.3,1.4-3.2c0.9-0.9,2-1.4,3.3-1.4
		c1.2,0,2.3,0.5,3.2,1.4c0.9,0.9,1.4,2,1.4,3.2s-0.5,2.3-1.4,3.2C227.3,120.7,226.2,121.2,225,121.2z M220.8,145.4v-22.5h8.3v22.5
		H220.8z"/>
	<path class="st1" d="M247.6,130.8h-4.7v4.9c0,0.8,0.2,1.3,0.5,1.7c0.4,0.4,0.9,0.6,1.6,0.6c0.7,0,1.6,0,2.6,0v7.5
		c-4.7,0.7-8.1,0.3-10.1-1.2c-2-1.5-3-4.2-3-8.1v-5.3h-3.1v-7.9h3.1v-3.8l8.3-2.5v6.3h4.7V130.8z"/>
	<path class="st1" d="M253.4,149.9l-3.6,0l18-40.5l3.6,0L253.4,149.9z"/>
	<path class="st1" d="M49.4,194c-3.5,0-6.3-1.1-8.6-3.4c-2.3-2.3-3.4-5.1-3.4-8.5c0-3.4,1.1-6.2,3.4-8.5c2.3-2.3,5.1-3.4,8.6-3.4
		c2.2,0,4.3,0.5,6.1,1.6c1.8,1.1,3.3,2.5,4.3,4.3l-7,4c-0.8-1.3-1.9-1.9-3.3-1.9c-1.1,0-1.9,0.4-2.6,1.1c-0.7,0.7-1.1,1.7-1.1,2.8
		c0,1.1,0.4,2,1.1,2.8c0.7,0.7,1.6,1.1,2.6,1.1c1.6,0,2.7-0.6,3.3-1.9l7,4.1c-1,1.8-2.4,3.3-4.3,4.3C53.6,193.5,51.6,194,49.4,194z"
		/>
	<path class="st1" d="M69.9,175.3c0.4-1.5,1.2-2.7,2.5-3.6c1.2-0.8,2.7-1.3,4.3-1.3v9c-1.8-0.2-3.4,0.1-4.7,1.1s-2,2.5-2,4.5v8.4
		h-8.3v-22.5h8.3V175.3z"/>
	<path class="st1" d="M86.1,185c0.7,1.5,2.3,2.3,4.6,2.3c1.4,0,2.7-0.5,3.8-1.4l5.4,4.6c-2.3,2.4-5.4,3.6-9.5,3.6
		c-3.8,0-6.9-1.1-9.2-3.4c-2.3-2.2-3.5-5-3.5-8.4c0-3.4,1.1-6.3,3.4-8.5c2.3-2.3,5.1-3.4,8.6-3.4c3.4,0,6.2,1.1,8.4,3.4
		c2.2,2.2,3.3,5,3.3,8.4c0,1-0.1,2-0.4,2.9H86.1z M85.9,179.6h7.6c-0.5-1.8-1.7-2.7-3.6-2.7C87.9,176.9,86.6,177.8,85.9,179.6z"/>
	<path class="st1" d="M119.3,161.9h8.3v31.5h-8.3v-2c-1.4,1.8-3.5,2.7-6,2.7c-3,0-5.5-1.1-7.4-3.4c-1.9-2.3-2.9-5.1-2.9-8.5
		s1-6.3,2.9-8.5c1.9-2.3,4.4-3.4,7.4-3.4c2.6,0,4.6,0.9,6,2.7V161.9z M112.4,185.2c0.7,0.8,1.7,1.2,2.9,1.2c1.2,0,2.2-0.4,2.9-1.2
		c0.7-0.8,1.1-1.8,1.1-3c0-1.2-0.4-2.2-1.1-3c-0.7-0.8-1.7-1.2-2.9-1.2c-1.2,0-2.2,0.4-2.9,1.2c-0.7,0.8-1.1,1.8-1.1,3
		C111.3,183.4,111.6,184.4,112.4,185.2z"/>
	<path class="st1" d="M135.4,169.2c-1.3,0-2.3-0.5-3.3-1.4c-0.9-0.9-1.4-2-1.4-3.2c0-1.2,0.5-2.3,1.4-3.2c0.9-0.9,2-1.4,3.3-1.4
		c1.2,0,2.3,0.5,3.2,1.4c0.9,0.9,1.4,2,1.4,3.2c0,1.2-0.5,2.3-1.4,3.2C137.7,168.7,136.6,169.2,135.4,169.2z M131.2,193.4v-22.5h8.3
		v22.5H131.2z"/>
	<path class="st1" d="M158,178.8h-4.7v4.9c0,0.8,0.2,1.3,0.5,1.7c0.4,0.4,0.9,0.6,1.6,0.6c0.7,0,1.6,0,2.6,0v7.5
		c-4.7,0.7-8.1,0.3-10.1-1.2s-3-4.2-3-8.1v-5.3h-3.1v-7.9h3.1v-3.8l8.3-2.5v6.3h4.7V178.8z"/>
	<path class="st1" d="M181.1,194c-3.5,0-6.3-1.1-8.6-3.4c-2.3-2.3-3.4-5.1-3.4-8.5c0-3.4,1.1-6.2,3.4-8.5c2.3-2.3,5.1-3.4,8.6-3.4
		c2.2,0,4.3,0.5,6.1,1.6c1.8,1.1,3.3,2.5,4.3,4.3l-7,4c-0.8-1.3-1.9-1.9-3.3-1.9c-1.1,0-1.9,0.4-2.6,1.1c-0.7,0.7-1.1,1.7-1.1,2.8
		c0,1.1,0.4,2,1.1,2.8c0.7,0.7,1.6,1.1,2.6,1.1c1.6,0,2.7-0.6,3.3-1.9l7,4.1c-1,1.8-2.4,3.3-4.3,4.3
		C185.4,193.5,183.4,194,181.1,194z"/>
	<path class="st1" d="M208.4,170.9h8.3v22.5h-8.3v-2c-1.4,1.8-3.5,2.7-6,2.7c-3,0-5.5-1.1-7.4-3.4c-1.9-2.3-2.9-5.1-2.9-8.5
		s1-6.3,2.9-8.5c1.9-2.3,4.4-3.4,7.4-3.4c2.6,0,4.6,0.9,6,2.7V170.9z M201.5,185.2c0.7,0.8,1.7,1.2,2.9,1.2c1.2,0,2.2-0.4,2.9-1.2
		c0.7-0.8,1.1-1.8,1.1-3c0-1.2-0.4-2.2-1.1-3c-0.7-0.8-1.7-1.2-2.9-1.2c-1.2,0-2.2,0.4-2.9,1.2c-0.7,0.8-1.1,1.8-1.1,3
		C200.4,183.4,200.8,184.4,201.5,185.2z"/>
	<path class="st1" d="M228.7,175.3c0.4-1.5,1.2-2.7,2.5-3.6c1.2-0.8,2.7-1.3,4.3-1.3v9c-1.8-0.2-3.4,0.1-4.7,1.1s-2,2.5-2,4.5v8.4
		h-8.3v-22.5h8.3V175.3z"/>
	<path class="st1" d="M252.8,161.9h8.3v31.5h-8.3v-2c-1.4,1.8-3.5,2.7-6,2.7c-3,0-5.5-1.1-7.4-3.4c-1.9-2.3-2.9-5.1-2.9-8.5
		s1-6.3,2.9-8.5c1.9-2.3,4.4-3.4,7.4-3.4c2.6,0,4.6,0.9,6,2.7V161.9z M245.9,185.2c0.7,0.8,1.7,1.2,2.9,1.2c1.2,0,2.2-0.4,2.9-1.2
		c0.7-0.8,1.1-1.8,1.1-3c0-1.2-0.4-2.2-1.1-3c-0.7-0.8-1.7-1.2-2.9-1.2c-1.2,0-2.2,0.4-2.9,1.2c-0.7,0.8-1.1,1.8-1.1,3
		C244.8,183.4,245.1,184.4,245.9,185.2z"/>
</g>
<g id="ELEMENTS">
	<path class="st1" d="M121,406.2c-26.2,0-52.4,0-78.6,0c-0.7,0-1.4,0.1-2.1,0c-2.1-0.2-3.6-1.7-3.7-3.7c-0.1-0.7-0.1-1.4-0.1-2.1
		c0-35.3,0-70.7,0-106c0-0.5,0-1,0-1.4c0.1-2.9,1.6-4.4,4.5-4.5c0.5,0,1.1,0,1.6,0c52.3,0,104.6,0,156.8,0c0.7,0,1.5-0.1,2.2,0.1
		c2.2,0.2,3.6,1.7,3.7,3.9c0.1,0.7,0.1,1.4,0.1,2.1c0,35.3-0.1,70.5,0.1,105.8c0,4.3-1.7,6-6,6C173.5,406.1,147.2,406.2,121,406.2z
		 M44.9,397.8c50.9,0,101.6,0,152.3,0c0.4-3.3,0.3-67.1-0.1-68.5c-50.7,0-101.4,0-152.1,0C44.9,352.2,44.9,374.9,44.9,397.8z
		 M197.3,296.8c-50.9,0-101.6,0-152.2,0c-0.4,2.4-0.4,22.5,0.1,24c50.7,0,101.3,0,152.1,0C197.3,312.8,197.3,304.9,197.3,296.8z"/>
	<path class="st1" d="M85.3,409.9c2.9,0,5.4,0,8.2,0c0,11.1,0,22.1,0,33.2c46,0,91.7,0,137.4,0c0.4-1.6,0.5-97.4,0.1-99.9
		c-6.6,0-13.4,0-20.3,0c-0.1-2.8-0.1-5.3,0-8c0.5-0.1,1-0.2,1.4-0.2c7.6,0,15.1-0.1,22.7,0c3.3,0,4.7,1.4,4.8,4.8
		c0.1,3.1,0,6.2,0,9.2c0,32,0,64.1,0,96.1c0,0.7,0,1.5,0,2.2c-0.2,2.4-1.6,3.9-4,4.1c-0.5,0.1-1.1,0-1.6,0c-47.5,0-95.1,0-142.6,0
		c-0.5,0-1,0-1.4,0c-2.7-0.1-4.2-1.8-4.3-4.5c0-0.4,0-0.8,0-1.2c0-11.2,0-22.4,0-33.5C85.3,411.5,85.3,410.8,85.3,409.9z"/>
	<path class="st1" d="M57,361.4c0-2.7,0-5.2,0-7.7c1.5-0.5,62.1-0.6,64.6-0.1c0,2.5,0,5.1,0,7.9C100.1,361.4,78.6,361.4,57,361.4z"
		/>
</g>
</svg>
