<svg id="Layer_1" data-name="Layer 1" xmlns="http://www.w3.org/2000/svg" viewBox="0 0 436.58 582.83"><defs><style>.cls-1{fill:#093;}.cls-2{fill:#fff;}</style></defs><title>pay bills</title><path class="cls-1" d="M436.58,582.83H0V0H436.58Z"/><path class="cls-2" d="M83.75,72.14a17.91,17.91,0,0,1,12.74,4.79q5.12,4.8,5.11,12.78t-5.11,12.77a17.87,17.87,0,0,1-12.74,4.8h-5.6v13.86h-14v-49Zm0,21.56a3.73,3.73,0,0,0,2.73-1.09,4.33,4.33,0,0,0,0-5.81,3.76,3.76,0,0,0-2.73-1.08h-5.6v8Z"/><path class="cls-2" d="M128.27,86.14h12.95v35H128.27V118a11.43,11.43,0,0,1-9.38,4.13,14.49,14.49,0,0,1-11.55-5.25,19.65,19.65,0,0,1-4.48-13.23,19.65,19.65,0,0,1,4.48-13.23,14.49,14.49,0,0,1,11.55-5.25,11.43,11.43,0,0,1,9.38,4.13Zm-10.74,22.19a6.34,6.34,0,0,0,9,0,7.29,7.29,0,0,0,0-9.38,6.34,6.34,0,0,0-9,0,7.25,7.25,0,0,0,0,9.38Z"/><path class="cls-2" d="M169.22,86.14h14.7L172,121.07q-2.6,7.63-8.05,11t-14.42,3V122.89a21.12,21.12,0,0,0,5.46-.53,5.71,5.71,0,0,0,3-1.92l-14-34.3h14.7L165,104.83Z"/><path class="cls-2" d="M95.65,170.87a11.68,11.68,0,0,1,6.3,10.85q0,6.72-4.37,10.57t-12.71,3.85H64.15v-49H83.61q8.27,0,12.6,3.57t4.34,10.22A11.59,11.59,0,0,1,95.65,170.87ZM82.77,159.18H78.15v6.58l5.39-.07q3-.42,3-3.22A2.87,2.87,0,0,0,85.43,160,4.29,4.29,0,0,0,82.77,159.18ZM84,184.1a4.1,4.1,0,0,0,2.8-1A3.18,3.18,0,0,0,88,180.6q0-2.94-3.15-3.43l-6.65-.07v7Z"/><path class="cls-2" d="M112.31,158.48a7.29,7.29,0,0,1-7.21-7.14,6.82,6.82,0,0,1,2.14-5,7.1,7.1,0,1,1,5.07,12.14Zm-6.51,37.66v-35h13v35Z"/><path class="cls-2" d="M124.35,196.14V145h13v51.1Z"/><path class="cls-2" d="M142.9,196.14V145h12.95v51.1Z"/><path class="cls-2" d="M174,171.43c0,.56.43,1,1.3,1.33a14.53,14.53,0,0,0,3.25.74,23.47,23.47,0,0,1,4.2.94,23.91,23.91,0,0,1,4.2,1.75,8.34,8.34,0,0,1,3.26,3.32,11,11,0,0,1,1.29,5.5,11.28,11.28,0,0,1-1.5,5.88,9.77,9.77,0,0,1-4,3.78,21.31,21.31,0,0,1-5,1.85,23.13,23.13,0,0,1-5.29.6q-12.66,0-16.38-8.33l11.27-5a5,5,0,0,0,5,3.57c1.59,0,2.38-.51,2.38-1.54,0-.61-.58-1.1-1.75-1.47s-2.56-.76-4.2-1.16a34.46,34.46,0,0,1-4.93-1.6,9.71,9.71,0,0,1-6-9.35,10.31,10.31,0,0,1,4.38-8.89,16.85,16.85,0,0,1,10.11-3.15q11.49,0,15.19,8.89l-10.71,3.85c-.84-2-2.14-2.94-3.92-2.94C174.71,170,174,170.45,174,171.43Z"/><path class="cls-2" d="M196.87,336.65c-.78-2.73-1.48-5.29-1.94-7.81a2.36,2.36,0,0,1,1.6-.79l6.6-1.66a4.23,4.23,0,0,0,0-1.11c-1-4.11-2.08-8.22-3.11-12.33-.21-.84-.37-1.69-.55-2.53a3.65,3.65,0,0,1,2.08-.94c2.6-.67,5.21-1.26,7.8-2a1.87,1.87,0,0,1,2,.53c2.06,2.09,4.14,4.15,6.22,6.21l6.6,6.57c1.5.26,2.74-.52,4.08-.73a29.92,29.92,0,0,0,3.81-1,16.16,16.16,0,0,0,3.95-1.19c.17-1.45-.54-2.7-.77-4s-.68-2.66-1-4-.67-2.66-1-4-.9-2.58-.79-4a47.33,47.33,0,0,1,8.77-2.28,2.6,2.6,0,0,1,.45.71c.76,3,1.49,5.93,2.23,8.89q.74,2.91,1.48,5.8a2,2,0,0,0,.34.53c1.41-.17,2.76-.68,4.15-.93s2.57-1,4.1-.73c.83,2.29,1.21,4.69,1.85,7a3.58,3.58,0,0,1,0,1l-8,2.07a35.32,35.32,0,0,0,1.24,5.44c.47.43.89.26,1.31.15l6.17-1.55a7.25,7.25,0,0,1,.79-.09,4.86,4.86,0,0,1,.93,2.59c.22.84.46,1.68.63,2.54a8,8,0,0,1,.55,2.79,7.54,7.54,0,0,1-2.76,1c-1.32.36-2.67.63-4,1a11.53,11.53,0,0,0-1.31.51c.36,2.41,1.12,4.72,1.65,7.07a72.53,72.53,0,0,1,1.63,7.07c-.46.18-.73.32-1,.4-2.54.65-5.08,1.26-7.61,1.95a2.26,2.26,0,0,1-2.49-.72c-3.13-3.22-6.31-6.39-9.47-9.58-.52-.53-1.07-1-1.63-1.57-4.73,1.09-9.36,2.28-14.07,3.51a68.84,68.84,0,0,0,1.66,7.17c.56,2.3,1.12,4.59,1.69,7-1.44.93-3.05,1-4.53,1.37a14.27,14.27,0,0,1-4.46.91,51.11,51.11,0,0,1-1.86-6.85c-.62-2.28-1.19-4.58-1.75-6.79a2.56,2.56,0,0,0-2.12,0l-5.45,1.34c-.3.07-.6.1-1,.15-.15-.23-.36-.41-.41-.63-.56-2.41-1.37-4.77-1.71-7.2a4.56,4.56,0,0,1,2.16-.89c1.33-.33,2.68-.61,4-1a4.32,4.32,0,0,0,2-.83,15.49,15.49,0,0,0-1.45-5.45C202.49,335.12,199.88,336.27,196.87,336.65Zm18-4.21a18,18,0,0,0,1.52,5.69c1.4-.35,2.84-.69,4.28-1.06a27.36,27.36,0,0,0,4.53-1.27c-.34-.4-.56-.69-.81-.95-.9-1-1.87-1.84-2.69-2.85a2.07,2.07,0,0,0-2.77-.72,10.22,10.22,0,0,1-1.27.29A16.16,16.16,0,0,0,214.89,332.44Zm25.05-.4a22.74,22.74,0,0,0-1.63-5.39,27.94,27.94,0,0,0-6.36,1.54,24.6,24.6,0,0,0,4.48,4.94C237.5,332.7,238.8,332.85,239.94,332Zm-28.51-11.52a10,10,0,0,0,1.18,3.42l1.16-.52A9.25,9.25,0,0,0,211.43,320.52Zm31.26,20.31-.09-.1.06.23Z"/><path class="cls-2" d="M258.68,392.18c-1.84,0,1.69-1.15-48.35,18.1-28.19-50.8-34.79-128.77-34.86-129.57a6.94,6.94,0,0,0-12.68-3.29l-10,15-15-10a6.93,6.93,0,0,0-10.57,4.08l-4.55,18.19L110,296.29a6.94,6.94,0,0,0-10.57,4.09L94.9,318.57l-12.61-8.41a6.94,6.94,0,0,0-10.76,6.3c.14,1.8,3.57,44.57,16.57,88.1,12.68,42.44,36.39,91.6,80.46,91.6a34.74,34.74,0,0,0,16-3.91l74.76-30.78c3-1.24,1.76-.71,3.76-1.55,20.21-8.32,19.32-7.73,20.68-9.16,20.94-21.95,5.26-58.58-25.09-58.58Zm-80.06,87.53a22.1,22.1,0,0,0-3.36,1.49,20.64,20.64,0,0,1-6.7,1.1c-53.3,0-74.92-99.42-81.63-152.38l8.46,5.64A6.94,6.94,0,0,0,106,331.47l4.55-18.19,12.61,8.41a6.93,6.93,0,0,0,10.57-4.08l4.55-18.19,12.61,8.41a6.93,6.93,0,0,0,9.61-1.92l3.4-5.1c5.21,37.28,15.57,81.55,33.41,114.49l-31.2,12a6.93,6.93,0,0,0,2.49,13.4,20.8,20.8,0,0,1,10.06,39Zm96-39.54L202.17,470a34.66,34.66,0,0,0-13.34-36.61l71-27.32c17.09,1,25.62,21.11,14.77,34.09Z"/><path class="cls-2" d="M115.68,364l34.66-13.87a6.93,6.93,0,1,0-5.15-12.87l-34.66,13.86A6.94,6.94,0,0,0,115.68,364Z"/><path class="cls-2" d="M161.13,368.81a6.92,6.92,0,0,0-9-3.86l-34.66,13.86A6.93,6.93,0,0,0,120,392.18c1.87,0-.41.69,37.23-14.36a6.92,6.92,0,0,0,3.86-9Z"/></svg>