<?xml version="1.0" encoding="utf-8"?>
<!-- Generator: Adobe Illustrator 23.0.5, SVG Export Plug-In . SVG Version: 6.00 Build 0)  -->
<svg version="1.1" id="Layer_1" xmlns="http://www.w3.org/2000/svg" xmlns:xlink="http://www.w3.org/1999/xlink" x="0px" y="0px"
	 viewBox="0 0 392.7 523.9" style="enable-background:new 0 0 392.7 523.9;" xml:space="preserve">
<style type="text/css">
	.st0{fill:#288936;}
	.st1{fill:#FFFFFF;}
</style>
<g id="BACKGROUND">
</g>
<path class="st0" d="M392.7,523.9c-131.1,0-261.9,0-392.7,0C0,349.3,0,174.7,0,0c130.9,0,261.8,0,392.7,0
	C392.7,174.6,392.7,349.3,392.7,523.9z"/>
<g id="ELEMENTS">
	<path class="st1" d="M261.3,390.3c-1.1,2.4-2.9,3.4-5.5,3.4c-8.9-0.1-17.8,0-26.8,0c-0.6,0-1.1-0.1-1.8-0.1c0-3.1,0-6.2,0-9.5
		c8.2,0,16.4,0,24.6,0c0-24.1,0-48,0-72.2c-55.1,0-110,0-165.3,0c-0.1,1.7-0.1,3.4-0.3,5.5c-3.1,0.2-6,0.1-9.3,0.1
		c-0.1-1-0.1-1.8-0.1-2.7c0-14.3,0-28.6,0-42.8c0-4.9,1.5-6.5,6.5-6.5c31,0,62.1,0,93.1,0c25.8,0,51.5,0,77.3,0c0.6,0,1.3,0,1.9,0
		c2.6-0.1,4.6,0.8,5.8,3.3C261.3,309.3,261.3,349.8,261.3,390.3z M251.7,275.1c-55.1,0-110.1,0-165.2,0c0,8.9,0,17.8,0,26.8
		c55.1,0,110.1,0,165.2,0C251.7,293.1,251.7,284.1,251.7,275.1z"/>
	<path class="st1" d="M128.5,466c-21.6,0-43.3-0.1-64.8,0c-6.5,0-12.3-1.7-17.3-5.8c-5.8-4.8-9.1-11-9.7-18.5
		c-0.1-1.2-0.1-2.4-0.1-3.6c0-28.4,0-56.9,0-85.4c0-5.7,1.1-11.1,4.2-15.9c5.1-7.6,12.1-11.5,21.2-12c0.8-0.1,1.6,0,2.4,0
		c42.8,0,85.7,0,128.5,0c4.2,0,8.3,0.5,12.1,2.3c9.5,4.6,14.7,12.1,15.5,22.7c0.1,0.6,0.1,1.1,0.1,1.7c0,29.4,0,58.8,0,88.3
		c0,8-3.1,14.7-9.1,20c-5,4.4-10.9,6.4-17.6,6.4c-13.6-0.1-27.1,0-40.7,0C144.9,466,136.7,466,128.5,466z M45.3,372.9
		c1.2,0,2,0,2.9,0c10.4,0,20.7,0,31.1,0c1.2,0,2.4,0.1,3.6,0.1c3.2,0.1,6.1,1.1,8.8,2.7c11,6.3,12.4,20.2,8.1,29
		c-3.7,7.8-10.2,11.7-18.7,11.8c-11,0.1-22,0-33,0.1c-0.9,0-1.8,0.1-2.8,0.1c0,8.1-0.1,15.9,0,23.7c0.1,7.5,5.3,14.3,12.6,16.2
		c2,0.6,4.3,0.6,6.4,0.6c42.8,0.1,85.5,0,128.2,0c0.8,0,1.6,0,2.4,0c7.9-0.4,14.5-5.9,16.2-13.6c0.4-1.8,0.4-3.8,0.4-5.7
		c0-28.4,0-56.8,0-85.2c0-1.1,0-2.1-0.1-3.1c-0.2-4.6-2.1-8.3-5.3-11.4c-3.7-3.5-8.1-4.9-13.1-4.8c-30,0-60,0-90,0
		c-13.4,0-26.8,0-40.2,0c-10.4,0-18,8.6-17.7,17.8c0.1,5.1,0,10.2,0,15.3C45.3,368.5,45.3,370.5,45.3,372.9z M45.6,407.4
		c0.5,0.1,0.8,0.2,1.3,0.2c11.8,0,23.6,0.1,35.4,0c5.1-0.1,9.5-3.8,10.6-8.8c0.4-1.8,0.4-3.7,0.4-5.5c-0.1-6.8-5.1-11.7-11.9-11.7
		c-11.3-0.1-22.6,0-33.9,0c-0.6,0-1.2,0.1-1.8,0.2C45.6,390.5,45.6,398.9,45.6,407.4z"/>
</g>
<g>
	<path class="st1" d="M51.4,65.9c3.3,0,6,1,8.2,3.1c2.2,2.1,3.3,4.8,3.3,8.2s-1.1,6.2-3.3,8.2c-2.2,2.1-4.9,3.1-8.2,3.1h-3.6v8.9h-9
		V65.9H51.4z M51.4,79.8c0.7,0,1.3-0.2,1.8-0.7c0.5-0.5,0.7-1.1,0.7-1.9c0-0.8-0.2-1.4-0.7-1.9c-0.5-0.5-1.1-0.7-1.8-0.7h-3.6v5.1
		H51.4z"/>
	<path class="st1" d="M80,74.9h8.3v22.5H80v-2c-1.4,1.8-3.5,2.7-6,2.7c-3,0-5.5-1.1-7.4-3.4c-1.9-2.3-2.9-5.1-2.9-8.5s1-6.3,2.9-8.5
		c1.9-2.3,4.4-3.4,7.4-3.4c2.6,0,4.6,0.9,6,2.7V74.9z M73.1,89.2c0.7,0.8,1.7,1.2,2.9,1.2c1.2,0,2.2-0.4,2.9-1.2
		c0.7-0.8,1.1-1.8,1.1-3c0-1.2-0.4-2.2-1.1-3c-0.7-0.8-1.7-1.2-2.9-1.2c-1.2,0-2.2,0.4-2.9,1.2c-0.7,0.8-1.1,1.8-1.1,3
		C72,87.4,72.4,88.4,73.1,89.2z"/>
	<path class="st1" d="M106.4,74.9h9.4l-7.6,22.5c-1.1,3.3-2.8,5.6-5.2,7.1c-2.3,1.5-5.4,2.1-9.3,2v-7.9c1.5,0,2.7-0.1,3.5-0.3
		s1.5-0.6,1.9-1.2l-9-22h9.5l4,12L106.4,74.9z"/>
	<path class="st1" d="M152.5,74.9h8.8l-6.5,22.5h-8.5l-2.8-10.6l-2.8,10.6h-8.5l-6.5-22.5h8.8l2.6,12.5l3.2-12.5h6.3l3.2,12.5
		L152.5,74.9z"/>
	<path class="st1" d="M168.1,73.2c-1.3,0-2.3-0.5-3.3-1.4c-0.9-0.9-1.4-2-1.4-3.2c0-1.2,0.5-2.3,1.4-3.2c0.9-0.9,2-1.4,3.3-1.4
		c1.2,0,2.3,0.5,3.2,1.4c0.9,0.9,1.4,2,1.4,3.2c0,1.2-0.5,2.3-1.4,3.2C170.4,72.7,169.4,73.2,168.1,73.2z M164,97.4V74.9h8.3v22.5
		H164z"/>
	<path class="st1" d="M190.7,82.8H186v4.9c0,0.8,0.2,1.3,0.5,1.7c0.4,0.4,0.9,0.6,1.6,0.6c0.7,0,1.6,0,2.6,0v7.5
		c-4.7,0.7-8.1,0.3-10.1-1.2c-2-1.5-3-4.2-3-8.1v-5.3h-3.1v-7.9h3.1v-3.8l8.3-2.5v6.3h4.7V82.8z"/>
	<path class="st1" d="M208,74.3c2.5,0,4.4,0.8,5.9,2.5c1.5,1.7,2.2,4.2,2.2,7.6v13h-8.3V85.3c0-2-0.9-3-2.8-3c-1,0-1.7,0.3-2.3,0.9
		c-0.5,0.6-0.8,1.5-0.8,2.6v11.6h-8.3V65.9h8.3v11.2C203.4,75.2,205.4,74.3,208,74.3z"/>
	<path class="st1" d="M243.9,74.9h8.3v22.5h-8.3v-2c-1.4,1.8-3.5,2.7-6,2.7c-3,0-5.5-1.1-7.4-3.4c-1.9-2.3-2.9-5.1-2.9-8.5
		s1-6.3,2.9-8.5c1.9-2.3,4.4-3.4,7.4-3.4c2.6,0,4.6,0.9,6,2.7V74.9z M237,89.2c0.7,0.8,1.7,1.2,2.9,1.2c1.2,0,2.2-0.4,2.9-1.2
		c0.7-0.8,1.1-1.8,1.1-3c0-1.2-0.4-2.2-1.1-3c-0.7-0.8-1.7-1.2-2.9-1.2c-1.2,0-2.2,0.4-2.9,1.2c-0.7,0.8-1.1,1.8-1.1,3
		C235.9,87.4,236.2,88.4,237,89.2z"/>
	<path class="st1" d="M49.4,146c-3.5,0-6.3-1.1-8.6-3.4c-2.3-2.3-3.4-5.1-3.4-8.5c0-3.4,1.1-6.2,3.4-8.5c2.3-2.3,5.1-3.4,8.6-3.4
		c2.2,0,4.3,0.5,6.1,1.6c1.8,1.1,3.3,2.5,4.3,4.3l-7,4c-0.8-1.3-1.9-1.9-3.3-1.9c-1.1,0-1.9,0.4-2.6,1.1c-0.7,0.7-1.1,1.7-1.1,2.8
		c0,1.1,0.4,2,1.1,2.8c0.7,0.7,1.6,1.1,2.6,1.1c1.6,0,2.7-0.6,3.3-1.9l7,4c-1,1.8-2.4,3.3-4.3,4.3C53.6,145.5,51.6,146,49.4,146z"/>
	<path class="st1" d="M72.4,146c-3.4,0-6.2-1.1-8.6-3.4c-2.4-2.3-3.5-5.1-3.5-8.5c0-3.4,1.2-6.2,3.5-8.5c2.3-2.3,5.2-3.4,8.6-3.4
		c3.4,0,6.3,1.1,8.6,3.4c2.3,2.3,3.5,5.1,3.5,8.5c0,3.4-1.2,6.2-3.5,8.5C78.7,144.9,75.8,146,72.4,146z M69.7,137
		c0.7,0.7,1.6,1.1,2.7,1.1c1.1,0,2-0.4,2.7-1.1c0.7-0.7,1.1-1.7,1.1-2.9s-0.4-2.1-1.1-2.9c-0.7-0.7-1.6-1.1-2.7-1.1
		c-1.1,0-2,0.4-2.7,1.1c-0.7,0.7-1.1,1.7-1.1,2.9S69,136.3,69.7,137z"/>
	<path class="st1" d="M113.7,122.3c2.6,0,4.6,0.8,6.1,2.5c1.5,1.6,2.2,4,2.2,7v13.7h-8.3v-12.6c0-1.7-0.8-2.6-2.3-2.6
		c-1.8,0-2.7,1.1-2.7,3.3v11.8h-8.3v-12.6c0-1.7-0.8-2.6-2.3-2.6c-1.8,0-2.7,1.1-2.7,3.3v11.8h-8.3v-22.5h8.3v2.1
		c1.5-1.8,3.5-2.7,6.1-2.7c2.6,0,4.5,0.9,5.6,2.8C108.8,123.2,111,122.3,113.7,122.3z"/>
	<path class="st1" d="M139.7,122.3c3,0,5.5,1.1,7.4,3.4c1.9,2.3,2.9,5.1,2.9,8.5s-1,6.3-2.9,8.5c-1.9,2.3-4.4,3.4-7.4,3.4
		c-2.6,0-4.6-0.9-6-2.7v2h-8.3v-31.5h8.3v11C135.2,123.2,137.2,122.3,139.7,122.3z M134.8,137.2c0.7,0.8,1.7,1.2,2.9,1.2
		c1.2,0,2.2-0.4,2.9-1.2c0.7-0.8,1.1-1.8,1.1-3c0-1.2-0.4-2.2-1.1-3c-0.7-0.8-1.7-1.2-2.9-1.2c-1.2,0-2.2,0.4-2.9,1.2
		c-0.7,0.8-1.1,1.8-1.1,3C133.7,135.4,134.1,136.4,134.8,137.2z"/>
	<path class="st1" d="M156.8,121.2c-1.3,0-2.3-0.5-3.3-1.4c-0.9-0.9-1.4-2-1.4-3.2c0-1.2,0.5-2.3,1.4-3.2c0.9-0.9,2-1.4,3.3-1.4
		c1.2,0,2.3,0.5,3.2,1.4c0.9,0.9,1.4,2,1.4,3.2c0,1.2-0.5,2.3-1.4,3.2C159.2,120.7,158.1,121.2,156.8,121.2z M152.7,145.4v-22.5h8.3
		v22.5H152.7z"/>
	<path class="st1" d="M178.9,122.3c2.5,0,4.4,0.8,5.9,2.5c1.5,1.7,2.2,4.2,2.2,7.6v13h-8.3v-12.1c0-2-0.9-3-2.8-3
		c-1,0-1.7,0.3-2.3,0.9c-0.5,0.6-0.8,1.5-0.8,2.6v11.6h-8.3v-22.5h8.3v2.2C174.3,123.2,176.3,122.3,178.9,122.3z"/>
	<path class="st1" d="M205.7,122.9h8.3v22.5h-8.3v-2c-1.4,1.8-3.5,2.7-6,2.7c-3,0-5.5-1.1-7.4-3.4c-1.9-2.3-2.9-5.1-2.9-8.5
		s1-6.3,2.9-8.5c1.9-2.3,4.4-3.4,7.4-3.4c2.6,0,4.6,0.9,6,2.7V122.9z M198.8,137.2c0.7,0.8,1.7,1.2,2.9,1.2c1.2,0,2.2-0.4,2.9-1.2
		c0.7-0.8,1.1-1.8,1.1-3c0-1.2-0.4-2.2-1.1-3c-0.7-0.8-1.7-1.2-2.9-1.2c-1.2,0-2.2,0.4-2.9,1.2c-0.7,0.8-1.1,1.8-1.1,3
		C197.7,135.4,198.1,136.4,198.8,137.2z"/>
	<path class="st1" d="M232.5,130.8h-4.7v4.9c0,0.8,0.2,1.3,0.5,1.7c0.4,0.4,0.9,0.6,1.6,0.6c0.7,0,1.6,0,2.6,0v7.5
		c-4.7,0.7-8.1,0.3-10.1-1.2c-2-1.5-3-4.2-3-8.1v-5.3h-3.1v-7.9h3.1v-3.8l8.3-2.5v6.3h4.7V130.8z"/>
	<path class="st1" d="M239.6,121.2c-1.3,0-2.3-0.5-3.3-1.4c-0.9-0.9-1.4-2-1.4-3.2c0-1.2,0.5-2.3,1.4-3.2c0.9-0.9,2-1.4,3.3-1.4
		c1.2,0,2.3,0.5,3.2,1.4c0.9,0.9,1.4,2,1.4,3.2c0,1.2-0.5,2.3-1.4,3.2C241.9,120.7,240.8,121.2,239.6,121.2z M235.4,145.4v-22.5h8.3
		v22.5H235.4z"/>
	<path class="st1" d="M258.4,146c-3.4,0-6.2-1.1-8.6-3.4c-2.4-2.3-3.5-5.1-3.5-8.5c0-3.4,1.2-6.2,3.5-8.5c2.3-2.3,5.2-3.4,8.6-3.4
		c3.4,0,6.3,1.1,8.6,3.4c2.3,2.3,3.5,5.1,3.5,8.5c0,3.4-1.2,6.2-3.5,8.5C264.6,144.9,261.8,146,258.4,146z M255.6,137
		c0.7,0.7,1.6,1.1,2.7,1.1c1.1,0,2-0.4,2.7-1.1c0.7-0.7,1.1-1.7,1.1-2.9s-0.4-2.1-1.1-2.9c-0.7-0.7-1.6-1.1-2.7-1.1
		c-1.1,0-2,0.4-2.7,1.1c-0.7,0.7-1.1,1.7-1.1,2.9S254.9,136.3,255.6,137z"/>
	<path class="st1" d="M287.4,122.3c2.5,0,4.4,0.8,5.9,2.5c1.5,1.7,2.2,4.2,2.2,7.6v13h-8.3v-12.1c0-2-0.9-3-2.8-3
		c-1,0-1.7,0.3-2.3,0.9c-0.5,0.6-0.8,1.5-0.8,2.6v11.6h-8.3v-22.5h8.3v2.2C282.8,123.2,284.8,122.3,287.4,122.3z"/>
	<path class="st1" d="M49.5,194c-3.4,0-6.2-1.1-8.6-3.4c-2.4-2.3-3.5-5.1-3.5-8.5c0-3.4,1.2-6.2,3.5-8.5c2.3-2.3,5.2-3.4,8.6-3.4
		c3.4,0,6.3,1.1,8.6,3.4c2.3,2.3,3.5,5.1,3.5,8.5c0,3.4-1.2,6.2-3.5,8.5C55.7,192.9,52.9,194,49.5,194z M46.8,185
		c0.7,0.7,1.6,1.1,2.7,1.1c1.1,0,2-0.4,2.7-1.1c0.7-0.7,1.1-1.7,1.1-2.9s-0.4-2.1-1.1-2.9c-0.7-0.7-1.6-1.1-2.7-1.1
		c-1.1,0-2,0.4-2.7,1.1c-0.7,0.7-1.1,1.7-1.1,2.9S46.1,184.3,46.8,185z"/>
	<path class="st1" d="M76.8,168.7c-1.1-0.1-1.9,0.1-2.5,0.5c-0.6,0.4-0.9,1-0.9,1.8h3.5v7.9h-3.5v14.6H65v-14.6h-2.6v-7.9H65
		c0-3.2,1-5.7,3-7.4c2-1.7,4.9-2.5,8.8-2.3V168.7z"/>
	<path class="st1" d="M101.9,170.3c3,0,5.5,1.1,7.4,3.4c1.9,2.3,2.9,5.1,2.9,8.5s-1,6.3-2.9,8.5c-1.9,2.3-4.4,3.4-7.4,3.4
		c-2.6,0-4.6-0.9-6-2.7v2h-8.3v-31.5h8.3v11C97.4,171.2,99.4,170.3,101.9,170.3z M97,185.2c0.7,0.8,1.7,1.2,2.9,1.2
		c1.2,0,2.2-0.4,2.9-1.2c0.7-0.8,1.1-1.8,1.1-3c0-1.2-0.4-2.2-1.1-3c-0.7-0.8-1.7-1.2-2.9-1.2c-1.2,0-2.2,0.4-2.9,1.2
		c-0.7,0.8-1.1,1.8-1.1,3C95.9,183.4,96.3,184.4,97,185.2z"/>
	<path class="st1" d="M126,194c-3.4,0-6.2-1.1-8.6-3.4c-2.4-2.3-3.5-5.1-3.5-8.5c0-3.4,1.2-6.2,3.5-8.5c2.3-2.3,5.2-3.4,8.6-3.4
		c3.4,0,6.3,1.1,8.6,3.4c2.3,2.3,3.5,5.1,3.5,8.5c0,3.4-1.2,6.2-3.5,8.5C132.2,192.9,129.4,194,126,194z M123.3,185
		c0.7,0.7,1.6,1.1,2.7,1.1c1.1,0,2-0.4,2.7-1.1c0.7-0.7,1.1-1.7,1.1-2.9s-0.4-2.1-1.1-2.9c-0.7-0.7-1.6-1.1-2.7-1.1
		c-1.1,0-2,0.4-2.7,1.1c-0.7,0.7-1.1,1.7-1.1,2.9S122.6,184.3,123.3,185z"/>
	<path class="st1" d="M155.1,178.8h-4.7v4.9c0,0.8,0.2,1.3,0.5,1.7c0.4,0.4,0.9,0.6,1.6,0.6c0.7,0,1.6,0,2.6,0v7.5
		c-4.7,0.7-8.1,0.3-10.1-1.2s-3-4.2-3-8.1v-5.3h-3.1v-7.9h3.1v-3.8l8.3-2.5v6.3h4.7V178.8z"/>
	<path class="st1" d="M172.4,170.3c2.5,0,4.4,0.8,5.9,2.5c1.5,1.7,2.2,4.2,2.2,7.6v13h-8.3v-12.1c0-2-0.9-3-2.8-3
		c-1,0-1.7,0.3-2.3,0.9c-0.5,0.6-0.8,1.5-0.8,2.6v11.6H158v-31.5h8.3v11.2C167.7,171.2,169.7,170.3,172.4,170.3z"/>
</g>
</svg>
