<?xml version="1.0" encoding="utf-8"?>
<!-- Generator: Adobe Illustrator 23.0.5, SVG Export Plug-In . SVG Version: 6.00 Build 0)  -->
<svg version="1.1" id="Layer_1" xmlns="http://www.w3.org/2000/svg" xmlns:xlink="http://www.w3.org/1999/xlink" x="0px" y="0px"
	 viewBox="0 0 392.7 523.9" style="enable-background:new 0 0 392.7 523.9;" xml:space="preserve">
<style type="text/css">
	.st0{fill:#288936;}
	.st1{fill:#FFFFFF;}
</style>
<g id="BACKGROUND">
</g>
<path class="st0" d="M392.7,523.9c-131.1,0-261.9,0-392.7,0C0,349.3,0,174.7,0,0c130.9,0,261.8,0,392.7,0
	C392.7,174.6,392.7,349.3,392.7,523.9z"/>
<g>
	<path class="st1" d="M51.4,65.9c3.3,0,6,1,8.2,3.1c2.2,2.1,3.3,4.8,3.3,8.2s-1.1,6.2-3.3,8.2c-2.2,2.1-4.9,3.1-8.2,3.1h-3.6v8.9h-9
		V65.9H51.4z M51.4,79.8c0.7,0,1.3-0.2,1.8-0.7c0.5-0.5,0.7-1.1,0.7-1.9c0-0.8-0.2-1.4-0.7-1.9c-0.5-0.5-1.1-0.7-1.8-0.7h-3.6v5.1
		H51.4z"/>
	<path class="st1" d="M80,74.9h8.3v22.5H80v-2c-1.4,1.8-3.5,2.7-6,2.7c-3,0-5.5-1.1-7.4-3.4c-1.9-2.3-2.9-5.1-2.9-8.5s1-6.3,2.9-8.5
		c1.9-2.3,4.4-3.4,7.4-3.4c2.6,0,4.6,0.9,6,2.7V74.9z M73.1,89.2c0.7,0.8,1.7,1.2,2.9,1.2c1.2,0,2.2-0.4,2.9-1.2
		c0.7-0.8,1.1-1.8,1.1-3c0-1.2-0.4-2.2-1.1-3c-0.7-0.8-1.7-1.2-2.9-1.2c-1.2,0-2.2,0.4-2.9,1.2c-0.7,0.8-1.1,1.8-1.1,3
		C72,87.4,72.4,88.4,73.1,89.2z"/>
	<path class="st1" d="M106.4,74.9h9.4l-7.6,22.5c-1.1,3.3-2.8,5.6-5.2,7.1c-2.3,1.5-5.4,2.1-9.3,2v-7.9c1.5,0,2.7-0.1,3.5-0.3
		s1.5-0.6,1.9-1.2l-9-22h9.5l4,12L106.4,74.9z"/>
	<path class="st1" d="M140.6,74.9h8.3v22.5h-8.3v-2.2c-1.4,1.9-3.4,2.8-6,2.8c-2.5,0-4.4-0.8-5.9-2.5c-1.5-1.7-2.2-4.2-2.2-7.6v-13
		h8.3V87c0,2,0.9,3,2.8,3c1,0,1.7-0.3,2.3-0.9c0.5-0.6,0.8-1.5,0.8-2.6V74.9z"/>
	<path class="st1" d="M160.5,81.5c0,0.4,0.3,0.6,0.8,0.9c0.6,0.2,1.3,0.4,2.1,0.5c0.8,0.1,1.7,0.3,2.7,0.6c1,0.3,1.9,0.7,2.7,1.1
		c0.8,0.5,1.5,1.2,2.1,2.1c0.6,1,0.8,2.2,0.8,3.5c0,1.4-0.3,2.7-1,3.8c-0.6,1.1-1.5,1.9-2.5,2.4c-1.1,0.5-2.1,0.9-3.2,1.2
		c-1.1,0.3-2.2,0.4-3.4,0.4c-5.4,0-8.9-1.8-10.5-5.4l7.2-3.2c0.6,1.5,1.6,2.3,3.2,2.3c1,0,1.5-0.3,1.5-1c0-0.4-0.4-0.7-1.1-0.9
		c-0.8-0.2-1.7-0.5-2.7-0.7c-1.1-0.3-2.1-0.6-3.2-1c-1.1-0.4-2-1.2-2.7-2.2c-0.8-1-1.1-2.3-1.1-3.8c0-2.5,0.9-4.4,2.8-5.7
		c1.9-1.4,4-2,6.5-2c4.9,0,8.2,1.9,9.8,5.7l-6.9,2.5c-0.5-1.3-1.4-1.9-2.5-1.9C161,80.6,160.5,80.9,160.5,81.5z"/>
	<path class="st1" d="M178.4,73.2c-1.3,0-2.3-0.5-3.3-1.4c-0.9-0.9-1.4-2-1.4-3.2c0-1.2,0.5-2.3,1.4-3.2c0.9-0.9,2-1.4,3.3-1.4
		c1.2,0,2.3,0.5,3.2,1.4c0.9,0.9,1.4,2,1.4,3.2c0,1.2-0.5,2.3-1.4,3.2C180.8,72.7,179.7,73.2,178.4,73.2z M174.3,97.4V74.9h8.3v22.5
		H174.3z"/>
	<path class="st1" d="M200.5,74.3c2.5,0,4.4,0.8,5.9,2.5c1.5,1.7,2.2,4.2,2.2,7.6v13h-8.3V85.3c0-2-0.9-3-2.8-3
		c-1,0-1.7,0.3-2.3,0.9c-0.5,0.6-0.8,1.5-0.8,2.6v11.6h-8.3V74.9h8.3v2.2C195.9,75.2,197.9,74.3,200.5,74.3z"/>
	<path class="st1" d="M227.6,74.9h8.3v21.8c0,1.8-0.3,3.4-1,4.8c-0.7,1.4-1.6,2.5-2.7,3.3c-1.1,0.8-2.4,1.4-3.8,1.8
		c-1.4,0.4-2.8,0.6-4.3,0.6c-2.6,0-5-0.5-7-1.4c-2-1-3.6-2.3-4.5-4l6.8-3.9c1.1,1.5,2.5,2.2,4.4,2.2c1,0,2-0.3,2.7-0.8
		c0.8-0.5,1.2-1.3,1.2-2.4v-2.3c-1.4,1.8-3.5,2.7-6,2.7c-3,0-5.5-1.1-7.4-3.3c-1.9-2.2-2.9-4.9-2.9-8.1c0-3.2,1-6,2.9-8.1
		c1.9-2.2,4.4-3.3,7.4-3.3c2.6,0,4.6,0.9,6,2.7V74.9z M220.7,88.6c0.7,0.8,1.7,1.2,2.9,1.2c1.2,0,2.2-0.4,2.9-1.2
		c0.7-0.8,1.1-1.7,1.1-2.9c0-1.1-0.4-2.1-1.1-2.9c-0.7-0.8-1.7-1.2-2.9-1.2c-1.2,0-2.2,0.4-2.9,1.2c-0.7,0.8-1.1,1.7-1.1,2.9
		C219.6,86.8,220,87.8,220.7,88.6z"/>
	<path class="st1" d="M46.7,127.3c0.4-1.5,1.2-2.7,2.5-3.6c1.2-0.8,2.7-1.3,4.3-1.3v9c-1.8-0.2-3.4,0.1-4.7,1.1
		c-1.4,0.9-2,2.5-2,4.5v8.4h-8.3v-22.5h8.3V127.3z"/>
	<path class="st1" d="M62.9,137c0.7,1.5,2.3,2.3,4.6,2.3c1.4,0,2.7-0.5,3.8-1.4l5.4,4.6c-2.3,2.4-5.4,3.6-9.5,3.6
		c-3.8,0-6.9-1.1-9.2-3.4c-2.3-2.2-3.5-5-3.5-8.4c0-3.4,1.1-6.3,3.4-8.5c2.3-2.3,5.1-3.4,8.6-3.4c3.4,0,6.2,1.1,8.4,3.4
		c2.2,2.2,3.3,5,3.3,8.4c0,1-0.1,2-0.4,2.9H62.9z M62.8,131.6h7.6c-0.5-1.8-1.7-2.7-3.6-2.7C64.7,128.9,63.4,129.8,62.8,131.6z"/>
	<path class="st1" d="M105.6,122.9h8.8l-6.5,22.5h-8.5l-2.8-10.6l-2.8,10.6h-8.5l-6.5-22.5h8.8l2.6,12.5l3.2-12.5h6.3l3.2,12.5
		L105.6,122.9z"/>
	<path class="st1" d="M131.3,122.9h8.3v22.5h-8.3v-2c-1.4,1.8-3.5,2.7-6,2.7c-3,0-5.5-1.1-7.4-3.4c-1.9-2.3-2.9-5.1-2.9-8.5
		s1-6.3,2.9-8.5c1.9-2.3,4.4-3.4,7.4-3.4c2.6,0,4.6,0.9,6,2.7V122.9z M124.4,137.2c0.7,0.8,1.7,1.2,2.9,1.2c1.2,0,2.2-0.4,2.9-1.2
		c0.7-0.8,1.1-1.8,1.1-3c0-1.2-0.4-2.2-1.1-3c-0.7-0.8-1.7-1.2-2.9-1.2c-1.2,0-2.2,0.4-2.9,1.2c-0.7,0.8-1.1,1.8-1.1,3
		C123.3,135.4,123.7,136.4,124.4,137.2z"/>
	<path class="st1" d="M151.6,127.3c0.4-1.5,1.2-2.7,2.5-3.6c1.2-0.8,2.7-1.3,4.3-1.3v9c-1.8-0.2-3.4,0.1-4.7,1.1
		c-1.4,0.9-2,2.5-2,4.5v8.4h-8.3v-22.5h8.3V127.3z"/>
	<path class="st1" d="M175.7,113.9h8.3v31.5h-8.3v-2c-1.4,1.8-3.5,2.7-6,2.7c-3,0-5.5-1.1-7.4-3.4c-1.9-2.3-2.9-5.1-2.9-8.5
		s1-6.3,2.9-8.5c1.9-2.3,4.4-3.4,7.4-3.4c2.6,0,4.6,0.9,6,2.7V113.9z M168.8,137.2c0.7,0.8,1.7,1.2,2.9,1.2c1.2,0,2.2-0.4,2.9-1.2
		c0.7-0.8,1.1-1.8,1.1-3c0-1.2-0.4-2.2-1.1-3c-0.7-0.8-1.7-1.2-2.9-1.2c-1.2,0-2.2,0.4-2.9,1.2c-0.7,0.8-1.1,1.8-1.1,3
		C167.7,135.4,168.1,136.4,168.8,137.2z"/>
	<path class="st1" d="M195.7,129.5c0,0.4,0.3,0.6,0.8,0.9c0.6,0.2,1.3,0.4,2.1,0.5c0.8,0.1,1.7,0.3,2.7,0.6c1,0.3,1.9,0.7,2.7,1.1
		c0.8,0.5,1.5,1.2,2.1,2.1c0.6,1,0.8,2.2,0.8,3.5c0,1.4-0.3,2.7-1,3.8c-0.6,1.1-1.5,1.9-2.5,2.4c-1.1,0.5-2.1,0.9-3.2,1.2
		c-1.1,0.3-2.2,0.4-3.4,0.4c-5.4,0-8.9-1.8-10.5-5.4l7.2-3.2c0.6,1.5,1.6,2.3,3.2,2.3c1,0,1.5-0.3,1.5-1c0-0.4-0.4-0.7-1.1-0.9
		c-0.8-0.2-1.7-0.5-2.7-0.7c-1.1-0.3-2.1-0.6-3.2-1c-1.1-0.4-2-1.2-2.7-2.2c-0.8-1-1.1-2.3-1.1-3.8c0-2.5,0.9-4.4,2.8-5.7
		c1.9-1.4,4-2,6.5-2c4.9,0,8.2,1.9,9.8,5.7l-6.9,2.5c-0.5-1.3-1.4-1.9-2.5-1.9C196.1,128.6,195.7,128.9,195.7,129.5z"/>
	<path class="st1" d="M222.6,121.2c-1.3,0-2.3-0.5-3.3-1.4c-0.9-0.9-1.4-2-1.4-3.2c0-1.2,0.5-2.3,1.4-3.2c0.9-0.9,2-1.4,3.3-1.4
		c1.2,0,2.3,0.5,3.2,1.4c0.9,0.9,1.4,2,1.4,3.2c0,1.2-0.5,2.3-1.4,3.2C224.9,120.7,223.8,121.2,222.6,121.2z M218.4,145.4v-22.5h8.3
		v22.5H218.4z"/>
	<path class="st1" d="M244.7,122.3c2.5,0,4.4,0.8,5.9,2.5c1.5,1.7,2.2,4.2,2.2,7.6v13h-8.3v-12.1c0-2-0.9-3-2.8-3
		c-1,0-1.7,0.3-2.3,0.9c-0.5,0.6-0.8,1.5-0.8,2.6v11.6h-8.3v-22.5h8.3v2.2C240,123.2,242,122.3,244.7,122.3z"/>
	<path class="st1" d="M52.8,170.9h9.4l-7.6,22.5c-1.1,3.3-2.8,5.6-5.2,7.1c-2.3,1.5-5.4,2.1-9.3,2v-7.9c1.5,0,2.7-0.1,3.5-0.3
		c0.8-0.2,1.5-0.6,1.9-1.2l-9-22H46l4,12L52.8,170.9z"/>
	<path class="st1" d="M74,194c-3.4,0-6.2-1.1-8.6-3.4c-2.4-2.3-3.5-5.1-3.5-8.5c0-3.4,1.2-6.2,3.5-8.5c2.3-2.3,5.2-3.4,8.6-3.4
		c3.4,0,6.3,1.1,8.6,3.4c2.3,2.3,3.5,5.1,3.5,8.5c0,3.4-1.2,6.2-3.5,8.5C80.3,192.9,77.4,194,74,194z M71.3,185
		c0.7,0.7,1.6,1.1,2.7,1.1c1.1,0,2-0.4,2.7-1.1c0.7-0.7,1.1-1.7,1.1-2.9s-0.4-2.1-1.1-2.9c-0.7-0.7-1.6-1.1-2.7-1.1
		c-1.1,0-2,0.4-2.7,1.1c-0.7,0.7-1.1,1.7-1.1,2.9S70.6,184.3,71.3,185z"/>
	<path class="st1" d="M102.7,170.9h8.3v22.5h-8.3v-2.2c-1.4,1.9-3.4,2.8-6,2.8c-2.5,0-4.4-0.8-5.9-2.5c-1.5-1.7-2.2-4.2-2.2-7.6v-13
		h8.3V183c0,2,0.9,3,2.8,3c1,0,1.7-0.3,2.3-0.9c0.5-0.6,0.8-1.5,0.8-2.6V170.9z"/>
	<path class="st1" d="M122.9,175.3c0.4-1.5,1.2-2.7,2.5-3.6c1.2-0.8,2.7-1.3,4.3-1.3v9c-1.8-0.2-3.4,0.1-4.7,1.1s-2,2.5-2,4.5v8.4
		h-8.3v-22.5h8.3V175.3z"/>
	<path class="st1" d="M167,170.9h8.8l-6.5,22.5h-8.5l-2.8-10.6l-2.8,10.6h-8.5l-6.5-22.5h8.8l2.6,12.5l3.2-12.5h6.3l3.2,12.5
		L167,170.9z"/>
	<path class="st1" d="M192.7,170.9h8.3v22.5h-8.3v-2c-1.4,1.8-3.5,2.7-6,2.7c-3,0-5.5-1.1-7.4-3.4c-1.9-2.3-2.9-5.1-2.9-8.5
		s1-6.3,2.9-8.5c1.9-2.3,4.4-3.4,7.4-3.4c2.6,0,4.6,0.9,6,2.7V170.9z M185.8,185.2c0.7,0.8,1.7,1.2,2.9,1.2c1.2,0,2.2-0.4,2.9-1.2
		c0.7-0.8,1.1-1.8,1.1-3c0-1.2-0.4-2.2-1.1-3c-0.7-0.8-1.7-1.2-2.9-1.2c-1.2,0-2.2,0.4-2.9,1.2c-0.7,0.8-1.1,1.8-1.1,3
		C184.7,183.4,185.1,184.4,185.8,185.2z"/>
	<path class="st1" d="M204.6,193.4v-32.8h8.3v32.8H204.6z"/>
	<path class="st1" d="M216.6,193.4v-32.8h8.3v32.8H216.6z"/>
	<path class="st1" d="M235.8,185c0.7,1.5,2.3,2.3,4.6,2.3c1.4,0,2.7-0.5,3.8-1.4l5.4,4.6c-2.3,2.4-5.4,3.6-9.5,3.6
		c-3.8,0-6.9-1.1-9.2-3.4c-2.3-2.2-3.5-5-3.5-8.4c0-3.4,1.1-6.3,3.4-8.5c2.3-2.3,5.1-3.4,8.6-3.4c3.4,0,6.2,1.1,8.4,3.4
		c2.2,2.2,3.3,5,3.3,8.4c0,1-0.1,2-0.4,2.9H235.8z M235.7,179.6h7.6c-0.5-1.8-1.7-2.7-3.6-2.7C237.7,176.9,236.3,177.8,235.7,179.6z
		"/>
	<path class="st1" d="M268,178.8h-4.7v4.9c0,0.8,0.2,1.3,0.5,1.7c0.4,0.4,0.9,0.6,1.6,0.6c0.7,0,1.6,0,2.6,0v7.5
		c-4.7,0.7-8.1,0.3-10.1-1.2c-2-1.5-3-4.2-3-8.1v-5.3h-3.1v-7.9h3.1v-3.8l8.3-2.5v6.3h4.7V178.8z"/>
</g>
<g id="ELEMENTS">
	<path class="st1" d="M234.2,269.4c1.9,0.7,2.5,2.1,2.5,4c0.1,5.2,0.3,10.5,0.4,15.8c0,1.5,0.5,2.4,1.8,3.2
		c4.5,2.8,8.9,5.7,13.3,8.5c0.5,0.3,0.9,0.6,1.3,0.9c1.6,1.4,1.4,3.7-0.6,4.8c-0.5,0.2-1,0.4-1.5,0.6c-5,1.8-10.1,3.6-15.1,5.4
		c-1,0.4-1.6,0.9-1.9,2c-1.3,5.1-2.7,10.3-4,15.4c-0.1,0.6-0.3,1.3-0.6,1.8c-0.9,2-3.2,2.4-4.7,0.9c-0.4-0.4-0.7-0.8-1-1.2
		c-3.3-4.2-6.5-8.4-9.7-12.6c-0.8-1-1.6-1.4-2.8-1.3c-4.9,0.3-9.9,0.6-14.8,0.9c-0.9,0-1.8,0.1-2.7,0.1c-2.2-0.1-3.4-2.3-2.4-4.3
		c0.2-0.4,0.5-0.8,0.8-1.2c3.1-4.5,6.1-9.1,9.2-13.6c0.6-0.8,0.6-1.5,0.2-2.5c-2.1-5.2-4.1-10.4-6.1-15.6c-0.2-0.5-0.4-1-0.5-1.5
		c-0.2-2,1.6-3.6,3.7-3.1c2.6,0.7,5.2,1.5,7.8,2.2c3,0.9,6,1.7,9,2.7c1,0.3,1.6,0.2,2.4-0.5c4.2-3.5,8.4-6.9,12.6-10.3
		c0.7-0.6,1.6-1.1,2.4-1.6C233.6,269.4,233.9,269.4,234.2,269.4z M225.8,324.1c0.2-0.6,0.4-1,0.5-1.4c1-3.7,2.1-7.5,2.9-11.2
		c0.5-2,1.5-3.2,3.5-3.8c3.7-1.2,7.4-2.6,11.1-4c0.4-0.1,0.7-0.3,1.2-0.6c-0.4-0.3-0.7-0.5-0.9-0.7c-3.6-2.3-7.1-4.6-10.7-6.9
		c-1.2-0.7-1.8-1.7-1.9-3.1c0-0.5,0-0.9,0-1.4c-0.1-3.8-0.2-7.6-0.4-11.5c0-0.3-0.1-0.7-0.2-1.1c-0.6,0.5-1.1,0.8-1.5,1.2
		c-3,2.4-6,4.9-9,7.4c-1.3,1.1-2.5,1.3-4.1,0.8c-3.8-1.2-7.6-2.2-11.5-3.4c-0.5-0.1-1-0.2-1.6-0.4c0.3,0.7,0.4,1.2,0.6,1.7
		c1.4,3.6,2.8,7.3,4.3,10.9c0.6,1.5,0.5,2.8-0.5,4.2c-2.3,3.2-4.5,6.6-6.7,9.9c-0.3,0.4-0.5,0.8-0.9,1.4c0.5,0,0.7,0,1,0
		c4.1-0.2,8.3-0.4,12.4-0.7c1.8-0.1,3,0.4,4.1,1.8c2.3,3.1,4.7,6.1,7.1,9.2C225,323.1,225.3,323.5,225.8,324.1z"/>
	<path class="st1" d="M36.6,408c0.2-0.7,0.5-1.3,0.6-2c2.3-14.4,15.3-24.6,29.8-23.5c12.7,0.9,23.4,10.8,25.4,23.5
		c2.5,15.6-8.4,30.2-24,32.2c-14.9,2-28.9-8.5-31.3-23.3c-0.1-0.6-0.4-1.2-0.6-1.8C36.6,411.4,36.6,409.7,36.6,408z M64.8,432.7
		c12.3,0,22.2-9.8,22.2-22c0-12.4-9.8-22.4-22.1-22.4c-12.2,0-22.2,9.9-22.3,22C42.6,422.7,52.4,432.6,64.8,432.7z"/>
	<path class="st1" d="M194.3,354.9c3.1,0,5.9,0,8.7,0c3.5,0,7,0,10.5,0c9.8,0.1,17.6,6.9,19.2,16.5c0.2,1.1,0.2,2.3,0.2,3.5
		c0,21.6,0,43.3,0,64.9c0,6.8-2.6,12.3-8.1,16.3c-3.4,2.5-7.2,3.7-11.5,3.7c-2.4,0-4.8,0-7.2,0c-29.8,0-59.7,0-89.5,0
		c-6.1,0-11.3-2.2-15.3-6.8c-3.4-3.9-4.8-8.5-4.8-13.7c0-4.6,0-9.3,0-13.8c0-16.5,0-33,0-49.6c0-2.6,0.2-5.1,1-7.5
		c2.8-8.1,10-13.4,18.8-13.4c11.4,0,22.8,0,34.3,0c0.7,0,1.3,0,1.9,0c0-0.1,0-0.1,0-0.2c-0.3-0.1-0.6-0.2-1-0.4c0-0.4,0-0.9,0.1-1.4
		c0.5-1.4,0-2.2-1-3.2c-4.6-4.3-9.1-8.8-13.6-13.2c-0.4-0.4-0.8-0.7-1.1-1.1c-1.9-2.2-1-5.2,1.8-5.8c1.9-0.4,3.8-0.6,5.7-0.9
		c5.2-0.7,10.5-1.5,15.8-2.2c0.9-0.1,1.2-0.7,1.5-1.4c2.9-5.8,5.8-11.7,8.7-17.5c0.2-0.5,0.5-1,0.7-1.4c1.5-2.4,4.5-2.4,6,0
		c0.3,0.5,0.6,1,0.8,1.5c2.9,5.8,5.8,11.6,8.6,17.4c0.4,0.9,0.9,1.4,2,1.5c6.3,0.9,12.6,1.8,18.9,2.8c0.7,0.1,1.4,0.2,2.1,0.3
		c2.7,0.6,3.7,3.6,2,5.7c-0.4,0.5-0.9,0.9-1.4,1.4c-4.6,4.5-9.2,9-13.8,13.4c-0.7,0.7-1.1,1.4-0.8,2.5
		C194.7,353.3,195.1,354,194.3,354.9z M103.3,390.6c0.7,0,1.3,0,1.9,0c8.1,0,16.1,0,24.2,0c5.4,0,9.8,2.1,13,6.5
		c3.1,4.4,3.5,9.3,2.2,14.4c-1.6,6.8-7.6,11.5-14.6,11.5c-8.3,0-16.7,0-25,0c-0.6,0-1.1,0-1.6,0c-0.1,0.3-0.2,0.4-0.2,0.5
		c0,5.8-0.2,11.7,0,17.5c0.2,5.8,4.4,10.5,10,11.7c1.3,0.3,2.6,0.3,4,0.3c31.7,0,63.4,0,95.2,0c0.6,0,1.2,0,1.7,0
		c4-0.1,7.1-1.9,9.6-5c2.2-2.7,2.8-5.8,2.8-9.1c0-21.1,0-42.3,0-63.4c0-0.7,0-1.3,0-1.9c-0.4-5.6-4-10.2-9.1-11.6
		c-1.5-0.4-3.1-0.6-4.7-0.6c-31.8,0-63.6,0-95.4,0c-0.5,0-1.1,0-1.6,0c-1.1,0.1-2.2,0.2-3.3,0.6c-5.3,1.6-8.9,6.5-9,12.2
		c0,5,0,10,0,15C103.3,389.6,103.3,390,103.3,390.6z M143.5,334.6c0.7,0.7,1,1,1.4,1.4c3.9,3.8,7.8,7.7,11.7,11.5
		c1.2,1.2,1.6,2.5,1.3,4.2c-0.2,1-0.3,2.1-0.5,3.1c10.6,0,21,0,31.7,0c-0.1-1-0.2-2-0.4-2.9c-0.5-1.9,0.1-3.4,1.5-4.7
		c3.9-3.7,7.7-7.4,11.5-11.2c0.4-0.4,0.7-0.7,1.3-1.3c-0.7-0.1-1.2-0.2-1.7-0.3c-5.3-0.8-10.6-1.6-15.9-2.3
		c-2.1-0.3-3.3-1.3-4.2-3.2c-2.2-4.8-4.7-9.5-7-14.3c-0.2-0.5-0.5-0.9-0.8-1.5c-0.4,0.7-0.7,1.2-0.9,1.7c-2.4,4.8-4.8,9.6-7.1,14.4
		c-0.8,1.6-1.9,2.5-3.7,2.8C155.7,332.7,149.8,333.7,143.5,334.6z M103.5,416.4c0.7,0,1.3,0,1.8,0c7.2,0,14.3,0,21.5,0
		c1.3,0,2.5,0,3.8,0c3.6-0.2,6.7-2.7,7.7-6.1c0.6-2.2,0.6-4.3,0.1-6.5c-0.9-3.9-4.3-6.5-8.5-6.6c-8.5,0-17,0-25.5,0
		c-0.3,0-0.6,0-1,0.1C103.5,403.7,103.5,409.9,103.5,416.4z"/>
	<path class="st1" d="M72.4,326.1c-0.1-14.3,11.5-26,25.8-26.1c14.2-0.1,25.9,11.5,26.1,25.7c0.2,14.4-11.7,26.2-25.7,26.2
		C84.2,352,72.5,340.5,72.4,326.1z M101.5,310.1c1.7-0.1,3.2-0.5,4.8-0.4c0.4,3.1,0.7,6,1.1,9.1c1.9-0.2,3.6-0.4,5.5-0.6
		c0.2,1.5,0.3,2.9,0.5,4.4c-1.9,0.2-3.6,0.5-5.5,0.7c0.1,1.2,0.3,2.3,0.4,3.4c2-0.2,3.7-0.3,5.5-0.5c0.2,1.5,0.3,2.9,0.5,4.3
		c-1.8,0.2-3.6,0.5-5.4,0.7c0.2,2.4,0.5,4.7,0.7,7c-1.6,0.2-3.1,0.4-4.6,0.6c-0.7,0.1-1-0.2-1.3-0.7c-1-1.4-2.2-2.6-3-4.1
		c-0.9-1.5-2-1.9-3.6-1.6c-2,0.4-4,0.5-6,0.7c0.2,2.4,0.5,4.6,0.7,7.1c-1.6,0.2-3.1,0.4-4.7,0.6c-0.3-2.4-0.6-4.7-0.9-7
		c-1.7,0.2-3.1,0.3-4.7,0.5c-0.1-1.5-0.3-2.9-0.5-4.4c1.6-0.2,3.1-0.4,4.7-0.6c-0.1-1.2-0.3-2.3-0.4-3.4c-1.7,0.1-3.2,0.3-4.8,0.4
		c-0.2-1.5-0.3-2.9-0.5-4.3c1.7-0.2,3.2-0.4,4.7-0.6c-0.3-3-0.7-5.8-1-8.7c-5.1,4.8-7.2,14.5-3.3,22.4c4.1,8.2,13.3,12.7,22.3,10.8
		c9.1-1.9,15.8-9.8,16-19c0.3-9.5-5.8-17.7-14.9-20.2c-7.6-2.1-16.2,1-19.5,5.5c1.4-0.2,2.7-0.3,4-0.5c0.9-0.1,1.4,0,2,0.8
		c1.4,1.9,3,3.7,4.3,5.7c1,1.5,2.2,2.1,3.9,1.7c1.3-0.3,2.6-0.4,4-0.5C102.1,316.1,101.8,313.2,101.5,310.1z M90.3,328.7
		c1.9-0.2,3.6-0.5,5.6-0.7c-0.9-1.2-1.6-2.2-2.4-3.2c-1.2,0.1-2.3,0.3-3.6,0.5C90.1,326.4,90.2,327.5,90.3,328.7z M99.4,324.2
		c0.6,0.8,1,1.5,1.4,2.2c0.9,1.3,0.9,1.3,2.7,0.7c-0.1-1-0.3-2-0.5-3.2C101.8,323.9,100.7,324,99.4,324.2z M89.2,318.2
		c-0.1,0-0.2,0.1-0.3,0.1c0.1,0.7,0.3,1.5,0.4,2.3c0.4,0,0.7,0,1.3-0.1C90.1,319.7,89.6,318.9,89.2,318.2z"/>
	<path class="st1" d="M66.1,416.9c-2.7-0.3-5.3-0.7-8.1-1c-0.3,2.4-0.7,4.7-1,7.1c-1.7-0.2-3.2-0.4-4.9-0.7c0.3-2.4,0.5-4.7,0.8-7.1
		c-1.5-0.2-2.9-0.4-4.4-0.7c-0.3-1.5,0.3-2.9,0.3-4.5c1.6,0.1,3.1,0.3,4.7,0.5c0.1-1,0.3-2,0.4-3.2c-1.5-0.2-3-0.5-4.7-0.7
		c0.2-1.5,0.4-2.9,0.6-4.5c1.6,0.2,3.1,0.4,4.7,0.6c0.4-3,0.8-5.9,1.2-9c2,0,3.9,0.3,5.8,0.7c0.3,0,0.5,0.6,0.7,1
		c1.2,2.6,2.3,5.1,3.4,7.7c0.3,0.8,0.7,1.2,1.6,1.3c1.7,0.1,3.4,0.4,5.1,0.6c0.4-3.1,0.8-6,1.2-9.1c1.7,0.2,3.2,0.4,5,0.6
		c-0.4,3-0.7,6-1.1,9.1c1.8,0.3,3.6,0.5,5.4,0.8c-0.2,1.5-0.4,2.9-0.6,4.5c-1.9-0.2-3.6-0.4-5.5-0.6c-0.1,1-0.3,2-0.5,3.2
		c1.8,0.3,3.6,0.5,5.5,0.8c-0.2,1.5-0.4,3-0.6,4.5c-1.9-0.2-3.6-0.4-5.5-0.7c-0.3,2.3-0.7,4.6-1,7.1c-1.9-0.2-3.6-0.5-5.5-0.7
		C68.3,422,67.2,419.6,66.1,416.9z M63.9,411.9c-0.5-1.2-0.8-2.2-1.3-3.1c-0.1-0.2-0.3-0.5-0.6-0.5c-1-0.1-2.1-0.5-3.2-0.3
		c-0.1,1.1-0.2,2.1-0.4,3.1C60.4,411.5,62,411.7,63.9,411.9z M71.9,409.7c-1.2-0.1-2.2-0.3-3.5-0.4c0.3,0.9,0.6,1.6,0.8,2.3
		c0.5,1.4,0.5,1.4,2.3,1.2C71.7,411.8,71.8,410.8,71.9,409.7z M59.9,401.4c-0.5,1.8-0.5,1.8,0.6,1.8C60.3,402.6,60.1,402,59.9,401.4
		z"/>
</g>
</svg>
