<?xml version="1.0" encoding="utf-8"?>
<!-- Generator: Adobe Illustrator 23.0.5, SVG Export Plug-In . SVG Version: 6.00 Build 0)  -->
<svg version="1.1" xmlns="http://www.w3.org/2000/svg" xmlns:xlink="http://www.w3.org/1999/xlink" x="0px" y="0px"
	 viewBox="0 0 500 500" style="enable-background:new 0 0 500 500;" xml:space="preserve">
<style type="text/css">
	.st0{fill:#54883F;}
	.st1{fill:#4C4C4C;}
	.st2{opacity:0.8;fill:url(#SVGID_1_);}
	.st3{fill:url(#SVGID_2_);}
	.st4{opacity:0.8;fill:url(#SVGID_3_);}
	.st5{fill:url(#SVGID_4_);}
	.st6{fill:#FFFFFF;}
	.st7{opacity:0.8;fill:url(#SVGID_5_);}
	.st8{fill:url(#SVGID_6_);}
	.st9{opacity:0.8;fill:url(#SVGID_7_);}
	.st10{fill:url(#SVGID_8_);}
	.st11{fill-rule:evenodd;clip-rule:evenodd;fill:#FFFFFF;}
	.st12{opacity:0.8;fill:url(#SVGID_9_);}
	.st13{fill:url(#SVGID_10_);}
	.st14{opacity:0.8;fill:url(#SVGID_11_);}
	.st15{fill:url(#SVGID_12_);}
	.st16{opacity:0.8;fill:url(#SVGID_13_);}
	.st17{fill:url(#SVGID_14_);}
	.st18{opacity:0.8;fill:url(#SVGID_15_);}
	.st19{fill:url(#SVGID_16_);}
	.st20{fill-rule:evenodd;clip-rule:evenodd;fill:#EE1D52;}
	.st21{fill-rule:evenodd;clip-rule:evenodd;fill:#69C9D0;}
	.st22{opacity:0.8;fill:url(#SVGID_17_);}
	.st23{fill:url(#SVGID_18_);}
	.st24{opacity:0.8;fill:url(#SVGID_19_);}
	.st25{fill:url(#SVGID_20_);}
	.st26{opacity:0.8;fill:url(#SVGID_21_);}
	.st27{fill:url(#SVGID_22_);}
	.st28{opacity:0.8;fill:url(#SVGID_23_);}
	.st29{fill:url(#SVGID_24_);}
	.st30{opacity:0.8;fill:url(#SVGID_25_);}
	.st31{opacity:0.8;fill:url(#SVGID_26_);}
	.st32{opacity:0.8;fill:url(#SVGID_27_);}
	.st33{opacity:0.8;fill:url(#SVGID_28_);}
	.st34{opacity:0.8;fill:url(#SVGID_29_);}
	.st35{opacity:0.8;fill:url(#SVGID_30_);}
	.st36{opacity:0.8;fill:url(#SVGID_31_);}
	.st37{opacity:0.8;fill:url(#SVGID_32_);}
	.st38{opacity:0.8;fill:url(#SVGID_33_);}
	.st39{opacity:0.8;fill:url(#SVGID_34_);}
	.st40{opacity:0.8;fill:url(#SVGID_35_);}
	.st41{opacity:0.8;fill:url(#SVGID_36_);}
	.st42{fill:#FFFFFF;stroke:#54883F;stroke-miterlimit:10;}
</style>
<g id="BACKGROUND">
</g>
<g id="ELEMENTS">
	<circle class="st0" cx="252" cy="251" r="240"/>
	<path class="st6" d="M224.3,212.2c-0.5-1.3-0.9-2.4-1.4-3.5c-0.6-1.5-1.4-3-2-4.6c-1-2.7-0.1-5,2.4-6.4c1.1-0.6,2.4-1.1,3.6-1.7
		c40-17.7,80-35.4,120-53.1c7.4-3.3,14.8-6.6,22.2-9.9c1-0.4,2-0.9,3-1.2c2.7-0.9,4.9-0.1,6.4,2.4c0.4,0.7,0.7,1.5,1.1,2.3
		c14.6,32.9,29.1,65.9,43.7,98.8c0.3,0.8,0.7,1.5,0.9,2.3c0.9,2.7,0.2,5-2.3,6.4c-1.2,0.7-2.6,1.2-3.9,1.8
		c-23.7,10.5-47.3,20.9-71,31.4c-5.3,2.4-10.7,4.7-16,7.1c-0.9,0.4-1.7,0.8-2.7,1.3c-0.3,1-0.6,2-0.9,3.1
		c-1.5,6.1-2.8,12.3-4.4,18.4c-2.1,8.2-7.1,13.8-15.2,16.1c-8.1,2.3-15.3,0.5-21.5-5.4c-0.9-0.9-1.8-1.9-2.8-3
		c-1.3,0.3-2.2,1.3-3.2,2c-11.8,9.1-23.7,18.1-35.5,27.3c-4,3.1-8.1,5.8-12.5,8.3c-15.5,8.9-31,17.8-46.5,26.8c-1,0.6-2,1.2-3.1,2
		c0.6,1.2,1.2,2.3,1.7,3.3c1.5,3.1,0.9,5.5-2.1,7.3c-3.9,2.4-7.8,4.6-11.8,6.8c-3.4,2-6.8,3.9-10.2,5.9c-0.7,0.4-1.4,0.8-2.2,1.2
		c-2.5,1.1-4.7,0.5-6.4-1.6c-0.5-0.7-0.9-1.4-1.3-2.1c-14.9-25.8-29.8-51.7-44.7-77.5c-0.5-0.9-1.1-1.9-1.5-2.8
		c-1.1-2.4-0.6-4.4,1.4-6.1c0.6-0.5,1.4-0.9,2.1-1.4c7-4.1,14.1-8.1,21.1-12.2c0.2-0.1,0.4-0.2,0.6-0.4c3.9-2.1,5.9-1.6,8.4,2.1
		c0.3,0.5,0.7,0.9,1,1.4c1.9-0.4,2.9-1.8,3.9-3.1c3.2-4.5,6.3-9,9.5-13.5c14.1-20,28.2-40,42.1-60.1c3.3-4.8,7.6-8.2,13.1-10
		c4.7-1.6,9.4-3.4,14.1-5.2C222.4,213.1,223.2,212.6,224.3,212.2z M177.6,372.3c1.2-0.7,2.4-1.2,3.5-1.9c16-9.2,32-18.4,48.1-27.6
		c2.9-1.7,5.7-3.5,8.3-5.6c19-14.7,38-29.3,57-43.9c0.9-0.7,1.7-1.3,2.5-2c4.7-4,5.5-10,2.1-15.1c-4.2-6.4-13-9.4-20.5-5.8
		c-1.2,0.6-2.3,1.2-3.4,1.9c-13.9,7.9-27.8,15.9-41.6,23.8c-1,0.6-2.1,1.2-3.2,1.7c-2.4,1.1-4.9,0.3-6.3-1.8c-1.2-1.8-0.9-3.6,0-5.4
		c3-6.3,6-12.7,9.1-19c0.2-0.5,0.7-0.9,1-1.3c3.6,1.1,6.3,2.4,8.5,4.2c-0.4,0.9-0.8,1.9-1.2,2.9c-0.4,0.9-1.1,1.7-0.9,3.2
		c2-1.1,3.8-2.1,5.5-3.2c1.8-1.1,3.9-1.8,5.3-3.4c-1.1-3.7-21.5-49.5-23-51.8c-0.3,0-0.7,0-1,0.1c-6.3,2.3-12.5,4.5-18.8,6.9
		c-2.1,0.8-3.7,2.2-4.9,4c-0.5,0.8-1.1,1.6-1.6,2.3c-17.1,24.3-34.2,48.6-51.2,73c-1.3,1.8-2.7,3.4-4.5,4.6
		c-0.8,0.5-1.4,1.2-2.2,1.9c10.8,18.8,21.6,37.4,32.3,55.9C176.7,371.3,177.1,371.7,177.6,372.3z M386.5,177.7c-0.5,0-0.9,0-1.2,0.1
		c-45.6,20.2-91.2,40.3-136.8,60.5c-0.3,0.1-0.5,0.5-0.9,0.8c0.2,0.8,0.4,1.6,0.8,2.3c3.6,8.2,7.2,16.4,10.9,24.5
		c0.4,0.9,0.5,2.1,2,2.5c0.4-0.2,0.8-0.3,1.2-0.6c3.4-1.9,6.8-4,10.3-5.8c7.8-4.1,15.8-4.5,23.7-0.8c8,3.7,13.4,9.8,14.7,18.9
		c0.1,0.4,0.3,0.9,0.5,1.2c1.6,0.3,2.7-0.6,3.8-1.1c8.5-3.7,17-7.5,25.5-11.3c23.1-10.2,46.2-20.5,69.3-30.7
		c0.8-0.4,1.6-0.9,2.4-1.3c-0.9-3.3-14.1-33.7-24.9-57.3C387.3,179.1,386.9,178.4,386.5,177.7z M173.1,385.3
		c-0.7-1.2-1.3-2.3-1.8-3.3c-3.7-6.5-7.5-13-11.2-19.5c-9-15.6-18-31.2-27-46.8c-0.6-1-0.9-2.2-2.3-2.8c-4.7,2.7-9.5,5.3-14.1,8.3
		c-0.3,0.2-0.3,0.6-0.5,0.8c1.5,3.4,40,69.9,41.7,72.2C160.4,393.2,170.4,387.5,173.1,385.3z M371.1,143.4c-1.5,0.7-2.9,1.3-4.3,1.9
		c-28.2,12.5-56.5,25-84.7,37.5c-15.7,6.9-31.4,13.9-47.1,20.9c-0.8,0.4-1.6,0.9-2.6,1.4c1.3,2.7,1.9,5.5,3.9,8
		c45.9-20.3,91.7-40.5,137.4-60.8c0.4-0.2,0.7-0.6,1.2-0.9C373.8,148.5,373,145.8,371.1,143.4z M379.2,161.1
		c-0.6,0.1-1.1,0.1-1.5,0.3c-45.6,20.2-91.1,40.3-136.7,60.5c-0.3,0.1-0.5,0.5-0.8,0.9c0.9,2.1,1.7,4.4,3,6.5
		c0.6-0.1,1.1-0.1,1.5-0.3c45.6-20.2,91.1-40.3,136.6-60.5c0.3-0.1,0.6-0.4,0.9-0.6C381.4,165.4,380.4,163.2,379.2,161.1z
		 M291.7,308.1c3.9,7.6,15.4,8.3,20.1,0.1c0.8-1.3,1.2-2.8,1.6-4.3c1-3.7,1.8-7.4,2.7-11.1c0.1-0.4,0-0.9,0-1.5
		c-3,0.9-5.5,2.2-8.1,3.4c-0.4,0.2-0.8,0.5-1.1,0.9c-2.5,3.1-5.8,5.3-8.9,7.7C296,304.8,293.9,306.4,291.7,308.1z"/>
	<path class="st6" d="M344.8,234.6c-1.9-2.6-3.4-5.9-4-9c0.7-1.2,2-1.4,3.2-1.9c12.6-5.6,25.2-11.2,37.9-16.8c4.4-2,8.9-4,13.3-5.9
		c1-0.4,2.1-0.8,3.3-1.2c2,3,3,6.1,4.4,9.3c-1.4,0.7-2.5,1.4-3.6,1.9C372.2,223.3,347.4,234.1,344.8,234.6z"/>
	<path class="st6" d="M337.7,219.5c-1.8-3-3.1-6-4.1-9.3c0.8-0.5,1.3-0.9,2-1.2c10.2-5,33.4-15,36.7-15.8c2,2.6,3,5.8,4.2,9
		c-0.5,0.4-1,0.9-1.5,1.2c-11.9,5.3-23.8,10.5-35.7,15.8C338.9,219.2,338.5,219.3,337.7,219.5z"/>
</g>
</svg>
