<?xml version="1.0" encoding="utf-8"?>
<!-- Generator: Adobe Illustrator 23.0.5, SVG Export Plug-In . SVG Version: 6.00 Build 0)  -->
<svg version="1.1" id="Layer_1" xmlns="http://www.w3.org/2000/svg" xmlns:xlink="http://www.w3.org/1999/xlink" x="0px" y="0px"
	 viewBox="0 0 200 200" style="enable-background:new 0 0 200 200;" xml:space="preserve">
<style type="text/css">
	.st0{fill:#32B2E7;}
	.st1{fill:#211E1F;}
	.st2{fill:#F3B633;}
	.st3{fill-rule:evenodd;clip-rule:evenodd;fill:#3C333A;}
	.st4{fill-rule:evenodd;clip-rule:evenodd;fill:#3EC3F1;}
	.st5{fill:#3C333A;}
	.st6{fill:#3EC3F1;}
	.st7{fill:#3CC2F1;}
	.st8{fill:#171717;}
	.st9{fill-rule:evenodd;clip-rule:evenodd;fill:#171717;}
	.st10{fill-rule:evenodd;clip-rule:evenodd;fill:#24AAE2;}
	.st11{fill:#F1F1F2;stroke:#F1F1F2;stroke-width:37;stroke-linecap:round;stroke-linejoin:round;stroke-miterlimit:10;}
	.st12{fill:#B87F39;}
	.st13{fill:#3B333A;}
	.st14{fill:#FFFFFF;}
	.st15{fill:#F2F2F2;}
	.st16{fill:none;stroke:#32B2E7;stroke-width:6.7134;stroke-miterlimit:10;}
	.st17{fill:#5A6271;}
</style>
<path class="st17" d="M96,186L96,186c-6.6,0-11.9-5.4-11.9-11.9V30.7c0-6.6,5.4-11.9,11.9-11.9h0c6.6,0,11.9,5.4,11.9,11.9v143.4
	C107.9,180.7,102.5,186,96,186z"/>
<path class="st17" d="M12.4,102.4L12.4,102.4c0-6.6,5.4-11.9,11.9-11.9h143.4c6.6,0,11.9,5.4,11.9,11.9v0c0,6.6-5.4,11.9-11.9,11.9
	H24.3C17.7,114.3,12.4,109,12.4,102.4z"/>
</svg>
