<?xml version="1.0" encoding="utf-8"?>
<!-- Generator: Adobe Illustrator 23.0.5, SVG Export Plug-In . SVG Version: 6.00 Build 0)  -->
<svg version="1.1" id="Layer_1" xmlns="http://www.w3.org/2000/svg" xmlns:xlink="http://www.w3.org/1999/xlink" x="0px" y="0px"
	 viewBox="0 0 535 581" style="enable-background:new 0 0 535 581;" xml:space="preserve">
<style type="text/css">
	.st0{clip-path:url(#SVGID_2_);}
	.st1{fill:#33CC99;}
	.st2{fill:#FAF8F6;}
	.st3{enable-background:new    ;}
	.st4{fill:#FFFFFF;}
	.st5{fill:#F3D55B;}
	.st6{fill:#F0C419;}
</style>
<g>
	<defs>
		<rect id="SVGID_1_" width="535" height="581"/>
	</defs>
	<clipPath id="SVGID_2_">
		<use xlink:href="#SVGID_1_"  style="overflow:visible;"/>
	</clipPath>
	<g id="Earn_points" class="st0">
		<path id="Rectangle_17022" class="st1" d="M60.5,18h414c22.6,0,41,18.4,41,41v463c0,22.6-18.4,41-41,41h-414
			c-22.6,0-41-18.4-41-41V59C19.5,36.4,37.9,18,60.5,18z"/>
		<circle id="Ellipse_97" class="st2" cx="145" cy="128.5" r="67.5"/>
		<g class="st3">
			<path class="st4" d="M85.2,236.2h8.9v5.5H79.3v-23.1H94v5.5h-8.8v3.2h8v5.4h-8V236.2z"/>
			<path class="st4" d="M108.1,225.2h5.5v16.5h-5.5v-1.5c-1.1,1.3-2.7,2-4.7,2c-2.2,0-4-0.8-5.5-2.5s-2.2-3.7-2.2-6.2
				c0-2.5,0.7-4.6,2.2-6.2c1.5-1.7,3.3-2.5,5.5-2.5c2,0,3.6,0.7,4.7,2V225.2z M102.1,236.1c0.6,0.7,1.5,1,2.5,1c1,0,1.9-0.3,2.5-1
				c0.6-0.7,1-1.5,1-2.6s-0.3-1.9-1-2.6c-0.6-0.7-1.5-1-2.5-1c-1,0-1.9,0.3-2.5,1c-0.6,0.7-1,1.5-1,2.6S101.4,235.4,102.1,236.1z"/>
			<path class="st4" d="M122.2,228.3c0.3-1.1,0.9-1.9,1.8-2.5c0.9-0.6,2-0.9,3.1-0.9v6.1c-1.3-0.2-2.4,0-3.4,0.7
				c-1,0.7-1.5,1.7-1.5,3.2v6.8h-5.5v-16.5h5.5V228.3z"/>
			<path class="st4" d="M139.3,224.8c1.8,0,3.2,0.6,4.4,1.8c1.1,1.2,1.7,3,1.7,5.3v9.9h-5.5v-9.2c0-0.9-0.2-1.5-0.7-1.9
				c-0.5-0.4-1.1-0.7-1.8-0.7c-0.9,0-1.5,0.3-2,0.8c-0.5,0.5-0.7,1.3-0.7,2.2v8.8h-5.5v-16.5h5.5v1.7
				C135.7,225.5,137.2,224.8,139.3,224.8z"/>
			<path class="st4" d="M166,224.8c2.2,0,4,0.8,5.5,2.5c1.5,1.7,2.2,3.7,2.2,6.2c0,2.5-0.7,4.6-2.2,6.2c-1.5,1.7-3.3,2.5-5.5,2.5
				c-2,0-3.6-0.7-4.7-2v8.1h-5.5v-23.1h5.5v1.5C162.4,225.4,164,224.8,166,224.8z M162.2,236.1c0.6,0.7,1.5,1,2.5,1s1.9-0.3,2.5-1
				c0.6-0.7,1-1.5,1-2.6s-0.3-1.9-1-2.6c-0.6-0.7-1.5-1-2.5-1s-1.9,0.3-2.5,1c-0.6,0.7-1,1.5-1,2.6S161.6,235.4,162.2,236.1z"/>
			<path class="st4" d="M184.1,242.2c-2.4,0-4.5-0.8-6.2-2.5c-1.7-1.7-2.6-3.7-2.6-6.2s0.9-4.5,2.6-6.2c1.7-1.7,3.8-2.5,6.2-2.5
				c2.5,0,4.5,0.8,6.3,2.5c1.7,1.7,2.6,3.7,2.6,6.2s-0.9,4.5-2.6,6.2C188.7,241.3,186.6,242.2,184.1,242.2z M184.1,236.9
				c1,0,1.8-0.3,2.4-1c0.6-0.6,0.9-1.5,0.9-2.5s-0.3-1.8-0.9-2.5c-0.6-0.6-1.4-1-2.4-1c-0.9,0-1.7,0.3-2.4,1
				c-0.6,0.6-0.9,1.5-0.9,2.5s0.3,1.8,0.9,2.5C182.4,236.6,183.2,236.9,184.1,236.9z"/>
			<path class="st4" d="M200.3,222.9c-0.6,0.6-1.4,0.9-2.2,0.9c-0.9,0-1.6-0.3-2.2-0.9c-0.6-0.6-0.9-1.4-0.9-2.2
				c0-0.9,0.3-1.6,0.9-2.2c0.6-0.6,1.4-0.9,2.2-0.9c0.9,0,1.6,0.3,2.2,0.9c0.6,0.6,0.9,1.4,0.9,2.2
				C201.2,221.5,200.9,222.3,200.3,222.9z M195.3,241.7v-16.5h5.5v16.5H195.3z"/>
			<path class="st4" d="M214.1,224.8c1.8,0,3.2,0.6,4.4,1.8c1.1,1.2,1.7,3,1.7,5.3v9.9h-5.5v-9.2c0-0.9-0.2-1.5-0.7-1.9
				c-0.5-0.4-1.1-0.7-1.8-0.7c-0.9,0-1.5,0.3-2,0.8c-0.5,0.5-0.7,1.3-0.7,2.2v8.8H204v-16.5h5.5v1.7
				C210.5,225.5,212,224.8,214.1,224.8z"/>
			<path class="st4" d="M233.3,230.5h-3.4v4.8c0,0.7,0.3,1.2,0.8,1.4c0.5,0.2,1.4,0.2,2.6,0.2v5c-3.3,0.4-5.6,0.1-6.9-0.9
				s-2-2.8-2-5.4v-4.9h-2.5v-5.2h2.5v-3l5.5-1.7v4.6h3.4V230.5z"/>
			<path class="st4" d="M241,230c0,0.3,0.3,0.5,0.9,0.7c0.6,0.2,1.2,0.4,2,0.6c0.8,0.2,1.6,0.5,2.4,0.8c0.8,0.3,1.5,0.8,2.1,1.6
				s0.8,1.8,0.8,3c0,1.9-0.7,3.3-2.1,4.2c-1.4,0.9-3.1,1.4-5,1.4c-3.7,0-6.2-1.3-7.4-3.9l4.8-2.4c0.4,1.2,1.3,1.8,2.6,1.8
				c1,0,1.5-0.3,1.5-0.9c0-0.3-0.3-0.6-0.8-0.7c-0.6-0.2-1.2-0.4-2-0.7s-1.5-0.5-2.4-0.8c-0.8-0.3-1.5-0.8-2-1.5s-0.8-1.6-0.8-2.7
				c0-1.8,0.7-3.1,2-4.1s2.9-1.5,4.7-1.5c3.3,0,5.5,1.3,6.8,3.8l-4.6,2.1c-0.5-0.9-1.2-1.4-2-1.4C241.4,229.2,241,229.5,241,230z"/>
			<path class="st4" d="M268.1,223.2c-1.9-0.1-2.8,0.5-2.8,2h2.8v5.2h-2.8v11.3h-5.5v-11.3h-2.1v-5.2h2.1c0-2.4,0.7-4.2,2.1-5.4
				c1.4-1.3,3.5-1.8,6.2-1.6V223.2z"/>
			<path class="st4" d="M277.4,242.2c-2.4,0-4.5-0.8-6.2-2.5s-2.6-3.7-2.6-6.2s0.9-4.5,2.6-6.2s3.8-2.5,6.2-2.5
				c2.5,0,4.5,0.8,6.3,2.5c1.7,1.7,2.6,3.7,2.6,6.2s-0.9,4.5-2.6,6.2C282,241.3,279.9,242.2,277.4,242.2z M277.4,236.9
				c1,0,1.8-0.3,2.4-1c0.6-0.6,0.9-1.5,0.9-2.5s-0.3-1.8-0.9-2.5c-0.6-0.6-1.4-1-2.4-1c-0.9,0-1.7,0.3-2.4,1
				c-0.6,0.6-0.9,1.5-0.9,2.5s0.3,1.8,0.9,2.5C275.7,236.6,276.5,236.9,277.4,236.9z"/>
			<path class="st4" d="M294.1,228.3c0.3-1.1,0.9-1.9,1.8-2.5c0.9-0.6,2-0.9,3.1-0.9v6.1c-1.3-0.2-2.4,0-3.4,0.7
				c-1,0.7-1.5,1.7-1.5,3.2v6.8h-5.5v-16.5h5.5V228.3z"/>
		</g>
		<g class="st3">
			<path class="st4" d="M84,270.5c0.5,1.3,1.8,2,3.7,2c1.2,0,2.2-0.4,3-1.2l4,2.8c-1.6,2-4,3.1-7.1,3.1c-2.8,0-5-0.8-6.7-2.5
				s-2.5-3.7-2.5-6.2c0-2.5,0.8-4.6,2.5-6.2s3.8-2.5,6.3-2.5c2.5,0,4.5,0.8,6.1,2.5c1.6,1.7,2.4,3.7,2.4,6.2c0,0.7-0.1,1.4-0.2,2H84
				z M83.9,266.7h6.3c-0.4-1.5-1.5-2.3-3.1-2.3C85.4,264.4,84.4,265.1,83.9,266.7z"/>
			<path class="st4" d="M107.9,260.2h6.1l-6.2,16.5h-5.9l-6.2-16.5h6.1l3.1,9.5L107.9,260.2z"/>
			<path class="st4" d="M119.7,270.5c0.5,1.3,1.8,2,3.7,2c1.2,0,2.2-0.4,3-1.2l4,2.8c-1.6,2-4,3.1-7.1,3.1c-2.8,0-5-0.8-6.7-2.5
				s-2.5-3.7-2.5-6.2c0-2.5,0.8-4.6,2.5-6.2s3.8-2.5,6.3-2.5c2.5,0,4.5,0.8,6.1,2.5c1.6,1.7,2.4,3.7,2.4,6.2c0,0.7-0.1,1.4-0.2,2
				H119.7z M119.6,266.7h6.3c-0.4-1.5-1.5-2.3-3.1-2.3C121.1,264.4,120.1,265.1,119.6,266.7z"/>
			<path class="st4" d="M139.1,263.3c0.3-1.1,0.9-1.9,1.8-2.5c0.9-0.6,2-0.9,3.1-0.9v6.1c-1.3-0.2-2.4,0-3.4,0.7
				c-1,0.7-1.5,1.7-1.5,3.2v6.8h-5.5v-16.5h5.5V263.3z"/>
			<path class="st4" d="M156.9,260.2h6.1l-5.6,16.2c-0.9,2.5-2.1,4.3-3.7,5.4c-1.6,1.1-3.7,1.6-6.2,1.5v-5.1c1.2,0,2-0.1,2.6-0.4
				c0.6-0.3,1.1-0.8,1.5-1.6l-6.6-16h6.1l3.3,9.6L156.9,260.2z"/>
			<path class="st4" d="M182.2,259.8c2.2,0,4,0.8,5.5,2.5c1.5,1.7,2.2,3.7,2.2,6.2c0,2.5-0.7,4.6-2.2,6.2c-1.5,1.7-3.3,2.5-5.5,2.5
				c-2,0-3.6-0.7-4.7-2v8.1h-5.5v-23.1h5.5v1.5C178.7,260.4,180.2,259.8,182.2,259.8z M178.5,271.1c0.6,0.7,1.5,1,2.5,1
				s1.9-0.3,2.5-1c0.6-0.7,1-1.5,1-2.6s-0.3-1.9-1-2.6c-0.6-0.7-1.5-1-2.5-1s-1.9,0.3-2.5,1c-0.6,0.7-1,1.5-1,2.6
				S177.9,270.4,178.5,271.1z"/>
			<path class="st4" d="M202.8,260.2h5.5v16.5h-5.5v-1.7c-1,1.4-2.5,2.1-4.6,2.1c-1.8,0-3.2-0.6-4.4-1.8c-1.1-1.2-1.7-3-1.7-5.3
				v-9.9h5.5v9.2c0,0.9,0.2,1.5,0.7,1.9c0.5,0.4,1.1,0.7,1.8,0.7c0.9,0,1.5-0.3,2-0.8c0.5-0.5,0.7-1.3,0.7-2.2V260.2z"/>
			<path class="st4" d="M217,263.3c0.3-1.1,0.9-1.9,1.8-2.5c0.9-0.6,2-0.9,3.1-0.9v6.1c-1.3-0.2-2.4,0-3.4,0.7
				c-1,0.7-1.5,1.7-1.5,3.2v6.8h-5.5v-16.5h5.5V263.3z"/>
			<path class="st4" d="M231.5,277.2c-2.5,0-4.6-0.8-6.3-2.5s-2.5-3.7-2.5-6.2s0.8-4.5,2.5-6.2s3.8-2.5,6.3-2.5
				c1.6,0,3.1,0.4,4.4,1.2c1.3,0.8,2.4,1.8,3.1,3.1l-4.7,2.7c-0.6-1.1-1.6-1.6-2.9-1.6c-0.9,0-1.7,0.3-2.3,0.9
				c-0.6,0.6-0.9,1.4-0.9,2.4s0.3,1.8,0.9,2.4c0.6,0.6,1.4,0.9,2.3,0.9c1.4,0,2.3-0.5,2.9-1.7l4.7,2.7c-0.7,1.3-1.8,2.4-3.1,3.1
				C234.7,276.8,233.2,277.2,231.5,277.2z"/>
			<path class="st4" d="M250.9,259.8c1.8,0,3.2,0.6,4.4,1.8c1.1,1.2,1.7,3,1.7,5.3v9.9h-5.5v-9.2c0-0.9-0.2-1.5-0.7-1.9
				c-0.5-0.4-1.1-0.7-1.8-0.7c-0.9,0-1.5,0.3-2,0.8c-0.5,0.5-0.7,1.3-0.7,2.2v8.8h-5.5v-23.1h5.5v8.3
				C247.3,260.5,248.8,259.8,250.9,259.8z"/>
			<path class="st4" d="M271.5,260.2h5.5v16.5h-5.5v-1.5c-1.1,1.3-2.7,2-4.7,2c-2.2,0-4-0.8-5.5-2.5s-2.2-3.7-2.2-6.2
				c0-2.5,0.7-4.6,2.2-6.2c1.5-1.7,3.3-2.5,5.5-2.5c2,0,3.6,0.7,4.7,2V260.2z M265.6,271.1c0.6,0.7,1.5,1,2.5,1c1,0,1.9-0.3,2.5-1
				c0.6-0.7,1-1.5,1-2.6s-0.3-1.9-1-2.6c-0.6-0.7-1.5-1-2.5-1c-1,0-1.9,0.3-2.5,1c-0.6,0.7-1,1.5-1,2.6S264.9,270.4,265.6,271.1z"/>
			<path class="st4" d="M285.4,265c0,0.3,0.3,0.5,0.9,0.7c0.6,0.2,1.2,0.4,2,0.6c0.8,0.2,1.6,0.5,2.4,0.8c0.8,0.3,1.5,0.8,2.1,1.6
				s0.8,1.8,0.8,3c0,1.9-0.7,3.3-2.1,4.2c-1.4,0.9-3.1,1.4-5,1.4c-3.7,0-6.2-1.3-7.4-3.9l4.8-2.4c0.4,1.2,1.3,1.8,2.6,1.8
				c1,0,1.5-0.3,1.5-0.9c0-0.3-0.3-0.6-0.8-0.7c-0.6-0.2-1.2-0.4-2-0.7c-0.8-0.3-1.5-0.5-2.4-0.8c-0.8-0.3-1.5-0.8-2-1.5
				s-0.8-1.6-0.8-2.7c0-1.8,0.7-3.1,2-4.1s2.9-1.5,4.7-1.5c3.3,0,5.5,1.3,6.8,3.8l-4.6,2.1c-0.5-0.9-1.2-1.4-2-1.4
				C285.8,264.2,285.4,264.5,285.4,265z"/>
			<path class="st4" d="M300.5,270.5c0.5,1.3,1.8,2,3.7,2c1.2,0,2.2-0.4,3-1.2l4,2.8c-1.6,2-4,3.1-7.1,3.1c-2.8,0-5-0.8-6.7-2.5
				s-2.5-3.7-2.5-6.2c0-2.5,0.8-4.6,2.5-6.2c1.7-1.7,3.8-2.5,6.3-2.5c2.5,0,4.5,0.8,6.1,2.5c1.6,1.7,2.4,3.7,2.4,6.2
				c0,0.7-0.1,1.4-0.2,2H300.5z M300.4,266.7h6.3c-0.4-1.5-1.5-2.3-3.1-2.3C302,264.4,300.9,265.1,300.4,266.7z"/>
		</g>
		<g class="st3">
			<path class="st4" d="M79.6,357.5v-15.1h8.7v1.6h-6.8v5.1h5.8v1.6h-5.8v6.8H79.6z"/>
			<path class="st4" d="M94.8,357.8c-0.7,0-1.3-0.1-2-0.4s-1.2-0.6-1.6-1.1c-0.5-0.5-0.9-1.1-1.1-1.8c-0.3-0.7-0.4-1.6-0.4-2.5
				c0-0.9,0.1-1.8,0.4-2.5s0.7-1.3,1.1-1.9c0.5-0.5,1-0.9,1.6-1.2c0.6-0.3,1.3-0.4,2-0.4s1.3,0.1,2,0.4c0.6,0.3,1.2,0.6,1.6,1.2
				c0.5,0.5,0.9,1.1,1.1,1.9s0.4,1.6,0.4,2.5c0,0.9-0.1,1.7-0.4,2.5c-0.3,0.7-0.7,1.3-1.1,1.8c-0.5,0.5-1,0.9-1.6,1.1
				C96.1,357.6,95.5,357.8,94.8,357.8z M94.8,356.2c0.5,0,0.9-0.1,1.3-0.3c0.4-0.2,0.7-0.5,1-0.9c0.3-0.4,0.5-0.8,0.7-1.3
				c0.2-0.5,0.2-1.1,0.2-1.7c0-0.6-0.1-1.2-0.2-1.8c-0.2-0.5-0.4-1-0.7-1.4c-0.3-0.4-0.6-0.7-1-0.9c-0.4-0.2-0.8-0.3-1.3-0.3
				c-0.5,0-0.9,0.1-1.3,0.3c-0.4,0.2-0.7,0.5-1,0.9c-0.3,0.4-0.5,0.8-0.7,1.4c-0.2,0.5-0.2,1.1-0.2,1.8c0,0.6,0.1,1.2,0.2,1.7
				c0.2,0.5,0.4,1,0.7,1.3c0.3,0.4,0.6,0.7,1,0.9C93.9,356.1,94.3,356.2,94.8,356.2z"/>
			<path class="st4" d="M102.9,357.5v-11.2h1.6l0.2,2h0.1c0.4-0.7,0.8-1.3,1.4-1.7s1.1-0.6,1.8-0.6c0.4,0,0.8,0.1,1.2,0.2l-0.4,1.7
				c-0.2-0.1-0.4-0.1-0.5-0.1c-0.2,0-0.3,0-0.6,0c-0.5,0-1,0.2-1.5,0.6c-0.5,0.4-1,1-1.3,2v7.2H102.9z"/>
			<path class="st4" d="M120,357.8c-0.8,0-1.5-0.1-2.1-0.4c-0.7-0.3-1.2-0.7-1.7-1.1s-0.9-1.1-1.1-1.8c-0.3-0.7-0.4-1.5-0.4-2.5
				s0.1-1.7,0.4-2.5s0.7-1.3,1.1-1.9c0.5-0.5,1-0.9,1.6-1.2c0.6-0.3,1.2-0.4,1.9-0.4c0.7,0,1.3,0.1,1.9,0.4c0.6,0.2,1,0.6,1.4,1.1
				c0.4,0.5,0.7,1,0.9,1.7c0.2,0.6,0.3,1.4,0.3,2.2c0,0.2,0,0.4,0,0.6c0,0.2,0,0.4-0.1,0.5h-7.5c0.1,1.2,0.4,2.1,1.1,2.8
				c0.7,0.7,1.5,1,2.6,1c0.5,0,1-0.1,1.5-0.2s0.9-0.4,1.3-0.6l0.7,1.2c-0.5,0.3-1,0.6-1.6,0.8C121.5,357.7,120.8,357.8,120,357.8z
				 M116.5,351h6c0-1.1-0.2-2-0.7-2.6c-0.5-0.6-1.2-0.9-2-0.9c-0.4,0-0.8,0.1-1.1,0.2c-0.4,0.2-0.7,0.4-1,0.7
				c-0.3,0.3-0.5,0.7-0.7,1.1C116.7,350,116.5,350.5,116.5,351z"/>
			<path class="st4" d="M129.4,357.5l-4-11.2h2l2.1,6.3c0.2,0.6,0.3,1.1,0.5,1.7s0.3,1.1,0.5,1.6h0.1c0.2-0.5,0.3-1.1,0.5-1.6
				c0.2-0.6,0.3-1.1,0.5-1.7l2.1-6.3h1.9l-4,11.2H129.4z"/>
			<path class="st4" d="M142.2,357.8c-0.8,0-1.5-0.1-2.1-0.4c-0.7-0.3-1.2-0.7-1.7-1.1s-0.9-1.1-1.1-1.8c-0.3-0.7-0.4-1.5-0.4-2.5
				s0.1-1.7,0.4-2.5s0.7-1.3,1.1-1.9c0.5-0.5,1-0.9,1.6-1.2c0.6-0.3,1.2-0.4,1.9-0.4c0.7,0,1.3,0.1,1.9,0.4c0.6,0.2,1,0.6,1.4,1.1
				c0.4,0.5,0.7,1,0.9,1.7c0.2,0.6,0.3,1.4,0.3,2.2c0,0.2,0,0.4,0,0.6c0,0.2,0,0.4-0.1,0.5h-7.5c0.1,1.2,0.4,2.1,1.1,2.8
				c0.7,0.7,1.5,1,2.6,1c0.5,0,1-0.1,1.5-0.2s0.9-0.4,1.3-0.6l0.7,1.2c-0.5,0.3-1,0.6-1.6,0.8C143.6,357.7,142.9,357.8,142.2,357.8z
				 M138.7,351h6c0-1.1-0.2-2-0.7-2.6c-0.5-0.6-1.2-0.9-2-0.9c-0.4,0-0.8,0.1-1.1,0.2c-0.4,0.2-0.7,0.4-1,0.7
				c-0.3,0.3-0.5,0.7-0.7,1.1C138.8,350,138.7,350.5,138.7,351z"/>
			<path class="st4" d="M149.1,357.5v-11.2h1.6l0.2,2h0.1c0.4-0.7,0.8-1.3,1.4-1.7s1.1-0.6,1.8-0.6c0.4,0,0.8,0.1,1.2,0.2l-0.4,1.7
				c-0.2-0.1-0.4-0.1-0.5-0.1c-0.2,0-0.3,0-0.6,0c-0.5,0-1,0.2-1.5,0.6c-0.5,0.4-1,1-1.3,2v7.2H149.1z"/>
			<path class="st4" d="M157.8,362.3c-0.3,0-0.5,0-0.7-0.1s-0.4-0.1-0.6-0.2l0.4-1.5c0.1,0,0.3,0.1,0.4,0.1s0.3,0.1,0.4,0.1
				c0.6,0,1.2-0.2,1.6-0.7c0.4-0.5,0.7-1,1-1.7l0.3-0.8l-4.5-11.2h2l2.3,6.2c0.2,0.5,0.3,1,0.5,1.6s0.4,1.1,0.5,1.6h0.1
				c0.2-0.5,0.3-1,0.5-1.6c0.2-0.6,0.3-1.1,0.5-1.6l2-6.2h1.8l-4.2,12.1c-0.2,0.6-0.4,1.1-0.7,1.5s-0.5,0.9-0.9,1.2
				s-0.7,0.6-1.1,0.8S158.4,362.3,157.8,362.3z"/>
			<path class="st4" d="M173.9,344c-0.4,0-0.7-0.1-0.9-0.3c-0.3-0.2-0.4-0.5-0.4-0.9c0-0.4,0.1-0.7,0.4-0.9c0.3-0.2,0.6-0.3,0.9-0.3
				s0.7,0.1,0.9,0.3c0.3,0.2,0.4,0.5,0.4,0.9c0,0.4-0.1,0.6-0.4,0.9C174.6,343.9,174.3,344,173.9,344z M172.9,357.5v-11.2h1.9v11.2
				H172.9z"/>
			<path class="st4" d="M182.1,357.8c-0.6,0-1.1-0.1-1.5-0.3s-0.7-0.4-1-0.8s-0.4-0.7-0.5-1.2c-0.1-0.5-0.2-1-0.2-1.5v-6.2h-1.7
				v-1.4l1.7-0.1l0.2-3.1h1.6v3.1h3v1.5h-3v6.2c0,0.7,0.1,1.2,0.4,1.6s0.7,0.6,1.3,0.6c0.2,0,0.4,0,0.6-0.1c0.2-0.1,0.4-0.1,0.6-0.2
				l0.4,1.4c-0.3,0.1-0.6,0.2-1,0.3C182.8,357.7,182.5,357.8,182.1,357.8z"/>
			<path class="st4" d="M190.6,357.8c-0.8,0-1.5-0.1-2.1-0.4c-0.7-0.3-1.2-0.7-1.7-1.1s-0.9-1.1-1.1-1.8c-0.3-0.7-0.4-1.5-0.4-2.5
				s0.1-1.7,0.4-2.5s0.7-1.3,1.1-1.9c0.5-0.5,1-0.9,1.6-1.2c0.6-0.3,1.2-0.4,1.9-0.4c0.7,0,1.3,0.1,1.9,0.4c0.6,0.2,1,0.6,1.4,1.1
				c0.4,0.5,0.7,1,0.9,1.7c0.2,0.6,0.3,1.4,0.3,2.2c0,0.2,0,0.4,0,0.6c0,0.2,0,0.4-0.1,0.5h-7.5c0.1,1.2,0.4,2.1,1.1,2.8
				c0.7,0.7,1.5,1,2.6,1c0.5,0,1-0.1,1.5-0.2s0.9-0.4,1.3-0.6l0.7,1.2c-0.5,0.3-1,0.6-1.6,0.8C192,357.7,191.4,357.8,190.6,357.8z
				 M187.1,351h6c0-1.1-0.2-2-0.7-2.6c-0.5-0.6-1.2-0.9-2-0.9c-0.4,0-0.8,0.1-1.1,0.2c-0.4,0.2-0.7,0.4-1,0.7
				c-0.3,0.3-0.5,0.7-0.7,1.1C187.3,350,187.1,350.5,187.1,351z"/>
			<path class="st4" d="M197.5,357.5v-11.2h1.6l0.2,1.6h0.1c0.5-0.5,1-1,1.6-1.3c0.6-0.4,1.2-0.5,1.9-0.5c0.9,0,1.5,0.2,2,0.6
				c0.5,0.4,0.8,0.9,1.1,1.6c0.6-0.6,1.2-1.2,1.8-1.6c0.6-0.4,1.2-0.6,1.9-0.6c1.1,0,2,0.4,2.6,1.1c0.6,0.7,0.8,1.8,0.8,3.3v7.1H211
				v-6.8c0-1.1-0.2-1.8-0.5-2.3s-0.9-0.7-1.6-0.7c-0.8,0-1.8,0.6-2.8,1.7v8.1h-1.9v-6.8c0-1.1-0.2-1.8-0.5-2.3
				c-0.3-0.5-0.9-0.7-1.6-0.7c-0.8,0-1.8,0.6-2.8,1.7v8.1H197.5z"/>
			<path class="st4" d="M221.3,362.3c-0.3,0-0.5,0-0.7-0.1s-0.4-0.1-0.6-0.2l0.4-1.5c0.1,0,0.3,0.1,0.4,0.1s0.3,0.1,0.4,0.1
				c0.6,0,1.2-0.2,1.6-0.7c0.4-0.5,0.7-1,1-1.7l0.3-0.8l-4.5-11.2h2l2.3,6.2c0.2,0.5,0.3,1,0.5,1.6s0.4,1.1,0.5,1.6h0.1
				c0.2-0.5,0.3-1,0.5-1.6c0.2-0.6,0.3-1.1,0.5-1.6l2-6.2h1.8l-4.2,12.1c-0.2,0.6-0.4,1.1-0.7,1.5s-0.5,0.9-0.9,1.2
				s-0.7,0.6-1.1,0.8S221.9,362.3,221.3,362.3z"/>
			<path class="st4" d="M236.1,357.8c-0.7,0-1.3-0.1-2-0.4s-1.2-0.6-1.6-1.1c-0.5-0.5-0.9-1.1-1.1-1.8c-0.3-0.7-0.4-1.6-0.4-2.5
				c0-0.9,0.1-1.8,0.4-2.5s0.7-1.3,1.1-1.9c0.5-0.5,1-0.9,1.6-1.2c0.6-0.3,1.3-0.4,2-0.4s1.3,0.1,2,0.4c0.6,0.3,1.2,0.6,1.6,1.2
				c0.5,0.5,0.9,1.1,1.1,1.9s0.4,1.6,0.4,2.5c0,0.9-0.1,1.7-0.4,2.5c-0.3,0.7-0.7,1.3-1.1,1.8c-0.5,0.5-1,0.9-1.6,1.1
				C237.5,357.6,236.8,357.8,236.1,357.8z M236.1,356.2c0.5,0,0.9-0.1,1.3-0.3c0.4-0.2,0.7-0.5,1-0.9c0.3-0.4,0.5-0.8,0.7-1.3
				c0.2-0.5,0.2-1.1,0.2-1.7c0-0.6-0.1-1.2-0.2-1.8c-0.2-0.5-0.4-1-0.7-1.4c-0.3-0.4-0.6-0.7-1-0.9c-0.4-0.2-0.8-0.3-1.3-0.3
				c-0.5,0-0.9,0.1-1.3,0.3c-0.4,0.2-0.7,0.5-1,0.9c-0.3,0.4-0.5,0.8-0.7,1.4c-0.2,0.5-0.2,1.1-0.2,1.8c0,0.6,0.1,1.2,0.2,1.7
				c0.2,0.5,0.4,1,0.7,1.3c0.3,0.4,0.6,0.7,1,0.9C235.2,356.1,235.7,356.2,236.1,356.2z"/>
			<path class="st4" d="M247.5,357.8c-1.2,0-2.1-0.4-2.6-1.1c-0.5-0.7-0.8-1.8-0.8-3.3v-7.1h1.9v6.8c0,1.1,0.2,1.8,0.5,2.3
				s0.9,0.7,1.6,0.7c0.6,0,1.1-0.1,1.5-0.4c0.4-0.3,0.9-0.8,1.5-1.4v-7.9h1.9v11.2h-1.6l-0.2-1.7h-0.1c-0.5,0.6-1.1,1.1-1.6,1.5
				C249,357.6,248.3,357.8,247.5,357.8z"/>
			<path class="st4" d="M266.3,357.8c-0.5,0-1.1-0.1-1.6-0.4c-0.6-0.3-1.1-0.6-1.6-1H263l-0.2,1.2h-1.5v-16.4h1.9v4.5l0,2
				c0.5-0.4,1.1-0.8,1.7-1.1c0.6-0.3,1.2-0.4,1.8-0.4c0.7,0,1.4,0.1,1.9,0.4c0.6,0.3,1,0.7,1.4,1.2s0.7,1.1,0.9,1.8
				c0.2,0.7,0.3,1.5,0.3,2.3c0,1-0.1,1.8-0.4,2.6c-0.3,0.8-0.6,1.4-1.1,1.9s-1,0.9-1.5,1.2C267.6,357.6,266.9,357.8,266.3,357.8z
				 M266,356.2c0.5,0,0.9-0.1,1.3-0.3c0.4-0.2,0.7-0.5,1-0.9c0.3-0.4,0.5-0.8,0.7-1.4c0.2-0.6,0.2-1.2,0.2-1.9
				c0-0.6-0.1-1.2-0.2-1.7s-0.3-0.9-0.5-1.3s-0.5-0.6-0.9-0.8c-0.4-0.2-0.8-0.3-1.3-0.3c-0.9,0-1.9,0.5-3,1.5v5.9
				c0.5,0.4,1,0.7,1.5,0.9C265.2,356.1,265.6,356.2,266,356.2z"/>
			<path class="st4" d="M277.3,357.8c-1.2,0-2.1-0.4-2.6-1.1c-0.5-0.7-0.8-1.8-0.8-3.3v-7.1h1.9v6.8c0,1.1,0.2,1.8,0.5,2.3
				c0.3,0.5,0.9,0.7,1.6,0.7c0.6,0,1.1-0.1,1.5-0.4c0.4-0.3,0.9-0.8,1.5-1.4v-7.9h1.9v11.2h-1.6l-0.2-1.7H281
				c-0.5,0.6-1.1,1.1-1.6,1.5C278.8,357.6,278.1,357.8,277.3,357.8z"/>
			<path class="st4" d="M286.8,362.3c-0.3,0-0.5,0-0.7-0.1s-0.4-0.1-0.6-0.2l0.4-1.5c0.1,0,0.3,0.1,0.4,0.1s0.3,0.1,0.4,0.1
				c0.6,0,1.2-0.2,1.6-0.7c0.4-0.5,0.7-1,1-1.7l0.3-0.8l-4.5-11.2h2l2.3,6.2c0.2,0.5,0.3,1,0.5,1.6c0.2,0.5,0.4,1.1,0.5,1.6h0.1
				c0.2-0.5,0.3-1,0.5-1.6c0.2-0.6,0.3-1.1,0.5-1.6l2-6.2h1.8l-4.2,12.1c-0.2,0.6-0.4,1.1-0.7,1.5s-0.5,0.9-0.9,1.2
				s-0.7,0.6-1.2,0.8C287.8,362.2,287.3,362.3,286.8,362.3z"/>
			<path class="st4" d="M296.2,361.4l-0.5-1.1c0.7-0.3,1.2-0.7,1.5-1.2c0.4-0.5,0.5-1,0.5-1.6c0,0-0.1,0-0.2,0c-0.4,0-0.7-0.1-1-0.3
				c-0.3-0.2-0.4-0.5-0.4-1c0-0.4,0.1-0.7,0.4-1c0.3-0.2,0.6-0.4,1-0.4c0.5,0,0.9,0.2,1.2,0.6c0.3,0.4,0.4,0.9,0.4,1.6
				c0,1-0.3,1.9-0.8,2.6C297.9,360.4,297.1,361,296.2,361.4z"/>
			<path class="st4" d="M307,362.3c-0.3,0-0.5,0-0.7-0.1s-0.4-0.1-0.6-0.2l0.4-1.5c0.1,0,0.3,0.1,0.4,0.1c0.2,0,0.3,0.1,0.4,0.1
				c0.6,0,1.2-0.2,1.6-0.7s0.7-1,1-1.7l0.3-0.8l-4.5-11.2h2l2.3,6.2c0.2,0.5,0.3,1,0.5,1.6s0.4,1.1,0.5,1.6h0.1
				c0.2-0.5,0.3-1,0.5-1.6c0.2-0.6,0.3-1.1,0.5-1.6l2-6.2h1.8l-4.2,12.1c-0.2,0.6-0.4,1.1-0.7,1.5c-0.2,0.5-0.5,0.9-0.9,1.2
				c-0.3,0.3-0.7,0.6-1.2,0.8S307.6,362.3,307,362.3z"/>
			<path class="st4" d="M321.8,357.8c-0.7,0-1.3-0.1-2-0.4s-1.2-0.6-1.6-1.1c-0.5-0.5-0.9-1.1-1.1-1.8c-0.3-0.7-0.4-1.6-0.4-2.5
				c0-0.9,0.1-1.8,0.4-2.5s0.7-1.3,1.1-1.9s1-0.9,1.6-1.2c0.6-0.3,1.3-0.4,2-0.4c0.7,0,1.3,0.1,2,0.4c0.6,0.3,1.2,0.6,1.6,1.2
				c0.5,0.5,0.9,1.1,1.1,1.9s0.4,1.6,0.4,2.5c0,0.9-0.1,1.7-0.4,2.5c-0.3,0.7-0.7,1.3-1.1,1.8c-0.5,0.5-1,0.9-1.6,1.1
				S322.5,357.8,321.8,357.8z M321.8,356.2c0.5,0,0.9-0.1,1.3-0.3c0.4-0.2,0.7-0.5,1-0.9c0.3-0.4,0.5-0.8,0.7-1.3
				c0.2-0.5,0.2-1.1,0.2-1.7c0-0.6-0.1-1.2-0.2-1.8c-0.2-0.5-0.4-1-0.7-1.4c-0.3-0.4-0.6-0.7-1-0.9c-0.4-0.2-0.8-0.3-1.3-0.3
				c-0.5,0-0.9,0.1-1.3,0.3s-0.7,0.5-1,0.9c-0.3,0.4-0.5,0.8-0.7,1.4c-0.2,0.5-0.2,1.1-0.2,1.8c0,0.6,0.1,1.2,0.2,1.7
				c0.2,0.5,0.4,1,0.7,1.3c0.3,0.4,0.6,0.7,1,0.9S321.4,356.2,321.8,356.2z"/>
			<path class="st4" d="M333.2,357.8c-1.2,0-2.1-0.4-2.6-1.1c-0.5-0.7-0.8-1.8-0.8-3.3v-7.1h1.9v6.8c0,1.1,0.2,1.8,0.5,2.3
				c0.3,0.5,0.9,0.7,1.6,0.7c0.6,0,1.1-0.1,1.5-0.4c0.4-0.3,0.9-0.8,1.5-1.4v-7.9h1.9v11.2h-1.6l-0.2-1.7h-0.1
				c-0.5,0.6-1.1,1.1-1.6,1.5C334.7,357.6,334,357.8,333.2,357.8z"/>
			<path class="st4" d="M351.6,357.8c-0.8,0-1.5-0.1-2.1-0.4c-0.7-0.3-1.2-0.7-1.7-1.1s-0.9-1.1-1.1-1.8c-0.3-0.7-0.4-1.5-0.4-2.5
				s0.1-1.7,0.4-2.5s0.7-1.3,1.1-1.9c0.5-0.5,1-0.9,1.6-1.2c0.6-0.3,1.2-0.4,1.9-0.4c0.7,0,1.3,0.1,1.9,0.4c0.6,0.2,1,0.6,1.4,1.1
				c0.4,0.5,0.7,1,0.9,1.7c0.2,0.6,0.3,1.4,0.3,2.2c0,0.2,0,0.4,0,0.6c0,0.2,0,0.4-0.1,0.5h-7.5c0.1,1.2,0.4,2.1,1.1,2.8
				c0.7,0.7,1.5,1,2.6,1c0.5,0,1-0.1,1.5-0.2c0.5-0.2,0.9-0.4,1.3-0.6l0.7,1.2c-0.5,0.3-1,0.6-1.6,0.8
				C353.1,357.7,352.4,357.8,351.6,357.8z M348.1,351h6c0-1.1-0.2-2-0.7-2.6c-0.5-0.6-1.2-0.9-2-0.9c-0.4,0-0.8,0.1-1.1,0.2
				c-0.4,0.2-0.7,0.4-1,0.7c-0.3,0.3-0.5,0.7-0.7,1.1C348.3,350,348.2,350.5,348.1,351z"/>
			<path class="st4" d="M360.7,357.8c-0.9,0-1.7-0.3-2.3-0.8s-0.9-1.3-0.9-2.3c0-1.2,0.5-2.2,1.6-2.8c1.1-0.7,2.8-1.1,5.2-1.4
				c0-0.4,0-0.7-0.1-1c-0.1-0.3-0.2-0.6-0.4-0.9s-0.4-0.5-0.7-0.6c-0.3-0.2-0.7-0.2-1.1-0.2c-0.6,0-1.3,0.1-1.8,0.4
				c-0.6,0.2-1.1,0.5-1.5,0.8l-0.7-1.3c0.5-0.3,1.2-0.7,1.9-1s1.6-0.5,2.5-0.5c1.4,0,2.4,0.4,3,1.3c0.6,0.8,0.9,2,0.9,3.3v6.9h-1.6
				l-0.2-1.3h-0.1c-0.5,0.4-1.1,0.8-1.7,1.1C362.1,357.6,361.4,357.8,360.7,357.8z M361.3,356.3c0.5,0,1-0.1,1.5-0.4
				c0.5-0.3,1-0.6,1.5-1.1v-3.1c-0.9,0.1-1.7,0.3-2.4,0.4c-0.6,0.2-1.2,0.4-1.5,0.6c-0.4,0.2-0.7,0.5-0.9,0.8
				c-0.2,0.3-0.3,0.6-0.3,1c0,0.6,0.2,1.1,0.6,1.4C360.3,356.1,360.7,356.3,361.3,356.3z"/>
			<path class="st4" d="M369.8,357.5v-11.2h1.6l0.2,2h0.1c0.4-0.7,0.8-1.3,1.4-1.7c0.5-0.4,1.1-0.6,1.8-0.6c0.4,0,0.8,0.1,1.2,0.2
				l-0.4,1.7c-0.2-0.1-0.4-0.1-0.5-0.1c-0.2,0-0.3,0-0.6,0c-0.5,0-1,0.2-1.5,0.6c-0.5,0.4-1,1-1.3,2v7.2H369.8z"/>
			<path class="st4" d="M377.7,357.5v-11.2h1.6l0.2,1.6h0.1c0.5-0.5,1.1-1,1.7-1.3c0.6-0.4,1.3-0.5,2.1-0.5c1.2,0,2,0.4,2.6,1.1
				c0.5,0.7,0.8,1.8,0.8,3.3v7.1h-1.9v-6.8c0-1.1-0.2-1.8-0.5-2.3s-0.9-0.7-1.6-0.7c-0.6,0-1.1,0.1-1.5,0.4c-0.4,0.3-1,0.7-1.5,1.3
				v8.1H377.7z"/>
			<path class="st4" d="M397.9,357.8c-1.9,0-3.3-0.8-4.2-2.4l1.4-1c0.3,0.6,0.7,1,1.2,1.3c0.4,0.3,0.9,0.4,1.4,0.4
				c0.8,0,1.4-0.2,1.8-0.7s0.6-1.3,0.6-2.5v-10.5h1.9v10.6c0,0.6-0.1,1.3-0.2,1.8c-0.2,0.6-0.4,1.1-0.7,1.5c-0.3,0.4-0.8,0.8-1.3,1
				C399.3,357.7,398.6,357.8,397.9,357.8z"/>
			<path class="st4" d="M404.1,357.5l5.1-15.1h2.2l5.1,15.1h-2l-1.4-4.6h-5.5l-1.4,4.6H404.1z M408.7,349.1l-0.7,2.3h4.5l-0.7-2.3
				c-0.3-0.8-0.5-1.7-0.8-2.5c-0.2-0.8-0.5-1.7-0.7-2.6h-0.1c-0.2,0.9-0.5,1.7-0.7,2.6C409.3,347.4,409,348.2,408.7,349.1z"/>
			<path class="st4" d="M418.7,357.5v-15.1h4.7c0.8,0,1.5,0.1,2.1,0.2c0.7,0.1,1.2,0.4,1.7,0.7c0.5,0.3,0.8,0.8,1.1,1.3
				c0.3,0.5,0.4,1.2,0.4,2c0,1.2-0.3,2.1-0.9,2.8c-0.6,0.7-1.4,1.2-2.5,1.4l3.8,6.6h-2.2l-3.6-6.4h-2.7v6.4H418.7z M420.6,349.6h2.5
				c1.2,0,2.1-0.2,2.7-0.7c0.6-0.5,0.9-1.2,0.9-2.2c0-1-0.3-1.7-0.9-2.1c-0.6-0.4-1.5-0.6-2.7-0.6h-2.5V349.6z"/>
			<path class="st4" d="M429.6,357.5l5.1-15.1h2.2l5.1,15.1h-2l-1.4-4.6h-5.5l-1.4,4.6H429.6z M434.2,349.1l-0.7,2.3h4.5l-0.7-2.3
				c-0.3-0.8-0.5-1.7-0.8-2.5c-0.2-0.8-0.5-1.7-0.7-2.6h-0.1c-0.2,0.9-0.5,1.7-0.7,2.6C434.8,347.4,434.5,348.2,434.2,349.1z"/>
		</g>
		<g class="st3">
			<path class="st4" d="M79.4,399.2v-15.9H81l0.2,1.3h0.1c0.5-0.4,1.1-0.8,1.7-1.1c0.6-0.3,1.2-0.5,1.9-0.5c0.7,0,1.4,0.1,1.9,0.4
				c0.6,0.3,1,0.7,1.4,1.2c0.4,0.5,0.6,1.1,0.8,1.8c0.2,0.7,0.3,1.5,0.3,2.4c0,1-0.1,1.8-0.4,2.5c-0.3,0.7-0.6,1.4-1.1,1.9
				s-1,0.9-1.5,1.2c-0.6,0.3-1.2,0.4-1.8,0.4c-0.5,0-1-0.1-1.6-0.3c-0.5-0.2-1-0.5-1.6-0.9l0,2v3.8H79.4z M84,393.2
				c0.5,0,0.9-0.1,1.3-0.3c0.4-0.2,0.7-0.5,1-0.9s0.5-0.8,0.7-1.4c0.2-0.6,0.2-1.2,0.2-1.9c0-0.6-0.1-1.2-0.2-1.7
				c-0.1-0.5-0.3-0.9-0.5-1.3s-0.5-0.6-0.9-0.8c-0.4-0.2-0.8-0.3-1.3-0.3c-0.5,0-1,0.1-1.4,0.4c-0.5,0.3-1,0.6-1.6,1.1v5.9
				c0.5,0.4,1,0.7,1.5,0.9C83.2,393.1,83.6,393.2,84,393.2z"/>
			<path class="st4" d="M96.5,394.8c-0.7,0-1.3-0.1-2-0.4s-1.2-0.6-1.6-1.1c-0.5-0.5-0.9-1.1-1.1-1.8c-0.3-0.7-0.4-1.6-0.4-2.5
				c0-0.9,0.1-1.8,0.4-2.5s0.7-1.3,1.1-1.9c0.5-0.5,1-0.9,1.6-1.2c0.6-0.3,1.3-0.4,2-0.4s1.3,0.1,2,0.4c0.6,0.3,1.2,0.6,1.6,1.2
				c0.5,0.5,0.9,1.1,1.1,1.9s0.4,1.6,0.4,2.5c0,0.9-0.1,1.7-0.4,2.5c-0.3,0.7-0.7,1.3-1.1,1.8c-0.5,0.5-1,0.9-1.6,1.1
				C97.8,394.6,97.2,394.8,96.5,394.8z M96.5,393.2c0.5,0,0.9-0.1,1.3-0.3c0.4-0.2,0.7-0.5,1-0.9c0.3-0.4,0.5-0.8,0.7-1.3
				c0.2-0.5,0.2-1.1,0.2-1.7c0-0.6-0.1-1.2-0.2-1.8c-0.2-0.5-0.4-1-0.7-1.4c-0.3-0.4-0.6-0.7-1-0.9c-0.4-0.2-0.8-0.3-1.3-0.3
				c-0.5,0-0.9,0.1-1.3,0.3c-0.4,0.2-0.7,0.5-1,0.9c-0.3,0.4-0.5,0.8-0.7,1.4c-0.2,0.5-0.2,1.1-0.2,1.8c0,0.6,0.1,1.2,0.2,1.7
				c0.2,0.5,0.4,1,0.7,1.3c0.3,0.4,0.6,0.7,1,0.9C95.6,393.1,96,393.2,96.5,393.2z"/>
			<path class="st4" d="M105.6,381c-0.4,0-0.7-0.1-0.9-0.3c-0.3-0.2-0.4-0.5-0.4-0.9c0-0.4,0.1-0.7,0.4-0.9c0.3-0.2,0.6-0.3,0.9-0.3
				s0.7,0.1,0.9,0.3c0.3,0.2,0.4,0.5,0.4,0.9c0,0.4-0.1,0.6-0.4,0.9C106.3,380.9,106,381,105.6,381z M104.6,394.5v-11.2h1.9v11.2
				H104.6z"/>
			<path class="st4" d="M110.3,394.5v-11.2h1.6l0.2,1.6h0.1c0.5-0.5,1.1-1,1.7-1.3c0.6-0.4,1.3-0.5,2.1-0.5c1.2,0,2,0.4,2.6,1.1
				c0.5,0.7,0.8,1.8,0.8,3.3v7.1h-1.9v-6.8c0-1.1-0.2-1.8-0.5-2.3s-0.9-0.7-1.6-0.7c-0.6,0-1.1,0.1-1.5,0.4c-0.4,0.3-1,0.7-1.5,1.3
				v8.1H110.3z"/>
			<path class="st4" d="M126.4,394.8c-0.6,0-1.1-0.1-1.5-0.3s-0.7-0.4-1-0.8s-0.4-0.7-0.5-1.2c-0.1-0.5-0.2-1-0.2-1.5v-6.2h-1.7
				v-1.4l1.7-0.1l0.2-3.1h1.6v3.1h3v1.5h-3v6.2c0,0.7,0.1,1.2,0.4,1.6s0.7,0.6,1.3,0.6c0.2,0,0.4,0,0.6-0.1c0.2-0.1,0.4-0.1,0.6-0.2
				l0.4,1.4c-0.3,0.1-0.6,0.2-1,0.3C127.1,394.7,126.7,394.8,126.4,394.8z"/>
			<path class="st4" d="M133.3,394.8c-0.8,0-1.6-0.1-2.3-0.4s-1.3-0.7-1.9-1.1l0.9-1.3c0.5,0.4,1,0.7,1.5,1c0.5,0.2,1.1,0.4,1.8,0.4
				c0.7,0,1.3-0.2,1.7-0.5c0.4-0.3,0.6-0.8,0.6-1.2c0-0.3-0.1-0.5-0.2-0.8s-0.3-0.4-0.6-0.6c-0.2-0.2-0.5-0.3-0.8-0.4
				c-0.3-0.1-0.6-0.2-0.9-0.4c-0.4-0.1-0.8-0.3-1.2-0.5c-0.4-0.2-0.8-0.4-1.1-0.6c-0.3-0.3-0.6-0.5-0.8-0.9
				c-0.2-0.3-0.3-0.7-0.3-1.2c0-0.4,0.1-0.9,0.3-1.3c0.2-0.4,0.4-0.7,0.8-1c0.3-0.3,0.7-0.5,1.2-0.7c0.5-0.2,1-0.2,1.6-0.2
				c0.7,0,1.4,0.1,1.9,0.4s1.1,0.5,1.5,0.9l-0.9,1.2c-0.4-0.3-0.8-0.5-1.2-0.7s-0.9-0.3-1.4-0.3c-0.7,0-1.2,0.2-1.6,0.5
				s-0.5,0.7-0.5,1.1c0,0.3,0.1,0.5,0.2,0.7c0.1,0.2,0.3,0.4,0.6,0.5s0.5,0.3,0.8,0.4c0.3,0.1,0.6,0.2,0.9,0.4
				c0.4,0.2,0.8,0.3,1.2,0.5c0.4,0.2,0.8,0.4,1.1,0.6c0.3,0.3,0.6,0.6,0.8,0.9c0.2,0.4,0.3,0.8,0.3,1.3c0,0.5-0.1,0.9-0.3,1.3
				c-0.2,0.4-0.4,0.8-0.8,1.1s-0.8,0.5-1.3,0.7C134.6,394.7,134,394.8,133.3,394.8z"/>
			<path class="st4" d="M146.4,394.5l-3.1-11.2h1.9l1.7,6.5c0.1,0.5,0.2,1.1,0.3,1.6c0.1,0.5,0.2,1,0.3,1.5h0.1
				c0.1-0.5,0.2-1,0.4-1.6c0.1-0.5,0.3-1,0.4-1.6l1.7-6.5h1.8l1.7,6.5c0.1,0.5,0.3,1.1,0.4,1.6c0.1,0.5,0.3,1,0.4,1.5h0.1
				c0.1-0.5,0.2-1,0.3-1.5c0.1-0.5,0.2-1,0.3-1.6l1.6-6.5h1.8l-3,11.2h-2.3l-1.6-6c-0.1-0.5-0.3-1.1-0.4-1.6
				c-0.1-0.5-0.2-1.1-0.4-1.6H151c-0.1,0.6-0.2,1.1-0.4,1.6c-0.1,0.5-0.3,1.1-0.4,1.6l-1.6,6H146.4z"/>
			<path class="st4" d="M161.1,394.5v-16.4h1.9v4.5l-0.1,2.3c0.5-0.5,1.1-0.9,1.7-1.3s1.3-0.5,2-0.5c1.2,0,2,0.4,2.6,1.1
				c0.5,0.7,0.8,1.8,0.8,3.3v7.1h-1.9v-6.8c0-1.1-0.2-1.8-0.5-2.3s-0.9-0.7-1.6-0.7c-0.6,0-1.1,0.1-1.5,0.4c-0.4,0.3-1,0.7-1.5,1.3
				v8.1H161.1z"/>
			<path class="st4" d="M174.6,381c-0.4,0-0.7-0.1-0.9-0.3c-0.3-0.2-0.4-0.5-0.4-0.9c0-0.4,0.1-0.7,0.4-0.9c0.3-0.2,0.6-0.3,0.9-0.3
				s0.7,0.1,0.9,0.3c0.3,0.2,0.4,0.5,0.4,0.9c0,0.4-0.1,0.6-0.4,0.9C175.3,380.9,175,381,174.6,381z M173.7,394.5v-11.2h1.9v11.2
				H173.7z"/>
			<path class="st4" d="M183.7,394.8c-0.7,0-1.4-0.1-2.1-0.4s-1.2-0.6-1.7-1.1c-0.5-0.5-0.8-1.1-1.1-1.8c-0.3-0.7-0.4-1.6-0.4-2.5
				c0-0.9,0.1-1.8,0.4-2.5c0.3-0.7,0.7-1.3,1.2-1.9s1.1-0.9,1.7-1.2c0.7-0.3,1.3-0.4,2.1-0.4c0.7,0,1.4,0.1,1.9,0.4
				c0.5,0.3,1,0.6,1.4,0.9l-1,1.2c-0.3-0.3-0.7-0.5-1-0.7c-0.4-0.2-0.8-0.3-1.2-0.3c-0.5,0-1,0.1-1.4,0.3s-0.8,0.5-1.1,0.9
				c-0.3,0.4-0.5,0.8-0.7,1.4c-0.2,0.5-0.3,1.1-0.3,1.8c0,0.6,0.1,1.2,0.3,1.7c0.2,0.5,0.4,1,0.7,1.3c0.3,0.4,0.7,0.7,1.1,0.9
				c0.4,0.2,0.9,0.3,1.4,0.3c0.5,0,1-0.1,1.4-0.3c0.4-0.2,0.8-0.5,1.2-0.8l0.8,1.3c-0.5,0.4-1.1,0.8-1.7,1S184.4,394.8,183.7,394.8z
				"/>
			<path class="st4" d="M189.8,394.5v-16.4h1.9v4.5l-0.1,2.3c0.5-0.5,1.1-0.9,1.7-1.3s1.3-0.5,2-0.5c1.2,0,2,0.4,2.6,1.1
				c0.5,0.7,0.8,1.8,0.8,3.3v7.1h-1.9v-6.8c0-1.1-0.2-1.8-0.5-2.3s-0.9-0.7-1.6-0.7c-0.6,0-1.1,0.1-1.5,0.4c-0.4,0.3-1,0.7-1.5,1.3
				v8.1H189.8z"/>
			<path class="st4" d="M207.1,399.3c-0.3,0-0.5,0-0.7-0.1s-0.4-0.1-0.6-0.2l0.4-1.5c0.1,0,0.3,0.1,0.4,0.1s0.3,0.1,0.4,0.1
				c0.6,0,1.2-0.2,1.6-0.7c0.4-0.5,0.7-1,1-1.7l0.3-0.8l-4.5-11.2h2l2.3,6.2c0.2,0.5,0.3,1,0.5,1.6s0.4,1.1,0.5,1.6h0.1
				c0.2-0.5,0.3-1,0.5-1.6c0.2-0.6,0.3-1.1,0.5-1.6l2-6.2h1.8l-4.2,12.1c-0.2,0.6-0.4,1.1-0.7,1.5s-0.5,0.9-0.9,1.2
				s-0.7,0.6-1.1,0.8S207.7,399.3,207.1,399.3z"/>
			<path class="st4" d="M221.9,394.8c-0.7,0-1.3-0.1-2-0.4s-1.2-0.6-1.6-1.1c-0.5-0.5-0.9-1.1-1.1-1.8c-0.3-0.7-0.4-1.6-0.4-2.5
				c0-0.9,0.1-1.8,0.4-2.5s0.7-1.3,1.1-1.9c0.5-0.5,1-0.9,1.6-1.2c0.6-0.3,1.3-0.4,2-0.4s1.3,0.1,2,0.4c0.6,0.3,1.2,0.6,1.6,1.2
				c0.5,0.5,0.9,1.1,1.1,1.9s0.4,1.6,0.4,2.5c0,0.9-0.1,1.7-0.4,2.5c-0.3,0.7-0.7,1.3-1.1,1.8c-0.5,0.5-1,0.9-1.6,1.1
				C223.3,394.6,222.6,394.8,221.9,394.8z M221.9,393.2c0.5,0,0.9-0.1,1.3-0.3c0.4-0.2,0.7-0.5,1-0.9c0.3-0.4,0.5-0.8,0.7-1.3
				c0.2-0.5,0.2-1.1,0.2-1.7c0-0.6-0.1-1.2-0.2-1.8c-0.2-0.5-0.4-1-0.7-1.4c-0.3-0.4-0.6-0.7-1-0.9c-0.4-0.2-0.8-0.3-1.3-0.3
				c-0.5,0-0.9,0.1-1.3,0.3c-0.4,0.2-0.7,0.5-1,0.9c-0.3,0.4-0.5,0.8-0.7,1.4c-0.2,0.5-0.2,1.1-0.2,1.8c0,0.6,0.1,1.2,0.2,1.7
				c0.2,0.5,0.4,1,0.7,1.3c0.3,0.4,0.6,0.7,1,0.9C221,393.1,221.4,393.2,221.9,393.2z"/>
			<path class="st4" d="M233.3,394.8c-1.2,0-2.1-0.4-2.6-1.1c-0.5-0.7-0.8-1.8-0.8-3.3v-7.1h1.9v6.8c0,1.1,0.2,1.8,0.5,2.3
				s0.9,0.7,1.6,0.7c0.6,0,1.1-0.1,1.5-0.4c0.4-0.3,0.9-0.8,1.5-1.4v-7.9h1.9v11.2h-1.6l-0.2-1.7H237c-0.5,0.6-1.1,1.1-1.6,1.5
				C234.8,394.6,234.1,394.8,233.3,394.8z"/>
			<path class="st4" d="M251.6,394.8c-0.7,0-1.4-0.1-2.1-0.4s-1.2-0.6-1.7-1.1c-0.5-0.5-0.8-1.1-1.1-1.8c-0.3-0.7-0.4-1.6-0.4-2.5
				c0-0.9,0.1-1.8,0.4-2.5c0.3-0.7,0.7-1.3,1.2-1.9s1.1-0.9,1.7-1.2c0.7-0.3,1.3-0.4,2.1-0.4c0.7,0,1.4,0.1,1.9,0.4
				c0.5,0.3,1,0.6,1.4,0.9l-1,1.2c-0.3-0.3-0.7-0.5-1-0.7c-0.4-0.2-0.8-0.3-1.2-0.3c-0.5,0-1,0.1-1.4,0.3s-0.8,0.5-1.1,0.9
				c-0.3,0.4-0.5,0.8-0.7,1.4c-0.2,0.5-0.3,1.1-0.3,1.8c0,0.6,0.1,1.2,0.3,1.7c0.2,0.5,0.4,1,0.7,1.3c0.3,0.4,0.7,0.7,1.1,0.9
				c0.4,0.2,0.9,0.3,1.4,0.3c0.5,0,1-0.1,1.4-0.3c0.4-0.2,0.8-0.5,1.2-0.8l0.8,1.3c-0.5,0.4-1.1,0.8-1.7,1S252.2,394.8,251.6,394.8z
				"/>
			<path class="st4" d="M260,394.8c-0.9,0-1.7-0.3-2.3-0.8s-0.9-1.3-0.9-2.3c0-1.2,0.5-2.2,1.6-2.8c1.1-0.7,2.8-1.1,5.2-1.4
				c0-0.4,0-0.7-0.1-1c-0.1-0.3-0.2-0.6-0.4-0.9s-0.4-0.5-0.7-0.6c-0.3-0.2-0.7-0.2-1.1-0.2c-0.6,0-1.3,0.1-1.8,0.4
				c-0.6,0.2-1.1,0.5-1.5,0.8l-0.7-1.3c0.5-0.3,1.2-0.7,1.9-1c0.8-0.3,1.6-0.5,2.5-0.5c1.4,0,2.4,0.4,3,1.3c0.6,0.8,0.9,2,0.9,3.3
				v6.9h-1.6l-0.2-1.3h-0.1c-0.5,0.4-1.1,0.8-1.7,1.1C261.3,394.6,260.7,394.8,260,394.8z M260.5,393.3c0.5,0,1-0.1,1.5-0.4
				c0.5-0.3,1-0.6,1.5-1.1v-3.1c-0.9,0.1-1.7,0.3-2.4,0.4c-0.6,0.2-1.1,0.4-1.5,0.6c-0.4,0.2-0.7,0.5-0.9,0.8s-0.3,0.6-0.3,1
				c0,0.6,0.2,1.1,0.6,1.4C259.5,393.1,260,393.3,260.5,393.3z"/>
			<path class="st4" d="M269,394.5v-11.2h1.6l0.2,1.6h0.1c0.5-0.5,1.1-1,1.7-1.3c0.6-0.4,1.3-0.5,2.1-0.5c1.2,0,2,0.4,2.6,1.1
				c0.5,0.7,0.8,1.8,0.8,3.3v7.1h-1.9v-6.8c0-1.1-0.2-1.8-0.5-2.3c-0.3-0.5-0.9-0.7-1.6-0.7c-0.6,0-1.1,0.1-1.5,0.4s-1,0.7-1.5,1.3
				v8.1H269z"/>
			<path class="st4" d="M289.7,394.8c-0.6,0-1.1-0.1-1.5-0.3s-0.7-0.4-1-0.8c-0.3-0.3-0.4-0.7-0.5-1.2c-0.1-0.5-0.2-1-0.2-1.5v-6.2
				h-1.7v-1.4l1.7-0.1l0.2-3.1h1.6v3.1h3v1.5h-3v6.2c0,0.7,0.1,1.2,0.4,1.6c0.3,0.4,0.7,0.6,1.3,0.6c0.2,0,0.4,0,0.6-0.1
				c0.2-0.1,0.4-0.1,0.6-0.2l0.4,1.4c-0.3,0.1-0.6,0.2-1,0.3S290,394.8,289.7,394.8z"/>
			<path class="st4" d="M294,394.5v-16.4h1.9v4.5l-0.1,2.3c0.5-0.5,1.1-0.9,1.7-1.3c0.6-0.4,1.3-0.5,2-0.5c1.2,0,2,0.4,2.6,1.1
				c0.5,0.7,0.8,1.8,0.8,3.3v7.1H301v-6.8c0-1.1-0.2-1.8-0.5-2.3s-0.9-0.7-1.6-0.7c-0.6,0-1.1,0.1-1.5,0.4c-0.4,0.3-1,0.7-1.5,1.3
				v8.1H294z"/>
			<path class="st4" d="M311,394.8c-0.8,0-1.5-0.1-2.1-0.4c-0.7-0.3-1.2-0.7-1.7-1.1c-0.5-0.5-0.9-1.1-1.1-1.8
				c-0.3-0.7-0.4-1.5-0.4-2.5s0.1-1.7,0.4-2.5c0.3-0.7,0.7-1.3,1.1-1.9c0.5-0.5,1-0.9,1.6-1.2c0.6-0.3,1.2-0.4,1.9-0.4
				c0.7,0,1.3,0.1,1.9,0.4s1,0.6,1.4,1.1s0.7,1,0.9,1.7c0.2,0.6,0.3,1.4,0.3,2.2c0,0.2,0,0.4,0,0.6c0,0.2,0,0.4-0.1,0.5h-7.5
				c0.1,1.2,0.4,2.1,1.1,2.8c0.7,0.7,1.5,1,2.6,1c0.5,0,1-0.1,1.5-0.2s0.9-0.4,1.3-0.6l0.7,1.2c-0.5,0.3-1,0.6-1.6,0.8
				C312.4,394.7,311.8,394.8,311,394.8z M307.5,388h6c0-1.1-0.2-2-0.7-2.6c-0.5-0.6-1.2-0.9-2-0.9c-0.4,0-0.8,0.1-1.1,0.2
				c-0.4,0.2-0.7,0.4-1,0.7c-0.3,0.3-0.5,0.7-0.7,1.1C307.7,387,307.5,387.5,307.5,388z"/>
			<path class="st4" d="M317.9,394.5v-11.2h1.6l0.2,1.6h0.1c0.5-0.5,1.1-1,1.7-1.3s1.3-0.5,2.1-0.5c1.2,0,2,0.4,2.6,1.1
				c0.5,0.7,0.8,1.8,0.8,3.3v7.1h-1.9v-6.8c0-1.1-0.2-1.8-0.5-2.3c-0.3-0.5-0.9-0.7-1.6-0.7c-0.6,0-1.1,0.1-1.5,0.4
				c-0.4,0.3-1,0.7-1.5,1.3v8.1H317.9z"/>
			<path class="st4" d="M338.3,394.8c-1.2,0-2.1-0.4-2.6-1.1s-0.8-1.8-0.8-3.3v-7.1h1.9v6.8c0,1.1,0.2,1.8,0.5,2.3s0.9,0.7,1.6,0.7
				c0.6,0,1.1-0.1,1.5-0.4s0.9-0.8,1.5-1.4v-7.9h1.9v11.2h-1.6l-0.2-1.7H342c-0.5,0.6-1.1,1.1-1.6,1.5
				C339.8,394.6,339.1,394.8,338.3,394.8z"/>
			<path class="st4" d="M350.5,394.8c-0.8,0-1.6-0.1-2.3-0.4s-1.3-0.7-1.9-1.1l0.9-1.3c0.5,0.4,1,0.7,1.5,1c0.5,0.2,1.1,0.4,1.8,0.4
				c0.7,0,1.3-0.2,1.7-0.5c0.4-0.3,0.6-0.8,0.6-1.2c0-0.3-0.1-0.5-0.2-0.8s-0.3-0.4-0.6-0.6c-0.2-0.2-0.5-0.3-0.8-0.4
				c-0.3-0.1-0.6-0.2-0.9-0.4c-0.4-0.1-0.8-0.3-1.2-0.5c-0.4-0.2-0.8-0.4-1.1-0.6s-0.6-0.5-0.8-0.9c-0.2-0.3-0.3-0.7-0.3-1.2
				c0-0.4,0.1-0.9,0.3-1.3c0.2-0.4,0.4-0.7,0.8-1c0.3-0.3,0.7-0.5,1.2-0.7c0.5-0.2,1-0.2,1.6-0.2c0.7,0,1.4,0.1,1.9,0.4
				c0.6,0.2,1.1,0.5,1.5,0.9l-0.9,1.2c-0.4-0.3-0.8-0.5-1.2-0.7s-0.9-0.3-1.4-0.3c-0.7,0-1.2,0.2-1.6,0.5s-0.5,0.7-0.5,1.1
				c0,0.3,0.1,0.5,0.2,0.7c0.1,0.2,0.3,0.4,0.6,0.5s0.5,0.3,0.8,0.4c0.3,0.1,0.6,0.2,0.9,0.4c0.4,0.2,0.8,0.3,1.2,0.5
				s0.8,0.4,1.1,0.6c0.3,0.3,0.6,0.6,0.8,0.9c0.2,0.4,0.3,0.8,0.3,1.3c0,0.5-0.1,0.9-0.3,1.3c-0.2,0.4-0.4,0.8-0.8,1.1
				c-0.3,0.3-0.8,0.5-1.3,0.7C351.7,394.7,351.1,394.8,350.5,394.8z"/>
			<path class="st4" d="M361.7,394.8c-0.8,0-1.5-0.1-2.1-0.4c-0.7-0.3-1.2-0.7-1.7-1.1c-0.5-0.5-0.9-1.1-1.1-1.8
				c-0.3-0.7-0.4-1.5-0.4-2.5s0.1-1.7,0.4-2.5c0.3-0.7,0.7-1.3,1.1-1.9c0.5-0.5,1-0.9,1.6-1.2c0.6-0.3,1.2-0.4,1.9-0.4
				c0.7,0,1.3,0.1,1.9,0.4c0.6,0.2,1,0.6,1.4,1.1c0.4,0.5,0.7,1,0.9,1.7c0.2,0.6,0.3,1.4,0.3,2.2c0,0.2,0,0.4,0,0.6
				c0,0.2,0,0.4-0.1,0.5h-7.5c0.1,1.2,0.4,2.1,1.1,2.8c0.7,0.7,1.5,1,2.6,1c0.5,0,1-0.1,1.5-0.2s0.9-0.4,1.3-0.6l0.7,1.2
				c-0.5,0.3-1,0.6-1.6,0.8C363.2,394.7,362.5,394.8,361.7,394.8z M358.2,388h6c0-1.1-0.2-2-0.7-2.6c-0.5-0.6-1.2-0.9-2-0.9
				c-0.4,0-0.8,0.1-1.1,0.2c-0.4,0.2-0.7,0.4-1,0.7s-0.5,0.7-0.7,1.1C358.4,387,358.3,387.5,358.2,388z"/>
			<path class="st4" d="M376.7,394.8c-0.6,0-1.1-0.1-1.5-0.3s-0.7-0.4-1-0.8s-0.4-0.7-0.5-1.2s-0.2-1-0.2-1.5v-6.2h-1.7v-1.4
				l1.7-0.1l0.2-3.1h1.6v3.1h3v1.5h-3v6.2c0,0.7,0.1,1.2,0.4,1.6s0.7,0.6,1.3,0.6c0.2,0,0.4,0,0.6-0.1c0.2-0.1,0.4-0.1,0.6-0.2
				l0.4,1.4c-0.3,0.1-0.6,0.2-1,0.3C377.4,394.7,377.1,394.8,376.7,394.8z"/>
			<path class="st4" d="M385,394.8c-0.7,0-1.3-0.1-2-0.4s-1.2-0.6-1.6-1.1c-0.5-0.5-0.9-1.1-1.1-1.8c-0.3-0.7-0.4-1.6-0.4-2.5
				c0-0.9,0.1-1.8,0.4-2.5s0.7-1.3,1.1-1.9c0.5-0.5,1-0.9,1.6-1.2c0.6-0.3,1.3-0.4,2-0.4c0.7,0,1.3,0.1,2,0.4
				c0.6,0.3,1.2,0.6,1.6,1.2c0.5,0.5,0.9,1.1,1.1,1.9s0.4,1.6,0.4,2.5c0,0.9-0.1,1.7-0.4,2.5c-0.3,0.7-0.7,1.3-1.1,1.8
				c-0.5,0.5-1,0.9-1.6,1.1C386.4,394.6,385.7,394.8,385,394.8z M385,393.2c0.5,0,0.9-0.1,1.3-0.3s0.7-0.5,1-0.9
				c0.3-0.4,0.5-0.8,0.7-1.3c0.2-0.5,0.2-1.1,0.2-1.7c0-0.6-0.1-1.2-0.2-1.8c-0.2-0.5-0.4-1-0.7-1.4c-0.3-0.4-0.6-0.7-1-0.9
				s-0.8-0.3-1.3-0.3c-0.5,0-0.9,0.1-1.3,0.3c-0.4,0.2-0.7,0.5-1,0.9c-0.3,0.4-0.5,0.8-0.7,1.4c-0.2,0.5-0.2,1.1-0.2,1.8
				c0,0.6,0.1,1.2,0.2,1.7c0.2,0.5,0.4,1,0.7,1.3c0.3,0.4,0.6,0.7,1,0.9C384.1,393.1,384.5,393.2,385,393.2z"/>
		</g>
		<g class="st3">
			<path class="st4" d="M79.4,436.2v-15.9H81l0.2,1.3h0.1c0.5-0.4,1.1-0.8,1.7-1.1c0.6-0.3,1.2-0.5,1.9-0.5c0.7,0,1.4,0.1,1.9,0.4
				c0.6,0.3,1,0.7,1.4,1.2c0.4,0.5,0.6,1.1,0.8,1.8c0.2,0.7,0.3,1.5,0.3,2.4c0,1-0.1,1.8-0.4,2.5c-0.3,0.7-0.6,1.4-1.1,1.9
				s-1,0.9-1.5,1.2c-0.6,0.3-1.2,0.4-1.8,0.4c-0.5,0-1-0.1-1.6-0.3c-0.5-0.2-1-0.5-1.6-0.9l0,2v3.8H79.4z M84,430.2
				c0.5,0,0.9-0.1,1.3-0.3c0.4-0.2,0.7-0.5,1-0.9s0.5-0.8,0.7-1.4c0.2-0.6,0.2-1.2,0.2-1.9c0-0.6-0.1-1.2-0.2-1.7
				c-0.1-0.5-0.3-0.9-0.5-1.3s-0.5-0.6-0.9-0.8c-0.4-0.2-0.8-0.3-1.3-0.3c-0.5,0-1,0.1-1.4,0.4c-0.5,0.3-1,0.6-1.6,1.1v5.9
				c0.5,0.4,1,0.7,1.5,0.9C83.2,430.1,83.6,430.2,84,430.2z"/>
			<path class="st4" d="M95.4,431.8c-1.2,0-2.1-0.4-2.6-1.1c-0.5-0.7-0.8-1.8-0.8-3.3v-7.1h1.9v6.8c0,1.1,0.2,1.8,0.5,2.3
				s0.9,0.7,1.6,0.7c0.6,0,1.1-0.1,1.5-0.4c0.4-0.3,0.9-0.8,1.5-1.4v-7.9h1.9v11.2h-1.6l-0.2-1.7h-0.1c-0.5,0.6-1.1,1.1-1.6,1.5
				C96.9,431.6,96.2,431.8,95.4,431.8z"/>
			<path class="st4" d="M104.7,431.5v-11.2h1.6l0.2,2h0.1c0.4-0.7,0.8-1.3,1.4-1.7s1.1-0.6,1.8-0.6c0.4,0,0.8,0.1,1.2,0.2l-0.4,1.7
				c-0.2-0.1-0.4-0.1-0.5-0.1c-0.2,0-0.3,0-0.6,0c-0.5,0-1,0.2-1.5,0.6c-0.5,0.4-1,1-1.3,2v7.2H104.7z"/>
			<path class="st4" d="M116.8,431.8c-0.7,0-1.4-0.1-2.1-0.4s-1.2-0.6-1.7-1.1c-0.5-0.5-0.8-1.1-1.1-1.8c-0.3-0.7-0.4-1.6-0.4-2.5
				c0-0.9,0.1-1.8,0.4-2.5c0.3-0.7,0.7-1.3,1.2-1.9s1.1-0.9,1.7-1.2c0.7-0.3,1.3-0.4,2.1-0.4c0.7,0,1.4,0.1,1.9,0.4
				c0.5,0.3,1,0.6,1.4,0.9l-1,1.2c-0.3-0.3-0.7-0.5-1-0.7c-0.4-0.2-0.8-0.3-1.2-0.3c-0.5,0-1,0.1-1.4,0.3s-0.8,0.5-1.1,0.9
				c-0.3,0.4-0.5,0.8-0.7,1.4c-0.2,0.5-0.3,1.1-0.3,1.8c0,0.6,0.1,1.2,0.3,1.7c0.2,0.5,0.4,1,0.7,1.3c0.3,0.4,0.7,0.7,1.1,0.9
				c0.4,0.2,0.9,0.3,1.4,0.3c0.5,0,1-0.1,1.4-0.3c0.4-0.2,0.8-0.5,1.2-0.8l0.8,1.3c-0.5,0.4-1.1,0.8-1.7,1S117.5,431.8,116.8,431.8z
				"/>
			<path class="st4" d="M122.9,431.5v-16.4h1.9v4.5l-0.1,2.3c0.5-0.5,1.1-0.9,1.7-1.3s1.3-0.5,2-0.5c1.2,0,2,0.4,2.6,1.1
				c0.5,0.7,0.8,1.8,0.8,3.3v7.1H130v-6.8c0-1.1-0.2-1.8-0.5-2.3s-0.9-0.7-1.6-0.7c-0.6,0-1.1,0.1-1.5,0.4c-0.4,0.3-1,0.7-1.5,1.3
				v8.1H122.9z"/>
			<path class="st4" d="M138,431.8c-0.9,0-1.7-0.3-2.3-0.8s-0.9-1.3-0.9-2.3c0-1.2,0.5-2.2,1.6-2.8c1.1-0.7,2.8-1.1,5.2-1.4
				c0-0.4,0-0.7-0.1-1c-0.1-0.3-0.2-0.6-0.4-0.9s-0.4-0.5-0.7-0.6c-0.3-0.2-0.7-0.2-1.1-0.2c-0.6,0-1.3,0.1-1.8,0.4
				c-0.6,0.2-1.1,0.5-1.5,0.8l-0.7-1.3c0.5-0.3,1.2-0.7,1.9-1c0.8-0.3,1.6-0.5,2.5-0.5c1.4,0,2.4,0.4,3,1.3c0.6,0.8,0.9,2,0.9,3.3
				v6.9h-1.6l-0.2-1.3h-0.1c-0.5,0.4-1.1,0.8-1.7,1.1C139.4,431.6,138.7,431.8,138,431.8z M138.5,430.3c0.5,0,1-0.1,1.5-0.4
				c0.5-0.3,1-0.6,1.5-1.1v-3.1c-0.9,0.1-1.7,0.3-2.4,0.4c-0.6,0.2-1.1,0.4-1.5,0.6c-0.4,0.2-0.7,0.5-0.9,0.8s-0.3,0.6-0.3,1
				c0,0.6,0.2,1.1,0.6,1.4C137.5,430.1,138,430.3,138.5,430.3z"/>
			<path class="st4" d="M149.9,431.8c-0.8,0-1.6-0.1-2.3-0.4s-1.3-0.7-1.9-1.1l0.9-1.3c0.5,0.4,1,0.7,1.5,1c0.5,0.2,1.1,0.4,1.8,0.4
				c0.7,0,1.3-0.2,1.7-0.5c0.4-0.3,0.6-0.8,0.6-1.2c0-0.3-0.1-0.5-0.2-0.8s-0.3-0.4-0.6-0.6c-0.2-0.2-0.5-0.3-0.8-0.4
				c-0.3-0.1-0.6-0.2-0.9-0.4c-0.4-0.1-0.8-0.3-1.2-0.5c-0.4-0.2-0.8-0.4-1.1-0.6c-0.3-0.3-0.6-0.5-0.8-0.9
				c-0.2-0.3-0.3-0.7-0.3-1.2c0-0.4,0.1-0.9,0.3-1.3c0.2-0.4,0.4-0.7,0.8-1c0.3-0.3,0.7-0.5,1.2-0.7c0.5-0.2,1-0.2,1.6-0.2
				c0.7,0,1.4,0.1,1.9,0.4s1.1,0.5,1.5,0.9l-0.9,1.2c-0.4-0.3-0.8-0.5-1.2-0.7s-0.9-0.3-1.4-0.3c-0.7,0-1.2,0.2-1.6,0.5
				s-0.5,0.7-0.5,1.1c0,0.3,0.1,0.5,0.2,0.7c0.1,0.2,0.3,0.4,0.6,0.5s0.5,0.3,0.8,0.4c0.3,0.1,0.6,0.2,0.9,0.4
				c0.4,0.2,0.8,0.3,1.2,0.5c0.4,0.2,0.8,0.4,1.1,0.6c0.3,0.3,0.6,0.6,0.8,0.9c0.2,0.4,0.3,0.8,0.3,1.3c0,0.5-0.1,0.9-0.3,1.3
				c-0.2,0.4-0.4,0.8-0.8,1.1s-0.8,0.5-1.3,0.7C151.2,431.7,150.6,431.8,149.9,431.8z"/>
			<path class="st4" d="M161.2,431.8c-0.8,0-1.5-0.1-2.1-0.4c-0.7-0.3-1.2-0.7-1.7-1.1s-0.9-1.1-1.1-1.8c-0.3-0.7-0.4-1.5-0.4-2.5
				s0.1-1.7,0.4-2.5s0.7-1.3,1.1-1.9c0.5-0.5,1-0.9,1.6-1.2c0.6-0.3,1.2-0.4,1.9-0.4c0.7,0,1.3,0.1,1.9,0.4c0.6,0.2,1,0.6,1.4,1.1
				c0.4,0.5,0.7,1,0.9,1.7c0.2,0.6,0.3,1.4,0.3,2.2c0,0.2,0,0.4,0,0.6c0,0.2,0,0.4-0.1,0.5h-7.5c0.1,1.2,0.4,2.1,1.1,2.8
				c0.7,0.7,1.5,1,2.6,1c0.5,0,1-0.1,1.5-0.2s0.9-0.4,1.3-0.6l0.7,1.2c-0.5,0.3-1,0.6-1.6,0.8C162.6,431.7,161.9,431.8,161.2,431.8z
				 M157.7,425h6c0-1.1-0.2-2-0.7-2.6c-0.5-0.6-1.2-0.9-2-0.9c-0.4,0-0.8,0.1-1.1,0.2c-0.4,0.2-0.7,0.4-1,0.7
				c-0.3,0.3-0.5,0.7-0.7,1.1C157.8,424,157.7,424.5,157.7,425z"/>
			<path class="st4" d="M175.2,431.8c-0.9,0-1.7-0.3-2.3-0.8s-0.9-1.3-0.9-2.3c0-1.2,0.5-2.2,1.6-2.8c1.1-0.7,2.8-1.1,5.2-1.4
				c0-0.4,0-0.7-0.1-1c-0.1-0.3-0.2-0.6-0.4-0.9s-0.4-0.5-0.7-0.6c-0.3-0.2-0.7-0.2-1.1-0.2c-0.6,0-1.3,0.1-1.8,0.4
				c-0.6,0.2-1.1,0.5-1.5,0.8l-0.7-1.3c0.5-0.3,1.2-0.7,1.9-1c0.8-0.3,1.6-0.5,2.5-0.5c1.4,0,2.4,0.4,3,1.3c0.6,0.8,0.9,2,0.9,3.3
				v6.9h-1.6l-0.2-1.3h-0.1c-0.5,0.4-1.1,0.8-1.7,1.1C176.6,431.6,175.9,431.8,175.2,431.8z M175.8,430.3c0.5,0,1-0.1,1.5-0.4
				c0.5-0.3,1-0.6,1.5-1.1v-3.1c-0.9,0.1-1.7,0.3-2.4,0.4c-0.6,0.2-1.1,0.4-1.5,0.6c-0.4,0.2-0.7,0.5-0.9,0.8s-0.3,0.6-0.3,1
				c0,0.6,0.2,1.1,0.6,1.4C174.8,430.1,175.2,430.3,175.8,430.3z"/>
			<path class="st4" d="M185.2,418c-0.4,0-0.7-0.1-0.9-0.3c-0.3-0.2-0.4-0.5-0.4-0.9c0-0.4,0.1-0.7,0.4-0.9c0.3-0.2,0.6-0.3,0.9-0.3
				s0.7,0.1,0.9,0.3c0.3,0.2,0.4,0.5,0.4,0.9c0,0.4-0.1,0.6-0.4,0.9C185.9,417.9,185.6,418,185.2,418z M184.2,431.5v-11.2h1.9v11.2
				H184.2z"/>
			<path class="st4" d="M189.9,431.5v-11.2h1.6l0.2,2h0.1c0.4-0.7,0.8-1.3,1.4-1.7s1.1-0.6,1.8-0.6c0.4,0,0.8,0.1,1.2,0.2l-0.4,1.7
				c-0.2-0.1-0.4-0.1-0.5-0.1c-0.2,0-0.3,0-0.6,0c-0.5,0-1,0.2-1.5,0.6c-0.5,0.4-1,1-1.3,2v7.2H189.9z"/>
			<path class="st4" d="M201.4,431.8c-0.6,0-1.1-0.1-1.5-0.3s-0.7-0.4-1-0.8s-0.4-0.7-0.5-1.2c-0.1-0.5-0.2-1-0.2-1.5v-6.2h-1.7
				v-1.4l1.7-0.1l0.2-3.1h1.6v3.1h3v1.5h-3v6.2c0,0.7,0.1,1.2,0.4,1.6s0.7,0.6,1.3,0.6c0.2,0,0.4,0,0.6-0.1c0.2-0.1,0.4-0.1,0.6-0.2
				l0.4,1.4c-0.3,0.1-0.6,0.2-1,0.3C202.1,431.7,201.8,431.8,201.4,431.8z"/>
			<path class="st4" d="M206.6,418c-0.4,0-0.7-0.1-0.9-0.3c-0.3-0.2-0.4-0.5-0.4-0.9c0-0.4,0.1-0.7,0.4-0.9c0.3-0.2,0.6-0.3,0.9-0.3
				s0.7,0.1,0.9,0.3c0.3,0.2,0.4,0.5,0.4,0.9c0,0.4-0.1,0.6-0.4,0.9C207.3,417.9,207,418,206.6,418z M205.7,431.5v-11.2h1.9v11.2
				H205.7z"/>
			<path class="st4" d="M211.3,431.5v-11.2h1.6l0.2,1.6h0.1c0.5-0.5,1-1,1.6-1.3c0.6-0.4,1.2-0.5,1.9-0.5c0.9,0,1.5,0.2,2,0.6
				c0.5,0.4,0.8,0.9,1.1,1.6c0.6-0.6,1.2-1.2,1.8-1.6c0.6-0.4,1.2-0.6,1.9-0.6c1.1,0,2,0.4,2.6,1.1c0.6,0.7,0.8,1.8,0.8,3.3v7.1
				h-1.9v-6.8c0-1.1-0.2-1.8-0.5-2.3s-0.9-0.7-1.6-0.7c-0.8,0-1.8,0.6-2.8,1.7v8.1h-1.9v-6.8c0-1.1-0.2-1.8-0.5-2.3
				c-0.3-0.5-0.9-0.7-1.6-0.7c-0.8,0-1.8,0.6-2.8,1.7v8.1H211.3z"/>
			<path class="st4" d="M234.9,431.8c-0.8,0-1.5-0.1-2.1-0.4c-0.7-0.3-1.2-0.7-1.7-1.1s-0.9-1.1-1.1-1.8c-0.3-0.7-0.4-1.5-0.4-2.5
				s0.1-1.7,0.4-2.5s0.7-1.3,1.1-1.9c0.5-0.5,1-0.9,1.6-1.2c0.6-0.3,1.2-0.4,1.9-0.4c0.7,0,1.3,0.1,1.9,0.4c0.6,0.2,1,0.6,1.4,1.1
				c0.4,0.5,0.7,1,0.9,1.7c0.2,0.6,0.3,1.4,0.3,2.2c0,0.2,0,0.4,0,0.6c0,0.2,0,0.4-0.1,0.5h-7.5c0.1,1.2,0.4,2.1,1.1,2.8
				c0.7,0.7,1.5,1,2.6,1c0.5,0,1-0.1,1.5-0.2s0.9-0.4,1.3-0.6l0.7,1.2c-0.5,0.3-1,0.6-1.6,0.8C236.4,431.7,235.7,431.8,234.9,431.8z
				 M231.4,425h6c0-1.1-0.2-2-0.7-2.6c-0.5-0.6-1.2-0.9-2-0.9c-0.4,0-0.8,0.1-1.1,0.2c-0.4,0.2-0.7,0.4-1,0.7
				c-0.3,0.3-0.5,0.7-0.7,1.1C231.6,424,231.5,424.5,231.4,425z"/>
			<path class="st4" d="M250.7,431.8c-0.7,0-1.3-0.1-2-0.4s-1.2-0.6-1.6-1.1c-0.5-0.5-0.9-1.1-1.1-1.8c-0.3-0.7-0.4-1.6-0.4-2.5
				c0-0.9,0.1-1.8,0.4-2.5s0.7-1.3,1.1-1.9c0.5-0.5,1-0.9,1.6-1.2c0.6-0.3,1.3-0.4,2-0.4s1.3,0.1,2,0.4c0.6,0.3,1.2,0.6,1.6,1.2
				c0.5,0.5,0.9,1.1,1.1,1.9s0.4,1.6,0.4,2.5c0,0.9-0.1,1.7-0.4,2.5c-0.3,0.7-0.7,1.3-1.1,1.8c-0.5,0.5-1,0.9-1.6,1.1
				C252.1,431.6,251.4,431.8,250.7,431.8z M250.7,430.2c0.5,0,0.9-0.1,1.3-0.3c0.4-0.2,0.7-0.5,1-0.9c0.3-0.4,0.5-0.8,0.7-1.3
				c0.2-0.5,0.2-1.1,0.2-1.7c0-0.6-0.1-1.2-0.2-1.8c-0.2-0.5-0.4-1-0.7-1.4c-0.3-0.4-0.6-0.7-1-0.9c-0.4-0.2-0.8-0.3-1.3-0.3
				c-0.5,0-0.9,0.1-1.3,0.3c-0.4,0.2-0.7,0.5-1,0.9c-0.3,0.4-0.5,0.8-0.7,1.4c-0.2,0.5-0.2,1.1-0.2,1.8c0,0.6,0.1,1.2,0.2,1.7
				c0.2,0.5,0.4,1,0.7,1.3c0.3,0.4,0.6,0.7,1,0.9C249.8,430.1,250.3,430.2,250.7,430.2z"/>
			<path class="st4" d="M258.9,431.5v-11.2h1.6l0.2,2h0.1c0.4-0.7,0.8-1.3,1.4-1.7s1.1-0.6,1.8-0.6c0.4,0,0.8,0.1,1.2,0.2l-0.4,1.7
				c-0.2-0.1-0.4-0.1-0.5-0.1c-0.2,0-0.3,0-0.6,0c-0.5,0-1,0.2-1.5,0.6c-0.5,0.4-1,1-1.3,2v7.2H258.9z"/>
			<path class="st4" d="M271.4,436.2v-15.9h1.6l0.2,1.3h0.1c0.5-0.4,1.1-0.8,1.7-1.1c0.6-0.3,1.2-0.5,1.9-0.5c0.7,0,1.4,0.1,1.9,0.4
				c0.6,0.3,1,0.7,1.4,1.2c0.4,0.5,0.6,1.1,0.8,1.8c0.2,0.7,0.3,1.5,0.3,2.4c0,1-0.1,1.8-0.4,2.5c-0.3,0.7-0.6,1.4-1.1,1.9
				c-0.4,0.5-1,0.9-1.5,1.2c-0.6,0.3-1.2,0.4-1.8,0.4c-0.5,0-1-0.1-1.6-0.3c-0.5-0.2-1-0.5-1.6-0.9l0,2v3.8H271.4z M276.1,430.2
				c0.5,0,0.9-0.1,1.3-0.3s0.7-0.5,1-0.9s0.5-0.8,0.7-1.4c0.2-0.6,0.2-1.2,0.2-1.9c0-0.6-0.1-1.2-0.2-1.7c-0.1-0.5-0.3-0.9-0.5-1.3
				c-0.2-0.4-0.5-0.6-0.9-0.8c-0.4-0.2-0.8-0.3-1.3-0.3c-0.5,0-1,0.1-1.4,0.4c-0.5,0.3-1,0.6-1.6,1.1v5.9c0.5,0.4,1,0.7,1.5,0.9
				C275.3,430.1,275.7,430.2,276.1,430.2z"/>
			<path class="st4" d="M286.5,431.8c-0.9,0-1.7-0.3-2.3-0.8s-0.9-1.3-0.9-2.3c0-1.2,0.5-2.2,1.6-2.8c1.1-0.7,2.8-1.1,5.2-1.4
				c0-0.4,0-0.7-0.1-1c-0.1-0.3-0.2-0.6-0.4-0.9s-0.4-0.5-0.7-0.6c-0.3-0.2-0.7-0.2-1.1-0.2c-0.6,0-1.3,0.1-1.8,0.4
				c-0.6,0.2-1.1,0.5-1.5,0.8l-0.7-1.3c0.5-0.3,1.2-0.7,1.9-1s1.6-0.5,2.5-0.5c1.4,0,2.4,0.4,3,1.3c0.6,0.8,0.9,2,0.9,3.3v6.9h-1.6
				l-0.2-1.3h-0.1c-0.5,0.4-1.1,0.8-1.7,1.1C287.8,431.6,287.2,431.8,286.5,431.8z M287,430.3c0.5,0,1-0.1,1.5-0.4
				c0.5-0.3,1-0.6,1.5-1.1v-3.1c-0.9,0.1-1.7,0.3-2.4,0.4c-0.6,0.2-1.2,0.4-1.5,0.6c-0.4,0.2-0.7,0.5-0.9,0.8
				c-0.2,0.3-0.3,0.6-0.3,1c0,0.6,0.2,1.1,0.6,1.4C286,430.1,286.5,430.3,287,430.3z"/>
			<path class="st4" d="M295.7,436.3c-0.3,0-0.5,0-0.7-0.1s-0.4-0.1-0.6-0.2l0.4-1.5c0.1,0,0.3,0.1,0.4,0.1s0.3,0.1,0.4,0.1
				c0.6,0,1.2-0.2,1.6-0.7s0.7-1,1-1.7l0.3-0.8l-4.5-11.2h2l2.3,6.2c0.2,0.5,0.3,1,0.5,1.6c0.2,0.5,0.4,1.1,0.5,1.6h0.1
				c0.2-0.5,0.3-1,0.5-1.6s0.3-1.1,0.5-1.6l2-6.2h1.8l-4.2,12.1c-0.2,0.6-0.4,1.1-0.7,1.5s-0.5,0.9-0.9,1.2s-0.7,0.6-1.1,0.8
				C296.7,436.2,296.2,436.3,295.7,436.3z"/>
			<path class="st4" d="M311,436.3c-0.3,0-0.5,0-0.7-0.1s-0.4-0.1-0.6-0.2l0.4-1.5c0.1,0,0.3,0.1,0.4,0.1s0.3,0.1,0.4,0.1
				c0.6,0,1.2-0.2,1.6-0.7c0.4-0.5,0.7-1,1-1.7l0.3-0.8l-4.5-11.2h2l2.3,6.2c0.2,0.5,0.3,1,0.5,1.6c0.2,0.5,0.4,1.1,0.5,1.6h0.1
				c0.2-0.5,0.3-1,0.5-1.6c0.2-0.6,0.3-1.1,0.5-1.6l2-6.2h1.8l-4.2,12.1c-0.2,0.6-0.4,1.1-0.7,1.5s-0.5,0.9-0.9,1.2
				s-0.7,0.6-1.2,0.8C312.1,436.2,311.6,436.3,311,436.3z"/>
			<path class="st4" d="M325.8,431.8c-0.7,0-1.3-0.1-2-0.4s-1.2-0.6-1.6-1.1c-0.5-0.5-0.9-1.1-1.1-1.8c-0.3-0.7-0.4-1.6-0.4-2.5
				c0-0.9,0.1-1.8,0.4-2.5c0.3-0.7,0.7-1.3,1.1-1.9c0.5-0.5,1-0.9,1.6-1.2c0.6-0.3,1.3-0.4,2-0.4s1.3,0.1,2,0.4
				c0.6,0.3,1.2,0.6,1.6,1.2s0.9,1.1,1.1,1.9c0.3,0.7,0.4,1.6,0.4,2.5c0,0.9-0.1,1.7-0.4,2.5c-0.3,0.7-0.7,1.3-1.1,1.8
				c-0.5,0.5-1,0.9-1.6,1.1C327.1,431.6,326.5,431.8,325.8,431.8z M325.8,430.2c0.5,0,0.9-0.1,1.3-0.3c0.4-0.2,0.7-0.5,1-0.9
				c0.3-0.4,0.5-0.8,0.7-1.3c0.2-0.5,0.2-1.1,0.2-1.7c0-0.6-0.1-1.2-0.2-1.8c-0.2-0.5-0.4-1-0.7-1.4c-0.3-0.4-0.6-0.7-1-0.9
				c-0.4-0.2-0.8-0.3-1.3-0.3s-0.9,0.1-1.3,0.3s-0.7,0.5-1,0.9c-0.3,0.4-0.5,0.8-0.7,1.4c-0.2,0.5-0.2,1.1-0.2,1.8
				c0,0.6,0.1,1.2,0.2,1.7c0.2,0.5,0.4,1,0.7,1.3c0.3,0.4,0.6,0.7,1,0.9S325.3,430.2,325.8,430.2z"/>
			<path class="st4" d="M337.2,431.8c-1.2,0-2.1-0.4-2.6-1.1c-0.5-0.7-0.8-1.8-0.8-3.3v-7.1h1.9v6.8c0,1.1,0.2,1.8,0.5,2.3
				s0.9,0.7,1.6,0.7c0.6,0,1.1-0.1,1.5-0.4c0.4-0.3,0.9-0.8,1.5-1.4v-7.9h1.9v11.2h-1.6l-0.2-1.7h-0.1c-0.5,0.6-1.1,1.1-1.6,1.5
				C338.6,431.6,338,431.8,337.2,431.8z"/>
			<path class="st4" d="M346.4,431.5v-11.2h1.6l0.2,2h0.1c0.4-0.7,0.8-1.3,1.4-1.7s1.1-0.6,1.8-0.6c0.4,0,0.8,0.1,1.2,0.2l-0.4,1.7
				c-0.2-0.1-0.4-0.1-0.5-0.1c-0.2,0-0.3,0-0.6,0c-0.5,0-1,0.2-1.5,0.6c-0.5,0.4-1,1-1.3,2v7.2H346.4z"/>
			<path class="st4" d="M363.5,431.8c-0.8,0-1.5-0.1-2.1-0.4c-0.7-0.3-1.2-0.7-1.7-1.1c-0.5-0.5-0.9-1.1-1.1-1.8
				c-0.3-0.7-0.4-1.5-0.4-2.5s0.1-1.7,0.4-2.5c0.3-0.7,0.7-1.3,1.1-1.9c0.5-0.5,1-0.9,1.6-1.2c0.6-0.3,1.2-0.4,1.9-0.4
				c0.7,0,1.3,0.1,1.9,0.4c0.6,0.2,1,0.6,1.4,1.1c0.4,0.5,0.7,1,0.9,1.7c0.2,0.6,0.3,1.4,0.3,2.2c0,0.2,0,0.4,0,0.6
				c0,0.2,0,0.4-0.1,0.5h-7.5c0.1,1.2,0.4,2.1,1.1,2.8c0.7,0.7,1.5,1,2.6,1c0.5,0,1-0.1,1.5-0.2s0.9-0.4,1.3-0.6l0.7,1.2
				c-0.5,0.3-1,0.6-1.6,0.8C365,431.7,364.3,431.8,363.5,431.8z M360,425h6c0-1.1-0.2-2-0.7-2.6c-0.5-0.6-1.2-0.9-2-0.9
				c-0.4,0-0.8,0.1-1.1,0.2c-0.4,0.2-0.7,0.4-1,0.7s-0.5,0.7-0.7,1.1C360.2,424,360.1,424.5,360,425z"/>
			<path class="st4" d="M372.4,431.8c-0.7,0-1.2-0.2-1.5-0.6c-0.3-0.4-0.5-1.1-0.5-1.9v-14.1h1.9v14.3c0,0.3,0.1,0.5,0.2,0.6
				c0.1,0.1,0.2,0.2,0.4,0.2c0.1,0,0.1,0,0.2,0s0.1,0,0.2,0l0.3,1.4c-0.1,0.1-0.3,0.1-0.4,0.1C372.9,431.8,372.7,431.8,372.4,431.8z
				"/>
			<path class="st4" d="M380.8,431.8c-0.8,0-1.5-0.1-2.1-0.4c-0.7-0.3-1.2-0.7-1.7-1.1c-0.5-0.5-0.9-1.1-1.1-1.8
				c-0.3-0.7-0.4-1.5-0.4-2.5s0.1-1.7,0.4-2.5c0.3-0.7,0.7-1.3,1.1-1.9c0.5-0.5,1-0.9,1.6-1.2c0.6-0.3,1.2-0.4,1.9-0.4
				c0.7,0,1.3,0.1,1.9,0.4s1,0.6,1.4,1.1s0.7,1,0.9,1.7c0.2,0.6,0.3,1.4,0.3,2.2c0,0.2,0,0.4,0,0.6c0,0.2,0,0.4-0.1,0.5h-7.5
				c0.1,1.2,0.4,2.1,1.1,2.8c0.7,0.7,1.5,1,2.6,1c0.5,0,1-0.1,1.5-0.2s0.9-0.4,1.3-0.6l0.7,1.2c-0.5,0.3-1,0.6-1.6,0.8
				C382.3,431.7,381.6,431.8,380.8,431.8z M377.3,425h6c0-1.1-0.2-2-0.7-2.6c-0.5-0.6-1.2-0.9-2-0.9c-0.4,0-0.8,0.1-1.1,0.2
				c-0.4,0.2-0.7,0.4-1,0.7c-0.3,0.3-0.5,0.7-0.7,1.1C377.5,424,377.4,424.5,377.3,425z"/>
			<path class="st4" d="M392.1,431.8c-0.7,0-1.4-0.1-2.1-0.4c-0.6-0.3-1.2-0.6-1.7-1.1c-0.5-0.5-0.8-1.1-1.1-1.8
				c-0.3-0.7-0.4-1.6-0.4-2.5c0-0.9,0.1-1.8,0.4-2.5s0.7-1.3,1.2-1.9s1.1-0.9,1.7-1.2c0.7-0.3,1.3-0.4,2.1-0.4
				c0.7,0,1.4,0.1,1.9,0.4c0.5,0.3,1,0.6,1.4,0.9l-1,1.2c-0.3-0.3-0.7-0.5-1-0.7c-0.4-0.2-0.8-0.3-1.2-0.3c-0.5,0-1,0.1-1.4,0.3
				c-0.4,0.2-0.8,0.5-1.1,0.9c-0.3,0.4-0.5,0.8-0.7,1.4c-0.2,0.5-0.3,1.1-0.3,1.8c0,0.6,0.1,1.2,0.3,1.7c0.2,0.5,0.4,1,0.7,1.3
				c0.3,0.4,0.7,0.7,1.1,0.9s0.9,0.3,1.4,0.3c0.5,0,1-0.1,1.4-0.3c0.4-0.2,0.8-0.5,1.2-0.8l0.8,1.3c-0.5,0.4-1.1,0.8-1.7,1
				S392.8,431.8,392.1,431.8z"/>
			<path class="st4" d="M401.5,431.8c-0.6,0-1.1-0.1-1.5-0.3s-0.7-0.4-1-0.8c-0.3-0.3-0.4-0.7-0.5-1.2c-0.1-0.5-0.2-1-0.2-1.5v-6.2
				h-1.7v-1.4l1.7-0.1l0.2-3.1h1.6v3.1h3v1.5h-3v6.2c0,0.7,0.1,1.2,0.4,1.6c0.3,0.4,0.7,0.6,1.3,0.6c0.2,0,0.4,0,0.6-0.1
				c0.2-0.1,0.4-0.1,0.6-0.2l0.4,1.4c-0.3,0.1-0.6,0.2-1,0.3S401.8,431.8,401.5,431.8z"/>
			<path class="st4" d="M405.7,431.5v-11.2h1.6l0.2,2h0.1c0.4-0.7,0.8-1.3,1.4-1.7c0.5-0.4,1.1-0.6,1.8-0.6c0.4,0,0.8,0.1,1.2,0.2
				l-0.4,1.7c-0.2-0.1-0.4-0.1-0.5-0.1c-0.2,0-0.3,0-0.6,0c-0.5,0-1,0.2-1.5,0.6c-0.5,0.4-1,1-1.3,2v7.2H405.7z"/>
			<path class="st4" d="M414.7,418c-0.4,0-0.7-0.1-0.9-0.3c-0.3-0.2-0.4-0.5-0.4-0.9c0-0.4,0.1-0.7,0.4-0.9c0.3-0.2,0.6-0.3,0.9-0.3
				s0.7,0.1,0.9,0.3c0.3,0.2,0.4,0.5,0.4,0.9c0,0.4-0.1,0.6-0.4,0.9C415.4,417.9,415,418,414.7,418z M413.7,431.5v-11.2h1.9v11.2
				H413.7z"/>
			<path class="st4" d="M423.8,431.8c-0.7,0-1.4-0.1-2.1-0.4c-0.6-0.3-1.2-0.6-1.7-1.1c-0.5-0.5-0.8-1.1-1.1-1.8
				c-0.3-0.7-0.4-1.6-0.4-2.5c0-0.9,0.1-1.8,0.4-2.5s0.7-1.3,1.2-1.9s1.1-0.9,1.7-1.2c0.7-0.3,1.3-0.4,2.1-0.4
				c0.7,0,1.4,0.1,1.9,0.4c0.5,0.3,1,0.6,1.4,0.9l-1,1.2c-0.3-0.3-0.7-0.5-1-0.7c-0.4-0.2-0.8-0.3-1.2-0.3c-0.5,0-1,0.1-1.4,0.3
				c-0.4,0.2-0.8,0.5-1.1,0.9c-0.3,0.4-0.5,0.8-0.7,1.4c-0.2,0.5-0.3,1.1-0.3,1.8c0,0.6,0.1,1.2,0.3,1.7c0.2,0.5,0.4,1,0.7,1.3
				c0.3,0.4,0.7,0.7,1.1,0.9s0.9,0.3,1.4,0.3c0.5,0,1-0.1,1.4-0.3c0.4-0.2,0.8-0.5,1.2-0.8l0.8,1.3c-0.5,0.4-1.1,0.8-1.7,1
				S424.5,431.8,423.8,431.8z"/>
			<path class="st4" d="M430.8,418c-0.4,0-0.7-0.1-0.9-0.3c-0.3-0.2-0.4-0.5-0.4-0.9c0-0.4,0.1-0.7,0.4-0.9c0.3-0.2,0.6-0.3,0.9-0.3
				s0.7,0.1,0.9,0.3c0.3,0.2,0.4,0.5,0.4,0.9c0,0.4-0.1,0.6-0.4,0.9C431.5,417.9,431.2,418,430.8,418z M429.9,431.5v-11.2h1.9v11.2
				H429.9z"/>
			<path class="st4" d="M439,431.8c-0.6,0-1.1-0.1-1.5-0.3s-0.7-0.4-1-0.8c-0.3-0.3-0.4-0.7-0.5-1.2s-0.2-1-0.2-1.5v-6.2h-1.7v-1.4
				l1.7-0.1l0.2-3.1h1.6v3.1h3v1.5h-3v6.2c0,0.7,0.1,1.2,0.4,1.6c0.3,0.4,0.7,0.6,1.3,0.6c0.2,0,0.4,0,0.6-0.1
				c0.2-0.1,0.4-0.1,0.6-0.2l0.4,1.4c-0.3,0.1-0.6,0.2-1,0.3C439.7,431.7,439.4,431.8,439,431.8z"/>
			<path class="st4" d="M443.5,436.3c-0.3,0-0.5,0-0.7-0.1s-0.4-0.1-0.6-0.2l0.4-1.5c0.1,0,0.3,0.1,0.4,0.1c0.2,0,0.3,0.1,0.4,0.1
				c0.6,0,1.2-0.2,1.6-0.7c0.4-0.5,0.7-1,1-1.7l0.3-0.8l-4.5-11.2h2l2.3,6.2c0.2,0.5,0.3,1,0.5,1.6s0.4,1.1,0.5,1.6h0.1
				c0.2-0.5,0.3-1,0.5-1.6c0.2-0.6,0.3-1.1,0.5-1.6l2-6.2h1.8l-4.2,12.1c-0.2,0.6-0.4,1.1-0.7,1.5c-0.2,0.5-0.5,0.9-0.9,1.2
				c-0.3,0.3-0.7,0.6-1.1,0.8S444,436.3,443.5,436.3z"/>
		</g>
		<g class="st3">
			<path class="st4" d="M84.3,468.8c-0.5,0-1.1-0.1-1.6-0.4c-0.6-0.3-1.1-0.6-1.6-1h-0.1l-0.2,1.2h-1.5v-16.4h1.9v4.5l0,2
				c0.5-0.4,1.1-0.8,1.7-1.1c0.6-0.3,1.2-0.4,1.8-0.4c0.7,0,1.4,0.1,1.9,0.4c0.6,0.3,1,0.7,1.4,1.2c0.4,0.5,0.7,1.1,0.9,1.8
				c0.2,0.7,0.3,1.5,0.3,2.3c0,1-0.1,1.8-0.4,2.6s-0.6,1.4-1.1,1.9s-1,0.9-1.5,1.2C85.6,468.6,85,468.8,84.3,468.8z M84,467.2
				c0.5,0,0.9-0.1,1.3-0.3c0.4-0.2,0.7-0.5,1-0.9s0.5-0.8,0.7-1.4c0.2-0.6,0.2-1.2,0.2-1.9c0-0.6-0.1-1.2-0.2-1.7
				c-0.1-0.5-0.3-0.9-0.5-1.3s-0.5-0.6-0.9-0.8c-0.4-0.2-0.8-0.3-1.3-0.3c-0.9,0-1.9,0.5-3,1.5v5.9c0.5,0.4,1,0.7,1.5,0.9
				C83.2,467.1,83.6,467.2,84,467.2z"/>
			<path class="st4" d="M93.1,455c-0.4,0-0.7-0.1-0.9-0.3c-0.3-0.2-0.4-0.5-0.4-0.9c0-0.4,0.1-0.7,0.4-0.9c0.3-0.2,0.6-0.3,0.9-0.3
				s0.7,0.1,0.9,0.3c0.3,0.2,0.4,0.5,0.4,0.9c0,0.4-0.1,0.6-0.4,0.9C93.7,454.9,93.4,455,93.1,455z M92.1,468.5v-11.2H94v11.2H92.1z
				"/>
			<path class="st4" d="M99.8,468.8c-0.7,0-1.2-0.2-1.5-0.6c-0.3-0.4-0.5-1.1-0.5-1.9v-14.1h1.9v14.3c0,0.3,0.1,0.5,0.2,0.6
				c0.1,0.1,0.2,0.2,0.4,0.2c0.1,0,0.1,0,0.2,0c0.1,0,0.1,0,0.2,0l0.3,1.4c-0.1,0.1-0.3,0.1-0.4,0.1
				C100.2,468.8,100,468.8,99.8,468.8z"/>
			<path class="st4" d="M105.6,468.8c-0.7,0-1.2-0.2-1.5-0.6c-0.3-0.4-0.5-1.1-0.5-1.9v-14.1h1.9v14.3c0,0.3,0.1,0.5,0.2,0.6
				c0.1,0.1,0.2,0.2,0.4,0.2c0.1,0,0.1,0,0.2,0c0.1,0,0.1,0,0.2,0l0.3,1.4c-0.1,0.1-0.3,0.1-0.4,0.1
				C106.1,468.8,105.9,468.8,105.6,468.8z"/>
			<path class="st4" d="M112.4,468.8c-0.8,0-1.6-0.1-2.3-0.4s-1.3-0.7-1.9-1.1l0.9-1.3c0.5,0.4,1,0.7,1.5,1c0.5,0.2,1.1,0.4,1.8,0.4
				c0.7,0,1.3-0.2,1.7-0.5c0.4-0.3,0.6-0.8,0.6-1.2c0-0.3-0.1-0.5-0.2-0.8s-0.3-0.4-0.6-0.6c-0.2-0.2-0.5-0.3-0.8-0.4
				c-0.3-0.1-0.6-0.2-0.9-0.4c-0.4-0.1-0.8-0.3-1.2-0.5c-0.4-0.2-0.8-0.4-1.1-0.6c-0.3-0.3-0.6-0.5-0.8-0.9
				c-0.2-0.3-0.3-0.7-0.3-1.2c0-0.4,0.1-0.9,0.3-1.3c0.2-0.4,0.4-0.7,0.8-1c0.3-0.3,0.7-0.5,1.2-0.7c0.5-0.2,1-0.2,1.6-0.2
				c0.7,0,1.4,0.1,1.9,0.4s1.1,0.5,1.5,0.9l-0.9,1.2c-0.4-0.3-0.8-0.5-1.2-0.7s-0.9-0.3-1.4-0.3c-0.7,0-1.2,0.2-1.6,0.5
				s-0.5,0.7-0.5,1.1c0,0.3,0.1,0.5,0.2,0.7c0.1,0.2,0.3,0.4,0.6,0.5s0.5,0.3,0.8,0.4c0.3,0.1,0.6,0.2,0.9,0.4
				c0.4,0.2,0.8,0.3,1.2,0.5c0.4,0.2,0.8,0.4,1.1,0.6c0.3,0.3,0.6,0.6,0.8,0.9c0.2,0.4,0.3,0.8,0.3,1.3c0,0.5-0.1,0.9-0.3,1.3
				c-0.2,0.4-0.4,0.8-0.8,1.1s-0.8,0.5-1.3,0.7C113.7,468.7,113.1,468.8,112.4,468.8z"/>
			<path class="st4" d="M120.1,468.8c-0.4,0-0.7-0.1-1-0.4c-0.3-0.3-0.4-0.6-0.4-1c0-0.4,0.1-0.8,0.4-1.1c0.3-0.3,0.6-0.4,1-0.4
				c0.4,0,0.7,0.1,1,0.4c0.3,0.3,0.4,0.6,0.4,1.1c0,0.4-0.1,0.8-0.4,1C120.8,468.6,120.5,468.8,120.1,468.8z"/>
		</g>
		<g id="Page-1" transform="translate(49.562 84.117)">
			<g id="_005---Get-Points" transform="translate(47.368 0.002)">
				<path id="Shape" class="st5" d="M60.6,39.7l5.8,12.2c0.6,1.3,1.8,2.2,3.2,2.5l12.8,1.9c2.5,0.5,4.1,2.9,3.6,5.4
					c-0.2,0.9-0.6,1.7-1.3,2.3l-9.2,9.3c-1,1.1-1.5,2.6-1.3,4l2.2,13.2c0.5,2.3-1,4.7-3.3,5.2c-1,0.2-2,0.1-2.9-0.4l-11.6-6.3
					c-1.2-0.7-2.7-0.7-4,0l-11.6,6.3c-2.1,1.1-4.8,0.2-5.8-1.9c-0.4-0.9-0.6-1.9-0.4-2.9l2.2-13.2c0.2-1.5-0.2-3-1.3-4L28.7,64
					c-1.8-1.8-1.8-4.7,0-6.5c0.6-0.6,1.5-1.1,2.4-1.3l12.8-1.9c1.4-0.2,2.6-1.1,3.2-2.5l5.8-12.2c0.9-2.1,3.4-3.1,5.5-2.2
					C59.4,37.9,60.2,38.7,60.6,39.7L60.6,39.7z"/>
				<path id="Shape-2" class="st6" d="M75.6,73.3c-1,1.1-1.5,2.6-1.3,4.1l2.2,13.2c0.5,2.4-1,4.7-3.3,5.2c-1,0.2-2,0.1-2.9-0.4
					l-11.6-6.3c-1.2-0.7-2.7-0.7-4,0l-11.6,6.3c-2.2,1.1-4.8,0.2-5.9-1.9c-0.4-0.9-0.6-1.9-0.4-2.9l0.5-2.9
					C66.6,70.1,62,46.3,59.4,38.1c0.5,0.4,0.9,1,1.2,1.6l5.8,12.2c0.6,1.3,1.8,2.2,3.2,2.4l12.8,1.9c2.5,0.5,4.1,2.9,3.6,5.4
					c-0.2,0.9-0.6,1.7-1.2,2.3L75.6,73.3z"/>
				<path id="Shape-3" class="st5" d="M26.6,2l4.6,9.7c0.5,1,1.5,1.8,2.6,2L44,15.2c2,0.4,3.3,2.3,2.9,4.3c-0.1,0.7-0.5,1.4-1,1.9
					l-7.4,7.5c-0.8,0.9-1.2,2.1-1,3.2l1.7,10.6c0.4,1.9-0.8,3.7-2.7,4.1c-0.8,0.2-1.6,0.1-2.3-0.3l-9.3-5.1c-1-0.5-2.2-0.5-3.2,0
					l-9.3,5.1C10.9,47.4,8.8,46.7,8,45c-0.4-0.7-0.5-1.5-0.3-2.3l1.7-10.6c0.2-1.2-0.2-2.4-1-3.2l-7.4-7.5c-1.4-1.4-1.4-3.8,0-5.2
					c0.5-0.5,1.2-0.9,1.9-1l10.2-1.6c1.1-0.2,2.1-0.9,2.6-2L20.4,2c0.7-1.7,2.7-2.5,4.4-1.7C25.6,0.6,26.2,1.2,26.6,2z"/>
				<path id="Shape-4" class="st6" d="M38.6,28.9c-0.8,0.9-1.2,2.1-1,3.2l1.8,10.6c0.4,1.9-0.8,3.7-2.7,4.1
					c-0.8,0.2-1.6,0.1-2.3-0.3l-9.3-5.1c-1-0.5-2.2-0.5-3.2,0l-9.3,5.1C10.9,47.4,8.8,46.7,8,45c-0.4-0.7-0.5-1.5-0.3-2.3l0.4-2.3
					C31.3,26.3,27.7,7.3,25.6,0.7c0.4,0.3,0.8,0.8,1,1.3l4.6,9.7c0.5,1,1.5,1.8,2.6,2L44,15.2c2,0.4,3.3,2.3,2.9,4.3
					c-0.1,0.7-0.5,1.4-1,1.9L38.6,28.9z"/>
				<path id="Shape-5" class="st5" d="M74.2,5.1l2.7,5.7c0.3,0.6,0.8,1,1.5,1.1l6,0.9c1.2,0.2,1.9,1.4,1.7,2.5
					c-0.1,0.4-0.3,0.8-0.6,1.1l-4.3,4.3c-0.5,0.5-0.7,1.2-0.6,1.9l1,6.2c0.2,1.1-0.5,2.2-1.6,2.4c-0.5,0.1-0.9,0-1.3-0.2l-5.4-3
					c-0.6-0.3-1.3-0.3-1.8,0l-5.4,3c-1,0.5-2.2,0.1-2.7-0.9c-0.2-0.4-0.3-0.9-0.2-1.3l1-6.2c0.1-0.7-0.1-1.4-0.6-1.9l-4.3-4.3
					c-0.8-0.8-0.8-2.2,0-3c0.3-0.3,0.7-0.5,1.1-0.6l6-0.9c0.7-0.1,1.2-0.5,1.5-1.1l2.7-5.7c0.4-1,1.6-1.4,2.6-1
					C73.7,4.3,74,4.6,74.2,5.1L74.2,5.1z"/>
				<path id="Shape-6" class="st6" d="M81.2,20.8c-0.5,0.5-0.7,1.2-0.6,1.9l1,6.2c0.2,1.1-0.5,2.2-1.6,2.4c-0.5,0.1-0.9,0-1.3-0.2
					l-5.4-3c-0.6-0.3-1.3-0.3-1.8,0l-5.4,3c-1,0.5-2.2,0.1-2.7-0.9c-0.2-0.4-0.3-0.9-0.2-1.3l0.2-1.4C77,19.3,74.9,8.1,73.7,4.3
					c0.2,0.2,0.4,0.5,0.6,0.7l2.7,5.7c0.3,0.6,0.9,1,1.5,1.1l6,0.9c1.2,0.2,1.9,1.4,1.7,2.5c-0.1,0.4-0.3,0.8-0.6,1.1L81.2,20.8z"/>
			</g>
		</g>
	</g>
</g>
</svg>
