<?xml version="1.0" encoding="utf-8"?>
<!-- Generator: Adobe Illustrator 23.0.5, SVG Export Plug-In . SVG Version: 6.00 Build 0)  -->
<svg version="1.1" id="Layer_1" xmlns="http://www.w3.org/2000/svg" xmlns:xlink="http://www.w3.org/1999/xlink" x="0px" y="0px"
	 viewBox="0 0 372.7 498.9" style="enable-background:new 0 0 372.7 498.9;" xml:space="preserve">
<style type="text/css">
	.st0{fill:#288936;}
	.st1{fill:#FFFFFF;}
	.st2{font-family:'Gilroy-Black';}
	.st3{font-size:45px;}
</style>
<g id="BACKGROUND">
</g>
<path class="st0" d="M372.7,498.9c-124.4,0-248.5,0-372.7,0C0,332.6,0,166.4,0,0c124.2,0,248.5,0,372.7,0
	C372.7,166.3,372.7,332.6,372.7,498.9z"/>
<text transform="matrix(1 0 0 1 32.2345 105.5082)"><tspan x="0" y="0" class="st1 st2 st3">Purchase</tspan><tspan x="0" y="42" class="st1 st2 st3">Airtime</tspan></text>
<g id="ELEMENTS_1_">
	<g>
		<path class="st1" d="M56.3,253.7c1-0.8,1.1-1.9,1.3-3c1.1-4.6,2.3-9.1,3.4-13.6c0.2-0.8,0.4-1.7,0.7-2.4c1.6-4.2,5.9-6,10-4.2
			c0.9,0.4,1.7,0.9,2.5,1.5c2.8,1.9,5.6,3.7,8.4,5.6c0.9,0.6,1.8,1.1,2.6,1.6c1.3-0.7,1.3-1.9,1.6-2.9c1.1-4.3,2.2-8.6,3.2-12.9
			c0.3-1.1,0.6-2.3,1-3.5c1.6-4,5.8-5.8,9.8-4c1,0.4,1.9,1,2.8,1.7c3.6,2.4,7.2,4.8,10.8,7.2c1,0.7,2,1.2,2.9,1.8
			c1.5-0.6,1.9-1.8,2.6-2.8c2.5-3.7,4.9-7.4,7.4-11.1c0.6-0.9,1.2-1.8,2-2.6c3.8-3.9,10.3-2.4,12,2.8c0.3,0.9,0.5,1.9,0.6,2.8
			c1.8,18.7,4.8,37.2,8.8,55.5c4.3,19.7,9.6,39,17.2,57.6c2.5,6.2,5.6,12.2,8.4,18.4c0.6,1.3,1.4,2.5,2,3.5c1.7,0.4,2.9-0.4,4-0.8
			c13.3-5.1,26.7-10.3,40.1-15.4c0.5-0.2,0.9-0.3,1.3-0.5c4.2-2.1,8.7-2,13-1c15.2,3.4,24.7,13,28.3,28c2.9,11.9-0.1,22.6-8,32
			c-1.2,1.4-2.5,2.5-4.3,3.2c-3.4,1.4-6.9,2.9-10.3,4.3c-29.3,12.1-58.7,24.2-88,36.3c-1.6,0.6-3.1,1.3-4.6,2
			c-6.2,2.8-12.6,3.7-19.4,3.3c-15.4-1.1-28.1-7.6-39.2-18c-8.5-8-15.2-17.4-20.9-27.4c-7.1-12.5-12.6-25.7-17.2-39.3
			c-6.7-19.7-11.6-40-15.3-60.4c-2.3-12.9-4.2-25.8-5.6-38.9c-0.2-1.8-0.3-3.6-0.4-5.4c-0.2-3,0.9-5.4,3.6-7
			c2.6-1.5,5.3-1.3,7.8,0.3c3,2,6,4,9,6C53.8,252.5,54.9,253.5,56.3,253.7z M48.8,267.1c-0.2,2.3,0.1,3.9,0.3,5.6
			c0.3,2.4,0.7,4.8,1.1,7.1c2.8,18.7,6.6,37.2,11.7,55.4c4.5,15.9,9.8,31.4,17.2,46.2c4,8.1,8.6,15.8,14.3,22.9
			c4.6,5.8,9.8,10.9,15.9,15c5.7,3.8,11.8,6.4,18.6,7.4c5.4,0.8,10.7,0.8,15.9-1.6c8.7-4,13.9-13.4,12.4-23.1
			c-1.5-9.6-9.2-17.3-18.7-18.4c-1.3-0.2-2.6-0.2-3.9-0.5c-3.5-0.6-5.8-2.9-6.2-6.1c-0.5-3.3,1-6.1,4.2-7.7c1.1-0.5,2.2-0.9,3.3-1.3
			c8.6-3.3,17.3-6.6,25.9-10c1.2-0.5,2.5-0.7,3.4-1.7c0-0.4,0.1-0.7,0-0.9c-0.4-0.9-0.8-1.8-1.2-2.6c-3.8-7.4-7.1-15-10.1-22.7
			c-8.9-23.1-14.9-46.9-19.4-71.2c-1.1-6.1-2-12.3-3.1-18.5c-0.2-1.1-0.2-2.3-1.1-3.5c-0.6,0.6-1,0.9-1.3,1.4
			c-0.6,0.9-1.2,1.8-1.9,2.6c-2.7,3.5-6.3,4.2-10.2,2c-0.9-0.5-1.8-1.2-2.7-1.8c-2.8-1.9-5.6-3.7-8.4-5.6c-0.6-0.4-1.2-0.5-2.1-0.8
			c-0.4,1.2-0.8,2.2-1,3.3c-1.1,4.5-2.3,9.1-3.4,13.6c-0.2,0.8-0.4,1.7-0.7,2.4c-1.7,4.2-6.1,5.9-10.1,3.9c-1-0.5-1.9-1.1-2.8-1.7
			c-2.9-1.9-5.8-3.9-8.7-5.8c-0.7-0.4-1.5-0.7-2.2-1c-1,1.2-1.1,2.6-1.5,3.8c-1.1,4.3-2.1,8.6-3.2,12.9c-1.9,7.2-6.7,9.1-13,5.1
			c-1.6-1-3.2-2.1-4.8-3.2C50.6,267.9,49.9,267.6,48.8,267.1z M156.4,375.6c2.1,2.1,3.8,3.5,5.2,5.2c1.6,1.8,3,3.7,4.3,5.8
			c1.2,1.9,2.1,4,2.9,6.2c0.8,2.1,1.4,4.4,1.8,6.6c0.4,2.3,0.4,4.8,0.4,7.2c0,2.2-0.3,4.5-0.5,6.8c1.5,0.4,2.5-0.4,3.6-0.8
			c7.7-3.1,15.4-6.3,23-9.4c15.6-6.4,31.1-12.9,46.6-19.2c2.2-0.9,3.8-2.3,5-4.4c7-12.1,0.6-28.1-12.9-32c-2.8-0.8-5.3-0.7-8,0.4
			c-22.4,8.7-44.8,17.2-67.2,25.8C159.3,374.3,158.1,374.9,156.4,375.6z"/>
		<path class="st1" d="M187.4,284.1c0.4,5.2,2.5,9.8,3,14.7c-3,1.5-5.8,2.1-8.8,2.4c-1.6-2.3-1.6-4.9-2.3-7.3
			c-0.7-2.3-0.8-4.7-2.2-7c-2.9-0.4-5.6,1.5-8.4,1.2c-1.5-2.7-1.9-4.5-2-7.7c2-2,5.3-1.2,7.5-2.9c0.6-2.6,0.6-2.6-1-5.4
			c-2.8-0.7-5.2,1.3-8.2,1c-1.6-2.3-1.9-5-2.1-7.8c2.4-1.8,5.7-1.2,8.1-3.1c0.2-2.9-1-5.4-1.6-8c-0.5-2.7-1.5-5.3-1.8-7.8
			c0.3-0.4,0.4-0.7,0.5-0.8c3.1-0.9,6.2-1.8,9.3-2.5c1.5-0.4,2.5,0.5,3.5,1.5c3.2,3.2,6.3,6.3,9.4,9.4c0.7,0.7,1.4,1.3,2.1,2
			c0.8,0.8,1.9,1.1,3,0.8c2.9-0.7,5.8-1.5,8.7-2.3c1.3-0.4,1.7-1.1,1.5-2.4c-0.3-1.6-0.7-3.1-1-4.6c-0.6-2.4-1.2-4.9-1.9-7.3
			c-0.2-0.9-0.3-1.9-0.4-2.9c2.9-1.7,5.9-2.1,9.1-2.5c2.1,5.4,2.6,11,4.6,16c3.1,0.7,5.6-1.3,8.5-0.9c1.5,2.3,1.9,5,2.1,7.8
			c-2.4,1.6-5.4,1.3-7.8,2.9c-0.5,1.9,0.4,3.5,1,5.2c3,0.8,5.6-1.5,8.6-0.9c1.3,2.1,1.6,4.5,2,6.8c0.1,0.4-0.4,1.2-0.8,1.4
			c-0.8,0.5-1.8,0.6-2.7,0.9c-1.3,0.4-2.8,0.8-4.3,1.2c0,0.9-0.1,1.6,0,2.2c0.7,2.9,1.5,5.8,2.1,8.8c0.2,0.9,0.4,1.9,0.5,2.9
			c0.1,0.3-0.1,0.7-0.2,1.2c-2.8,1.2-5.9,1.8-8.9,2.4c-0.7,0.2-1.7-0.3-2.3-0.8c-1.1-0.9-2.1-2-3.1-3c-2.4-2.4-4.8-4.8-7.1-7.2
			c-0.8-0.8-1.7-1.4-2.9-1.1C196.3,281.6,192,282.5,187.4,284.1z M184,269.2c-0.6,2,0.1,3.6,1.1,5.4c0.5,0.1,1,0.2,1.5,0.1
			c2.1-0.5,4.2-1,6.3-1.6c0.3-0.1,0.5-0.5,0.9-0.8c-0.3-0.5-0.6-1-1-1.5C189.5,267.1,188.8,267,184,269.2z M209.5,268.6
			c0.1-1.7-0.3-3-0.9-4.3c-0.2-0.4-0.6-0.9-1-0.9c-2-0.1-4,0.1-5.7,1.8c0.7,1,1.3,1.9,2.1,2.6C206,270,206.2,270,209.5,268.6z
			 M180.5,257.7c-0.1,0.2-0.4,0.5-0.3,0.6c0.2,0.5,0.5,1,0.9,1.4c0.1,0.1,0.5-0.1,0.6-0.2c0.3-0.6-0.1-1.3-0.8-1.7
			C180.8,257.7,180.6,257.7,180.5,257.7z"/>
		<path class="st1" d="M84.1,332.1c-3.9,0-6.7-2-7.7-4.9c-1-3.1,0.1-6.5,2.8-8.3c0.9-0.6,1.9-1,2.9-1.5c11.2-4.5,22.3-8.9,33.5-13.3
			c0.9-0.4,1.8-0.7,2.7-0.9c3.5-0.8,7,1,8.3,4.2c1.3,3.2,0.2,7-2.7,8.9c-0.8,0.5-1.7,0.9-2.6,1.2c-11.1,4.4-22.1,8.9-33.1,13.2
			C86.6,331.4,85,331.8,84.1,332.1z"/>
		<path class="st1" d="M119.8,281c-0.1,2.8-1.2,4.9-3.6,6.3c-0.9,0.6-1.9,0.9-3,1.3c-10.8,4.3-21.6,8.7-32.5,13
			c-1,0.4-2,0.8-3.1,1.1c-3.3,0.8-6.7-0.7-8.2-3.7c-1.6-3.2-0.8-7,2.1-9c0.9-0.6,1.9-1.1,2.9-1.5c11.4-4.6,22.7-9.1,34.1-13.7
			c0.8-0.3,1.6-0.6,2.4-0.8C115.6,272.9,119.8,276.3,119.8,281z"/>
	</g>
</g>
</svg>
