<?xml version="1.0" encoding="utf-8"?>
<!-- Generator: Adobe Illustrator 23.0.5, SVG Export Plug-In . SVG Version: 6.00 Build 0)  -->
<svg version="1.1" id="Layer_1" xmlns="http://www.w3.org/2000/svg" xmlns:xlink="http://www.w3.org/1999/xlink" x="0px" y="0px"
	 viewBox="0 0 535 581" style="enable-background:new 0 0 535 581;" xml:space="preserve">
<style type="text/css">
	.st0{clip-path:url(#SVGID_2_);}
	.st1{fill:#33CC99;}
	.st2{fill:#FAF8F6;}
	.st3{enable-background:new    ;}
	.st4{fill:#FFFFFF;}
	.st5{fill:#4D5E80;}
	.st6{fill:#3D4566;}
	.st7{fill:#FFD9B3;}
	.st8{fill:#FFBB99;}
	.st9{fill:#FF7F40;}
	.st10{fill:#F25A3C;}
	.st11{fill:#66CCFF;}
	.st12{fill:#59ABFF;}
	.st13{fill:#F3F5F9;}
	.st14{fill:#E1E6F0;}
</style>
<g>
	<defs>
		<rect id="SVGID_1_" width="535" height="581"/>
	</defs>
	<clipPath id="SVGID_2_">
		<use xlink:href="#SVGID_1_"  style="overflow:visible;"/>
	</clipPath>
	<g id="Refer_and_Earn" class="st0">
		<path id="Rectangle_17023" class="st1" d="M60.5,18h414c22.6,0,41,18.4,41,41v463c0,22.6-18.4,41-41,41h-414
			c-22.6,0-41-18.4-41-41V59C19.5,36.4,37.9,18,60.5,18z"/>
		<circle id="Ellipse_98" class="st2" cx="137" cy="128.5" r="67.5"/>
		<g class="st3">
			<path class="st4" d="M83.4,276.7l-4-7.5h-2.1v7.5h-5.9v-23.1h9.2c2.4,0,4.3,0.8,5.9,2.3c1.6,1.5,2.4,3.4,2.4,5.7
				c0,1.4-0.4,2.7-1.1,3.8c-0.7,1.2-1.7,2.1-2.9,2.8l4.8,8.5H83.4z M77.2,259.1v5.2h3.3c0.7,0,1.3-0.2,1.8-0.7
				c0.5-0.5,0.7-1.1,0.7-1.9c0-0.8-0.2-1.4-0.7-1.9c-0.5-0.5-1.1-0.7-1.8-0.7H77.2z"/>
			<path class="st4" d="M95.6,270.5c0.5,1.3,1.8,2,3.7,2c1.2,0,2.2-0.4,3-1.2l4,2.8c-1.6,2-4,3.1-7.1,3.1c-2.8,0-5-0.8-6.7-2.5
				s-2.5-3.7-2.5-6.2c0-2.5,0.8-4.6,2.5-6.2s3.8-2.5,6.3-2.5c2.5,0,4.5,0.8,6.1,2.5c1.6,1.7,2.4,3.7,2.4,6.2c0,0.7-0.1,1.4-0.2,2
				H95.6z M95.5,266.7h6.3c-0.4-1.5-1.5-2.3-3.1-2.3C97.1,264.4,96,265.1,95.5,266.7z"/>
			<path class="st4" d="M118.4,258.2c-1.9-0.1-2.8,0.5-2.8,2h2.8v5.2h-2.8v11.3h-5.5v-11.3H108v-5.2h2.1c0-2.4,0.7-4.2,2.1-5.4
				c1.4-1.3,3.5-1.8,6.2-1.6V258.2z"/>
			<path class="st4" d="M124.5,270.5c0.5,1.3,1.8,2,3.7,2c1.2,0,2.2-0.4,3-1.2l4,2.8c-1.6,2-4,3.1-7.1,3.1c-2.8,0-5-0.8-6.7-2.5
				s-2.5-3.7-2.5-6.2c0-2.5,0.8-4.6,2.5-6.2s3.8-2.5,6.3-2.5c2.5,0,4.5,0.8,6.1,2.5c1.6,1.7,2.4,3.7,2.4,6.2c0,0.7-0.1,1.4-0.2,2
				H124.5z M124.4,266.7h6.3c-0.4-1.5-1.5-2.3-3.1-2.3C126,264.4,124.9,265.1,124.4,266.7z"/>
			<path class="st4" d="M143.9,263.3c0.3-1.1,0.9-1.9,1.8-2.5c0.9-0.6,2-0.9,3.1-0.9v6.1c-1.3-0.2-2.4,0-3.4,0.7
				c-1,0.7-1.5,1.7-1.5,3.2v6.8h-5.5v-16.5h5.5V263.3z"/>
			<path class="st4" d="M170.1,260.2h5.5v16.5h-5.5v-1.5c-1.1,1.3-2.7,2-4.7,2c-2.2,0-4-0.8-5.5-2.5s-2.2-3.7-2.2-6.2
				c0-2.5,0.7-4.6,2.2-6.2c1.5-1.7,3.3-2.5,5.5-2.5c2,0,3.6,0.7,4.7,2V260.2z M164.1,271.1c0.6,0.7,1.5,1,2.5,1c1,0,1.9-0.3,2.5-1
				c0.6-0.7,1-1.5,1-2.6s-0.3-1.9-1-2.6c-0.6-0.7-1.5-1-2.5-1c-1,0-1.9,0.3-2.5,1c-0.6,0.7-1,1.5-1,2.6S163.5,270.4,164.1,271.1z"/>
			<path class="st4" d="M188.8,259.8c1.8,0,3.2,0.6,4.4,1.8c1.1,1.2,1.7,3,1.7,5.3v9.9h-5.5v-9.2c0-0.9-0.2-1.5-0.7-1.9
				c-0.5-0.4-1.1-0.7-1.8-0.7c-0.9,0-1.5,0.3-2,0.8c-0.5,0.5-0.7,1.3-0.7,2.2v8.8h-5.5v-16.5h5.5v1.7
				C185.2,260.5,186.8,259.8,188.8,259.8z"/>
			<path class="st4" d="M209.5,253.6h5.5v23.1h-5.5v-1.5c-1.1,1.3-2.7,2-4.7,2c-2.2,0-4-0.8-5.5-2.5s-2.2-3.7-2.2-6.2
				c0-2.5,0.7-4.6,2.2-6.2c1.5-1.7,3.3-2.5,5.5-2.5c2,0,3.6,0.7,4.7,2V253.6z M203.5,271.1c0.6,0.7,1.5,1,2.5,1c1,0,1.9-0.3,2.5-1
				c0.6-0.7,1-1.5,1-2.6s-0.3-1.9-1-2.6c-0.6-0.7-1.5-1-2.5-1c-1,0-1.9,0.3-2.5,1c-0.6,0.7-1,1.5-1,2.6S202.9,270.4,203.5,271.1z"/>
			<path class="st4" d="M231.8,271.2h8.9v5.5h-14.9v-23.1h14.7v5.5h-8.8v3.2h8v5.4h-8V271.2z"/>
			<path class="st4" d="M254.6,260.2h5.5v16.5h-5.5v-1.5c-1.1,1.3-2.7,2-4.7,2c-2.2,0-4-0.8-5.5-2.5s-2.2-3.7-2.2-6.2
				c0-2.5,0.7-4.6,2.2-6.2c1.5-1.7,3.3-2.5,5.5-2.5c2,0,3.6,0.7,4.7,2V260.2z M248.6,271.1c0.6,0.7,1.5,1,2.5,1c1,0,1.9-0.3,2.5-1
				c0.6-0.7,1-1.5,1-2.6s-0.3-1.9-1-2.6c-0.6-0.7-1.5-1-2.5-1c-1,0-1.9,0.3-2.5,1c-0.6,0.7-1,1.5-1,2.6S248,270.4,248.6,271.1z"/>
			<path class="st4" d="M268.7,263.3c0.3-1.1,0.9-1.9,1.8-2.5c0.9-0.6,2-0.9,3.1-0.9v6.1c-1.3-0.2-2.4,0-3.4,0.7
				c-1,0.7-1.5,1.7-1.5,3.2v6.8h-5.5v-16.5h5.5V263.3z"/>
			<path class="st4" d="M285.8,259.8c1.8,0,3.2,0.6,4.4,1.8c1.1,1.2,1.7,3,1.7,5.3v9.9h-5.5v-9.2c0-0.9-0.2-1.5-0.7-1.9
				c-0.5-0.4-1.1-0.7-1.8-0.7c-0.9,0-1.5,0.3-2,0.8c-0.5,0.5-0.7,1.3-0.7,2.2v8.8h-5.5v-16.5h5.5v1.7
				C282.2,260.5,283.7,259.8,285.8,259.8z"/>
			<path class="st4" d="M312.5,259.8c2.2,0,4,0.8,5.5,2.5c1.5,1.7,2.2,3.7,2.2,6.2c0,2.5-0.7,4.6-2.2,6.2c-1.5,1.7-3.3,2.5-5.5,2.5
				c-2,0-3.6-0.7-4.7-2v8.1h-5.5v-23.1h5.5v1.5C308.9,260.4,310.5,259.8,312.5,259.8z M308.8,271.1c0.6,0.7,1.5,1,2.5,1
				s1.9-0.3,2.5-1c0.6-0.7,1-1.5,1-2.6s-0.3-1.9-1-2.6c-0.6-0.7-1.5-1-2.5-1s-1.9,0.3-2.5,1c-0.6,0.7-1,1.5-1,2.6
				S308.1,270.4,308.8,271.1z"/>
			<path class="st4" d="M330.7,277.2c-2.4,0-4.5-0.8-6.2-2.5c-1.7-1.7-2.6-3.7-2.6-6.2s0.9-4.5,2.6-6.2c1.7-1.7,3.8-2.5,6.2-2.5
				c2.5,0,4.5,0.8,6.3,2.5s2.6,3.7,2.6,6.2s-0.9,4.5-2.6,6.2S333.1,277.2,330.7,277.2z M330.7,271.9c1,0,1.8-0.3,2.4-1
				c0.6-0.6,0.9-1.5,0.9-2.5s-0.3-1.8-0.9-2.5c-0.6-0.6-1.4-1-2.4-1c-0.9,0-1.7,0.3-2.4,1c-0.6,0.6-0.9,1.5-0.9,2.5s0.3,1.8,0.9,2.5
				C328.9,271.6,329.7,271.9,330.7,271.9z"/>
			<path class="st4" d="M346.8,257.9c-0.6,0.6-1.4,0.9-2.2,0.9s-1.6-0.3-2.2-0.9c-0.6-0.6-0.9-1.4-0.9-2.2c0-0.9,0.3-1.6,0.9-2.2
				c0.6-0.6,1.4-0.9,2.2-0.9s1.6,0.3,2.2,0.9c0.6,0.6,0.9,1.4,0.9,2.2C347.8,256.5,347.5,257.3,346.8,257.9z M341.9,276.7v-16.5h5.5
				v16.5H341.9z"/>
			<path class="st4" d="M360.6,259.8c1.8,0,3.2,0.6,4.4,1.8c1.1,1.2,1.7,3,1.7,5.3v9.9h-5.5v-9.2c0-0.9-0.2-1.5-0.7-1.9
				c-0.5-0.4-1.1-0.7-1.8-0.7c-0.9,0-1.5,0.3-2,0.8c-0.5,0.5-0.7,1.3-0.7,2.2v8.8h-5.5v-16.5h5.5v1.7
				C357,260.5,358.5,259.8,360.6,259.8z"/>
			<path class="st4" d="M379.9,265.5h-3.4v4.8c0,0.7,0.3,1.2,0.8,1.4c0.5,0.2,1.4,0.2,2.6,0.2v5c-3.3,0.4-5.6,0.1-6.9-0.9
				c-1.3-1-2-2.8-2-5.4v-4.9h-2.5v-5.2h2.5v-3l5.5-1.7v4.6h3.4V265.5z"/>
			<path class="st4" d="M387.5,265c0,0.3,0.3,0.5,0.9,0.7c0.6,0.2,1.2,0.4,2,0.6c0.8,0.2,1.6,0.5,2.4,0.8c0.8,0.3,1.5,0.8,2.1,1.6
				s0.8,1.8,0.8,3c0,1.9-0.7,3.3-2.1,4.2c-1.4,0.9-3.1,1.4-5,1.4c-3.7,0-6.2-1.3-7.4-3.9l4.8-2.4c0.4,1.2,1.3,1.8,2.6,1.8
				c1,0,1.5-0.3,1.5-0.9c0-0.3-0.3-0.6-0.8-0.7c-0.6-0.2-1.2-0.4-2-0.7c-0.8-0.3-1.5-0.5-2.4-0.8c-0.8-0.3-1.5-0.8-2-1.5
				s-0.8-1.6-0.8-2.7c0-1.8,0.7-3.1,2-4.1s2.9-1.5,4.7-1.5c3.3,0,5.5,1.3,6.8,3.8l-4.6,2.1c-0.5-0.9-1.2-1.4-2-1.4
				C387.9,264.2,387.5,264.5,387.5,265z"/>
		</g>
		<g class="st3">
			<path class="st4" d="M71.6,355.3v-15.1h8.7v1.6h-6.8v5.1h5.8v1.6h-5.8v6.8H71.6z"/>
			<path class="st4" d="M86.8,355.6c-0.7,0-1.3-0.1-2-0.4s-1.2-0.6-1.6-1.1c-0.5-0.5-0.9-1.1-1.1-1.8c-0.3-0.7-0.4-1.6-0.4-2.5
				c0-0.9,0.1-1.8,0.4-2.5s0.7-1.3,1.1-1.9c0.5-0.5,1-0.9,1.6-1.2c0.6-0.3,1.3-0.4,2-0.4s1.3,0.1,2,0.4c0.6,0.3,1.2,0.6,1.6,1.2
				c0.5,0.5,0.9,1.1,1.1,1.9s0.4,1.6,0.4,2.5c0,0.9-0.1,1.7-0.4,2.5c-0.3,0.7-0.7,1.3-1.1,1.8c-0.5,0.5-1,0.9-1.6,1.1
				C88.1,355.4,87.5,355.6,86.8,355.6z M86.8,354c0.5,0,0.9-0.1,1.3-0.3c0.4-0.2,0.7-0.5,1-0.9c0.3-0.4,0.5-0.8,0.7-1.3
				c0.2-0.5,0.2-1.1,0.2-1.7c0-0.6-0.1-1.2-0.2-1.8c-0.2-0.5-0.4-1-0.7-1.4c-0.3-0.4-0.6-0.7-1-0.9c-0.4-0.2-0.8-0.3-1.3-0.3
				c-0.5,0-0.9,0.1-1.3,0.3c-0.4,0.2-0.7,0.5-1,0.9c-0.3,0.4-0.5,0.8-0.7,1.4c-0.2,0.5-0.2,1.1-0.2,1.8c0,0.6,0.1,1.2,0.2,1.7
				c0.2,0.5,0.4,1,0.7,1.3c0.3,0.4,0.6,0.7,1,0.9C85.9,353.9,86.3,354,86.8,354z"/>
			<path class="st4" d="M94.9,355.3v-11.2h1.6l0.2,2h0.1c0.4-0.7,0.8-1.3,1.4-1.7s1.1-0.6,1.8-0.6c0.4,0,0.8,0.1,1.2,0.2l-0.4,1.7
				c-0.2-0.1-0.4-0.1-0.5-0.1c-0.2,0-0.3,0-0.6,0c-0.5,0-1,0.2-1.5,0.6c-0.5,0.4-1,1-1.3,2v7.2H94.9z"/>
			<path class="st4" d="M112,355.6c-0.8,0-1.5-0.1-2.1-0.4c-0.7-0.3-1.2-0.7-1.7-1.1s-0.9-1.1-1.1-1.8c-0.3-0.7-0.4-1.5-0.4-2.5
				s0.1-1.7,0.4-2.5s0.7-1.3,1.1-1.9c0.5-0.5,1-0.9,1.6-1.2c0.6-0.3,1.2-0.4,1.9-0.4c0.7,0,1.3,0.1,1.9,0.4c0.6,0.2,1,0.6,1.4,1.1
				c0.4,0.5,0.7,1,0.9,1.7c0.2,0.6,0.3,1.4,0.3,2.2c0,0.2,0,0.4,0,0.6c0,0.2,0,0.4-0.1,0.5h-7.5c0.1,1.2,0.4,2.1,1.1,2.8
				c0.7,0.7,1.5,1,2.6,1c0.5,0,1-0.1,1.5-0.2s0.9-0.4,1.3-0.6l0.7,1.2c-0.5,0.3-1,0.6-1.6,0.8C113.5,355.5,112.8,355.6,112,355.6z
				 M108.5,348.8h6c0-1.1-0.2-2-0.7-2.6c-0.5-0.6-1.2-0.9-2-0.9c-0.4,0-0.8,0.1-1.1,0.2c-0.4,0.2-0.7,0.4-1,0.7
				c-0.3,0.3-0.5,0.7-0.7,1.1C108.7,347.8,108.5,348.3,108.5,348.8z"/>
			<path class="st4" d="M121.4,355.3l-4-11.2h2l2.1,6.3c0.2,0.6,0.3,1.1,0.5,1.7s0.3,1.1,0.5,1.6h0.1c0.2-0.5,0.3-1.1,0.5-1.6
				c0.2-0.6,0.3-1.1,0.5-1.7l2.1-6.3h1.9l-4,11.2H121.4z"/>
			<path class="st4" d="M134.2,355.6c-0.8,0-1.5-0.1-2.1-0.4c-0.7-0.3-1.2-0.7-1.7-1.1s-0.9-1.1-1.1-1.8c-0.3-0.7-0.4-1.5-0.4-2.5
				s0.1-1.7,0.4-2.5s0.7-1.3,1.1-1.9c0.5-0.5,1-0.9,1.6-1.2c0.6-0.3,1.2-0.4,1.9-0.4c0.7,0,1.3,0.1,1.9,0.4c0.6,0.2,1,0.6,1.4,1.1
				c0.4,0.5,0.7,1,0.9,1.7c0.2,0.6,0.3,1.4,0.3,2.2c0,0.2,0,0.4,0,0.6c0,0.2,0,0.4-0.1,0.5h-7.5c0.1,1.2,0.4,2.1,1.1,2.8
				c0.7,0.7,1.5,1,2.6,1c0.5,0,1-0.1,1.5-0.2s0.9-0.4,1.3-0.6l0.7,1.2c-0.5,0.3-1,0.6-1.6,0.8C135.6,355.5,134.9,355.6,134.2,355.6z
				 M130.7,348.8h6c0-1.1-0.2-2-0.7-2.6c-0.5-0.6-1.2-0.9-2-0.9c-0.4,0-0.8,0.1-1.1,0.2c-0.4,0.2-0.7,0.4-1,0.7
				c-0.3,0.3-0.5,0.7-0.7,1.1C130.8,347.8,130.7,348.3,130.7,348.8z"/>
			<path class="st4" d="M141.1,355.3v-11.2h1.6l0.2,2h0.1c0.4-0.7,0.8-1.3,1.4-1.7s1.1-0.6,1.8-0.6c0.4,0,0.8,0.1,1.2,0.2l-0.4,1.7
				c-0.2-0.1-0.4-0.1-0.5-0.1c-0.2,0-0.3,0-0.6,0c-0.5,0-1,0.2-1.5,0.6c-0.5,0.4-1,1-1.3,2v7.2H141.1z"/>
			<path class="st4" d="M149.8,360.1c-0.3,0-0.5,0-0.7-0.1s-0.4-0.1-0.6-0.2l0.4-1.5c0.1,0,0.3,0.1,0.4,0.1s0.3,0.1,0.4,0.1
				c0.6,0,1.2-0.2,1.6-0.7c0.4-0.5,0.7-1,1-1.7l0.3-0.8l-4.5-11.2h2l2.3,6.2c0.2,0.5,0.3,1,0.5,1.6s0.4,1.1,0.5,1.6h0.1
				c0.2-0.5,0.3-1,0.5-1.6c0.2-0.6,0.3-1.1,0.5-1.6l2-6.2h1.8l-4.2,12.1c-0.2,0.6-0.4,1.1-0.7,1.5s-0.5,0.9-0.9,1.2
				s-0.7,0.6-1.1,0.8S150.4,360.1,149.8,360.1z"/>
			<path class="st4" d="M164.9,360v-15.9h1.6l0.2,1.3h0.1c0.5-0.4,1.1-0.8,1.7-1.1c0.6-0.3,1.2-0.5,1.9-0.5c0.7,0,1.4,0.1,1.9,0.4
				c0.6,0.3,1,0.7,1.4,1.2c0.4,0.5,0.6,1.1,0.8,1.8c0.2,0.7,0.3,1.5,0.3,2.4c0,1-0.1,1.8-0.4,2.5c-0.3,0.7-0.6,1.4-1.1,1.9
				s-1,0.9-1.5,1.2c-0.6,0.3-1.2,0.4-1.8,0.4c-0.5,0-1-0.1-1.6-0.3c-0.5-0.2-1-0.5-1.6-0.9l0,2v3.8H164.9z M169.6,354
				c0.5,0,0.9-0.1,1.3-0.3c0.4-0.2,0.7-0.5,1-0.9s0.5-0.8,0.7-1.4c0.2-0.6,0.2-1.2,0.2-1.9c0-0.6-0.1-1.2-0.2-1.7
				c-0.1-0.5-0.3-0.9-0.5-1.3s-0.5-0.6-0.9-0.8c-0.4-0.2-0.8-0.3-1.3-0.3c-0.5,0-1,0.1-1.4,0.4c-0.5,0.3-1,0.6-1.6,1.1v5.9
				c0.5,0.4,1,0.7,1.5,0.9C168.8,353.9,169.2,354,169.6,354z"/>
			<path class="st4" d="M182.2,355.6c-0.8,0-1.5-0.1-2.1-0.4c-0.7-0.3-1.2-0.7-1.7-1.1s-0.9-1.1-1.1-1.8c-0.3-0.7-0.4-1.5-0.4-2.5
				s0.1-1.7,0.4-2.5s0.7-1.3,1.1-1.9c0.5-0.5,1-0.9,1.6-1.2c0.6-0.3,1.2-0.4,1.9-0.4c0.7,0,1.3,0.1,1.9,0.4c0.6,0.2,1,0.6,1.4,1.1
				c0.4,0.5,0.7,1,0.9,1.7c0.2,0.6,0.3,1.4,0.3,2.2c0,0.2,0,0.4,0,0.6c0,0.2,0,0.4-0.1,0.5h-7.5c0.1,1.2,0.4,2.1,1.1,2.8
				c0.7,0.7,1.5,1,2.6,1c0.5,0,1-0.1,1.5-0.2s0.9-0.4,1.3-0.6l0.7,1.2c-0.5,0.3-1,0.6-1.6,0.8C183.7,355.5,183,355.6,182.2,355.6z
				 M178.7,348.8h6c0-1.1-0.2-2-0.7-2.6c-0.5-0.6-1.2-0.9-2-0.9c-0.4,0-0.8,0.1-1.1,0.2c-0.4,0.2-0.7,0.4-1,0.7
				c-0.3,0.3-0.5,0.7-0.7,1.1C178.9,347.8,178.8,348.3,178.7,348.8z"/>
			<path class="st4" d="M189.1,355.3v-11.2h1.6l0.2,2h0.1c0.4-0.7,0.8-1.3,1.4-1.7s1.1-0.6,1.8-0.6c0.4,0,0.8,0.1,1.2,0.2l-0.4,1.7
				c-0.2-0.1-0.4-0.1-0.5-0.1c-0.2,0-0.3,0-0.6,0c-0.5,0-1,0.2-1.5,0.6c-0.5,0.4-1,1-1.3,2v7.2H189.1z"/>
			<path class="st4" d="M199.9,355.6c-0.8,0-1.6-0.1-2.3-0.4s-1.3-0.7-1.9-1.1l0.9-1.3c0.5,0.4,1,0.7,1.5,1c0.5,0.2,1.1,0.4,1.8,0.4
				c0.7,0,1.3-0.2,1.7-0.5c0.4-0.3,0.6-0.8,0.6-1.2c0-0.3-0.1-0.5-0.2-0.8s-0.3-0.4-0.6-0.6c-0.2-0.2-0.5-0.3-0.8-0.4
				c-0.3-0.1-0.6-0.2-0.9-0.4c-0.4-0.1-0.8-0.3-1.2-0.5c-0.4-0.2-0.8-0.4-1.1-0.6c-0.3-0.3-0.6-0.5-0.8-0.9
				c-0.2-0.3-0.3-0.7-0.3-1.2c0-0.4,0.1-0.9,0.3-1.3c0.2-0.4,0.4-0.7,0.8-1c0.3-0.3,0.7-0.5,1.2-0.7c0.5-0.2,1-0.2,1.6-0.2
				c0.7,0,1.4,0.1,1.9,0.4s1.1,0.5,1.5,0.9l-0.9,1.2c-0.4-0.3-0.8-0.5-1.2-0.7s-0.9-0.3-1.4-0.3c-0.7,0-1.2,0.2-1.6,0.5
				s-0.5,0.7-0.5,1.1c0,0.3,0.1,0.5,0.2,0.7c0.1,0.2,0.3,0.4,0.6,0.5s0.5,0.3,0.8,0.4c0.3,0.1,0.6,0.2,0.9,0.4
				c0.4,0.2,0.8,0.3,1.2,0.5c0.4,0.2,0.8,0.4,1.1,0.6c0.3,0.3,0.6,0.6,0.8,0.9c0.2,0.4,0.3,0.8,0.3,1.3c0,0.5-0.1,0.9-0.3,1.3
				c-0.2,0.4-0.4,0.8-0.8,1.1s-0.8,0.5-1.3,0.7C201.2,355.5,200.6,355.6,199.9,355.6z"/>
			<path class="st4" d="M211,355.6c-0.7,0-1.3-0.1-2-0.4s-1.2-0.6-1.6-1.1c-0.5-0.5-0.9-1.1-1.1-1.8c-0.3-0.7-0.4-1.6-0.4-2.5
				c0-0.9,0.1-1.8,0.4-2.5s0.7-1.3,1.1-1.9c0.5-0.5,1-0.9,1.6-1.2c0.6-0.3,1.3-0.4,2-0.4s1.3,0.1,2,0.4c0.6,0.3,1.2,0.6,1.6,1.2
				c0.5,0.5,0.9,1.1,1.1,1.9s0.4,1.6,0.4,2.5c0,0.9-0.1,1.7-0.4,2.5c-0.3,0.7-0.7,1.3-1.1,1.8c-0.5,0.5-1,0.9-1.6,1.1
				C212.3,355.4,211.7,355.6,211,355.6z M211,354c0.5,0,0.9-0.1,1.3-0.3c0.4-0.2,0.7-0.5,1-0.9c0.3-0.4,0.5-0.8,0.7-1.3
				c0.2-0.5,0.2-1.1,0.2-1.7c0-0.6-0.1-1.2-0.2-1.8c-0.2-0.5-0.4-1-0.7-1.4c-0.3-0.4-0.6-0.7-1-0.9c-0.4-0.2-0.8-0.3-1.3-0.3
				c-0.5,0-0.9,0.1-1.3,0.3c-0.4,0.2-0.7,0.5-1,0.9c-0.3,0.4-0.5,0.8-0.7,1.4c-0.2,0.5-0.2,1.1-0.2,1.8c0,0.6,0.1,1.2,0.2,1.7
				c0.2,0.5,0.4,1,0.7,1.3c0.3,0.4,0.6,0.7,1,0.9C210.1,353.9,210.5,354,211,354z"/>
			<path class="st4" d="M219.1,355.3v-11.2h1.6l0.2,1.6h0.1c0.5-0.5,1.1-1,1.7-1.3c0.6-0.4,1.3-0.5,2.1-0.5c1.2,0,2,0.4,2.6,1.1
				c0.5,0.7,0.8,1.8,0.8,3.3v7.1h-1.9v-6.8c0-1.1-0.2-1.8-0.5-2.3s-0.9-0.7-1.6-0.7c-0.6,0-1.1,0.1-1.5,0.4c-0.4,0.3-1,0.7-1.5,1.3
				v8.1H219.1z"/>
			<path class="st4" d="M236.5,360.1c-0.3,0-0.5,0-0.7-0.1s-0.4-0.1-0.6-0.2l0.4-1.5c0.1,0,0.3,0.1,0.4,0.1s0.3,0.1,0.4,0.1
				c0.6,0,1.2-0.2,1.6-0.7c0.4-0.5,0.7-1,1-1.7l0.3-0.8l-4.5-11.2h2l2.3,6.2c0.2,0.5,0.3,1,0.5,1.6s0.4,1.1,0.5,1.6h0.1
				c0.2-0.5,0.3-1,0.5-1.6c0.2-0.6,0.3-1.1,0.5-1.6l2-6.2h1.8l-4.2,12.1c-0.2,0.6-0.4,1.1-0.7,1.5s-0.5,0.9-0.9,1.2
				s-0.7,0.6-1.1,0.8S237,360.1,236.5,360.1z"/>
			<path class="st4" d="M251.3,355.6c-0.7,0-1.3-0.1-2-0.4s-1.2-0.6-1.6-1.1c-0.5-0.5-0.9-1.1-1.1-1.8c-0.3-0.7-0.4-1.6-0.4-2.5
				c0-0.9,0.1-1.8,0.4-2.5s0.7-1.3,1.1-1.9c0.5-0.5,1-0.9,1.6-1.2c0.6-0.3,1.3-0.4,2-0.4s1.3,0.1,2,0.4c0.6,0.3,1.2,0.6,1.6,1.2
				c0.5,0.5,0.9,1.1,1.1,1.9s0.4,1.6,0.4,2.5c0,0.9-0.1,1.7-0.4,2.5c-0.3,0.7-0.7,1.3-1.1,1.8c-0.5,0.5-1,0.9-1.6,1.1
				C252.6,355.4,252,355.6,251.3,355.6z M251.3,354c0.5,0,0.9-0.1,1.3-0.3c0.4-0.2,0.7-0.5,1-0.9c0.3-0.4,0.5-0.8,0.7-1.3
				c0.2-0.5,0.2-1.1,0.2-1.7c0-0.6-0.1-1.2-0.2-1.8c-0.2-0.5-0.4-1-0.7-1.4c-0.3-0.4-0.6-0.7-1-0.9c-0.4-0.2-0.8-0.3-1.3-0.3
				c-0.5,0-0.9,0.1-1.3,0.3c-0.4,0.2-0.7,0.5-1,0.9c-0.3,0.4-0.5,0.8-0.7,1.4c-0.2,0.5-0.2,1.1-0.2,1.8c0,0.6,0.1,1.2,0.2,1.7
				c0.2,0.5,0.4,1,0.7,1.3c0.3,0.4,0.6,0.7,1,0.9C250.4,353.9,250.8,354,251.3,354z"/>
			<path class="st4" d="M262.7,355.6c-1.2,0-2.1-0.4-2.6-1.1c-0.5-0.7-0.8-1.8-0.8-3.3v-7.1h1.9v6.8c0,1.1,0.2,1.8,0.5,2.3
				s0.9,0.7,1.6,0.7c0.6,0,1.1-0.1,1.5-0.4c0.4-0.3,0.9-0.8,1.5-1.4v-7.9h1.9v11.2h-1.6l-0.2-1.7h-0.1c-0.5,0.6-1.1,1.1-1.6,1.5
				C264.1,355.4,263.5,355.6,262.7,355.6z"/>
			<path class="st4" d="M276.5,355.3v-11.2h1.6l0.2,2h0.1c0.4-0.7,0.8-1.3,1.4-1.7s1.1-0.6,1.8-0.6c0.4,0,0.8,0.1,1.2,0.2l-0.4,1.7
				c-0.2-0.1-0.4-0.1-0.5-0.1c-0.2,0-0.3,0-0.6,0c-0.5,0-1,0.2-1.5,0.6c-0.5,0.4-1,1-1.3,2v7.2H276.5z"/>
			<path class="st4" d="M288.8,355.6c-0.8,0-1.5-0.1-2.1-0.4c-0.7-0.3-1.2-0.7-1.7-1.1s-0.9-1.1-1.1-1.8c-0.3-0.7-0.4-1.5-0.4-2.5
				s0.1-1.7,0.4-2.5s0.7-1.3,1.1-1.9c0.5-0.5,1-0.9,1.6-1.2c0.6-0.3,1.2-0.4,1.9-0.4c0.7,0,1.3,0.1,1.9,0.4c0.6,0.2,1,0.6,1.4,1.1
				c0.4,0.5,0.7,1,0.9,1.7c0.2,0.6,0.3,1.4,0.3,2.2c0,0.2,0,0.4,0,0.6c0,0.2,0,0.4-0.1,0.5h-7.5c0.1,1.2,0.4,2.1,1.1,2.8
				c0.7,0.7,1.5,1,2.6,1c0.5,0,1-0.1,1.5-0.2c0.5-0.2,0.9-0.4,1.3-0.6l0.7,1.2c-0.5,0.3-1,0.6-1.6,0.8
				C290.3,355.5,289.6,355.6,288.8,355.6z M285.3,348.8h6c0-1.1-0.2-2-0.7-2.6c-0.5-0.6-1.2-0.9-2-0.9c-0.4,0-0.8,0.1-1.1,0.2
				c-0.4,0.2-0.7,0.4-1,0.7c-0.3,0.3-0.5,0.7-0.7,1.1C285.5,347.8,285.3,348.3,285.3,348.8z"/>
			<path class="st4" d="M296,355.3v-9.6h-1.5v-1.4l1.5-0.1v-1.8c0-1.1,0.3-2.1,0.8-2.7s1.4-1,2.5-1c0.4,0,0.7,0,1,0.1
				c0.3,0.1,0.6,0.2,0.9,0.3l-0.4,1.4c-0.4-0.2-0.8-0.3-1.3-0.3c-1,0-1.6,0.7-1.6,2.2v1.8h2.4v1.5h-2.4v9.6H296z"/>
			<path class="st4" d="M306.7,355.6c-0.8,0-1.5-0.1-2.1-0.4c-0.7-0.3-1.2-0.7-1.7-1.1s-0.9-1.1-1.1-1.8c-0.3-0.7-0.4-1.5-0.4-2.5
				s0.1-1.7,0.4-2.5s0.7-1.3,1.1-1.9c0.5-0.5,1-0.9,1.6-1.2c0.6-0.3,1.2-0.4,1.9-0.4c0.7,0,1.3,0.1,1.9,0.4s1,0.6,1.4,1.1
				c0.4,0.5,0.7,1,0.9,1.7c0.2,0.6,0.3,1.4,0.3,2.2c0,0.2,0,0.4,0,0.6c0,0.2,0,0.4-0.1,0.5h-7.5c0.1,1.2,0.4,2.1,1.1,2.8
				c0.7,0.7,1.5,1,2.6,1c0.5,0,1-0.1,1.5-0.2c0.5-0.2,0.9-0.4,1.3-0.6l0.7,1.2c-0.5,0.3-1,0.6-1.6,0.8
				C308.1,355.5,307.5,355.6,306.7,355.6z M303.2,348.8h6c0-1.1-0.2-2-0.7-2.6c-0.5-0.6-1.2-0.9-2-0.9c-0.4,0-0.8,0.1-1.1,0.2
				s-0.7,0.4-1,0.7s-0.5,0.7-0.7,1.1C303.4,347.8,303.2,348.3,303.2,348.8z"/>
			<path class="st4" d="M313.6,355.3v-11.2h1.6l0.2,2h0.1c0.4-0.7,0.8-1.3,1.4-1.7c0.5-0.4,1.1-0.6,1.8-0.6c0.4,0,0.8,0.1,1.2,0.2
				l-0.4,1.7c-0.2-0.1-0.4-0.1-0.5-0.1c-0.2,0-0.3,0-0.6,0c-0.5,0-1,0.2-1.5,0.6c-0.5,0.4-1,1-1.3,2v7.2H313.6z"/>
			<path class="st4" d="M319.9,359.2l-0.5-1.1c0.7-0.3,1.2-0.7,1.5-1.2c0.4-0.5,0.5-1,0.5-1.6c0,0-0.1,0-0.2,0c-0.4,0-0.7-0.1-1-0.3
				c-0.3-0.2-0.4-0.5-0.4-1c0-0.4,0.1-0.7,0.4-1c0.3-0.2,0.6-0.4,1-0.4c0.5,0,0.9,0.2,1.2,0.6c0.3,0.4,0.4,0.9,0.4,1.6
				c0,1-0.3,1.9-0.8,2.6S320.8,358.8,319.9,359.2z"/>
			<path class="st4" d="M333.6,355.6c-1.9,0-3.3-0.8-4.2-2.4l1.4-1c0.3,0.6,0.7,1,1.2,1.3c0.4,0.3,0.9,0.4,1.4,0.4
				c0.8,0,1.4-0.2,1.8-0.7s0.6-1.3,0.6-2.5v-10.5h1.9v10.6c0,0.6-0.1,1.3-0.2,1.8c-0.2,0.6-0.4,1.1-0.7,1.5c-0.3,0.4-0.8,0.8-1.3,1
				S334.3,355.6,333.6,355.6z"/>
			<path class="st4" d="M339.8,355.3l5.1-15.1h2.2l5.1,15.1h-2l-1.4-4.6h-5.5l-1.4,4.6H339.8z M344.4,346.9l-0.7,2.3h4.5l-0.7-2.3
				c-0.3-0.8-0.5-1.7-0.8-2.5c-0.2-0.8-0.5-1.7-0.7-2.6h-0.1c-0.2,0.9-0.5,1.7-0.7,2.6C344.9,345.2,344.7,346,344.4,346.9z"/>
			<path class="st4" d="M354.3,355.3v-15.1h4.7c0.8,0,1.5,0.1,2.1,0.2c0.7,0.1,1.2,0.4,1.7,0.7c0.5,0.3,0.8,0.8,1.1,1.3
				c0.3,0.5,0.4,1.2,0.4,2c0,1.2-0.3,2.1-0.9,2.8c-0.6,0.7-1.4,1.2-2.5,1.4l3.8,6.6h-2.2l-3.6-6.4h-2.7v6.4H354.3z M356.2,347.4h2.5
				c1.2,0,2.1-0.2,2.7-0.7c0.6-0.5,0.9-1.2,0.9-2.2c0-1-0.3-1.7-0.9-2.1c-0.6-0.4-1.5-0.6-2.7-0.6h-2.5V347.4z"/>
			<path class="st4" d="M365.3,355.3l5.1-15.1h2.2l5.1,15.1h-2l-1.4-4.6h-5.5l-1.4,4.6H365.3z M369.9,346.9l-0.7,2.3h4.5l-0.7-2.3
				c-0.3-0.8-0.5-1.7-0.8-2.5c-0.2-0.8-0.5-1.7-0.7-2.6h-0.1c-0.2,0.9-0.5,1.7-0.7,2.6C370.4,345.2,370.2,346,369.9,346.9z"/>
			<path class="st4" d="M384.2,355.3v-11.2h1.6l0.2,2h0.1c0.4-0.7,0.8-1.3,1.4-1.7s1.1-0.6,1.8-0.6c0.4,0,0.8,0.1,1.2,0.2l-0.4,1.7
				c-0.2-0.1-0.4-0.1-0.5-0.1c-0.2,0-0.3,0-0.6,0c-0.5,0-1,0.2-1.5,0.6c-0.5,0.4-1,1-1.3,2v7.2H384.2z"/>
			<path class="st4" d="M396.5,355.6c-0.8,0-1.5-0.1-2.1-0.4c-0.7-0.3-1.2-0.7-1.7-1.1s-0.9-1.1-1.1-1.8c-0.3-0.7-0.4-1.5-0.4-2.5
				s0.1-1.7,0.4-2.5s0.7-1.3,1.1-1.9c0.5-0.5,1-0.9,1.6-1.2c0.6-0.3,1.2-0.4,1.9-0.4c0.7,0,1.3,0.1,1.9,0.4c0.6,0.2,1,0.6,1.4,1.1
				c0.4,0.5,0.7,1,0.9,1.7c0.2,0.6,0.3,1.4,0.3,2.2c0,0.2,0,0.4,0,0.6c0,0.2,0,0.4-0.1,0.5H393c0.1,1.2,0.4,2.1,1.1,2.8
				c0.7,0.7,1.5,1,2.6,1c0.5,0,1-0.1,1.5-0.2c0.5-0.2,0.9-0.4,1.3-0.6l0.7,1.2c-0.5,0.3-1,0.6-1.6,0.8
				C398,355.5,397.3,355.6,396.5,355.6z M393,348.8h6c0-1.1-0.2-2-0.7-2.6c-0.5-0.6-1.2-0.9-2-0.9c-0.4,0-0.8,0.1-1.1,0.2
				c-0.4,0.2-0.7,0.4-1,0.7c-0.3,0.3-0.5,0.7-0.7,1.1C393.2,347.8,393,348.3,393,348.8z"/>
			<path class="st4" d="M405.3,355.3l-3.1-11.2h1.9l1.7,6.5c0.1,0.5,0.2,1.1,0.3,1.6c0.1,0.5,0.2,1,0.3,1.5h0.1
				c0.1-0.5,0.2-1,0.4-1.6c0.1-0.5,0.3-1,0.4-1.6l1.7-6.5h1.8l1.7,6.5c0.1,0.5,0.3,1.1,0.4,1.6c0.1,0.5,0.3,1,0.4,1.5h0.1
				c0.1-0.5,0.2-1,0.3-1.5c0.1-0.5,0.2-1,0.3-1.6l1.6-6.5h1.8l-3,11.2h-2.3l-1.6-6c-0.1-0.5-0.3-1.1-0.4-1.6
				c-0.1-0.5-0.2-1.1-0.4-1.6h-0.1c-0.1,0.6-0.2,1.1-0.4,1.6c-0.1,0.5-0.3,1.1-0.4,1.6l-1.6,6H405.3z"/>
			<path class="st4" d="M422.4,355.6c-0.9,0-1.7-0.3-2.3-0.8s-0.9-1.3-0.9-2.3c0-1.2,0.5-2.2,1.6-2.8c1.1-0.7,2.8-1.1,5.2-1.4
				c0-0.4,0-0.7-0.1-1c-0.1-0.3-0.2-0.6-0.4-0.9c-0.2-0.3-0.4-0.5-0.7-0.6s-0.7-0.2-1.1-0.2c-0.6,0-1.3,0.1-1.8,0.4
				c-0.6,0.2-1.1,0.5-1.5,0.8l-0.7-1.3c0.5-0.3,1.2-0.7,1.9-1c0.8-0.3,1.6-0.5,2.5-0.5c1.4,0,2.4,0.4,3,1.3s0.9,2,0.9,3.3v6.9h-1.6
				l-0.2-1.3h-0.1c-0.5,0.4-1.1,0.8-1.7,1.1C423.7,355.4,423.1,355.6,422.4,355.6z M422.9,354.1c0.5,0,1-0.1,1.5-0.4
				c0.5-0.3,1-0.6,1.5-1.1v-3.1c-0.9,0.1-1.7,0.3-2.4,0.4c-0.6,0.2-1.2,0.4-1.5,0.6c-0.4,0.2-0.7,0.5-0.9,0.8s-0.3,0.6-0.3,1
				c0,0.6,0.2,1.1,0.6,1.4C421.9,353.9,422.4,354.1,422.9,354.1z"/>
			<path class="st4" d="M431.4,355.3v-11.2h1.6l0.2,2h0.1c0.4-0.7,0.8-1.3,1.4-1.7c0.5-0.4,1.1-0.6,1.8-0.6c0.4,0,0.8,0.1,1.2,0.2
				l-0.4,1.7c-0.2-0.1-0.4-0.1-0.5-0.1c-0.2,0-0.3,0-0.6,0c-0.5,0-1,0.2-1.5,0.6c-0.5,0.4-1,1-1.3,2v7.2H431.4z"/>
			<path class="st4" d="M442.9,355.6c-1.4,0-2.5-0.5-3.4-1.5s-1.3-2.5-1.3-4.3c0-0.9,0.1-1.7,0.4-2.4c0.3-0.7,0.6-1.3,1.1-1.9
				c0.4-0.5,1-0.9,1.5-1.2c0.6-0.3,1.2-0.4,1.8-0.4s1.2,0.1,1.7,0.3c0.5,0.2,1,0.5,1.4,0.9l-0.1-1.9v-4.3h1.9v16.4h-1.6l-0.2-1.3
				h-0.1c-0.4,0.4-1,0.8-1.5,1.1C444.2,355.4,443.6,355.6,442.9,355.6z M443.4,354c0.5,0,1-0.1,1.5-0.4c0.5-0.3,0.9-0.6,1.4-1.2
				v-5.8c-0.5-0.4-0.9-0.7-1.4-0.9c-0.4-0.2-0.9-0.3-1.3-0.3c-0.4,0-0.9,0.1-1.3,0.3s-0.7,0.5-1,0.9c-0.3,0.4-0.5,0.8-0.7,1.3
				c-0.2,0.5-0.3,1.1-0.3,1.7c0,1.3,0.3,2.4,0.8,3.2C441.6,353.6,442.4,354,443.4,354z"/>
			<path class="st4" d="M454.8,355.6c-0.8,0-1.6-0.1-2.3-0.4s-1.3-0.7-1.9-1.1l0.9-1.3c0.5,0.4,1,0.7,1.5,1c0.5,0.2,1.1,0.4,1.8,0.4
				c0.7,0,1.3-0.2,1.7-0.5c0.4-0.3,0.6-0.8,0.6-1.2c0-0.3-0.1-0.5-0.2-0.8s-0.3-0.4-0.6-0.6c-0.2-0.2-0.5-0.3-0.8-0.4
				c-0.3-0.1-0.6-0.2-0.9-0.4c-0.4-0.1-0.8-0.3-1.2-0.5c-0.4-0.2-0.8-0.4-1.1-0.6s-0.6-0.5-0.8-0.9c-0.2-0.3-0.3-0.7-0.3-1.2
				c0-0.4,0.1-0.9,0.3-1.3c0.2-0.4,0.4-0.7,0.8-1c0.3-0.3,0.7-0.5,1.2-0.7c0.5-0.2,1-0.2,1.6-0.2c0.7,0,1.4,0.1,1.9,0.4
				c0.6,0.2,1.1,0.5,1.5,0.9l-0.9,1.2c-0.4-0.3-0.8-0.5-1.2-0.7s-0.9-0.3-1.4-0.3c-0.7,0-1.2,0.2-1.6,0.5s-0.5,0.7-0.5,1.1
				c0,0.3,0.1,0.5,0.2,0.7c0.1,0.2,0.3,0.4,0.6,0.5s0.5,0.3,0.8,0.4c0.3,0.1,0.6,0.2,0.9,0.4c0.4,0.2,0.8,0.3,1.2,0.5
				s0.8,0.4,1.1,0.6c0.3,0.3,0.6,0.6,0.8,0.9c0.2,0.4,0.3,0.8,0.3,1.3c0,0.5-0.1,0.9-0.3,1.3c-0.2,0.4-0.4,0.8-0.8,1.1
				c-0.3,0.3-0.8,0.5-1.3,0.7C456.1,355.5,455.5,355.6,454.8,355.6z"/>
		</g>
		<g class="st3">
			<path class="st4" d="M71.6,397.1c-0.3,0-0.5,0-0.7-0.1s-0.4-0.1-0.6-0.2l0.4-1.5c0.1,0,0.3,0.1,0.4,0.1s0.3,0.1,0.4,0.1
				c0.6,0,1.2-0.2,1.6-0.7c0.4-0.5,0.7-1,1-1.7l0.3-0.8l-4.5-11.2h2l2.3,6.2c0.2,0.5,0.3,1,0.5,1.6s0.4,1.1,0.5,1.6h0.1
				c0.2-0.5,0.3-1,0.5-1.6c0.2-0.6,0.3-1.1,0.5-1.6l2-6.2H80l-4.2,12.1c-0.2,0.6-0.4,1.1-0.7,1.5s-0.5,0.9-0.9,1.2s-0.7,0.6-1.1,0.8
				S72.1,397.1,71.6,397.1z"/>
			<path class="st4" d="M86.4,392.6c-0.7,0-1.3-0.1-2-0.4s-1.2-0.6-1.6-1.1c-0.5-0.5-0.9-1.1-1.1-1.8c-0.3-0.7-0.4-1.6-0.4-2.5
				c0-0.9,0.1-1.8,0.4-2.5s0.7-1.3,1.1-1.9c0.5-0.5,1-0.9,1.6-1.2c0.6-0.3,1.3-0.4,2-0.4s1.3,0.1,2,0.4c0.6,0.3,1.2,0.6,1.6,1.2
				c0.5,0.5,0.9,1.1,1.1,1.9s0.4,1.6,0.4,2.5c0,0.9-0.1,1.7-0.4,2.5c-0.3,0.7-0.7,1.3-1.1,1.8c-0.5,0.5-1,0.9-1.6,1.1
				C87.7,392.4,87.1,392.6,86.4,392.6z M86.4,391c0.5,0,0.9-0.1,1.3-0.3c0.4-0.2,0.7-0.5,1-0.9c0.3-0.4,0.5-0.8,0.7-1.3
				c0.2-0.5,0.2-1.1,0.2-1.7c0-0.6-0.1-1.2-0.2-1.8c-0.2-0.5-0.4-1-0.7-1.4c-0.3-0.4-0.6-0.7-1-0.9c-0.4-0.2-0.8-0.3-1.3-0.3
				c-0.5,0-0.9,0.1-1.3,0.3c-0.4,0.2-0.7,0.5-1,0.9c-0.3,0.4-0.5,0.8-0.7,1.4c-0.2,0.5-0.2,1.1-0.2,1.8c0,0.6,0.1,1.2,0.2,1.7
				c0.2,0.5,0.4,1,0.7,1.3c0.3,0.4,0.6,0.7,1,0.9C85.5,390.9,85.9,391,86.4,391z"/>
			<path class="st4" d="M97.8,392.6c-1.2,0-2.1-0.4-2.6-1.1c-0.5-0.7-0.8-1.8-0.8-3.3v-7.1h1.9v6.8c0,1.1,0.2,1.8,0.5,2.3
				s0.9,0.7,1.6,0.7c0.6,0,1.1-0.1,1.5-0.4c0.4-0.3,0.9-0.8,1.5-1.4v-7.9h1.9v11.2h-1.6l-0.2-1.7h-0.1c-0.5,0.6-1.1,1.1-1.6,1.5
				C99.2,392.4,98.5,392.6,97.8,392.6z"/>
			<path class="st4" d="M113.4,392.3l-3.1-11.2h1.9l1.7,6.5c0.1,0.5,0.2,1.1,0.3,1.6c0.1,0.5,0.2,1,0.3,1.5h0.1
				c0.1-0.5,0.2-1,0.4-1.6c0.1-0.5,0.3-1,0.4-1.6l1.7-6.5h1.8l1.7,6.5c0.1,0.5,0.3,1.1,0.4,1.6c0.1,0.5,0.3,1,0.4,1.5h0.1
				c0.1-0.5,0.2-1,0.3-1.5c0.1-0.5,0.2-1,0.3-1.6l1.6-6.5h1.8l-3,11.2h-2.3l-1.6-6c-0.1-0.5-0.3-1.1-0.4-1.6
				c-0.1-0.5-0.2-1.1-0.4-1.6h-0.1c-0.1,0.6-0.2,1.1-0.4,1.6c-0.1,0.5-0.3,1.1-0.4,1.6l-1.6,6H113.4z"/>
			<path class="st4" d="M129.1,378.8c-0.4,0-0.7-0.1-0.9-0.3c-0.3-0.2-0.4-0.5-0.4-0.9c0-0.4,0.1-0.7,0.4-0.9
				c0.3-0.2,0.6-0.3,0.9-0.3s0.7,0.1,0.9,0.3c0.3,0.2,0.4,0.5,0.4,0.9c0,0.4-0.1,0.6-0.4,0.9C129.8,378.7,129.5,378.8,129.1,378.8z
				 M128.1,392.3v-11.2h1.9v11.2H128.1z"/>
			<path class="st4" d="M137.3,392.6c-0.6,0-1.1-0.1-1.5-0.3s-0.7-0.4-1-0.8s-0.4-0.7-0.5-1.2c-0.1-0.5-0.2-1-0.2-1.5v-6.2h-1.7
				v-1.4l1.7-0.1l0.2-3.1h1.6v3.1h3v1.5h-3v6.2c0,0.7,0.1,1.2,0.4,1.6s0.7,0.6,1.3,0.6c0.2,0,0.4,0,0.6-0.1c0.2-0.1,0.4-0.1,0.6-0.2
				l0.4,1.4c-0.3,0.1-0.6,0.2-1,0.3C138,392.5,137.7,392.6,137.3,392.6z"/>
			<path class="st4" d="M141.6,392.3v-16.4h1.9v4.5l-0.1,2.3c0.5-0.5,1.1-0.9,1.7-1.3s1.3-0.5,2-0.5c1.2,0,2,0.4,2.6,1.1
				c0.5,0.7,0.8,1.8,0.8,3.3v7.1h-1.9v-6.8c0-1.1-0.2-1.8-0.5-2.3s-0.9-0.7-1.6-0.7c-0.6,0-1.1,0.1-1.5,0.4c-0.4,0.3-1,0.7-1.5,1.3
				v8.1H141.6z"/>
			<path class="st4" d="M158.7,397v-15.9h1.6l0.2,1.3h0.1c0.5-0.4,1.1-0.8,1.7-1.1c0.6-0.3,1.2-0.5,1.9-0.5c0.7,0,1.4,0.1,1.9,0.4
				c0.6,0.3,1,0.7,1.4,1.2c0.4,0.5,0.6,1.1,0.8,1.8c0.2,0.7,0.3,1.5,0.3,2.4c0,1-0.1,1.8-0.4,2.5c-0.3,0.7-0.6,1.4-1.1,1.9
				s-1,0.9-1.5,1.2c-0.6,0.3-1.2,0.4-1.8,0.4c-0.5,0-1-0.1-1.6-0.3c-0.5-0.2-1-0.5-1.6-0.9l0,2v3.8H158.7z M163.3,391
				c0.5,0,0.9-0.1,1.3-0.3c0.4-0.2,0.7-0.5,1-0.9s0.5-0.8,0.7-1.4c0.2-0.6,0.2-1.2,0.2-1.9c0-0.6-0.1-1.2-0.2-1.7
				c-0.1-0.5-0.3-0.9-0.5-1.3s-0.5-0.6-0.9-0.8c-0.4-0.2-0.8-0.3-1.3-0.3c-0.5,0-1,0.1-1.4,0.4c-0.5,0.3-1,0.6-1.6,1.1v5.9
				c0.5,0.4,1,0.7,1.5,0.9C162.5,390.9,162.9,391,163.3,391z"/>
			<path class="st4" d="M175.8,392.6c-0.7,0-1.3-0.1-2-0.4s-1.2-0.6-1.6-1.1c-0.5-0.5-0.9-1.1-1.1-1.8c-0.3-0.7-0.4-1.6-0.4-2.5
				c0-0.9,0.1-1.8,0.4-2.5s0.7-1.3,1.1-1.9c0.5-0.5,1-0.9,1.6-1.2c0.6-0.3,1.3-0.4,2-0.4s1.3,0.1,2,0.4c0.6,0.3,1.2,0.6,1.6,1.2
				c0.5,0.5,0.9,1.1,1.1,1.9s0.4,1.6,0.4,2.5c0,0.9-0.1,1.7-0.4,2.5c-0.3,0.7-0.7,1.3-1.1,1.8c-0.5,0.5-1,0.9-1.6,1.1
				C177.1,392.4,176.5,392.6,175.8,392.6z M175.8,391c0.5,0,0.9-0.1,1.3-0.3c0.4-0.2,0.7-0.5,1-0.9c0.3-0.4,0.5-0.8,0.7-1.3
				c0.2-0.5,0.2-1.1,0.2-1.7c0-0.6-0.1-1.2-0.2-1.8c-0.2-0.5-0.4-1-0.7-1.4c-0.3-0.4-0.6-0.7-1-0.9c-0.4-0.2-0.8-0.3-1.3-0.3
				c-0.5,0-0.9,0.1-1.3,0.3c-0.4,0.2-0.7,0.5-1,0.9c-0.3,0.4-0.5,0.8-0.7,1.4c-0.2,0.5-0.2,1.1-0.2,1.8c0,0.6,0.1,1.2,0.2,1.7
				c0.2,0.5,0.4,1,0.7,1.3c0.3,0.4,0.6,0.7,1,0.9C174.9,390.9,175.3,391,175.8,391z"/>
			<path class="st4" d="M184.9,378.8c-0.4,0-0.7-0.1-0.9-0.3c-0.3-0.2-0.4-0.5-0.4-0.9c0-0.4,0.1-0.7,0.4-0.9
				c0.3-0.2,0.6-0.3,0.9-0.3s0.7,0.1,0.9,0.3c0.3,0.2,0.4,0.5,0.4,0.9c0,0.4-0.1,0.6-0.4,0.9C185.5,378.7,185.2,378.8,184.9,378.8z
				 M183.9,392.3v-11.2h1.9v11.2H183.9z"/>
			<path class="st4" d="M189.6,392.3v-11.2h1.6l0.2,1.6h0.1c0.5-0.5,1.1-1,1.7-1.3c0.6-0.4,1.3-0.5,2.1-0.5c1.2,0,2,0.4,2.6,1.1
				c0.5,0.7,0.8,1.8,0.8,3.3v7.1h-1.9v-6.8c0-1.1-0.2-1.8-0.5-2.3s-0.9-0.7-1.6-0.7c-0.6,0-1.1,0.1-1.5,0.4c-0.4,0.3-1,0.7-1.5,1.3
				v8.1H189.6z"/>
			<path class="st4" d="M205.7,392.6c-0.6,0-1.1-0.1-1.5-0.3s-0.7-0.4-1-0.8s-0.4-0.7-0.5-1.2c-0.1-0.5-0.2-1-0.2-1.5v-6.2h-1.7
				v-1.4l1.7-0.1l0.2-3.1h1.6v3.1h3v1.5h-3v6.2c0,0.7,0.1,1.2,0.4,1.6s0.7,0.6,1.3,0.6c0.2,0,0.4,0,0.6-0.1c0.2-0.1,0.4-0.1,0.6-0.2
				l0.4,1.4c-0.3,0.1-0.6,0.2-1,0.3C206.4,392.5,206,392.6,205.7,392.6z"/>
			<path class="st4" d="M212.6,392.6c-0.8,0-1.6-0.1-2.3-0.4s-1.3-0.7-1.9-1.1l0.9-1.3c0.5,0.4,1,0.7,1.5,1c0.5,0.2,1.1,0.4,1.8,0.4
				c0.7,0,1.3-0.2,1.7-0.5c0.4-0.3,0.6-0.8,0.6-1.2c0-0.3-0.1-0.5-0.2-0.8s-0.3-0.4-0.6-0.6c-0.2-0.2-0.5-0.3-0.8-0.4
				c-0.3-0.1-0.6-0.2-0.9-0.4c-0.4-0.1-0.8-0.3-1.2-0.5c-0.4-0.2-0.8-0.4-1.1-0.6c-0.3-0.3-0.6-0.5-0.8-0.9
				c-0.2-0.3-0.3-0.7-0.3-1.2c0-0.4,0.1-0.9,0.3-1.3c0.2-0.4,0.4-0.7,0.8-1c0.3-0.3,0.7-0.5,1.2-0.7c0.5-0.2,1-0.2,1.6-0.2
				c0.7,0,1.4,0.1,1.9,0.4s1.1,0.5,1.5,0.9l-0.9,1.2c-0.4-0.3-0.8-0.5-1.2-0.7s-0.9-0.3-1.4-0.3c-0.7,0-1.2,0.2-1.6,0.5
				s-0.5,0.7-0.5,1.1c0,0.3,0.1,0.5,0.2,0.7c0.1,0.2,0.3,0.4,0.6,0.5s0.5,0.3,0.8,0.4c0.3,0.1,0.6,0.2,0.9,0.4
				c0.4,0.2,0.8,0.3,1.2,0.5c0.4,0.2,0.8,0.4,1.1,0.6c0.3,0.3,0.6,0.6,0.8,0.9c0.2,0.4,0.3,0.8,0.3,1.3c0,0.5-0.1,0.9-0.3,1.3
				c-0.2,0.4-0.4,0.8-0.8,1.1s-0.8,0.5-1.3,0.7C213.8,392.5,213.3,392.6,212.6,392.6z"/>
			<path class="st4" d="M227.4,392.6c-0.6,0-1.1-0.1-1.5-0.3s-0.7-0.4-1-0.8s-0.4-0.7-0.5-1.2c-0.1-0.5-0.2-1-0.2-1.5v-6.2h-1.7
				v-1.4l1.7-0.1l0.2-3.1h1.6v3.1h3v1.5h-3v6.2c0,0.7,0.1,1.2,0.4,1.6s0.7,0.6,1.3,0.6c0.2,0,0.4,0,0.6-0.1c0.2-0.1,0.4-0.1,0.6-0.2
				l0.4,1.4c-0.3,0.1-0.6,0.2-1,0.3C228.1,392.5,227.8,392.6,227.4,392.6z"/>
			<path class="st4" d="M231.7,392.3v-16.4h1.9v4.5l-0.1,2.3c0.5-0.5,1.1-0.9,1.7-1.3s1.3-0.5,2-0.5c1.2,0,2,0.4,2.6,1.1
				c0.5,0.7,0.8,1.8,0.8,3.3v7.1h-1.9v-6.8c0-1.1-0.2-1.8-0.5-2.3s-0.9-0.7-1.6-0.7c-0.6,0-1.1,0.1-1.5,0.4c-0.4,0.3-1,0.7-1.5,1.3
				v8.1H231.7z"/>
			<path class="st4" d="M246.8,392.6c-0.9,0-1.7-0.3-2.3-0.8s-0.9-1.3-0.9-2.3c0-1.2,0.5-2.2,1.6-2.8c1.1-0.7,2.8-1.1,5.2-1.4
				c0-0.4,0-0.7-0.1-1c-0.1-0.3-0.2-0.6-0.4-0.9s-0.4-0.5-0.7-0.6c-0.3-0.2-0.7-0.2-1.1-0.2c-0.6,0-1.3,0.1-1.8,0.4
				c-0.6,0.2-1.1,0.5-1.5,0.8l-0.7-1.3c0.5-0.3,1.2-0.7,1.9-1c0.8-0.3,1.6-0.5,2.5-0.5c1.4,0,2.4,0.4,3,1.3c0.6,0.8,0.9,2,0.9,3.3
				v6.9h-1.6l-0.2-1.3h-0.1c-0.5,0.4-1.1,0.8-1.7,1.1C248.1,392.4,247.5,392.6,246.8,392.6z M247.3,391.1c0.5,0,1-0.1,1.5-0.4
				c0.5-0.3,1-0.6,1.5-1.1v-3.1c-0.9,0.1-1.7,0.3-2.4,0.4c-0.6,0.2-1.1,0.4-1.5,0.6c-0.4,0.2-0.7,0.5-0.9,0.8s-0.3,0.6-0.3,1
				c0,0.6,0.2,1.1,0.6,1.4C246.3,390.9,246.8,391.1,247.3,391.1z"/>
			<path class="st4" d="M259,392.6c-0.6,0-1.1-0.1-1.5-0.3s-0.7-0.4-1-0.8s-0.4-0.7-0.5-1.2c-0.1-0.5-0.2-1-0.2-1.5v-6.2h-1.7v-1.4
				l1.7-0.1l0.2-3.1h1.6v3.1h3v1.5h-3v6.2c0,0.7,0.1,1.2,0.4,1.6s0.7,0.6,1.3,0.6c0.2,0,0.4,0,0.6-0.1c0.2-0.1,0.4-0.1,0.6-0.2
				l0.4,1.4c-0.3,0.1-0.6,0.2-1,0.3C259.7,392.5,259.3,392.6,259,392.6z"/>
			<path class="st4" d="M268,397.1c-0.3,0-0.5,0-0.7-0.1s-0.4-0.1-0.6-0.2l0.4-1.5c0.1,0,0.3,0.1,0.4,0.1s0.3,0.1,0.4,0.1
				c0.6,0,1.2-0.2,1.6-0.7c0.4-0.5,0.7-1,1-1.7l0.3-0.8l-4.5-11.2h2l2.3,6.2c0.2,0.5,0.3,1,0.5,1.6s0.4,1.1,0.5,1.6h0.1
				c0.2-0.5,0.3-1,0.5-1.6c0.2-0.6,0.3-1.1,0.5-1.6l2-6.2h1.8l-4.2,12.1c-0.2,0.6-0.4,1.1-0.7,1.5c-0.2,0.5-0.5,0.9-0.9,1.2
				c-0.3,0.3-0.7,0.6-1.1,0.8S268.6,397.1,268,397.1z"/>
			<path class="st4" d="M282.8,392.6c-0.7,0-1.3-0.1-2-0.4s-1.2-0.6-1.6-1.1c-0.5-0.5-0.9-1.1-1.1-1.8c-0.3-0.7-0.4-1.6-0.4-2.5
				c0-0.9,0.1-1.8,0.4-2.5s0.7-1.3,1.1-1.9c0.5-0.5,1-0.9,1.6-1.2c0.6-0.3,1.3-0.4,2-0.4c0.7,0,1.3,0.1,2,0.4
				c0.6,0.3,1.2,0.6,1.6,1.2c0.5,0.5,0.9,1.1,1.1,1.9s0.4,1.6,0.4,2.5c0,0.9-0.1,1.7-0.4,2.5c-0.3,0.7-0.7,1.3-1.1,1.8
				c-0.5,0.5-1,0.9-1.6,1.1C284.2,392.4,283.5,392.6,282.8,392.6z M282.8,391c0.5,0,0.9-0.1,1.3-0.3s0.7-0.5,1-0.9
				c0.3-0.4,0.5-0.8,0.7-1.3c0.2-0.5,0.2-1.1,0.2-1.7c0-0.6-0.1-1.2-0.2-1.8c-0.2-0.5-0.4-1-0.7-1.4c-0.3-0.4-0.6-0.7-1-0.9
				s-0.8-0.3-1.3-0.3c-0.5,0-0.9,0.1-1.3,0.3c-0.4,0.2-0.7,0.5-1,0.9c-0.3,0.4-0.5,0.8-0.7,1.4c-0.2,0.5-0.2,1.1-0.2,1.8
				c0,0.6,0.1,1.2,0.2,1.7c0.2,0.5,0.4,1,0.7,1.3c0.3,0.4,0.6,0.7,1,0.9C281.9,390.9,282.4,391,282.8,391z"/>
			<path class="st4" d="M294.2,392.6c-1.2,0-2.1-0.4-2.6-1.1c-0.5-0.7-0.8-1.8-0.8-3.3v-7.1h1.9v6.8c0,1.1,0.2,1.8,0.5,2.3
				c0.3,0.5,0.9,0.7,1.6,0.7c0.6,0,1.1-0.1,1.5-0.4c0.4-0.3,0.9-0.8,1.5-1.4v-7.9h1.9v11.2h-1.6l-0.2-1.7h-0.1
				c-0.5,0.6-1.1,1.1-1.6,1.5C295.7,392.4,295,392.6,294.2,392.6z"/>
			<path class="st4" d="M312.5,392.6c-0.7,0-1.4-0.1-2.1-0.4s-1.2-0.6-1.7-1.1c-0.5-0.5-0.8-1.1-1.1-1.8c-0.3-0.7-0.4-1.6-0.4-2.5
				c0-0.9,0.1-1.8,0.4-2.5c0.3-0.7,0.7-1.3,1.2-1.9c0.5-0.5,1.1-0.9,1.7-1.2c0.7-0.3,1.3-0.4,2.1-0.4c0.7,0,1.4,0.1,1.9,0.4
				c0.5,0.3,1,0.6,1.4,0.9l-1,1.2c-0.3-0.3-0.7-0.5-1-0.7c-0.4-0.2-0.8-0.3-1.2-0.3c-0.5,0-1,0.1-1.4,0.3s-0.8,0.5-1.1,0.9
				c-0.3,0.4-0.5,0.8-0.7,1.4c-0.2,0.5-0.3,1.1-0.3,1.8c0,0.6,0.1,1.2,0.3,1.7c0.2,0.5,0.4,1,0.7,1.3c0.3,0.4,0.7,0.7,1.1,0.9
				s0.9,0.3,1.4,0.3c0.5,0,1-0.1,1.4-0.3c0.4-0.2,0.8-0.5,1.2-0.8l0.8,1.3c-0.5,0.4-1.1,0.8-1.7,1S313.2,392.6,312.5,392.6z"/>
			<path class="st4" d="M320.9,392.6c-0.9,0-1.7-0.3-2.3-0.8s-0.9-1.3-0.9-2.3c0-1.2,0.5-2.2,1.6-2.8c1.1-0.7,2.8-1.1,5.2-1.4
				c0-0.4,0-0.7-0.1-1c-0.1-0.3-0.2-0.6-0.4-0.9c-0.2-0.3-0.4-0.5-0.7-0.6s-0.7-0.2-1.1-0.2c-0.6,0-1.3,0.1-1.8,0.4
				c-0.6,0.2-1.1,0.5-1.5,0.8l-0.7-1.3c0.5-0.3,1.2-0.7,1.9-1c0.8-0.3,1.6-0.5,2.5-0.5c1.4,0,2.4,0.4,3,1.3s0.9,2,0.9,3.3v6.9h-1.6
				l-0.2-1.3h-0.1c-0.5,0.4-1.1,0.8-1.7,1.1C322.3,392.4,321.6,392.6,320.9,392.6z M321.5,391.1c0.5,0,1-0.1,1.5-0.4
				c0.5-0.3,1-0.6,1.5-1.1v-3.1c-0.9,0.1-1.7,0.3-2.4,0.4c-0.6,0.2-1.2,0.4-1.5,0.6c-0.4,0.2-0.7,0.5-0.9,0.8s-0.3,0.6-0.3,1
				c0,0.6,0.2,1.1,0.6,1.4C320.4,390.9,320.9,391.1,321.5,391.1z"/>
			<path class="st4" d="M329.9,392.3v-11.2h1.6l0.2,1.6h0.1c0.5-0.5,1.1-1,1.7-1.3s1.3-0.5,2.1-0.5c1.2,0,2,0.4,2.6,1.1
				c0.5,0.7,0.8,1.8,0.8,3.3v7.1H337v-6.8c0-1.1-0.2-1.8-0.5-2.3c-0.3-0.5-0.9-0.7-1.6-0.7c-0.6,0-1.1,0.1-1.5,0.4
				c-0.4,0.3-1,0.7-1.5,1.3v8.1H329.9z"/>
			<path class="st4" d="M350.4,392.6c-1.2,0-2.1-0.4-2.6-1.1c-0.5-0.7-0.8-1.8-0.8-3.3v-7.1h1.9v6.8c0,1.1,0.2,1.8,0.5,2.3
				c0.3,0.5,0.9,0.7,1.6,0.7c0.6,0,1.1-0.1,1.5-0.4c0.4-0.3,0.9-0.8,1.5-1.4v-7.9h1.9v11.2h-1.6l-0.2-1.7h-0.1
				c-0.5,0.6-1.1,1.1-1.6,1.5C351.8,392.4,351.2,392.6,350.4,392.6z"/>
			<path class="st4" d="M362.5,392.6c-0.8,0-1.6-0.1-2.3-0.4s-1.3-0.7-1.9-1.1l0.9-1.3c0.5,0.4,1,0.7,1.5,1c0.5,0.2,1.1,0.4,1.8,0.4
				c0.7,0,1.3-0.2,1.7-0.5c0.4-0.3,0.6-0.8,0.6-1.2c0-0.3-0.1-0.5-0.2-0.8c-0.2-0.2-0.3-0.4-0.6-0.6c-0.2-0.2-0.5-0.3-0.8-0.4
				c-0.3-0.1-0.6-0.2-0.9-0.4c-0.4-0.1-0.8-0.3-1.2-0.5c-0.4-0.2-0.8-0.4-1.1-0.6s-0.6-0.5-0.8-0.9c-0.2-0.3-0.3-0.7-0.3-1.2
				c0-0.4,0.1-0.9,0.3-1.3c0.2-0.4,0.4-0.7,0.8-1c0.3-0.3,0.7-0.5,1.2-0.7c0.5-0.2,1-0.2,1.6-0.2c0.7,0,1.4,0.1,1.9,0.4
				s1.1,0.5,1.5,0.9l-0.9,1.2c-0.4-0.3-0.8-0.5-1.2-0.7s-0.9-0.3-1.4-0.3c-0.7,0-1.2,0.2-1.6,0.5c-0.3,0.3-0.5,0.7-0.5,1.1
				c0,0.3,0.1,0.5,0.2,0.7c0.1,0.2,0.3,0.4,0.6,0.5c0.2,0.1,0.5,0.3,0.8,0.4c0.3,0.1,0.6,0.2,0.9,0.4c0.4,0.2,0.8,0.3,1.2,0.5
				c0.4,0.2,0.8,0.4,1.1,0.6s0.6,0.6,0.8,0.9c0.2,0.4,0.3,0.8,0.3,1.3c0,0.5-0.1,0.9-0.3,1.3c-0.2,0.4-0.4,0.8-0.8,1.1
				s-0.8,0.5-1.3,0.7C363.8,392.5,363.2,392.6,362.5,392.6z"/>
			<path class="st4" d="M373.8,392.6c-0.8,0-1.5-0.1-2.1-0.4c-0.7-0.3-1.2-0.7-1.7-1.1s-0.9-1.1-1.1-1.8c-0.3-0.7-0.4-1.5-0.4-2.5
				s0.1-1.7,0.4-2.5s0.7-1.3,1.1-1.9c0.5-0.5,1-0.9,1.6-1.2c0.6-0.3,1.2-0.4,1.9-0.4c0.7,0,1.3,0.1,1.9,0.4s1,0.6,1.4,1.1
				c0.4,0.5,0.7,1,0.9,1.7c0.2,0.6,0.3,1.4,0.3,2.2c0,0.2,0,0.4,0,0.6c0,0.2,0,0.4-0.1,0.5h-7.5c0.1,1.2,0.4,2.1,1.1,2.8
				c0.7,0.7,1.5,1,2.6,1c0.5,0,1-0.1,1.5-0.2c0.5-0.2,0.9-0.4,1.3-0.6l0.7,1.2c-0.5,0.3-1,0.6-1.6,0.8
				C375.2,392.5,374.6,392.6,373.8,392.6z M370.3,385.8h6c0-1.1-0.2-2-0.7-2.6c-0.5-0.6-1.2-0.9-2-0.9c-0.4,0-0.8,0.1-1.1,0.2
				s-0.7,0.4-1,0.7s-0.5,0.7-0.7,1.1C370.5,384.8,370.3,385.3,370.3,385.8z"/>
			<path class="st4" d="M388.8,392.6c-0.6,0-1.1-0.1-1.5-0.3s-0.7-0.4-1-0.8c-0.3-0.3-0.4-0.7-0.5-1.2s-0.2-1-0.2-1.5v-6.2h-1.7
				v-1.4l1.7-0.1l0.2-3.1h1.6v3.1h3v1.5h-3v6.2c0,0.7,0.1,1.2,0.4,1.6c0.3,0.4,0.7,0.6,1.3,0.6c0.2,0,0.4,0,0.6-0.1
				c0.2-0.1,0.4-0.1,0.6-0.2l0.4,1.4c-0.3,0.1-0.6,0.2-1,0.3C389.5,392.5,389.1,392.6,388.8,392.6z"/>
			<path class="st4" d="M397.1,392.6c-0.7,0-1.3-0.1-2-0.4s-1.2-0.6-1.6-1.1c-0.5-0.5-0.9-1.1-1.1-1.8c-0.3-0.7-0.4-1.6-0.4-2.5
				c0-0.9,0.1-1.8,0.4-2.5s0.7-1.3,1.1-1.9c0.5-0.5,1-0.9,1.6-1.2c0.6-0.3,1.3-0.4,2-0.4c0.7,0,1.3,0.1,2,0.4
				c0.6,0.3,1.2,0.6,1.6,1.2c0.5,0.5,0.9,1.1,1.1,1.9s0.4,1.6,0.4,2.5c0,0.9-0.1,1.7-0.4,2.5c-0.3,0.7-0.7,1.3-1.1,1.8
				c-0.5,0.5-1,0.9-1.6,1.1C398.4,392.4,397.8,392.6,397.1,392.6z M397.1,391c0.5,0,0.9-0.1,1.3-0.3s0.7-0.5,1-0.9
				c0.3-0.4,0.5-0.8,0.7-1.3c0.2-0.5,0.2-1.1,0.2-1.7c0-0.6-0.1-1.2-0.2-1.8c-0.2-0.5-0.4-1-0.7-1.4c-0.3-0.4-0.6-0.7-1-0.9
				s-0.8-0.3-1.3-0.3c-0.5,0-0.9,0.1-1.3,0.3c-0.4,0.2-0.7,0.5-1,0.9c-0.3,0.4-0.5,0.8-0.7,1.4c-0.2,0.5-0.2,1.1-0.2,1.8
				c0,0.6,0.1,1.2,0.2,1.7c0.2,0.5,0.4,1,0.7,1.3c0.3,0.4,0.6,0.7,1,0.9C396.1,390.9,396.6,391,397.1,391z"/>
			<path class="st4" d="M412.7,392.6c-0.8,0-1.6-0.1-2.3-0.4s-1.3-0.7-1.9-1.1l0.9-1.3c0.5,0.4,1,0.7,1.5,1c0.5,0.2,1.1,0.4,1.8,0.4
				c0.7,0,1.3-0.2,1.7-0.5c0.4-0.3,0.6-0.8,0.6-1.2c0-0.3-0.1-0.5-0.2-0.8c-0.2-0.2-0.3-0.4-0.6-0.6c-0.2-0.2-0.5-0.3-0.8-0.4
				c-0.3-0.1-0.6-0.2-0.9-0.4c-0.4-0.1-0.8-0.3-1.2-0.5c-0.4-0.2-0.8-0.4-1.1-0.6s-0.6-0.5-0.8-0.9c-0.2-0.3-0.3-0.7-0.3-1.2
				c0-0.4,0.1-0.9,0.3-1.3c0.2-0.4,0.4-0.7,0.8-1c0.3-0.3,0.7-0.5,1.2-0.7c0.5-0.2,1-0.2,1.6-0.2c0.7,0,1.4,0.1,1.9,0.4
				s1.1,0.5,1.5,0.9l-0.9,1.2c-0.4-0.3-0.8-0.5-1.2-0.7s-0.9-0.3-1.4-0.3c-0.7,0-1.2,0.2-1.6,0.5c-0.3,0.3-0.5,0.7-0.5,1.1
				c0,0.3,0.1,0.5,0.2,0.7c0.1,0.2,0.3,0.4,0.6,0.5c0.2,0.1,0.5,0.3,0.8,0.4c0.3,0.1,0.6,0.2,0.9,0.4c0.4,0.2,0.8,0.3,1.2,0.5
				c0.4,0.2,0.8,0.4,1.1,0.6s0.6,0.6,0.8,0.9c0.2,0.4,0.3,0.8,0.3,1.3c0,0.5-0.1,0.9-0.3,1.3c-0.2,0.4-0.4,0.8-0.8,1.1
				s-0.8,0.5-1.3,0.7C413.9,392.5,413.4,392.6,412.7,392.6z"/>
			<path class="st4" d="M419.4,392.3v-16.4h1.9v4.5l-0.1,2.3c0.5-0.5,1.1-0.9,1.7-1.3s1.3-0.5,2-0.5c1.2,0,2,0.4,2.6,1.1
				c0.5,0.7,0.8,1.8,0.8,3.3v7.1h-1.9v-6.8c0-1.1-0.2-1.8-0.5-2.3c-0.3-0.5-0.9-0.7-1.6-0.7c-0.6,0-1.1,0.1-1.5,0.4s-1,0.7-1.5,1.3
				v8.1H419.4z"/>
			<path class="st4" d="M436.3,392.6c-0.7,0-1.3-0.1-2-0.4s-1.2-0.6-1.6-1.1c-0.5-0.5-0.9-1.1-1.1-1.8c-0.3-0.7-0.4-1.6-0.4-2.5
				c0-0.9,0.1-1.8,0.4-2.5s0.7-1.3,1.1-1.9s1-0.9,1.6-1.2c0.6-0.3,1.3-0.4,2-0.4c0.7,0,1.3,0.1,2,0.4c0.6,0.3,1.2,0.6,1.6,1.2
				c0.5,0.5,0.9,1.1,1.1,1.9s0.4,1.6,0.4,2.5c0,0.9-0.1,1.7-0.4,2.5c-0.3,0.7-0.7,1.3-1.1,1.8c-0.5,0.5-1,0.9-1.6,1.1
				S437,392.6,436.3,392.6z M436.3,391c0.5,0,0.9-0.1,1.3-0.3c0.4-0.2,0.7-0.5,1-0.9c0.3-0.4,0.5-0.8,0.7-1.3
				c0.2-0.5,0.2-1.1,0.2-1.7c0-0.6-0.1-1.2-0.2-1.8c-0.2-0.5-0.4-1-0.7-1.4c-0.3-0.4-0.6-0.7-1-0.9c-0.4-0.2-0.8-0.3-1.3-0.3
				c-0.5,0-0.9,0.1-1.3,0.3s-0.7,0.5-1,0.9c-0.3,0.4-0.5,0.8-0.7,1.4c-0.2,0.5-0.2,1.1-0.2,1.8c0,0.6,0.1,1.2,0.2,1.7
				c0.2,0.5,0.4,1,0.7,1.3c0.3,0.4,0.6,0.7,1,0.9S435.8,391,436.3,391z"/>
			<path class="st4" d="M444.4,397v-15.9h1.6l0.2,1.3h0.1c0.5-0.4,1.1-0.8,1.7-1.1c0.6-0.3,1.2-0.5,1.9-0.5c0.7,0,1.4,0.1,1.9,0.4
				c0.6,0.3,1,0.7,1.4,1.2c0.4,0.5,0.6,1.1,0.8,1.8c0.2,0.7,0.3,1.5,0.3,2.4c0,1-0.1,1.8-0.4,2.5c-0.3,0.7-0.6,1.4-1.1,1.9
				s-1,0.9-1.5,1.2c-0.6,0.3-1.2,0.4-1.8,0.4c-0.5,0-1-0.1-1.6-0.3c-0.5-0.2-1-0.5-1.6-0.9l0,2v3.8H444.4z M449,391
				c0.5,0,0.9-0.1,1.3-0.3c0.4-0.2,0.7-0.5,1-0.9c0.3-0.4,0.5-0.8,0.7-1.4c0.2-0.6,0.2-1.2,0.2-1.9c0-0.6-0.1-1.2-0.2-1.7
				c-0.1-0.5-0.3-0.9-0.5-1.3s-0.5-0.6-0.9-0.8c-0.4-0.2-0.8-0.3-1.3-0.3c-0.5,0-1,0.1-1.4,0.4c-0.5,0.3-1,0.6-1.6,1.1v5.9
				c0.5,0.4,1,0.7,1.5,0.9C448.2,390.9,448.7,391,449,391z"/>
			<path class="st4" d="M457.9,392.6c-0.4,0-0.7-0.1-1-0.4c-0.3-0.3-0.4-0.6-0.4-1c0-0.4,0.1-0.8,0.4-1.1c0.3-0.3,0.6-0.4,1-0.4
				c0.4,0,0.7,0.1,1,0.4c0.3,0.3,0.4,0.6,0.4,1.1c0,0.4-0.1,0.8-0.4,1C458.6,392.4,458.3,392.6,457.9,392.6z"/>
		</g>
		<g id="hierarchy" transform="translate(99.24 88.453)">
			<path id="Path_2242" class="st5" d="M40.7,72.6v14h-8.8c-4.3-0.1-8.5-0.5-12.8-1.2c-5.4-0.8-10.7-2-12.4-3.5
				C-1.3,75-2.2,63,4.6,55c6.8-8,18.9-8.9,26.9-2.1c4.2,3.6,6.7,8.9,6.7,14.4L40.7,72.6z"/>
			<path id="Path_2243" class="st6" d="M40.7,72.6v14h-8.8c-4.3-0.1-8.5-0.5-12.8-1.2v-37c10.5,0,19,8.5,19,19L40.7,72.6z"/>
			<g id="Group_1823" transform="translate(11.575 55.934)">
				<circle id="Ellipse_92" class="st7" cx="7.6" cy="7.6" r="7.6"/>
			</g>
			<path id="Path_2244" class="st8" d="M26.8,63.5c0-4.2-3.4-7.6-7.6-7.6v15.2C23.4,71.1,26.8,67.7,26.8,63.5z"/>
			<path id="Path_2245" class="st5" d="M40.7,24.2v14h-8.8c-4.3-0.1-8.5-0.5-12.8-1.2c-5.4-0.8-10.7-2-12.4-3.5
				C2.5,29.9,0,24.6,0,19C0.2,8.5,9,0.1,19.5,0.3C29.7,0.6,38,8.8,38.2,19L40.7,24.2z"/>
			<path id="Path_2246" class="st6" d="M40.7,24.2v14h-8.8c-4.3-0.1-8.5-0.5-12.8-1.2V0c10.5,0,19,8.5,19,19l0,0L40.7,24.2z"/>
			<g id="Group_1824" transform="translate(11.575 7.604)">
				<circle id="Ellipse_93" class="st7" cx="7.6" cy="7.6" r="7.6"/>
			</g>
			<path id="Path_2247" class="st8" d="M26.8,15.2c0-4.2-3.4-7.6-7.6-7.6v15.2C23.4,22.8,26.8,19.4,26.8,15.2z"/>
			<g id="Group_1825" transform="translate(6.737 22.813)">
				<path id="Path_2248" class="st9" d="M12.5,0C6.3,0,1,4.6,0,10.7c3.5,3,7.9,4.6,12.4,4.6h12.8v-2.7C25.2,5.7,19.5,0,12.5,0z"/>
			</g>
			<path id="Path_2249" class="st10" d="M31.9,35.5c0-7-5.7-12.7-12.7-12.7h-0.1v15.4h12.8V35.5z"/>
			<path id="Path_2250" class="st5" d="M86.5,47.1c0,5.6-2.5,10.9-6.7,14.5c-1.7,1.5-7,2.7-12.4,3.5c-4.2,0.7-8.5,1-12.8,1.2h-8.8
				v-14l2.5-5.2c0.2-10.5,9-18.9,19.5-18.7C78.1,28.6,86.3,36.8,86.5,47.1L86.5,47.1z"/>
			<path id="Path_2251" class="st6" d="M86.5,47.1c0,5.6-2.5,10.9-6.7,14.5c-1.7,1.5-7,2.7-12.4,3.5v-37
				C77.9,28,86.4,36.5,86.5,47.1z"/>
			<g id="Group_1826" transform="translate(59.736 35.656)">
				<circle id="Ellipse_94" class="st7" cx="7.6" cy="7.6" r="7.6"/>
			</g>
			<path id="Path_2252" class="st8" d="M74.9,43.3c0-4.2-3.4-7.6-7.6-7.6v15.2C71.5,50.9,74.9,47.5,74.9,43.3z"/>
			<g id="Group_1827" transform="translate(54.582 50.865)">
				<path id="Path_2253" class="st11" d="M0,12.7v2.7h12.8c4.6,0,9-1.7,12.4-4.6C24.1,3.8,17.6-0.9,10.7,0.1C4.6,1.1,0,6.4,0,12.7
					L0,12.7z"/>
			</g>
			<path id="Path_2254" class="st12" d="M67.3,50.9v15.4c4.6,0,9-1.7,12.4-4.6C78.8,55.5,73.6,50.9,67.3,50.9z"/>
			<path id="Path_2255" class="st13" d="M38.2,0h10.1v86.5H38.2V0z"/>
			<path id="Path_2256" class="st14" d="M43.3,0h5.1v86.5h-5.1V0z"/>
			<path id="Path_2257" class="st11" d="M19.3,71.1c-6.3,0-11.6,4.6-12.5,10.7c3.5,3,7.9,4.6,12.4,4.6h12.8v-2.7
				C31.9,76.8,26.3,71.1,19.3,71.1z"/>
			<path id="Path_2258" class="st12" d="M31.9,83.8c0-7-5.7-12.7-12.7-12.7h-0.1v15.4h12.8V83.8z"/>
		</g>
	</g>
</g>
</svg>
