<?xml version="1.0" encoding="utf-8"?>
<!-- Generator: Adobe Illustrator 23.0.5, SVG Export Plug-In . SVG Version: 6.00 Build 0)  -->
<svg version="1.1" id="_x3C_Layer_x3E_" xmlns="http://www.w3.org/2000/svg" xmlns:xlink="http://www.w3.org/1999/xlink" x="0px"
	 y="0px" viewBox="0 0 500 370" style="enable-background:new 0 0 500 370;" xml:space="preserve">
<style type="text/css">
	.st0{fill:#44474F;}
	.st1{opacity:0.6;}
	.st2{fill:#FFFFFF;}
	.st3{fill:#C97E67;}
	.st4{fill:#33353B;}
	.st5{fill:#436E8E;}
	.st6{fill:#F9698C;}
	.st7{fill:#DB6B49;}
	.st8{opacity:0.3;}
	.st9{fill:#FFF2E2;}
	.st10{fill:#33CC99;}
	.st11{fill:#E9E2D8;}
	.st12{fill:#F4925D;}
	.st13{fill:#FFD7AB;}
	.st14{opacity:0.5;}
	.st15{fill:#B2604D;}
	.st16{fill:#FF929F;}
</style>
<g>
	<g>
		<g>
			<g>
				<g>
					<path class="st0" d="M63.19,258.27c15.8-14.84,18.39-26.4,18.49-26.89l-1.55-0.33c-0.02,0.11-2.63,11.6-18.02,26.06
						L63.19,258.27z"/>
				</g>
			</g>
		</g>
	</g>
	<g class="st1">
		<path class="st2" d="M109.72,20.41c0,0-3.79-7.29-13.38-6.37c-9.59,0.91-8.45,8.22-13.01,7.53c-4.57-0.68-10.96,0-12.33,4.57
			c-1.37,4.57-7.53,2.05-7.76,5.94c-0.23,3.88,7.08,6.62,15.52,3.2c8.45-3.42,12.56,2.66,24.43,1.56
			c11.87-1.1,13.34-2.47,20.37-1.79c7.03,0.68,6.86-4.13,3.66-7.32C124.02,24.52,111.09,24.82,109.72,20.41z"/>
	</g>
	<g class="st1">
		<path class="st2" d="M383.37,24.87c0,0-4.85-9.33-17.12-8.16c-12.27,1.17-10.81,10.52-16.65,9.64c-5.84-0.88-14.02,0-15.77,5.84
			c-1.75,5.84-9.64,2.63-9.93,7.6c-0.29,4.97,9.06,8.47,19.86,4.09s16.07,3.4,31.26,1.99c15.19-1.41,17.07-3.16,26.06-2.29
			c8.99,0.88,8.78-5.28,4.69-9.37C401.68,30.13,385.12,30.52,383.37,24.87z"/>
	</g>
	<g class="st1">
		<path class="st2" d="M166.28,60.86c0,0-2.6-5.01-9.19-4.38c-6.59,0.63-5.8,5.65-8.94,5.18c-3.14-0.47-7.53,0-8.47,3.14
			c-0.94,3.14-5.18,1.41-5.33,4.08c-0.16,2.67,4.86,4.55,10.67,2.2c5.8-2.35,8.63,1.83,16.78,1.07c8.16-0.76,9.17-1.7,13.99-1.23
			c4.83,0.47,4.71-2.83,2.52-5.03C176.11,63.68,167.23,63.89,166.28,60.86z"/>
	</g>
	<g>
		<g>
			<g>
				<path class="st3" d="M288.87,70.89L288.87,70.89c-0.71,0.51-1.71,0.35-2.22-0.36l-7.92-11.03c-0.51-0.71-0.35-1.71,0.36-2.22
					l0,0c0.71-0.51,1.71-0.35,2.22,0.36l7.92,11.03C289.74,69.38,289.58,70.38,288.87,70.89z"/>
			</g>
			<g>
				<path class="st3" d="M292.17,68.52L292.17,68.52c-0.71,0.51-1.71,0.35-2.22-0.36l-8.86-12.34c-0.51-0.71-0.35-1.71,0.36-2.22v0
					c0.71-0.51,1.71-0.35,2.22,0.36l8.86,12.34C293.05,67.01,292.89,68.01,292.17,68.52z"/>
			</g>
			<g>
				<path class="st3" d="M297.68,74.3l-0.57-0.03c-1.06-0.05-1.88-0.96-1.83-2.02l0.51-10.3c0.05-1.06,0.96-1.88,2.02-1.83
					l0.57,0.03c1.06,0.05,1.88,0.96,1.83,2.02l-0.51,10.3C299.64,73.53,298.73,74.35,297.68,74.3z"/>
			</g>
			<g>
				<path class="st3" d="M295.48,66.14L295.48,66.14c-0.71,0.51-1.71,0.35-2.22-0.36l-7.1-9.89c-0.51-0.71-0.35-1.71,0.36-2.22l0,0
					c0.71-0.51,1.71-0.35,2.22,0.36l7.1,9.89C296.36,64.63,296.19,65.63,295.48,66.14z"/>
			</g>
			<g>
				<path class="st3" d="M291.13,78.79c0,0-8.32-3.68-9.9-9.95c-0.55-2.17,9.38-8.89,11.59-7.71c2.21,1.19,6.35,8.34,6.35,8.34
					L291.13,78.79z"/>
			</g>
			<g>
				<path class="st3" d="M285.59,73.26L285.59,73.26c-0.71,0.51-1.71,0.35-2.22-0.36l-7.09-9.87c-0.51-0.71-0.35-1.71,0.36-2.22l0,0
					c0.71-0.51,1.71-0.35,2.22,0.36l7.09,9.87C286.46,71.76,286.3,72.75,285.59,73.26z"/>
			</g>
		</g>
		<g>
			<g>
				<path class="st3" d="M300.02,66.94c13.85,11.09,34.62,25.95,54.89,33.75c4.7,1.81,6.52,2.43,9.4,3.08
					c2.32,0.53,4.02,5.21,3.16,9.19c-0.81,3.73-4.07,6.44-6.97,6.33c-2.17-0.08-4.35-0.67-9.61-2.6
					c-18.3-6.7-38.17-19.27-60.9-38.48L300.02,66.94z"/>
			</g>
		</g>
		<g>
			<path class="st4" d="M343.68,306.94c0,0-1.11,5.01-4.79,5.76c-3.68,0.75-13.8,0.1-10.74,4.06c1.75,2.27,11.95,3.02,14.77,3.57
				c2.81,0.55,5.22,2.29,7.67,0.82c2.71-1.62,2.42-12.38,2.42-12.38s-2.68,0.79-4.85,0.31
				C345.03,308.38,343.68,306.94,343.68,306.94z"/>
		</g>
		<g>
			<path class="st4" d="M382.77,314.6c0,0-1.11,5.01-4.79,5.76c-3.68,0.75-13.79,0.1-10.74,4.06c1.75,2.27,11.95,3.02,14.77,3.57
				c2.81,0.55,5.22,2.29,7.68,0.82c2.71-1.62,2.42-12.38,2.42-12.38s-2.68,0.79-4.85,0.31C384.12,316.03,382.77,314.6,382.77,314.6z
				"/>
		</g>
		<g>
			<path class="st5" d="M345.37,164.09c0,0-4.75,20.93-5.94,62.64c-0.86,30.11-0.88,60.62-0.83,75.26
				c0.02,5.24,3.54,9.75,8.52,10.94l2.68,0.64c5.39,1.28,10.71-2.52,11.4-8.15l11.84-96.65l4.46-31.7L345.37,164.09z"/>
		</g>
		<g>
			<path class="st4" d="M401.23,191.65c-0.5,2.58-15.21,1.19-33.07-2.41c-17.87-3.6-31.93-7.19-31.42-9.77
				c0.51-2.58,15.39-3.17,33.25,0.43C387.85,183.49,401.74,189.07,401.23,191.65z"/>
		</g>
		<g>
			<path class="st5" d="M355.91,184.77l20.95,127.44c0.59,5.4,4.49,9.79,9.7,10.9l2.27,0.48c5.36,1.14,10.44-3.02,10.52-8.62
				l0-122.25c-0.04-1.42-4.7-2.98-6.04-3.36C382.22,186.23,356.2,179.6,355.91,184.77z"/>
		</g>
		<g>
			<path class="st6" d="M398.72,119.89c0,0-4.41-14.69-22.72-14.94c-8.65-0.12-18.09,0.94-23.13,15.92
				c-4.53,13.45-12.99,31.47-16.14,58.6c0,0,30.25-5.08,64.54,11.97c0,0,6.33-39.49,4.2-63.08
				C404.87,121.71,400.26,124.59,398.72,119.89z"/>
		</g>
		<g>
			<path class="st6" d="M414.7,114.78l-16.46,12.52c0,0-43.19,3.6-45.86-4.99c-3.94-12.68,4.84-22.6,4.84-22.6
				s15.01,3.51,22.35,5.07c2.66,0.57,9.09,1.24,11.74,1.66C409.74,109.43,414.7,114.78,414.7,114.78z"/>
		</g>
		<g>
			<path class="st4" d="M367.31,256.08l0.65-0.02l-1.52-41.65c-0.76-6.12-3.7-11.65-8.27-15.6l-0.42,0.49
				c4.45,3.85,7.31,9.24,8.05,15.16L367.31,256.08z"/>
		</g>
		<g>
			<g>
				<path class="st4" d="M372.44,99.82l0.08-0.2c-0.02-0.01-2.22-0.97-2.6-2.65c-0.19-0.87,0.13-1.79,0.97-2.74
					c0.39-0.45,0.76-0.85,1.09-1.22c2.29-2.54,3.14-3.49,3.06-5.91l-0.21,0.01c0.08,2.33-0.7,3.2-3.01,5.76
					c-0.33,0.37-0.7,0.77-1.09,1.22c-0.89,1-1.23,1.99-1.02,2.93C370.12,98.81,372.34,99.78,372.44,99.82z"/>
			</g>
			<g>
				<path class="st4" d="M374.94,87.11c0,0,0.17,3.75-2.89,7.12c-3.06,3.36-0.93,6.58,2.56,5.7c3.5-0.89,4.01,3.46,8.56,1.9
					C387.72,100.27,374.94,87.11,374.94,87.11z"/>
			</g>
			<g>
				<path class="st3" d="M391.31,106.44c-1.76-0.51-3.12-1.9-3.54-3.68l-1.33-5.58l-0.38-1.62l-2.26-9.52l-0.94,9.29l-0.57,5.58
					l-0.16,1.59c-0.13,1.3-1.22,2.27-2.53,2.28l-0.02,0c-0.87,0.98-2.2,3.06,0.44,4.44c3.11,1.62,8.88-0.04,11.32-2.77
					C391.33,106.45,391.32,106.45,391.31,106.44z"/>
			</g>
			<g>
				<path class="st4" d="M386.48,97.03c-0.01,0.05-0.02,0.1-0.04,0.15c-0.74,2.92-4.14,3.75-4.14,3.75l-0.02-0.02l0.57-5.58
					c1.03-0.19,2.47-0.31,3.21,0.23C386.44,95.85,386.64,96.31,386.48,97.03z"/>
			</g>
			<g>
				<path class="st3" d="M374.51,85.93c1.03-5.87,5.72-9.96,10.48-9.13c4.76,0.83,7.79,6.27,6.76,12.14
					c-1.03,5.87-5.72,9.96-10.48,9.13C376.5,97.24,373.48,91.81,374.51,85.93z"/>
			</g>
			<g>
				<path class="st3" d="M390.31,90.35c-1.14,0.76-2.52,0.62-3.09-0.32c-0.57-0.94-0.1-2.32,1.04-3.08
					c1.14-0.76,2.52-0.62,3.09,0.32C391.91,88.21,391.45,89.59,390.31,90.35z"/>
			</g>
			<g>
				<path class="st7" d="M377.28,93.51c0,0,2.93,0.58,6.06,0.06c0,0-0.26,2.94-3.49,2.58C377.98,95.94,377.28,93.51,377.28,93.51z"
					/>
			</g>
			<g>
				<path class="st2" d="M377.28,93.51c0,0,0.61,0.72,2.27,1c1.66,0.28,3.78-0.94,3.78-0.94S379.62,93.93,377.28,93.51z"/>
			</g>
			<g>
				<g>
					<path class="st4" d="M382.27,87.4c-0.05-0.03-0.1-0.08-0.11-0.14c-0.02-0.11,0.05-0.21,0.15-0.24c0.06-0.01,1.5-0.46,2.44,1.01
						c0.06,0.09,0.04,0.22-0.06,0.28c-0.09,0.06-0.2,0.02-0.28-0.06c-0.79-0.76-1.97-0.85-2.02-0.84
						C382.35,87.42,382.31,87.42,382.27,87.4z"/>
				</g>
			</g>
			<g>
				<path class="st4" d="M383.45,89.82c-0.07,0.47-0.4,0.81-0.74,0.76c-0.34-0.05-0.56-0.47-0.5-0.94c0.07-0.47,0.4-0.81,0.74-0.76
					C383.29,88.93,383.51,89.35,383.45,89.82z"/>
			</g>
			<g>
				<g>
					<path class="st4" d="M375.1,87.2c-0.06,0-0.12-0.03-0.16-0.09c-0.06-0.09-0.04-0.21,0.05-0.28c0.05-0.04,1.21-1,2.64,0
						c0.09,0.06,0.12,0.19,0.05,0.28c-0.06,0.09-0.17,0.09-0.28,0.05c-1.03-0.4-2.15-0.04-2.19-0.01
						C375.18,87.19,375.14,87.2,375.1,87.2z"/>
				</g>
			</g>
			<g>
				<path class="st4" d="M377.11,88.99c0.12,0.46-0.06,0.9-0.39,0.99c-0.33,0.08-0.7-0.22-0.82-0.68c-0.12-0.46,0.06-0.9,0.39-0.99
					C376.62,88.23,376.99,88.53,377.11,88.99z"/>
			</g>
			<g>
				<path class="st4" d="M380.99,78.1c0,0-0.46,3.72,4.04,5.16c4.5,1.43,7.33,3.94,6.13,7.15c-1.2,3.21-9.83,8.8-4.84,12.42
					c4.99,3.62,4.7-1.55,10.42,0.63c5.72,2.19,8.16-5.53,4.89-10.83c-3.27-5.3,0.5-17.14-14.87-19.28
					c-15.37-2.14-11.91,11.03-11.91,11.03S380.28,82.17,380.99,78.1z"/>
			</g>
			<g>
				<g>
					<path class="st0" d="M373.59,93.94c-1.21-0.7-2.1-2.33-2.37-4.36c-0.45-3.3,0.86-6.65,2.91-7.48c0.77-0.32,1.55-0.25,2.28,0.17
						c1.21,0.7,2.1,2.33,2.37,4.35l0,0c0.45,3.29-0.86,6.65-2.91,7.48c-0.46,0.19-0.93,0.24-1.39,0.16
						C374.17,94.22,373.87,94.11,373.59,93.94z M378.39,86.69c-0.26-1.91-1.07-3.43-2.18-4.07c-0.63-0.36-1.29-0.41-1.94-0.15
						c-1.9,0.76-3.1,3.94-2.67,7.07c0.26,1.9,1.07,3.43,2.18,4.07c0.62,0.35,1.29,0.41,1.93,0.15
						C377.62,92.99,378.82,89.81,378.39,86.69L378.39,86.69z"/>
				</g>
			</g>
			<g class="st8">
				<path class="st2" d="M389.1,86.35c0.16,3.16-1.52,6.22-3.74,6.85c-2.23,0.63-4.16-1.43-4.32-4.58
					c-0.16-3.16,1.51-6.22,3.74-6.85C387.01,81.14,388.94,83.19,389.1,86.35z"/>
			</g>
			<g class="st8">
				<path class="st2" d="M378.82,86.9c0.16,3.17-1.34,6.32-3.35,7.03c-2.01,0.71-3.77-1.29-3.93-4.46
					c-0.16-3.17,1.34-6.32,3.35-7.03C376.89,81.73,378.66,83.73,378.82,86.9z"/>
			</g>
			<g>
				<g>
					<path class="st0" d="M382.49,92.73c-1.21-0.87-1.97-2.5-2.08-4.47c-0.19-3.37,1.65-6.66,4.1-7.33
						c0.99-0.27,1.95-0.09,2.79,0.51c1.21,0.87,1.96,2.5,2.07,4.46l0,0c0.19,3.38-1.65,6.67-4.1,7.33
						c-0.49,0.14-0.97,0.16-1.43,0.08C383.37,93.24,382.91,93.04,382.49,92.73z M384.61,81.31c-2.28,0.62-3.99,3.73-3.82,6.94
						c0.1,1.82,0.82,3.39,1.92,4.18c0.74,0.52,1.59,0.67,2.46,0.45c2.28-0.62,3.99-3.73,3.82-6.94l0,0
						c-0.1-1.82-0.81-3.38-1.91-4.17c-0.38-0.27-0.78-0.45-1.21-0.52C385.47,81.17,385.04,81.19,384.61,81.31z"/>
				</g>
			</g>
			<g>
				<g>
					<path class="st0" d="M378.21,87.96c0.08,0.01,0.17,0,0.24-0.04l0,0c0.04-0.03,1.1-0.59,2.65,0c0.18,0.06,0.4-0.02,0.47-0.21
						c0.07-0.19-0.02-0.4-0.21-0.46c-1.86-0.74-3.21,0.01-3.27,0.04c-0.17,0.1-0.23,0.33-0.13,0.5
						C378.01,87.89,378.11,87.95,378.21,87.96z"/>
				</g>
			</g>
		</g>
		<g>
			<path class="st4" d="M414.78,114.9c1.15,1.65-1.04,5.26-6.74,9c-5.7,3.74-8.43,6.76-10.84,4.73c-1.97-1.66-0.7-8.08,6.94-12.32
				C408.51,113.87,413.96,113.72,414.78,114.9z"/>
		</g>
		<g>
			<path class="st5" d="M392.66,189.19c0,0-23.41-8.74-48.09-8.16c-1.13,0.03-2.07,0.89-2.18,2.02l-0.89,9l25.97-1.32L392.66,189.19
				z"/>
		</g>
		<g>
			<g>
				<path class="st3" d="M364.95,181.55l-3.02-5.67c-0.33-1.7,3.96-7.35,5.69-7.18c12.65,1.27,23.98-3.41,30.66-12.69
					c4.74-6.58,3.78-20.66,1.24-27.45c-1.3-3.48,4.03-11.86,11.22-13.49c1.85-0.42,3.75-0.23,4.55,1.5c1.25,2.7,3,6.93,4.39,12.03
					c3.29,12.12,2.83,23.25-1.34,32.2c-5.11,10.98-26.11,25.24-50.93,28.11C365.55,189.13,365.31,183.39,364.95,181.55z"/>
			</g>
		</g>
	</g>
	<g>
		<g>
			<g>
				<path class="st3" d="M259.86,151.61c4.74-6.58,3.78-20.66,1.24-27.45c-1.3-3.48,6.96-17.81,8.57-16.81
					c10.31,6.37,15.37,18.6,17.75,23.32c6.85,13.6,10.75,28.53,6.59,37.47C288.9,179.12,253.18,160.88,259.86,151.61z"/>
			</g>
		</g>
		<g>
			<path class="st4" d="M245.38,318.56c0,0,0.13,5.09,3.57,6.53c3.44,1.44,13.43,2.73,9.7,6c-2.14,1.88-12.23,0.66-15.07,0.66
				c-2.85,0-5.52,1.24-7.64-0.66c-2.33-2.1,0-12.53,0-12.53s2.46,1.28,4.67,1.22C243.79,319.7,245.38,318.56,245.38,318.56z"/>
		</g>
		<g>
			<path class="st0" d="M275.1,164.93c0,0,0.69,22.97-6.64,67.05c-5.29,31.82-11.54,63.88-14.61,79.25c-1.1,5.5-5.72,9.52-11.2,9.74
				l-2.95,0.12c-5.93,0.24-10.74-4.85-10.3-10.9l7.44-103.99l1.83-34.23L275.1,164.93z"/>
		</g>
		<g>
			<path class="st4" d="M212.76,318.56c0,0,0.13,5.09,3.57,6.53c3.44,1.44,13.43,2.73,9.7,6c-2.14,1.88-12.23,0.66-15.07,0.66
				c-2.85,0-5.52,1.24-7.64-0.66c-2.33-2.1,0-12.53,0-12.53s2.46,1.28,4.67,1.22C211.17,319.7,212.76,318.56,212.76,318.56z"/>
		</g>
		<g>
			<path class="st0" d="M242.48,164.93c0,0,0.69,22.97-6.64,67.05c-5.29,31.82-11.54,63.88-14.61,79.25
				c-1.1,5.5-5.72,9.52-11.2,9.74l-2.95,0.12c-5.93,0.24-10.74-4.85-10.3-10.9l7.44-103.99l1.83-34.23L242.48,164.93z"/>
		</g>
		<g>
			<path class="st4" d="M202.44,190.1c0.07,2.77,16.83,3.87,37.56,3.23c20.73-0.65,37.3-3.51,37.23-6.29
				c-0.07-2.77-16.75-4.4-37.48-3.75C219.02,183.94,202.37,187.33,202.44,190.1z"/>
		</g>
		<g>
			<path class="st9" d="M207.52,111.63c0,0,3.67-14.53,30.71-14.68c39-0.21,35.39,35.63,39,90.09c0,0-38.42-5.43-74.81,2.38
				C202.42,189.42,199.05,133.83,207.52,111.63z"/>
		</g>
		<g>
			<path class="st9" d="M197.53,109.55l17.67,9.77c0,0,38.68,3.51,48.95,1.82c10.27-1.69,13.08-9.23,13.08-9.23
				s-10.94-11.32-29.52-14.34c-1.75-0.29-3.56-0.5-5.44-0.62c-3.15-0.2-6.31-0.16-9.4,0.19C209.32,99.8,197.53,109.55,197.53,109.55
				z"/>
		</g>
		<g>
			<path class="st3" d="M234.01,93.91l1.91-6.15l0.55-1.79l3.26-10.53l0.43,10.47l0.26,6.29l0.08,1.99
				c0.05,1.35,0.88,1.63,1.88,2.81c0.41,0.48,3,3.36,0.06,4.66c-3.67,1.62-10.54-0.83-13.15-4.05
				C229.31,97.6,233.39,95.9,234.01,93.91z"/>
		</g>
		<g>
			<path class="st0" d="M273.97,189.29c0,0-22.46-6.61-68.98,2.46l-0.36,6.69l68.19,2.41L273.97,189.29z"/>
		</g>
		<g>
			<path class="st4" d="M258.7,187.21c0,0-9.94-0.25-13.78,7.91c0,0,2.15-8.14-2.04-8.01c-1.73,0.05,1.73-1.11,1.73-1.11
				L258.7,187.21z"/>
		</g>
		<g>
			<path class="st4" d="M197.17,109.95c-1.49,2.12,1.65,6.99,7,10.86c5.36,3.87,10.91,5.29,12.4,3.17
				c1.49-2.12-1.65-6.99-7.01-10.86C204.21,109.25,198.66,107.83,197.17,109.95z"/>
		</g>
		<g>
			<g>
				<path class="st4" d="M248.12,71.49c0,0,0.66,2.55,0,5.74c-0.67,3.19-3.91-4.66-3.91-4.66L248.12,71.49z"/>
			</g>
			<g>
				
					<ellipse transform="matrix(0.9915 -0.1302 0.1302 0.9915 -8.2954 31.8122)" class="st3" cx="239.23" cy="79.37" rx="9.36" ry="11.28"/>
			</g>
			<g>
				<path class="st4" d="M229.73,77.36l4.53-0.47c1-0.1,1.91-0.64,2.45-1.48c0.93-1.45,2.04-2.2,6.27-2.04
					c5.35,0.2,8.88-2.99,9.46-5.79c0.59-2.86-2.15-4.79-4.83-3.43c-2.69,1.36-1.53-1.98-4.12-2.33c-4.83-0.66-5.73,3.06-9.68,2.94
					c-5.18-0.16-14.47,3.78-10.06,12.9L229.73,77.36z"/>
			</g>
			<g>
				<g>
					<path class="st4" d="M239.73,78.9c0.05-0.03,0.08-0.08,0.09-0.14c0.01-0.1-0.07-0.2-0.17-0.2c-0.06-0.01-1.47-0.26-2.19,1.24
						c-0.04,0.09-0.01,0.21,0.09,0.25c0.09,0.05,0.19,0,0.25-0.08c0.66-0.82,1.76-1.04,1.81-1.04
						C239.65,78.93,239.69,78.92,239.73,78.9z"/>
				</g>
			</g>
			<g>
				<path class="st4" d="M238.9,81.33c0.12,0.44,0.47,0.72,0.79,0.63c0.32-0.09,0.48-0.51,0.36-0.95c-0.12-0.44-0.47-0.72-0.79-0.63
					C238.95,80.47,238.79,80.89,238.9,81.33z"/>
			</g>
			<g>
				<g>
					<path class="st4" d="M246.74,78.34c0.04-0.01,0.08-0.04,0.1-0.09c0.03-0.09,0-0.2-0.07-0.26c-0.04-0.03-1.02-0.84-1.93,0.22
						c-0.06,0.07-0.06,0.18,0,0.27c0.06,0.08,0.14,0.07,0.21,0.03c0.7-0.46,1.57-0.21,1.61-0.18
						C246.68,78.33,246.71,78.34,246.74,78.34z"/>
				</g>
			</g>
			<g>
				<path class="st4" d="M245.01,80.28c-0.06,0.45,0.16,0.85,0.49,0.89c0.33,0.04,0.64-0.29,0.69-0.74
					c0.06-0.45-0.16-0.85-0.49-0.89C245.38,79.5,245.07,79.83,245.01,80.28z"/>
			</g>
			<g>
				<path class="st4" d="M223.73,77.66c0,0,3.13,6.75,7.56,7.24c0,0-3.59-5.14,3.97-8.28C235.26,76.63,228.32,75.53,223.73,77.66z"
					/>
			</g>
			<g>
				<path class="st3" d="M229.98,81.38c0.95,0.6,2.15,0.41,2.69-0.44c0.54-0.85,0.21-2.02-0.74-2.63c-0.95-0.6-2.15-0.41-2.69,0.44
					C228.7,79.6,229.03,80.78,229.98,81.38z"/>
			</g>
			<g>
				<path class="st4" d="M235.26,76.63c0,0-0.61,5.66,0.55,6.73c1.15,1.07,8.76,1.53,12.32,0.16l0,0c0.06,3.64-2.5,6.85-6.09,7.45
					c-1.19,0.2-2.41,0.2-3.63-0.01l0,0c-2.49-0.43-4.9-1.46-5.93-3.77c-0.31-0.7,0.6-5.02,0.6-5.02s0.34-2.53-1.13-3.85
					C231.93,78.31,233.63,76.78,235.26,76.63z"/>
			</g>
			<g>
				<path class="st2" d="M246.25,85.56c0,0-2.92,0.79-6.1,0.48c0,0,0.47,2.95,3.69,2.36C245.71,88.06,246.25,85.56,246.25,85.56z"/>
			</g>
		</g>
		<g>
			<g>
				<path class="st3" d="M247.23,177.14l3.02-5.67c0.33-1.7-3.96-7.35-5.69-7.18c-12.65,1.27-23.98-3.41-30.66-12.69
					c-4.74-6.58-3.78-20.66-1.24-27.45c1.3-3.48-4.03-11.86-11.22-13.49c-1.85-0.42-3.75-0.23-4.55,1.5c-1.25,2.7-3,6.93-4.39,12.03
					c-3.29,12.12-2.83,23.25,1.34,32.2c5.11,10.98,26.11,25.24,50.93,28.11C246.63,184.72,246.87,178.97,247.23,177.14z"/>
			</g>
		</g>
	</g>
	<g>
		<g>
			<g>
				<path class="st10" d="M472.23,181.25v152.07c0,13.46-10.91,24.37-55.53,24.37H116.81c17.69,0,6.78-10.91,6.78-24.37V181.25
					c0-13.46,10.91-24.38,19.13-24.38h299.89C461.32,156.88,472.23,167.79,472.23,181.25z"/>
			</g>
			<g>
				<path class="st11" d="M361.35,357.69H147.96c-13.46,0-24.37-10.91-24.37-24.37V181.25c0-13.46,10.91-24.38,24.37-24.38h63.8
					c1.03,0.58,1.6,0.91,1.6,0.91s31.83,6.3,34.28,27.82c2.45,21.52,4.92,41.82,38.34,48.8c33.42,6.97,71.35,18.8,60.34,56.31
					C335.31,328.23,372.34,323.75,361.35,357.69z"/>
			</g>
			<g>
				<g>
					<g>
						<polygon class="st12" points="266.45,244.34 265.55,252.46 256.67,332.42 165.12,332.42 164.03,323.21 153.16,232.12 
							164.03,233.24 166.03,233.44 168.08,233.65 181.09,235 193.93,236.32 195.93,236.53 197.98,236.74 210.99,238.08 
							218.58,239.4 220.59,239.61 222.64,239.82 235.65,241.16 248.48,242.49 250.49,242.69 252.54,242.91 265.55,244.25 						"/>
					</g>
					<g>
						<g>
							<g>
								<polygon class="st13" points="181.09,235 181.09,332.42 168.08,332.42 168.08,233.65 								"/>
							</g>
							<g>
								<polygon class="st13" points="166.03,233.44 166.03,332.42 165.12,332.42 164.03,323.21 164.03,233.24 								"/>
							</g>
						</g>
						<g>
							<g>
								<polygon class="st13" points="210.99,238.08 210.99,332.42 197.98,332.42 197.98,236.74 								"/>
							</g>
							<g>
								<polygon class="st13" points="193.93,236.32 193.93,332.42 195.93,332.42 195.93,236.53 								"/>
							</g>
						</g>
						<g>
							<g>
								<polygon class="st13" points="235.65,241.16 235.65,332.42 222.64,332.42 222.64,239.82 								"/>
							</g>
							<g>
								<polygon class="st13" points="220.59,239.61 220.59,332.42 218.58,332.42 218.58,239.4 								"/>
							</g>
						</g>
						<g>
							<g>
								<polygon class="st13" points="265.55,244.25 265.55,252.46 256.67,332.42 252.54,332.42 252.54,242.91 								"/>
							</g>
							<g>
								<polygon class="st13" points="250.49,242.69 250.49,332.42 248.48,332.42 248.48,242.49 								"/>
							</g>
						</g>
					</g>
					<g>
						<path class="st4" d="M158.79,279.28c1.17-0.76,103.28,4.51,103.28,4.51l-0.64,5.73l-100.92,4.2L158.79,279.28z"/>
					</g>
					<g>
						<polygon class="st0" points="146.91,223.13 148.81,235.94 270.62,249.25 270.62,229.45 						"/>
					</g>
					<g>
						<polygon class="st4" points="208.34,226.14 208.34,332.42 216.51,332.42 218.06,226.88 						"/>
					</g>
					<g>
						<g>
							<path class="st4" d="M215.82,226.51c0,0,0.85-15.94-5.38-28.93c-8.7-18.12-23.41-24.91-30.09-21.57
								c-12.69,6.34-10.51,7.43-24.47,10.51c-13.96,3.08-7.58,18.96,1.81,21.75c23.2,6.89,50.64,17.87,50.64,17.87L215.82,226.51z"
								/>
						</g>
						<g>
							<path class="st0" d="M175.64,186.18c-2.41,0-4.77-0.22-7.01-0.42c-1.18-0.11-2.29-0.21-3.38-0.28
								c-3.44-0.22-7.03,0.65-7.06,0.66c-0.07,0.02-0.15-0.03-0.16-0.1c-0.02-0.07,0.03-0.15,0.1-0.16
								c0.04-0.01,3.66-0.89,7.14-0.66c1.09,0.07,2.21,0.17,3.39,0.28c5.32,0.49,11.36,1.05,16.99-1.45c0.07-0.03,0.15,0,0.18,0.07
								c0.03,0.07,0,0.15-0.07,0.18C182.44,185.76,178.99,186.18,175.64,186.18z"/>
						</g>
						<g>
							<path class="st0" d="M208.34,226.28c-0.04,0-0.07-0.01-0.1-0.04c-0.08-0.08-8.08-8.35-18.14-16.73
								c-9.27-7.73-22.23-17.16-31.32-18.14c-4.01-0.43-6.76,0.41-8.18,2.52c-1.28,1.9-1.62,5.6,0.51,9.58
								c0.04,0.07,0.01,0.15-0.06,0.18c-0.07,0.04-0.15,0.01-0.18-0.06c-1.57-2.94-2.34-7.12-0.5-9.86
								c1.48-2.19,4.32-3.08,8.44-2.64c9.16,0.99,22.17,10.44,31.47,18.2c10.07,8.4,18.08,16.67,18.16,16.75
								c0.05,0.05,0.05,0.14,0,0.19C208.4,226.27,208.37,226.28,208.34,226.28z"/>
						</g>
						<g>
							<path class="st4" d="M211.39,226.51c0,0-0.76-27.09,14.65-27.83c0,0,5.62-1.1,7.11,4.6c1.5,5.71,6.93,2.31,9.24,8.29
								c2.31,5.98-0.41,11.42-11.96,11.55c-11.55,0.14-15.36,4.08-15.36,4.08L211.39,226.51z"/>
						</g>
						<g>
							<path class="st0" d="M217.73,226.65c-0.01,0-0.03,0-0.04-0.01c-0.07-0.02-0.11-0.1-0.08-0.17c0.02-0.06-3.21-5.75,5.93-10.16
								c3.68-1.78,7.67-3.05,10.96-3.49c3.61-0.48,6.07,0.08,6.94,1.59c0.56,0.98,0.61,2.06,0.15,3.13c-0.87,2-3.45,3.66-6.89,4.45
								c-0.07,0.02-0.15-0.03-0.16-0.1c-0.02-0.07,0.03-0.15,0.1-0.16c3.36-0.77,5.87-2.38,6.71-4.3c0.43-0.99,0.39-1.99-0.13-2.89
								c-0.81-1.41-3.18-1.93-6.67-1.46c-3.25,0.43-7.22,1.7-10.87,3.46c-4.72,2.28-2.22,4.88-3.7,6.66
								c-1.6,1.93-2.09,3.34-2.09,3.35C217.84,226.61,217.79,226.65,217.73,226.65z"/>
						</g>
						<g>
							<path class="st0" d="M236.29,207.22c-6.33,0-10.31-3.43-10.35-3.47c-0.06-0.05-0.06-0.14-0.01-0.19
								c0.05-0.06,0.14-0.06,0.19-0.01c0.04,0.04,4.13,3.56,10.6,3.4c0,0,0,0,0,0c0.07,0,0.13,0.06,0.14,0.13
								c0,0.08-0.06,0.14-0.13,0.14C236.59,207.22,236.44,207.22,236.29,207.22z"/>
						</g>
						<g>
							<path class="st0" d="M211.39,226.65c0,0-0.01,0-0.02,0c-0.07-0.01-0.13-0.08-0.12-0.15c0.01-0.09,0.99-8.55,3.74-12.65
								c0.04-0.06,0.13-0.08,0.19-0.04c0.06,0.04,0.08,0.13,0.04,0.19c-2.71,4.04-3.69,12.44-3.7,12.53
								C211.51,226.6,211.46,226.65,211.39,226.65z"/>
						</g>
						<g>
							<path class="st0" d="M218.06,227.01C218.06,227.01,218.06,227.01,218.06,227.01l-10.17-0.64c-0.08,0-0.13-0.07-0.13-0.14
								c0-0.07,0.07-0.13,0.14-0.13l10.16,0.64c0.07,0,0.13,0.07,0.13,0.14C218.19,226.96,218.13,227.01,218.06,227.01z"/>
						</g>
					</g>
				</g>
			</g>
		</g>
	</g>
	<g>
		<g>
			<path class="st3" d="M398.03,152.09c0,0,6.01-1.48,7.33,4.02c1.68,7.01-2.95,17.34-4.08,12.92c-1-3.92-1.07-9.84-1.07-9.84
				s-0.01,15.03-3.13,13.96c-3.12-1.07-2.94-14-2.94-14s-1.39,14.64-4.01,12.67c-2.62-1.96-2.53-13.7-2.53-13.7
				s-0.59,14.38-3.58,12.02c-2.99-2.35-1.18-9.73-1.13-13.02c0.05-3.12,2.08-4.09,5.08-3.83c0,0,3.14-1.48,5.06-0.81
				c0.74,0.26,1.48-0.43,2.03-0.49C396.11,151.88,398.03,152.09,398.03,152.09z"/>
		</g>
	</g>
	<g>
		<g>
			<path class="st3" d="M215.64,147.95c0,0-6.14-0.84-6.87,4.77c-0.93,7.15,4.77,16.93,5.42,12.42c0.58-4.01,0.15-8.26,0.15-8.26
				s1.48,13.31,4.47,11.92c2.99-1.39,1.88-12.26,1.88-12.26s2.49,12.43,4.89,10.2c2.4-2.23,1.75-9.87,1.75-9.87
				s1.42,10.21,4.14,7.55c2.73-2.66,0.15-9.8-0.25-13.07c-0.38-3.09-2.5-3.85-5.46-3.27c0,0-3.28-1.14-5.12-0.27
				c-0.7,0.33-1.52-0.28-2.07-0.27C217.53,147.55,215.64,147.95,215.64,147.95z"/>
		</g>
	</g>
	<g class="st14">
		<path class="st15" d="M208.49,156.95c-0.56-3.09-0.25-5.5,0.92-7.14c1.13-1.59,2.65-1.85,2.71-1.86l0.12,0.77
			c-0.05,0.01-1.28,0.23-2.21,1.56c-1.03,1.47-1.29,3.67-0.78,6.54L208.49,156.95z"/>
	</g>
	<g>
		<g>
			<g>
				<path class="st3" d="M292.45,149.31c0,0-5.65-1.95-7.4,3.22c-2.23,6.59,1.32,16.93,2.79,12.78c1.3-3.68,1.9-9.36,1.9-9.36
					s-1.31,14.45,1.78,13.7c3.09-0.75,4.05-13.2,4.05-13.2s0.05,14.19,2.74,12.53c2.69-1.66,3.63-12.95,3.63-12.95
					s-0.7,13.87,2.39,11.87c3.08-2,1.99-9.25,2.23-12.42c0.23-3-1.64-4.12-4.55-4.13c0,0-2.89-1.69-4.79-1.22
					c-0.73,0.18-1.39-0.55-1.91-0.65C294.32,149.28,292.45,149.31,292.45,149.31z"/>
			</g>
		</g>
		<g>
			<path class="st15" d="M283.96,156.93c-0.03-0.18-0.65-4.48,1.86-6.84c1.49-1.4,3.73-1.79,6.67-1.18
				c0.24-0.01,1.25-0.03,2.02,0.07l-0.1,0.77c-0.81-0.1-1.93-0.06-1.95-0.06l-0.05,0l-0.05-0.01c-2.69-0.57-4.72-0.25-6.01,0.97
				c-2.21,2.08-1.63,6.12-1.63,6.16L283.96,156.93z"/>
		</g>
	</g>
	<g class="st14">
		<path class="st15" d="M405.34,156.9l0.78-0.04c-0.11-1.86-1.45-5.34-5.73-5.34c-0.05,0-0.09,0-0.14,0l0.01,0.78
			c0.04,0,0.08,0,0.13,0C405.02,152.29,405.32,156.71,405.34,156.9z"/>
	</g>
	<g>
		<g>
			<path class="st4" d="M102.05,348.98c0,0,0.14,5.46,3.83,7c3.7,1.54,14.41,2.93,10.41,6.44c-2.3,2.02-13.12,0.71-16.18,0.71
				c-3.06,0-5.93,1.33-8.2-0.71c-2.5-2.25,0-13.45,0-13.45s2.64,1.37,5.01,1.31C100.35,350.2,102.05,348.98,102.05,348.98z"/>
		</g>
		<g>
			<path class="st9" d="M129.53,199.2c0,0-0.26,25.18-2.29,69.61c-1.59,34.83-1.26,67.11-4.31,82.41
				c-1.09,5.47-41.48,2.68-41.05-3.34l9.56-107.61l1.83-34.07L129.53,199.2z"/>
		</g>
		<g>
			<path class="st12" d="M69,143.95c0,0,5.41-15.23,24.7-14.54c19.29,0.69,34.73,26.06,38.33,80.53c0,0-32.28-6.77-69.28,9.39
				C62.76,219.33,60.53,166.15,69,143.95z"/>
		</g>
		<g>
			<path class="st12" d="M55.46,143.03l13.66,8.75c0,0,35.12,3.51,44.45,1.82c9.32-1.69,4.53-6.62,4.53-6.62s-2.63-14.1-19.51-17.12
				c-1.59-0.29-3.18-0.33-4.89-0.46c-2.86-0.2-5.73-0.12-8.53,0.19C68.5,131.39,55.46,143.03,55.46,143.03z"/>
		</g>
		<g>
			<path class="st4" d="M55.26,143.33c-0.47,1.38,3.1,3.95,7.98,5.75c4.88,1.8,9.22,2.15,9.7,0.77c0.47-1.38-3.1-3.95-7.98-5.75
				C60.08,142.3,55.74,141.95,55.26,143.33z"/>
		</g>
		<g>
			<g>
				<path class="st3" d="M88.78,190.93l0.16-9.99c0.02-1.36-1.03-2.51-2.39-2.61c-6.92-0.49-11.77-2.64-14.42-6.4
					c-3.69-5.21-3.3-13.31-2.27-18.92c0.53-2.87-0.42-4.79-3.89-6.64c0,0-2.99-1.64-6.67-2.27c-1.47-0.25-2.94,0.34-3.32,1.79
					c-0.6,2.26-1.37,5.79-1.73,9.93c-0.87,9.85,1.03,18.41,5.49,24.77c5.48,7.8,14.32,12.12,26.29,12.85
					C87.5,193.54,88.75,192.4,88.78,190.93z"/>
			</g>
		</g>
		<g class="st14">
			<path class="st15" d="M63.32,178c-0.27,0-0.55-0.04-0.84-0.13c-0.77-0.23-1.52-0.76-2.1-1.49l0,0c-1.23-1.53-1.35-3.49-0.26-4.37
				c0.55-0.44,1.3-0.55,2.11-0.3c0.77,0.23,1.52,0.76,2.1,1.49c1.23,1.53,1.35,3.49,0.26,4.37C64.25,177.85,63.81,178,63.32,178z
				 M60.91,175.96c0.5,0.62,1.13,1.07,1.77,1.27c0.6,0.18,1.13,0.12,1.5-0.18c0.79-0.63,0.62-2.2-0.36-3.43
				c-0.5-0.62-1.13-1.07-1.77-1.26c-0.6-0.18-1.13-0.12-1.5,0.18C59.76,173.17,59.93,174.74,60.91,175.96L60.91,175.96z"/>
		</g>
		<g>
			<g>
				<path class="st4" d="M85.86,156.51l0.48,4.34l4.38,39.43c0.21,1.88,1.8,3.31,3.7,3.31h45.42c1.71,0,3.14-1.27,3.34-2.97
					l0.23-1.96l5.81-48.7l-5.81,0.6l-1.07,0.11l-1.09,0.11l-6.96,0.72l-6.86,0.71l-1.07,0.11l-1.1,0.11l-6.96,0.72l-6.86,0.71
					l-1.07,0.11l-1.09,0.11l-6.96,0.72l-6.86,0.71l-1.07,0.11l-1.1,0.11l-6.96,0.72L85.86,156.51z"/>
			</g>
			<g>
				<path class="st16" d="M146.22,175.19c-0.63-0.4-58.02,2.41-58.02,2.41l0.34,3.06l56.75,2.25L146.22,175.19z"/>
			</g>
			<g>
				<path class="st0" d="M152.25,147.31l-0.5,3.35c-0.12,0.8-0.77,1.42-1.57,1.5l-64.59,6.77c-1.05,0.11-1.96-0.71-1.96-1.77v-6.92
					c0-0.95,0.74-1.73,1.69-1.77l65.09-3.19C151.53,145.22,152.42,146.21,152.25,147.31z"/>
			</g>
			<g>
				<polygon class="st16" points="119.74,146.78 119.74,203.6 115.37,203.6 111.73,147.17 				"/>
			</g>
			<g>
				<g>
					<path class="st16" d="M115.73,146.98c0,0-0.46-8.52,2.88-15.47c4.65-9.69,12.51-13.31,16.08-11.53
						c6.78,3.39,5.62,3.97,13.08,5.62c7.46,1.65,4.05,10.14-0.97,11.63c-12.4,3.68-27.07,9.55-27.07,9.55L115.73,146.98z"/>
				</g>
				<g>
					<path class="st0" d="M137.22,125.42c-1.79,0-3.64-0.23-5.41-1.01c-0.04-0.02-0.05-0.06-0.04-0.1c0.02-0.04,0.06-0.05,0.1-0.04
						c3.01,1.33,6.23,1.04,9.08,0.77c0.63-0.06,1.23-0.11,1.81-0.15c1.86-0.12,3.8,0.35,3.82,0.35c0.04,0.01,0.06,0.05,0.05,0.09
						c-0.01,0.04-0.05,0.06-0.09,0.05c-0.02,0-1.94-0.47-3.77-0.35c-0.58,0.04-1.18,0.09-1.81,0.15
						C139.77,125.3,138.5,125.42,137.22,125.42z"/>
				</g>
				<g>
					<path class="st0" d="M119.74,146.86c-0.02,0-0.04-0.01-0.05-0.02c-0.03-0.03-0.03-0.07,0-0.1
						c0.17-0.18,17.17-17.68,26.53-18.68c2.2-0.24,3.72,0.24,4.51,1.41c0.99,1.46,0.58,3.7-0.27,5.27c-0.02,0.04-0.06,0.05-0.1,0.03
						c-0.04-0.02-0.05-0.06-0.03-0.1c0.82-1.53,1.22-3.71,0.27-5.12c-0.76-1.12-2.23-1.58-4.37-1.35
						c-9.31,1-26.27,18.46-26.44,18.64C119.77,146.85,119.75,146.86,119.74,146.86z"/>
				</g>
				<g>
					<path class="st16" d="M118.1,146.98c0,0-2.4-14.48-10.63-14.88c0,0-3-0.59-3.8,2.46c-0.8,3.05-3.71,1.24-4.94,4.43
						c-1.23,3.2,0.22,6.1,6.39,6.18c6.18,0.07,8.21,2.18,8.21,2.18L118.1,146.98z"/>
				</g>
				<g>
					<path class="st0" d="M114.71,147.05c-0.03,0-0.06-0.02-0.07-0.05c-0.01-0.03-1.07-3.02-5.9-5.35
						c-1.96-0.94-4.07-1.62-5.81-1.85c-1.86-0.25-3.13,0.03-3.56,0.78c-0.28,0.48-0.3,1.01-0.07,1.54c0.45,1.03,1.79,1.89,3.58,2.3
						c0.04,0.01,0.06,0.05,0.05,0.09c-0.01,0.04-0.05,0.06-0.09,0.05c-1.84-0.42-3.22-1.31-3.68-2.38
						c-0.25-0.57-0.22-1.15,0.08-1.67c0.46-0.81,1.78-1.11,3.71-0.85c1.75,0.23,3.89,0.91,5.86,1.86c4.88,2.36,5.96,5.4,5.97,5.43
						c0.01,0.04-0.01,0.08-0.05,0.09C114.73,147.05,114.72,147.05,114.71,147.05z"/>
				</g>
				<g>
					<path class="st0" d="M101.99,136.67c-0.08,0-0.16,0-0.24,0c-0.04,0-0.07-0.03-0.07-0.07c0-0.04,0.04-0.07,0.07-0.07
						c3.46,0.09,5.65-1.8,5.67-1.82c0.03-0.03,0.08-0.02,0.1,0.01c0.03,0.03,0.02,0.08-0.01,0.1
						C107.5,134.83,105.37,136.67,101.99,136.67z"/>
				</g>
				<g>
					<path class="st0" d="M118.1,147.05c-0.04,0-0.07-0.03-0.07-0.06c-0.01-0.05-0.53-4.54-1.98-6.7c-0.02-0.03-0.01-0.08,0.02-0.1
						c0.03-0.02,0.08-0.01,0.1,0.02c1.47,2.19,1.99,6.71,2,6.76C118.18,147.01,118.15,147.05,118.1,147.05
						C118.11,147.05,118.11,147.05,118.1,147.05z"/>
				</g>
				<g>
					<path class="st0" d="M111.73,147.25c-0.04,0-0.07-0.03-0.07-0.07c0-0.04,0.03-0.07,0.07-0.08l8.24-0.34
						c0.04,0,0.07,0.03,0.08,0.07c0,0.04-0.03,0.07-0.07,0.08L111.73,147.25C111.74,147.25,111.73,147.25,111.73,147.25z"/>
				</g>
			</g>
		</g>
		<g>
			<g>
				<g>
					<path class="st3" d="M84.01,177.7c0,0,2.43-7.36,6.59-9.16c4.16-1.8,10.84-0.96,8.5,0.71c-2.34,1.66-5.92,2.96-5.92,2.96
						s7.78-2.42,7.56-0.35c-0.22,2.06-7.01,4.1-7.01,4.1s9.49-2.14,8.65-0.26c-0.84,1.88-8.06,3.46-8.06,3.46s8.91-1.64,7.88,0.53
						c-1.03,2.16-7.37,1.31-7.59,3.37c-0.22,2.06-1.81,10.19-7.62,10.27L84.01,177.7z"/>
				</g>
			</g>
			<g>
				<path class="st15" d="M90.4,173.93l-0.3-0.14c0.64-1.35,2.95-1.72,3.05-1.73l0.05,0.33C93.18,172.39,90.97,172.74,90.4,173.93z"
					/>
			</g>
			<g>
				<path class="st15" d="M90.37,178.02l-0.27-0.2c1.26-1.69,3.51-2.01,3.6-2.02l0.04,0.33C93.73,176.13,91.54,176.45,90.37,178.02z
					"/>
			</g>
			<g>
				<path class="st15" d="M91.19,181.06l-0.31-0.12c0.56-1.49,3.3-1.93,3.41-1.94l0.05,0.33C94.31,179.33,91.68,179.75,91.19,181.06
					z"/>
			</g>
		</g>
		<g>
			<g>
				<path class="st3" d="M153.04,160.94c0,0,0.9-4.53-3.23-5.32c-5.27-1.01-12.81,2.78-9.48,3.47c2.95,0.61,7.36,0.47,7.36,0.47
					s-11.19,0.51-10.29,2.8c0.9,2.29,10.52,1.72,10.52,1.72s-10.85,1.52-9.3,3.41c1.55,1.89,10.29,1.42,10.29,1.42
					s-10.68,0.92-8.83,3.07c1.85,2.15,7.28,0.55,9.73,0.4c2.32-0.14,2.98-1.68,2.68-3.91c0,0,0.99-2.39,0.43-3.8
					c-0.22-0.54,0.27-1.12,0.3-1.53C153.25,162.36,153.04,160.94,153.04,160.94z"/>
			</g>
		</g>
		<g>
			<path class="st4" d="M59.6,348.98c0,0,0.14,5.46,3.83,7c3.7,1.54,14.41,2.93,10.41,6.44c-2.3,2.02-13.12,0.71-16.18,0.71
				c-3.06,0-5.93,1.33-8.2-0.71c-2.5-2.25,0-13.45,0-13.45s2.64,1.37,5.01,1.31C57.89,350.2,59.6,348.98,59.6,348.98z"/>
		</g>
		<g>
			<path class="st4" d="M62.76,219.33c0.34,2.78,16.08,2.45,35.35,0.01c19.27-2.44,34.27-6.61,33.93-9.4
				c-0.34-2.78-15.88-3.12-35.15-0.68C77.62,211.69,62.42,216.55,62.76,219.33z"/>
		</g>
		<g>
			<path class="st9" d="M107.41,215.54L71.54,351.2c-1.72,5.53-35.75,4.79-34.68-1.08l27.83-128.31c0.33-1.48,1.42-2.65,2.84-3.06
				C75.24,216.52,108.16,210.07,107.41,215.54z"/>
		</g>
		<g>
			<path class="st4" d="M86.92,294.36l-0.67-0.16l10.96-46.71c2.04-6.21,6.25-11.4,11.84-14.6l0.34,0.6
				c-5.44,3.12-9.53,8.16-11.52,14.2L86.92,294.36z"/>
		</g>
		<g>
			<path class="st9" d="M78.25,216.31c0,0,38.46-7.35,50.93-3.88l-5.98,8.86l-22.23,1.26L78.25,216.31z"/>
		</g>
		<g>
			<path class="st0" d="M100.06,130.57c0,0-4.38-1.75-5.06-4.19c-0.69-2.44-2.31-1.69-3.25-2.31c-0.94-0.63,1.69-7.25,1.69-7.25
				l9.07-3.31l-0.94,11.63L100.06,130.57z"/>
		</g>
		<g>
			<path class="st3" d="M81.07,130.24c1.82-0.41,3.64-1.53,4.41-3.33l2.4-5.57l0.7-1.63l4.12-9.58l-0.71,9.93l-0.43,5.96l-0.12,1.68
				c-0.1,1.39,0.69,1.46,2.06,1.71c0,0,1.77,5.37-2.23,5.37C85.98,134.76,81.07,130.24,81.07,130.24z"/>
		</g>
		<g>
			<path class="st4" d="M87.87,121.17c0,0.05,0,0.11,0.01,0.16c0.24,3.2,3.66,4.69,3.66,4.69l0.02-0.02l0.43-5.96
				c-1.05-0.38-2.54-0.78-3.41-0.35C88.13,119.92,87.84,120.37,87.87,121.17z"/>
		</g>
		<g>
			<path class="st3" d="M102.49,111.71c0-6.35-4.18-11.51-9.33-11.51c-5.15,0-9.33,5.15-9.33,11.51c0,6.35,4.18,11.51,9.33,11.51
				C98.31,123.22,102.49,118.06,102.49,111.71z"/>
		</g>
		<g>
			<path class="st2" d="M98.18,119.16c0,0-3.19,0.07-6.37-1.05c0,0-0.26,3.14,3.19,3.35C97,121.58,98.18,119.16,98.18,119.16z"/>
		</g>
		<g>
			<g>
				<path class="st4" d="M94.06,111.82c0.06-0.02,0.12-0.06,0.14-0.13c0.04-0.11-0.01-0.23-0.12-0.28
					c-0.06-0.03-1.49-0.76-2.75,0.61c-0.08,0.09-0.08,0.22,0.01,0.3c0.08,0.08,0.2,0.06,0.3-0.01c0.97-0.65,2.23-0.53,2.28-0.51
					C93.97,111.83,94.02,111.83,94.06,111.82z"/>
			</g>
		</g>
		<g>
			<path class="st4" d="M91.93,114.04c-0.02,0.51,0.27,0.93,0.64,0.94c0.37,0.01,0.68-0.39,0.69-0.9c0.02-0.51-0.27-0.93-0.64-0.94
				C92.26,113.14,91.95,113.54,91.93,114.04z"/>
		</g>
		<g>
			<path class="st4" d="M97.97,114.44c-0.05,0.5,0.21,0.94,0.57,0.98c0.37,0.03,0.7-0.35,0.75-0.85c0.05-0.5-0.21-0.94-0.57-0.98
				C98.35,113.56,98.02,113.94,97.97,114.44z"/>
		</g>
		<g>
			<path class="st0" d="M88.63,104.34c7.14,1.7,12.2,8.09,12.42,15.43c0.01,0.43,0.02,0.86,0.02,1.31c0,0-7.26,0.32-6.2,4.94
				c0.81,3.51,5.53,6.61,7.15,6.61c2.46,0,6.57-8.34,5.25-19.19c-1.33-10.85-5.54-18.82-15.5-19.15c-9.96-0.33-8.64,6.31-8.64,6.31
				S84.89,103.45,88.63,104.34z"/>
		</g>
		<g>
			<path class="st0" d="M90.03,104.36c0,0-0.17,0.11-0.44,0.32c-1.05,0.82-3.66,3.16-4.13,6.65c-0.58,4.4,3.65,7.14,2.49,10.55
				c-1.16,3.4-4.24-0.41-6.73,0.17c-2.49,0.58-4.32-0.58-4.48-5.56c-0.17-4.98,1-16.61,6.89-16.61L90.03,104.36z"/>
		</g>
		<g>
			<path class="st3" d="M84.01,113.45c1.06,1.01,2.53,1.11,3.3,0.23c0.77-0.88,0.53-2.41-0.53-3.42c-1.06-1.01-2.53-1.11-3.3-0.23
				C82.72,110.91,82.95,112.44,84.01,113.45z"/>
		</g>
	</g>
</g>
<g>
	<path class="st2" d="M296.73,198.47c-3.74,0-6.37-1.52-7.89-4.56l4.99-2.9c0.33,0.63,0.71,1.09,1.14,1.37
		c0.43,0.28,1.02,0.42,1.76,0.42c1.67,0,2.51-0.77,2.51-2.31v-15.32h5.84v15.42c0,2.46-0.76,4.39-2.27,5.79
		C301.3,197.77,299.27,198.47,296.73,198.47z"/>
	<path class="st2" d="M321.99,197.98l-1.09-3.29h-7.77l-0.98,3.29h-6.32l7.27-22.82h7.35l7.55,22.82H321.99z M314.63,189.66h4.6
		l-2.31-7.76L314.63,189.66z"/>
	<path class="st2" d="M341.56,197.98l-3.98-7.37h-2.09v7.37h-5.84v-22.82h9.13c2.33,0,4.28,0.74,5.85,2.23
		c1.58,1.49,2.36,3.37,2.36,5.66c0,1.37-0.35,2.62-1.04,3.77c-0.7,1.14-1.64,2.05-2.84,2.72l4.69,8.44H341.56z M335.49,180.54v5.12
		h3.23c0.72,0.02,1.3-0.21,1.76-0.68c0.46-0.48,0.68-1.1,0.68-1.86c0-0.76-0.23-1.38-0.68-1.86c-0.46-0.48-1.04-0.72-1.76-0.72
		H335.49z"/>
	<path class="st2" d="M364.37,197.98l-1.09-3.29h-7.77l-0.98,3.29h-6.32l7.27-22.82h7.35l7.55,22.82H364.37z M357.01,189.66h4.6
		l-2.31-7.76L357.01,189.66z"/>
	<path class="st2" d="M301.72,222.96l-3.98-7.37h-2.09v7.37h-5.84v-22.82h9.13c2.33,0,4.28,0.74,5.85,2.23
		c1.58,1.49,2.36,3.37,2.36,5.66c0,1.37-0.35,2.62-1.04,3.77c-0.7,1.14-1.64,2.05-2.84,2.72l4.69,8.44H301.72z M295.65,205.52v5.12
		h3.23c0.72,0.02,1.3-0.21,1.76-0.68c0.46-0.48,0.68-1.1,0.68-1.86c0-0.76-0.23-1.38-0.68-1.86c-0.46-0.48-1.04-0.72-1.76-0.72
		H295.65z"/>
	<path class="st2" d="M313.81,216.8c0.54,1.33,1.76,1.99,3.65,1.99c1.17,0,2.16-0.38,2.97-1.14l3.91,2.74
		c-1.61,2.02-3.94,3.03-7.01,3.03c-2.76,0-4.97-0.81-6.63-2.43c-1.66-1.62-2.49-3.67-2.49-6.15c0-2.46,0.82-4.51,2.45-6.16
		c1.63-1.65,3.71-2.48,6.23-2.48c2.43,0,4.44,0.82,6.03,2.45c1.59,1.63,2.38,3.67,2.38,6.13c0,0.72-0.08,1.39-0.23,2.02H313.81z
		 M313.75,213.05h6.26c-0.43-1.52-1.46-2.28-3.06-2.28C315.27,210.77,314.2,211.53,313.75,213.05z"/>
	<path class="st2" d="M345.27,206.66h5.74l-4.99,16.3h-5.28l-2.35-8.28l-2.35,8.28h-5.28l-4.99-16.3h5.74l2.15,8.87l2.44-8.87h4.56
		l2.45,8.87L345.27,206.66z"/>
	<path class="st2" d="M363.73,206.66h5.41v16.3h-5.41v-1.5c-1.11,1.3-2.65,1.96-4.63,1.96c-2.17,0-3.99-0.82-5.46-2.46
		c-1.47-1.64-2.2-3.69-2.2-6.15c0-2.46,0.73-4.5,2.2-6.15c1.47-1.64,3.29-2.46,5.46-2.46c1.98,0,3.52,0.65,4.63,1.96V206.66z
		 M357.83,217.39c0.63,0.65,1.46,0.98,2.48,0.98c1.02,0,1.85-0.33,2.48-0.98c0.63-0.65,0.95-1.51,0.95-2.58
		c0-1.06-0.32-1.92-0.95-2.58c-0.63-0.65-1.46-0.98-2.48-0.98c-1.02,0-1.85,0.33-2.48,0.98c-0.63,0.65-0.95,1.51-0.95,2.58
		C356.88,215.88,357.2,216.73,357.83,217.39z"/>
	<path class="st2" d="M377.68,209.69c0.3-1.06,0.91-1.89,1.83-2.48c0.91-0.59,1.93-0.88,3.06-0.88v6c-1.24-0.2-2.36,0.03-3.37,0.68
		c-1.01,0.65-1.52,1.72-1.52,3.2v6.75h-5.41v-16.3h5.41V209.69z"/>
	<path class="st2" d="M395.71,200.14h5.41v22.82h-5.41v-1.5c-1.11,1.3-2.65,1.96-4.63,1.96c-2.17,0-3.99-0.82-5.46-2.46
		c-1.47-1.64-2.2-3.69-2.2-6.15c0-2.46,0.73-4.5,2.2-6.15c1.47-1.64,3.29-2.46,5.46-2.46c1.98,0,3.52,0.65,4.63,1.96V200.14z
		 M389.81,217.39c0.63,0.65,1.46,0.98,2.48,0.98c1.02,0,1.85-0.33,2.48-0.98c0.63-0.65,0.95-1.51,0.95-2.58
		c0-1.06-0.32-1.92-0.95-2.58c-0.63-0.65-1.46-0.98-2.48-0.98c-1.02,0-1.85,0.33-2.48,0.98c-0.63,0.65-0.95,1.51-0.95,2.58
		C388.86,215.88,389.18,216.73,389.81,217.39z"/>
	<path class="st2" d="M409.37,211.35c0,0.28,0.28,0.51,0.85,0.69c0.57,0.18,1.23,0.4,1.99,0.64c0.75,0.24,1.54,0.49,2.36,0.76
		c0.82,0.26,1.5,0.78,2.06,1.56c0.55,0.78,0.83,1.76,0.83,2.94c0,1.87-0.7,3.25-2.1,4.14c-1.4,0.89-3.06,1.34-4.98,1.34
		c-3.65,0-6.09-1.29-7.3-3.88l4.73-2.38c0.41,1.2,1.26,1.79,2.54,1.79c0.98,0,1.47-0.29,1.47-0.87c0-0.3-0.28-0.55-0.83-0.74
		c-0.56-0.19-1.21-0.41-1.96-0.67c-0.75-0.26-1.53-0.52-2.33-0.8c-0.8-0.28-1.47-0.78-2.02-1.5c-0.54-0.73-0.82-1.62-0.82-2.69
		c0-1.74,0.64-3.09,1.93-4.04c1.29-0.96,2.84-1.43,4.65-1.43c3.22,0,5.46,1.26,6.72,3.78l-4.56,2.05c-0.48-0.93-1.15-1.4-2.02-1.4
		C409.78,210.64,409.37,210.88,409.37,211.35z"/>
</g>
<g>
	<circle class="st2" cx="431.47" cy="327.16" r="2.36"/>
	<circle class="st2" cx="431.47" cy="342.75" r="2.36"/>
	<circle class="st2" cx="446.91" cy="327.16" r="2.36"/>
	<circle class="st2" cx="446.91" cy="342.75" r="2.36"/>
</g>
<g>
	<circle class="st2" cx="423.75" cy="327.16" r="2.36"/>
	<circle class="st2" cx="423.75" cy="342.75" r="2.36"/>
	<circle class="st2" cx="439.19" cy="327.16" r="2.36"/>
	<circle class="st2" cx="439.19" cy="342.75" r="2.36"/>
</g>
</svg>
