<svg xmlns="http://www.w3.org/2000/svg" xmlns:xlink="http://www.w3.org/1999/xlink" width="142" height="150" viewBox="0 0 142 150">
  <defs>
    <clipPath id="clip-Pay_using_rewards_in_your_wallet_">
      <rect width="142" height="150"/>
    </clipPath>
  </defs>
  <g id="Pay_using_rewards_in_your_wallet_" data-name="Pay using rewards in your wallet " clip-path="url(#clip-Pay_using_rewards_in_your_wallet_)">
    <g id="Group_1831" data-name="Group 1831" transform="translate(4.682 8.682)">
      <ellipse id="Ellipse_84" data-name="Ellipse 84" cx="66.318" cy="66.318" rx="66.318" ry="66.318" transform="translate(0 0)" fill="#fff"/>
      <g id="wallet" transform="translate(33.483 26.96)">
        <path id="Path_2197" data-name="Path 2197" d="M89.672,30.913H30.913A6.913,6.913,0,0,1,24,24V67.205a6.913,6.913,0,0,0,6.913,6.913h55.3a3.456,3.456,0,0,0,3.456-3.456Z" transform="translate(-24 0.962)" fill="#f4a93c"/>
        <path id="Path_2198" data-name="Path 2198" d="M84.8,30.913H30.913A6.913,6.913,0,0,1,24,24V67.205H79.61A5.185,5.185,0,0,0,84.8,62.021Z" transform="translate(-24 0.962)" fill="#f6b940"/>
        <path id="Path_2199" data-name="Path 2199" d="M30.913,20h55.3a3.456,3.456,0,0,1,3.456,3.456V33.826H30.913a6.913,6.913,0,1,1,0-13.826Z" transform="translate(-24 -1.951)" fill="#f9d266"/>
        <path id="Path_2200" data-name="Path 2200" d="M43.793,41.431,54.66,22.95,46.784,9.556,25.928,21.819,37.459,41.431Z" transform="translate(-22.596 -9.556)" fill="#4d8c28"/>
        <path id="Path_2201" data-name="Path 2201" d="M69.282,36h-12.1A5.185,5.185,0,0,0,52,41.185v3.456a5.185,5.185,0,0,0,5.185,5.185h12.1" transform="translate(-3.61 9.701)" fill="#d5883e"/>
        <path id="Path_2202" data-name="Path 2202" d="M58.456,44.913a3.456,3.456,0,1,1,3.456-3.456A3.456,3.456,0,0,1,58.456,44.913Z" transform="translate(-1.425 11.157)" fill="#f9d266"/>
        <path id="Path_2203" data-name="Path 2203" d="M36.265,41.431,55.007,9.556,75.864,21.819,64.333,41.431" transform="translate(-15.068 -9.556)" fill="#559b2d"/>
        <path id="Path_2204" data-name="Path 2204" d="M40.9,37.075l12.3-20.923,2.366-.614,5.961,3.5.614,2.364L52.933,37.075" transform="translate(-11.69 -5.2)" fill="#6bc13b"/>
        <path id="Path_2205" data-name="Path 2205" d="M46.294,25.413l-5.446-9.261-2.366-.614-5.959,3.5-.614,2.364,8.37,14.234" transform="translate(-18.24 -5.2)" fill="#6bc13b"/>
      </g>
    </g>
  </g>
</svg>
