<?xml version="1.0" encoding="utf-8"?>
<!-- Generator: Adobe Illustrator 23.0.5, SVG Export Plug-In . SVG Version: 6.00 Build 0)  -->
<svg version="1.1" id="Layer_1" xmlns="http://www.w3.org/2000/svg" xmlns:xlink="http://www.w3.org/1999/xlink" x="0px" y="0px"
	 viewBox="0 0 535 771" style="enable-background:new 0 0 535 771;" xml:space="preserve">
<style type="text/css">
	.st0{clip-path:url(#SVGID_2_);}
	.st1{fill:#33CC99;}
	.st2{fill:#FFFFFF;}
	.st3{enable-background:new    ;}
	.st4{fill:#5E69E2;}
	.st5{fill:#006AC1;}
	.st6{fill:#6BA7FF;}
	.st7{fill:#F2F2FC;}
	.st8{fill:#00E4EF;}
	.st9{fill:#FFDF40;}
	.st10{fill:#ACE233;}
	.st11{fill:#65CC3A;}
	.st12{fill:#D6D6F2;}
</style>
<g>
	<defs>
		<rect id="SVGID_1_" width="535" height="771"/>
	</defs>
	<clipPath id="SVGID_2_">
		<use xlink:href="#SVGID_1_"  style="overflow:visible;"/>
	</clipPath>
	<g id="Secure" class="st0">
		<path id="Rectangle_17027" class="st1" d="M65.5,57.5h404c22.6,0,41,18.4,41,41v574c0,22.6-18.4,41-41,41h-404
			c-22.6,0-41-18.4-41-41v-574C24.5,75.9,42.9,57.5,65.5,57.5z"/>
		<circle id="Ellipse_103" class="st2" cx="167.7" cy="203" r="89.5"/>
		<g id="Component_45" transform="translate(78.173 308.265)">
			<g class="st3">
				<path class="st2" d="M10,48.7c-2.4,0-4.5-0.5-6.1-1.6c-1.6-1-2.7-2.4-3.4-4.2l5-2.9c0.9,2,2.4,3.1,4.6,3.1
					c1.8,0,2.7-0.5,2.7-1.5c0-0.7-0.5-1.2-1.6-1.6c-0.4-0.2-1.4-0.5-2.9-0.9c-2.1-0.6-3.8-1.5-5-2.6c-1.2-1.1-1.8-2.7-1.8-4.6
					c0-2.1,0.8-3.9,2.3-5.2c1.5-1.3,3.4-2,5.7-2c1.9,0,3.7,0.5,5.1,1.4c1.5,0.9,2.6,2.2,3.4,3.9l-5,2.9c-0.7-1.7-1.9-2.6-3.6-2.6
					c-0.7,0-1.2,0.1-1.6,0.4c-0.4,0.3-0.5,0.7-0.5,1.1c0,0.5,0.3,0.9,0.8,1.3c0.5,0.4,1.6,0.8,3.1,1.2c1.1,0.4,2,0.7,2.7,1
					s1.4,0.6,2.3,1.2c0.8,0.5,1.4,1.2,1.8,2.1c0.4,0.8,0.6,1.8,0.6,3c0,2.3-0.8,4-2.4,5.3C14.8,48.1,12.7,48.7,10,48.7z"/>
				<path class="st2" d="M26.3,42c0.5,1.3,1.8,2,3.7,2c1.2,0,2.2-0.4,3-1.2l4,2.8c-1.6,2-4,3.1-7.1,3.1c-2.8,0-5-0.8-6.7-2.5
					s-2.5-3.7-2.5-6.2c0-2.5,0.8-4.6,2.5-6.2s3.8-2.5,6.3-2.5c2.5,0,4.5,0.8,6.1,2.5c1.6,1.7,2.4,3.7,2.4,6.2c0,0.7-0.1,1.4-0.2,2
					H26.3z M26.2,38.2h6.3c-0.4-1.5-1.5-2.3-3.1-2.3C27.7,35.9,26.7,36.7,26.2,38.2z"/>
				<path class="st2" d="M48.1,48.7c-2.5,0-4.6-0.8-6.3-2.5s-2.5-3.7-2.5-6.2s0.8-4.5,2.5-6.2s3.8-2.5,6.3-2.5
					c1.6,0,3.1,0.4,4.4,1.2c1.3,0.8,2.4,1.8,3.1,3.1L51,38.2c-0.6-1.1-1.6-1.6-2.9-1.6c-0.9,0-1.7,0.3-2.3,0.9
					c-0.6,0.6-0.9,1.4-0.9,2.4s0.3,1.8,0.9,2.4c0.6,0.6,1.4,0.9,2.3,0.9c1.4,0,2.3-0.5,2.9-1.7l4.7,2.7c-0.7,1.3-1.8,2.4-3.1,3.1
					C51.3,48.3,49.8,48.7,48.1,48.7z"/>
				<path class="st2" d="M68,31.7h5.5v16.5H68v-1.7c-1,1.4-2.5,2.1-4.6,2.1c-1.8,0-3.2-0.6-4.4-1.8c-1.1-1.2-1.7-3-1.7-5.3v-9.9h5.5
					v9.2c0,0.9,0.2,1.5,0.7,1.9c0.5,0.4,1.1,0.7,1.8,0.7c0.9,0,1.5-0.3,2-0.8c0.5-0.5,0.7-1.3,0.7-2.2V31.7z"/>
				<path class="st2" d="M82.2,34.8c0.3-1.1,0.9-1.9,1.8-2.5c0.9-0.6,2-0.9,3.1-0.9v6.1c-1.3-0.2-2.4,0-3.4,0.7
					c-1,0.7-1.5,1.7-1.5,3.2v6.8h-5.5V31.7h5.5V34.8z"/>
				<path class="st2" d="M93.7,42c0.5,1.3,1.8,2,3.7,2c1.2,0,2.2-0.4,3-1.2l4,2.8c-1.6,2-4,3.1-7.1,3.1c-2.8,0-5-0.8-6.7-2.5
					S88,42.5,88,40c0-2.5,0.8-4.6,2.5-6.2s3.8-2.5,6.3-2.5c2.5,0,4.5,0.8,6.1,2.5c1.6,1.7,2.4,3.7,2.4,6.2c0,0.7-0.1,1.4-0.2,2H93.7
					z M93.6,38.2h6.3c-0.4-1.5-1.5-2.3-3.1-2.3C95.1,35.9,94,36.7,93.6,38.2z"/>
				<path class="st2" d="M126.8,31.7h5.5v16.5h-5.5v-1.5c-1.1,1.3-2.7,2-4.7,2c-2.2,0-4-0.8-5.5-2.5s-2.2-3.7-2.2-6.2
					c0-2.5,0.7-4.6,2.2-6.2c1.5-1.7,3.3-2.5,5.5-2.5c2,0,3.6,0.7,4.7,2V31.7z M120.8,42.6c0.6,0.7,1.5,1,2.5,1c1,0,1.9-0.3,2.5-1
					c0.6-0.7,1-1.5,1-2.6s-0.3-1.9-1-2.6c-0.6-0.7-1.5-1-2.5-1c-1,0-1.9,0.3-2.5,1c-0.6,0.7-1,1.5-1,2.6S120.1,41.9,120.8,42.6z"/>
				<path class="st2" d="M145.5,31.3c1.8,0,3.2,0.6,4.4,1.8c1.1,1.2,1.7,3,1.7,5.3v9.9h-5.5v-9.2c0-0.9-0.2-1.5-0.7-1.9
					c-0.5-0.4-1.1-0.7-1.8-0.7c-0.9,0-1.5,0.3-2,0.8c-0.5,0.5-0.7,1.3-0.7,2.2v8.8h-5.5V31.7h5.5v1.7
					C141.9,32,143.4,31.3,145.5,31.3z"/>
				<path class="st2" d="M166.1,25.1h5.5v23.1h-5.5v-1.5c-1.1,1.3-2.7,2-4.7,2c-2.2,0-4-0.8-5.5-2.5s-2.2-3.7-2.2-6.2
					c0-2.5,0.7-4.6,2.2-6.2c1.5-1.7,3.3-2.5,5.5-2.5c2,0,3.6,0.7,4.7,2V25.1z M160.1,42.6c0.6,0.7,1.5,1,2.5,1c1,0,1.9-0.3,2.5-1
					c0.6-0.7,1-1.5,1-2.6s-0.3-1.9-1-2.6c-0.6-0.7-1.5-1-2.5-1c-1,0-1.9,0.3-2.5,1c-0.6,0.7-1,1.5-1,2.6S159.5,41.9,160.1,42.6z"/>
			</g>
			<g class="st3">
				<path class="st2" d="M1.8,76.1h5.9v23.1H1.8V76.1z"/>
				<path class="st2" d="M21.2,82.3c1.8,0,3.2,0.6,4.4,1.8c1.1,1.2,1.7,3,1.7,5.3v9.9h-5.5v-9.2c0-0.9-0.2-1.5-0.7-1.9
					c-0.5-0.4-1.1-0.7-1.8-0.7c-0.9,0-1.5,0.3-2,0.8c-0.5,0.5-0.7,1.3-0.7,2.2v8.8h-5.5V82.7h5.5v1.7C17.6,83,19.1,82.3,21.2,82.3z"
					/>
				<path class="st2" d="M35.5,87.5c0,0.3,0.3,0.5,0.9,0.7c0.6,0.2,1.2,0.4,2,0.6c0.8,0.2,1.6,0.5,2.4,0.8c0.8,0.3,1.5,0.8,2.1,1.6
					s0.8,1.8,0.8,3c0,1.9-0.7,3.3-2.1,4.2c-1.4,0.9-3.1,1.4-5,1.4c-3.7,0-6.2-1.3-7.4-3.9l4.8-2.4c0.4,1.2,1.3,1.8,2.6,1.8
					c1,0,1.5-0.3,1.5-0.9c0-0.3-0.3-0.6-0.8-0.7c-0.6-0.2-1.2-0.4-2-0.7s-1.5-0.5-2.4-0.8c-0.8-0.3-1.5-0.8-2-1.5s-0.8-1.6-0.8-2.7
					c0-1.8,0.7-3.1,2-4.1s2.9-1.5,4.7-1.5c3.3,0,5.5,1.3,6.8,3.8l-4.6,2.1c-0.5-0.9-1.2-1.4-2-1.4C35.9,86.8,35.5,87,35.5,87.5z"/>
				<path class="st2" d="M55.5,88h-3.4v4.8c0,0.7,0.3,1.2,0.8,1.4c0.5,0.2,1.4,0.2,2.6,0.2v5c-3.3,0.4-5.6,0.1-6.9-0.9s-2-2.8-2-5.4
					V88h-2.5v-5.2h2.5v-3l5.5-1.7v4.6h3.4V88z"/>
				<path class="st2" d="M69.4,82.7h5.5v16.5h-5.5v-1.5c-1.1,1.3-2.7,2-4.7,2c-2.2,0-4-0.8-5.5-2.5S57,93.5,57,91
					c0-2.5,0.7-4.6,2.2-6.2c1.5-1.7,3.3-2.5,5.5-2.5c2,0,3.6,0.7,4.7,2V82.7z M63.5,93.6c0.6,0.7,1.5,1,2.5,1c1,0,1.9-0.3,2.5-1
					c0.6-0.7,1-1.5,1-2.6s-0.3-1.9-1-2.6c-0.6-0.7-1.5-1-2.5-1c-1,0-1.9,0.3-2.5,1c-0.6,0.7-1,1.5-1,2.6S62.8,92.9,63.5,93.6z"/>
				<path class="st2" d="M88.1,82.3c1.8,0,3.2,0.6,4.4,1.8c1.1,1.2,1.7,3,1.7,5.3v9.9h-5.5v-9.2c0-0.9-0.2-1.5-0.7-1.9
					c-0.5-0.4-1.1-0.7-1.8-0.7c-0.9,0-1.5,0.3-2,0.8c-0.5,0.5-0.7,1.3-0.7,2.2v8.8h-5.5V82.7h5.5v1.7C84.5,83,86.1,82.3,88.1,82.3z"
					/>
				<path class="st2" d="M107.4,88H104v4.8c0,0.7,0.3,1.2,0.8,1.4c0.5,0.2,1.4,0.2,2.6,0.2v5c-3.3,0.4-5.6,0.1-6.9-0.9s-2-2.8-2-5.4
					V88H96v-5.2h2.5v-3l5.5-1.7v4.6h3.4V88z"/>
				<path class="st2" d="M126.9,76.1c2.3,0,4.3,0.8,5.9,2.3c1.6,1.5,2.4,3.5,2.4,5.8c0,2.4-0.8,4.3-2.4,5.8s-3.5,2.3-5.9,2.3h-3.1
					v6.9h-5.9V76.1H126.9z M126.9,86.7c0.7,0,1.2-0.2,1.7-0.7c0.5-0.5,0.7-1.1,0.7-1.8c0-0.7-0.2-1.3-0.7-1.8
					c-0.5-0.5-1-0.7-1.7-0.7h-3.1v4.9H126.9z"/>
				<path class="st2" d="M148.2,82.7h5.5v16.5h-5.5v-1.5c-1.1,1.3-2.7,2-4.7,2c-2.2,0-4-0.8-5.5-2.5s-2.2-3.7-2.2-6.2
					c0-2.5,0.7-4.6,2.2-6.2c1.5-1.7,3.3-2.5,5.5-2.5c2,0,3.6,0.7,4.7,2V82.7z M142.2,93.6c0.6,0.7,1.5,1,2.5,1c1,0,1.9-0.3,2.5-1
					c0.6-0.7,1-1.5,1-2.6s-0.3-1.9-1-2.6c-0.6-0.7-1.5-1-2.5-1c-1,0-1.9,0.3-2.5,1c-0.6,0.7-1,1.5-1,2.6S141.6,92.9,142.2,93.6z"/>
				<path class="st2" d="M167.3,82.7h6.1L167.7,99c-0.9,2.5-2.1,4.3-3.7,5.4c-1.6,1.1-3.7,1.6-6.2,1.5v-5.1c1.2,0,2-0.1,2.6-0.4
					c0.6-0.3,1.1-0.8,1.5-1.6l-6.6-16h6.1l3.3,9.6L167.3,82.7z"/>
				<path class="st2" d="M182.2,99.7c-2.4,0-4.5-0.8-6.2-2.5c-1.7-1.7-2.6-3.7-2.6-6.2s0.9-4.5,2.6-6.2c1.7-1.7,3.8-2.5,6.2-2.5
					c2.5,0,4.5,0.8,6.3,2.5c1.7,1.7,2.6,3.7,2.6,6.2s-0.9,4.5-2.6,6.2C186.7,98.9,184.7,99.7,182.2,99.7z M182.2,94.4
					c1,0,1.8-0.3,2.4-1c0.6-0.6,0.9-1.5,0.9-2.5s-0.3-1.8-0.9-2.5c-0.6-0.6-1.4-1-2.4-1c-0.9,0-1.7,0.3-2.4,1
					c-0.6,0.6-0.9,1.5-0.9,2.5s0.3,1.8,0.9,2.5C180.5,94.1,181.2,94.4,182.2,94.4z"/>
				<path class="st2" d="M203.9,82.7h5.5v16.5h-5.5v-1.7c-1,1.4-2.5,2.1-4.6,2.1c-1.8,0-3.2-0.6-4.4-1.8c-1.1-1.2-1.7-3-1.7-5.3
					v-9.9h5.5v9.2c0,0.9,0.2,1.5,0.7,1.9c0.5,0.4,1,0.7,1.8,0.7c0.9,0,1.5-0.3,2-0.8c0.5-0.5,0.7-1.3,0.7-2.2V82.7z"/>
				<path class="st2" d="M222.7,88h-3.4v4.8c0,0.7,0.3,1.2,0.8,1.4c0.5,0.2,1.4,0.2,2.6,0.2v5c-3.3,0.4-5.6,0.1-6.9-0.9
					s-2-2.8-2-5.4V88h-2.5v-5.2h2.5v-3l5.5-1.7v4.6h3.4V88z"/>
			</g>
			<g class="st3">
				<path class="st2" d="M8,182.9c-1,0-1.9-0.2-2.7-0.5c-0.8-0.4-1.6-0.9-2.2-1.5s-1.1-1.5-1.4-2.5c-0.3-1-0.5-2.1-0.5-3.3
					c0-1.2,0.2-2.3,0.5-3.3c0.3-1,0.8-1.8,1.4-2.5c0.6-0.7,1.3-1.2,2.2-1.6s1.8-0.5,2.8-0.5c0.5,0,1,0.1,1.4,0.2s0.8,0.3,1.2,0.4
					c0.4,0.2,0.7,0.4,1,0.6c0.3,0.2,0.5,0.4,0.7,0.7l-1.1,1.2c-0.4-0.4-0.8-0.7-1.3-1c-0.5-0.3-1.1-0.4-1.9-0.4
					c-0.8,0-1.5,0.1-2.1,0.4c-0.6,0.3-1.1,0.7-1.6,1.2c-0.4,0.5-0.8,1.2-1,1.9c-0.2,0.8-0.4,1.6-0.4,2.5c0,1,0.1,1.8,0.3,2.6
					s0.5,1.4,1,1.9c0.4,0.5,0.9,1,1.6,1.2s1.3,0.4,2.2,0.4c0.5,0,1-0.1,1.5-0.2c0.5-0.2,0.9-0.4,1.2-0.7v-3.9H7.7v-1.6h4.9v6.3
					c-0.5,0.5-1.1,0.9-1.9,1.3C9.9,182.8,9,182.9,8,182.9z"/>
				<path class="st2" d="M20.6,182.9c-0.8,0-1.5-0.1-2.1-0.4c-0.7-0.3-1.2-0.7-1.7-1.1s-0.9-1.1-1.1-1.8c-0.3-0.7-0.4-1.5-0.4-2.5
					s0.1-1.7,0.4-2.5s0.7-1.3,1.1-1.9c0.5-0.5,1-0.9,1.6-1.2c0.6-0.3,1.2-0.4,1.9-0.4c0.7,0,1.3,0.1,1.9,0.4c0.6,0.2,1,0.6,1.4,1.1
					c0.4,0.5,0.7,1,0.9,1.7c0.2,0.6,0.3,1.4,0.3,2.2c0,0.2,0,0.4,0,0.6c0,0.2,0,0.4-0.1,0.5h-7.5c0.1,1.2,0.4,2.1,1.1,2.8
					c0.7,0.7,1.5,1,2.6,1c0.5,0,1-0.1,1.5-0.2s0.9-0.4,1.3-0.6l0.7,1.2c-0.5,0.3-1,0.6-1.6,0.8C22.1,182.8,21.4,182.9,20.6,182.9z
					 M17.1,176.2h6c0-1.1-0.2-2-0.7-2.6c-0.5-0.6-1.2-0.9-2-0.9c-0.4,0-0.8,0.1-1.1,0.2c-0.4,0.2-0.7,0.4-1,0.7
					c-0.3,0.3-0.5,0.7-0.7,1.1C17.3,175.1,17.1,175.6,17.1,176.2z"/>
				<path class="st2" d="M30.8,182.9c-0.6,0-1.1-0.1-1.5-0.3s-0.7-0.4-1-0.8s-0.4-0.7-0.5-1.2c-0.1-0.5-0.2-1-0.2-1.5V173h-1.7v-1.4
					l1.7-0.1l0.2-3.1h1.6v3.1h3v1.5h-3v6.2c0,0.7,0.1,1.2,0.4,1.6s0.7,0.6,1.3,0.6c0.2,0,0.4,0,0.6-0.1c0.2-0.1,0.4-0.1,0.6-0.2
					l0.4,1.4c-0.3,0.1-0.6,0.2-1,0.3C31.5,182.9,31.1,182.9,30.8,182.9z"/>
				<path class="st2" d="M39.8,187.5c-0.3,0-0.5,0-0.7-0.1s-0.4-0.1-0.6-0.2l0.4-1.5c0.1,0,0.3,0.1,0.4,0.1s0.3,0.1,0.4,0.1
					c0.6,0,1.2-0.2,1.6-0.7c0.4-0.5,0.7-1,1-1.7l0.3-0.8L38,171.5h2l2.3,6.2c0.2,0.5,0.3,1,0.5,1.6s0.4,1.1,0.5,1.6h0.1
					c0.2-0.5,0.3-1,0.5-1.6c0.2-0.6,0.3-1.1,0.5-1.6l2-6.2h1.8L44,183.6c-0.2,0.6-0.4,1.1-0.7,1.5s-0.5,0.9-0.9,1.2
					s-0.7,0.6-1.1,0.8S40.4,187.5,39.8,187.5z"/>
				<path class="st2" d="M54.6,182.9c-0.7,0-1.3-0.1-2-0.4s-1.2-0.6-1.6-1.1c-0.5-0.5-0.9-1.1-1.1-1.8c-0.3-0.7-0.4-1.6-0.4-2.5
					c0-0.9,0.1-1.8,0.4-2.5s0.7-1.3,1.1-1.9c0.5-0.5,1-0.9,1.6-1.2c0.6-0.3,1.3-0.4,2-0.4s1.3,0.1,2,0.4c0.6,0.3,1.2,0.6,1.6,1.2
					c0.5,0.5,0.9,1.1,1.1,1.9s0.4,1.6,0.4,2.5c0,0.9-0.1,1.7-0.4,2.5c-0.3,0.7-0.7,1.3-1.1,1.8c-0.5,0.5-1,0.9-1.6,1.1
					C56,182.8,55.3,182.9,54.6,182.9z M54.6,181.4c0.5,0,0.9-0.1,1.3-0.3c0.4-0.2,0.7-0.5,1-0.9c0.3-0.4,0.5-0.8,0.7-1.3
					c0.2-0.5,0.2-1.1,0.2-1.7c0-0.6-0.1-1.2-0.2-1.8c-0.2-0.5-0.4-1-0.7-1.4c-0.3-0.4-0.6-0.7-1-0.9c-0.4-0.2-0.8-0.3-1.3-0.3
					c-0.5,0-0.9,0.1-1.3,0.3c-0.4,0.2-0.7,0.5-1,0.9c-0.3,0.4-0.5,0.8-0.7,1.4c-0.2,0.5-0.2,1.1-0.2,1.8c0,0.6,0.1,1.2,0.2,1.7
					c0.2,0.5,0.4,1,0.7,1.3c0.3,0.4,0.6,0.7,1,0.9C53.7,181.3,54.1,181.4,54.6,181.4z"/>
				<path class="st2" d="M66,182.9c-1.2,0-2.1-0.4-2.6-1.1c-0.5-0.7-0.8-1.8-0.8-3.3v-7.1h1.9v6.8c0,1.1,0.2,1.8,0.5,2.3
					s0.9,0.7,1.6,0.7c0.6,0,1.1-0.1,1.5-0.4c0.4-0.3,0.9-0.8,1.5-1.4v-7.9h1.9v11.2h-1.6l-0.2-1.7h-0.1c-0.5,0.6-1.1,1.1-1.6,1.5
					C67.5,182.7,66.8,182.9,66,182.9z"/>
				<path class="st2" d="M75.3,182.7v-11.2h1.6l0.2,2H77c0.4-0.7,0.8-1.3,1.4-1.7s1.1-0.6,1.8-0.6c0.4,0,0.8,0.1,1.2,0.2l-0.4,1.7
					c-0.2-0.1-0.4-0.1-0.5-0.1c-0.2,0-0.3,0-0.6,0c-0.5,0-1,0.2-1.5,0.6c-0.5,0.4-1,1-1.3,2v7.2H75.3z"/>
				<path class="st2" d="M87.8,187.4v-15.9h1.6l0.2,1.3h0.1c0.5-0.4,1.1-0.8,1.7-1.1c0.6-0.3,1.2-0.5,1.9-0.5c0.7,0,1.4,0.1,1.9,0.4
					c0.6,0.3,1,0.7,1.4,1.2c0.4,0.5,0.6,1.1,0.8,1.8c0.2,0.7,0.3,1.5,0.3,2.4c0,1-0.1,1.8-0.4,2.5c-0.3,0.7-0.6,1.4-1.1,1.9
					s-1,0.9-1.5,1.2c-0.6,0.3-1.2,0.4-1.8,0.4c-0.5,0-1-0.1-1.6-0.3c-0.5-0.2-1-0.5-1.6-0.9l0,2v3.8H87.8z M92.5,181.3
					c0.5,0,0.9-0.1,1.3-0.3c0.4-0.2,0.7-0.5,1-0.9s0.5-0.8,0.7-1.4c0.2-0.6,0.2-1.2,0.2-1.9c0-0.6-0.1-1.2-0.2-1.7
					c-0.1-0.5-0.3-0.9-0.5-1.3s-0.5-0.6-0.9-0.8c-0.4-0.2-0.8-0.3-1.3-0.3c-0.5,0-1,0.1-1.4,0.4c-0.5,0.3-1,0.6-1.6,1.1v5.9
					c0.5,0.4,1,0.7,1.5,0.9C91.7,181.3,92.1,181.3,92.5,181.3z"/>
				<path class="st2" d="M100.6,182.7v-11.2h1.6l0.2,2h0.1c0.4-0.7,0.8-1.3,1.4-1.7s1.1-0.6,1.8-0.6c0.4,0,0.8,0.1,1.2,0.2l-0.4,1.7
					c-0.2-0.1-0.4-0.1-0.5-0.1c-0.2,0-0.3,0-0.6,0c-0.5,0-1,0.2-1.5,0.6c-0.5,0.4-1,1-1.3,2v7.2H100.6z"/>
				<path class="st2" d="M112.7,182.9c-0.7,0-1.3-0.1-2-0.4s-1.2-0.6-1.6-1.1c-0.5-0.5-0.9-1.1-1.1-1.8c-0.3-0.7-0.4-1.6-0.4-2.5
					c0-0.9,0.1-1.8,0.4-2.5s0.7-1.3,1.1-1.9c0.5-0.5,1-0.9,1.6-1.2c0.6-0.3,1.3-0.4,2-0.4s1.3,0.1,2,0.4c0.6,0.3,1.2,0.6,1.6,1.2
					c0.5,0.5,0.9,1.1,1.1,1.9s0.4,1.6,0.4,2.5c0,0.9-0.1,1.7-0.4,2.5c-0.3,0.7-0.7,1.3-1.1,1.8c-0.5,0.5-1,0.9-1.6,1.1
					C114,182.8,113.4,182.9,112.7,182.9z M112.7,181.4c0.5,0,0.9-0.1,1.3-0.3c0.4-0.2,0.7-0.5,1-0.9c0.3-0.4,0.5-0.8,0.7-1.3
					c0.2-0.5,0.2-1.1,0.2-1.7c0-0.6-0.1-1.2-0.2-1.8c-0.2-0.5-0.4-1-0.7-1.4c-0.3-0.4-0.6-0.7-1-0.9c-0.4-0.2-0.8-0.3-1.3-0.3
					c-0.5,0-0.9,0.1-1.3,0.3c-0.4,0.2-0.7,0.5-1,0.9c-0.3,0.4-0.5,0.8-0.7,1.4c-0.2,0.5-0.2,1.1-0.2,1.8c0,0.6,0.1,1.2,0.2,1.7
					c0.2,0.5,0.4,1,0.7,1.3c0.3,0.4,0.6,0.7,1,0.9C111.8,181.3,112.2,181.4,112.7,181.4z"/>
				<path class="st2" d="M121.1,182.7V173h-1.5v-1.4l1.5-0.1v-1.8c0-1.1,0.3-2.1,0.8-2.7s1.4-1,2.5-1c0.4,0,0.7,0,1,0.1
					c0.3,0.1,0.6,0.2,0.9,0.3l-0.4,1.4c-0.4-0.2-0.8-0.3-1.3-0.3c-1,0-1.6,0.7-1.6,2.2v1.8h2.4v1.5H123v9.6H121.1z"/>
				<path class="st2" d="M128.5,169.2c-0.4,0-0.7-0.1-0.9-0.3c-0.3-0.2-0.4-0.5-0.4-0.9c0-0.4,0.1-0.7,0.4-0.9
					c0.3-0.2,0.6-0.3,0.9-0.3s0.7,0.1,0.9,0.3c0.3,0.2,0.4,0.5,0.4,0.9c0,0.4-0.1,0.6-0.4,0.9C129.2,169.1,128.9,169.2,128.5,169.2z
					 M127.5,182.7v-11.2h1.9v11.2H127.5z"/>
				<path class="st2" d="M136.7,182.9c-0.6,0-1.1-0.1-1.5-0.3s-0.7-0.4-1-0.8s-0.4-0.7-0.5-1.2c-0.1-0.5-0.2-1-0.2-1.5V173h-1.7
					v-1.4l1.7-0.1l0.2-3.1h1.6v3.1h3v1.5h-3v6.2c0,0.7,0.1,1.2,0.4,1.6s0.7,0.6,1.3,0.6c0.2,0,0.4,0,0.6-0.1
					c0.2-0.1,0.4-0.1,0.6-0.2l0.4,1.4c-0.3,0.1-0.6,0.2-1,0.3C137.4,182.9,137.1,182.9,136.7,182.9z"/>
				<path class="st2" d="M145.6,187.4v-15.9h1.6l0.2,1.3h0.1c0.5-0.4,1.1-0.8,1.7-1.1c0.6-0.3,1.2-0.5,1.9-0.5
					c0.7,0,1.4,0.1,1.9,0.4c0.6,0.3,1,0.7,1.4,1.2c0.4,0.5,0.6,1.1,0.8,1.8c0.2,0.7,0.3,1.5,0.3,2.4c0,1-0.1,1.8-0.4,2.5
					c-0.3,0.7-0.6,1.4-1.1,1.9s-1,0.9-1.5,1.2c-0.6,0.3-1.2,0.4-1.8,0.4c-0.5,0-1-0.1-1.6-0.3c-0.5-0.2-1-0.5-1.6-0.9l0,2v3.8H145.6
					z M150.2,181.3c0.5,0,0.9-0.1,1.3-0.3c0.4-0.2,0.7-0.5,1-0.9s0.5-0.8,0.7-1.4c0.2-0.6,0.2-1.2,0.2-1.9c0-0.6-0.1-1.2-0.2-1.7
					c-0.1-0.5-0.3-0.9-0.5-1.3s-0.5-0.6-0.9-0.8c-0.4-0.2-0.8-0.3-1.3-0.3c-0.5,0-1,0.1-1.4,0.4c-0.5,0.3-1,0.6-1.6,1.1v5.9
					c0.5,0.4,1,0.7,1.5,0.9C149.4,181.3,149.8,181.3,150.2,181.3z"/>
				<path class="st2" d="M160.6,182.9c-0.9,0-1.7-0.3-2.3-0.8s-0.9-1.3-0.9-2.3c0-1.2,0.5-2.2,1.6-2.8c1.1-0.7,2.8-1.1,5.2-1.4
					c0-0.4,0-0.7-0.1-1c-0.1-0.3-0.2-0.6-0.4-0.9s-0.4-0.5-0.7-0.6c-0.3-0.2-0.7-0.2-1.1-0.2c-0.6,0-1.3,0.1-1.8,0.4
					c-0.6,0.2-1.1,0.5-1.5,0.8l-0.7-1.3c0.5-0.3,1.2-0.7,1.9-1c0.8-0.3,1.6-0.5,2.5-0.5c1.4,0,2.4,0.4,3,1.3c0.6,0.8,0.9,2,0.9,3.3
					v6.9h-1.6l-0.2-1.3h-0.1c-0.5,0.4-1.1,0.8-1.7,1.1C161.9,182.8,161.3,182.9,160.6,182.9z M161.1,181.4c0.5,0,1-0.1,1.5-0.4
					c0.5-0.3,1-0.6,1.5-1.1v-3.1c-0.9,0.1-1.7,0.3-2.4,0.4c-0.6,0.2-1.1,0.4-1.5,0.6c-0.4,0.2-0.7,0.5-0.9,0.8s-0.3,0.6-0.3,1
					c0,0.6,0.2,1.1,0.6,1.4C160.1,181.3,160.6,181.4,161.1,181.4z"/>
				<path class="st2" d="M170.6,169.2c-0.4,0-0.7-0.1-0.9-0.3c-0.3-0.2-0.4-0.5-0.4-0.9c0-0.4,0.1-0.7,0.4-0.9
					c0.3-0.2,0.6-0.3,0.9-0.3s0.7,0.1,0.9,0.3c0.3,0.2,0.4,0.5,0.4,0.9c0,0.4-0.1,0.6-0.4,0.9C171.2,169.1,170.9,169.2,170.6,169.2z
					 M169.6,182.7v-11.2h1.9v11.2H169.6z"/>
				<path class="st2" d="M179.1,182.9c-1.4,0-2.5-0.5-3.4-1.5c-0.8-1-1.3-2.5-1.3-4.3c0-0.9,0.1-1.7,0.4-2.4
					c0.3-0.7,0.6-1.3,1.1-1.9c0.4-0.5,1-0.9,1.5-1.2c0.6-0.3,1.2-0.4,1.8-0.4s1.2,0.1,1.7,0.3c0.5,0.2,1,0.5,1.4,0.9l-0.1-1.9v-4.3
					h1.9v16.4h-1.6l-0.2-1.3h-0.1c-0.4,0.4-1,0.8-1.5,1.1C180.4,182.8,179.7,182.9,179.1,182.9z M179.5,181.3c0.5,0,1-0.1,1.5-0.4
					s0.9-0.6,1.4-1.2V174c-0.5-0.4-0.9-0.7-1.4-0.9c-0.4-0.2-0.9-0.3-1.3-0.3c-0.4,0-0.9,0.1-1.3,0.3s-0.7,0.5-1,0.9
					c-0.3,0.4-0.5,0.8-0.7,1.3c-0.2,0.5-0.3,1.1-0.3,1.7c0,1.3,0.3,2.4,0.8,3.2C177.7,181,178.5,181.3,179.5,181.3z"/>
				<path class="st2" d="M193.6,169.2c-0.4,0-0.7-0.1-0.9-0.3c-0.3-0.2-0.4-0.5-0.4-0.9c0-0.4,0.1-0.7,0.4-0.9
					c0.3-0.2,0.6-0.3,0.9-0.3s0.7,0.1,0.9,0.3c0.3,0.2,0.4,0.5,0.4,0.9c0,0.4-0.1,0.6-0.4,0.9C194.3,169.1,194,169.2,193.6,169.2z
					 M192.6,182.7v-11.2h1.9v11.2H192.6z"/>
				<path class="st2" d="M198.3,182.7v-11.2h1.6l0.2,1.6h0.1c0.5-0.5,1.1-1,1.7-1.3c0.6-0.4,1.3-0.5,2.1-0.5c1.2,0,2,0.4,2.6,1.1
					c0.5,0.7,0.8,1.8,0.8,3.3v7.1h-1.9v-6.8c0-1.1-0.2-1.8-0.5-2.3c-0.3-0.5-0.9-0.7-1.6-0.7c-0.6,0-1.1,0.1-1.5,0.4s-1,0.7-1.5,1.3
					v8.1H198.3z"/>
				<path class="st2" d="M213.8,182.9c-0.8,0-1.6-0.1-2.3-0.4s-1.3-0.7-1.9-1.1l0.9-1.3c0.5,0.4,1,0.7,1.5,1
					c0.5,0.2,1.1,0.4,1.8,0.4c0.7,0,1.3-0.2,1.7-0.5c0.4-0.3,0.6-0.8,0.6-1.2c0-0.3-0.1-0.5-0.2-0.8s-0.3-0.4-0.6-0.6
					s-0.5-0.3-0.8-0.4c-0.3-0.1-0.6-0.2-0.9-0.4c-0.4-0.1-0.8-0.3-1.2-0.5c-0.4-0.2-0.8-0.4-1.1-0.6s-0.6-0.5-0.8-0.9
					c-0.2-0.3-0.3-0.7-0.3-1.2c0-0.4,0.1-0.9,0.3-1.3c0.2-0.4,0.4-0.7,0.8-1c0.3-0.3,0.7-0.5,1.2-0.7c0.5-0.2,1-0.2,1.6-0.2
					c0.7,0,1.4,0.1,1.9,0.4c0.6,0.2,1.1,0.5,1.5,0.9l-0.9,1.2c-0.4-0.3-0.8-0.5-1.2-0.7s-0.9-0.3-1.4-0.3c-0.7,0-1.2,0.2-1.6,0.5
					c-0.3,0.3-0.5,0.7-0.5,1.1c0,0.3,0.1,0.5,0.2,0.7c0.1,0.2,0.3,0.4,0.6,0.5c0.2,0.1,0.5,0.3,0.8,0.4c0.3,0.1,0.6,0.2,0.9,0.4
					c0.4,0.2,0.8,0.3,1.2,0.5c0.4,0.2,0.8,0.4,1.1,0.6c0.3,0.3,0.6,0.6,0.8,0.9c0.2,0.4,0.3,0.8,0.3,1.3c0,0.5-0.1,0.9-0.3,1.3
					c-0.2,0.4-0.4,0.8-0.8,1.1c-0.3,0.3-0.8,0.5-1.3,0.7C215,182.8,214.4,182.9,213.8,182.9z"/>
				<path class="st2" d="M223.6,182.9c-0.6,0-1.1-0.1-1.5-0.3s-0.7-0.4-1-0.8s-0.4-0.7-0.5-1.2s-0.2-1-0.2-1.5V173h-1.7v-1.4
					l1.7-0.1l0.2-3.1h1.6v3.1h3v1.5h-3v6.2c0,0.7,0.1,1.2,0.4,1.6s0.7,0.6,1.3,0.6c0.2,0,0.4,0,0.6-0.1c0.2-0.1,0.4-0.1,0.6-0.2
					l0.4,1.4c-0.3,0.1-0.6,0.2-1,0.3S223.9,182.9,223.6,182.9z"/>
				<path class="st2" d="M229.9,182.9c-0.9,0-1.7-0.3-2.3-0.8s-0.9-1.3-0.9-2.3c0-1.2,0.5-2.2,1.6-2.8c1.1-0.7,2.8-1.1,5.2-1.4
					c0-0.4,0-0.7-0.1-1c-0.1-0.3-0.2-0.6-0.4-0.9s-0.4-0.5-0.7-0.6s-0.7-0.2-1.1-0.2c-0.6,0-1.3,0.1-1.8,0.4
					c-0.6,0.2-1.1,0.5-1.5,0.8l-0.7-1.3c0.5-0.3,1.2-0.7,1.9-1s1.6-0.5,2.5-0.5c1.4,0,2.4,0.4,3,1.3s0.9,2,0.9,3.3v6.9h-1.6
					l-0.2-1.3h-0.1c-0.5,0.4-1.1,0.8-1.7,1.1C231.3,182.8,230.6,182.9,229.9,182.9z M230.5,181.4c0.5,0,1-0.1,1.5-0.4s1-0.6,1.5-1.1
					v-3.1c-0.9,0.1-1.7,0.3-2.4,0.4c-0.6,0.2-1.1,0.4-1.5,0.6c-0.4,0.2-0.7,0.5-0.9,0.8c-0.2,0.3-0.3,0.6-0.3,1
					c0,0.6,0.2,1.1,0.6,1.4C229.4,181.3,229.9,181.4,230.5,181.4z"/>
				<path class="st2" d="M238.9,182.7v-11.2h1.6l0.2,1.6h0.1c0.5-0.5,1.1-1,1.7-1.3s1.3-0.5,2.1-0.5c1.2,0,2,0.4,2.6,1.1
					c0.5,0.7,0.8,1.8,0.8,3.3v7.1H246v-6.8c0-1.1-0.2-1.8-0.5-2.3c-0.3-0.5-0.9-0.7-1.6-0.7c-0.6,0-1.1,0.1-1.5,0.4
					c-0.4,0.3-1,0.7-1.5,1.3v8.1H238.9z"/>
				<path class="st2" d="M255,182.9c-0.6,0-1.1-0.1-1.5-0.3s-0.7-0.4-1-0.8s-0.4-0.7-0.5-1.2s-0.2-1-0.2-1.5V173h-1.7v-1.4l1.7-0.1
					l0.2-3.1h1.6v3.1h3v1.5h-3v6.2c0,0.7,0.1,1.2,0.4,1.6s0.7,0.6,1.3,0.6c0.2,0,0.4,0,0.6-0.1c0.2-0.1,0.4-0.1,0.6-0.2l0.4,1.4
					c-0.3,0.1-0.6,0.2-1,0.3S255.4,182.9,255,182.9z"/>
				<path class="st2" d="M261.3,182.9c-0.7,0-1.2-0.2-1.5-0.6c-0.3-0.4-0.5-1.1-0.5-1.9v-14.1h1.9v14.3c0,0.3,0.1,0.5,0.2,0.6
					s0.2,0.2,0.4,0.2c0.1,0,0.1,0,0.2,0c0.1,0,0.1,0,0.2,0l0.3,1.4c-0.1,0.1-0.3,0.1-0.4,0.1C261.8,182.9,261.5,182.9,261.3,182.9z"
					/>
				<path class="st2" d="M265.3,187.5c-0.3,0-0.5,0-0.7-0.1s-0.4-0.1-0.6-0.2l0.4-1.5c0.1,0,0.3,0.1,0.4,0.1s0.3,0.1,0.4,0.1
					c0.6,0,1.2-0.2,1.6-0.7s0.7-1,1-1.7l0.3-0.8l-4.5-11.2h2l2.3,6.2c0.2,0.5,0.3,1,0.5,1.6c0.2,0.5,0.4,1.1,0.5,1.6h0.1
					c0.2-0.5,0.3-1,0.5-1.6s0.3-1.1,0.5-1.6l2-6.2h1.8l-4.2,12.1c-0.2,0.6-0.4,1.1-0.7,1.5s-0.5,0.9-0.9,1.2
					c-0.3,0.3-0.7,0.6-1.1,0.8C266.4,187.4,265.9,187.5,265.3,187.5z"/>
				<path class="st2" d="M281.4,169.2c-0.4,0-0.7-0.1-0.9-0.3c-0.3-0.2-0.4-0.5-0.4-0.9c0-0.4,0.1-0.7,0.4-0.9
					c0.3-0.2,0.6-0.3,0.9-0.3s0.7,0.1,0.9,0.3c0.3,0.2,0.4,0.5,0.4,0.9c0,0.4-0.1,0.6-0.4,0.9C282.1,169.1,281.8,169.2,281.4,169.2z
					 M280.5,182.7v-11.2h1.9v11.2H280.5z"/>
				<path class="st2" d="M286.1,182.7v-11.2h1.6l0.2,1.6h0.1c0.5-0.5,1.1-1,1.7-1.3c0.6-0.4,1.3-0.5,2.1-0.5c1.2,0,2,0.4,2.6,1.1
					c0.5,0.7,0.8,1.8,0.8,3.3v7.1h-1.9v-6.8c0-1.1-0.2-1.8-0.5-2.3c-0.3-0.5-0.9-0.7-1.6-0.7c-0.6,0-1.1,0.1-1.5,0.4s-1,0.7-1.5,1.3
					v8.1H286.1z"/>
				<path class="st2" d="M302.2,182.9c-0.6,0-1.1-0.1-1.5-0.3s-0.7-0.4-1-0.8s-0.4-0.7-0.5-1.2c-0.1-0.5-0.2-1-0.2-1.5V173h-1.7
					v-1.4l1.7-0.1l0.2-3.1h1.6v3.1h3v1.5h-3v6.2c0,0.7,0.1,1.2,0.4,1.6s0.7,0.6,1.3,0.6c0.2,0,0.4,0,0.6-0.1
					c0.2-0.1,0.4-0.1,0.6-0.2l0.4,1.4c-0.3,0.1-0.6,0.2-1,0.3C302.9,182.9,302.6,182.9,302.2,182.9z"/>
				<path class="st2" d="M310.5,182.9c-0.7,0-1.3-0.1-2-0.4s-1.2-0.6-1.6-1.1c-0.5-0.5-0.9-1.1-1.1-1.8c-0.3-0.7-0.4-1.6-0.4-2.5
					c0-0.9,0.1-1.8,0.4-2.5c0.3-0.7,0.7-1.3,1.1-1.9c0.5-0.5,1-0.9,1.6-1.2c0.6-0.3,1.3-0.4,2-0.4c0.7,0,1.3,0.1,2,0.4
					c0.6,0.3,1.2,0.6,1.6,1.2s0.9,1.1,1.1,1.9c0.3,0.7,0.4,1.6,0.4,2.5c0,0.9-0.1,1.7-0.4,2.5c-0.3,0.7-0.7,1.3-1.1,1.8
					c-0.5,0.5-1,0.9-1.6,1.1S311.2,182.9,310.5,182.9z M310.5,181.4c0.5,0,0.9-0.1,1.3-0.3c0.4-0.2,0.7-0.5,1-0.9
					c0.3-0.4,0.5-0.8,0.7-1.3c0.2-0.5,0.2-1.1,0.2-1.7c0-0.6-0.1-1.2-0.2-1.8c-0.2-0.5-0.4-1-0.7-1.4c-0.3-0.4-0.6-0.7-1-0.9
					c-0.4-0.2-0.8-0.3-1.3-0.3s-0.9,0.1-1.3,0.3c-0.4,0.2-0.7,0.5-1,0.9c-0.3,0.4-0.5,0.8-0.7,1.4c-0.2,0.5-0.2,1.1-0.2,1.8
					c0,0.6,0.1,1.2,0.2,1.7c0.2,0.5,0.4,1,0.7,1.3c0.3,0.4,0.6,0.7,1,0.9C309.6,181.3,310,181.4,310.5,181.4z"/>
				<path class="st2" d="M323.4,187.5c-0.3,0-0.5,0-0.7-0.1s-0.4-0.1-0.6-0.2l0.4-1.5c0.1,0,0.3,0.1,0.4,0.1s0.3,0.1,0.4,0.1
					c0.6,0,1.2-0.2,1.6-0.7s0.7-1,1-1.7l0.3-0.8l-4.5-11.2h2l2.3,6.2c0.2,0.5,0.3,1,0.5,1.6c0.2,0.5,0.4,1.1,0.5,1.6h0.1
					c0.2-0.5,0.3-1,0.5-1.6s0.3-1.1,0.5-1.6l2-6.2h1.8l-4.2,12.1c-0.2,0.6-0.4,1.1-0.7,1.5s-0.5,0.9-0.9,1.2
					c-0.3,0.3-0.7,0.6-1.1,0.8C324.5,187.4,324,187.5,323.4,187.5z"/>
				<path class="st2" d="M338.2,182.9c-0.7,0-1.3-0.1-2-0.4s-1.2-0.6-1.6-1.1c-0.5-0.5-0.9-1.1-1.1-1.8c-0.3-0.7-0.4-1.6-0.4-2.5
					c0-0.9,0.1-1.8,0.4-2.5c0.3-0.7,0.7-1.3,1.1-1.9c0.5-0.5,1-0.9,1.6-1.2c0.6-0.3,1.3-0.4,2-0.4c0.7,0,1.3,0.1,2,0.4
					c0.6,0.3,1.2,0.6,1.6,1.2s0.9,1.1,1.1,1.9c0.3,0.7,0.4,1.6,0.4,2.5c0,0.9-0.1,1.7-0.4,2.5c-0.3,0.7-0.7,1.3-1.1,1.8
					c-0.5,0.5-1,0.9-1.6,1.1S338.9,182.9,338.2,182.9z M338.2,181.4c0.5,0,0.9-0.1,1.3-0.3c0.4-0.2,0.7-0.5,1-0.9
					c0.3-0.4,0.5-0.8,0.7-1.3c0.2-0.5,0.2-1.1,0.2-1.7c0-0.6-0.1-1.2-0.2-1.8c-0.2-0.5-0.4-1-0.7-1.4c-0.3-0.4-0.6-0.7-1-0.9
					c-0.4-0.2-0.8-0.3-1.3-0.3s-0.9,0.1-1.3,0.3c-0.4,0.2-0.7,0.5-1,0.9c-0.3,0.4-0.5,0.8-0.7,1.4c-0.2,0.5-0.2,1.1-0.2,1.8
					c0,0.6,0.1,1.2,0.2,1.7c0.2,0.5,0.4,1,0.7,1.3c0.3,0.4,0.6,0.7,1,0.9C337.3,181.3,337.8,181.4,338.2,181.4z"/>
				<path class="st2" d="M349.6,182.9c-1.2,0-2.1-0.4-2.6-1.1s-0.8-1.8-0.8-3.3v-7.1h1.9v6.8c0,1.1,0.2,1.8,0.5,2.3
					c0.3,0.5,0.9,0.7,1.6,0.7c0.6,0,1.1-0.1,1.5-0.4s0.9-0.8,1.5-1.4v-7.9h1.9v11.2h-1.6l-0.2-1.7h-0.1c-0.5,0.6-1.1,1.1-1.6,1.5
					C351.1,182.7,350.4,182.9,349.6,182.9z"/>
				<path class="st2" d="M358.9,182.7v-11.2h1.6l0.2,2h0.1c0.4-0.7,0.8-1.3,1.4-1.7c0.5-0.4,1.1-0.6,1.8-0.6c0.4,0,0.8,0.1,1.2,0.2
					l-0.4,1.7c-0.2-0.1-0.4-0.1-0.5-0.1c-0.2,0-0.3,0-0.6,0c-0.5,0-1,0.2-1.5,0.6c-0.5,0.4-1,1-1.3,2v7.2H358.9z"/>
			</g>
			<g class="st3">
				<path class="st2" d="M4.9,229.9c-1.9,0-3.3-0.8-4.2-2.4l1.4-1c0.3,0.6,0.7,1,1.2,1.3c0.4,0.3,0.9,0.4,1.4,0.4
					c0.8,0,1.4-0.2,1.8-0.7s0.6-1.3,0.6-2.5v-10.5H9v10.6c0,0.6-0.1,1.3-0.2,1.8c-0.2,0.6-0.4,1.1-0.7,1.5c-0.3,0.4-0.8,0.8-1.3,1
					C6.2,229.8,5.6,229.9,4.9,229.9z"/>
				<path class="st2" d="M15.5,229.9c-0.9,0-1.7-0.3-2.3-0.8s-0.9-1.3-0.9-2.3c0-1.2,0.5-2.2,1.6-2.8c1.1-0.7,2.8-1.1,5.2-1.4
					c0-0.4,0-0.7-0.1-1c-0.1-0.3-0.2-0.6-0.4-0.9s-0.4-0.5-0.7-0.6c-0.3-0.2-0.7-0.2-1.1-0.2c-0.6,0-1.3,0.1-1.8,0.4
					c-0.6,0.2-1.1,0.5-1.5,0.8l-0.7-1.3c0.5-0.3,1.2-0.7,1.9-1c0.8-0.3,1.6-0.5,2.5-0.5c1.4,0,2.4,0.4,3,1.3c0.6,0.8,0.9,2,0.9,3.3
					v6.9h-1.6l-0.2-1.3h-0.1c-0.5,0.4-1.1,0.8-1.7,1.1C16.9,229.8,16.2,229.9,15.5,229.9z M16.1,228.4c0.5,0,1-0.1,1.5-0.4
					c0.5-0.3,1-0.6,1.5-1.1v-3.1c-0.9,0.1-1.7,0.3-2.4,0.4c-0.6,0.2-1.1,0.4-1.5,0.6c-0.4,0.2-0.7,0.5-0.9,0.8s-0.3,0.6-0.3,1
					c0,0.6,0.2,1.1,0.6,1.4C15,228.3,15.5,228.4,16.1,228.4z"/>
				<path class="st2" d="M24.5,229.7v-11.2h1.6l0.2,2h0.1c0.4-0.7,0.8-1.3,1.4-1.7s1.1-0.6,1.8-0.6c0.4,0,0.8,0.1,1.2,0.2l-0.4,1.7
					c-0.2-0.1-0.4-0.1-0.5-0.1c-0.2,0-0.3,0-0.6,0c-0.5,0-1,0.2-1.5,0.6c-0.5,0.4-1,1-1.3,2v7.2H24.5z"/>
				<path class="st2" d="M34.5,229.9c-0.9,0-1.7-0.3-2.3-0.8s-0.9-1.3-0.9-2.3c0-1.2,0.5-2.2,1.6-2.8c1.1-0.7,2.8-1.1,5.2-1.4
					c0-0.4,0-0.7-0.1-1c-0.1-0.3-0.2-0.6-0.4-0.9s-0.4-0.5-0.7-0.6c-0.3-0.2-0.7-0.2-1.1-0.2c-0.6,0-1.3,0.1-1.8,0.4
					c-0.6,0.2-1.1,0.5-1.5,0.8l-0.7-1.3c0.5-0.3,1.2-0.7,1.9-1c0.8-0.3,1.6-0.5,2.5-0.5c1.4,0,2.4,0.4,3,1.3c0.6,0.8,0.9,2,0.9,3.3
					v6.9h-1.6l-0.2-1.3h-0.1c-0.5,0.4-1.1,0.8-1.7,1.1C35.9,229.8,35.2,229.9,34.5,229.9z M35.1,228.4c0.5,0,1-0.1,1.5-0.4
					c0.5-0.3,1-0.6,1.5-1.1v-3.1c-0.9,0.1-1.7,0.3-2.4,0.4c-0.6,0.2-1.1,0.4-1.5,0.6c-0.4,0.2-0.7,0.5-0.9,0.8s-0.3,0.6-0.3,1
					c0,0.6,0.2,1.1,0.6,1.4C34.1,228.3,34.5,228.4,35.1,228.4z"/>
				<path class="st2" d="M49.9,229.7l-3.1-11.2h1.9l1.7,6.5c0.1,0.5,0.2,1.1,0.3,1.6c0.1,0.5,0.2,1,0.3,1.5h0.1
					c0.1-0.5,0.2-1,0.4-1.6c0.1-0.5,0.3-1,0.4-1.6l1.7-6.5h1.8l1.7,6.5c0.1,0.5,0.3,1.1,0.4,1.6c0.1,0.5,0.3,1,0.4,1.5h0.1
					c0.1-0.5,0.2-1,0.3-1.5c0.1-0.5,0.2-1,0.3-1.6l1.6-6.5h1.8l-3,11.2h-2.3l-1.6-6c-0.1-0.5-0.3-1.1-0.4-1.6
					c-0.1-0.5-0.2-1.1-0.4-1.6h-0.1c-0.1,0.6-0.2,1.1-0.4,1.6c-0.1,0.5-0.3,1.1-0.4,1.6l-1.6,6H49.9z"/>
				<path class="st2" d="M67,229.9c-0.9,0-1.7-0.3-2.3-0.8s-0.9-1.3-0.9-2.3c0-1.2,0.5-2.2,1.6-2.8c1.1-0.7,2.8-1.1,5.2-1.4
					c0-0.4,0-0.7-0.1-1c-0.1-0.3-0.2-0.6-0.4-0.9s-0.4-0.5-0.7-0.6c-0.3-0.2-0.7-0.2-1.1-0.2c-0.6,0-1.3,0.1-1.8,0.4
					c-0.6,0.2-1.1,0.5-1.5,0.8l-0.7-1.3c0.5-0.3,1.2-0.7,1.9-1c0.8-0.3,1.6-0.5,2.5-0.5c1.4,0,2.4,0.4,3,1.3c0.6,0.8,0.9,2,0.9,3.3
					v6.9h-1.6l-0.2-1.3h-0.1c-0.5,0.4-1.1,0.8-1.7,1.1C68.4,229.8,67.7,229.9,67,229.9z M67.6,228.4c0.5,0,1-0.1,1.5-0.4
					c0.5-0.3,1-0.6,1.5-1.1v-3.1c-0.9,0.1-1.7,0.3-2.4,0.4c-0.6,0.2-1.1,0.4-1.5,0.6c-0.4,0.2-0.7,0.5-0.9,0.8s-0.3,0.6-0.3,1
					c0,0.6,0.2,1.1,0.6,1.4C66.5,228.3,67,228.4,67.6,228.4z"/>
				<path class="st2" d="M78,229.9c-0.7,0-1.2-0.2-1.5-0.6c-0.3-0.4-0.5-1.1-0.5-1.9v-14.1h1.9v14.3c0,0.3,0.1,0.5,0.2,0.6
					c0.1,0.1,0.2,0.2,0.4,0.2c0.1,0,0.1,0,0.2,0c0.1,0,0.1,0,0.2,0l0.3,1.4c-0.1,0.1-0.3,0.1-0.4,0.1
					C78.5,229.9,78.3,229.9,78,229.9z"/>
				<path class="st2" d="M83.9,229.9c-0.7,0-1.2-0.2-1.5-0.6c-0.3-0.4-0.5-1.1-0.5-1.9v-14.1h1.9v14.3c0,0.3,0.1,0.5,0.2,0.6
					c0.1,0.1,0.2,0.2,0.4,0.2c0.1,0,0.1,0,0.2,0c0.1,0,0.1,0,0.2,0l0.3,1.4c-0.1,0.1-0.3,0.1-0.4,0.1
					C84.4,229.9,84.1,229.9,83.9,229.9z"/>
				<path class="st2" d="M92.3,229.9c-0.8,0-1.5-0.1-2.1-0.4c-0.7-0.3-1.2-0.7-1.7-1.1s-0.9-1.1-1.1-1.8c-0.3-0.7-0.4-1.5-0.4-2.5
					s0.1-1.7,0.4-2.5s0.7-1.3,1.1-1.9c0.5-0.5,1-0.9,1.6-1.2c0.6-0.3,1.2-0.4,1.9-0.4c0.7,0,1.3,0.1,1.9,0.4c0.6,0.2,1,0.6,1.4,1.1
					c0.4,0.5,0.7,1,0.9,1.7c0.2,0.6,0.3,1.4,0.3,2.2c0,0.2,0,0.4,0,0.6c0,0.2,0,0.4-0.1,0.5h-7.5c0.1,1.2,0.4,2.1,1.1,2.8
					c0.7,0.7,1.5,1,2.6,1c0.5,0,1-0.1,1.5-0.2s0.9-0.4,1.3-0.6l0.7,1.2c-0.5,0.3-1,0.6-1.6,0.8C93.7,229.8,93,229.9,92.3,229.9z
					 M88.8,223.2h6c0-1.1-0.2-2-0.7-2.6c-0.5-0.6-1.2-0.9-2-0.9c-0.4,0-0.8,0.1-1.1,0.2c-0.4,0.2-0.7,0.4-1,0.7
					c-0.3,0.3-0.5,0.7-0.7,1.1C88.9,222.1,88.8,222.6,88.8,223.2z"/>
				<path class="st2" d="M102.4,229.9c-0.6,0-1.1-0.1-1.5-0.3s-0.7-0.4-1-0.8s-0.4-0.7-0.5-1.2c-0.1-0.5-0.2-1-0.2-1.5V220h-1.7
					v-1.4l1.7-0.1l0.2-3.1h1.6v3.1h3v1.5h-3v6.2c0,0.7,0.1,1.2,0.4,1.6s0.7,0.6,1.3,0.6c0.2,0,0.4,0,0.6-0.1
					c0.2-0.1,0.4-0.1,0.6-0.2l0.4,1.4c-0.3,0.1-0.6,0.2-1,0.3C103.1,229.9,102.8,229.9,102.4,229.9z"/>
				<path class="st2" d="M113.1,229.7l-3.1-11.2h1.9l1.7,6.5c0.1,0.5,0.2,1.1,0.3,1.6c0.1,0.5,0.2,1,0.3,1.5h0.1
					c0.1-0.5,0.2-1,0.4-1.6c0.1-0.5,0.3-1,0.4-1.6l1.7-6.5h1.8l1.7,6.5c0.1,0.5,0.3,1.1,0.4,1.6c0.1,0.5,0.3,1,0.4,1.5h0.1
					c0.1-0.5,0.2-1,0.3-1.5c0.1-0.5,0.2-1,0.3-1.6l1.6-6.5h1.8l-3,11.2h-2.3l-1.6-6c-0.1-0.5-0.3-1.1-0.4-1.6
					c-0.1-0.5-0.2-1.1-0.4-1.6h-0.1c-0.1,0.6-0.2,1.1-0.4,1.6c-0.1,0.5-0.3,1.1-0.4,1.6l-1.6,6H113.1z"/>
				<path class="st2" d="M127.8,229.7v-16.4h1.9v4.5l-0.1,2.3c0.5-0.5,1.1-0.9,1.7-1.3s1.3-0.5,2-0.5c1.2,0,2,0.4,2.6,1.1
					c0.5,0.7,0.8,1.8,0.8,3.3v7.1h-1.9v-6.8c0-1.1-0.2-1.8-0.5-2.3s-0.9-0.7-1.6-0.7c-0.6,0-1.1,0.1-1.5,0.4c-0.4,0.3-1,0.7-1.5,1.3
					v8.1H127.8z"/>
				<path class="st2" d="M141.3,216.2c-0.4,0-0.7-0.1-0.9-0.3c-0.3-0.2-0.4-0.5-0.4-0.9c0-0.4,0.1-0.7,0.4-0.9
					c0.3-0.2,0.6-0.3,0.9-0.3s0.7,0.1,0.9,0.3c0.3,0.2,0.4,0.5,0.4,0.9c0,0.4-0.1,0.6-0.4,0.9C142,216.1,141.7,216.2,141.3,216.2z
					 M140.3,229.7v-11.2h1.9v11.2H140.3z"/>
				<path class="st2" d="M150.4,229.9c-0.7,0-1.4-0.1-2.1-0.4s-1.2-0.6-1.7-1.1c-0.5-0.5-0.8-1.1-1.1-1.8c-0.3-0.7-0.4-1.6-0.4-2.5
					c0-0.9,0.1-1.8,0.4-2.5c0.3-0.7,0.7-1.3,1.2-1.9s1.1-0.9,1.7-1.2c0.7-0.3,1.3-0.4,2.1-0.4c0.7,0,1.4,0.1,1.9,0.4
					c0.5,0.3,1,0.6,1.4,0.9l-1,1.2c-0.3-0.3-0.7-0.5-1-0.7c-0.4-0.2-0.8-0.3-1.2-0.3c-0.5,0-1,0.1-1.4,0.3s-0.8,0.5-1.1,0.9
					c-0.3,0.4-0.5,0.8-0.7,1.4c-0.2,0.5-0.3,1.1-0.3,1.8c0,0.6,0.1,1.2,0.3,1.7c0.2,0.5,0.4,1,0.7,1.3c0.3,0.4,0.7,0.7,1.1,0.9
					c0.4,0.2,0.9,0.3,1.4,0.3c0.5,0,1-0.1,1.4-0.3c0.4-0.2,0.8-0.5,1.2-0.8l0.8,1.3c-0.5,0.4-1.1,0.8-1.7,1S151.1,229.9,150.4,229.9
					z"/>
				<path class="st2" d="M156.5,229.7v-16.4h1.9v4.5l-0.1,2.3c0.5-0.5,1.1-0.9,1.7-1.3s1.3-0.5,2-0.5c1.2,0,2,0.4,2.6,1.1
					c0.5,0.7,0.8,1.8,0.8,3.3v7.1h-1.9v-6.8c0-1.1-0.2-1.8-0.5-2.3s-0.9-0.7-1.6-0.7c-0.6,0-1.1,0.1-1.5,0.4c-0.4,0.3-1,0.7-1.5,1.3
					v8.1H156.5z"/>
				<path class="st2" d="M176.5,229.9c-0.8,0-1.6-0.1-2.3-0.4s-1.3-0.7-1.9-1.1l0.9-1.3c0.5,0.4,1,0.7,1.5,1
					c0.5,0.2,1.1,0.4,1.8,0.4c0.7,0,1.3-0.2,1.7-0.5c0.4-0.3,0.6-0.8,0.6-1.2c0-0.3-0.1-0.5-0.2-0.8s-0.3-0.4-0.6-0.6
					c-0.2-0.2-0.5-0.3-0.8-0.4c-0.3-0.1-0.6-0.2-0.9-0.4c-0.4-0.1-0.8-0.3-1.2-0.5c-0.4-0.2-0.8-0.4-1.1-0.6
					c-0.3-0.3-0.6-0.5-0.8-0.9c-0.2-0.3-0.3-0.7-0.3-1.2c0-0.4,0.1-0.9,0.3-1.3c0.2-0.4,0.4-0.7,0.8-1c0.3-0.3,0.7-0.5,1.2-0.7
					c0.5-0.2,1-0.2,1.6-0.2c0.7,0,1.4,0.1,1.9,0.4s1.1,0.5,1.5,0.9l-0.9,1.2c-0.4-0.3-0.8-0.5-1.2-0.7s-0.9-0.3-1.4-0.3
					c-0.7,0-1.2,0.2-1.6,0.5s-0.5,0.7-0.5,1.1c0,0.3,0.1,0.5,0.2,0.7c0.1,0.2,0.3,0.4,0.6,0.5s0.5,0.3,0.8,0.4
					c0.3,0.1,0.6,0.2,0.9,0.4c0.4,0.2,0.8,0.3,1.2,0.5c0.4,0.2,0.8,0.4,1.1,0.6c0.3,0.3,0.6,0.6,0.8,0.9c0.2,0.4,0.3,0.8,0.3,1.3
					c0,0.5-0.1,0.9-0.3,1.3c-0.2,0.4-0.4,0.8-0.8,1.1s-0.8,0.5-1.3,0.7C177.7,229.8,177.2,229.9,176.5,229.9z"/>
				<path class="st2" d="M187.7,229.9c-0.8,0-1.5-0.1-2.1-0.4c-0.7-0.3-1.2-0.7-1.7-1.1s-0.9-1.1-1.1-1.8c-0.3-0.7-0.4-1.5-0.4-2.5
					s0.1-1.7,0.4-2.5s0.7-1.3,1.1-1.9c0.5-0.5,1-0.9,1.6-1.2c0.6-0.3,1.2-0.4,1.9-0.4c0.7,0,1.3,0.1,1.9,0.4c0.6,0.2,1,0.6,1.4,1.1
					c0.4,0.5,0.7,1,0.9,1.7c0.2,0.6,0.3,1.4,0.3,2.2c0,0.2,0,0.4,0,0.6c0,0.2,0,0.4-0.1,0.5h-7.5c0.1,1.2,0.4,2.1,1.1,2.8
					c0.7,0.7,1.5,1,2.6,1c0.5,0,1-0.1,1.5-0.2c0.5-0.2,0.9-0.4,1.3-0.6l0.7,1.2c-0.5,0.3-1,0.6-1.6,0.8
					C189.2,229.8,188.5,229.9,187.7,229.9z M184.2,223.2h6c0-1.1-0.2-2-0.7-2.6c-0.5-0.6-1.2-0.9-2-0.9c-0.4,0-0.8,0.1-1.1,0.2
					c-0.4,0.2-0.7,0.4-1,0.7c-0.3,0.3-0.5,0.7-0.7,1.1C184.4,222.1,184.3,222.6,184.2,223.2z"/>
				<path class="st2" d="M199,229.9c-0.7,0-1.4-0.1-2.1-0.4c-0.6-0.3-1.2-0.6-1.7-1.1c-0.5-0.5-0.8-1.1-1.1-1.8
					c-0.3-0.7-0.4-1.6-0.4-2.5c0-0.9,0.1-1.8,0.4-2.5c0.3-0.7,0.7-1.3,1.2-1.9c0.5-0.5,1.1-0.9,1.7-1.2c0.7-0.3,1.3-0.4,2.1-0.4
					c0.7,0,1.4,0.1,1.9,0.4c0.5,0.3,1,0.6,1.4,0.9l-1,1.2c-0.3-0.3-0.7-0.5-1-0.7c-0.4-0.2-0.8-0.3-1.2-0.3c-0.5,0-1,0.1-1.4,0.3
					c-0.4,0.2-0.8,0.5-1.1,0.9c-0.3,0.4-0.5,0.8-0.7,1.4c-0.2,0.5-0.3,1.1-0.3,1.8c0,0.6,0.1,1.2,0.3,1.7c0.2,0.5,0.4,1,0.7,1.3
					c0.3,0.4,0.7,0.7,1.1,0.9s0.9,0.3,1.4,0.3c0.5,0,1-0.1,1.4-0.3c0.4-0.2,0.8-0.5,1.2-0.8l0.8,1.3c-0.5,0.4-1.1,0.8-1.7,1
					S199.7,229.9,199,229.9z"/>
				<path class="st2" d="M208.4,229.9c-1.2,0-2.1-0.4-2.6-1.1c-0.5-0.7-0.8-1.8-0.8-3.3v-7.1h1.9v6.8c0,1.1,0.2,1.8,0.5,2.3
					c0.3,0.5,0.9,0.7,1.6,0.7c0.6,0,1.1-0.1,1.5-0.4c0.4-0.3,0.9-0.8,1.5-1.4v-7.9h1.9v11.2h-1.6l-0.2-1.7h-0.1
					c-0.5,0.6-1.1,1.1-1.6,1.5C209.8,229.7,209.2,229.9,208.4,229.9z"/>
				<path class="st2" d="M217.6,229.7v-11.2h1.6l0.2,2h0.1c0.4-0.7,0.8-1.3,1.4-1.7c0.5-0.4,1.1-0.6,1.8-0.6c0.4,0,0.8,0.1,1.2,0.2
					l-0.4,1.7c-0.2-0.1-0.4-0.1-0.5-0.1c-0.2,0-0.3,0-0.6,0c-0.5,0-1,0.2-1.5,0.6c-0.5,0.4-1,1-1.3,2v7.2H217.6z"/>
				<path class="st2" d="M229.9,229.9c-0.8,0-1.5-0.1-2.1-0.4c-0.7-0.3-1.2-0.7-1.7-1.1c-0.5-0.5-0.9-1.1-1.1-1.8
					c-0.3-0.7-0.4-1.5-0.4-2.5s0.1-1.7,0.4-2.5c0.3-0.7,0.7-1.3,1.1-1.9c0.5-0.5,1-0.9,1.6-1.2c0.6-0.3,1.2-0.4,1.9-0.4
					c0.7,0,1.3,0.1,1.9,0.4s1,0.6,1.4,1.1c0.4,0.5,0.7,1,0.9,1.7c0.2,0.6,0.3,1.4,0.3,2.2c0,0.2,0,0.4,0,0.6c0,0.2,0,0.4-0.1,0.5
					h-7.5c0.1,1.2,0.4,2.1,1.1,2.8c0.7,0.7,1.5,1,2.6,1c0.5,0,1-0.1,1.5-0.2s0.9-0.4,1.3-0.6l0.7,1.2c-0.5,0.3-1,0.6-1.6,0.8
					C231.4,229.8,230.7,229.9,229.9,229.9z M226.4,223.2h6c0-1.1-0.2-2-0.7-2.6c-0.5-0.6-1.2-0.9-2-0.9c-0.4,0-0.8,0.1-1.1,0.2
					s-0.7,0.4-1,0.7s-0.5,0.7-0.7,1.1C226.6,222.1,226.4,222.6,226.4,223.2z"/>
				<path class="st2" d="M238.8,229.9c-0.7,0-1.2-0.2-1.5-0.6c-0.3-0.4-0.5-1.1-0.5-1.9v-14.1h1.9v14.3c0,0.3,0.1,0.5,0.2,0.6
					s0.2,0.2,0.4,0.2c0.1,0,0.1,0,0.2,0c0.1,0,0.1,0,0.2,0l0.3,1.4c-0.1,0.1-0.3,0.1-0.4,0.1C239.3,229.9,239,229.9,238.8,229.9z"/>
				<path class="st2" d="M242.8,234.5c-0.3,0-0.5,0-0.7-0.1s-0.4-0.1-0.6-0.2l0.4-1.5c0.1,0,0.3,0.1,0.4,0.1s0.3,0.1,0.4,0.1
					c0.6,0,1.2-0.2,1.6-0.7s0.7-1,1-1.7l0.3-0.8l-4.5-11.2h2l2.3,6.2c0.2,0.5,0.3,1,0.5,1.6c0.2,0.5,0.4,1.1,0.5,1.6h0.1
					c0.2-0.5,0.3-1,0.5-1.6s0.3-1.1,0.5-1.6l2-6.2h1.8l-4.2,12.1c-0.2,0.6-0.4,1.1-0.7,1.5s-0.5,0.9-0.9,1.2
					c-0.3,0.3-0.7,0.6-1.1,0.8C243.9,234.4,243.4,234.5,242.8,234.5z"/>
				<path class="st2" d="M258,229.7v-16.4h1.9v4.5l-0.1,2.3c0.5-0.5,1.1-0.9,1.7-1.3c0.6-0.4,1.3-0.5,2-0.5c1.2,0,2,0.4,2.6,1.1
					c0.5,0.7,0.8,1.8,0.8,3.3v7.1H265v-6.8c0-1.1-0.2-1.8-0.5-2.3c-0.3-0.5-0.9-0.7-1.6-0.7c-0.6,0-1.1,0.1-1.5,0.4s-1,0.7-1.5,1.3
					v8.1H258z"/>
				<path class="st2" d="M274.8,229.9c-0.7,0-1.3-0.1-2-0.4s-1.2-0.6-1.6-1.1c-0.5-0.5-0.9-1.1-1.1-1.8c-0.3-0.7-0.4-1.6-0.4-2.5
					c0-0.9,0.1-1.8,0.4-2.5c0.3-0.7,0.7-1.3,1.1-1.9s1-0.9,1.6-1.2c0.6-0.3,1.3-0.4,2-0.4c0.7,0,1.3,0.1,2,0.4
					c0.6,0.3,1.2,0.6,1.6,1.2c0.5,0.5,0.9,1.1,1.1,1.9c0.3,0.7,0.4,1.6,0.4,2.5c0,0.9-0.1,1.7-0.4,2.5c-0.3,0.7-0.7,1.3-1.1,1.8
					c-0.5,0.5-1,0.9-1.6,1.1C276.2,229.8,275.5,229.9,274.8,229.9z M274.8,228.4c0.5,0,0.9-0.1,1.3-0.3s0.7-0.5,1-0.9
					c0.3-0.4,0.5-0.8,0.7-1.3c0.2-0.5,0.2-1.1,0.2-1.7c0-0.6-0.1-1.2-0.2-1.8c-0.2-0.5-0.4-1-0.7-1.4c-0.3-0.4-0.6-0.7-1-0.9
					s-0.8-0.3-1.3-0.3c-0.5,0-0.9,0.1-1.3,0.3s-0.7,0.5-1,0.9c-0.3,0.4-0.5,0.8-0.7,1.4c-0.2,0.5-0.2,1.1-0.2,1.8
					c0,0.6,0.1,1.2,0.2,1.7c0.2,0.5,0.4,1,0.7,1.3c0.3,0.4,0.6,0.7,1,0.9S274.4,228.4,274.8,228.4z"/>
				<path class="st2" d="M285,229.9c-0.7,0-1.2-0.2-1.5-0.6c-0.3-0.4-0.5-1.1-0.5-1.9v-14.1h1.9v14.3c0,0.3,0.1,0.5,0.2,0.6
					c0.1,0.1,0.2,0.2,0.4,0.2c0.1,0,0.1,0,0.2,0s0.1,0,0.2,0l0.3,1.4c-0.1,0.1-0.3,0.1-0.4,0.1C285.4,229.9,285.2,229.9,285,229.9z"
					/>
				<path class="st2" d="M292.6,229.9c-1.4,0-2.5-0.5-3.4-1.5s-1.3-2.5-1.3-4.3c0-0.9,0.1-1.7,0.4-2.4c0.3-0.7,0.6-1.3,1.1-1.9
					c0.4-0.5,1-0.9,1.5-1.2s1.2-0.4,1.8-0.4c0.6,0,1.2,0.1,1.7,0.3c0.5,0.2,1,0.5,1.4,0.9l-0.1-1.9v-4.3h1.9v16.4h-1.6l-0.2-1.3H296
					c-0.4,0.4-1,0.8-1.5,1.1C293.9,229.8,293.3,229.9,292.6,229.9z M293.1,228.3c0.5,0,1-0.1,1.5-0.4s0.9-0.6,1.4-1.2V221
					c-0.5-0.4-0.9-0.7-1.4-0.9c-0.4-0.2-0.9-0.3-1.3-0.3c-0.4,0-0.9,0.1-1.3,0.3c-0.4,0.2-0.7,0.5-1,0.9c-0.3,0.4-0.5,0.8-0.7,1.3
					c-0.2,0.5-0.3,1.1-0.3,1.7c0,1.3,0.3,2.4,0.8,3.2C291.3,228,292.1,228.3,293.1,228.3z"/>
				<path class="st2" d="M304.5,229.9c-0.8,0-1.6-0.1-2.3-0.4s-1.3-0.7-1.9-1.1l0.9-1.3c0.5,0.4,1,0.7,1.5,1
					c0.5,0.2,1.1,0.4,1.8,0.4c0.7,0,1.3-0.2,1.7-0.5c0.4-0.3,0.6-0.8,0.6-1.2c0-0.3-0.1-0.5-0.2-0.8s-0.3-0.4-0.6-0.6
					s-0.5-0.3-0.8-0.4c-0.3-0.1-0.6-0.2-0.9-0.4c-0.4-0.1-0.8-0.3-1.2-0.5c-0.4-0.2-0.8-0.4-1.1-0.6s-0.6-0.5-0.8-0.9
					c-0.2-0.3-0.3-0.7-0.3-1.2c0-0.4,0.1-0.9,0.3-1.3c0.2-0.4,0.4-0.7,0.8-1c0.3-0.3,0.7-0.5,1.2-0.7c0.5-0.2,1-0.2,1.6-0.2
					c0.7,0,1.4,0.1,1.9,0.4c0.6,0.2,1.1,0.5,1.5,0.9l-0.9,1.2c-0.4-0.3-0.8-0.5-1.2-0.7s-0.9-0.3-1.4-0.3c-0.7,0-1.2,0.2-1.6,0.5
					c-0.3,0.3-0.5,0.7-0.5,1.1c0,0.3,0.1,0.5,0.2,0.7c0.1,0.2,0.3,0.4,0.6,0.5c0.2,0.1,0.5,0.3,0.8,0.4c0.3,0.1,0.6,0.2,0.9,0.4
					c0.4,0.2,0.8,0.3,1.2,0.5c0.4,0.2,0.8,0.4,1.1,0.6c0.3,0.3,0.6,0.6,0.8,0.9c0.2,0.4,0.3,0.8,0.3,1.3c0,0.5-0.1,0.9-0.3,1.3
					c-0.2,0.4-0.4,0.8-0.8,1.1c-0.3,0.3-0.8,0.5-1.3,0.7C305.8,229.8,305.2,229.9,304.5,229.9z"/>
				<path class="st2" d="M316,234.5c-0.3,0-0.5,0-0.7-0.1s-0.4-0.1-0.6-0.2l0.4-1.5c0.1,0,0.3,0.1,0.4,0.1s0.3,0.1,0.4,0.1
					c0.6,0,1.2-0.2,1.6-0.7s0.7-1,1-1.7l0.3-0.8l-4.5-11.2h2l2.3,6.2c0.2,0.5,0.3,1,0.5,1.6c0.2,0.5,0.4,1.1,0.5,1.6h0.1
					c0.2-0.5,0.3-1,0.5-1.6s0.3-1.1,0.5-1.6l2-6.2h1.8l-4.2,12.1c-0.2,0.6-0.4,1.1-0.7,1.5s-0.5,0.9-0.9,1.2
					c-0.3,0.3-0.7,0.6-1.1,0.8C317.1,234.4,316.6,234.5,316,234.5z"/>
				<path class="st2" d="M330.8,229.9c-0.7,0-1.3-0.1-2-0.4s-1.2-0.6-1.6-1.1c-0.5-0.5-0.9-1.1-1.1-1.8c-0.3-0.7-0.4-1.6-0.4-2.5
					c0-0.9,0.1-1.8,0.4-2.5c0.3-0.7,0.7-1.3,1.1-1.9s1-0.9,1.6-1.2c0.6-0.3,1.3-0.4,2-0.4c0.7,0,1.3,0.1,2,0.4
					c0.6,0.3,1.2,0.6,1.6,1.2c0.5,0.5,0.9,1.1,1.1,1.9c0.3,0.7,0.4,1.6,0.4,2.5c0,0.9-0.1,1.7-0.4,2.5c-0.3,0.7-0.7,1.3-1.1,1.8
					c-0.5,0.5-1,0.9-1.6,1.1C332.2,229.8,331.5,229.9,330.8,229.9z M330.8,228.4c0.5,0,0.9-0.1,1.3-0.3s0.7-0.5,1-0.9
					c0.3-0.4,0.5-0.8,0.7-1.3c0.2-0.5,0.2-1.1,0.2-1.7c0-0.6-0.1-1.2-0.2-1.8c-0.2-0.5-0.4-1-0.7-1.4c-0.3-0.4-0.6-0.7-1-0.9
					s-0.8-0.3-1.3-0.3c-0.5,0-0.9,0.1-1.3,0.3s-0.7,0.5-1,0.9c-0.3,0.4-0.5,0.8-0.7,1.4c-0.2,0.5-0.2,1.1-0.2,1.8
					c0,0.6,0.1,1.2,0.2,1.7c0.2,0.5,0.4,1,0.7,1.3c0.3,0.4,0.6,0.7,1,0.9S330.4,228.4,330.8,228.4z"/>
				<path class="st2" d="M342.2,229.9c-1.2,0-2.1-0.4-2.6-1.1c-0.5-0.7-0.8-1.8-0.8-3.3v-7.1h1.9v6.8c0,1.1,0.2,1.8,0.5,2.3
					c0.3,0.5,0.9,0.7,1.6,0.7c0.6,0,1.1-0.1,1.5-0.4c0.4-0.3,0.9-0.8,1.5-1.4v-7.9h1.9v11.2h-1.6l-0.2-1.7h-0.1
					c-0.5,0.6-1.1,1.1-1.6,1.5C343.7,229.7,343,229.9,342.2,229.9z"/>
				<path class="st2" d="M351.5,229.7v-11.2h1.6l0.2,2h0.1c0.4-0.7,0.8-1.3,1.4-1.7c0.5-0.4,1.1-0.6,1.8-0.6c0.4,0,0.8,0.1,1.2,0.2
					l-0.4,1.7c-0.2-0.1-0.4-0.1-0.5-0.1c-0.2,0-0.3,0-0.6,0c-0.5,0-1,0.2-1.5,0.6c-0.5,0.4-1,1-1.3,2v7.2H351.5z"/>
			</g>
			<g class="st3">
				<path class="st2" d="M2.2,276.7V267H0.7v-1.4l1.5-0.1v-1.8c0-1.1,0.3-2.1,0.8-2.7s1.4-1,2.5-1c0.4,0,0.7,0,1,0.1
					c0.3,0.1,0.6,0.2,0.9,0.3l-0.4,1.4c-0.4-0.2-0.8-0.3-1.3-0.3c-1,0-1.6,0.7-1.6,2.2v1.8h2.4v1.5H4.1v9.6H2.2z"/>
				<path class="st2" d="M11.9,276.9c-1.2,0-2.1-0.4-2.6-1.1c-0.5-0.7-0.8-1.8-0.8-3.3v-7.1h1.9v6.8c0,1.1,0.2,1.8,0.5,2.3
					s0.9,0.7,1.6,0.7c0.6,0,1.1-0.1,1.5-0.4c0.4-0.3,0.9-0.8,1.5-1.4v-7.9h1.9v11.2h-1.6l-0.2-1.7h-0.1c-0.5,0.6-1.1,1.1-1.6,1.5
					C13.3,276.7,12.6,276.9,11.9,276.9z"/>
				<path class="st2" d="M21.1,276.7v-11.2h1.6l0.2,1.6h0.1c0.5-0.5,1.1-1,1.7-1.3c0.6-0.4,1.3-0.5,2.1-0.5c1.2,0,2,0.4,2.6,1.1
					c0.5,0.7,0.8,1.8,0.8,3.3v7.1h-1.9v-6.8c0-1.1-0.2-1.8-0.5-2.3s-0.9-0.7-1.6-0.7c-0.6,0-1.1,0.1-1.5,0.4c-0.4,0.3-1,0.7-1.5,1.3
					v8.1H21.1z"/>
				<path class="st2" d="M37.5,276.9c-1.4,0-2.5-0.5-3.4-1.5c-0.8-1-1.3-2.5-1.3-4.3c0-0.9,0.1-1.7,0.4-2.4c0.3-0.7,0.6-1.3,1.1-1.9
					c0.4-0.5,1-0.9,1.5-1.2c0.6-0.3,1.2-0.4,1.8-0.4s1.2,0.1,1.7,0.3c0.5,0.2,1,0.5,1.4,0.9l-0.1-1.9v-4.3h1.9v16.4h-1.6l-0.2-1.3
					h-0.1c-0.4,0.4-1,0.8-1.5,1.1C38.8,276.8,38.2,276.9,37.5,276.9z M37.9,275.3c0.5,0,1-0.1,1.5-0.4s0.9-0.6,1.4-1.2V268
					c-0.5-0.4-0.9-0.7-1.4-0.9c-0.4-0.2-0.9-0.3-1.3-0.3c-0.4,0-0.9,0.1-1.3,0.3s-0.7,0.5-1,0.9c-0.3,0.4-0.5,0.8-0.7,1.3
					c-0.2,0.5-0.3,1.1-0.3,1.7c0,1.3,0.3,2.4,0.8,3.2C36.2,275,36.9,275.3,37.9,275.3z"/>
				<path class="st2" d="M49.4,276.9c-0.8,0-1.6-0.1-2.3-0.4s-1.3-0.7-1.9-1.1l0.9-1.3c0.5,0.4,1,0.7,1.5,1c0.5,0.2,1.1,0.4,1.8,0.4
					c0.7,0,1.3-0.2,1.7-0.5c0.4-0.3,0.6-0.8,0.6-1.2c0-0.3-0.1-0.5-0.2-0.8s-0.3-0.4-0.6-0.6c-0.2-0.2-0.5-0.3-0.8-0.4
					c-0.3-0.1-0.6-0.2-0.9-0.4c-0.4-0.1-0.8-0.3-1.2-0.5c-0.4-0.2-0.8-0.4-1.1-0.6c-0.3-0.3-0.6-0.5-0.8-0.9
					c-0.2-0.3-0.3-0.7-0.3-1.2c0-0.4,0.1-0.9,0.3-1.3c0.2-0.4,0.4-0.7,0.8-1c0.3-0.3,0.7-0.5,1.2-0.7c0.5-0.2,1-0.2,1.6-0.2
					c0.7,0,1.4,0.1,1.9,0.4s1.1,0.5,1.5,0.9l-0.9,1.2c-0.4-0.3-0.8-0.5-1.2-0.7s-0.9-0.3-1.4-0.3c-0.7,0-1.2,0.2-1.6,0.5
					s-0.5,0.7-0.5,1.1c0,0.3,0.1,0.5,0.2,0.7c0.1,0.2,0.3,0.4,0.6,0.5s0.5,0.3,0.8,0.4c0.3,0.1,0.6,0.2,0.9,0.4
					c0.4,0.2,0.8,0.3,1.2,0.5c0.4,0.2,0.8,0.4,1.1,0.6c0.3,0.3,0.6,0.6,0.8,0.9c0.2,0.4,0.3,0.8,0.3,1.3c0,0.5-0.1,0.9-0.3,1.3
					c-0.2,0.4-0.4,0.8-0.8,1.1s-0.8,0.5-1.3,0.7C50.6,276.8,50,276.9,49.4,276.9z"/>
				<path class="st2" d="M61,276.7V267h-1.5v-1.4l1.5-0.1v-1.8c0-1.1,0.3-2.1,0.8-2.7s1.4-1,2.5-1c0.4,0,0.7,0,1,0.1
					c0.3,0.1,0.6,0.2,0.9,0.3l-0.4,1.4c-0.4-0.2-0.8-0.3-1.3-0.3c-1,0-1.6,0.7-1.6,2.2v1.8h2.4v1.5h-2.4v9.6H61z"/>
				<path class="st2" d="M71.5,276.9c-0.7,0-1.3-0.1-2-0.4s-1.2-0.6-1.6-1.1c-0.5-0.5-0.9-1.1-1.1-1.8c-0.3-0.7-0.4-1.6-0.4-2.5
					c0-0.9,0.1-1.8,0.4-2.5s0.7-1.3,1.1-1.9c0.5-0.5,1-0.9,1.6-1.2c0.6-0.3,1.3-0.4,2-0.4s1.3,0.1,2,0.4c0.6,0.3,1.2,0.6,1.6,1.2
					c0.5,0.5,0.9,1.1,1.1,1.9s0.4,1.6,0.4,2.5c0,0.9-0.1,1.7-0.4,2.5c-0.3,0.7-0.7,1.3-1.1,1.8c-0.5,0.5-1,0.9-1.6,1.1
					C72.9,276.8,72.2,276.9,71.5,276.9z M71.5,275.4c0.5,0,0.9-0.1,1.3-0.3c0.4-0.2,0.7-0.5,1-0.9c0.3-0.4,0.5-0.8,0.7-1.3
					c0.2-0.5,0.2-1.1,0.2-1.7c0-0.6-0.1-1.2-0.2-1.8c-0.2-0.5-0.4-1-0.7-1.4c-0.3-0.4-0.6-0.7-1-0.9c-0.4-0.2-0.8-0.3-1.3-0.3
					c-0.5,0-0.9,0.1-1.3,0.3c-0.4,0.2-0.7,0.5-1,0.9c-0.3,0.4-0.5,0.8-0.7,1.4c-0.2,0.5-0.2,1.1-0.2,1.8c0,0.6,0.1,1.2,0.2,1.7
					c0.2,0.5,0.4,1,0.7,1.3c0.3,0.4,0.6,0.7,1,0.9C70.6,275.3,71.1,275.4,71.5,275.4z"/>
				<path class="st2" d="M79.6,276.7v-11.2h1.6l0.2,2h0.1c0.4-0.7,0.8-1.3,1.4-1.7s1.1-0.6,1.8-0.6c0.4,0,0.8,0.1,1.2,0.2l-0.4,1.7
					c-0.2-0.1-0.4-0.1-0.5-0.1c-0.2,0-0.3,0-0.6,0c-0.5,0-1,0.2-1.5,0.6c-0.5,0.4-1,1-1.3,2v7.2H79.6z"/>
				<path class="st2" d="M92.4,281.5c-0.3,0-0.5,0-0.7-0.1s-0.4-0.1-0.6-0.2l0.4-1.5c0.1,0,0.3,0.1,0.4,0.1s0.3,0.1,0.4,0.1
					c0.6,0,1.2-0.2,1.6-0.7c0.4-0.5,0.7-1,1-1.7l0.3-0.8l-4.5-11.2h2l2.3,6.2c0.2,0.5,0.3,1,0.5,1.6s0.4,1.1,0.5,1.6H96
					c0.2-0.5,0.3-1,0.5-1.6c0.2-0.6,0.3-1.1,0.5-1.6l2-6.2h1.8l-4.2,12.1c-0.2,0.6-0.4,1.1-0.7,1.5s-0.5,0.9-0.9,1.2
					s-0.7,0.6-1.1,0.8S93,281.5,92.4,281.5z"/>
				<path class="st2" d="M107.2,276.9c-0.7,0-1.3-0.1-2-0.4s-1.2-0.6-1.6-1.1c-0.5-0.5-0.9-1.1-1.1-1.8c-0.3-0.7-0.4-1.6-0.4-2.5
					c0-0.9,0.1-1.8,0.4-2.5s0.7-1.3,1.1-1.9c0.5-0.5,1-0.9,1.6-1.2c0.6-0.3,1.3-0.4,2-0.4s1.3,0.1,2,0.4c0.6,0.3,1.2,0.6,1.6,1.2
					c0.5,0.5,0.9,1.1,1.1,1.9s0.4,1.6,0.4,2.5c0,0.9-0.1,1.7-0.4,2.5c-0.3,0.7-0.7,1.3-1.1,1.8c-0.5,0.5-1,0.9-1.6,1.1
					C108.6,276.8,107.9,276.9,107.2,276.9z M107.2,275.4c0.5,0,0.9-0.1,1.3-0.3c0.4-0.2,0.7-0.5,1-0.9c0.3-0.4,0.5-0.8,0.7-1.3
					c0.2-0.5,0.2-1.1,0.2-1.7c0-0.6-0.1-1.2-0.2-1.8c-0.2-0.5-0.4-1-0.7-1.4c-0.3-0.4-0.6-0.7-1-0.9c-0.4-0.2-0.8-0.3-1.3-0.3
					c-0.5,0-0.9,0.1-1.3,0.3c-0.4,0.2-0.7,0.5-1,0.9c-0.3,0.4-0.5,0.8-0.7,1.4c-0.2,0.5-0.2,1.1-0.2,1.8c0,0.6,0.1,1.2,0.2,1.7
					c0.2,0.5,0.4,1,0.7,1.3c0.3,0.4,0.6,0.7,1,0.9C106.3,275.3,106.7,275.4,107.2,275.4z"/>
				<path class="st2" d="M118.6,276.9c-1.2,0-2.1-0.4-2.6-1.1c-0.5-0.7-0.8-1.8-0.8-3.3v-7.1h1.9v6.8c0,1.1,0.2,1.8,0.5,2.3
					s0.9,0.7,1.6,0.7c0.6,0,1.1-0.1,1.5-0.4c0.4-0.3,0.9-0.8,1.5-1.4v-7.9h1.9v11.2h-1.6l-0.2-1.7h-0.1c-0.5,0.6-1.1,1.1-1.6,1.5
					C120.1,276.7,119.4,276.9,118.6,276.9z"/>
				<path class="st2" d="M135.7,276.9c-1.2,0-2.1-0.4-2.6-1.1c-0.5-0.7-0.8-1.8-0.8-3.3v-7.1h1.9v6.8c0,1.1,0.2,1.8,0.5,2.3
					s0.9,0.7,1.6,0.7c0.6,0,1.1-0.1,1.5-0.4c0.4-0.3,0.9-0.8,1.5-1.4v-7.9h1.9v11.2h-1.6l-0.2-1.7h-0.1c-0.5,0.6-1.1,1.1-1.6,1.5
					C137.2,276.7,136.5,276.9,135.7,276.9z"/>
				<path class="st2" d="M145,276.7v-11.2h1.6l0.2,1.6h0.1c0.5-0.5,1.1-1,1.7-1.3c0.6-0.4,1.3-0.5,2.1-0.5c1.2,0,2,0.4,2.6,1.1
					c0.5,0.7,0.8,1.8,0.8,3.3v7.1H152v-6.8c0-1.1-0.2-1.8-0.5-2.3s-0.9-0.7-1.6-0.7c-0.6,0-1.1,0.1-1.5,0.4c-0.4,0.3-1,0.7-1.5,1.3
					v8.1H145z"/>
				<path class="st2" d="M161.1,276.9c-0.6,0-1.1-0.1-1.5-0.3s-0.7-0.4-1-0.8s-0.4-0.7-0.5-1.2c-0.1-0.5-0.2-1-0.2-1.5V267h-1.7
					v-1.4l1.7-0.1l0.2-3.1h1.6v3.1h3v1.5h-3v6.2c0,0.7,0.1,1.2,0.4,1.6s0.7,0.6,1.3,0.6c0.2,0,0.4,0,0.6-0.1
					c0.2-0.1,0.4-0.1,0.6-0.2l0.4,1.4c-0.3,0.1-0.6,0.2-1,0.3C161.8,276.9,161.4,276.9,161.1,276.9z"/>
				<path class="st2" d="M166.3,263.2c-0.4,0-0.7-0.1-0.9-0.3c-0.3-0.2-0.4-0.5-0.4-0.9c0-0.4,0.1-0.7,0.4-0.9
					c0.3-0.2,0.6-0.3,0.9-0.3s0.7,0.1,0.9,0.3c0.3,0.2,0.4,0.5,0.4,0.9c0,0.4-0.1,0.6-0.4,0.9C167,263.1,166.7,263.2,166.3,263.2z
					 M165.3,276.7v-11.2h1.9v11.2H165.3z"/>
				<path class="st2" d="M173,276.9c-0.7,0-1.2-0.2-1.5-0.6c-0.3-0.4-0.5-1.1-0.5-1.9v-14.1h1.9v14.3c0,0.3,0.1,0.5,0.2,0.6
					c0.1,0.1,0.2,0.2,0.4,0.2c0.1,0,0.1,0,0.2,0c0.1,0,0.1,0,0.2,0l0.3,1.4c-0.1,0.1-0.3,0.1-0.4,0.1
					C173.5,276.9,173.2,276.9,173,276.9z"/>
				<path class="st2" d="M181.6,281.5c-0.3,0-0.5,0-0.7-0.1s-0.4-0.1-0.6-0.2l0.4-1.5c0.1,0,0.3,0.1,0.4,0.1s0.3,0.1,0.4,0.1
					c0.6,0,1.2-0.2,1.6-0.7c0.4-0.5,0.7-1,1-1.7l0.3-0.8l-4.5-11.2h2l2.3,6.2c0.2,0.5,0.3,1,0.5,1.6s0.4,1.1,0.5,1.6h0.1
					c0.2-0.5,0.3-1,0.5-1.6c0.2-0.6,0.3-1.1,0.5-1.6l2-6.2h1.8l-4.2,12.1c-0.2,0.6-0.4,1.1-0.7,1.5s-0.5,0.9-0.9,1.2
					s-0.7,0.6-1.1,0.8S182.2,281.5,181.6,281.5z"/>
				<path class="st2" d="M196.4,276.9c-0.7,0-1.3-0.1-2-0.4s-1.2-0.6-1.6-1.1c-0.5-0.5-0.9-1.1-1.1-1.8c-0.3-0.7-0.4-1.6-0.4-2.5
					c0-0.9,0.1-1.8,0.4-2.5c0.3-0.7,0.7-1.3,1.1-1.9s1-0.9,1.6-1.2c0.6-0.3,1.3-0.4,2-0.4c0.7,0,1.3,0.1,2,0.4
					c0.6,0.3,1.2,0.6,1.6,1.2c0.5,0.5,0.9,1.1,1.1,1.9c0.3,0.7,0.4,1.6,0.4,2.5c0,0.9-0.1,1.7-0.4,2.5c-0.3,0.7-0.7,1.3-1.1,1.8
					c-0.5,0.5-1,0.9-1.6,1.1C197.8,276.8,197.1,276.9,196.4,276.9z M196.4,275.4c0.5,0,0.9-0.1,1.3-0.3s0.7-0.5,1-0.9
					c0.3-0.4,0.5-0.8,0.7-1.3c0.2-0.5,0.2-1.1,0.2-1.7c0-0.6-0.1-1.2-0.2-1.8c-0.2-0.5-0.4-1-0.7-1.4c-0.3-0.4-0.6-0.7-1-0.9
					s-0.8-0.3-1.3-0.3c-0.5,0-0.9,0.1-1.3,0.3s-0.7,0.5-1,0.9c-0.3,0.4-0.5,0.8-0.7,1.4c-0.2,0.5-0.2,1.1-0.2,1.8
					c0,0.6,0.1,1.2,0.2,1.7c0.2,0.5,0.4,1,0.7,1.3c0.3,0.4,0.6,0.7,1,0.9S196,275.4,196.4,275.4z"/>
				<path class="st2" d="M207.8,276.9c-1.2,0-2.1-0.4-2.6-1.1c-0.5-0.7-0.8-1.8-0.8-3.3v-7.1h1.9v6.8c0,1.1,0.2,1.8,0.5,2.3
					c0.3,0.5,0.9,0.7,1.6,0.7c0.6,0,1.1-0.1,1.5-0.4c0.4-0.3,0.9-0.8,1.5-1.4v-7.9h1.9v11.2h-1.6l-0.2-1.7h-0.1
					c-0.5,0.6-1.1,1.1-1.6,1.5C209.3,276.7,208.6,276.9,207.8,276.9z"/>
				<path class="st2" d="M224.2,276.9c-0.9,0-1.7-0.3-2.3-0.8s-0.9-1.3-0.9-2.3c0-1.2,0.5-2.2,1.6-2.8c1.1-0.7,2.8-1.1,5.2-1.4
					c0-0.4,0-0.7-0.1-1c-0.1-0.3-0.2-0.6-0.4-0.9s-0.4-0.5-0.7-0.6c-0.3-0.2-0.7-0.2-1.1-0.2c-0.6,0-1.3,0.1-1.8,0.4
					c-0.6,0.2-1.1,0.5-1.5,0.8l-0.7-1.3c0.5-0.3,1.2-0.7,1.9-1c0.8-0.3,1.6-0.5,2.5-0.5c1.4,0,2.4,0.4,3,1.3c0.6,0.8,0.9,2,0.9,3.3
					v6.9h-1.6l-0.2-1.3H228c-0.5,0.4-1.1,0.8-1.7,1.1C225.6,276.8,225,276.9,224.2,276.9z M224.8,275.4c0.5,0,1-0.1,1.5-0.4
					c0.5-0.3,1-0.6,1.5-1.1v-3.1c-0.9,0.1-1.7,0.3-2.4,0.4c-0.6,0.2-1.2,0.4-1.5,0.6c-0.4,0.2-0.7,0.5-0.9,0.8
					c-0.2,0.3-0.3,0.6-0.3,1c0,0.6,0.2,1.1,0.6,1.4C223.8,275.3,224.2,275.4,224.8,275.4z"/>
				<path class="st2" d="M233.3,276.7v-11.2h1.6l0.2,2h0.1c0.4-0.7,0.8-1.3,1.4-1.7c0.5-0.4,1.1-0.6,1.8-0.6c0.4,0,0.8,0.1,1.2,0.2
					l-0.4,1.7c-0.2-0.1-0.4-0.1-0.5-0.1c-0.2,0-0.3,0-0.6,0c-0.5,0-1,0.2-1.5,0.6c-0.5,0.4-1,1-1.3,2v7.2H233.3z"/>
				<path class="st2" d="M245.5,276.9c-0.8,0-1.5-0.1-2.1-0.4c-0.7-0.3-1.2-0.7-1.7-1.1c-0.5-0.5-0.9-1.1-1.1-1.8
					c-0.3-0.7-0.4-1.5-0.4-2.5s0.1-1.7,0.4-2.5c0.3-0.7,0.7-1.3,1.1-1.9c0.5-0.5,1-0.9,1.6-1.2c0.6-0.3,1.2-0.4,1.9-0.4
					c0.7,0,1.3,0.1,1.9,0.4c0.6,0.2,1,0.6,1.4,1.1s0.7,1,0.9,1.7c0.2,0.6,0.3,1.4,0.3,2.2c0,0.2,0,0.4,0,0.6c0,0.2,0,0.4-0.1,0.5
					H242c0.1,1.2,0.4,2.1,1.1,2.8c0.7,0.7,1.5,1,2.6,1c0.5,0,1-0.1,1.5-0.2s0.9-0.4,1.3-0.6l0.7,1.2c-0.5,0.3-1,0.6-1.6,0.8
					C247,276.8,246.3,276.9,245.5,276.9z M242,270.2h6c0-1.1-0.2-2-0.7-2.6c-0.5-0.6-1.2-0.9-2-0.9c-0.4,0-0.8,0.1-1.1,0.2
					c-0.4,0.2-0.7,0.4-1,0.7c-0.3,0.3-0.5,0.7-0.7,1.1C242.2,269.1,242.1,269.6,242,270.2z"/>
				<path class="st2" d="M257,276.7v-11.2h1.6l0.2,2h0.1c0.4-0.7,0.8-1.3,1.4-1.7c0.5-0.4,1.1-0.6,1.8-0.6c0.4,0,0.8,0.1,1.2,0.2
					l-0.4,1.7c-0.2-0.1-0.4-0.1-0.5-0.1c-0.2,0-0.3,0-0.6,0c-0.5,0-1,0.2-1.5,0.6c-0.5,0.4-1,1-1.3,2v7.2H257z"/>
				<path class="st2" d="M269.3,276.9c-0.8,0-1.5-0.1-2.1-0.4c-0.7-0.3-1.2-0.7-1.7-1.1c-0.5-0.5-0.9-1.1-1.1-1.8
					c-0.3-0.7-0.4-1.5-0.4-2.5s0.1-1.7,0.4-2.5c0.3-0.7,0.7-1.3,1.1-1.9c0.5-0.5,1-0.9,1.6-1.2c0.6-0.3,1.2-0.4,1.9-0.4
					c0.7,0,1.3,0.1,1.9,0.4s1,0.6,1.4,1.1c0.4,0.5,0.7,1,0.9,1.7c0.2,0.6,0.3,1.4,0.3,2.2c0,0.2,0,0.4,0,0.6c0,0.2,0,0.4-0.1,0.5
					h-7.5c0.1,1.2,0.4,2.1,1.1,2.8c0.7,0.7,1.5,1,2.6,1c0.5,0,1-0.1,1.5-0.2s0.9-0.4,1.3-0.6l0.7,1.2c-0.5,0.3-1,0.6-1.6,0.8
					C270.8,276.8,270.1,276.9,269.3,276.9z M265.8,270.2h6c0-1.1-0.2-2-0.7-2.6c-0.5-0.6-1.2-0.9-2-0.9c-0.4,0-0.8,0.1-1.1,0.2
					s-0.7,0.4-1,0.7s-0.5,0.7-0.7,1.1C266,269.1,265.8,269.6,265.8,270.2z"/>
				<path class="st2" d="M278.4,276.9c-0.9,0-1.7-0.3-2.3-0.8s-0.9-1.3-0.9-2.3c0-1.2,0.5-2.2,1.6-2.8c1.1-0.7,2.8-1.1,5.2-1.4
					c0-0.4,0-0.7-0.1-1c-0.1-0.3-0.2-0.6-0.4-0.9s-0.4-0.5-0.7-0.6s-0.7-0.2-1.1-0.2c-0.6,0-1.3,0.1-1.8,0.4
					c-0.6,0.2-1.1,0.5-1.5,0.8l-0.7-1.3c0.5-0.3,1.2-0.7,1.9-1s1.6-0.5,2.5-0.5c1.4,0,2.4,0.4,3,1.3s0.9,2,0.9,3.3v6.9h-1.6
					l-0.2-1.3h-0.1c-0.5,0.4-1.1,0.8-1.7,1.1C279.8,276.8,279.1,276.9,278.4,276.9z M279,275.4c0.5,0,1-0.1,1.5-0.4s1-0.6,1.5-1.1
					v-3.1c-0.9,0.1-1.7,0.3-2.4,0.4c-0.6,0.2-1.1,0.4-1.5,0.6c-0.4,0.2-0.7,0.5-0.9,0.8c-0.2,0.3-0.3,0.6-0.3,1
					c0,0.6,0.2,1.1,0.6,1.4C278,275.3,278.4,275.4,279,275.4z"/>
				<path class="st2" d="M291.3,276.9c-1.4,0-2.5-0.5-3.4-1.5c-0.8-1-1.3-2.5-1.3-4.3c0-0.9,0.1-1.7,0.4-2.4
					c0.3-0.7,0.6-1.3,1.1-1.9c0.4-0.5,1-0.9,1.5-1.2c0.6-0.3,1.2-0.4,1.8-0.4c0.6,0,1.2,0.1,1.7,0.3c0.5,0.2,1,0.5,1.4,0.9l-0.1-1.9
					v-4.3h1.9v16.4h-1.6l-0.2-1.3h-0.1c-0.4,0.4-1,0.8-1.5,1.1C292.5,276.8,291.9,276.9,291.3,276.9z M291.7,275.3
					c0.5,0,1-0.1,1.5-0.4s0.9-0.6,1.4-1.2V268c-0.5-0.4-0.9-0.7-1.4-0.9c-0.4-0.2-0.9-0.3-1.3-0.3c-0.4,0-0.9,0.1-1.3,0.3
					c-0.4,0.2-0.7,0.5-1,0.9c-0.3,0.4-0.5,0.8-0.7,1.3s-0.3,1.1-0.3,1.7c0,1.3,0.3,2.4,0.8,3.2C289.9,275,290.7,275.3,291.7,275.3z"
					/>
				<path class="st2" d="M300.4,281.5c-0.3,0-0.5,0-0.7-0.1s-0.4-0.1-0.6-0.2l0.4-1.5c0.1,0,0.3,0.1,0.4,0.1s0.3,0.1,0.4,0.1
					c0.6,0,1.2-0.2,1.6-0.7s0.7-1,1-1.7l0.3-0.8l-4.5-11.2h2l2.3,6.2c0.2,0.5,0.3,1,0.5,1.6c0.2,0.5,0.4,1.1,0.5,1.6h0.1
					c0.2-0.5,0.3-1,0.5-1.6s0.3-1.1,0.5-1.6l2-6.2h1.8l-4.2,12.1c-0.2,0.6-0.4,1.1-0.7,1.5s-0.5,0.9-0.9,1.2
					c-0.3,0.3-0.7,0.6-1.1,0.8C301.5,281.4,301,281.5,300.4,281.5z"/>
				<path class="st2" d="M319.1,276.9c-0.6,0-1.1-0.1-1.5-0.3s-0.7-0.4-1-0.8s-0.4-0.7-0.5-1.2s-0.2-1-0.2-1.5V267h-1.7v-1.4
					l1.7-0.1l0.2-3.1h1.6v3.1h3v1.5h-3v6.2c0,0.7,0.1,1.2,0.4,1.6s0.7,0.6,1.3,0.6c0.2,0,0.4,0,0.6-0.1c0.2-0.1,0.4-0.1,0.6-0.2
					l0.4,1.4c-0.3,0.1-0.6,0.2-1,0.3S319.4,276.9,319.1,276.9z"/>
				<path class="st2" d="M327.4,276.9c-0.7,0-1.3-0.1-2-0.4s-1.2-0.6-1.6-1.1c-0.5-0.5-0.9-1.1-1.1-1.8c-0.3-0.7-0.4-1.6-0.4-2.5
					c0-0.9,0.1-1.8,0.4-2.5c0.3-0.7,0.7-1.3,1.1-1.9s1-0.9,1.6-1.2c0.6-0.3,1.3-0.4,2-0.4c0.7,0,1.3,0.1,2,0.4
					c0.6,0.3,1.2,0.6,1.6,1.2c0.5,0.5,0.9,1.1,1.1,1.9c0.3,0.7,0.4,1.6,0.4,2.5c0,0.9-0.1,1.7-0.4,2.5c-0.3,0.7-0.7,1.3-1.1,1.8
					c-0.5,0.5-1,0.9-1.6,1.1C328.7,276.8,328,276.9,327.4,276.9z M327.4,275.4c0.5,0,0.9-0.1,1.3-0.3s0.7-0.5,1-0.9
					c0.3-0.4,0.5-0.8,0.7-1.3c0.2-0.5,0.2-1.1,0.2-1.7c0-0.6-0.1-1.2-0.2-1.8c-0.2-0.5-0.4-1-0.7-1.4c-0.3-0.4-0.6-0.7-1-0.9
					s-0.8-0.3-1.3-0.3c-0.5,0-0.9,0.1-1.3,0.3s-0.7,0.5-1,0.9c-0.3,0.4-0.5,0.8-0.7,1.4c-0.2,0.5-0.2,1.1-0.2,1.8
					c0,0.6,0.1,1.2,0.2,1.7c0.2,0.5,0.4,1,0.7,1.3c0.3,0.4,0.6,0.7,1,0.9S326.9,275.4,327.4,275.4z"/>
			</g>
			<g class="st3">
				<path class="st2" d="M3.7,323.7l-3.1-11.2h1.9l1.7,6.5c0.1,0.5,0.2,1.1,0.3,1.6c0.1,0.5,0.2,1,0.3,1.5h0.1
					c0.1-0.5,0.2-1,0.4-1.6c0.1-0.5,0.3-1,0.4-1.6l1.7-6.5h1.8l1.7,6.5c0.1,0.5,0.3,1.1,0.4,1.6c0.1,0.5,0.3,1,0.4,1.5h0.1
					c0.1-0.5,0.2-1,0.3-1.5c0.1-0.5,0.2-1,0.3-1.6l1.6-6.5H16l-3,11.2h-2.3l-1.6-6c-0.1-0.5-0.3-1.1-0.4-1.6
					c-0.1-0.5-0.2-1.1-0.4-1.6H8.2c-0.1,0.6-0.2,1.1-0.4,1.6c-0.1,0.5-0.3,1.1-0.4,1.6l-1.6,6H3.7z"/>
				<path class="st2" d="M19.4,310.2c-0.4,0-0.7-0.1-0.9-0.3c-0.3-0.2-0.4-0.5-0.4-0.9c0-0.4,0.1-0.7,0.4-0.9
					c0.3-0.2,0.6-0.3,0.9-0.3s0.7,0.1,0.9,0.3c0.3,0.2,0.4,0.5,0.4,0.9c0,0.4-0.1,0.6-0.4,0.9C20,310.1,19.7,310.2,19.4,310.2z
					 M18.4,323.7v-11.2h1.9v11.2H18.4z"/>
				<path class="st2" d="M27.6,323.9c-0.6,0-1.1-0.1-1.5-0.3s-0.7-0.4-1-0.8s-0.4-0.7-0.5-1.2c-0.1-0.5-0.2-1-0.2-1.5V314h-1.7v-1.4
					l1.7-0.1l0.2-3.1h1.6v3.1h3v1.5h-3v6.2c0,0.7,0.1,1.2,0.4,1.6s0.7,0.6,1.3,0.6c0.2,0,0.4,0,0.6-0.1c0.2-0.1,0.4-0.1,0.6-0.2
					l0.4,1.4c-0.3,0.1-0.6,0.2-1,0.3C28.3,323.9,27.9,323.9,27.6,323.9z"/>
				<path class="st2" d="M31.8,323.7v-16.4h1.9v4.5l-0.1,2.3c0.5-0.5,1.1-0.9,1.7-1.3s1.3-0.5,2-0.5c1.2,0,2,0.4,2.6,1.1
					c0.5,0.7,0.8,1.8,0.8,3.3v7.1h-1.9v-6.8c0-1.1-0.2-1.8-0.5-2.3s-0.9-0.7-1.6-0.7c-0.6,0-1.1,0.1-1.5,0.4c-0.4,0.3-1,0.7-1.5,1.3
					v8.1H31.8z"/>
				<path class="st2" d="M48.2,323.9c-1.4,0-2.5-0.5-3.4-1.5c-0.8-1-1.3-2.5-1.3-4.3c0-0.9,0.1-1.7,0.4-2.4c0.3-0.7,0.6-1.3,1.1-1.9
					c0.4-0.5,1-0.9,1.5-1.2c0.6-0.3,1.2-0.4,1.8-0.4s1.2,0.1,1.7,0.3c0.5,0.2,1,0.5,1.4,0.9l-0.1-1.9v-4.3h1.9v16.4h-1.6l-0.2-1.3
					h-0.1c-0.4,0.4-1,0.8-1.5,1.1C49.4,323.8,48.8,323.9,48.2,323.9z M48.6,322.3c0.5,0,1-0.1,1.5-0.4s0.9-0.6,1.4-1.2V315
					c-0.5-0.4-0.9-0.7-1.4-0.9c-0.4-0.2-0.9-0.3-1.3-0.3c-0.4,0-0.9,0.1-1.3,0.3s-0.7,0.5-1,0.9c-0.3,0.4-0.5,0.8-0.7,1.3
					c-0.2,0.5-0.3,1.1-0.3,1.7c0,1.3,0.3,2.4,0.8,3.2C46.8,322,47.6,322.3,48.6,322.3z"/>
				<path class="st2" d="M57.1,323.7v-11.2h1.6l0.2,2h0.1c0.4-0.7,0.8-1.3,1.4-1.7s1.1-0.6,1.8-0.6c0.4,0,0.8,0.1,1.2,0.2l-0.4,1.7
					c-0.2-0.1-0.4-0.1-0.5-0.1c-0.2,0-0.3,0-0.6,0c-0.5,0-1,0.2-1.5,0.6c-0.5,0.4-1,1-1.3,2v7.2H57.1z"/>
				<path class="st2" d="M67.1,323.9c-0.9,0-1.7-0.3-2.3-0.8s-0.9-1.3-0.9-2.3c0-1.2,0.5-2.2,1.6-2.8c1.1-0.7,2.8-1.1,5.2-1.4
					c0-0.4,0-0.7-0.1-1c-0.1-0.3-0.2-0.6-0.4-0.9s-0.4-0.5-0.7-0.6c-0.3-0.2-0.7-0.2-1.1-0.2c-0.6,0-1.3,0.1-1.8,0.4
					c-0.6,0.2-1.1,0.5-1.5,0.8l-0.7-1.3c0.5-0.3,1.2-0.7,1.9-1c0.8-0.3,1.6-0.5,2.5-0.5c1.4,0,2.4,0.4,3,1.3c0.6,0.8,0.9,2,0.9,3.3
					v6.9H71l-0.2-1.3h-0.1c-0.5,0.4-1.1,0.8-1.7,1.1C68.5,323.8,67.8,323.9,67.1,323.9z M67.7,322.4c0.5,0,1-0.1,1.5-0.4
					c0.5-0.3,1-0.6,1.5-1.1v-3.1c-0.9,0.1-1.7,0.3-2.4,0.4c-0.6,0.2-1.1,0.4-1.5,0.6c-0.4,0.2-0.7,0.5-0.9,0.8s-0.3,0.6-0.3,1
					c0,0.6,0.2,1.1,0.6,1.4C66.6,322.3,67.1,322.4,67.7,322.4z"/>
				<path class="st2" d="M77.9,323.7l-3.1-11.2h1.9l1.7,6.5c0.1,0.5,0.2,1.1,0.3,1.6c0.1,0.5,0.2,1,0.3,1.5h0.1
					c0.1-0.5,0.2-1,0.4-1.6c0.1-0.5,0.3-1,0.4-1.6l1.7-6.5h1.8l1.7,6.5c0.1,0.5,0.3,1.1,0.4,1.6c0.1,0.5,0.3,1,0.4,1.5h0.1
					c0.1-0.5,0.2-1,0.3-1.5c0.1-0.5,0.2-1,0.3-1.6l1.6-6.5h1.8l-3,11.2h-2.3l-1.6-6c-0.1-0.5-0.3-1.1-0.4-1.6
					c-0.1-0.5-0.2-1.1-0.4-1.6h-0.1c-0.1,0.6-0.2,1.1-0.4,1.6c-0.1,0.5-0.3,1.1-0.4,1.6l-1.6,6H77.9z"/>
				<path class="st2" d="M92.7,323.9c-0.4,0-0.7-0.1-1-0.4c-0.3-0.3-0.4-0.6-0.4-1c0-0.4,0.1-0.8,0.4-1.1c0.3-0.3,0.6-0.4,1-0.4
					c0.4,0,0.7,0.1,1,0.4c0.3,0.3,0.4,0.6,0.4,1.1c0,0.4-0.1,0.8-0.4,1C93.4,323.8,93.1,323.9,92.7,323.9z"/>
			</g>
		</g>
		<g id="secure-payment" transform="translate(126.665 169.61)">
			<g id="Group_1777">
				<path id="Path_2176" class="st4" d="M64.2,0h-57C3.2,0,0,3.2,0,7.2v38.9c0,4,3.2,7.2,7.2,7.2h57c4,0,7.2-3.2,7.2-7.2V7.2
					C71.4,3.2,68.2,0,64.2,0z"/>
			</g>
			<g id="Group_1778" transform="translate(46.294)">
				<path id="Path_2177" class="st5" d="M25.1,7.2v38.9c0,4-3.2,7.2-7.2,7.2H0V0h17.9C21.9,0,25.1,3.2,25.1,7.2z"/>
			</g>
			<g id="Group_1779" transform="translate(10.572 26.911)">
				<path id="Path_2178" class="st6" d="M0,0v29.6c0,4,3.2,7.2,7.2,7.2h57c4,0,7.2-3.2,7.2-7.2V0H0z"/>
			</g>
			<g id="Group_1780" transform="translate(46.294 26.911)">
				<path id="Path_2179" class="st4" d="M35.7,0v29.6c0,4-3.2,7.2-7.2,7.2H0V0H35.7z"/>
			</g>
			<g id="Group_1781" transform="translate(20.824 48.857)">
				<path id="Path_2180" class="st7" d="M7.5,4.8H2.4C1.1,4.8,0,3.7,0,2.4C0,1.1,1.1,0,2.4,0h5.1c1.3,0,2.4,1.1,2.4,2.4
					C9.9,3.7,8.9,4.8,7.5,4.8L7.5,4.8z"/>
			</g>
			<g id="Group_1782" transform="translate(36.202 48.857)">
				<path id="Path_2181" class="st7" d="M7.5,4.8H2.4C1.1,4.8,0,3.7,0,2.4C0,1.1,1.1,0,2.4,0l0,0h5.1c1.3,0,2.4,1.1,2.4,2.4
					C9.9,3.7,8.9,4.8,7.5,4.8L7.5,4.8z"/>
			</g>
			<g id="Group_1783" transform="translate(10.572 10.412)">
				<path id="Path_2182" class="st8" d="M71.4,7.2v9.3H0V7.2C0,3.2,3.2,0,7.2,0h57C68.2,0,71.4,3.2,71.4,7.2z"/>
			</g>
			<g id="Group_1784" transform="translate(46.294 10.412)">
				<path id="Path_2183" class="st6" d="M35.7,7.2v9.3H0V0h28.5C32.5,0,35.7,3.2,35.7,7.2z"/>
			</g>
			<g id="Group_1785" transform="translate(20.664 19.383)">
				<path id="Path_2184" class="st9" d="M20.3,15.1H2.4C1.1,15.1,0,14,0,12.7V2.4C0,1.1,1.1,0,2.4,0h17.9c1.3,0,2.4,1.1,2.4,2.4
					v10.3C22.7,14,21.7,15.1,20.3,15.1C20.3,15.1,20.3,15.1,20.3,15.1z"/>
			</g>
			<g id="Group_1786" transform="translate(41.328 33.639)">
				<path id="Path_2185" class="st10" d="M38.3,6.4H38c-5.9,0-11.6-2.1-16.2-5.9c-0.9-0.7-2.2-0.7-3.1,0C14.3,4.3,8.6,6.4,2.6,6.4
					H2.4C1.1,6.4,0,7.5,0,8.8v13.4C0,34.3,8,45,19.7,48.3c0.4,0.1,0.9,0.1,1.3,0c11.7-3.3,19.7-14,19.7-26.1V8.8
					C40.7,7.5,39.6,6.4,38.3,6.4C38.3,6.4,38.3,6.4,38.3,6.4z"/>
			</g>
			<g id="Group_1787" transform="translate(61.672 33.639)">
				<path id="Path_2186" class="st11" d="M20.3,8.8v13.4c0,12.1-8,22.8-19.7,26.1c-0.2,0.1-0.4,0.1-0.7,0.1V0c0.6,0,1.1,0.2,1.5,0.6
					c4.5,3.8,10.3,5.8,16.2,5.9h0.2C19.3,6.4,20.3,7.5,20.3,8.8C20.3,8.8,20.3,8.8,20.3,8.8z"/>
			</g>
			<g id="Group_1788" transform="translate(54.144 49.498)">
				<path id="Path_2187" class="st7" d="M19.2,4.1L9.2,14C8.3,15,6.8,15,5.8,14L0.7,8.9c-0.9-0.9-0.9-2.5,0-3.4s2.5-0.9,3.4,0
					l3.4,3.4l8.2-8.2c0.9-0.9,2.5-0.9,3.4,0S20.1,3.2,19.2,4.1L19.2,4.1z"/>
			</g>
			<g id="Group_1789" transform="translate(61.672 49.498)">
				<path id="Path_2188" class="st12" d="M11.6,4.1L1.7,14c-0.5,0.4-1.1,0.7-1.7,0.7V8.9l8.2-8.2c0.9-0.9,2.5-0.9,3.4,0
					S12.6,3.2,11.6,4.1L11.6,4.1z"/>
			</g>
		</g>
	</g>
</g>
</svg>
