<?xml version="1.0" encoding="utf-8"?>
<!-- Generator: Adobe Illustrator 23.0.5, SVG Export Plug-In . SVG Version: 6.00 Build 0)  -->
<svg version="1.1" xmlns="http://www.w3.org/2000/svg" xmlns:xlink="http://www.w3.org/1999/xlink" x="0px" y="0px"
	 viewBox="0 0 500 500" style="enable-background:new 0 0 500 500;" xml:space="preserve">
<style type="text/css">
	.st0{fill:#4C4C4C;}
	.st1{opacity:0.8;fill:url(#SVGID_1_);}
	.st2{fill:url(#SVGID_2_);}
	.st3{opacity:0.8;fill:url(#SVGID_3_);}
	.st4{fill:url(#SVGID_4_);}
	.st5{fill:#FFFFFF;}
	.st6{opacity:0.8;fill:url(#SVGID_5_);}
	.st7{fill:url(#SVGID_6_);}
	.st8{opacity:0.8;fill:url(#SVGID_7_);}
	.st9{fill:url(#SVGID_8_);}
	.st10{fill-rule:evenodd;clip-rule:evenodd;fill:#FFFFFF;}
	.st11{opacity:0.8;fill:url(#SVGID_9_);}
	.st12{fill:url(#SVGID_10_);}
	.st13{opacity:0.8;fill:url(#SVGID_11_);}
	.st14{fill:url(#SVGID_12_);}
	.st15{opacity:0.8;fill:url(#SVGID_13_);}
	.st16{fill:url(#SVGID_14_);}
	.st17{opacity:0.8;fill:url(#SVGID_15_);}
	.st18{fill:url(#SVGID_16_);}
	.st19{fill-rule:evenodd;clip-rule:evenodd;fill:#EE1D52;}
	.st20{fill-rule:evenodd;clip-rule:evenodd;fill:#69C9D0;}
	.st21{opacity:0.8;fill:url(#SVGID_17_);}
	.st22{fill:url(#SVGID_18_);}
	.st23{opacity:0.8;fill:url(#SVGID_19_);}
	.st24{fill:url(#SVGID_20_);}
	.st25{opacity:0.8;fill:url(#SVGID_21_);}
	.st26{fill:url(#SVGID_22_);}
	.st27{opacity:0.8;fill:url(#SVGID_23_);}
	.st28{fill:url(#SVGID_24_);}
	.st29{fill:url(#SVGID_25_);}
	.st30{fill:url(#SVGID_26_);}
	.st31{fill:url(#SVGID_27_);}
	.st32{fill:url(#SVGID_28_);}
	.st33{opacity:0.8;fill:url(#SVGID_29_);}
	.st34{opacity:0.8;fill:url(#SVGID_30_);}
	.st35{opacity:0.8;fill:url(#SVGID_31_);}
	.st36{opacity:0.8;fill:url(#SVGID_32_);}
	.st37{opacity:0.8;fill:url(#SVGID_33_);}
	.st38{opacity:0.8;fill:url(#SVGID_34_);}
	.st39{opacity:0.8;fill:url(#SVGID_35_);}
	.st40{opacity:0.8;fill:url(#SVGID_36_);}
	.st41{opacity:0.8;fill:url(#SVGID_37_);}
	.st42{opacity:0.8;fill:url(#SVGID_38_);}
	.st43{opacity:0.8;fill:url(#SVGID_39_);}
	.st44{opacity:0.8;fill:url(#SVGID_40_);}
</style>
<g id="BACKGROUND">
</g>
<g id="ELEMENTS">
	<g>
		<linearGradient id="SVGID_1_" gradientUnits="userSpaceOnUse" x1="406.6915" y1="86.5584" x2="91.3182" y2="401.9317">
			<stop  offset="0" style="stop-color:#007AB5"/>
			<stop  offset="1" style="stop-color:#0046E5"/>
		</linearGradient>
		<circle style="fill:url(#SVGID_1_);" cx="249" cy="244.2" r="223"/>
		<path class="st5" d="M155.5,202.7h43.2v138.7h-43.2V202.7z M177.1,133.8c13.8,0,25,11.2,25,25c0,13.8-11.2,25-25,25
			c-13.8,0-25-11.2-25-25C152,145,163.2,133.8,177.1,133.8"/>
		<path class="st5" d="M225.7,202.7h41.4v19h0.6c5.8-10.9,19.8-22.4,40.8-22.4c43.7,0,51.7,28.7,51.7,66.1v76.1h-43.1V274
			c0-16.1-0.3-36.8-22.4-36.8c-22.4,0-25.9,17.5-25.9,35.6v68.6h-43.1V202.7z"/>
	</g>
</g>
</svg>
