<?xml version="1.0" encoding="utf-8"?>
<!-- Generator: Adobe Illustrator 23.0.5, SVG Export Plug-In . SVG Version: 6.00 Build 0)  -->
<svg version="1.1" xmlns="http://www.w3.org/2000/svg" xmlns:xlink="http://www.w3.org/1999/xlink" x="0px" y="0px"
	 viewBox="0 0 500 500" style="enable-background:new 0 0 500 500;" xml:space="preserve">
<style type="text/css">
	.st0{fill:#4C4C4C;}
	.st1{opacity:0.8;fill:url(#SVGID_1_);}
	.st2{fill:url(#SVGID_2_);}
	.st3{opacity:0.8;fill:url(#SVGID_3_);}
	.st4{fill:url(#SVGID_4_);}
	.st5{fill:#FFFFFF;}
	.st6{opacity:0.8;fill:url(#SVGID_5_);}
	.st7{fill:url(#SVGID_6_);}
	.st8{opacity:0.8;fill:url(#SVGID_7_);}
	.st9{fill:url(#SVGID_8_);}
	.st10{fill-rule:evenodd;clip-rule:evenodd;fill:#FFFFFF;}
	.st11{opacity:0.8;fill:url(#SVGID_9_);}
	.st12{fill:url(#SVGID_10_);}
	.st13{opacity:0.8;fill:url(#SVGID_11_);}
	.st14{fill:url(#SVGID_12_);}
	.st15{opacity:0.8;fill:url(#SVGID_13_);}
	.st16{fill:url(#SVGID_14_);}
	.st17{opacity:0.8;fill:url(#SVGID_15_);}
	.st18{fill:url(#SVGID_16_);}
	.st19{fill-rule:evenodd;clip-rule:evenodd;fill:#EE1D52;}
	.st20{fill-rule:evenodd;clip-rule:evenodd;fill:#69C9D0;}
	.st21{opacity:0.8;fill:url(#SVGID_17_);}
	.st22{fill:url(#SVGID_18_);}
	.st23{opacity:0.8;fill:url(#SVGID_19_);}
	.st24{fill:url(#SVGID_20_);}
	.st25{opacity:0.8;fill:url(#SVGID_21_);}
	.st26{fill:url(#SVGID_22_);}
	.st27{opacity:0.8;fill:url(#SVGID_23_);}
	.st28{fill:url(#SVGID_24_);}
	.st29{fill:url(#SVGID_25_);}
	.st30{fill:url(#SVGID_26_);}
	.st31{fill:url(#SVGID_27_);}
	.st32{fill:url(#SVGID_28_);}
	.st33{opacity:0.8;fill:url(#SVGID_29_);}
	.st34{opacity:0.8;fill:url(#SVGID_30_);}
	.st35{opacity:0.8;fill:url(#SVGID_31_);}
	.st36{opacity:0.8;fill:url(#SVGID_32_);}
	.st37{opacity:0.8;fill:url(#SVGID_33_);}
	.st38{opacity:0.8;fill:url(#SVGID_34_);}
	.st39{opacity:0.8;fill:url(#SVGID_35_);}
	.st40{opacity:0.8;fill:url(#SVGID_36_);}
	.st41{opacity:0.8;fill:url(#SVGID_37_);}
	.st42{opacity:0.8;fill:url(#SVGID_38_);}
	.st43{opacity:0.8;fill:url(#SVGID_39_);}
	.st44{opacity:0.8;fill:url(#SVGID_40_);}
</style>
<g id="BACKGROUND">
</g>
<g id="ELEMENTS">
	<g>
		<linearGradient id="SVGID_1_" gradientUnits="userSpaceOnUse" x1="410.0005" y1="93.469" x2="94.6271" y2="408.8424">
			<stop  offset="1.104800e-03" style="stop-color:#FBE18A"/>
			<stop  offset="0.2094" style="stop-color:#FCBB45"/>
			<stop  offset="0.3765" style="stop-color:#F75274"/>
			<stop  offset="0.5238" style="stop-color:#D53692"/>
			<stop  offset="0.7394" style="stop-color:#8F39CE"/>
			<stop  offset="1" style="stop-color:#5B4FE9"/>
		</linearGradient>
		<circle style="fill:url(#SVGID_1_);" cx="252.3" cy="251.2" r="223"/>
		<g>
			<g>
				<path class="st5" d="M321.5,166.8c-8.5,0-15.3,6.9-15.3,15.3c0,8.5,6.9,15.3,15.3,15.3c8.5,0,15.3-6.9,15.3-15.3
					C336.9,173.7,330,166.8,321.5,166.8z"/>
				<path class="st5" d="M253.4,186.5c-35.5,0-64.4,28.9-64.4,64.4c0,35.5,28.9,64.4,64.4,64.4c35.5,0,64.4-28.9,64.4-64.4
					C317.8,215.3,288.9,186.5,253.4,186.5z M253.4,292.1c-22.7,0-41.2-18.5-41.2-41.2s18.5-41.2,41.2-41.2
					c22.7,0,41.2,18.5,41.2,41.2S276.1,292.1,253.4,292.1z"/>
				<path class="st5" d="M304.5,381.6H200.1c-43.3,0-78.5-35.2-78.5-78.5V198.6c0-43.3,35.2-78.5,78.5-78.5h104.4
					c43.3,0,78.5,35.2,78.5,78.5V303C383,346.3,347.8,381.6,304.5,381.6z M200.1,144.7c-29.7,0-53.9,24.2-53.9,53.9V303
					c0,29.7,24.2,53.9,53.9,53.9h104.4c29.7,0,53.9-24.2,53.9-53.9V198.6c0-29.7-24.2-53.9-53.9-53.9H200.1z"/>
			</g>
		</g>
	</g>
</g>
</svg>
