<?xml version="1.0" encoding="utf-8"?>
<!-- Generator: Adobe Illustrator 23.0.5, SVG Export Plug-In . SVG Version: 6.00 Build 0)  -->
<svg version="1.1" xmlns="http://www.w3.org/2000/svg" xmlns:xlink="http://www.w3.org/1999/xlink" x="0px" y="0px"
	 viewBox="0 0 500 500" style="enable-background:new 0 0 500 500;" xml:space="preserve">
<style type="text/css">
	.st0{fill:#4C4C4C;}
	.st1{opacity:0.8;fill:url(#SVGID_1_);}
	.st2{fill:url(#SVGID_2_);}
	.st3{opacity:0.8;fill:url(#SVGID_3_);}
	.st4{fill:url(#SVGID_4_);}
	.st5{fill:#FFFFFF;}
	.st6{opacity:0.8;fill:url(#SVGID_5_);}
	.st7{fill:url(#SVGID_6_);}
	.st8{opacity:0.8;fill:url(#SVGID_7_);}
	.st9{fill:url(#SVGID_8_);}
	.st10{fill-rule:evenodd;clip-rule:evenodd;fill:#FFFFFF;}
	.st11{opacity:0.8;fill:url(#SVGID_9_);}
	.st12{fill:url(#SVGID_10_);}
	.st13{opacity:0.8;fill:url(#SVGID_11_);}
	.st14{fill:url(#SVGID_12_);}
	.st15{opacity:0.8;fill:url(#SVGID_13_);}
	.st16{fill:url(#SVGID_14_);}
	.st17{opacity:0.8;fill:url(#SVGID_15_);}
	.st18{fill:url(#SVGID_16_);}
	.st19{fill-rule:evenodd;clip-rule:evenodd;fill:#EE1D52;}
	.st20{fill-rule:evenodd;clip-rule:evenodd;fill:#69C9D0;}
	.st21{opacity:0.8;fill:url(#SVGID_17_);}
	.st22{fill:url(#SVGID_18_);}
	.st23{opacity:0.8;fill:url(#SVGID_19_);}
	.st24{fill:url(#SVGID_20_);}
	.st25{opacity:0.8;fill:url(#SVGID_21_);}
	.st26{fill:url(#SVGID_22_);}
	.st27{opacity:0.8;fill:url(#SVGID_23_);}
	.st28{fill:url(#SVGID_24_);}
	.st29{fill:url(#SVGID_25_);}
	.st30{fill:url(#SVGID_26_);}
	.st31{fill:url(#SVGID_27_);}
	.st32{fill:url(#SVGID_28_);}
	.st33{opacity:0.8;fill:url(#SVGID_29_);}
	.st34{opacity:0.8;fill:url(#SVGID_30_);}
	.st35{opacity:0.8;fill:url(#SVGID_31_);}
	.st36{opacity:0.8;fill:url(#SVGID_32_);}
	.st37{opacity:0.8;fill:url(#SVGID_33_);}
	.st38{opacity:0.8;fill:url(#SVGID_34_);}
	.st39{opacity:0.8;fill:url(#SVGID_35_);}
	.st40{opacity:0.8;fill:url(#SVGID_36_);}
	.st41{opacity:0.8;fill:url(#SVGID_37_);}
	.st42{opacity:0.8;fill:url(#SVGID_38_);}
	.st43{opacity:0.8;fill:url(#SVGID_39_);}
	.st44{opacity:0.8;fill:url(#SVGID_40_);}
</style>
<g id="BACKGROUND">
</g>
<g id="ELEMENTS">
	<g>
		<linearGradient id="SVGID_1_" gradientUnits="userSpaceOnUse" x1="406.384" y1="93.4692" x2="91.0111" y2="408.8421">
			<stop  offset="0" style="stop-color:#33CCFF"/>
			<stop  offset="1" style="stop-color:#337FFF"/>
		</linearGradient>
		<circle style="fill:url(#SVGID_1_);" cx="248.7" cy="251.2" r="223"/>
		<path class="st5" d="M371.9,174.7c-7.7,3.5-16.3,5.6-24.6,7c4-0.7,9.8-7.8,12.1-10.7c3.6-4.4,6.5-9.5,8.2-14.9
			c0.2-0.4,0.4-1-0.1-1.3c-0.5-0.2-0.9-0.1-1.3,0.1c-9.3,5-18.9,8.6-29.2,11.2c-0.8,0.2-1.5,0-2-0.5c-0.8-1-1.6-1.9-2.6-2.6
			c-4.3-3.7-8.9-6.5-14.1-8.7c-6.8-2.8-14.3-4-21.7-3.5c-7.2,0.5-14.2,2.5-20.6,5.8c-6.4,3.3-12.1,8-16.6,13.5
			c-4.7,5.8-8.1,12.6-9.9,19.8c-1.7,7-1.6,13.9-0.5,20.9c0.2,1.2,0.1,1.3-1,1.2c-40.1-6-73.3-20.3-100.2-51
			c-1.2-1.3-1.8-1.3-2.8,0.1c-11.8,17.7-6.1,46.1,8.7,60c2,1.9,4,3.7,6.2,5.4c-0.8,0.2-10.6-0.9-19.3-5.4c-1.2-0.7-1.8-0.3-1.9,1
			c-0.1,1.9,0.1,3.7,0.3,5.7c2.3,17.9,14.7,34.5,31.7,41c2,0.8,4.2,1.6,6.4,2c-3.9,0.8-7.9,1.5-19,0.6c-1.4-0.3-1.9,0.4-1.4,1.8
			c8.3,22.7,26.4,29.5,39.8,33.4c1.8,0.3,3.6,0.3,5.4,0.7c-0.1,0.2-0.2,0.2-0.3,0.3c-4.5,6.8-20,11.9-27.2,14.4
			c-13.1,4.6-27.4,6.7-41.3,5.3c-2.2-0.3-2.7-0.3-3.3,0c-0.6,0.4-0.1,0.9,0.6,1.5c2.8,1.9,5.7,3.5,8.6,5.1c8.8,4.7,18,8.4,27.6,11.1
			c49.6,13.7,105.6,3.6,142.9-33.4c29.3-29.1,39.5-69.2,39.5-109.4c0-1.6,1.9-2.4,3-3.3c7.6-5.7,13.8-12.6,19.4-20.2
			c1.3-1.7,1.3-3.2,1.3-3.9c0-0.1,0-0.2,0-0.2C372.9,174.1,372.9,174.3,371.9,174.7z"/>
	</g>
</g>
</svg>
