<?xml version="1.0" encoding="utf-8"?>
<!-- Generator: Adobe Illustrator 23.0.5, SVG Export Plug-In . SVG Version: 6.00 Build 0)  -->
<svg version="1.1" id="Layer_1" xmlns="http://www.w3.org/2000/svg" xmlns:xlink="http://www.w3.org/1999/xlink" x="0px" y="0px"
	 viewBox="0 0 150 150" style="enable-background:new 0 0 150 150;" xml:space="preserve">
<style type="text/css">
	.st0{fill:#009933;}
	.st1{fill:none;stroke:#009933;stroke-width:5.6816;stroke-miterlimit:10;}
</style>
<path class="st1" d="M34.52,138.57c-0.25-0.12-0.48-0.26-0.74-0.35c-1.62-0.59-2.69-2.32-2.21-4.26c0.61-2.47,1.16-4.96,1.73-7.44
	c2.68-11.52,5.36-23.04,8.04-34.56c0.05-0.21,0.08-0.42,0.14-0.62c0.15-0.47-0.02-0.81-0.38-1.12c-1.15-0.98-2.29-1.99-3.44-2.98
	c-9.74-8.44-19.49-16.88-29.23-25.32c-0.27-0.24-0.56-0.48-0.8-0.75c-0.92-1.05-1.18-2.25-0.69-3.56c0.47-1.27,1.39-2.06,2.75-2.23
	c1.2-0.16,2.41-0.25,3.62-0.35c2.69-0.24,5.38-0.47,8.07-0.69c2.48-0.21,4.96-0.41,7.43-0.62c2.45-0.21,4.89-0.43,7.34-0.64
	c1.72-0.15,3.44-0.29,5.17-0.43c1.72-0.15,3.44-0.3,5.17-0.44c1.81-0.16,3.63-0.31,5.44-0.47c0.63-0.06,1.27-0.13,1.9-0.18
	c0.33-0.03,0.57-0.18,0.71-0.49c0.1-0.22,0.2-0.44,0.3-0.66C60.32,37.4,65.81,24.41,71.3,11.42c0.14-0.34,0.28-0.67,0.43-1
	c0.5-1.09,1.31-1.8,2.5-2.04c0.18-0.03,0.35-0.11,0.52-0.16c0.12,0,0.24,0,0.36,0c0.2,0.06,0.4,0.13,0.61,0.18
	c1.05,0.23,1.8,0.84,2.29,1.78c0.18,0.35,0.34,0.71,0.49,1.08C84,24.24,89.49,37.23,94.98,50.22c0.12,0.28,0.24,0.56,0.37,0.83
	c0.14,0.3,0.37,0.46,0.71,0.49c0.39,0.03,0.78,0.09,1.18,0.13c1.72,0.15,3.44,0.29,5.17,0.43c1.66,0.14,3.32,0.28,4.98,0.43
	c1.87,0.16,3.75,0.32,5.62,0.48c1.75,0.15,3.5,0.31,5.26,0.46c1.69,0.15,3.38,0.29,5.08,0.43c1.84,0.16,3.68,0.32,5.53,0.48
	c1.72,0.15,3.44,0.29,5.17,0.44c1.99,0.17,3.99,0.33,5.98,0.54c1.64,0.17,2.79,1.26,3.1,2.87c0.21,1.09-0.09,2.05-0.8,2.87
	c-0.26,0.3-0.56,0.56-0.86,0.82c-6.94,6.02-13.89,12.03-20.84,18.05c-3.78,3.28-7.57,6.55-11.34,9.83
	c-1.06,0.92-1.04,0.74-0.71,2.16c2.83,12.2,5.67,24.4,8.51,36.6c0.37,1.6,0.74,3.19,1.11,4.79c0.08,0.32,0.16,0.65,0.21,0.98
	c0.26,1.62-0.54,3.1-2.04,3.79c-0.33,0.15-0.66,0.3-0.99,0.45c-0.3,0-0.61,0-0.91,0c-0.67-0.36-1.35-0.68-2-1.07
	c-12.02-7.24-24.04-14.49-36.06-21.74c-0.34-0.2-0.68-0.4-1.02-0.61c-0.29-0.17-0.57-0.18-0.86,0c-0.34,0.21-0.68,0.4-1.02,0.61
	c-11.65,7.03-23.31,14.06-34.96,21.09c-1.06,0.64-2.11,1.32-3.29,1.73C35.01,138.57,34.76,138.57,34.52,138.57z"/>
</svg>
