<?xml version="1.0" encoding="utf-8"?>
<!-- Generator: Adobe Illustrator 23.0.5, SVG Export Plug-In . SVG Version: 6.00 Build 0)  -->
<svg version="1.1" id="Layer_1" xmlns="http://www.w3.org/2000/svg" xmlns:xlink="http://www.w3.org/1999/xlink" x="0px" y="0px"
	 viewBox="0 0 496.1 740.1" style="enable-background:new 0 0 496.1 740.1;" xml:space="preserve">
<style type="text/css">
	.st0{fill:#288936;}
	.st1{fill:#FFFFFF;}
</style>
<path class="st0" d="M0.1,370.2c0-117,0.1-234-0.1-350.9C0,4.7,5.1,0,19.2,0c152.6,0.2,305.3,0.1,457.9,0.1c15.3,0,19,3.6,19,18.7
	c0,234.1,0,468.3,0,702.4c0,0.7,0,1.3,0,2c0,12.5-4.4,16.9-16.8,16.9c-123,0-246,0-368.9,0c-31,0-62,0-93,0c-2.8,0-5.7-0.1-8.4-0.9
	c-5.4-1.5-8.1-5.6-8.7-11c-0.3-2.5-0.1-5-0.1-7.5C0.1,603.8,0.1,487,0.1,370.2z"/>
<title>Social media icons</title>
<g id="ELEMENTS">
	<path class="st1" d="M137.7,69.6c0.2,0.1,0.4,0.2,0.6,0.3c2.1,0.6,3.6,2.5,3.6,4.7c0,0.3,0,0.6,0,0.9v96.6c0,0.4,0,0.7,0,1.1
		c-0.1,2.5-2.1,4.6-4.7,4.6c-1.7,0-3.5,0-5.2,0c-2.5-0.1-4.5-2-4.7-4.5c-0.1-1.3-0.1-2.5-0.3-3.8c-0.6-4.5-2.4-8.7-5.3-12.2
		c-5.4-6.6-13.8-10-22.3-8.9c-4.1,0.5-8,2-11.4,4.5c-5.3,3.9-8.6,9.2-9.8,15.7c-0.3,1.4-0.4,2.8-0.4,4.3c0,2.2-1.5,4.2-3.7,4.7
		c-0.4,0.1-0.7,0.1-1.1,0.1c-1.6,0-3.3,0-4.9,0c-2.7,0-4.8-2.1-4.8-4.8c0,0,0,0,0-0.1c0-0.3,0-0.6,0-0.9c0-32.4,0-64.7,0-97.1
		c0-0.5,0-1,0.1-1.5c0.4-1.8,1.5-2.9,3.2-3.6c0.3-0.1,0.6-0.1,0.8-0.3L137.7,69.6z M102.5,109.1h-14c-0.3,0-0.7,0-1,0
		c-2.4,0.1-4.4,1.9-4.6,4.3c-0.3,3,1.8,4.9,3.7,5.3c0.5,0.1,1,0.1,1.5,0.1c9.6,0,19.1,0,28.7,0c0.3,0,0.5,0,0.8,0
		c2.3-0.2,4.2-2,4.4-4.3c0.3-2.4-1.3-4.7-3.7-5.2c-0.5-0.1-1.1-0.2-1.6-0.2C112.1,109.1,107.3,109.1,102.5,109.1z M102.5,99.1h9.2
		c0.3,0,0.5,0,0.7,0c2.7,0,4.8-2.2,4.8-4.9c0-0.7-0.2-1.5-0.5-2.1c-0.9-1.8-2.5-2.7-4.5-2.7c-6.5,0-12.9,0-19.4,0
		c-0.4,0-0.8,0-1.3,0.1c-2,0.5-3.3,1.8-3.7,3.8c-0.4,2,0.3,3.6,1.9,4.8c0.9,0.6,1.9,1,3,0.9C96,99.1,99.3,99.1,102.5,99.1
		L102.5,99.1z"/>
	<path class="st1" d="M101.4,187.7c-0.2-0.1-0.4-0.2-0.6-0.3c-3.1-1.1-4.4-5.3-1.8-7.9c0.4-0.4,0.7-0.7,1.1-1.1
		c0.1-0.1,0.2-0.3,0.3-0.4c-0.2-0.3-0.5-0.2-0.7-0.2c-2.4,0-4.7,0-7.1,0c-1.1,0-2.1-0.3-2.9-1c-1.6-1.3-2.3-2.9-1.8-4.9
		s1.8-3.2,3.8-3.6c0.4-0.1,0.9-0.1,1.3-0.1c2.2,0,4.3,0,6.5,0c0.3,0,0.6,0,0.8,0c0.1-0.2-0.1-0.3-0.1-0.4c-0.4-0.4-0.9-0.8-1.3-1.3
		c-1.8-2-1.7-5,0.3-6.8c1.7-1.6,4.2-1.7,6.1-0.4c0.3,0.2,0.6,0.5,0.9,0.8c3.1,3.1,6.1,6.1,9.2,9.2c0.2,0.2,0.4,0.4,0.6,0.7
		c1.6,1.9,1.6,4.7-0.1,6.5c-0.1,0.1-0.3,0.3-0.4,0.4c-3.2,3.2-6.3,6.4-9.5,9.5c-0.5,0.5-1.2,0.9-1.9,1.2c-0.2,0.1-0.4,0.2-0.5,0.3
		L101.4,187.7z"/>
</g>
<g>
	<path class="st1" d="M97.1,268.6v2.7c0,4.7-1.5,8.5-4.4,11.3c-2.9,2.8-6.6,4.2-11.1,4.2c-4.9,0-8.9-1.6-12.2-4.7
		c-3.2-3.2-4.8-7-4.8-11.6s1.6-8.5,4.8-11.7c3.2-3.2,7.1-4.8,11.7-4.8c2.9,0,5.6,0.7,8.1,2c2.4,1.3,4.3,3.1,5.7,5.2l-6.1,3.5
		c-0.7-1.1-1.7-2-3.1-2.7c-1.4-0.7-2.9-1-4.6-1c-2.7,0-4.9,0.9-6.6,2.7c-1.8,1.8-2.6,4-2.6,6.8c0,2.7,0.9,5,2.7,6.7
		c1.8,1.7,4.2,2.6,7.2,2.6c4.2,0,6.9-1.6,8.1-4.9h-8.4v-6.3H97.1z"/>
	<path class="st1" d="M120.2,283.3c-2.3,2.3-5.1,3.4-8.5,3.4s-6.1-1.1-8.5-3.4c-2.3-2.3-3.5-5.1-3.5-8.4s1.2-6.1,3.5-8.4
		c2.3-2.3,5.1-3.4,8.5-3.4s6.1,1.1,8.5,3.4c2.3,2.3,3.5,5.1,3.5,8.4S122.5,281,120.2,283.3z M108,278.7c1,1,2.2,1.5,3.7,1.5
		c1.5,0,2.7-0.5,3.7-1.5c1-1,1.5-2.3,1.5-3.8c0-1.6-0.5-2.8-1.5-3.8c-1-1-2.2-1.5-3.7-1.5c-1.5,0-2.7,0.5-3.7,1.5
		c-1,1-1.5,2.3-1.5,3.8C106.5,276.4,107,277.7,108,278.7z"/>
	<path class="st1" d="M158.5,269.8c2.6,1.7,3.9,4,3.9,7.1c0,2.7-1,4.9-2.9,6.7s-4.4,2.6-7.2,2.6h-13.2v-31.5h12.3
		c2.8,0,5.2,0.8,7.1,2.5c1.9,1.7,2.9,3.8,2.9,6.5C161.2,266.1,160.3,268.2,158.5,269.8z M151.3,261.4h-5.1v5.6h5.1
		c0.8,0,1.5-0.3,2-0.8c0.5-0.5,0.8-1.2,0.8-2s-0.3-1.5-0.8-2C152.7,261.6,152.1,261.4,151.3,261.4z M152.2,279.4
		c0.9,0,1.6-0.3,2.2-0.8c0.5-0.6,0.8-1.3,0.8-2.2c0-0.9-0.3-1.6-0.8-2.2c-0.5-0.6-1.3-0.8-2.2-0.8h-6v6H152.2z"/>
	<path class="st1" d="M172.2,277.6c0.8,2.1,2.6,3.1,5.4,3.1c1.8,0,3.3-0.6,4.3-1.7l5.4,3.1c-2.2,3.1-5.5,4.6-9.8,4.6
		c-3.8,0-6.8-1.1-9.1-3.4c-2.3-2.3-3.4-5.1-3.4-8.5c0-3.4,1.1-6.2,3.4-8.5c2.2-2.3,5.1-3.4,8.6-3.4c3.3,0,6,1.1,8.2,3.4
		c2.2,2.3,3.3,5.1,3.3,8.5c0,1-0.1,1.9-0.3,2.7H172.2z M172.1,272.5h9.7c-0.7-2.4-2.3-3.6-4.8-3.6
		C174.4,269,172.7,270.2,172.1,272.5z"/>
	<path class="st1" d="M205.5,263.6h7.2l-7.7,21.8c-1.3,3.5-2.9,6.1-5,7.6c-2.1,1.5-4.7,2.2-7.9,2.1v-6.3c1.6,0,2.8-0.3,3.6-0.8
		c0.8-0.6,1.5-1.5,2-2.9l-9-21.5h7.4l5,13.8L205.5,263.6z"/>
	<path class="st1" d="M233.6,283.3c-2.3,2.3-5.1,3.4-8.5,3.4s-6.1-1.1-8.5-3.4c-2.3-2.3-3.5-5.1-3.5-8.4s1.2-6.1,3.5-8.4
		c2.3-2.3,5.1-3.4,8.5-3.4s6.1,1.1,8.5,3.4c2.3,2.3,3.5,5.1,3.5,8.4S235.9,281,233.6,283.3z M221.4,278.7c1,1,2.2,1.5,3.7,1.5
		c1.5,0,2.7-0.5,3.7-1.5c1-1,1.5-2.3,1.5-3.8c0-1.6-0.5-2.8-1.5-3.8c-1-1-2.2-1.5-3.7-1.5c-1.5,0-2.7,0.5-3.7,1.5
		c-1,1-1.5,2.3-1.5,3.8C219.9,276.4,220.4,277.7,221.4,278.7z"/>
	<path class="st1" d="M254,263c2.4,0,4.4,0.8,6,2.5c1.6,1.7,2.4,3.9,2.4,6.8v13.8h-6.8v-12.8c0-1.3-0.4-2.3-1.1-3
		c-0.7-0.7-1.7-1.1-2.8-1.1c-1.3,0-2.3,0.4-3.1,1.2c-0.8,0.8-1.1,1.9-1.1,3.5v12.3h-6.8v-22.5h6.8v2.1C249,263.9,251.1,263,254,263z
		"/>
	<path class="st1" d="M283.4,254.6h6.8v31.5h-6.8V284c-1.6,1.8-3.8,2.7-6.7,2.7c-3,0-5.5-1.1-7.6-3.4c-2.1-2.3-3.1-5.1-3.1-8.4
		s1-6.1,3.1-8.4c2.1-2.3,4.6-3.4,7.6-3.4c2.9,0,5.1,0.9,6.7,2.7V254.6z M274.2,278.9c1,1,2.3,1.5,3.9,1.5c1.6,0,2.9-0.5,3.9-1.5
		c1-1,1.5-2.3,1.5-4c0-1.7-0.5-3-1.5-4c-1-1-2.3-1.5-3.9-1.5c-1.6,0-2.9,0.5-3.9,1.5c-1,1-1.5,2.3-1.5,4
		C272.7,276.5,273.2,277.9,274.2,278.9z"/>
	<path class="st1" d="M87.1,305.6v6.9H79v24.6h-7.2v-24.6h-8.1v-6.9H87.1z"/>
	<path class="st1" d="M94,318.6c0.4-1.4,1.3-2.5,2.5-3.3c1.3-0.8,2.7-1.1,4.2-1.1v7.7c-1.7-0.3-3.2,0-4.6,0.8
		c-1.4,0.8-2.1,2.3-2.1,4.3v10.2h-6.8v-22.5H94V318.6z"/>
	<path class="st1" d="M119.6,314.6h6.8v22.5h-6.8V335c-1.6,1.8-3.8,2.7-6.7,2.7c-3,0-5.5-1.1-7.6-3.4c-2.1-2.3-3.1-5.1-3.1-8.4
		s1-6.1,3.1-8.4c2.1-2.3,4.6-3.4,7.6-3.4c2.9,0,5.1,0.9,6.7,2.7V314.6z M110.4,329.9c1,1,2.3,1.5,3.9,1.5c1.6,0,2.9-0.5,3.9-1.5
		c1-1,1.5-2.3,1.5-4c0-1.7-0.5-3-1.5-4c-1-1-2.3-1.5-3.9-1.5c-1.6,0-2.9,0.5-3.9,1.5c-1,1-1.5,2.3-1.5,4
		C108.9,327.5,109.4,328.9,110.4,329.9z"/>
	<path class="st1" d="M144.5,314c2.4,0,4.4,0.8,6,2.5c1.6,1.7,2.4,3.9,2.4,6.8v13.8h-6.8v-12.8c0-1.3-0.4-2.3-1.1-3
		c-0.7-0.7-1.7-1.1-2.8-1.1c-1.3,0-2.3,0.4-3.1,1.2c-0.8,0.8-1.1,1.9-1.1,3.5v12.3h-6.8v-22.5h6.8v2.1
		C139.4,314.9,141.5,314,144.5,314z"/>
	<path class="st1" d="M163.9,321.2c0,0.4,0.4,0.8,1.1,1.1c0.8,0.3,1.7,0.6,2.8,0.9c1.1,0.3,2.2,0.7,3.2,1.1s2,1.2,2.8,2.2
		s1.1,2.3,1.1,3.9c0,2.4-0.9,4.3-2.7,5.5c-1.8,1.2-4,1.9-6.7,1.9c-4.7,0-8-1.8-9.7-5.4l5.9-3.3c0.6,1.8,1.9,2.7,3.8,2.7
		c1.6,0,2.4-0.5,2.4-1.4c0-0.5-0.4-0.8-1.1-1.1s-1.7-0.6-2.8-0.9c-1.1-0.3-2.2-0.7-3.2-1.1c-1.1-0.5-2-1.2-2.8-2.2
		c-0.8-1-1.1-2.2-1.1-3.6c0-2.3,0.8-4.2,2.5-5.4c1.7-1.3,3.8-1.9,6.3-1.9c1.9,0,3.6,0.4,5.1,1.2c1.5,0.8,2.8,2,3.7,3.6l-5.8,3.1
		c-0.7-1.3-1.7-2-3-2C164.5,319.9,163.9,320.3,163.9,321.2z"/>
	<path class="st1" d="M194.5,314.6h6.8v22.5h-6.8V335c-1.6,1.8-3.8,2.7-6.7,2.7c-3,0-5.5-1.1-7.6-3.4c-2.1-2.3-3.1-5.1-3.1-8.4
		s1-6.1,3.1-8.4c2.1-2.3,4.6-3.4,7.6-3.4c2.9,0,5.1,0.9,6.7,2.7V314.6z M185.2,329.9c1,1,2.3,1.5,3.9,1.5c1.6,0,2.9-0.5,3.9-1.5
		c1-1,1.5-2.3,1.5-4c0-1.7-0.5-3-1.5-4c-1-1-2.3-1.5-3.9-1.5c-1.6,0-2.9,0.5-3.9,1.5c-1,1-1.5,2.3-1.5,4
		C183.8,327.5,184.3,328.9,185.2,329.9z"/>
	<path class="st1" d="M217,337.7c-3.4,0-6.3-1.1-8.5-3.4c-2.3-2.3-3.4-5.1-3.4-8.5c0-3.4,1.1-6.2,3.4-8.5c2.3-2.3,5.1-3.4,8.5-3.4
		c2.2,0,4.1,0.5,6,1.6c1.8,1,3.2,2.4,4.2,4.2l-5.9,3.4c-0.8-1.7-2.3-2.5-4.4-2.5c-1.5,0-2.7,0.5-3.6,1.5c-1,1-1.4,2.2-1.4,3.8
		s0.5,2.8,1.4,3.8c1,1,2.2,1.5,3.6,1.5c2.1,0,3.6-0.8,4.4-2.5l5.9,3.4c-1,1.8-2.4,3.2-4.2,4.2C221.2,337.2,219.2,337.7,217,337.7z"
		/>
	<path class="st1" d="M243,321.1h-4.6v8c0,0.9,0.4,1.5,1.1,1.7s1.9,0.3,3.6,0.2v6.1c-4.3,0.5-7.3,0-8.9-1.2
		c-1.7-1.3-2.5-3.5-2.5-6.8v-8H228v-6.5h3.6v-4.3l6.8-2v6.3h4.6V321.1z"/>
	<path class="st1" d="M253.1,311.4c-0.8,0.8-1.7,1.2-2.9,1.2c-1.1,0-2.1-0.4-2.9-1.2c-0.8-0.8-1.2-1.7-1.2-2.9
		c0-1.1,0.4-2.1,1.2-2.9c0.8-0.8,1.7-1.2,2.9-1.2c1.1,0,2.1,0.4,2.9,1.2c0.8,0.8,1.2,1.7,1.2,2.9
		C254.3,309.7,253.9,310.6,253.1,311.4z M246.8,337.1v-22.5h6.8v22.5H246.8z"/>
	<path class="st1" d="M277.8,334.3c-2.3,2.3-5.1,3.4-8.5,3.4s-6.1-1.1-8.5-3.4c-2.3-2.3-3.5-5.1-3.5-8.4s1.2-6.1,3.5-8.4
		c2.3-2.3,5.1-3.4,8.5-3.4s6.1,1.1,8.5,3.4c2.3,2.3,3.5,5.1,3.5,8.4S280.1,332,277.8,334.3z M265.7,329.7c1,1,2.2,1.5,3.7,1.5
		c1.5,0,2.7-0.5,3.7-1.5c1-1,1.5-2.3,1.5-3.8c0-1.6-0.5-2.8-1.5-3.8c-1-1-2.2-1.5-3.7-1.5c-1.5,0-2.7,0.5-3.7,1.5
		c-1,1-1.5,2.3-1.5,3.8C264.2,327.4,264.7,328.7,265.7,329.7z"/>
	<path class="st1" d="M298.3,314c2.4,0,4.4,0.8,6,2.5c1.6,1.7,2.4,3.9,2.4,6.8v13.8h-6.8v-12.8c0-1.3-0.4-2.3-1.1-3
		c-0.7-0.7-1.7-1.1-2.8-1.1c-1.3,0-2.3,0.4-3.1,1.2c-0.8,0.8-1.1,1.9-1.1,3.5v12.3h-6.8v-22.5h6.8v2.1
		C293.2,314.9,295.3,314,298.3,314z"/>
	<path class="st1" d="M317.7,321.2c0,0.4,0.4,0.8,1.1,1.1c0.8,0.3,1.7,0.6,2.8,0.9c1.1,0.3,2.2,0.7,3.2,1.1s2,1.2,2.8,2.2
		s1.1,2.3,1.1,3.9c0,2.4-0.9,4.3-2.7,5.5c-1.8,1.2-4,1.9-6.7,1.9c-4.7,0-8-1.8-9.7-5.4l5.9-3.3c0.6,1.8,1.9,2.7,3.8,2.7
		c1.6,0,2.4-0.5,2.4-1.4c0-0.5-0.4-0.8-1.1-1.1s-1.7-0.6-2.8-0.9c-1.1-0.3-2.2-0.7-3.2-1.1c-1.1-0.5-2-1.2-2.8-2.2
		c-0.8-1-1.1-2.2-1.1-3.6c0-2.3,0.8-4.2,2.5-5.4c1.7-1.3,3.8-1.9,6.3-1.9c1.9,0,3.6,0.4,5.1,1.2c1.5,0.8,2.8,2,3.7,3.6l-5.8,3.1
		c-0.7-1.3-1.7-2-3-2C318.4,319.9,317.7,320.3,317.7,321.2z"/>
</g>
<g>
	<path class="st1" d="M68.9,423.4c-1.3,0-2.3-0.2-3.1-0.7c-0.8-0.5-1.5-1.2-2.1-2.2l2.5-1.8c0.3,0.5,0.6,1,1.1,1.2
		c0.4,0.3,0.8,0.4,1.2,0.4c0.7,0,1.2-0.2,1.5-0.6c0.3-0.4,0.5-1.2,0.5-2.2v-10.6h3.7v10.9c0,0.8-0.1,1.5-0.3,2.2
		c-0.2,0.7-0.5,1.3-1,1.8c-0.4,0.5-1,0.9-1.6,1.2C70.5,423.2,69.8,423.4,68.9,423.4z"/>
	<path class="st1" d="M82.9,423.4c-0.8,0-1.5-0.1-2.3-0.4c-0.7-0.3-1.4-0.7-1.9-1.3c-0.6-0.5-1-1.2-1.3-2s-0.5-1.7-0.5-2.8
		c0-1,0.2-2,0.5-2.8c0.3-0.8,0.8-1.5,1.3-2s1.2-1,1.9-1.3c0.7-0.3,1.5-0.4,2.3-0.4c0.8,0,1.5,0.1,2.3,0.4c0.7,0.3,1.4,0.7,1.9,1.3
		c0.6,0.5,1,1.2,1.3,2c0.3,0.8,0.5,1.7,0.5,2.8c0,1-0.2,2-0.5,2.8c-0.3,0.8-0.8,1.5-1.3,2c-0.6,0.6-1.2,1-1.9,1.3
		C84.4,423.2,83.7,423.4,82.9,423.4z M82.9,420.4c0.8,0,1.3-0.3,1.7-1c0.4-0.6,0.6-1.5,0.6-2.6c0-1.1-0.2-1.9-0.6-2.6
		c-0.4-0.6-0.9-0.9-1.7-0.9c-0.8,0-1.3,0.3-1.7,0.9c-0.4,0.6-0.6,1.5-0.6,2.6c0,1.1,0.2,1.9,0.6,2.6
		C81.5,420.1,82.1,420.4,82.9,420.4z"/>
	<path class="st1" d="M93.3,408.8c-0.6,0-1.1-0.2-1.5-0.5c-0.4-0.4-0.6-0.8-0.6-1.4c0-0.6,0.2-1,0.6-1.4c0.4-0.3,0.9-0.5,1.5-0.5
		c0.6,0,1.1,0.2,1.5,0.5c0.4,0.4,0.6,0.8,0.6,1.4c0,0.6-0.2,1-0.6,1.4S93.9,408.8,93.3,408.8z M91.4,423.1v-12.4h3.7v12.4H91.4z"/>
	<path class="st1" d="M98.3,423.1v-12.4h3l0.3,1.6h0.1c0.5-0.5,1.1-0.9,1.8-1.3c0.6-0.4,1.4-0.6,2.2-0.6c1.3,0,2.3,0.4,2.9,1.3
		c0.6,0.9,0.9,2.1,0.9,3.7v7.7h-3.7v-7.2c0-0.9-0.1-1.5-0.4-1.9c-0.2-0.3-0.6-0.5-1.2-0.5c-0.5,0-0.9,0.1-1.2,0.3
		c-0.3,0.2-0.7,0.5-1.1,0.9v8.4H98.3z"/>
	<path class="st1" d="M122.4,423.4c-0.8,0-1.4-0.1-2-0.3c-0.5-0.2-1-0.6-1.3-1c-0.3-0.4-0.6-0.9-0.8-1.5s-0.2-1.2-0.2-2v-5h-1.7
		v-2.7l1.9-0.2l0.4-3.3h3v3.3h3v2.9h-3v5c0,0.7,0.1,1.2,0.4,1.5s0.7,0.5,1.2,0.5c0.2,0,0.4,0,0.6-0.1c0.2,0,0.4-0.1,0.6-0.2l0.6,2.7
		c-0.3,0.1-0.7,0.2-1.2,0.3C123.5,423.3,123,423.4,122.4,423.4z"/>
	<path class="st1" d="M127.2,423.1v-17.5h3.7v4.3l-0.2,2.2c0.5-0.4,1-0.8,1.6-1.2c0.6-0.4,1.4-0.5,2.2-0.5c1.3,0,2.3,0.4,2.9,1.3
		c0.6,0.9,0.9,2.1,0.9,3.7v7.7h-3.7v-7.2c0-0.9-0.1-1.5-0.4-1.9c-0.2-0.3-0.6-0.5-1.2-0.5c-0.5,0-0.9,0.1-1.2,0.3
		c-0.3,0.2-0.7,0.5-1.1,0.9v8.4H127.2z"/>
	<path class="st1" d="M147,423.4c-0.9,0-1.7-0.1-2.5-0.4c-0.8-0.3-1.4-0.7-2-1.3c-0.6-0.6-1-1.2-1.3-2c-0.3-0.8-0.5-1.7-0.5-2.8
		c0-1,0.2-1.9,0.5-2.7s0.8-1.5,1.3-2.1c0.5-0.6,1.2-1,1.9-1.3c0.7-0.3,1.4-0.5,2.2-0.5c0.9,0,1.7,0.2,2.3,0.5
		c0.7,0.3,1.2,0.7,1.6,1.3c0.4,0.5,0.8,1.2,1,1.9c0.2,0.7,0.3,1.5,0.3,2.4c0,0.3,0,0.7,0,1c0,0.3-0.1,0.5-0.1,0.7h-7.4
		c0.2,0.9,0.5,1.6,1.1,2s1.3,0.6,2.1,0.6c0.9,0,1.8-0.3,2.7-0.8l1.2,2.2c-0.6,0.4-1.3,0.8-2.1,1S147.8,423.4,147,423.4z
		 M144.3,415.5h4.5c0-0.7-0.2-1.3-0.5-1.7s-0.8-0.7-1.6-0.7c-0.6,0-1.1,0.2-1.5,0.6C144.7,414.1,144.4,414.7,144.3,415.5z"/>
	<path class="st1" d="M163.5,423.4c-1.3,0-2.3-0.2-3.1-0.7c-0.8-0.5-1.5-1.2-2.1-2.2l2.5-1.8c0.3,0.5,0.6,1,1.1,1.2
		c0.4,0.3,0.8,0.4,1.2,0.4c0.7,0,1.2-0.2,1.5-0.6c0.3-0.4,0.5-1.2,0.5-2.2v-10.6h3.7v10.9c0,0.8-0.1,1.5-0.3,2.2
		c-0.2,0.7-0.5,1.3-1,1.8c-0.4,0.5-1,0.9-1.6,1.2C165.1,423.2,164.4,423.4,163.5,423.4z"/>
	<path class="st1" d="M175.3,423.4c-0.6,0-1.1-0.1-1.5-0.3s-0.8-0.5-1.2-0.8s-0.6-0.7-0.7-1.2c-0.2-0.5-0.3-0.9-0.3-1.5
		c0-1.3,0.6-2.3,1.7-3c1.1-0.7,2.9-1.2,5.3-1.5c0-0.6-0.2-1-0.5-1.3c-0.3-0.3-0.8-0.5-1.5-0.5c-0.5,0-1.1,0.1-1.6,0.3
		c-0.5,0.2-1.1,0.5-1.7,0.8L172,412c0.8-0.5,1.6-0.9,2.5-1.2s1.8-0.5,2.8-0.5c1.6,0,2.8,0.5,3.7,1.4c0.8,0.9,1.3,2.3,1.3,4.2v7.1h-3
		l-0.3-1.3h-0.1c-0.5,0.5-1.1,0.8-1.7,1.1C176.6,423.2,176,423.4,175.3,423.4z M176.5,420.5c0.4,0,0.8-0.1,1.1-0.3
		c0.3-0.2,0.6-0.4,0.9-0.8v-2.2c-1.3,0.2-2.2,0.5-2.7,0.8c-0.5,0.3-0.8,0.8-0.8,1.3c0,0.4,0.1,0.7,0.4,0.9
		C175.7,420.4,176.1,420.5,176.5,420.5z"/>
	<path class="st1" d="M185.3,423.1v-12.4h3l0.3,2.2h0.1c0.4-0.9,1-1.5,1.6-1.9c0.6-0.4,1.3-0.6,1.9-0.6c0.4,0,0.6,0,0.9,0.1
		c0.2,0,0.4,0.1,0.6,0.2l-0.6,3.2c-0.2-0.1-0.5-0.1-0.6-0.1c-0.2,0-0.4,0-0.7,0c-0.5,0-1,0.2-1.5,0.5c-0.5,0.3-0.9,0.9-1.3,1.8v7.2
		H185.3z"/>
	<path class="st1" d="M197.7,423.4c-0.6,0-1.1-0.1-1.5-0.3s-0.8-0.5-1.2-0.8s-0.6-0.7-0.7-1.2c-0.2-0.5-0.3-0.9-0.3-1.5
		c0-1.3,0.6-2.3,1.7-3c1.1-0.7,2.9-1.2,5.3-1.5c0-0.6-0.2-1-0.5-1.3c-0.3-0.3-0.8-0.5-1.5-0.5c-0.5,0-1.1,0.1-1.6,0.3
		c-0.5,0.2-1.1,0.5-1.7,0.8l-1.3-2.4c0.8-0.5,1.6-0.9,2.5-1.2s1.8-0.5,2.8-0.5c1.6,0,2.8,0.5,3.7,1.4c0.8,0.9,1.3,2.3,1.3,4.2v7.1
		h-3l-0.3-1.3h-0.1c-0.5,0.5-1.1,0.8-1.7,1.1C199,423.2,198.4,423.4,197.7,423.4z M199,420.5c0.4,0,0.8-0.1,1.1-0.3
		c0.3-0.2,0.6-0.4,0.9-0.8v-2.2c-1.3,0.2-2.2,0.5-2.7,0.8c-0.5,0.3-0.8,0.8-0.8,1.3c0,0.4,0.1,0.7,0.4,0.9
		C198.2,420.4,198.5,420.5,199,420.5z"/>
	<path class="st1" d="M218.2,423.4c-0.9,0-1.7-0.1-2.4-0.4c-0.7-0.3-1.4-0.7-1.9-1.3c-0.5-0.5-1-1.2-1.3-2c-0.3-0.8-0.5-1.7-0.5-2.8
		c0-1,0.2-2,0.5-2.8c0.4-0.8,0.8-1.5,1.4-2c0.6-0.5,1.3-1,2.1-1.3c0.8-0.3,1.6-0.4,2.5-0.4c0.8,0,1.4,0.1,2,0.4
		c0.6,0.3,1.1,0.6,1.6,1l-1.7,2.4c-0.6-0.5-1.1-0.7-1.7-0.7c-0.9,0-1.6,0.3-2.1,0.9c-0.5,0.6-0.8,1.5-0.8,2.6c0,1.1,0.3,1.9,0.8,2.6
		c0.5,0.6,1.2,1,2,1c0.4,0,0.8-0.1,1.2-0.3s0.7-0.4,1.1-0.6l1.5,2.4c-0.6,0.5-1.3,0.9-2,1.1C219.5,423.2,218.8,423.4,218.2,423.4z"
		/>
	<path class="st1" d="M229.1,423.4c-0.8,0-1.5-0.1-2.3-0.4c-0.7-0.3-1.4-0.7-1.9-1.3c-0.6-0.5-1-1.2-1.3-2s-0.5-1.7-0.5-2.8
		c0-1,0.2-2,0.5-2.8c0.3-0.8,0.8-1.5,1.3-2s1.2-1,1.9-1.3c0.7-0.3,1.5-0.4,2.3-0.4c0.8,0,1.5,0.1,2.3,0.4c0.7,0.3,1.4,0.7,1.9,1.3
		c0.6,0.5,1,1.2,1.3,2c0.3,0.8,0.5,1.7,0.5,2.8c0,1-0.2,2-0.5,2.8c-0.3,0.8-0.8,1.5-1.3,2c-0.6,0.6-1.2,1-1.9,1.3
		C230.6,423.2,229.8,423.4,229.1,423.4z M229.1,420.4c0.8,0,1.3-0.3,1.7-1c0.4-0.6,0.6-1.5,0.6-2.6c0-1.1-0.2-1.9-0.6-2.6
		c-0.4-0.6-0.9-0.9-1.7-0.9c-0.8,0-1.3,0.3-1.7,0.9c-0.4,0.6-0.6,1.5-0.6,2.6c0,1.1,0.2,1.9,0.6,2.6
		C227.7,420.1,228.3,420.4,229.1,420.4z"/>
	<path class="st1" d="M237.6,423.1v-12.4h3l0.3,1.6h0.1c0.5-0.5,1.1-1,1.6-1.3c0.6-0.4,1.3-0.6,2.1-0.6c0.9,0,1.6,0.2,2.1,0.5
		s1,0.9,1.3,1.5c0.6-0.6,1.1-1.1,1.7-1.5c0.6-0.4,1.3-0.6,2.2-0.6c1.3,0,2.3,0.4,2.9,1.3s0.9,2.1,0.9,3.7v7.7h-3.7v-7.2
		c0-0.9-0.1-1.5-0.4-1.9c-0.2-0.3-0.6-0.5-1.2-0.5c-0.6,0-1.3,0.4-2.1,1.2v8.4h-3.7v-7.2c0-0.9-0.1-1.5-0.4-1.9
		c-0.2-0.3-0.6-0.5-1.2-0.5c-0.6,0-1.3,0.4-2.1,1.2v8.4H237.6z"/>
	<path class="st1" d="M259,423.1v-12.4h3l0.3,1.6h0.1c0.5-0.5,1.1-1,1.6-1.3c0.6-0.4,1.3-0.6,2.1-0.6c0.9,0,1.6,0.2,2.1,0.5
		s1,0.9,1.3,1.5c0.6-0.6,1.1-1.1,1.7-1.5c0.6-0.4,1.3-0.6,2.2-0.6c1.3,0,2.3,0.4,2.9,1.3s0.9,2.1,0.9,3.7v7.7h-3.7v-7.2
		c0-0.9-0.1-1.5-0.4-1.9c-0.2-0.3-0.6-0.5-1.2-0.5c-0.6,0-1.3,0.4-2.1,1.2v8.4h-3.7v-7.2c0-0.9-0.1-1.5-0.4-1.9
		c-0.2-0.3-0.6-0.5-1.2-0.5c-0.6,0-1.3,0.4-2.1,1.2v8.4H259z"/>
	<path class="st1" d="M284.2,423.4c-1.4,0-2.3-0.4-2.9-1.3c-0.6-0.9-0.9-2.1-0.9-3.7v-7.7h3.7v7.2c0,0.9,0.1,1.5,0.4,1.8
		c0.3,0.3,0.6,0.5,1.2,0.5c0.5,0,0.9-0.1,1.2-0.3c0.3-0.2,0.7-0.6,1-1v-8.2h3.7v12.4h-3l-0.3-1.7h-0.1c-0.5,0.6-1.1,1.1-1.7,1.5
		C285.8,423.2,285,423.4,284.2,423.4z"/>
	<path class="st1" d="M294.7,423.1v-12.4h3l0.3,1.6h0.1c0.5-0.5,1.1-0.9,1.8-1.3c0.6-0.4,1.4-0.6,2.2-0.6c1.3,0,2.3,0.4,2.9,1.3
		c0.6,0.9,0.9,2.1,0.9,3.7v7.7h-3.7v-7.2c0-0.9-0.1-1.5-0.4-1.9c-0.2-0.3-0.6-0.5-1.2-0.5c-0.5,0-0.9,0.1-1.2,0.3
		c-0.3,0.2-0.7,0.5-1.1,0.9v8.4H294.7z"/>
	<path class="st1" d="M310.8,408.8c-0.6,0-1.1-0.2-1.5-0.5c-0.4-0.4-0.6-0.8-0.6-1.4c0-0.6,0.2-1,0.6-1.4c0.4-0.3,0.9-0.5,1.5-0.5
		c0.6,0,1.1,0.2,1.5,0.5c0.4,0.4,0.6,0.8,0.6,1.4c0,0.6-0.2,1-0.6,1.4S311.4,408.8,310.8,408.8z M309,423.1v-12.4h3.7v12.4H309z"/>
	<path class="st1" d="M320.6,423.4c-0.8,0-1.4-0.1-2-0.3c-0.5-0.2-1-0.6-1.3-1c-0.3-0.4-0.6-0.9-0.8-1.5s-0.2-1.2-0.2-2v-5h-1.7
		v-2.7l1.9-0.2l0.4-3.3h3v3.3h3v2.9h-3v5c0,0.7,0.1,1.2,0.4,1.5s0.7,0.5,1.2,0.5c0.2,0,0.4,0,0.6-0.1c0.2,0,0.4-0.1,0.6-0.2l0.6,2.7
		c-0.3,0.1-0.7,0.2-1.2,0.3C321.8,423.3,321.2,423.4,320.6,423.4z"/>
	<path class="st1" d="M326.8,427.9c-0.4,0-0.7,0-1-0.1c-0.3,0-0.5-0.1-0.8-0.2l0.6-2.8c0.1,0,0.3,0.1,0.4,0.1c0.2,0,0.3,0,0.4,0
		c0.6,0,1.1-0.2,1.4-0.5s0.6-0.7,0.8-1.2l0.2-0.7l-4.8-12.1h3.7l1.8,5.3c0.2,0.6,0.4,1.1,0.5,1.7c0.1,0.6,0.3,1.2,0.5,1.8h0.1
		c0.1-0.6,0.3-1.2,0.4-1.8c0.1-0.6,0.3-1.2,0.4-1.8l1.5-5.3h3.5l-4.3,12.5c-0.3,0.8-0.6,1.5-0.9,2.1c-0.3,0.6-0.7,1.1-1.1,1.5
		c-0.4,0.4-0.9,0.7-1.4,0.9C328.2,427.8,327.5,427.9,326.8,427.9z"/>
	<path class="st1" d="M349.9,423.4c-0.5,0-1.1-0.1-1.7-0.4c-0.6-0.3-1.1-0.7-1.6-1.2h-0.1l-0.3,1.3h-2.9v-17.5h3.7v4.3l-0.1,1.9
		c0.5-0.4,1-0.8,1.6-1c0.6-0.2,1.1-0.4,1.7-0.4c0.8,0,1.4,0.2,2,0.5s1.1,0.7,1.5,1.3c0.4,0.5,0.8,1.2,1,2c0.2,0.8,0.3,1.6,0.3,2.6
		c0,1.1-0.1,2-0.4,2.8c-0.3,0.8-0.7,1.5-1.2,2.1c-0.5,0.6-1,1-1.7,1.3C351.3,423.2,350.6,423.4,349.9,423.4z M349.1,420.4
		c0.6,0,1.2-0.3,1.6-0.9c0.5-0.6,0.7-1.5,0.7-2.8c0-2.2-0.7-3.4-2.2-3.4c-0.7,0-1.4,0.4-2.1,1.1v5.1c0.3,0.3,0.7,0.5,1,0.6
		C348.5,420.3,348.8,420.4,349.1,420.4z"/>
	<path class="st1" d="M358.9,427.9c-0.4,0-0.7,0-1-0.1c-0.3,0-0.5-0.1-0.8-0.2l0.6-2.8c0.1,0,0.3,0.1,0.4,0.1c0.2,0,0.3,0,0.4,0
		c0.6,0,1.1-0.2,1.4-0.5s0.6-0.7,0.8-1.2l0.2-0.7l-4.8-12.1h3.7l1.8,5.3c0.2,0.6,0.4,1.1,0.5,1.7c0.1,0.6,0.3,1.2,0.5,1.8h0.1
		c0.1-0.6,0.3-1.2,0.4-1.8c0.1-0.6,0.3-1.2,0.4-1.8l1.5-5.3h3.5l-4.3,12.5c-0.3,0.8-0.6,1.5-0.9,2.1c-0.3,0.6-0.7,1.1-1.1,1.5
		c-0.4,0.4-0.9,0.7-1.4,0.9C360.3,427.8,359.7,427.9,358.9,427.9z"/>
	<path class="st1" d="M379.2,423.4c-0.8,0-1.7-0.2-2.5-0.5c-0.9-0.3-1.6-0.7-2.2-1.3l1.6-2.3c0.6,0.4,1.1,0.8,1.6,1s1,0.3,1.6,0.3
		c0.5,0,1-0.1,1.2-0.3c0.3-0.2,0.4-0.4,0.4-0.8c0-0.2-0.1-0.4-0.2-0.5c-0.1-0.2-0.3-0.3-0.6-0.4c-0.2-0.1-0.5-0.3-0.8-0.4
		c-0.3-0.1-0.6-0.2-0.9-0.4c-0.4-0.2-0.8-0.3-1.1-0.5s-0.7-0.4-1-0.7c-0.3-0.3-0.6-0.6-0.8-1c-0.2-0.4-0.3-0.8-0.3-1.4
		c0-0.6,0.1-1.1,0.3-1.6c0.2-0.5,0.5-0.9,1-1.2c0.4-0.3,0.9-0.6,1.5-0.8c0.6-0.2,1.2-0.3,1.9-0.3c1,0,1.8,0.2,2.5,0.5
		c0.7,0.3,1.3,0.7,1.9,1.1l-1.6,2.2c-0.5-0.3-0.9-0.6-1.3-0.8c-0.4-0.2-0.9-0.3-1.3-0.3c-0.9,0-1.4,0.3-1.4,1c0,0.2,0.1,0.4,0.2,0.5
		s0.3,0.3,0.5,0.4c0.2,0.1,0.5,0.2,0.8,0.3s0.6,0.2,0.9,0.3c0.4,0.1,0.8,0.3,1.2,0.5s0.8,0.4,1.1,0.7c0.3,0.3,0.6,0.6,0.8,1
		c0.2,0.4,0.3,0.9,0.3,1.5c0,0.6-0.1,1.1-0.3,1.6s-0.5,0.9-1,1.3c-0.4,0.4-1,0.6-1.6,0.8C380.8,423.3,380.1,423.4,379.2,423.4z"/>
	<path class="st1" d="M386.7,423.1v-17.5h3.7v4.3l-0.2,2.2c0.5-0.4,1-0.8,1.6-1.2c0.6-0.4,1.4-0.5,2.2-0.5c1.3,0,2.3,0.4,2.9,1.3
		c0.6,0.9,0.9,2.1,0.9,3.7v7.7h-3.7v-7.2c0-0.9-0.1-1.5-0.4-1.9c-0.2-0.3-0.6-0.5-1.2-0.5c-0.5,0-0.9,0.1-1.2,0.3
		c-0.3,0.2-0.7,0.5-1.1,0.9v8.4H386.7z"/>
	<path class="st1" d="M404.1,423.4c-0.6,0-1.1-0.1-1.5-0.3s-0.8-0.5-1.2-0.8s-0.6-0.7-0.7-1.2c-0.2-0.5-0.3-0.9-0.3-1.5
		c0-1.3,0.6-2.3,1.7-3c1.1-0.7,2.9-1.2,5.3-1.5c0-0.6-0.2-1-0.5-1.3c-0.3-0.3-0.8-0.5-1.5-0.5c-0.5,0-1.1,0.1-1.6,0.3
		c-0.5,0.2-1.1,0.5-1.7,0.8l-1.3-2.4c0.8-0.5,1.6-0.9,2.5-1.2s1.8-0.5,2.8-0.5c1.6,0,2.8,0.5,3.7,1.4c0.8,0.9,1.3,2.3,1.3,4.2v7.1
		h-3l-0.3-1.3h-0.1c-0.5,0.5-1.1,0.8-1.7,1.1C405.4,423.2,404.8,423.4,404.1,423.4z M405.3,420.5c0.4,0,0.8-0.1,1.1-0.3
		c0.3-0.2,0.6-0.4,0.9-0.8v-2.2c-1.3,0.2-2.2,0.5-2.7,0.8c-0.5,0.3-0.8,0.8-0.8,1.3c0,0.4,0.1,0.7,0.4,0.9
		C404.5,420.4,404.9,420.5,405.3,420.5z"/>
	<path class="st1" d="M414.1,423.1v-12.4h3l0.3,2.2h0.1c0.4-0.9,1-1.5,1.6-1.9c0.6-0.4,1.3-0.6,1.9-0.6c0.4,0,0.6,0,0.9,0.1
		c0.2,0,0.4,0.1,0.6,0.2l-0.6,3.2c-0.2-0.1-0.5-0.1-0.6-0.1c-0.2,0-0.4,0-0.7,0c-0.5,0-1,0.2-1.5,0.5c-0.5,0.3-0.9,0.9-1.3,1.8v7.2
		H414.1z"/>
	<path class="st1" d="M425.9,408.8c-0.6,0-1.1-0.2-1.5-0.5c-0.4-0.4-0.6-0.8-0.6-1.4c0-0.6,0.2-1,0.6-1.4c0.4-0.3,0.9-0.5,1.5-0.5
		c0.6,0,1.1,0.2,1.5,0.5c0.4,0.4,0.6,0.8,0.6,1.4c0,0.6-0.2,1-0.6,1.4S426.5,408.8,425.9,408.8z M424.1,423.1v-12.4h3.7v12.4H424.1z
		"/>
	<path class="st1" d="M431,423.1v-12.4h3l0.3,1.6h0.1c0.5-0.5,1.1-0.9,1.8-1.3c0.6-0.4,1.4-0.6,2.2-0.6c1.3,0,2.3,0.4,2.9,1.3
		c0.6,0.9,0.9,2.1,0.9,3.7v7.7h-3.7v-7.2c0-0.9-0.1-1.5-0.4-1.9c-0.2-0.3-0.6-0.5-1.2-0.5c-0.5,0-0.9,0.1-1.2,0.3
		c-0.3,0.2-0.7,0.5-1.1,0.9v8.4H431z"/>
	<path class="st1" d="M449.7,428.3c-0.7,0-1.4-0.1-2-0.2s-1.2-0.3-1.7-0.6c-0.5-0.3-0.8-0.6-1.1-1c-0.3-0.4-0.4-0.9-0.4-1.4
		c0-1,0.6-1.8,1.8-2.5v-0.1c-0.3-0.2-0.6-0.5-0.8-0.8s-0.3-0.8-0.3-1.3c0-0.5,0.1-0.9,0.4-1.3s0.6-0.8,1-1v-0.1
		c-0.4-0.3-0.8-0.7-1.2-1.3c-0.3-0.6-0.5-1.2-0.5-1.9c0-0.8,0.1-1.4,0.4-2c0.3-0.6,0.7-1,1.1-1.4c0.5-0.4,1-0.7,1.6-0.8
		s1.3-0.3,1.9-0.3c0.7,0,1.4,0.1,1.9,0.3h4.5v2.7h-2c0.1,0.2,0.2,0.4,0.3,0.7c0.1,0.3,0.1,0.6,0.1,0.9c0,0.7-0.1,1.3-0.4,1.9
		c-0.3,0.5-0.6,1-1,1.3c-0.4,0.3-1,0.6-1.6,0.8s-1.2,0.3-1.9,0.3c-0.5,0-1-0.1-1.5-0.3c-0.2,0.1-0.3,0.3-0.4,0.4
		c-0.1,0.1-0.1,0.3-0.1,0.5c0,0.3,0.1,0.5,0.4,0.7c0.3,0.1,0.8,0.2,1.5,0.2h2c1.5,0,2.7,0.2,3.5,0.7c0.8,0.5,1.2,1.3,1.2,2.4
		c0,0.6-0.2,1.2-0.5,1.8c-0.3,0.5-0.8,1-1.4,1.4s-1.3,0.7-2.2,0.9C451.7,428.2,450.8,428.3,449.7,428.3z M450.3,426
		c0.8,0,1.5-0.1,2-0.4c0.5-0.3,0.8-0.7,0.8-1.1c0-0.4-0.2-0.6-0.5-0.8c-0.3-0.1-0.8-0.2-1.4-0.2h-1.3c-0.4,0-0.8,0-1,0
		s-0.5-0.1-0.7-0.1c-0.4,0.4-0.7,0.8-0.7,1.2c0,0.5,0.3,0.8,0.8,1.1S449.4,426,450.3,426z M450,416.9c0.5,0,0.9-0.2,1.2-0.5
		c0.3-0.3,0.5-0.9,0.5-1.6c0-0.7-0.2-1.1-0.5-1.5c-0.3-0.3-0.7-0.5-1.2-0.5c-0.5,0-0.9,0.2-1.2,0.5c-0.3,0.3-0.5,0.8-0.5,1.5
		c0,0.7,0.2,1.2,0.5,1.6C449.1,416.7,449.5,416.9,450,416.9z"/>
	<path class="st1" d="M66.2,457.9c-0.4,0-0.7,0-1-0.1c-0.3,0-0.5-0.1-0.8-0.2l0.6-2.8c0.1,0,0.3,0.1,0.4,0.1c0.2,0,0.3,0,0.4,0
		c0.6,0,1.1-0.2,1.4-0.5s0.6-0.7,0.8-1.2l0.2-0.7l-4.8-12.1h3.7L69,446c0.2,0.6,0.4,1.1,0.5,1.7c0.1,0.6,0.3,1.2,0.5,1.8h0.1
		c0.1-0.6,0.3-1.2,0.4-1.8c0.1-0.6,0.3-1.2,0.4-1.8l1.5-5.3h3.5l-4.3,12.5c-0.3,0.8-0.6,1.5-0.9,2.1c-0.3,0.6-0.7,1.1-1.1,1.5
		c-0.4,0.4-0.9,0.7-1.4,0.9C67.6,457.8,66.9,457.9,66.2,457.9z"/>
	<path class="st1" d="M83,453.4c-0.8,0-1.5-0.1-2.3-0.4c-0.7-0.3-1.4-0.7-1.9-1.3c-0.6-0.5-1-1.2-1.3-2s-0.5-1.7-0.5-2.8
		c0-1,0.2-2,0.5-2.8c0.3-0.8,0.8-1.5,1.3-2s1.2-1,1.9-1.3c0.7-0.3,1.5-0.4,2.3-0.4c0.8,0,1.5,0.1,2.3,0.4c0.7,0.3,1.4,0.7,1.9,1.3
		c0.6,0.5,1,1.2,1.3,2c0.3,0.8,0.5,1.7,0.5,2.8c0,1-0.2,2-0.5,2.8c-0.3,0.8-0.8,1.5-1.3,2c-0.6,0.6-1.2,1-1.9,1.3
		C84.5,453.2,83.8,453.4,83,453.4z M83,450.4c0.8,0,1.3-0.3,1.7-1c0.4-0.6,0.6-1.5,0.6-2.6c0-1.1-0.2-1.9-0.6-2.6
		c-0.4-0.6-0.9-0.9-1.7-0.9c-0.8,0-1.3,0.3-1.7,0.9c-0.4,0.6-0.6,1.5-0.6,2.6c0,1.1,0.2,1.9,0.6,2.6C81.6,450.1,82.2,450.4,83,450.4
		z"/>
	<path class="st1" d="M95.3,453.4c-1.4,0-2.3-0.4-2.9-1.3c-0.6-0.9-0.9-2.1-0.9-3.7v-7.7h3.7v7.2c0,0.9,0.1,1.5,0.4,1.8
		c0.3,0.3,0.6,0.5,1.2,0.5c0.5,0,0.9-0.1,1.2-0.3c0.3-0.2,0.7-0.6,1-1v-8.2h3.7v12.4h-3l-0.3-1.7h-0.1c-0.5,0.6-1.1,1.1-1.7,1.5
		C96.8,453.2,96.1,453.4,95.3,453.4z"/>
	<path class="st1" d="M105.7,453.1v-12.4h3l0.3,2.2h0.1c0.4-0.9,1-1.5,1.6-1.9c0.6-0.4,1.3-0.6,1.9-0.6c0.4,0,0.6,0,0.9,0.1
		c0.2,0,0.4,0.1,0.6,0.2l-0.6,3.2c-0.2-0.1-0.5-0.1-0.6-0.1c-0.2,0-0.4,0-0.7,0c-0.5,0-1,0.2-1.5,0.5c-0.5,0.3-0.9,0.9-1.3,1.8v7.2
		H105.7z"/>
	<path class="st1" d="M120.7,457.7v-17h3l0.3,1.2h0.1c0.5-0.4,1-0.8,1.6-1.1c0.6-0.3,1.2-0.4,1.9-0.4c0.8,0,1.4,0.2,2,0.5
		s1.1,0.7,1.5,1.3c0.4,0.5,0.7,1.2,1,2c0.2,0.8,0.3,1.6,0.3,2.6c0,1.1-0.1,2-0.4,2.8c-0.3,0.8-0.7,1.5-1.2,2.1c-0.5,0.6-1,1-1.7,1.3
		c-0.6,0.3-1.3,0.5-1.9,0.5c-0.5,0-1-0.1-1.5-0.3c-0.5-0.2-1-0.5-1.4-1l0.1,2v3.6H120.7z M126.3,450.4c0.6,0,1.2-0.3,1.6-0.9
		c0.5-0.6,0.7-1.5,0.7-2.8c0-2.2-0.7-3.4-2.2-3.4c-0.7,0-1.4,0.4-2.1,1.1v5.1c0.3,0.3,0.7,0.5,1,0.6
		C125.7,450.3,126,450.4,126.3,450.4z"/>
	<path class="st1" d="M135,453.1v-12.4h3l0.3,2.2h0.1c0.4-0.9,1-1.5,1.6-1.9c0.6-0.4,1.3-0.6,1.9-0.6c0.4,0,0.6,0,0.9,0.1
		c0.2,0,0.4,0.1,0.6,0.2l-0.6,3.2c-0.2-0.1-0.5-0.1-0.6-0.1c-0.2,0-0.4,0-0.7,0c-0.5,0-1,0.2-1.5,0.5c-0.5,0.3-0.9,0.9-1.3,1.8v7.2
		H135z"/>
	<path class="st1" d="M150,453.4c-0.8,0-1.5-0.1-2.3-0.4c-0.7-0.3-1.4-0.7-1.9-1.3c-0.6-0.5-1-1.2-1.3-2s-0.5-1.7-0.5-2.8
		c0-1,0.2-2,0.5-2.8c0.3-0.8,0.8-1.5,1.3-2s1.2-1,1.9-1.3c0.7-0.3,1.5-0.4,2.3-0.4c0.8,0,1.5,0.1,2.3,0.4c0.7,0.3,1.4,0.7,1.9,1.3
		c0.6,0.5,1,1.2,1.3,2c0.3,0.8,0.5,1.7,0.5,2.8c0,1-0.2,2-0.5,2.8c-0.3,0.8-0.8,1.5-1.3,2c-0.6,0.6-1.2,1-1.9,1.3
		C151.6,453.2,150.8,453.4,150,453.4z M150,450.4c0.8,0,1.3-0.3,1.7-1c0.4-0.6,0.6-1.5,0.6-2.6c0-1.1-0.2-1.9-0.6-2.6
		c-0.4-0.6-0.9-0.9-1.7-0.9c-0.8,0-1.3,0.3-1.7,0.9c-0.4,0.6-0.6,1.5-0.6,2.6c0,1.1,0.2,1.9,0.6,2.6
		C148.7,450.1,149.3,450.4,150,450.4z"/>
	<path class="st1" d="M163,453.4c-0.8,0-1.5-0.1-2.1-0.5c-0.6-0.3-1.2-0.7-1.6-1.3s-0.8-1.2-1-2c-0.2-0.8-0.4-1.7-0.4-2.7
		s0.1-1.9,0.4-2.7c0.3-0.8,0.7-1.5,1.1-2c0.5-0.6,1-1,1.6-1.3s1.3-0.5,1.9-0.5c0.7,0,1.3,0.1,1.7,0.4c0.4,0.2,0.9,0.5,1.3,0.9
		l-0.1-1.9v-4.2h3.7v17.5h-3l-0.3-1.2h-0.1c-0.4,0.4-0.9,0.8-1.5,1.1C164.2,453.2,163.6,453.4,163,453.4z M164,450.4
		c0.4,0,0.8-0.1,1.1-0.3c0.3-0.2,0.6-0.5,0.9-0.9v-5.1c-0.3-0.3-0.7-0.5-1-0.6c-0.4-0.1-0.7-0.2-1-0.2c-0.6,0-1.1,0.3-1.6,0.8
		c-0.4,0.6-0.7,1.4-0.7,2.6c0,1.2,0.2,2.1,0.6,2.7S163.2,450.4,164,450.4z"/>
	<path class="st1" d="M176.6,453.4c-1.4,0-2.3-0.4-2.9-1.3c-0.6-0.9-0.9-2.1-0.9-3.7v-7.7h3.7v7.2c0,0.9,0.1,1.5,0.4,1.8
		c0.3,0.3,0.6,0.5,1.2,0.5c0.5,0,0.9-0.1,1.2-0.3c0.3-0.2,0.7-0.6,1-1v-8.2h3.7v12.4h-3l-0.3-1.7h-0.1c-0.5,0.6-1.1,1.1-1.7,1.5
		C178.2,453.2,177.5,453.4,176.6,453.4z"/>
	<path class="st1" d="M192.5,453.4c-0.9,0-1.7-0.1-2.4-0.4c-0.7-0.3-1.4-0.7-1.9-1.3c-0.5-0.5-1-1.2-1.3-2c-0.3-0.8-0.5-1.7-0.5-2.8
		c0-1,0.2-2,0.5-2.8c0.4-0.8,0.8-1.5,1.4-2c0.6-0.5,1.3-1,2.1-1.3c0.8-0.3,1.6-0.4,2.5-0.4c0.8,0,1.4,0.1,2,0.4
		c0.6,0.3,1.1,0.6,1.6,1l-1.7,2.4c-0.6-0.5-1.1-0.7-1.7-0.7c-0.9,0-1.6,0.3-2.1,0.9c-0.5,0.6-0.8,1.5-0.8,2.6c0,1.1,0.3,1.9,0.8,2.6
		c0.5,0.6,1.2,1,2,1c0.4,0,0.8-0.1,1.2-0.3s0.7-0.4,1.1-0.6l1.5,2.4c-0.6,0.5-1.3,0.9-2,1.1C193.9,453.2,193.2,453.4,192.5,453.4z"
		/>
	<path class="st1" d="M203.3,453.4c-0.8,0-1.4-0.1-2-0.3c-0.5-0.2-1-0.6-1.3-1c-0.3-0.4-0.6-0.9-0.8-1.5s-0.2-1.2-0.2-2v-5h-1.7
		v-2.7l1.9-0.2l0.4-3.3h3v3.3h3v2.9h-3v5c0,0.7,0.1,1.2,0.4,1.5s0.7,0.5,1.2,0.5c0.2,0,0.4,0,0.6-0.1c0.2,0,0.4-0.1,0.6-0.2l0.6,2.7
		c-0.3,0.1-0.7,0.2-1.2,0.3C204.4,453.3,203.9,453.4,203.3,453.4z"/>
	<path class="st1" d="M213.1,453.1v-12.4h3l0.3,2.2h0.1c0.4-0.9,1-1.5,1.6-1.9c0.6-0.4,1.3-0.6,1.9-0.6c0.4,0,0.6,0,0.9,0.1
		c0.2,0,0.4,0.1,0.6,0.2l-0.6,3.2c-0.2-0.1-0.5-0.1-0.6-0.1c-0.2,0-0.4,0-0.7,0c-0.5,0-1,0.2-1.5,0.5c-0.5,0.3-0.9,0.9-1.3,1.8v7.2
		H213.1z"/>
	<path class="st1" d="M228.4,453.4c-0.9,0-1.7-0.1-2.5-0.4c-0.8-0.3-1.4-0.7-2-1.3c-0.6-0.6-1-1.2-1.3-2c-0.3-0.8-0.5-1.7-0.5-2.8
		c0-1,0.2-1.9,0.5-2.7s0.8-1.5,1.3-2.1c0.5-0.6,1.2-1,1.9-1.3c0.7-0.3,1.4-0.5,2.2-0.5c0.9,0,1.7,0.2,2.3,0.5
		c0.7,0.3,1.2,0.7,1.6,1.3c0.4,0.5,0.8,1.2,1,1.9c0.2,0.7,0.3,1.5,0.3,2.4c0,0.3,0,0.7,0,1c0,0.3-0.1,0.5-0.1,0.7h-7.4
		c0.2,0.9,0.5,1.6,1.1,2s1.3,0.6,2.1,0.6c0.9,0,1.8-0.3,2.7-0.8l1.2,2.2c-0.6,0.4-1.3,0.8-2.1,1S229.1,453.4,228.4,453.4z
		 M225.6,445.5h4.5c0-0.7-0.2-1.3-0.5-1.7s-0.8-0.7-1.6-0.7c-0.6,0-1.1,0.2-1.5,0.6C226,444.1,225.7,444.7,225.6,445.5z"/>
	<path class="st1" d="M238.5,453.1l-4.2-12.4h3.7l1.6,5.9c0.2,0.6,0.3,1.2,0.5,1.9c0.2,0.6,0.3,1.3,0.5,1.9h0.1
		c0.2-0.7,0.3-1.3,0.5-1.9c0.2-0.6,0.3-1.3,0.5-1.9l1.6-5.9h3.5l-4,12.4H238.5z"/>
	<path class="st1" d="M250.5,438.8c-0.6,0-1.1-0.2-1.5-0.5c-0.4-0.4-0.6-0.8-0.6-1.4c0-0.6,0.2-1,0.6-1.4c0.4-0.3,0.9-0.5,1.5-0.5
		c0.6,0,1.1,0.2,1.5,0.5c0.4,0.4,0.6,0.8,0.6,1.4c0,0.6-0.2,1-0.6,1.4S251.1,438.8,250.5,438.8z M248.7,453.1v-12.4h3.7v12.4H248.7z
		"/>
	<path class="st1" d="M261.1,453.4c-0.9,0-1.7-0.1-2.5-0.4c-0.8-0.3-1.4-0.7-2-1.3c-0.6-0.6-1-1.2-1.3-2c-0.3-0.8-0.5-1.7-0.5-2.8
		c0-1,0.2-1.9,0.5-2.7s0.8-1.5,1.3-2.1c0.5-0.6,1.2-1,1.9-1.3c0.7-0.3,1.4-0.5,2.2-0.5c0.9,0,1.7,0.2,2.3,0.5
		c0.7,0.3,1.2,0.7,1.6,1.3c0.4,0.5,0.8,1.2,1,1.9c0.2,0.7,0.3,1.5,0.3,2.4c0,0.3,0,0.7,0,1c0,0.3-0.1,0.5-0.1,0.7h-7.4
		c0.2,0.9,0.5,1.6,1.1,2s1.3,0.6,2.1,0.6c0.9,0,1.8-0.3,2.7-0.8l1.2,2.2c-0.6,0.4-1.3,0.8-2.1,1S261.9,453.4,261.1,453.4z
		 M258.4,445.5h4.5c0-0.7-0.2-1.3-0.5-1.7s-0.8-0.7-1.6-0.7c-0.6,0-1.1,0.2-1.5,0.6C258.8,444.1,258.5,444.7,258.4,445.5z"/>
	<path class="st1" d="M270.5,453.1l-3.1-12.4h3.6l1.2,5.8c0.1,0.6,0.2,1.2,0.3,1.8c0.1,0.6,0.2,1.2,0.3,1.9h0.1
		c0.1-0.6,0.2-1.3,0.3-1.9c0.1-0.6,0.2-1.2,0.4-1.8l1.4-5.8h3.2l1.4,5.8c0.1,0.6,0.3,1.2,0.4,1.8c0.1,0.6,0.2,1.2,0.4,1.9h0.1
		c0.1-0.6,0.2-1.3,0.3-1.9c0.1-0.6,0.2-1.2,0.3-1.8l1.2-5.8h3.4l-3,12.4h-4.3l-1.1-5c-0.1-0.6-0.3-1.2-0.4-1.8
		c-0.1-0.6-0.2-1.2-0.3-1.9h-0.1c-0.1,0.7-0.2,1.3-0.3,1.9c-0.1,0.6-0.2,1.2-0.3,1.8l-1.1,5H270.5z"/>
	<path class="st1" d="M291.4,453.4c-0.8,0-1.7-0.2-2.5-0.5c-0.9-0.3-1.6-0.7-2.2-1.3l1.6-2.3c0.6,0.4,1.1,0.8,1.6,1s1,0.3,1.6,0.3
		c0.5,0,1-0.1,1.2-0.3c0.3-0.2,0.4-0.4,0.4-0.8c0-0.2-0.1-0.4-0.2-0.5c-0.1-0.2-0.3-0.3-0.6-0.4c-0.2-0.1-0.5-0.3-0.8-0.4
		c-0.3-0.1-0.6-0.2-0.9-0.4c-0.4-0.2-0.8-0.3-1.1-0.5s-0.7-0.4-1-0.7c-0.3-0.3-0.6-0.6-0.8-1c-0.2-0.4-0.3-0.8-0.3-1.4
		c0-0.6,0.1-1.1,0.3-1.6c0.2-0.5,0.5-0.9,1-1.2c0.4-0.3,0.9-0.6,1.5-0.8c0.6-0.2,1.2-0.3,1.9-0.3c1,0,1.8,0.2,2.5,0.5
		c0.7,0.3,1.3,0.7,1.9,1.1l-1.6,2.2c-0.5-0.3-0.9-0.6-1.3-0.8c-0.4-0.2-0.9-0.3-1.3-0.3c-0.9,0-1.4,0.3-1.4,1c0,0.2,0.1,0.4,0.2,0.5
		s0.3,0.3,0.5,0.4c0.2,0.1,0.5,0.2,0.8,0.3s0.6,0.2,0.9,0.3c0.4,0.1,0.8,0.3,1.2,0.5s0.8,0.4,1.1,0.7c0.3,0.3,0.6,0.6,0.8,1
		c0.2,0.4,0.3,0.9,0.3,1.5c0,0.6-0.1,1.1-0.3,1.6s-0.5,0.9-1,1.3c-0.4,0.4-1,0.6-1.6,0.8C293,453.3,292.3,453.4,291.4,453.4z"/>
	<path class="st1" d="M299.1,457.9l-0.8-1.9c0.9-0.3,1.6-0.8,2.1-1.3s0.7-1.1,0.7-1.8H301c-0.6,0-1.1-0.2-1.5-0.5
		c-0.5-0.4-0.7-0.9-0.7-1.5c0-0.6,0.2-1.1,0.7-1.5c0.4-0.4,1-0.6,1.6-0.6c0.8,0,1.5,0.3,1.9,0.9c0.4,0.6,0.6,1.5,0.6,2.6
		c0,1.4-0.4,2.6-1.1,3.6C301.7,456.8,300.6,457.5,299.1,457.9z"/>
	<path class="st1" d="M312,453.1v-9.5h-1.6v-2.7l1.6-0.1V440c0-0.7,0.1-1.3,0.2-1.9c0.2-0.6,0.4-1.1,0.8-1.5s0.8-0.8,1.4-1
		c0.6-0.3,1.3-0.4,2.1-0.4c0.5,0,1,0,1.4,0.2c0.4,0.1,0.8,0.2,1.1,0.3l-0.7,2.7c-0.5-0.2-0.9-0.3-1.3-0.3c-0.5,0-0.8,0.1-1.1,0.4
		c-0.3,0.3-0.4,0.7-0.4,1.4v0.8h2.2v2.9h-2.2v9.5H312z"/>
	<path class="st1" d="M325,453.4c-0.8,0-1.5-0.1-2.3-0.4c-0.7-0.3-1.4-0.7-1.9-1.3c-0.6-0.5-1-1.2-1.3-2s-0.5-1.7-0.5-2.8
		c0-1,0.2-2,0.5-2.8c0.3-0.8,0.8-1.5,1.3-2s1.2-1,1.9-1.3c0.7-0.3,1.5-0.4,2.3-0.4c0.8,0,1.5,0.1,2.3,0.4c0.7,0.3,1.4,0.7,1.9,1.3
		c0.6,0.5,1,1.2,1.3,2c0.3,0.8,0.5,1.7,0.5,2.8c0,1-0.2,2-0.5,2.8c-0.3,0.8-0.8,1.5-1.3,2c-0.6,0.6-1.2,1-1.9,1.3
		C326.5,453.2,325.7,453.4,325,453.4z M325,450.4c0.8,0,1.3-0.3,1.7-1c0.4-0.6,0.6-1.5,0.6-2.6c0-1.1-0.2-1.9-0.6-2.6
		c-0.4-0.6-0.9-0.9-1.7-0.9c-0.8,0-1.3,0.3-1.7,0.9c-0.4,0.6-0.6,1.5-0.6,2.6c0,1.1,0.2,1.9,0.6,2.6
		C323.6,450.1,324.2,450.4,325,450.4z"/>
	<path class="st1" d="M336.9,453.4c-0.6,0-1.2-0.1-1.6-0.3c-0.4-0.2-0.8-0.5-1-0.8c-0.3-0.4-0.4-0.8-0.6-1.3
		c-0.1-0.5-0.2-1.1-0.2-1.7v-13.7h3.7v13.8c0,0.4,0.1,0.7,0.2,0.8c0.1,0.2,0.3,0.2,0.4,0.2c0.1,0,0.2,0,0.2,0c0.1,0,0.1,0,0.2,0
		l0.5,2.7c-0.2,0.1-0.5,0.2-0.8,0.2C337.7,453.3,337.3,453.4,336.9,453.4z"/>
	<path class="st1" d="M344,453.4c-0.6,0-1.2-0.1-1.6-0.3c-0.4-0.2-0.8-0.5-1-0.8c-0.3-0.4-0.4-0.8-0.6-1.3c-0.1-0.5-0.2-1.1-0.2-1.7
		v-13.7h3.7v13.8c0,0.4,0.1,0.7,0.2,0.8c0.1,0.2,0.3,0.2,0.4,0.2c0.1,0,0.2,0,0.2,0c0.1,0,0.1,0,0.2,0l0.5,2.7
		c-0.2,0.1-0.5,0.2-0.8,0.2C344.8,453.3,344.4,453.4,344,453.4z"/>
	<path class="st1" d="M353.1,453.4c-0.8,0-1.5-0.1-2.3-0.4c-0.7-0.3-1.4-0.7-1.9-1.3c-0.6-0.5-1-1.2-1.3-2s-0.5-1.7-0.5-2.8
		c0-1,0.2-2,0.5-2.8c0.3-0.8,0.8-1.5,1.3-2s1.2-1,1.9-1.3c0.7-0.3,1.5-0.4,2.3-0.4c0.8,0,1.5,0.1,2.3,0.4c0.7,0.3,1.4,0.7,1.9,1.3
		c0.6,0.5,1,1.2,1.3,2c0.3,0.8,0.5,1.7,0.5,2.8c0,1-0.2,2-0.5,2.8c-0.3,0.8-0.8,1.5-1.3,2c-0.6,0.6-1.2,1-1.9,1.3
		C354.7,453.2,353.9,453.4,353.1,453.4z M353.1,450.4c0.8,0,1.3-0.3,1.7-1c0.4-0.6,0.6-1.5,0.6-2.6c0-1.1-0.2-1.9-0.6-2.6
		c-0.4-0.6-0.9-0.9-1.7-0.9c-0.8,0-1.3,0.3-1.7,0.9c-0.4,0.6-0.6,1.5-0.6,2.6c0,1.1,0.2,1.9,0.6,2.6
		C351.8,450.1,352.4,450.4,353.1,450.4z"/>
	<path class="st1" d="M363.5,453.1l-3.1-12.4h3.6l1.2,5.8c0.1,0.6,0.2,1.2,0.3,1.8c0.1,0.6,0.2,1.2,0.3,1.9h0.1
		c0.1-0.6,0.2-1.3,0.3-1.9c0.1-0.6,0.2-1.2,0.4-1.8l1.4-5.8h3.2l1.4,5.8c0.1,0.6,0.3,1.2,0.4,1.8c0.1,0.6,0.2,1.2,0.4,1.9h0.1
		c0.1-0.6,0.2-1.3,0.3-1.9c0.1-0.6,0.2-1.2,0.3-1.8l1.2-5.8h3.4l-3,12.4h-4.3l-1.1-5c-0.1-0.6-0.3-1.2-0.4-1.8
		c-0.1-0.6-0.2-1.2-0.3-1.9h-0.1c-0.1,0.7-0.2,1.3-0.3,1.9c-0.1,0.6-0.2,1.2-0.3,1.8l-1.1,5H363.5z"/>
	<path class="st1" d="M382.7,438.8c-0.6,0-1.1-0.2-1.5-0.5c-0.4-0.4-0.6-0.8-0.6-1.4c0-0.6,0.2-1,0.6-1.4c0.4-0.3,0.9-0.5,1.5-0.5
		c0.6,0,1.1,0.2,1.5,0.5c0.4,0.4,0.6,0.8,0.6,1.4c0,0.6-0.2,1-0.6,1.4S383.3,438.8,382.7,438.8z M380.9,453.1v-12.4h3.7v12.4H380.9z
		"/>
	<path class="st1" d="M387.8,453.1v-12.4h3l0.3,1.6h0.1c0.5-0.5,1.1-0.9,1.8-1.3c0.6-0.4,1.4-0.6,2.2-0.6c1.3,0,2.3,0.4,2.9,1.3
		c0.6,0.9,0.9,2.1,0.9,3.7v7.7h-3.7v-7.2c0-0.9-0.1-1.5-0.4-1.9c-0.2-0.3-0.6-0.5-1.2-0.5c-0.5,0-0.9,0.1-1.2,0.3
		c-0.3,0.2-0.7,0.5-1.1,0.9v8.4H387.8z"/>
	<path class="st1" d="M406.5,458.3c-0.7,0-1.4-0.1-2-0.2s-1.2-0.3-1.7-0.6c-0.5-0.3-0.8-0.6-1.1-1c-0.3-0.4-0.4-0.9-0.4-1.4
		c0-1,0.6-1.8,1.8-2.5v-0.1c-0.3-0.2-0.6-0.5-0.8-0.8s-0.3-0.8-0.3-1.3c0-0.5,0.1-0.9,0.4-1.3s0.6-0.8,1-1v-0.1
		c-0.4-0.3-0.8-0.7-1.2-1.3c-0.3-0.6-0.5-1.2-0.5-1.9c0-0.8,0.1-1.4,0.4-2c0.3-0.6,0.7-1,1.1-1.4c0.5-0.4,1-0.7,1.6-0.8
		s1.3-0.3,1.9-0.3c0.7,0,1.4,0.1,1.9,0.3h4.5v2.7h-2c0.1,0.2,0.2,0.4,0.3,0.7c0.1,0.3,0.1,0.6,0.1,0.9c0,0.7-0.1,1.3-0.4,1.9
		c-0.3,0.5-0.6,1-1,1.3c-0.4,0.3-1,0.6-1.6,0.8s-1.2,0.3-1.9,0.3c-0.5,0-1-0.1-1.5-0.3c-0.2,0.1-0.3,0.3-0.4,0.4
		c-0.1,0.1-0.1,0.3-0.1,0.5c0,0.3,0.1,0.5,0.4,0.7c0.3,0.1,0.8,0.2,1.5,0.2h2c1.5,0,2.7,0.2,3.5,0.7c0.8,0.5,1.2,1.3,1.2,2.4
		c0,0.6-0.2,1.2-0.5,1.8c-0.3,0.5-0.8,1-1.4,1.4s-1.3,0.7-2.2,0.9C408.5,458.2,407.6,458.3,406.5,458.3z M407.1,456
		c0.8,0,1.5-0.1,2-0.4c0.5-0.3,0.8-0.7,0.8-1.1c0-0.4-0.2-0.6-0.5-0.8c-0.3-0.1-0.8-0.2-1.4-0.2h-1.3c-0.4,0-0.8,0-1,0
		s-0.5-0.1-0.7-0.1c-0.4,0.4-0.7,0.8-0.7,1.2c0,0.5,0.3,0.8,0.8,1.1S406.2,456,407.1,456z M406.8,446.9c0.5,0,0.9-0.2,1.2-0.5
		c0.3-0.3,0.5-0.9,0.5-1.6c0-0.7-0.2-1.1-0.5-1.5c-0.3-0.3-0.7-0.5-1.2-0.5c-0.5,0-0.9,0.2-1.2,0.5c-0.3,0.3-0.5,0.8-0.5,1.5
		c0,0.7,0.2,1.2,0.5,1.6C405.9,446.7,406.3,446.9,406.8,446.9z"/>
	<path class="st1" d="M424.1,453.4c-1.4,0-2.3-0.4-2.9-1.3c-0.6-0.9-0.9-2.1-0.9-3.7v-7.7h3.7v7.2c0,0.9,0.1,1.5,0.4,1.8
		c0.3,0.3,0.6,0.5,1.2,0.5c0.5,0,0.9-0.1,1.2-0.3c0.3-0.2,0.7-0.6,1-1v-8.2h3.7v12.4h-3l-0.3-1.7H428c-0.5,0.6-1.1,1.1-1.7,1.5
		C425.7,453.2,425,453.4,424.1,453.4z"/>
	<path class="st1" d="M438.3,453.4c-0.8,0-1.7-0.2-2.5-0.5c-0.9-0.3-1.6-0.7-2.2-1.3l1.6-2.3c0.6,0.4,1.1,0.8,1.6,1s1,0.3,1.6,0.3
		c0.5,0,1-0.1,1.2-0.3c0.3-0.2,0.4-0.4,0.4-0.8c0-0.2-0.1-0.4-0.2-0.5c-0.1-0.2-0.3-0.3-0.6-0.4c-0.2-0.1-0.5-0.3-0.8-0.4
		c-0.3-0.1-0.6-0.2-0.9-0.4c-0.4-0.2-0.8-0.3-1.1-0.5s-0.7-0.4-1-0.7c-0.3-0.3-0.6-0.6-0.8-1c-0.2-0.4-0.3-0.8-0.3-1.4
		c0-0.6,0.1-1.1,0.3-1.6c0.2-0.5,0.5-0.9,1-1.2c0.4-0.3,0.9-0.6,1.5-0.8c0.6-0.2,1.2-0.3,1.9-0.3c1,0,1.8,0.2,2.5,0.5
		c0.7,0.3,1.3,0.7,1.9,1.1l-1.6,2.2c-0.5-0.3-0.9-0.6-1.3-0.8c-0.4-0.2-0.9-0.3-1.3-0.3c-0.9,0-1.4,0.3-1.4,1c0,0.2,0.1,0.4,0.2,0.5
		s0.3,0.3,0.5,0.4c0.2,0.1,0.5,0.2,0.8,0.3s0.6,0.2,0.9,0.3c0.4,0.1,0.8,0.3,1.2,0.5s0.8,0.4,1.1,0.7c0.3,0.3,0.6,0.6,0.8,1
		c0.2,0.4,0.3,0.9,0.3,1.5c0,0.6-0.1,1.1-0.3,1.6s-0.5,0.9-1,1.3c-0.4,0.4-1,0.6-1.6,0.8C439.8,453.3,439.1,453.4,438.3,453.4z"/>
	<path class="st1" d="M70.2,483.4c-0.8,0-1.5-0.1-2.3-0.4c-0.7-0.3-1.4-0.7-1.9-1.3c-0.6-0.5-1-1.2-1.3-2s-0.5-1.7-0.5-2.8
		c0-1,0.2-2,0.5-2.8c0.3-0.8,0.8-1.5,1.3-2s1.2-1,1.9-1.3c0.7-0.3,1.5-0.4,2.3-0.4c0.8,0,1.5,0.1,2.3,0.4c0.7,0.3,1.4,0.7,1.9,1.3
		c0.6,0.5,1,1.2,1.3,2c0.3,0.8,0.5,1.7,0.5,2.8c0,1-0.2,2-0.5,2.8c-0.3,0.8-0.8,1.5-1.3,2c-0.6,0.6-1.2,1-1.9,1.3
		C71.7,483.2,70.9,483.4,70.2,483.4z M70.2,480.4c0.8,0,1.3-0.3,1.7-1c0.4-0.6,0.6-1.5,0.6-2.6c0-1.1-0.2-1.9-0.6-2.6
		c-0.4-0.6-0.9-0.9-1.7-0.9c-0.8,0-1.3,0.3-1.7,0.9c-0.4,0.6-0.6,1.5-0.6,2.6c0,1.1,0.2,1.9,0.6,2.6
		C68.8,480.1,69.4,480.4,70.2,480.4z"/>
	<path class="st1" d="M78.7,483.1v-12.4h3l0.3,1.6h0.1c0.5-0.5,1.1-0.9,1.8-1.3c0.6-0.4,1.4-0.6,2.2-0.6c1.3,0,2.3,0.4,2.9,1.3
		c0.6,0.9,0.9,2.1,0.9,3.7v7.7h-3.7v-7.2c0-0.9-0.1-1.5-0.4-1.9c-0.2-0.3-0.6-0.5-1.2-0.5c-0.5,0-0.9,0.1-1.2,0.3
		c-0.3,0.2-0.7,0.5-1.1,0.9v8.4H78.7z"/>
	<path class="st1" d="M101.1,483.4c-0.6,0-1.1-0.1-1.5-0.3s-0.8-0.5-1.2-0.8s-0.6-0.7-0.7-1.2c-0.2-0.5-0.3-0.9-0.3-1.5
		c0-1.3,0.6-2.3,1.7-3c1.1-0.7,2.9-1.2,5.3-1.5c0-0.6-0.2-1-0.5-1.3c-0.3-0.3-0.8-0.5-1.5-0.5c-0.5,0-1.1,0.1-1.6,0.3
		c-0.5,0.2-1.1,0.5-1.7,0.8l-1.3-2.4c0.8-0.5,1.6-0.9,2.5-1.2s1.8-0.5,2.8-0.5c1.6,0,2.8,0.5,3.7,1.4c0.8,0.9,1.3,2.3,1.3,4.2v7.1
		h-3l-0.3-1.3h-0.1c-0.5,0.5-1.1,0.8-1.7,1.1C102.5,483.2,101.8,483.4,101.1,483.4z M102.4,480.5c0.4,0,0.8-0.1,1.1-0.3
		c0.3-0.2,0.6-0.4,0.9-0.8v-2.2c-1.3,0.2-2.2,0.5-2.7,0.8c-0.5,0.3-0.8,0.8-0.8,1.3c0,0.4,0.1,0.7,0.4,0.9
		C101.6,480.4,101.9,480.5,102.4,480.5z"/>
	<path class="st1" d="M114.6,483.4c-0.6,0-1.2-0.1-1.6-0.3c-0.4-0.2-0.8-0.5-1-0.8c-0.3-0.4-0.4-0.8-0.6-1.3
		c-0.1-0.5-0.2-1.1-0.2-1.7v-13.7h3.7v13.8c0,0.4,0.1,0.7,0.2,0.8c0.1,0.2,0.3,0.2,0.4,0.2c0.1,0,0.2,0,0.2,0c0.1,0,0.1,0,0.2,0
		l0.5,2.7c-0.2,0.1-0.5,0.2-0.8,0.2C115.3,483.3,115,483.4,114.6,483.4z"/>
	<path class="st1" d="M121.7,483.4c-0.6,0-1.2-0.1-1.6-0.3c-0.4-0.2-0.8-0.5-1-0.8c-0.3-0.4-0.4-0.8-0.6-1.3
		c-0.1-0.5-0.2-1.1-0.2-1.7v-13.7h3.7v13.8c0,0.4,0.1,0.7,0.2,0.8c0.1,0.2,0.3,0.2,0.4,0.2c0.1,0,0.2,0,0.2,0c0.1,0,0.1,0,0.2,0
		l0.5,2.7c-0.2,0.1-0.5,0.2-0.8,0.2C122.5,483.3,122.1,483.4,121.7,483.4z"/>
	<path class="st1" d="M134.1,483.4c-0.8,0-1.7-0.2-2.5-0.5c-0.9-0.3-1.6-0.7-2.2-1.3l1.6-2.3c0.6,0.4,1.1,0.8,1.6,1s1,0.3,1.6,0.3
		c0.5,0,1-0.1,1.2-0.3c0.3-0.2,0.4-0.4,0.4-0.8c0-0.2-0.1-0.4-0.2-0.5c-0.1-0.2-0.3-0.3-0.6-0.4c-0.2-0.1-0.5-0.3-0.8-0.4
		c-0.3-0.1-0.6-0.2-0.9-0.4c-0.4-0.2-0.8-0.3-1.1-0.5s-0.7-0.4-1-0.7c-0.3-0.3-0.6-0.6-0.8-1c-0.2-0.4-0.3-0.8-0.3-1.4
		c0-0.6,0.1-1.1,0.3-1.6c0.2-0.5,0.5-0.9,1-1.2c0.4-0.3,0.9-0.6,1.5-0.8c0.6-0.2,1.2-0.3,1.9-0.3c1,0,1.8,0.2,2.5,0.5
		c0.7,0.3,1.3,0.7,1.9,1.1l-1.6,2.2c-0.5-0.3-0.9-0.6-1.3-0.8c-0.4-0.2-0.9-0.3-1.3-0.3c-0.9,0-1.4,0.3-1.4,1c0,0.2,0.1,0.4,0.2,0.5
		s0.3,0.3,0.5,0.4c0.2,0.1,0.5,0.2,0.8,0.3s0.6,0.2,0.9,0.3c0.4,0.1,0.8,0.3,1.2,0.5s0.8,0.4,1.1,0.7c0.3,0.3,0.6,0.6,0.8,1
		c0.2,0.4,0.3,0.9,0.3,1.5c0,0.6-0.1,1.1-0.3,1.6s-0.5,0.9-1,1.3c-0.4,0.4-1,0.6-1.6,0.8C135.7,483.3,135,483.4,134.1,483.4z"/>
	<path class="st1" d="M146.9,483.4c-0.8,0-1.5-0.1-2.3-0.4c-0.7-0.3-1.4-0.7-1.9-1.3c-0.6-0.5-1-1.2-1.3-2s-0.5-1.7-0.5-2.8
		c0-1,0.2-2,0.5-2.8c0.3-0.8,0.8-1.5,1.3-2s1.2-1,1.9-1.3c0.7-0.3,1.5-0.4,2.3-0.4c0.8,0,1.5,0.1,2.3,0.4c0.7,0.3,1.4,0.7,1.9,1.3
		c0.6,0.5,1,1.2,1.3,2c0.3,0.8,0.5,1.7,0.5,2.8c0,1-0.2,2-0.5,2.8c-0.3,0.8-0.8,1.5-1.3,2c-0.6,0.6-1.2,1-1.9,1.3
		C148.4,483.2,147.7,483.4,146.9,483.4z M146.9,480.4c0.8,0,1.3-0.3,1.7-1c0.4-0.6,0.6-1.5,0.6-2.6c0-1.1-0.2-1.9-0.6-2.6
		c-0.4-0.6-0.9-0.9-1.7-0.9c-0.8,0-1.3,0.3-1.7,0.9c-0.4,0.6-0.6,1.5-0.6,2.6c0,1.1,0.2,1.9,0.6,2.6
		C145.5,480.1,146.1,480.4,146.9,480.4z"/>
	<path class="st1" d="M160.8,483.4c-0.9,0-1.7-0.1-2.4-0.4c-0.7-0.3-1.4-0.7-1.9-1.3c-0.5-0.5-1-1.2-1.3-2c-0.3-0.8-0.5-1.7-0.5-2.8
		c0-1,0.2-2,0.5-2.8c0.4-0.8,0.8-1.5,1.4-2c0.6-0.5,1.3-1,2.1-1.3c0.8-0.3,1.6-0.4,2.5-0.4c0.8,0,1.4,0.1,2,0.4
		c0.6,0.3,1.1,0.6,1.6,1l-1.7,2.4c-0.6-0.5-1.1-0.7-1.7-0.7c-0.9,0-1.6,0.3-2.1,0.9c-0.5,0.6-0.8,1.5-0.8,2.6c0,1.1,0.3,1.9,0.8,2.6
		c0.5,0.6,1.2,1,2,1c0.4,0,0.8-0.1,1.2-0.3s0.7-0.4,1.1-0.6l1.5,2.4c-0.6,0.5-1.3,0.9-2,1.1C162.2,483.2,161.5,483.4,160.8,483.4z"
		/>
	<path class="st1" d="M168.9,468.8c-0.6,0-1.1-0.2-1.5-0.5c-0.4-0.4-0.6-0.8-0.6-1.4c0-0.6,0.2-1,0.6-1.4c0.4-0.3,0.9-0.5,1.5-0.5
		c0.6,0,1.1,0.2,1.5,0.5c0.4,0.4,0.6,0.8,0.6,1.4c0,0.6-0.2,1-0.6,1.4S169.6,468.8,168.9,468.8z M167.1,483.1v-12.4h3.7v12.4H167.1z
		"/>
	<path class="st1" d="M177.1,483.4c-0.6,0-1.1-0.1-1.5-0.3s-0.8-0.5-1.2-0.8s-0.6-0.7-0.7-1.2c-0.2-0.5-0.3-0.9-0.3-1.5
		c0-1.3,0.6-2.3,1.7-3c1.1-0.7,2.9-1.2,5.3-1.5c0-0.6-0.2-1-0.5-1.3c-0.3-0.3-0.8-0.5-1.5-0.5c-0.5,0-1.1,0.1-1.6,0.3
		c-0.5,0.2-1.1,0.5-1.7,0.8l-1.3-2.4c0.8-0.5,1.6-0.9,2.5-1.2s1.8-0.5,2.8-0.5c1.6,0,2.8,0.5,3.7,1.4c0.8,0.9,1.3,2.3,1.3,4.2v7.1
		h-3l-0.3-1.3h-0.1c-0.5,0.5-1.1,0.8-1.7,1.1C178.5,483.2,177.8,483.4,177.1,483.4z M178.4,480.5c0.4,0,0.8-0.1,1.1-0.3
		c0.3-0.2,0.6-0.4,0.9-0.8v-2.2c-1.3,0.2-2.2,0.5-2.7,0.8c-0.5,0.3-0.8,0.8-0.8,1.3c0,0.4,0.1,0.7,0.4,0.9
		C177.6,480.4,177.9,480.5,178.4,480.5z"/>
	<path class="st1" d="M190.6,483.4c-0.6,0-1.2-0.1-1.6-0.3c-0.4-0.2-0.8-0.5-1-0.8c-0.3-0.4-0.4-0.8-0.6-1.3
		c-0.1-0.5-0.2-1.1-0.2-1.7v-13.7h3.7v13.8c0,0.4,0.1,0.7,0.2,0.8c0.1,0.2,0.3,0.2,0.4,0.2c0.1,0,0.2,0,0.2,0c0.1,0,0.1,0,0.2,0
		l0.5,2.7c-0.2,0.1-0.5,0.2-0.8,0.2C191.3,483.3,191,483.4,190.6,483.4z"/>
	<path class="st1" d="M199.3,483.1v-12.4h3l0.3,1.6h0.1c0.5-0.5,1.1-1,1.6-1.3c0.6-0.4,1.3-0.6,2.1-0.6c0.9,0,1.6,0.2,2.1,0.5
		s1,0.9,1.3,1.5c0.6-0.6,1.1-1.1,1.7-1.5c0.6-0.4,1.3-0.6,2.2-0.6c1.3,0,2.3,0.4,2.9,1.3s0.9,2.1,0.9,3.7v7.7H214v-7.2
		c0-0.9-0.1-1.5-0.4-1.9c-0.2-0.3-0.6-0.5-1.2-0.5c-0.6,0-1.3,0.4-2.1,1.2v8.4h-3.7v-7.2c0-0.9-0.1-1.5-0.4-1.9
		c-0.2-0.3-0.6-0.5-1.2-0.5c-0.6,0-1.3,0.4-2.1,1.2v8.4H199.3z"/>
	<path class="st1" d="M226.3,483.4c-0.9,0-1.7-0.1-2.5-0.4c-0.8-0.3-1.4-0.7-2-1.3c-0.6-0.6-1-1.2-1.3-2c-0.3-0.8-0.5-1.7-0.5-2.8
		c0-1,0.2-1.9,0.5-2.7s0.8-1.5,1.3-2.1c0.5-0.6,1.2-1,1.9-1.3c0.7-0.3,1.4-0.5,2.2-0.5c0.9,0,1.7,0.2,2.3,0.5
		c0.7,0.3,1.2,0.7,1.6,1.3c0.4,0.5,0.8,1.2,1,1.9c0.2,0.7,0.3,1.5,0.3,2.4c0,0.3,0,0.7,0,1c0,0.3-0.1,0.5-0.1,0.7h-7.4
		c0.2,0.9,0.5,1.6,1.1,2s1.3,0.6,2.1,0.6c0.9,0,1.8-0.3,2.7-0.8l1.2,2.2c-0.6,0.4-1.3,0.8-2.1,1S227.1,483.4,226.3,483.4z
		 M223.6,475.5h4.5c0-0.7-0.2-1.3-0.5-1.7s-0.8-0.7-1.6-0.7c-0.6,0-1.1,0.2-1.5,0.6C224,474.1,223.7,474.7,223.6,475.5z"/>
	<path class="st1" d="M238.1,483.4c-0.8,0-1.5-0.1-2.1-0.5c-0.6-0.3-1.2-0.7-1.6-1.3s-0.8-1.2-1-2c-0.2-0.8-0.4-1.7-0.4-2.7
		s0.1-1.9,0.4-2.7c0.3-0.8,0.7-1.5,1.1-2c0.5-0.6,1-1,1.6-1.3s1.3-0.5,1.9-0.5c0.7,0,1.3,0.1,1.7,0.4c0.4,0.2,0.9,0.5,1.3,0.9
		l-0.1-1.9v-4.2h3.7v17.5h-3l-0.3-1.2h-0.1c-0.4,0.4-0.9,0.8-1.5,1.1C239.3,483.2,238.7,483.4,238.1,483.4z M239.1,480.4
		c0.4,0,0.8-0.1,1.1-0.3c0.3-0.2,0.6-0.5,0.9-0.9v-5.1c-0.3-0.3-0.7-0.5-1-0.6c-0.4-0.1-0.7-0.2-1-0.2c-0.6,0-1.1,0.3-1.6,0.8
		c-0.4,0.6-0.7,1.4-0.7,2.6c0,1.2,0.2,2.1,0.6,2.7S238.4,480.4,239.1,480.4z"/>
	<path class="st1" d="M249.9,468.8c-0.6,0-1.1-0.2-1.5-0.5c-0.4-0.4-0.6-0.8-0.6-1.4c0-0.6,0.2-1,0.6-1.4c0.4-0.3,0.9-0.5,1.5-0.5
		c0.6,0,1.1,0.2,1.5,0.5c0.4,0.4,0.6,0.8,0.6,1.4c0,0.6-0.2,1-0.6,1.4S250.5,468.8,249.9,468.8z M248,483.1v-12.4h3.7v12.4H248z"/>
	<path class="st1" d="M258.1,483.4c-0.6,0-1.1-0.1-1.5-0.3s-0.8-0.5-1.2-0.8s-0.6-0.7-0.7-1.2c-0.2-0.5-0.3-0.9-0.3-1.5
		c0-1.3,0.6-2.3,1.7-3c1.1-0.7,2.9-1.2,5.3-1.5c0-0.6-0.2-1-0.5-1.3c-0.3-0.3-0.8-0.5-1.5-0.5c-0.5,0-1.1,0.1-1.6,0.3
		c-0.5,0.2-1.1,0.5-1.7,0.8l-1.3-2.4c0.8-0.5,1.6-0.9,2.5-1.2s1.8-0.5,2.8-0.5c1.6,0,2.8,0.5,3.7,1.4c0.8,0.9,1.3,2.3,1.3,4.2v7.1
		h-3l-0.3-1.3h-0.1c-0.5,0.5-1.1,0.8-1.7,1.1C259.4,483.2,258.8,483.4,258.1,483.4z M259.3,480.5c0.4,0,0.8-0.1,1.1-0.3
		c0.3-0.2,0.6-0.4,0.9-0.8v-2.2c-1.3,0.2-2.2,0.5-2.7,0.8c-0.5,0.3-0.8,0.8-0.8,1.3c0,0.4,0.1,0.7,0.4,0.9
		C258.5,480.4,258.9,480.5,259.3,480.5z"/>
	<path class="st1" d="M273.1,487.7v-17h3l0.3,1.2h0.1c0.5-0.4,1-0.8,1.6-1.1c0.6-0.3,1.2-0.4,1.9-0.4c0.8,0,1.4,0.2,2,0.5
		s1.1,0.7,1.5,1.3c0.4,0.5,0.7,1.2,1,2c0.2,0.8,0.3,1.6,0.3,2.6c0,1.1-0.1,2-0.4,2.8c-0.3,0.8-0.7,1.5-1.2,2.1c-0.5,0.6-1,1-1.7,1.3
		c-0.6,0.3-1.3,0.5-1.9,0.5c-0.5,0-1-0.1-1.5-0.3c-0.5-0.2-1-0.5-1.4-1l0.1,2v3.6H273.1z M278.8,480.4c0.6,0,1.2-0.3,1.6-0.9
		c0.5-0.6,0.7-1.5,0.7-2.8c0-2.2-0.7-3.4-2.2-3.4c-0.7,0-1.4,0.4-2.1,1.1v5.1c0.3,0.3,0.7,0.5,1,0.6
		C278.1,480.3,278.4,480.4,278.8,480.4z"/>
	<path class="st1" d="M290.8,483.4c-0.6,0-1.2-0.1-1.6-0.3c-0.4-0.2-0.8-0.5-1-0.8c-0.3-0.4-0.4-0.8-0.6-1.3
		c-0.1-0.5-0.2-1.1-0.2-1.7v-13.7h3.7v13.8c0,0.4,0.1,0.7,0.2,0.8c0.1,0.2,0.3,0.2,0.4,0.2c0.1,0,0.2,0,0.2,0c0.1,0,0.1,0,0.2,0
		l0.5,2.7c-0.2,0.1-0.5,0.2-0.8,0.2C291.6,483.3,291.2,483.4,290.8,483.4z"/>
	<path class="st1" d="M297.7,483.4c-0.6,0-1.1-0.1-1.5-0.3s-0.8-0.5-1.2-0.8s-0.6-0.7-0.7-1.2c-0.2-0.5-0.3-0.9-0.3-1.5
		c0-1.3,0.6-2.3,1.7-3c1.1-0.7,2.9-1.2,5.3-1.5c0-0.6-0.2-1-0.5-1.3c-0.3-0.3-0.8-0.5-1.5-0.5c-0.5,0-1.1,0.1-1.6,0.3
		c-0.5,0.2-1.1,0.5-1.7,0.8l-1.3-2.4c0.8-0.5,1.6-0.9,2.5-1.2s1.8-0.5,2.8-0.5c1.6,0,2.8,0.5,3.7,1.4c0.8,0.9,1.3,2.3,1.3,4.2v7.1
		h-3l-0.3-1.3h-0.1c-0.5,0.5-1.1,0.8-1.7,1.1C299,483.2,298.4,483.4,297.7,483.4z M299,480.5c0.4,0,0.8-0.1,1.1-0.3
		c0.3-0.2,0.6-0.4,0.9-0.8v-2.2c-1.3,0.2-2.2,0.5-2.7,0.8c-0.5,0.3-0.8,0.8-0.8,1.3c0,0.4,0.1,0.7,0.4,0.9
		C298.2,480.4,298.5,480.5,299,480.5z"/>
	<path class="st1" d="M312.1,483.4c-0.8,0-1.4-0.1-2-0.3c-0.5-0.2-1-0.6-1.3-1c-0.3-0.4-0.6-0.9-0.8-1.5s-0.2-1.2-0.2-2v-5h-1.7
		v-2.7l1.9-0.2l0.4-3.3h3v3.3h3v2.9h-3v5c0,0.7,0.1,1.2,0.4,1.5s0.7,0.5,1.2,0.5c0.2,0,0.4,0,0.6-0.1c0.2,0,0.4-0.1,0.6-0.2l0.6,2.7
		c-0.3,0.1-0.7,0.2-1.2,0.3C313.2,483.3,312.7,483.4,312.1,483.4z"/>
	<path class="st1" d="M317.5,483.1v-9.5h-1.6v-2.7l1.6-0.1V470c0-0.7,0.1-1.3,0.2-1.9c0.2-0.6,0.4-1.1,0.8-1.5s0.8-0.8,1.4-1
		c0.6-0.3,1.3-0.4,2.1-0.4c0.5,0,1,0,1.4,0.2c0.4,0.1,0.8,0.2,1.1,0.3l-0.7,2.7c-0.5-0.2-0.9-0.3-1.3-0.3c-0.5,0-0.8,0.1-1.1,0.4
		c-0.3,0.3-0.4,0.7-0.4,1.4v0.8h2.2v2.9h-2.2v9.5H317.5z"/>
	<path class="st1" d="M330.5,483.4c-0.8,0-1.5-0.1-2.3-0.4c-0.7-0.3-1.4-0.7-1.9-1.3c-0.6-0.5-1-1.2-1.3-2s-0.5-1.7-0.5-2.8
		c0-1,0.2-2,0.5-2.8c0.3-0.8,0.8-1.5,1.3-2s1.2-1,1.9-1.3c0.7-0.3,1.5-0.4,2.3-0.4c0.8,0,1.5,0.1,2.3,0.4c0.7,0.3,1.4,0.7,1.9,1.3
		c0.6,0.5,1,1.2,1.3,2c0.3,0.8,0.5,1.7,0.5,2.8c0,1-0.2,2-0.5,2.8c-0.3,0.8-0.8,1.5-1.3,2c-0.6,0.6-1.2,1-1.9,1.3
		C332,483.2,331.3,483.4,330.5,483.4z M330.5,480.4c0.8,0,1.3-0.3,1.7-1c0.4-0.6,0.6-1.5,0.6-2.6c0-1.1-0.2-1.9-0.6-2.6
		c-0.4-0.6-0.9-0.9-1.7-0.9c-0.8,0-1.3,0.3-1.7,0.9c-0.4,0.6-0.6,1.5-0.6,2.6c0,1.1,0.2,1.9,0.6,2.6
		C329.1,480.1,329.7,480.4,330.5,480.4z"/>
	<path class="st1" d="M339,483.1v-12.4h3l0.3,2.2h0.1c0.4-0.9,1-1.5,1.6-1.9c0.6-0.4,1.3-0.6,1.9-0.6c0.4,0,0.6,0,0.9,0.1
		c0.2,0,0.4,0.1,0.6,0.2l-0.6,3.2c-0.2-0.1-0.5-0.1-0.6-0.1c-0.2,0-0.4,0-0.7,0c-0.5,0-1,0.2-1.5,0.5c-0.5,0.3-0.9,0.9-1.3,1.8v7.2
		H339z"/>
	<path class="st1" d="M349,483.1v-12.4h3l0.3,1.6h0.1c0.5-0.5,1.1-1,1.6-1.3c0.6-0.4,1.3-0.6,2.1-0.6c0.9,0,1.6,0.2,2.1,0.5
		s1,0.9,1.3,1.5c0.6-0.6,1.1-1.1,1.7-1.5c0.6-0.4,1.3-0.6,2.2-0.6c1.3,0,2.3,0.4,2.9,1.3s0.9,2.1,0.9,3.7v7.7h-3.7v-7.2
		c0-0.9-0.1-1.5-0.4-1.9c-0.2-0.3-0.6-0.5-1.2-0.5c-0.6,0-1.3,0.4-2.1,1.2v8.4h-3.7v-7.2c0-0.9-0.1-1.5-0.4-1.9
		c-0.2-0.3-0.6-0.5-1.2-0.5c-0.6,0-1.3,0.4-2.1,1.2v8.4H349z"/>
	<path class="st1" d="M374.1,483.4c-0.8,0-1.7-0.2-2.5-0.5c-0.9-0.3-1.6-0.7-2.2-1.3l1.6-2.3c0.6,0.4,1.1,0.8,1.6,1s1,0.3,1.6,0.3
		c0.5,0,1-0.1,1.2-0.3c0.3-0.2,0.4-0.4,0.4-0.8c0-0.2-0.1-0.4-0.2-0.5c-0.1-0.2-0.3-0.3-0.6-0.4c-0.2-0.1-0.5-0.3-0.8-0.4
		c-0.3-0.1-0.6-0.2-0.9-0.4c-0.4-0.2-0.8-0.3-1.1-0.5s-0.7-0.4-1-0.7c-0.3-0.3-0.6-0.6-0.8-1c-0.2-0.4-0.3-0.8-0.3-1.4
		c0-0.6,0.1-1.1,0.3-1.6c0.2-0.5,0.5-0.9,1-1.2c0.4-0.3,0.9-0.6,1.5-0.8c0.6-0.2,1.2-0.3,1.9-0.3c1,0,1.8,0.2,2.5,0.5
		c0.7,0.3,1.3,0.7,1.9,1.1l-1.6,2.2c-0.5-0.3-0.9-0.6-1.3-0.8c-0.4-0.2-0.9-0.3-1.3-0.3c-0.9,0-1.4,0.3-1.4,1c0,0.2,0.1,0.4,0.2,0.5
		s0.3,0.3,0.5,0.4c0.2,0.1,0.5,0.2,0.8,0.3s0.6,0.2,0.9,0.3c0.4,0.1,0.8,0.3,1.2,0.5s0.8,0.4,1.1,0.7c0.3,0.3,0.6,0.6,0.8,1
		c0.2,0.4,0.3,0.9,0.3,1.5c0,0.6-0.1,1.1-0.3,1.6s-0.5,0.9-1,1.3c-0.4,0.4-1,0.6-1.6,0.8C375.6,483.3,374.9,483.4,374.1,483.4z"/>
	<path class="st1" d="M381.8,487.9L381,486c0.9-0.3,1.6-0.8,2.1-1.3s0.7-1.1,0.7-1.8h-0.2c-0.6,0-1.1-0.2-1.5-0.5
		c-0.5-0.4-0.7-0.9-0.7-1.5c0-0.6,0.2-1.1,0.7-1.5c0.4-0.4,1-0.6,1.6-0.6c0.8,0,1.5,0.3,1.9,0.9c0.4,0.6,0.6,1.5,0.6,2.6
		c0,1.4-0.4,2.6-1.1,3.6C384.3,486.8,383.2,487.5,381.8,487.9z"/>
	<path class="st1" d="M70.2,513.4c-0.9,0-1.7-0.1-2.4-0.4c-0.7-0.3-1.4-0.7-1.9-1.3c-0.5-0.5-1-1.2-1.3-2c-0.3-0.8-0.5-1.7-0.5-2.8
		c0-1,0.2-2,0.5-2.8c0.4-0.8,0.8-1.5,1.4-2c0.6-0.5,1.3-1,2.1-1.3c0.8-0.3,1.6-0.4,2.5-0.4c0.8,0,1.4,0.1,2,0.4
		c0.6,0.3,1.1,0.6,1.6,1l-1.7,2.4c-0.6-0.5-1.1-0.7-1.7-0.7c-0.9,0-1.6,0.3-2.1,0.9c-0.5,0.6-0.8,1.5-0.8,2.6c0,1.1,0.3,1.9,0.8,2.6
		c0.5,0.6,1.2,1,2,1c0.4,0,0.8-0.1,1.2-0.3s0.7-0.4,1.1-0.6l1.5,2.4c-0.6,0.5-1.3,0.9-2,1.1C71.6,513.2,70.9,513.4,70.2,513.4z"/>
	<path class="st1" d="M81.1,513.4c-0.8,0-1.5-0.1-2.3-0.4c-0.7-0.3-1.4-0.7-1.9-1.3c-0.6-0.5-1-1.2-1.3-2s-0.5-1.7-0.5-2.8
		c0-1,0.2-2,0.5-2.8c0.3-0.8,0.8-1.5,1.3-2s1.2-1,1.9-1.3c0.7-0.3,1.5-0.4,2.3-0.4c0.8,0,1.5,0.1,2.3,0.4c0.7,0.3,1.4,0.7,1.9,1.3
		c0.6,0.5,1,1.2,1.3,2c0.3,0.8,0.5,1.7,0.5,2.8c0,1-0.2,2-0.5,2.8c-0.3,0.8-0.8,1.5-1.3,2c-0.6,0.6-1.2,1-1.9,1.3
		C82.7,513.2,81.9,513.4,81.1,513.4z M81.1,510.4c0.8,0,1.3-0.3,1.7-1c0.4-0.6,0.6-1.5,0.6-2.6c0-1.1-0.2-1.9-0.6-2.6
		c-0.4-0.6-0.9-0.9-1.7-0.9c-0.8,0-1.3,0.3-1.7,0.9c-0.4,0.6-0.6,1.5-0.6,2.6c0,1.1,0.2,1.9,0.6,2.6
		C79.8,510.1,80.4,510.4,81.1,510.4z"/>
	<path class="st1" d="M89.7,513.1v-12.4h3l0.3,1.6H93c0.5-0.5,1.1-1,1.6-1.3c0.6-0.4,1.3-0.6,2.1-0.6c0.9,0,1.6,0.2,2.1,0.5
		s1,0.9,1.3,1.5c0.6-0.6,1.1-1.1,1.7-1.5c0.6-0.4,1.3-0.6,2.2-0.6c1.3,0,2.3,0.4,2.9,1.3s0.9,2.1,0.9,3.7v7.7h-3.7v-7.2
		c0-0.9-0.1-1.5-0.4-1.9c-0.2-0.3-0.6-0.5-1.2-0.5c-0.6,0-1.3,0.4-2.1,1.2v8.4H97v-7.2c0-0.9-0.1-1.5-0.4-1.9
		c-0.2-0.3-0.6-0.5-1.2-0.5c-0.6,0-1.3,0.4-2.1,1.2v8.4H89.7z"/>
	<path class="st1" d="M111.1,517.7v-17h3l0.3,1.2h0.1c0.5-0.4,1-0.8,1.6-1.1c0.6-0.3,1.2-0.4,1.9-0.4c0.8,0,1.4,0.2,2,0.5
		s1.1,0.7,1.5,1.3c0.4,0.5,0.7,1.2,1,2c0.2,0.8,0.3,1.6,0.3,2.6c0,1.1-0.1,2-0.4,2.8c-0.3,0.8-0.7,1.5-1.2,2.1c-0.5,0.6-1,1-1.7,1.3
		c-0.6,0.3-1.3,0.5-1.9,0.5c-0.5,0-1-0.1-1.5-0.3c-0.5-0.2-1-0.5-1.4-1l0.1,2v3.6H111.1z M116.8,510.4c0.6,0,1.2-0.3,1.6-0.9
		c0.5-0.6,0.7-1.5,0.7-2.8c0-2.2-0.7-3.4-2.2-3.4c-0.7,0-1.4,0.4-2.1,1.1v5.1c0.3,0.3,0.7,0.5,1,0.6
		C116.1,510.3,116.4,510.4,116.8,510.4z"/>
	<path class="st1" d="M131,513.4c-0.9,0-1.7-0.1-2.5-0.4c-0.8-0.3-1.4-0.7-2-1.3c-0.6-0.6-1-1.2-1.3-2c-0.3-0.8-0.5-1.7-0.5-2.8
		c0-1,0.2-1.9,0.5-2.7s0.8-1.5,1.3-2.1c0.5-0.6,1.2-1,1.9-1.3c0.7-0.3,1.4-0.5,2.2-0.5c0.9,0,1.7,0.2,2.3,0.5
		c0.7,0.3,1.2,0.7,1.6,1.3c0.4,0.5,0.8,1.2,1,1.9c0.2,0.7,0.3,1.5,0.3,2.4c0,0.3,0,0.7,0,1c0,0.3-0.1,0.5-0.1,0.7h-7.4
		c0.2,0.9,0.5,1.6,1.1,2s1.3,0.6,2.1,0.6c0.9,0,1.8-0.3,2.7-0.8l1.2,2.2c-0.6,0.4-1.3,0.8-2.1,1S131.7,513.4,131,513.4z
		 M128.2,505.5h4.5c0-0.7-0.2-1.3-0.5-1.7s-0.8-0.7-1.6-0.7c-0.6,0-1.1,0.2-1.5,0.6C128.6,504.1,128.4,504.7,128.2,505.5z"/>
	<path class="st1" d="M142.9,513.4c-0.8,0-1.4-0.1-2-0.3c-0.5-0.2-1-0.6-1.3-1c-0.3-0.4-0.6-0.9-0.8-1.5s-0.2-1.2-0.2-2v-5h-1.7
		v-2.7l1.9-0.2l0.4-3.3h3v3.3h3v2.9h-3v5c0,0.7,0.1,1.2,0.4,1.5s0.7,0.5,1.2,0.5c0.2,0,0.4,0,0.6-0.1c0.2,0,0.4-0.1,0.6-0.2l0.6,2.7
		c-0.3,0.1-0.7,0.2-1.2,0.3C144,513.3,143.5,513.4,142.9,513.4z"/>
	<path class="st1" d="M149.5,498.8c-0.6,0-1.1-0.2-1.5-0.5c-0.4-0.4-0.6-0.8-0.6-1.4c0-0.6,0.2-1,0.6-1.4c0.4-0.3,0.9-0.5,1.5-0.5
		c0.6,0,1.1,0.2,1.5,0.5c0.4,0.4,0.6,0.8,0.6,1.4c0,0.6-0.2,1-0.6,1.4S150.2,498.8,149.5,498.8z M147.7,513.1v-12.4h3.7v12.4H147.7z
		"/>
	<path class="st1" d="M154.6,513.1v-12.4h3l0.3,1.6h0.1c0.5-0.5,1.1-0.9,1.8-1.3c0.6-0.4,1.4-0.6,2.2-0.6c1.3,0,2.3,0.4,2.9,1.3
		c0.6,0.9,0.9,2.1,0.9,3.7v7.7h-3.7v-7.2c0-0.9-0.1-1.5-0.4-1.9c-0.2-0.3-0.6-0.5-1.2-0.5c-0.5,0-0.9,0.1-1.2,0.3
		c-0.3,0.2-0.7,0.5-1.1,0.9v8.4H154.6z"/>
	<path class="st1" d="M173.3,518.3c-0.7,0-1.4-0.1-2-0.2s-1.2-0.3-1.7-0.6c-0.5-0.3-0.8-0.6-1.1-1c-0.3-0.4-0.4-0.9-0.4-1.4
		c0-1,0.6-1.8,1.8-2.5v-0.1c-0.3-0.2-0.6-0.5-0.8-0.8s-0.3-0.8-0.3-1.3c0-0.5,0.1-0.9,0.4-1.3s0.6-0.8,1-1v-0.1
		c-0.4-0.3-0.8-0.7-1.2-1.3c-0.3-0.6-0.5-1.2-0.5-1.9c0-0.8,0.1-1.4,0.4-2c0.3-0.6,0.7-1,1.1-1.4c0.5-0.4,1-0.7,1.6-0.8
		s1.3-0.3,1.9-0.3c0.7,0,1.4,0.1,1.9,0.3h4.5v2.7h-2c0.1,0.2,0.2,0.4,0.3,0.7c0.1,0.3,0.1,0.6,0.1,0.9c0,0.7-0.1,1.3-0.4,1.9
		c-0.3,0.5-0.6,1-1,1.3c-0.4,0.3-1,0.6-1.6,0.8s-1.2,0.3-1.9,0.3c-0.5,0-1-0.1-1.5-0.3c-0.2,0.1-0.3,0.3-0.4,0.4
		c-0.1,0.1-0.1,0.3-0.1,0.5c0,0.3,0.1,0.5,0.4,0.7c0.3,0.1,0.8,0.2,1.5,0.2h2c1.5,0,2.7,0.2,3.5,0.7c0.8,0.5,1.2,1.3,1.2,2.4
		c0,0.6-0.2,1.2-0.5,1.8c-0.3,0.5-0.8,1-1.4,1.4s-1.3,0.7-2.2,0.9C175.4,518.2,174.4,518.3,173.3,518.3z M173.9,516
		c0.8,0,1.5-0.1,2-0.4c0.5-0.3,0.8-0.7,0.8-1.1c0-0.4-0.2-0.6-0.5-0.8c-0.3-0.1-0.8-0.2-1.4-0.2h-1.3c-0.4,0-0.8,0-1,0
		s-0.5-0.1-0.7-0.1c-0.4,0.4-0.7,0.8-0.7,1.2c0,0.5,0.3,0.8,0.8,1.1S173.1,516,173.9,516z M173.6,506.9c0.5,0,0.9-0.2,1.2-0.5
		c0.3-0.3,0.5-0.9,0.5-1.6c0-0.7-0.2-1.1-0.5-1.5c-0.3-0.3-0.7-0.5-1.2-0.5c-0.5,0-0.9,0.2-1.2,0.5c-0.3,0.3-0.5,0.8-0.5,1.5
		c0,0.7,0.2,1.2,0.5,1.6C172.7,506.7,173.1,506.9,173.6,506.9z"/>
	<path class="st1" d="M192,513.4c-0.8,0-1.4-0.1-2-0.3c-0.5-0.2-1-0.6-1.3-1c-0.3-0.4-0.6-0.9-0.8-1.5s-0.2-1.2-0.2-2v-5h-1.7v-2.7
		l1.9-0.2l0.4-3.3h3v3.3h3v2.9h-3v5c0,0.7,0.1,1.2,0.4,1.5s0.7,0.5,1.2,0.5c0.2,0,0.4,0,0.6-0.1c0.2,0,0.4-0.1,0.6-0.2l0.6,2.7
		c-0.3,0.1-0.7,0.2-1.2,0.3C193.2,513.3,192.6,513.4,192,513.4z"/>
	<path class="st1" d="M201.7,513.4c-0.8,0-1.5-0.1-2.3-0.4c-0.7-0.3-1.4-0.7-1.9-1.3c-0.6-0.5-1-1.2-1.3-2s-0.5-1.7-0.5-2.8
		c0-1,0.2-2,0.5-2.8c0.3-0.8,0.8-1.5,1.3-2s1.2-1,1.9-1.3c0.7-0.3,1.5-0.4,2.3-0.4c0.8,0,1.5,0.1,2.3,0.4c0.7,0.3,1.4,0.7,1.9,1.3
		c0.6,0.5,1,1.2,1.3,2c0.3,0.8,0.5,1.7,0.5,2.8c0,1-0.2,2-0.5,2.8c-0.3,0.8-0.8,1.5-1.3,2c-0.6,0.6-1.2,1-1.9,1.3
		C203.2,513.2,202.5,513.4,201.7,513.4z M201.7,510.4c0.8,0,1.3-0.3,1.7-1c0.4-0.6,0.6-1.5,0.6-2.6c0-1.1-0.2-1.9-0.6-2.6
		c-0.4-0.6-0.9-0.9-1.7-0.9c-0.8,0-1.3,0.3-1.7,0.9c-0.4,0.6-0.6,1.5-0.6,2.6c0,1.1,0.2,1.9,0.6,2.6
		C200.4,510.1,200.9,510.4,201.7,510.4z"/>
	<path class="st1" d="M217.3,513.1l-3.1-12.4h3.6l1.2,5.8c0.1,0.6,0.2,1.2,0.3,1.8c0.1,0.6,0.2,1.2,0.3,1.9h0.1
		c0.1-0.6,0.2-1.3,0.3-1.9c0.1-0.6,0.2-1.2,0.4-1.8l1.4-5.8h3.2l1.4,5.8c0.1,0.6,0.3,1.2,0.4,1.8c0.1,0.6,0.2,1.2,0.4,1.9h0.1
		c0.1-0.6,0.2-1.3,0.3-1.9c0.1-0.6,0.2-1.2,0.3-1.8l1.2-5.8h3.4l-3,12.4h-4.3l-1.1-5c-0.1-0.6-0.3-1.2-0.4-1.8
		c-0.1-0.6-0.2-1.2-0.3-1.9h-0.1c-0.1,0.7-0.2,1.3-0.3,1.9c-0.1,0.6-0.2,1.2-0.3,1.8l-1.1,5H217.3z"/>
	<path class="st1" d="M236.5,498.8c-0.6,0-1.1-0.2-1.5-0.5c-0.4-0.4-0.6-0.8-0.6-1.4c0-0.6,0.2-1,0.6-1.4c0.4-0.3,0.9-0.5,1.5-0.5
		c0.6,0,1.1,0.2,1.5,0.5c0.4,0.4,0.6,0.8,0.6,1.4c0,0.6-0.2,1-0.6,1.4S237.1,498.8,236.5,498.8z M234.7,513.1v-12.4h3.7v12.4H234.7z
		"/>
	<path class="st1" d="M241.6,513.1v-12.4h3l0.3,1.6h0.1c0.5-0.5,1.1-0.9,1.8-1.3c0.6-0.4,1.4-0.6,2.2-0.6c1.3,0,2.3,0.4,2.9,1.3
		c0.6,0.9,0.9,2.1,0.9,3.7v7.7h-3.7v-7.2c0-0.9-0.1-1.5-0.4-1.9c-0.2-0.3-0.6-0.5-1.2-0.5c-0.5,0-0.9,0.1-1.2,0.3
		c-0.3,0.2-0.7,0.5-1.1,0.9v8.4H241.6z"/>
	<path class="st1" d="M261.5,513.1v-9.5h-1.6v-2.7l1.6-0.1V500c0-0.7,0.1-1.3,0.2-1.9c0.2-0.6,0.4-1.1,0.8-1.5s0.8-0.8,1.4-1
		c0.6-0.3,1.3-0.4,2.1-0.4c0.5,0,1,0,1.4,0.2c0.4,0.1,0.8,0.2,1.1,0.3l-0.7,2.7c-0.5-0.2-0.9-0.3-1.3-0.3c-0.5,0-0.8,0.1-1.1,0.4
		c-0.3,0.3-0.4,0.7-0.4,1.4v0.8h2.2v2.9h-2.2v9.5H261.5z"/>
	<path class="st1" d="M272,513.4c-0.6,0-1.1-0.1-1.5-0.3s-0.8-0.5-1.2-0.8s-0.6-0.7-0.7-1.2c-0.2-0.5-0.3-0.9-0.3-1.5
		c0-1.3,0.6-2.3,1.7-3c1.1-0.7,2.9-1.2,5.3-1.5c0-0.6-0.2-1-0.5-1.3c-0.3-0.3-0.8-0.5-1.5-0.5c-0.5,0-1.1,0.1-1.6,0.3
		c-0.5,0.2-1.1,0.5-1.7,0.8l-1.3-2.4c0.8-0.5,1.6-0.9,2.5-1.2s1.8-0.5,2.8-0.5c1.6,0,2.8,0.5,3.7,1.4c0.8,0.9,1.3,2.3,1.3,4.2v7.1
		h-3l-0.3-1.3h-0.1c-0.5,0.5-1.1,0.8-1.7,1.1C273.3,513.2,272.7,513.4,272,513.4z M273.3,510.5c0.4,0,0.8-0.1,1.1-0.3
		c0.3-0.2,0.6-0.4,0.9-0.8v-2.2c-1.3,0.2-2.2,0.5-2.7,0.8c-0.5,0.3-0.8,0.8-0.8,1.3c0,0.4,0.1,0.7,0.4,0.9
		C272.5,510.4,272.8,510.5,273.3,510.5z"/>
	<path class="st1" d="M288.6,513.4c-0.5,0-1.1-0.1-1.7-0.4c-0.6-0.3-1.1-0.7-1.6-1.2h-0.1l-0.3,1.3h-2.9v-17.5h3.7v4.3l-0.1,1.9
		c0.5-0.4,1-0.8,1.6-1c0.6-0.2,1.1-0.4,1.7-0.4c0.8,0,1.4,0.2,2,0.5s1.1,0.7,1.5,1.3c0.4,0.5,0.8,1.2,1,2c0.2,0.8,0.3,1.6,0.3,2.6
		c0,1.1-0.1,2-0.4,2.8c-0.3,0.8-0.7,1.5-1.2,2.1c-0.5,0.6-1,1-1.7,1.3C289.9,513.2,289.2,513.4,288.6,513.4z M287.7,510.4
		c0.6,0,1.2-0.3,1.6-0.9c0.5-0.6,0.7-1.5,0.7-2.8c0-2.2-0.7-3.4-2.2-3.4c-0.7,0-1.4,0.4-2.1,1.1v5.1c0.3,0.3,0.7,0.5,1,0.6
		C287.1,510.3,287.4,510.4,287.7,510.4z"/>
	<path class="st1" d="M300.1,513.4c-1.4,0-2.3-0.4-2.9-1.3c-0.6-0.9-0.9-2.1-0.9-3.7v-7.7h3.7v7.2c0,0.9,0.1,1.5,0.4,1.8
		c0.3,0.3,0.6,0.5,1.2,0.5c0.5,0,0.9-0.1,1.2-0.3c0.3-0.2,0.7-0.6,1-1v-8.2h3.7v12.4h-3l-0.3-1.7H304c-0.5,0.6-1.1,1.1-1.7,1.5
		C301.7,513.2,301,513.4,300.1,513.4z"/>
	<path class="st1" d="M314,513.4c-0.6,0-1.2-0.1-1.6-0.3c-0.4-0.2-0.8-0.5-1-0.8c-0.3-0.4-0.4-0.8-0.6-1.3c-0.1-0.5-0.2-1.1-0.2-1.7
		v-13.7h3.7v13.8c0,0.4,0.1,0.7,0.2,0.8c0.1,0.2,0.3,0.2,0.4,0.2c0.1,0,0.2,0,0.2,0c0.1,0,0.1,0,0.2,0l0.5,2.7
		c-0.2,0.1-0.5,0.2-0.8,0.2C314.7,513.3,314.4,513.4,314,513.4z"/>
	<path class="st1" d="M323.1,513.4c-0.8,0-1.5-0.1-2.3-0.4c-0.7-0.3-1.4-0.7-1.9-1.3c-0.6-0.5-1-1.2-1.3-2s-0.5-1.7-0.5-2.8
		c0-1,0.2-2,0.5-2.8c0.3-0.8,0.8-1.5,1.3-2s1.2-1,1.9-1.3c0.7-0.3,1.5-0.4,2.3-0.4c0.8,0,1.5,0.1,2.3,0.4c0.7,0.3,1.4,0.7,1.9,1.3
		c0.6,0.5,1,1.2,1.3,2c0.3,0.8,0.5,1.7,0.5,2.8c0,1-0.2,2-0.5,2.8c-0.3,0.8-0.8,1.5-1.3,2c-0.6,0.6-1.2,1-1.9,1.3
		C324.6,513.2,323.8,513.4,323.1,513.4z M323.1,510.4c0.8,0,1.3-0.3,1.7-1c0.4-0.6,0.6-1.5,0.6-2.6c0-1.1-0.2-1.9-0.6-2.6
		c-0.4-0.6-0.9-0.9-1.7-0.9c-0.8,0-1.3,0.3-1.7,0.9c-0.4,0.6-0.6,1.5-0.6,2.6c0,1.1,0.2,1.9,0.6,2.6
		C321.7,510.1,322.3,510.4,323.1,510.4z"/>
	<path class="st1" d="M335.3,513.4c-1.4,0-2.3-0.4-2.9-1.3c-0.6-0.9-0.9-2.1-0.9-3.7v-7.7h3.7v7.2c0,0.9,0.1,1.5,0.4,1.8
		c0.3,0.3,0.6,0.5,1.2,0.5c0.5,0,0.9-0.1,1.2-0.3c0.3-0.2,0.7-0.6,1-1v-8.2h3.7v12.4h-3l-0.3-1.7h-0.1c-0.5,0.6-1.1,1.1-1.7,1.5
		C336.9,513.2,336.2,513.4,335.3,513.4z"/>
	<path class="st1" d="M349.5,513.4c-0.8,0-1.7-0.2-2.5-0.5c-0.9-0.3-1.6-0.7-2.2-1.3l1.6-2.3c0.6,0.4,1.1,0.8,1.6,1s1,0.3,1.6,0.3
		c0.5,0,1-0.1,1.2-0.3c0.3-0.2,0.4-0.4,0.4-0.8c0-0.2-0.1-0.4-0.2-0.5c-0.1-0.2-0.3-0.3-0.6-0.4c-0.2-0.1-0.5-0.3-0.8-0.4
		c-0.3-0.1-0.6-0.2-0.9-0.4c-0.4-0.2-0.8-0.3-1.1-0.5s-0.7-0.4-1-0.7c-0.3-0.3-0.6-0.6-0.8-1c-0.2-0.4-0.3-0.8-0.3-1.4
		c0-0.6,0.1-1.1,0.3-1.6c0.2-0.5,0.5-0.9,1-1.2c0.4-0.3,0.9-0.6,1.5-0.8c0.6-0.2,1.2-0.3,1.9-0.3c1,0,1.8,0.2,2.5,0.5
		c0.7,0.3,1.3,0.7,1.9,1.1l-1.6,2.2c-0.5-0.3-0.9-0.6-1.3-0.8c-0.4-0.2-0.9-0.3-1.3-0.3c-0.9,0-1.4,0.3-1.4,1c0,0.2,0.1,0.4,0.2,0.5
		s0.3,0.3,0.5,0.4c0.2,0.1,0.5,0.2,0.8,0.3s0.6,0.2,0.9,0.3c0.4,0.1,0.8,0.3,1.2,0.5s0.8,0.4,1.1,0.7c0.3,0.3,0.6,0.6,0.8,1
		c0.2,0.4,0.3,0.9,0.3,1.5c0,0.6-0.1,1.1-0.3,1.6s-0.5,0.9-1,1.3c-0.4,0.4-1,0.6-1.6,0.8C351,513.3,350.3,513.4,349.5,513.4z"/>
	<path class="st1" d="M361.9,517.7v-17h3l0.3,1.2h0.1c0.5-0.4,1-0.8,1.6-1.1c0.6-0.3,1.2-0.4,1.9-0.4c0.8,0,1.4,0.2,2,0.5
		s1.1,0.7,1.5,1.3c0.4,0.5,0.7,1.2,1,2c0.2,0.8,0.3,1.6,0.3,2.6c0,1.1-0.1,2-0.4,2.8c-0.3,0.8-0.7,1.5-1.2,2.1c-0.5,0.6-1,1-1.7,1.3
		c-0.6,0.3-1.3,0.5-1.9,0.5c-0.5,0-1-0.1-1.5-0.3c-0.5-0.2-1-0.5-1.4-1l0.1,2v3.6H361.9z M367.5,510.4c0.6,0,1.2-0.3,1.6-0.9
		c0.5-0.6,0.7-1.5,0.7-2.8c0-2.2-0.7-3.4-2.2-3.4c-0.7,0-1.4,0.4-2.1,1.1v5.1c0.3,0.3,0.7,0.5,1,0.6
		C366.9,510.3,367.2,510.4,367.5,510.4z"/>
	<path class="st1" d="M376.2,513.1v-12.4h3l0.3,2.2h0.1c0.4-0.9,1-1.5,1.6-1.9c0.6-0.4,1.3-0.6,1.9-0.6c0.4,0,0.6,0,0.9,0.1
		c0.2,0,0.4,0.1,0.6,0.2l-0.6,3.2c-0.2-0.1-0.5-0.1-0.6-0.1c-0.2,0-0.4,0-0.7,0c-0.5,0-1,0.2-1.5,0.5c-0.5,0.3-0.9,0.9-1.3,1.8v7.2
		H376.2z"/>
	<path class="st1" d="M388,498.8c-0.6,0-1.1-0.2-1.5-0.5c-0.4-0.4-0.6-0.8-0.6-1.4c0-0.6,0.2-1,0.6-1.4c0.4-0.3,0.9-0.5,1.5-0.5
		c0.6,0,1.1,0.2,1.5,0.5c0.4,0.4,0.6,0.8,0.6,1.4c0,0.6-0.2,1-0.6,1.4S388.6,498.8,388,498.8z M386.2,513.1v-12.4h3.7v12.4H386.2z"
		/>
	<path class="st1" d="M392.4,513.1v-2l5.2-7.6h-4.6v-2.9h9.2v2l-5.2,7.6h5.4v2.9H392.4z"/>
	<path class="st1" d="M409.8,513.4c-0.9,0-1.7-0.1-2.5-0.4c-0.8-0.3-1.4-0.7-2-1.3c-0.6-0.6-1-1.2-1.3-2c-0.3-0.8-0.5-1.7-0.5-2.8
		c0-1,0.2-1.9,0.5-2.7s0.8-1.5,1.3-2.1c0.5-0.6,1.2-1,1.9-1.3c0.7-0.3,1.4-0.5,2.2-0.5c0.9,0,1.7,0.2,2.3,0.5
		c0.7,0.3,1.2,0.7,1.6,1.3c0.4,0.5,0.8,1.2,1,1.9c0.2,0.7,0.3,1.5,0.3,2.4c0,0.3,0,0.7,0,1c0,0.3-0.1,0.5-0.1,0.7h-7.4
		c0.2,0.9,0.5,1.6,1.1,2s1.3,0.6,2.1,0.6c0.9,0,1.8-0.3,2.7-0.8l1.2,2.2c-0.6,0.4-1.3,0.8-2.1,1S410.6,513.4,409.8,513.4z
		 M407.1,505.5h4.5c0-0.7-0.2-1.3-0.5-1.7s-0.8-0.7-1.6-0.7c-0.6,0-1.1,0.2-1.5,0.6C407.5,504.1,407.2,504.7,407.1,505.5z"/>
	<path class="st1" d="M420.9,513.4c-0.8,0-1.7-0.2-2.5-0.5c-0.9-0.3-1.6-0.7-2.2-1.3l1.6-2.3c0.6,0.4,1.1,0.8,1.6,1s1,0.3,1.6,0.3
		c0.5,0,1-0.1,1.2-0.3c0.3-0.2,0.4-0.4,0.4-0.8c0-0.2-0.1-0.4-0.2-0.5c-0.1-0.2-0.3-0.3-0.6-0.4c-0.2-0.1-0.5-0.3-0.8-0.4
		c-0.3-0.1-0.6-0.2-0.9-0.4c-0.4-0.2-0.8-0.3-1.1-0.5s-0.7-0.4-1-0.7c-0.3-0.3-0.6-0.6-0.8-1c-0.2-0.4-0.3-0.8-0.3-1.4
		c0-0.6,0.1-1.1,0.3-1.6c0.2-0.5,0.5-0.9,1-1.2c0.4-0.3,0.9-0.6,1.5-0.8c0.6-0.2,1.2-0.3,1.9-0.3c1,0,1.8,0.2,2.5,0.5
		c0.7,0.3,1.3,0.7,1.9,1.1l-1.6,2.2c-0.5-0.3-0.9-0.6-1.3-0.8c-0.4-0.2-0.9-0.3-1.3-0.3c-0.9,0-1.4,0.3-1.4,1c0,0.2,0.1,0.4,0.2,0.5
		s0.3,0.3,0.5,0.4c0.2,0.1,0.5,0.2,0.8,0.3s0.6,0.2,0.9,0.3c0.4,0.1,0.8,0.3,1.2,0.5s0.8,0.4,1.1,0.7c0.3,0.3,0.6,0.6,0.8,1
		c0.2,0.4,0.3,0.9,0.3,1.5c0,0.6-0.1,1.1-0.3,1.6s-0.5,0.9-1,1.3c-0.4,0.4-1,0.6-1.6,0.8C422.5,513.3,421.7,513.4,420.9,513.4z"/>
	<path class="st1" d="M428.6,517.9l-0.8-1.9c0.9-0.3,1.6-0.8,2.1-1.3s0.7-1.1,0.7-1.8h-0.2c-0.6,0-1.1-0.2-1.5-0.5
		c-0.5-0.4-0.7-0.9-0.7-1.5c0-0.6,0.2-1.1,0.7-1.5c0.4-0.4,1-0.6,1.6-0.6c0.8,0,1.5,0.3,1.9,0.9c0.4,0.6,0.6,1.5,0.6,2.6
		c0,1.4-0.4,2.6-1.1,3.6C431.2,516.8,430.1,517.5,428.6,517.9z"/>
	<path class="st1" d="M68,543.4c-0.6,0-1.1-0.1-1.5-0.3s-0.8-0.5-1.2-0.8s-0.6-0.7-0.7-1.2c-0.2-0.5-0.3-0.9-0.3-1.5
		c0-1.3,0.6-2.3,1.7-3c1.1-0.7,2.9-1.2,5.3-1.5c0-0.6-0.2-1-0.5-1.3c-0.3-0.3-0.8-0.5-1.5-0.5c-0.5,0-1.1,0.1-1.6,0.3
		c-0.5,0.2-1.1,0.5-1.7,0.8l-1.3-2.4c0.8-0.5,1.6-0.9,2.5-1.2s1.8-0.5,2.8-0.5c1.6,0,2.8,0.5,3.7,1.4c0.8,0.9,1.3,2.3,1.3,4.2v7.1
		h-3l-0.3-1.3h-0.1c-0.5,0.5-1.1,0.8-1.7,1.1C69.3,543.2,68.7,543.4,68,543.4z M69.2,540.5c0.4,0,0.8-0.1,1.1-0.3
		c0.3-0.2,0.6-0.4,0.9-0.8v-2.2c-1.3,0.2-2.2,0.5-2.7,0.8c-0.5,0.3-0.8,0.8-0.8,1.3c0,0.4,0.1,0.7,0.4,0.9
		C68.4,540.4,68.8,540.5,69.2,540.5z"/>
	<path class="st1" d="M78,543.1v-12.4h3l0.3,1.6h0.1c0.5-0.5,1.1-0.9,1.8-1.3c0.6-0.4,1.4-0.6,2.2-0.6c1.3,0,2.3,0.4,2.9,1.3
		c0.6,0.9,0.9,2.1,0.9,3.7v7.7h-3.7v-7.2c0-0.9-0.1-1.5-0.4-1.9c-0.2-0.3-0.6-0.5-1.2-0.5c-0.5,0-0.9,0.1-1.2,0.3
		c-0.3,0.2-0.7,0.5-1.1,0.9v8.4H78z"/>
	<path class="st1" d="M96.7,543.4c-0.8,0-1.5-0.1-2.1-0.5c-0.6-0.3-1.2-0.7-1.6-1.3s-0.8-1.2-1-2c-0.2-0.8-0.4-1.7-0.4-2.7
		s0.1-1.9,0.4-2.7c0.3-0.8,0.7-1.5,1.1-2c0.5-0.6,1-1,1.6-1.3s1.3-0.5,1.9-0.5c0.7,0,1.3,0.1,1.7,0.4c0.4,0.2,0.9,0.5,1.3,0.9
		l-0.1-1.9v-4.2h3.7v17.5h-3l-0.3-1.2H100c-0.4,0.4-0.9,0.8-1.5,1.1C97.9,543.2,97.3,543.4,96.7,543.4z M97.7,540.4
		c0.4,0,0.8-0.1,1.1-0.3c0.3-0.2,0.6-0.5,0.9-0.9v-5.1c-0.3-0.3-0.7-0.5-1-0.6c-0.4-0.1-0.7-0.2-1-0.2c-0.6,0-1.1,0.3-1.6,0.8
		c-0.4,0.6-0.7,1.4-0.7,2.6c0,1.2,0.2,2.1,0.6,2.7S97,540.4,97.7,540.4z"/>
	<path class="st1" d="M115.3,543.4c-0.8,0-1.7-0.2-2.5-0.5c-0.9-0.3-1.6-0.7-2.2-1.3l1.6-2.3c0.6,0.4,1.1,0.8,1.6,1s1,0.3,1.6,0.3
		c0.5,0,1-0.1,1.2-0.3c0.3-0.2,0.4-0.4,0.4-0.8c0-0.2-0.1-0.4-0.2-0.5c-0.1-0.2-0.3-0.3-0.6-0.4c-0.2-0.1-0.5-0.3-0.8-0.4
		c-0.3-0.1-0.6-0.2-0.9-0.4c-0.4-0.2-0.8-0.3-1.1-0.5s-0.7-0.4-1-0.7c-0.3-0.3-0.6-0.6-0.8-1c-0.2-0.4-0.3-0.8-0.3-1.4
		c0-0.6,0.1-1.1,0.3-1.6c0.2-0.5,0.5-0.9,1-1.2c0.4-0.3,0.9-0.6,1.5-0.8c0.6-0.2,1.2-0.3,1.9-0.3c1,0,1.8,0.2,2.5,0.5
		c0.7,0.3,1.3,0.7,1.9,1.1l-1.6,2.2c-0.5-0.3-0.9-0.6-1.3-0.8c-0.4-0.2-0.9-0.3-1.3-0.3c-0.9,0-1.4,0.3-1.4,1c0,0.2,0.1,0.4,0.2,0.5
		s0.3,0.3,0.5,0.4c0.2,0.1,0.5,0.2,0.8,0.3s0.6,0.2,0.9,0.3c0.4,0.1,0.8,0.3,1.2,0.5s0.8,0.4,1.1,0.7c0.3,0.3,0.6,0.6,0.8,1
		c0.2,0.4,0.3,0.9,0.3,1.5c0,0.6-0.1,1.1-0.3,1.6s-0.5,0.9-1,1.3c-0.4,0.4-1,0.6-1.6,0.8C116.8,543.3,116.1,543.4,115.3,543.4z"/>
	<path class="st1" d="M122.7,543.1v-17.5h3.7v4.3l-0.2,2.2c0.5-0.4,1-0.8,1.6-1.2c0.6-0.4,1.4-0.5,2.2-0.5c1.3,0,2.3,0.4,2.9,1.3
		c0.6,0.9,0.9,2.1,0.9,3.7v7.7h-3.7v-7.2c0-0.9-0.1-1.5-0.4-1.9c-0.2-0.3-0.6-0.5-1.2-0.5c-0.5,0-0.9,0.1-1.2,0.3
		c-0.3,0.2-0.7,0.5-1.1,0.9v8.4H122.7z"/>
	<path class="st1" d="M140.1,543.4c-0.6,0-1.1-0.1-1.5-0.3s-0.8-0.5-1.2-0.8s-0.6-0.7-0.7-1.2c-0.2-0.5-0.3-0.9-0.3-1.5
		c0-1.3,0.6-2.3,1.7-3c1.1-0.7,2.9-1.2,5.3-1.5c0-0.6-0.2-1-0.5-1.3c-0.3-0.3-0.8-0.5-1.5-0.5c-0.5,0-1.1,0.1-1.6,0.3
		c-0.5,0.2-1.1,0.5-1.7,0.8l-1.3-2.4c0.8-0.5,1.6-0.9,2.5-1.2s1.8-0.5,2.8-0.5c1.6,0,2.8,0.5,3.7,1.4c0.8,0.9,1.3,2.3,1.3,4.2v7.1
		h-3l-0.3-1.3h-0.1c-0.5,0.5-1.1,0.8-1.7,1.1C141.4,543.2,140.8,543.4,140.1,543.4z M141.4,540.5c0.4,0,0.8-0.1,1.1-0.3
		c0.3-0.2,0.6-0.4,0.9-0.8v-2.2c-1.3,0.2-2.2,0.5-2.7,0.8c-0.5,0.3-0.8,0.8-0.8,1.3c0,0.4,0.1,0.7,0.4,0.9
		C140.6,540.4,140.9,540.5,141.4,540.5z"/>
	<path class="st1" d="M150.2,543.1v-12.4h3l0.3,2.2h0.1c0.4-0.9,1-1.5,1.6-1.9c0.6-0.4,1.3-0.6,1.9-0.6c0.4,0,0.6,0,0.9,0.1
		c0.2,0,0.4,0.1,0.6,0.2l-0.6,3.2c-0.2-0.1-0.5-0.1-0.6-0.1c-0.2,0-0.4,0-0.7,0c-0.5,0-1,0.2-1.5,0.5c-0.5,0.3-0.9,0.9-1.3,1.8v7.2
		H150.2z"/>
	<path class="st1" d="M161.9,528.8c-0.6,0-1.1-0.2-1.5-0.5c-0.4-0.4-0.6-0.8-0.6-1.4c0-0.6,0.2-1,0.6-1.4c0.4-0.3,0.9-0.5,1.5-0.5
		c0.6,0,1.1,0.2,1.5,0.5c0.4,0.4,0.6,0.8,0.6,1.4c0,0.6-0.2,1-0.6,1.4S162.6,528.8,161.9,528.8z M160.1,543.1v-12.4h3.7v12.4H160.1z
		"/>
	<path class="st1" d="M167,543.1v-12.4h3l0.3,1.6h0.1c0.5-0.5,1.1-0.9,1.8-1.3c0.6-0.4,1.4-0.6,2.2-0.6c1.3,0,2.3,0.4,2.9,1.3
		c0.6,0.9,0.9,2.1,0.9,3.7v7.7h-3.7v-7.2c0-0.9-0.1-1.5-0.4-1.9c-0.2-0.3-0.6-0.5-1.2-0.5c-0.5,0-0.9,0.1-1.2,0.3
		c-0.3,0.2-0.7,0.5-1.1,0.9v8.4H167z"/>
	<path class="st1" d="M185.7,548.3c-0.7,0-1.4-0.1-2-0.2s-1.2-0.3-1.7-0.6c-0.5-0.3-0.8-0.6-1.1-1c-0.3-0.4-0.4-0.9-0.4-1.4
		c0-1,0.6-1.8,1.8-2.5v-0.1c-0.3-0.2-0.6-0.5-0.8-0.8s-0.3-0.8-0.3-1.3c0-0.5,0.1-0.9,0.4-1.3s0.6-0.8,1-1v-0.1
		c-0.4-0.3-0.8-0.7-1.2-1.3c-0.3-0.6-0.5-1.2-0.5-1.9c0-0.8,0.1-1.4,0.4-2c0.3-0.6,0.7-1,1.1-1.4c0.5-0.4,1-0.7,1.6-0.8
		s1.3-0.3,1.9-0.3c0.7,0,1.4,0.1,1.9,0.3h4.5v2.7h-2c0.1,0.2,0.2,0.4,0.3,0.7c0.1,0.3,0.1,0.6,0.1,0.9c0,0.7-0.1,1.3-0.4,1.9
		c-0.3,0.5-0.6,1-1,1.3c-0.4,0.3-1,0.6-1.6,0.8s-1.2,0.3-1.9,0.3c-0.5,0-1-0.1-1.5-0.3c-0.2,0.1-0.3,0.3-0.4,0.4
		c-0.1,0.1-0.1,0.3-0.1,0.5c0,0.3,0.1,0.5,0.4,0.7c0.3,0.1,0.8,0.2,1.5,0.2h2c1.5,0,2.7,0.2,3.5,0.7c0.8,0.5,1.2,1.3,1.2,2.4
		c0,0.6-0.2,1.2-0.5,1.8c-0.3,0.5-0.8,1-1.4,1.4s-1.3,0.7-2.2,0.9C187.8,548.2,186.8,548.3,185.7,548.3z M186.3,546
		c0.8,0,1.5-0.1,2-0.4c0.5-0.3,0.8-0.7,0.8-1.1c0-0.4-0.2-0.6-0.5-0.8c-0.3-0.1-0.8-0.2-1.4-0.2H186c-0.4,0-0.8,0-1,0
		s-0.5-0.1-0.7-0.1c-0.4,0.4-0.7,0.8-0.7,1.2c0,0.5,0.3,0.8,0.8,1.1S185.5,546,186.3,546z M186,536.9c0.5,0,0.9-0.2,1.2-0.5
		c0.3-0.3,0.5-0.9,0.5-1.6c0-0.7-0.2-1.1-0.5-1.5c-0.3-0.3-0.7-0.5-1.2-0.5c-0.5,0-0.9,0.2-1.2,0.5c-0.3,0.3-0.5,0.8-0.5,1.5
		c0,0.7,0.2,1.2,0.5,1.6C185.1,536.7,185.5,536.9,186,536.9z"/>
	<path class="st1" d="M204.4,543.4c-0.8,0-1.4-0.1-2-0.3c-0.5-0.2-1-0.6-1.3-1c-0.3-0.4-0.6-0.9-0.8-1.5s-0.2-1.2-0.2-2v-5h-1.7
		v-2.7l1.9-0.2l0.4-3.3h3v3.3h3v2.9h-3v5c0,0.7,0.1,1.2,0.4,1.5s0.7,0.5,1.2,0.5c0.2,0,0.4,0,0.6-0.1c0.2,0,0.4-0.1,0.6-0.2l0.6,2.7
		c-0.3,0.1-0.7,0.2-1.2,0.3C205.6,543.3,205,543.4,204.4,543.4z"/>
	<path class="st1" d="M209.2,543.1v-17.5h3.7v4.3l-0.2,2.2c0.5-0.4,1-0.8,1.6-1.2c0.6-0.4,1.4-0.5,2.2-0.5c1.3,0,2.3,0.4,2.9,1.3
		c0.6,0.9,0.9,2.1,0.9,3.7v7.7h-3.7v-7.2c0-0.9-0.1-1.5-0.4-1.9c-0.2-0.3-0.6-0.5-1.2-0.5c-0.5,0-0.9,0.1-1.2,0.3
		c-0.3,0.2-0.7,0.5-1.1,0.9v8.4H209.2z"/>
	<path class="st1" d="M229.1,543.4c-0.9,0-1.7-0.1-2.5-0.4c-0.8-0.3-1.4-0.7-2-1.3c-0.6-0.6-1-1.2-1.3-2c-0.3-0.8-0.5-1.7-0.5-2.8
		c0-1,0.2-1.9,0.5-2.7s0.8-1.5,1.3-2.1c0.5-0.6,1.2-1,1.9-1.3c0.7-0.3,1.4-0.5,2.2-0.5c0.9,0,1.7,0.2,2.3,0.5
		c0.7,0.3,1.2,0.7,1.6,1.3c0.4,0.5,0.8,1.2,1,1.9c0.2,0.7,0.3,1.5,0.3,2.4c0,0.3,0,0.7,0,1c0,0.3-0.1,0.5-0.1,0.7h-7.4
		c0.2,0.9,0.5,1.6,1.1,2s1.3,0.6,2.1,0.6c0.9,0,1.8-0.3,2.7-0.8l1.2,2.2c-0.6,0.4-1.3,0.8-2.1,1S229.8,543.4,229.1,543.4z
		 M226.3,535.5h4.5c0-0.7-0.2-1.3-0.5-1.7s-0.8-0.7-1.6-0.7c-0.6,0-1.1,0.2-1.5,0.6C226.7,534.1,226.4,534.7,226.3,535.5z"/>
	<path class="st1" d="M248,543.4c-0.5,0-1.1-0.1-1.7-0.4c-0.6-0.3-1.1-0.7-1.6-1.2h-0.1l-0.3,1.3h-2.9v-17.5h3.7v4.3l-0.1,1.9
		c0.5-0.4,1-0.8,1.6-1c0.6-0.2,1.1-0.4,1.7-0.4c0.8,0,1.4,0.2,2,0.5s1.1,0.7,1.5,1.3c0.4,0.5,0.8,1.2,1,2c0.2,0.8,0.3,1.6,0.3,2.6
		c0,1.1-0.1,2-0.4,2.8c-0.3,0.8-0.7,1.5-1.2,2.1c-0.5,0.6-1,1-1.7,1.3C249.3,543.2,248.6,543.4,248,543.4z M247.1,540.4
		c0.6,0,1.2-0.3,1.6-0.9c0.5-0.6,0.7-1.5,0.7-2.8c0-2.2-0.7-3.4-2.2-3.4c-0.7,0-1.4,0.4-2.1,1.1v5.1c0.3,0.3,0.7,0.5,1,0.6
		C246.5,540.3,246.8,540.4,247.1,540.4z"/>
	<path class="st1" d="M261.3,543.4c-0.9,0-1.7-0.1-2.5-0.4c-0.8-0.3-1.4-0.7-2-1.3c-0.6-0.6-1-1.2-1.3-2c-0.3-0.8-0.5-1.7-0.5-2.8
		c0-1,0.2-1.9,0.5-2.7s0.8-1.5,1.3-2.1c0.5-0.6,1.2-1,1.9-1.3c0.7-0.3,1.4-0.5,2.2-0.5c0.9,0,1.7,0.2,2.3,0.5
		c0.7,0.3,1.2,0.7,1.6,1.3c0.4,0.5,0.8,1.2,1,1.9c0.2,0.7,0.3,1.5,0.3,2.4c0,0.3,0,0.7,0,1c0,0.3-0.1,0.5-0.1,0.7h-7.4
		c0.2,0.9,0.5,1.6,1.1,2s1.3,0.6,2.1,0.6c0.9,0,1.8-0.3,2.7-0.8l1.2,2.2c-0.6,0.4-1.3,0.8-2.1,1S262.1,543.4,261.3,543.4z
		 M258.6,535.5h4.5c0-0.7-0.2-1.3-0.5-1.7s-0.8-0.7-1.6-0.7c-0.6,0-1.1,0.2-1.5,0.6C259,534.1,258.7,534.7,258.6,535.5z"/>
	<path class="st1" d="M271.6,543.4c-0.6,0-1.1-0.1-1.5-0.3s-0.8-0.5-1.2-0.8s-0.6-0.7-0.7-1.2c-0.2-0.5-0.3-0.9-0.3-1.5
		c0-1.3,0.6-2.3,1.7-3c1.1-0.7,2.9-1.2,5.3-1.5c0-0.6-0.2-1-0.5-1.3c-0.3-0.3-0.8-0.5-1.5-0.5c-0.5,0-1.1,0.1-1.6,0.3
		c-0.5,0.2-1.1,0.5-1.7,0.8l-1.3-2.4c0.8-0.5,1.6-0.9,2.5-1.2s1.8-0.5,2.8-0.5c1.6,0,2.8,0.5,3.7,1.4c0.8,0.9,1.3,2.3,1.3,4.2v7.1
		h-3l-0.3-1.3h-0.1c-0.5,0.5-1.1,0.8-1.7,1.1C272.9,543.2,272.3,543.4,271.6,543.4z M272.8,540.5c0.4,0,0.8-0.1,1.1-0.3
		c0.3-0.2,0.6-0.4,0.9-0.8v-2.2c-1.3,0.2-2.2,0.5-2.7,0.8c-0.5,0.3-0.8,0.8-0.8,1.3c0,0.4,0.1,0.7,0.4,0.9
		C272,540.4,272.4,540.5,272.8,540.5z"/>
	<path class="st1" d="M285.4,543.4c-1.4,0-2.3-0.4-2.9-1.3c-0.6-0.9-0.9-2.1-0.9-3.7v-7.7h3.7v7.2c0,0.9,0.1,1.5,0.4,1.8
		c0.3,0.3,0.6,0.5,1.2,0.5c0.5,0,0.9-0.1,1.2-0.3c0.3-0.2,0.7-0.6,1-1v-8.2h3.7v12.4h-3l-0.3-1.7h-0.1c-0.5,0.6-1.1,1.1-1.7,1.5
		C286.9,543.2,286.2,543.4,285.4,543.4z"/>
	<path class="st1" d="M300.6,543.4c-0.8,0-1.4-0.1-2-0.3c-0.5-0.2-1-0.6-1.3-1c-0.3-0.4-0.6-0.9-0.8-1.5s-0.2-1.2-0.2-2v-5h-1.7
		v-2.7l1.9-0.2l0.4-3.3h3v3.3h3v2.9h-3v5c0,0.7,0.1,1.2,0.4,1.5s0.7,0.5,1.2,0.5c0.2,0,0.4,0,0.6-0.1c0.2,0,0.4-0.1,0.6-0.2l0.6,2.7
		c-0.3,0.1-0.7,0.2-1.2,0.3C301.7,543.3,301.2,543.4,300.6,543.4z"/>
	<path class="st1" d="M307.2,528.8c-0.6,0-1.1-0.2-1.5-0.5c-0.4-0.4-0.6-0.8-0.6-1.4c0-0.6,0.2-1,0.6-1.4c0.4-0.3,0.9-0.5,1.5-0.5
		c0.6,0,1.1,0.2,1.5,0.5c0.4,0.4,0.6,0.8,0.6,1.4c0,0.6-0.2,1-0.6,1.4S307.9,528.8,307.2,528.8z M305.4,543.1v-12.4h3.7v12.4H305.4z
		"/>
	<path class="st1" d="M312.9,543.1v-9.5h-1.6v-2.7l1.6-0.1V530c0-0.7,0.1-1.3,0.2-1.9c0.2-0.6,0.4-1.1,0.8-1.5s0.8-0.8,1.4-1
		c0.6-0.3,1.3-0.4,2.1-0.4c0.5,0,1,0,1.4,0.2c0.4,0.1,0.8,0.2,1.1,0.3l-0.7,2.7c-0.5-0.2-0.9-0.3-1.3-0.3c-0.5,0-0.8,0.1-1.1,0.4
		c-0.3,0.3-0.4,0.7-0.4,1.4v0.8h2.2v2.9h-2.2v9.5H312.9z"/>
	<path class="st1" d="M324.6,543.4c-1.4,0-2.3-0.4-2.9-1.3c-0.6-0.9-0.9-2.1-0.9-3.7v-7.7h3.7v7.2c0,0.9,0.1,1.5,0.4,1.8
		c0.3,0.3,0.6,0.5,1.2,0.5c0.5,0,0.9-0.1,1.2-0.3c0.3-0.2,0.7-0.6,1-1v-8.2h3.7v12.4h-3l-0.3-1.7h-0.1c-0.5,0.6-1.1,1.1-1.7,1.5
		C326.1,543.2,325.4,543.4,324.6,543.4z"/>
	<path class="st1" d="M338.4,543.4c-0.6,0-1.2-0.1-1.6-0.3c-0.4-0.2-0.8-0.5-1-0.8c-0.3-0.4-0.4-0.8-0.6-1.3
		c-0.1-0.5-0.2-1.1-0.2-1.7v-13.7h3.7v13.8c0,0.4,0.1,0.7,0.2,0.8c0.1,0.2,0.3,0.2,0.4,0.2c0.1,0,0.2,0,0.2,0c0.1,0,0.1,0,0.2,0
		l0.5,2.7c-0.2,0.1-0.5,0.2-0.8,0.2C339.2,543.3,338.8,543.4,338.4,543.4z"/>
	<path class="st1" d="M350.8,543.4c-0.8,0-1.7-0.2-2.5-0.5c-0.9-0.3-1.6-0.7-2.2-1.3l1.6-2.3c0.6,0.4,1.1,0.8,1.6,1s1,0.3,1.6,0.3
		c0.5,0,1-0.1,1.2-0.3c0.3-0.2,0.4-0.4,0.4-0.8c0-0.2-0.1-0.4-0.2-0.5c-0.1-0.2-0.3-0.3-0.6-0.4c-0.2-0.1-0.5-0.3-0.8-0.4
		c-0.3-0.1-0.6-0.2-0.9-0.4c-0.4-0.2-0.8-0.3-1.1-0.5s-0.7-0.4-1-0.7c-0.3-0.3-0.6-0.6-0.8-1c-0.2-0.4-0.3-0.8-0.3-1.4
		c0-0.6,0.1-1.1,0.3-1.6c0.2-0.5,0.5-0.9,1-1.2c0.4-0.3,0.9-0.6,1.5-0.8c0.6-0.2,1.2-0.3,1.9-0.3c1,0,1.8,0.2,2.5,0.5
		c0.7,0.3,1.3,0.7,1.9,1.1l-1.6,2.2c-0.5-0.3-0.9-0.6-1.3-0.8c-0.4-0.2-0.9-0.3-1.3-0.3c-0.9,0-1.4,0.3-1.4,1c0,0.2,0.1,0.4,0.2,0.5
		s0.3,0.3,0.5,0.4c0.2,0.1,0.5,0.2,0.8,0.3s0.6,0.2,0.9,0.3c0.4,0.1,0.8,0.3,1.2,0.5s0.8,0.4,1.1,0.7c0.3,0.3,0.6,0.6,0.8,1
		c0.2,0.4,0.3,0.9,0.3,1.5c0,0.6-0.1,1.1-0.3,1.6s-0.5,0.9-1,1.3c-0.4,0.4-1,0.6-1.6,0.8C352.4,543.3,351.7,543.4,350.8,543.4z"/>
	<path class="st1" d="M362.5,543.4c-0.8,0-1.4-0.1-2-0.3c-0.5-0.2-1-0.6-1.3-1c-0.3-0.4-0.6-0.9-0.8-1.5s-0.2-1.2-0.2-2v-5h-1.7
		v-2.7l1.9-0.2l0.4-3.3h3v3.3h3v2.9h-3v5c0,0.7,0.1,1.2,0.4,1.5s0.7,0.5,1.2,0.5c0.2,0,0.4,0,0.6-0.1c0.2,0,0.4-0.1,0.6-0.2l0.6,2.7
		c-0.3,0.1-0.7,0.2-1.2,0.3C363.6,543.3,363.1,543.4,362.5,543.4z"/>
	<path class="st1" d="M372.2,543.4c-0.8,0-1.5-0.1-2.3-0.4c-0.7-0.3-1.4-0.7-1.9-1.3c-0.6-0.5-1-1.2-1.3-2s-0.5-1.7-0.5-2.8
		c0-1,0.2-2,0.5-2.8c0.3-0.8,0.8-1.5,1.3-2s1.2-1,1.9-1.3c0.7-0.3,1.5-0.4,2.3-0.4c0.8,0,1.5,0.1,2.3,0.4c0.7,0.3,1.4,0.7,1.9,1.3
		c0.6,0.5,1,1.2,1.3,2c0.3,0.8,0.5,1.7,0.5,2.8c0,1-0.2,2-0.5,2.8c-0.3,0.8-0.8,1.5-1.3,2c-0.6,0.6-1.2,1-1.9,1.3
		C373.7,543.2,373,543.4,372.2,543.4z M372.2,540.4c0.8,0,1.3-0.3,1.7-1c0.4-0.6,0.6-1.5,0.6-2.6c0-1.1-0.2-1.9-0.6-2.6
		c-0.4-0.6-0.9-0.9-1.7-0.9c-0.8,0-1.3,0.3-1.7,0.9c-0.4,0.6-0.6,1.5-0.6,2.6c0,1.1,0.2,1.9,0.6,2.6
		C370.9,540.1,371.4,540.4,372.2,540.4z"/>
	<path class="st1" d="M380.8,543.1v-12.4h3l0.3,2.2h0.1c0.4-0.9,1-1.5,1.6-1.9c0.6-0.4,1.3-0.6,1.9-0.6c0.4,0,0.6,0,0.9,0.1
		c0.2,0,0.4,0.1,0.6,0.2l-0.6,3.2c-0.2-0.1-0.5-0.1-0.6-0.1c-0.2,0-0.4,0-0.7,0c-0.5,0-1,0.2-1.5,0.5c-0.5,0.3-0.9,0.9-1.3,1.8v7.2
		H380.8z"/>
	<path class="st1" d="M392.5,528.8c-0.6,0-1.1-0.2-1.5-0.5c-0.4-0.4-0.6-0.8-0.6-1.4c0-0.6,0.2-1,0.6-1.4c0.4-0.3,0.9-0.5,1.5-0.5
		c0.6,0,1.1,0.2,1.5,0.5c0.4,0.4,0.6,0.8,0.6,1.4c0,0.6-0.2,1-0.6,1.4S393.2,528.8,392.5,528.8z M390.7,543.1v-12.4h3.7v12.4H390.7z
		"/>
	<path class="st1" d="M403.1,543.4c-0.9,0-1.7-0.1-2.5-0.4c-0.8-0.3-1.4-0.7-2-1.3c-0.6-0.6-1-1.2-1.3-2c-0.3-0.8-0.5-1.7-0.5-2.8
		c0-1,0.2-1.9,0.5-2.7s0.8-1.5,1.3-2.1c0.5-0.6,1.2-1,1.9-1.3c0.7-0.3,1.4-0.5,2.2-0.5c0.9,0,1.7,0.2,2.3,0.5
		c0.7,0.3,1.2,0.7,1.6,1.3c0.4,0.5,0.8,1.2,1,1.9c0.2,0.7,0.3,1.5,0.3,2.4c0,0.3,0,0.7,0,1c0,0.3-0.1,0.5-0.1,0.7h-7.4
		c0.2,0.9,0.5,1.6,1.1,2s1.3,0.6,2.1,0.6c0.9,0,1.8-0.3,2.7-0.8l1.2,2.2c-0.6,0.4-1.3,0.8-2.1,1S403.9,543.4,403.1,543.4z
		 M400.4,535.5h4.5c0-0.7-0.2-1.3-0.5-1.7s-0.8-0.7-1.6-0.7c-0.6,0-1.1,0.2-1.5,0.6C400.8,534.1,400.5,534.7,400.4,535.5z"/>
	<path class="st1" d="M414.2,543.4c-0.8,0-1.7-0.2-2.5-0.5c-0.9-0.3-1.6-0.7-2.2-1.3l1.6-2.3c0.6,0.4,1.1,0.8,1.6,1s1,0.3,1.6,0.3
		c0.5,0,1-0.1,1.2-0.3c0.3-0.2,0.4-0.4,0.4-0.8c0-0.2-0.1-0.4-0.2-0.5c-0.1-0.2-0.3-0.3-0.6-0.4c-0.2-0.1-0.5-0.3-0.8-0.4
		c-0.3-0.1-0.6-0.2-0.9-0.4c-0.4-0.2-0.8-0.3-1.1-0.5s-0.7-0.4-1-0.7c-0.3-0.3-0.6-0.6-0.8-1c-0.2-0.4-0.3-0.8-0.3-1.4
		c0-0.6,0.1-1.1,0.3-1.6c0.2-0.5,0.5-0.9,1-1.2c0.4-0.3,0.9-0.6,1.5-0.8c0.6-0.2,1.2-0.3,1.9-0.3c1,0,1.8,0.2,2.5,0.5
		c0.7,0.3,1.3,0.7,1.9,1.1l-1.6,2.2c-0.5-0.3-0.9-0.6-1.3-0.8c-0.4-0.2-0.9-0.3-1.3-0.3c-0.9,0-1.4,0.3-1.4,1c0,0.2,0.1,0.4,0.2,0.5
		s0.3,0.3,0.5,0.4c0.2,0.1,0.5,0.2,0.8,0.3s0.6,0.2,0.9,0.3c0.4,0.1,0.8,0.3,1.2,0.5s0.8,0.4,1.1,0.7c0.3,0.3,0.6,0.6,0.8,1
		c0.2,0.4,0.3,0.9,0.3,1.5c0,0.6-0.1,1.1-0.3,1.6s-0.5,0.9-1,1.3c-0.4,0.4-1,0.6-1.6,0.8C415.8,543.3,415,543.4,414.2,543.4z"/>
	<path class="st1" d="M431.9,543.4c-0.8,0-1.5-0.1-2.3-0.4c-0.7-0.3-1.4-0.7-1.9-1.3c-0.6-0.5-1-1.2-1.3-2s-0.5-1.7-0.5-2.8
		c0-1,0.2-2,0.5-2.8c0.3-0.8,0.8-1.5,1.3-2s1.2-1,1.9-1.3c0.7-0.3,1.5-0.4,2.3-0.4c0.8,0,1.5,0.1,2.3,0.4c0.7,0.3,1.4,0.7,1.9,1.3
		c0.6,0.5,1,1.2,1.3,2c0.3,0.8,0.5,1.7,0.5,2.8c0,1-0.2,2-0.5,2.8c-0.3,0.8-0.8,1.5-1.3,2c-0.6,0.6-1.2,1-1.9,1.3
		C433.5,543.2,432.7,543.4,431.9,543.4z M431.9,540.4c0.8,0,1.3-0.3,1.7-1c0.4-0.6,0.6-1.5,0.6-2.6c0-1.1-0.2-1.9-0.6-2.6
		c-0.4-0.6-0.9-0.9-1.7-0.9c-0.8,0-1.3,0.3-1.7,0.9c-0.4,0.6-0.6,1.5-0.6,2.6c0,1.1,0.2,1.9,0.6,2.6
		C430.6,540.1,431.2,540.4,431.9,540.4z"/>
	<path class="st1" d="M441,543.1v-9.5h-1.6v-2.7l1.6-0.1V530c0-0.7,0.1-1.3,0.2-1.9c0.2-0.6,0.4-1.1,0.8-1.5s0.8-0.8,1.4-1
		c0.6-0.3,1.3-0.4,2.1-0.4c0.5,0,1,0,1.4,0.2c0.4,0.1,0.8,0.2,1.1,0.3l-0.7,2.7c-0.5-0.2-0.9-0.3-1.3-0.3c-0.5,0-0.8,0.1-1.1,0.4
		c-0.3,0.3-0.4,0.7-0.4,1.4v0.8h2.2v2.9h-2.2v9.5H441z"/>
	<path class="st1" d="M70.2,573.4c-0.8,0-1.5-0.1-2.3-0.4c-0.7-0.3-1.4-0.7-1.9-1.3c-0.6-0.5-1-1.2-1.3-2s-0.5-1.7-0.5-2.8
		c0-1,0.2-2,0.5-2.8c0.3-0.8,0.8-1.5,1.3-2s1.2-1,1.9-1.3c0.7-0.3,1.5-0.4,2.3-0.4c0.8,0,1.5,0.1,2.3,0.4c0.7,0.3,1.4,0.7,1.9,1.3
		c0.6,0.5,1,1.2,1.3,2c0.3,0.8,0.5,1.7,0.5,2.8c0,1-0.2,2-0.5,2.8c-0.3,0.8-0.8,1.5-1.3,2c-0.6,0.6-1.2,1-1.9,1.3
		C71.7,573.2,70.9,573.4,70.2,573.4z M70.2,570.4c0.8,0,1.3-0.3,1.7-1c0.4-0.6,0.6-1.5,0.6-2.6c0-1.1-0.2-1.9-0.6-2.6
		c-0.4-0.6-0.9-0.9-1.7-0.9c-0.8,0-1.3,0.3-1.7,0.9c-0.4,0.6-0.6,1.5-0.6,2.6c0,1.1,0.2,1.9,0.6,2.6
		C68.8,570.1,69.4,570.4,70.2,570.4z"/>
	<path class="st1" d="M82.4,573.4c-1.4,0-2.3-0.4-2.9-1.3c-0.6-0.9-0.9-2.1-0.9-3.7v-7.7h3.7v7.2c0,0.9,0.1,1.5,0.4,1.8
		c0.3,0.3,0.6,0.5,1.2,0.5c0.5,0,0.9-0.1,1.2-0.3c0.3-0.2,0.7-0.6,1-1v-8.2h3.7v12.4h-3l-0.3-1.7h-0.1c-0.5,0.6-1.1,1.1-1.7,1.5
		C84,573.2,83.3,573.4,82.4,573.4z"/>
	<path class="st1" d="M92.9,573.1v-12.4h3l0.3,2.2h0.1c0.4-0.9,1-1.5,1.6-1.9c0.6-0.4,1.3-0.6,1.9-0.6c0.4,0,0.6,0,0.9,0.1
		c0.2,0,0.4,0.1,0.6,0.2l-0.6,3.2c-0.2-0.1-0.5-0.1-0.6-0.1c-0.2,0-0.4,0-0.7,0c-0.5,0-1,0.2-1.5,0.5c-0.5,0.3-0.9,0.9-1.3,1.8v7.2
		H92.9z"/>
	<path class="st1" d="M111.9,573.4c-1.3,0-2.3-0.2-3.1-0.7c-0.8-0.5-1.5-1.2-2.1-2.2l2.5-1.8c0.3,0.5,0.6,1,1.1,1.2
		c0.4,0.3,0.8,0.4,1.2,0.4c0.7,0,1.2-0.2,1.5-0.6c0.3-0.4,0.5-1.2,0.5-2.2v-10.6h3.7v10.9c0,0.8-0.1,1.5-0.3,2.2
		c-0.2,0.7-0.5,1.3-1,1.8c-0.4,0.5-1,0.9-1.6,1.2C113.6,573.2,112.8,573.4,111.9,573.4z"/>
	<path class="st1" d="M123.7,573.4c-0.6,0-1.1-0.1-1.5-0.3s-0.8-0.5-1.2-0.8s-0.6-0.7-0.7-1.2c-0.2-0.5-0.3-0.9-0.3-1.5
		c0-1.3,0.6-2.3,1.7-3c1.1-0.7,2.9-1.2,5.3-1.5c0-0.6-0.2-1-0.5-1.3c-0.3-0.3-0.8-0.5-1.5-0.5c-0.5,0-1.1,0.1-1.6,0.3
		c-0.5,0.2-1.1,0.5-1.7,0.8l-1.3-2.4c0.8-0.5,1.6-0.9,2.5-1.2s1.8-0.5,2.8-0.5c1.6,0,2.8,0.5,3.7,1.4c0.8,0.9,1.3,2.3,1.3,4.2v7.1
		h-3l-0.3-1.3h-0.1c-0.5,0.5-1.1,0.8-1.7,1.1C125,573.2,124.4,573.4,123.7,573.4z M125,570.5c0.4,0,0.8-0.1,1.1-0.3
		c0.3-0.2,0.6-0.4,0.9-0.8v-2.2c-1.3,0.2-2.2,0.5-2.7,0.8c-0.5,0.3-0.8,0.8-0.8,1.3c0,0.4,0.1,0.7,0.4,0.9
		C124.2,570.4,124.5,570.5,125,570.5z"/>
	<path class="st1" d="M133.8,573.1v-12.4h3l0.3,2.2h0.1c0.4-0.9,1-1.5,1.6-1.9c0.6-0.4,1.3-0.6,1.9-0.6c0.4,0,0.6,0,0.9,0.1
		c0.2,0,0.4,0.1,0.6,0.2l-0.6,3.2c-0.2-0.1-0.5-0.1-0.6-0.1c-0.2,0-0.4,0-0.7,0c-0.5,0-1,0.2-1.5,0.5c-0.5,0.3-0.9,0.9-1.3,1.8v7.2
		H133.8z"/>
	<path class="st1" d="M146.1,573.4c-0.6,0-1.1-0.1-1.5-0.3s-0.8-0.5-1.2-0.8s-0.6-0.7-0.7-1.2c-0.2-0.5-0.3-0.9-0.3-1.5
		c0-1.3,0.6-2.3,1.7-3c1.1-0.7,2.9-1.2,5.3-1.5c0-0.6-0.2-1-0.5-1.3c-0.3-0.3-0.8-0.5-1.5-0.5c-0.5,0-1.1,0.1-1.6,0.3
		c-0.5,0.2-1.1,0.5-1.7,0.8l-1.3-2.4c0.8-0.5,1.6-0.9,2.5-1.2s1.8-0.5,2.8-0.5c1.6,0,2.8,0.5,3.7,1.4c0.8,0.9,1.3,2.3,1.3,4.2v7.1
		h-3l-0.3-1.3h-0.1c-0.5,0.5-1.1,0.8-1.7,1.1C147.5,573.2,146.8,573.4,146.1,573.4z M147.4,570.5c0.4,0,0.8-0.1,1.1-0.3
		c0.3-0.2,0.6-0.4,0.9-0.8v-2.2c-1.3,0.2-2.2,0.5-2.7,0.8c-0.5,0.3-0.8,0.8-0.8,1.3c0,0.4,0.1,0.7,0.4,0.9
		C146.6,570.4,146.9,570.5,147.4,570.5z"/>
	<path class="st1" d="M161.5,573.1v-16.3h5.6c0.9,0,1.6,0.1,2.4,0.2c0.7,0.1,1.4,0.3,1.9,0.7c0.5,0.3,1,0.7,1.3,1.3
		c0.3,0.5,0.5,1.2,0.5,2c0,0.4,0,0.7-0.1,1.1c-0.1,0.4-0.2,0.7-0.4,1s-0.4,0.6-0.7,0.8c-0.3,0.3-0.6,0.4-0.9,0.6v0.1
		c0.4,0.1,0.8,0.3,1.1,0.5c0.4,0.2,0.7,0.5,0.9,0.8c0.3,0.3,0.5,0.7,0.6,1.1c0.1,0.4,0.2,0.9,0.2,1.5c0,0.8-0.2,1.5-0.5,2.1
		c-0.3,0.6-0.8,1.1-1.4,1.5c-0.6,0.4-1.2,0.7-2,0.9c-0.8,0.2-1.6,0.3-2.5,0.3H161.5z M165.2,563.3h1.7c0.9,0,1.6-0.2,2-0.5
		c0.4-0.4,0.6-0.8,0.6-1.4c0-0.6-0.2-1.1-0.6-1.3s-1.1-0.4-1.9-0.4h-1.8V563.3z M165.2,570.2h2.1c2,0,3-0.7,3-2.2
		c0-0.7-0.3-1.2-0.8-1.5c-0.5-0.3-1.3-0.5-2.3-0.5h-2.1V570.2z"/>
	<path class="st1" d="M176.3,573.1v-12.4h3l0.3,2.2h0.1c0.4-0.9,1-1.5,1.6-1.9c0.6-0.4,1.3-0.6,1.9-0.6c0.4,0,0.6,0,0.9,0.1
		c0.2,0,0.4,0.1,0.6,0.2l-0.6,3.2c-0.2-0.1-0.5-0.1-0.6-0.1c-0.2,0-0.4,0-0.7,0c-0.5,0-1,0.2-1.5,0.5c-0.5,0.3-0.9,0.9-1.3,1.8v7.2
		H176.3z"/>
	<path class="st1" d="M188.7,573.4c-0.6,0-1.1-0.1-1.5-0.3s-0.8-0.5-1.2-0.8s-0.6-0.7-0.7-1.2c-0.2-0.5-0.3-0.9-0.3-1.5
		c0-1.3,0.6-2.3,1.7-3c1.1-0.7,2.9-1.2,5.3-1.5c0-0.6-0.2-1-0.5-1.3c-0.3-0.3-0.8-0.5-1.5-0.5c-0.5,0-1.1,0.1-1.6,0.3
		c-0.5,0.2-1.1,0.5-1.7,0.8l-1.3-2.4c0.8-0.5,1.6-0.9,2.5-1.2s1.8-0.5,2.8-0.5c1.6,0,2.8,0.5,3.7,1.4c0.8,0.9,1.3,2.3,1.3,4.2v7.1
		h-3l-0.3-1.3h-0.1c-0.5,0.5-1.1,0.8-1.7,1.1C190,573.2,189.4,573.4,188.7,573.4z M189.9,570.5c0.4,0,0.8-0.1,1.1-0.3
		c0.3-0.2,0.6-0.4,0.9-0.8v-2.2c-1.3,0.2-2.2,0.5-2.7,0.8c-0.5,0.3-0.8,0.8-0.8,1.3c0,0.4,0.1,0.7,0.4,0.9
		C189.1,570.4,189.5,570.5,189.9,570.5z"/>
	<path class="st1" d="M198.7,573.1v-12.4h3l0.3,1.6h0.1c0.5-0.5,1.1-0.9,1.8-1.3c0.6-0.4,1.4-0.6,2.2-0.6c1.3,0,2.3,0.4,2.9,1.3
		c0.6,0.9,0.9,2.1,0.9,3.7v7.7h-3.7v-7.2c0-0.9-0.1-1.5-0.4-1.9c-0.2-0.3-0.6-0.5-1.2-0.5c-0.5,0-0.9,0.1-1.2,0.3
		c-0.3,0.2-0.7,0.5-1.1,0.9v8.4H198.7z"/>
	<path class="st1" d="M217.5,573.4c-0.8,0-1.5-0.1-2.1-0.5c-0.6-0.3-1.2-0.7-1.6-1.3s-0.8-1.2-1-2c-0.2-0.8-0.4-1.7-0.4-2.7
		s0.1-1.9,0.4-2.7c0.3-0.8,0.7-1.5,1.1-2c0.5-0.6,1-1,1.6-1.3s1.3-0.5,1.9-0.5c0.7,0,1.3,0.1,1.7,0.4c0.4,0.2,0.9,0.5,1.3,0.9
		l-0.1-1.9v-4.2h3.7v17.5h-3l-0.3-1.2h-0.1c-0.4,0.4-0.9,0.8-1.5,1.1C218.6,573.2,218.1,573.4,217.5,573.4z M218.4,570.4
		c0.4,0,0.8-0.1,1.1-0.3c0.3-0.2,0.6-0.5,0.9-0.9v-5.1c-0.3-0.3-0.7-0.5-1-0.6c-0.4-0.1-0.7-0.2-1-0.2c-0.6,0-1.1,0.3-1.6,0.8
		c-0.4,0.6-0.7,1.4-0.7,2.6c0,1.2,0.2,2.1,0.6,2.7S217.7,570.4,218.4,570.4z"/>
	<path class="st1" d="M231,573.4c-0.8,0-1.7-0.2-2.5-0.5c-0.9-0.3-1.6-0.7-2.2-1.3l1.6-2.3c0.6,0.4,1.1,0.8,1.6,1s1,0.3,1.6,0.3
		c0.5,0,1-0.1,1.2-0.3c0.3-0.2,0.4-0.4,0.4-0.8c0-0.2-0.1-0.4-0.2-0.5c-0.1-0.2-0.3-0.3-0.6-0.4c-0.2-0.1-0.5-0.3-0.8-0.4
		c-0.3-0.1-0.6-0.2-0.9-0.4c-0.4-0.2-0.8-0.3-1.1-0.5s-0.7-0.4-1-0.7c-0.3-0.3-0.6-0.6-0.8-1c-0.2-0.4-0.3-0.8-0.3-1.4
		c0-0.6,0.1-1.1,0.3-1.6c0.2-0.5,0.5-0.9,1-1.2c0.4-0.3,0.9-0.6,1.5-0.8c0.6-0.2,1.2-0.3,1.9-0.3c1,0,1.8,0.2,2.5,0.5
		c0.7,0.3,1.3,0.7,1.9,1.1l-1.6,2.2c-0.5-0.3-0.9-0.6-1.3-0.8c-0.4-0.2-0.9-0.3-1.3-0.3c-0.9,0-1.4,0.3-1.4,1c0,0.2,0.1,0.4,0.2,0.5
		s0.3,0.3,0.5,0.4c0.2,0.1,0.5,0.2,0.8,0.3s0.6,0.2,0.9,0.3c0.4,0.1,0.8,0.3,1.2,0.5s0.8,0.4,1.1,0.7c0.3,0.3,0.6,0.6,0.8,1
		c0.2,0.4,0.3,0.9,0.3,1.5c0,0.6-0.1,1.1-0.3,1.6s-0.5,0.9-1,1.3c-0.4,0.4-1,0.6-1.6,0.8C232.6,573.3,231.8,573.4,231,573.4z"/>
	<path class="st1" d="M246.6,573.4c-0.6,0-1.1-0.1-1.5-0.3s-0.8-0.5-1.2-0.8s-0.6-0.7-0.7-1.2c-0.2-0.5-0.3-0.9-0.3-1.5
		c0-1.3,0.6-2.3,1.7-3c1.1-0.7,2.9-1.2,5.3-1.5c0-0.6-0.2-1-0.5-1.3c-0.3-0.3-0.8-0.5-1.5-0.5c-0.5,0-1.1,0.1-1.6,0.3
		c-0.5,0.2-1.1,0.5-1.7,0.8l-1.3-2.4c0.8-0.5,1.6-0.9,2.5-1.2s1.8-0.5,2.8-0.5c1.6,0,2.8,0.5,3.7,1.4c0.8,0.9,1.3,2.3,1.3,4.2v7.1
		h-3l-0.3-1.3h-0.1c-0.5,0.5-1.1,0.8-1.7,1.1C247.9,573.2,247.3,573.4,246.6,573.4z M247.8,570.5c0.4,0,0.8-0.1,1.1-0.3
		c0.3-0.2,0.6-0.4,0.9-0.8v-2.2c-1.3,0.2-2.2,0.5-2.7,0.8c-0.5,0.3-0.8,0.8-0.8,1.3c0,0.4,0.1,0.7,0.4,0.9
		C247,570.4,247.4,570.5,247.8,570.5z"/>
	<path class="st1" d="M256.6,573.1v-12.4h3l0.3,1.6h0.1c0.5-0.5,1.1-0.9,1.8-1.3c0.6-0.4,1.4-0.6,2.2-0.6c1.3,0,2.3,0.4,2.9,1.3
		c0.6,0.9,0.9,2.1,0.9,3.7v7.7h-3.7v-7.2c0-0.9-0.1-1.5-0.4-1.9c-0.2-0.3-0.6-0.5-1.2-0.5c-0.5,0-0.9,0.1-1.2,0.3
		c-0.3,0.2-0.7,0.5-1.1,0.9v8.4H256.6z"/>
	<path class="st1" d="M275.3,573.4c-0.8,0-1.5-0.1-2.1-0.5c-0.6-0.3-1.2-0.7-1.6-1.3s-0.8-1.2-1-2c-0.2-0.8-0.4-1.7-0.4-2.7
		s0.1-1.9,0.4-2.7c0.3-0.8,0.7-1.5,1.1-2c0.5-0.6,1-1,1.6-1.3s1.3-0.5,1.9-0.5c0.7,0,1.3,0.1,1.7,0.4c0.4,0.2,0.9,0.5,1.3,0.9
		l-0.1-1.9v-4.2h3.7v17.5h-3l-0.3-1.2h-0.1c-0.4,0.4-0.9,0.8-1.5,1.1C276.5,573.2,275.9,573.4,275.3,573.4z M276.3,570.4
		c0.4,0,0.8-0.1,1.1-0.3c0.3-0.2,0.6-0.5,0.9-0.9v-5.1c-0.3-0.3-0.7-0.5-1-0.6c-0.4-0.1-0.7-0.2-1-0.2c-0.6,0-1.1,0.3-1.6,0.8
		c-0.4,0.6-0.7,1.4-0.7,2.6c0,1.2,0.2,2.1,0.6,2.7S275.6,570.4,276.3,570.4z"/>
	<path class="st1" d="M290.5,573.1v-16.3h4l2.6,7.3c0.2,0.5,0.3,1,0.5,1.5c0.2,0.5,0.3,1,0.5,1.5h0.1c0.2-0.5,0.3-1,0.5-1.5
		c0.1-0.5,0.3-1,0.5-1.5l2.6-7.3h4v16.3h-3.4v-6c0-0.4,0-0.8,0.1-1.3c0-0.5,0.1-1,0.1-1.5c0-0.5,0.1-1,0.1-1.5
		c0-0.5,0.1-0.9,0.1-1.3h-0.1l-1.3,3.9l-2.3,6.2h-2l-2.3-6.2l-1.3-3.9h-0.1c0,0.4,0.1,0.8,0.1,1.3c0.1,0.5,0.1,1,0.1,1.5
		c0.1,0.5,0.1,1,0.1,1.5s0.1,0.9,0.1,1.3v6H290.5z"/>
	<path class="st1" d="M314.8,573.4c-0.9,0-1.7-0.1-2.5-0.4c-0.8-0.3-1.4-0.7-2-1.3c-0.6-0.6-1-1.2-1.3-2c-0.3-0.8-0.5-1.7-0.5-2.8
		c0-1,0.2-1.9,0.5-2.7s0.8-1.5,1.3-2.1c0.5-0.6,1.2-1,1.9-1.3c0.7-0.3,1.4-0.5,2.2-0.5c0.9,0,1.7,0.2,2.3,0.5
		c0.7,0.3,1.2,0.7,1.6,1.3c0.4,0.5,0.8,1.2,1,1.9c0.2,0.7,0.3,1.5,0.3,2.4c0,0.3,0,0.7,0,1c0,0.3-0.1,0.5-0.1,0.7h-7.4
		c0.2,0.9,0.5,1.6,1.1,2s1.3,0.6,2.1,0.6c0.9,0,1.8-0.3,2.7-0.8l1.2,2.2c-0.6,0.4-1.3,0.8-2.1,1S315.6,573.4,314.8,573.4z
		 M312.1,565.5h4.5c0-0.7-0.2-1.3-0.5-1.7s-0.8-0.7-1.6-0.7c-0.6,0-1.1,0.2-1.5,0.6C312.5,564.1,312.2,564.7,312.1,565.5z"/>
	<path class="st1" d="M322.2,573.1v-12.4h3l0.3,2.2h0.1c0.4-0.9,1-1.5,1.6-1.9c0.6-0.4,1.3-0.6,1.9-0.6c0.4,0,0.6,0,0.9,0.1
		c0.2,0,0.4,0.1,0.6,0.2l-0.6,3.2c-0.2-0.1-0.5-0.1-0.6-0.1c-0.2,0-0.4,0-0.7,0c-0.5,0-1,0.2-1.5,0.5c-0.5,0.3-0.9,0.9-1.3,1.8v7.2
		H322.2z"/>
	<path class="st1" d="M337.3,573.4c-0.9,0-1.7-0.1-2.4-0.4c-0.7-0.3-1.4-0.7-1.9-1.3c-0.5-0.5-1-1.2-1.3-2c-0.3-0.8-0.5-1.7-0.5-2.8
		c0-1,0.2-2,0.5-2.8c0.4-0.8,0.8-1.5,1.4-2c0.6-0.5,1.3-1,2.1-1.3c0.8-0.3,1.6-0.4,2.5-0.4c0.8,0,1.4,0.1,2,0.4
		c0.6,0.3,1.1,0.6,1.6,1l-1.7,2.4c-0.6-0.5-1.1-0.7-1.7-0.7c-0.9,0-1.6,0.3-2.1,0.9c-0.5,0.6-0.8,1.5-0.8,2.6c0,1.1,0.3,1.9,0.8,2.6
		c0.5,0.6,1.2,1,2,1c0.4,0,0.8-0.1,1.2-0.3s0.7-0.4,1.1-0.6l1.5,2.4c-0.6,0.5-1.3,0.9-2,1.1C338.7,573.2,338,573.4,337.3,573.4z"/>
	<path class="st1" d="M343.6,573.1v-17.5h3.7v4.3l-0.2,2.2c0.5-0.4,1-0.8,1.6-1.2c0.6-0.4,1.4-0.5,2.2-0.5c1.3,0,2.3,0.4,2.9,1.3
		c0.6,0.9,0.9,2.1,0.9,3.7v7.7h-3.7v-7.2c0-0.9-0.1-1.5-0.4-1.9c-0.2-0.3-0.6-0.5-1.2-0.5c-0.5,0-0.9,0.1-1.2,0.3
		c-0.3,0.2-0.7,0.5-1.1,0.9v8.4H343.6z"/>
	<path class="st1" d="M361,573.4c-0.6,0-1.1-0.1-1.5-0.3s-0.8-0.5-1.2-0.8s-0.6-0.7-0.7-1.2c-0.2-0.5-0.3-0.9-0.3-1.5
		c0-1.3,0.6-2.3,1.7-3c1.1-0.7,2.9-1.2,5.3-1.5c0-0.6-0.2-1-0.5-1.3c-0.3-0.3-0.8-0.5-1.5-0.5c-0.5,0-1.1,0.1-1.6,0.3
		c-0.5,0.2-1.1,0.5-1.7,0.8l-1.3-2.4c0.8-0.5,1.6-0.9,2.5-1.2s1.8-0.5,2.8-0.5c1.6,0,2.8,0.5,3.7,1.4c0.8,0.9,1.3,2.3,1.3,4.2v7.1
		h-3l-0.3-1.3h-0.1c-0.5,0.5-1.1,0.8-1.7,1.1C362.3,573.2,361.7,573.4,361,573.4z M362.3,570.5c0.4,0,0.8-0.1,1.1-0.3
		c0.3-0.2,0.6-0.4,0.9-0.8v-2.2c-1.3,0.2-2.2,0.5-2.7,0.8c-0.5,0.3-0.8,0.8-0.8,1.3c0,0.4,0.1,0.7,0.4,0.9
		C361.5,570.4,361.8,570.5,362.3,570.5z"/>
	<path class="st1" d="M371.1,573.1v-12.4h3l0.3,1.6h0.1c0.5-0.5,1.1-0.9,1.8-1.3c0.6-0.4,1.4-0.6,2.2-0.6c1.3,0,2.3,0.4,2.9,1.3
		c0.6,0.9,0.9,2.1,0.9,3.7v7.7h-3.7v-7.2c0-0.9-0.1-1.5-0.4-1.9c-0.2-0.3-0.6-0.5-1.2-0.5c-0.5,0-0.9,0.1-1.2,0.3
		c-0.3,0.2-0.7,0.5-1.1,0.9v8.4H371.1z"/>
	<path class="st1" d="M390.1,573.4c-0.8,0-1.4-0.1-2-0.3c-0.5-0.2-1-0.6-1.3-1c-0.3-0.4-0.6-0.9-0.8-1.5s-0.2-1.2-0.2-2v-5h-1.7
		v-2.7l1.9-0.2l0.4-3.3h3v3.3h3v2.9h-3v5c0,0.7,0.1,1.2,0.4,1.5s0.7,0.5,1.2,0.5c0.2,0,0.4,0,0.6-0.1c0.2,0,0.4-0.1,0.6-0.2l0.6,2.7
		c-0.3,0.1-0.7,0.2-1.2,0.3C391.3,573.3,390.7,573.4,390.1,573.4z"/>
	<path class="st1" d="M398.3,573.4c-0.8,0-1.7-0.2-2.5-0.5c-0.9-0.3-1.6-0.7-2.2-1.3l1.6-2.3c0.6,0.4,1.1,0.8,1.6,1s1,0.3,1.6,0.3
		c0.5,0,1-0.1,1.2-0.3c0.3-0.2,0.4-0.4,0.4-0.8c0-0.2-0.1-0.4-0.2-0.5c-0.1-0.2-0.3-0.3-0.6-0.4c-0.2-0.1-0.5-0.3-0.8-0.4
		c-0.3-0.1-0.6-0.2-0.9-0.4c-0.4-0.2-0.8-0.3-1.1-0.5s-0.7-0.4-1-0.7c-0.3-0.3-0.6-0.6-0.8-1c-0.2-0.4-0.3-0.8-0.3-1.4
		c0-0.6,0.1-1.1,0.3-1.6c0.2-0.5,0.5-0.9,1-1.2c0.4-0.3,0.9-0.6,1.5-0.8c0.6-0.2,1.2-0.3,1.9-0.3c1,0,1.8,0.2,2.5,0.5
		c0.7,0.3,1.3,0.7,1.9,1.1l-1.6,2.2c-0.5-0.3-0.9-0.6-1.3-0.8c-0.4-0.2-0.9-0.3-1.3-0.3c-0.9,0-1.4,0.3-1.4,1c0,0.2,0.1,0.4,0.2,0.5
		s0.3,0.3,0.5,0.4c0.2,0.1,0.5,0.2,0.8,0.3s0.6,0.2,0.9,0.3c0.4,0.1,0.8,0.3,1.2,0.5s0.8,0.4,1.1,0.7c0.3,0.3,0.6,0.6,0.8,1
		c0.2,0.4,0.3,0.9,0.3,1.5c0,0.6-0.1,1.1-0.3,1.6s-0.5,0.9-1,1.3c-0.4,0.4-1,0.6-1.6,0.8C399.9,573.3,399.2,573.4,398.3,573.4z"/>
	<path class="st1" d="M407.9,573.4c-0.6,0-1.2-0.2-1.6-0.7c-0.4-0.4-0.6-1-0.6-1.6c0-0.7,0.2-1.2,0.6-1.7c0.4-0.4,1-0.7,1.6-0.7
		c0.6,0,1.2,0.2,1.6,0.7c0.4,0.4,0.6,1,0.6,1.7c0,0.7-0.2,1.2-0.6,1.6C409,573.1,408.5,573.4,407.9,573.4z"/>
</g>
<g>
	<path class="st1" d="M97.6,647.6c0-1.3,0.2-2.5,0.6-3.6c0.4-1.1,0.9-2,1.6-2.7c0.7-0.7,1.5-1.3,2.4-1.7c0.9-0.4,1.9-0.6,2.9-0.6
		c1,0,1.9,0.2,2.7,0.6c0.8,0.4,1.4,0.9,2,1.5l-1.6,1.8c-0.4-0.4-0.9-0.7-1.3-1c-0.5-0.2-1-0.4-1.7-0.4c-0.7,0-1.3,0.1-1.9,0.4
		c-0.6,0.3-1,0.7-1.5,1.2c-0.4,0.5-0.7,1.1-0.9,1.9s-0.3,1.6-0.3,2.5c0,1.9,0.4,3.3,1.2,4.4c0.8,1.1,1.9,1.6,3.3,1.6
		c0.7,0,1.4-0.1,1.9-0.4c0.5-0.3,1-0.7,1.5-1.2l1.6,1.8c-0.7,0.8-1.4,1.4-2.3,1.8s-1.8,0.6-2.8,0.6c-1,0-2-0.2-2.9-0.5
		s-1.7-0.9-2.4-1.6c-0.7-0.7-1.2-1.6-1.6-2.7C97.8,650.2,97.6,649,97.6,647.6z"/>
	<path class="st1" d="M112.6,643.5h2.4l0.2,2.2h0.1c0.4-0.8,1-1.4,1.6-1.8c0.6-0.4,1.3-0.6,1.9-0.6c0.6,0,1,0.1,1.4,0.3l-0.5,2.5
		c-0.2-0.1-0.4-0.1-0.6-0.1c-0.2,0-0.4-0.1-0.7-0.1c-0.5,0-1,0.2-1.5,0.6c-0.5,0.4-1,1-1.4,2v7.5h-2.9V643.5z"/>
	<path class="st1" d="M120.9,649.6c0-1,0.2-1.9,0.5-2.7c0.3-0.8,0.7-1.5,1.3-2c0.5-0.6,1.1-1,1.8-1.3c0.7-0.3,1.4-0.5,2.1-0.5
		c0.8,0,1.6,0.1,2.2,0.4c0.6,0.3,1.2,0.7,1.6,1.2c0.4,0.5,0.7,1.1,1,1.9s0.3,1.5,0.3,2.3c0,0.6,0,1-0.1,1.3h-7.8
		c0.1,1.1,0.5,2,1.2,2.6c0.6,0.6,1.5,0.9,2.5,0.9c0.5,0,1-0.1,1.5-0.2c0.5-0.2,0.9-0.4,1.4-0.7l1,1.8c-0.6,0.4-1.2,0.7-1.9,1
		c-0.7,0.3-1.5,0.4-2.3,0.4c-0.9,0-1.6-0.1-2.4-0.4c-0.7-0.3-1.4-0.7-1.9-1.3c-0.5-0.5-1-1.2-1.3-2
		C121,651.5,120.9,650.6,120.9,649.6z M129.1,648.5c0-1-0.2-1.8-0.6-2.3c-0.4-0.5-1-0.8-1.9-0.8c-0.7,0-1.4,0.3-1.9,0.8
		c-0.6,0.5-0.9,1.3-1,2.3H129.1z"/>
	<path class="st1" d="M133.5,652.4c0-1.3,0.6-2.3,1.7-3s3-1.2,5.5-1.5c0-0.3,0-0.6-0.1-0.9c-0.1-0.3-0.2-0.5-0.4-0.8
		c-0.2-0.2-0.4-0.4-0.7-0.5s-0.6-0.2-1-0.2c-0.6,0-1.2,0.1-1.8,0.3c-0.6,0.2-1.1,0.5-1.7,0.9l-1.1-1.9c0.7-0.4,1.4-0.8,2.3-1.1
		c0.8-0.3,1.8-0.5,2.7-0.5c1.5,0,2.7,0.5,3.4,1.4c0.8,0.9,1.1,2.2,1.1,3.9v7.3h-2.4l-0.2-1.3H141c-0.5,0.5-1.1,0.9-1.8,1.2
		s-1.3,0.5-2,0.5c-1.1,0-2-0.3-2.6-1S133.5,653.5,133.5,652.4z M136.3,652.2c0,0.6,0.2,1,0.5,1.2c0.3,0.3,0.7,0.4,1.3,0.4
		c0.5,0,1-0.1,1.4-0.3c0.4-0.2,0.9-0.6,1.3-1v-2.8c-0.8,0.1-1.5,0.2-2.1,0.4c-0.6,0.2-1,0.4-1.4,0.6c-0.3,0.2-0.6,0.4-0.7,0.7
		C136.4,651.6,136.3,651.9,136.3,652.2z"/>
	<path class="st1" d="M147.6,645.7h-1.8v-2.2l1.9-0.1l0.4-3.3h2.4v3.3h3.1v2.3h-3.1v5.8c0,1.4,0.6,2.2,1.7,2.2c0.2,0,0.4,0,0.7-0.1
		s0.4-0.1,0.6-0.2l0.5,2.1c-0.3,0.1-0.7,0.2-1.1,0.3c-0.4,0.1-0.9,0.1-1.4,0.1c-0.7,0-1.3-0.1-1.8-0.3c-0.5-0.2-0.9-0.5-1.2-0.9
		c-0.3-0.4-0.5-0.9-0.7-1.4c-0.1-0.5-0.2-1.1-0.2-1.8V645.7z"/>
	<path class="st1" d="M155.1,649.6c0-1,0.2-1.9,0.5-2.7c0.3-0.8,0.7-1.5,1.3-2c0.5-0.6,1.1-1,1.8-1.3c0.7-0.3,1.4-0.5,2.1-0.5
		c0.8,0,1.6,0.1,2.2,0.4c0.6,0.3,1.2,0.7,1.6,1.2c0.4,0.5,0.7,1.1,1,1.9s0.3,1.5,0.3,2.3c0,0.6,0,1-0.1,1.3h-7.8
		c0.1,1.1,0.5,2,1.2,2.6c0.6,0.6,1.5,0.9,2.5,0.9c0.5,0,1-0.1,1.5-0.2c0.5-0.2,0.9-0.4,1.4-0.7l1,1.8c-0.6,0.4-1.2,0.7-1.9,1
		c-0.7,0.3-1.5,0.4-2.3,0.4c-0.9,0-1.6-0.1-2.4-0.4c-0.7-0.3-1.4-0.7-1.9-1.3c-0.5-0.5-1-1.2-1.3-2
		C155.3,651.5,155.1,650.6,155.1,649.6z M163.3,648.5c0-1-0.2-1.8-0.6-2.3c-0.4-0.5-1-0.8-1.9-0.8c-0.7,0-1.4,0.3-1.9,0.8
		c-0.6,0.5-0.9,1.3-1,2.3H163.3z"/>
	<path class="st1" d="M176.7,649.7l-4.9-10.3h3.1l1.8,4.2c0.2,0.6,0.5,1.2,0.7,1.8c0.2,0.6,0.5,1.2,0.8,1.8h0.1
		c0.3-0.6,0.5-1.2,0.8-1.8s0.5-1.2,0.7-1.8l1.8-4.2h3l-4.9,10.3v6.1h-2.9V649.7z"/>
	<path class="st1" d="M184.2,649.6c0-1,0.2-1.9,0.5-2.7c0.3-0.8,0.7-1.5,1.3-2c0.5-0.5,1.2-1,1.9-1.3c0.7-0.3,1.4-0.4,2.2-0.4
		c0.8,0,1.5,0.1,2.2,0.4c0.7,0.3,1.3,0.7,1.9,1.3s1,1.2,1.3,2c0.3,0.8,0.5,1.7,0.5,2.7s-0.2,1.9-0.5,2.7c-0.3,0.8-0.8,1.5-1.3,2
		s-1.2,1-1.9,1.3c-0.7,0.3-1.4,0.4-2.2,0.4c-0.8,0-1.5-0.1-2.2-0.4c-0.7-0.3-1.3-0.7-1.9-1.3c-0.5-0.5-1-1.2-1.3-2
		C184.4,651.5,184.2,650.6,184.2,649.6z M187.2,649.6c0,1.2,0.3,2.2,0.8,3c0.5,0.7,1.2,1.1,2.1,1.1s1.6-0.4,2.1-1.1
		c0.5-0.7,0.8-1.7,0.8-3c0-1.3-0.3-2.2-0.8-3c-0.5-0.7-1.2-1.1-2.1-1.1s-1.6,0.4-2.1,1.1S187.2,648.4,187.2,649.6z"/>
	<path class="st1" d="M198.6,643.5h2.9v7.3c0,1,0.1,1.7,0.4,2.2c0.3,0.4,0.8,0.6,1.5,0.6c0.5,0,1-0.1,1.4-0.4
		c0.4-0.3,0.8-0.7,1.3-1.3v-8.4h2.9v12.3h-2.4l-0.2-1.8h-0.1c-0.5,0.6-1.1,1.1-1.7,1.5c-0.6,0.4-1.4,0.6-2.2,0.6
		c-1.3,0-2.3-0.4-2.9-1.3c-0.6-0.8-0.9-2-0.9-3.6V643.5z"/>
	<path class="st1" d="M212.7,643.5h2.4l0.2,2.2h0.1c0.4-0.8,1-1.4,1.6-1.8c0.6-0.4,1.3-0.6,1.9-0.6c0.6,0,1,0.1,1.4,0.3l-0.5,2.5
		c-0.2-0.1-0.4-0.1-0.6-0.1c-0.2,0-0.4-0.1-0.7-0.1c-0.5,0-1,0.2-1.5,0.6c-0.5,0.4-1,1-1.4,2v7.5h-2.9V643.5z"/>
	<path class="st1" d="M235,651.3h-5.5l-1.3,4.4h-2.9l5.3-16.3h3.4l5.3,16.3h-3L235,651.3z M234.3,649l-0.6-2
		c-0.3-0.9-0.5-1.8-0.8-2.7c-0.2-0.9-0.5-1.8-0.7-2.7h-0.1c-0.2,0.9-0.5,1.8-0.7,2.7s-0.5,1.8-0.8,2.7l-0.6,2H234.3z"/>
	<path class="st1" d="M240.3,649.6c0-1,0.2-1.9,0.5-2.7c0.3-0.8,0.8-1.5,1.4-2c0.6-0.5,1.2-1,2-1.3c0.7-0.3,1.5-0.4,2.3-0.4
		c0.8,0,1.5,0.1,2.1,0.4c0.6,0.3,1.1,0.6,1.5,1l-1.4,1.8c-0.3-0.3-0.7-0.5-1-0.7s-0.7-0.2-1.1-0.2c-1,0-1.8,0.4-2.4,1.1
		s-0.9,1.7-0.9,3c0,1.2,0.3,2.2,0.9,3c0.6,0.7,1.4,1.1,2.4,1.1c0.5,0,1-0.1,1.4-0.3c0.4-0.2,0.8-0.5,1.1-0.7l1.2,1.8
		c-0.6,0.5-1.2,0.9-1.9,1.2c-0.7,0.3-1.4,0.4-2.1,0.4c-0.8,0-1.6-0.1-2.3-0.4c-0.7-0.3-1.4-0.7-1.9-1.3c-0.5-0.5-1-1.2-1.3-2
		C240.4,651.5,240.3,650.6,240.3,649.6z"/>
	<path class="st1" d="M251.2,649.6c0-1,0.2-1.9,0.5-2.7c0.3-0.8,0.8-1.5,1.4-2c0.6-0.5,1.2-1,2-1.3c0.7-0.3,1.5-0.4,2.3-0.4
		c0.8,0,1.5,0.1,2.1,0.4c0.6,0.3,1.1,0.6,1.5,1l-1.4,1.8c-0.3-0.3-0.7-0.5-1-0.7s-0.7-0.2-1.1-0.2c-1,0-1.8,0.4-2.4,1.1
		s-0.9,1.7-0.9,3c0,1.2,0.3,2.2,0.9,3c0.6,0.7,1.4,1.1,2.4,1.1c0.5,0,1-0.1,1.4-0.3c0.4-0.2,0.8-0.5,1.1-0.7l1.2,1.8
		c-0.6,0.5-1.2,0.9-1.9,1.2c-0.7,0.3-1.4,0.4-2.1,0.4c-0.8,0-1.6-0.1-2.3-0.4c-0.7-0.3-1.4-0.7-1.9-1.3c-0.5-0.5-1-1.2-1.3-2
		C251.4,651.5,251.2,650.6,251.2,649.6z"/>
	<path class="st1" d="M262.2,649.6c0-1,0.2-1.9,0.5-2.7c0.3-0.8,0.7-1.5,1.3-2c0.5-0.5,1.2-1,1.9-1.3c0.7-0.3,1.4-0.4,2.2-0.4
		c0.8,0,1.5,0.1,2.2,0.4c0.7,0.3,1.3,0.7,1.9,1.3s1,1.2,1.3,2c0.3,0.8,0.5,1.7,0.5,2.7s-0.2,1.9-0.5,2.7c-0.3,0.8-0.8,1.5-1.3,2
		s-1.2,1-1.9,1.3c-0.7,0.3-1.4,0.4-2.2,0.4c-0.8,0-1.5-0.1-2.2-0.4c-0.7-0.3-1.3-0.7-1.9-1.3c-0.5-0.5-1-1.2-1.3-2
		C262.3,651.5,262.2,650.6,262.2,649.6z M265.1,649.6c0,1.2,0.3,2.2,0.8,3c0.5,0.7,1.2,1.1,2.1,1.1s1.6-0.4,2.1-1.1
		c0.5-0.7,0.8-1.7,0.8-3c0-1.3-0.3-2.2-0.8-3c-0.5-0.7-1.2-1.1-2.1-1.1s-1.6,0.4-2.1,1.1S265.1,648.4,265.1,649.6z"/>
	<path class="st1" d="M276.6,643.5h2.9v7.3c0,1,0.1,1.7,0.4,2.2c0.3,0.4,0.8,0.6,1.5,0.6c0.5,0,1-0.1,1.4-0.4
		c0.4-0.3,0.8-0.7,1.3-1.3v-8.4h2.9v12.3h-2.4l-0.2-1.8h-0.1c-0.5,0.6-1.1,1.1-1.7,1.5c-0.6,0.4-1.4,0.6-2.2,0.6
		c-1.3,0-2.3-0.4-2.9-1.3c-0.6-0.8-0.9-2-0.9-3.6V643.5z"/>
	<path class="st1" d="M290.6,643.5h2.4l0.2,1.7h0.1c0.5-0.5,1.1-1,1.8-1.4c0.6-0.4,1.4-0.6,2.2-0.6c1.3,0,2.3,0.4,2.9,1.3
		s0.9,2,0.9,3.6v7.7h-2.9v-7.3c0-1-0.1-1.7-0.4-2.1c-0.3-0.4-0.8-0.6-1.5-0.6c-0.5,0-1,0.1-1.4,0.4c-0.4,0.3-0.9,0.6-1.4,1.1v8.6
		h-2.9V643.5z"/>
	<path class="st1" d="M305,645.7h-1.8v-2.2l1.9-0.1l0.4-3.3h2.4v3.3h3.1v2.3h-3.1v5.8c0,1.4,0.6,2.2,1.7,2.2c0.2,0,0.4,0,0.7-0.1
		s0.4-0.1,0.6-0.2l0.5,2.1c-0.3,0.1-0.7,0.2-1.1,0.3c-0.4,0.1-0.9,0.1-1.4,0.1c-0.7,0-1.3-0.1-1.8-0.3c-0.5-0.2-0.9-0.5-1.2-0.9
		c-0.3-0.4-0.5-0.9-0.7-1.4c-0.1-0.5-0.2-1.1-0.2-1.8V645.7z"/>
</g>
<path class="st1" d="M73.5,658.4c-0.1,0-0.2,0-0.3,0c0,0-0.1,0-0.1,0c-0.4,0-0.8,0-1.2-0.1c-0.6-0.1-1.2-0.2-1.8-0.4
	c-1.2-0.4-2.3-1-3.3-1.9c-0.8-0.7-1.6-1.5-2.1-2.5c-0.9-1.4-1.3-3-1.4-4.6c0-0.1,0-0.2,0-0.3c0-0.3,0-0.5,0-0.8c0,0,0,0,0-0.1
	c0-0.5,0.1-1.1,0.2-1.6c0.3-1.3,0.8-2.5,1.5-3.6c0.6-0.9,1.4-1.7,2.3-2.4c1-0.8,2.1-1.3,3.3-1.6c0.7-0.2,1.4-0.3,2.2-0.4
	c0.1,0,0.2,0,0.3,0c0.2,0,0.5,0,0.7,0c0,0,0.1,0,0.1,0c0.2,0,0.4,0,0.6,0c0.6,0.1,1.2,0.2,1.7,0.3c1.2,0.4,2.4,0.9,3.4,1.7
	c1.1,0.9,2,1.9,2.7,3.1c0.8,1.4,1.2,2.9,1.3,4.5c0,0.1,0,0.2,0,0.4c0,0.1,0,0.2,0,0.3c0,0,0,0.1,0,0.1c0,0.3,0,0.7-0.1,1
	c-0.1,0.8-0.3,1.6-0.6,2.4c-0.8,1.9-2,3.4-3.7,4.6c-0.8,0.6-1.6,1-2.6,1.3C75.6,658.2,74.6,658.4,73.5,658.4
	C73.6,658.4,73.5,658.4,73.5,658.4z M75.1,648.3C75.1,648.3,75.1,648.3,75.1,648.3c-1.3,1.3-2.6,2.6-3.8,3.9
	c-0.1,0.1-0.1,0.1-0.2,0.2c-0.3,0.4-0.2,1.1,0.3,1.3c0.4,0.2,0.8,0.2,1.2-0.2c1.5-1.5,3-3,4.5-4.5c0.4-0.4,0.4-1,0-1.4
	c-1.5-1.5-3.1-3.1-4.6-4.6c-0.1-0.1-0.2-0.1-0.2-0.2c-0.5-0.2-1-0.1-1.3,0.4c-0.2,0.4-0.1,0.8,0.2,1.1c1.2,1.2,2.4,2.4,3.7,3.6
	C74.9,648.1,75,648.2,75.1,648.3z"/>
</svg>
