<?xml version="1.0" encoding="utf-8"?>
<!-- Generator: Adobe Illustrator 23.0.5, SVG Export Plug-In . SVG Version: 6.00 Build 0)  -->
<svg version="1.1" id="Layer_1" xmlns="http://www.w3.org/2000/svg" xmlns:xlink="http://www.w3.org/1999/xlink" x="0px" y="0px"
	 viewBox="0 0 372.7 498.9" style="enable-background:new 0 0 372.7 498.9;" xml:space="preserve">
<style type="text/css">
	.st0{fill:#288936;}
	.st1{fill:#FFFFFF;}
	.st2{fill:#FEFEFE;}
</style>
<g id="BACKGROUND">
</g>
<path class="st0" d="M372.7,498.9c-124.4,0-248.5,0-372.7,0C0,332.6,0,166.4,0,0c124.2,0,248.5,0,372.7,0
	C372.7,166.3,372.7,332.6,372.7,498.9z"/>
<g>
	<path class="st1" d="M68.9,79c2.6,1.6,4,3.9,4,7.1c0,2.8-1,5-2.9,6.7c-1.9,1.7-4.5,2.5-7.7,2.5H49V63.8h12.4c3.1,0,5.7,0.8,7.6,2.4
		s2.8,3.8,2.8,6.5C71.8,75.4,70.8,77.5,68.9,79z M61.2,71h-4.1v4.9h4.1c0.7,0,1.3-0.2,1.8-0.7c0.5-0.4,0.7-1,0.7-1.8
		c0-0.7-0.2-1.3-0.7-1.8C62.6,71.2,62,71,61.2,71z M62.1,88.1c0.8,0,1.5-0.2,2-0.7c0.5-0.5,0.8-1.1,0.8-1.9c0-0.8-0.3-1.5-0.8-1.9
		c-0.5-0.5-1.2-0.7-2-0.7h-5v5.3H62.1z"/>
	<path class="st1" d="M90.5,72.8H98v22.5h-7.5V93c-1.3,1.9-3.4,2.9-6.3,2.9c-2.4,0-4.4-0.8-6-2.5c-1.5-1.7-2.3-4.1-2.3-7.2V72.8h7.5
		v12.5c0,1.2,0.3,2.1,0.9,2.7c0.6,0.6,1.4,0.9,2.5,0.9c1.2,0,2.1-0.4,2.7-1.1c0.6-0.7,1-1.7,1-3V72.8z"/>
	<path class="st1" d="M116.6,72.8h8.3l-7.7,22.1c-1.2,3.4-2.9,5.8-5.1,7.3c-2.2,1.5-5,2.2-8.5,2v-7c1.6,0,2.8-0.2,3.6-0.6
		c0.8-0.4,1.5-1.1,2-2.1l-9-21.8h8.4l4.5,13L116.6,72.8z"/>
	<path class="st1" d="M151.2,80h-4.7v6.5c0,1,0.4,1.6,1.1,1.8c0.7,0.2,1.9,0.3,3.6,0.2v6.8c-4.5,0.5-7.6,0.1-9.4-1.2
		c-1.8-1.4-2.7-3.8-2.7-7.4V80h-3.4v-7.2h3.4v-4l7.5-2.3v6.3h4.7V80z"/>
	<path class="st1" d="M168.3,72.2c2.4,0,4.4,0.8,6,2.5c1.5,1.7,2.3,4.1,2.3,7.2v13.5h-7.5V82.8c0-1.2-0.3-2.1-0.9-2.7
		c-0.6-0.6-1.4-0.9-2.5-0.9c-1.2,0-2.1,0.4-2.7,1.1c-0.6,0.7-1,1.7-1,3v12h-7.5V63.8h7.5V75C163.4,73.1,165.5,72.2,168.3,72.2z"/>
	<path class="st1" d="M187.3,86.8c0.7,1.8,2.4,2.7,5,2.7c1.6,0,3-0.5,4.1-1.6l5.4,3.8c-2.2,2.8-5.4,4.2-9.7,4.2
		c-3.8,0-6.9-1.1-9.2-3.4c-2.3-2.2-3.4-5.1-3.4-8.5c0-3.4,1.1-6.2,3.4-8.5c2.3-2.3,5.1-3.4,8.6-3.4c3.4,0,6.1,1.1,8.3,3.4
		c2.2,2.3,3.3,5.1,3.3,8.5c0,1-0.1,1.9-0.3,2.8H187.3z M187.2,81.6h8.6c-0.6-2.1-2-3.1-4.2-3.1C189.3,78.5,187.8,79.5,187.2,81.6z"
		/>
	<path class="st1" d="M230.3,72.2c2.4,0,4.4,0.8,6,2.5c1.5,1.7,2.3,4.1,2.3,7.2v13.5h-7.5V82.8c0-1.2-0.3-2.1-0.9-2.7
		c-0.6-0.6-1.4-0.9-2.5-0.9c-1.2,0-2.1,0.4-2.7,1.1c-0.6,0.7-1,1.7-1,3v12h-7.5V72.8h7.5V75C225.4,73.1,227.4,72.2,230.3,72.2z"/>
	<path class="st1" d="M249.2,86.8c0.7,1.8,2.4,2.7,5,2.7c1.6,0,3-0.5,4.1-1.6l5.4,3.8c-2.2,2.8-5.4,4.2-9.7,4.2
		c-3.8,0-6.9-1.1-9.2-3.4c-2.3-2.2-3.4-5.1-3.4-8.5c0-3.4,1.1-6.2,3.4-8.5c2.3-2.3,5.1-3.4,8.6-3.4c3.4,0,6.1,1.1,8.3,3.4
		c2.2,2.3,3.3,5.1,3.3,8.5c0,1-0.1,1.9-0.3,2.8H249.2z M249.1,81.6h8.6c-0.6-2.1-2-3.1-4.2-3.1C251.2,78.5,249.8,79.5,249.1,81.6z"
		/>
	<path class="st1" d="M289.5,95.3h-8.4l-4-5.6l-4,5.6h-8.4l8.2-11.5l-7.8-11h8.4l3.6,5.1l3.6-5.1h8.4l-7.8,11L289.5,95.3z"/>
	<path class="st1" d="M305.6,80H301v6.5c0,1,0.4,1.6,1.1,1.8c0.7,0.2,1.9,0.3,3.6,0.2v6.8c-4.5,0.5-7.6,0.1-9.4-1.2
		c-1.8-1.4-2.7-3.8-2.7-7.4V80h-3.4v-7.2h3.4v-4l7.5-2.3v6.3h4.7V80z"/>
	<path class="st1" d="M55.5,111.7c-0.9,0.9-1.9,1.3-3,1.3s-2.2-0.4-3-1.3s-1.3-1.9-1.3-3s0.4-2.2,1.3-3c0.9-0.8,1.9-1.3,3-1.3
		s2.2,0.4,3,1.3c0.9,0.8,1.3,1.8,1.3,3S56.3,110.8,55.5,111.7z M48.7,137.3v-22.5h7.5v22.5H48.7z"/>
	<path class="st1" d="M74.4,122h-4.7v6.5c0,1,0.4,1.6,1.1,1.8c0.7,0.2,1.9,0.3,3.6,0.2v6.8c-4.5,0.5-7.6,0.1-9.4-1.2
		c-1.8-1.4-2.7-3.8-2.7-7.4V122h-3.4v-7.2h3.4v-4l7.5-2.3v6.3h4.7V122z"/>
	<path class="st1" d="M84.2,128.8c0.7,1.8,2.4,2.7,5,2.7c1.6,0,3-0.5,4.1-1.6l5.4,3.8c-2.2,2.8-5.4,4.2-9.7,4.2
		c-3.8,0-6.9-1.1-9.2-3.4c-2.3-2.2-3.4-5.1-3.4-8.5c0-3.4,1.1-6.2,3.4-8.5c2.3-2.3,5.1-3.4,8.6-3.4c3.4,0,6.1,1.1,8.3,3.4
		c2.2,2.3,3.3,5.1,3.3,8.5c0,1-0.1,1.9-0.3,2.8H84.2z M84.1,123.6h8.6c-0.6-2.1-2-3.1-4.2-3.1C86.2,120.5,84.7,121.5,84.1,123.6z"/>
	<path class="st1" d="M129,114.2c2.6,0,4.7,0.8,6.2,2.5c1.5,1.7,2.3,4,2.3,6.9v13.8H130v-12.9c0-2.1-0.9-3.1-2.8-3.1
		c-1,0-1.8,0.3-2.3,1c-0.5,0.7-0.8,1.6-0.8,2.8v12.3h-7.5v-12.9c0-2.1-0.9-3.1-2.8-3.1c-1,0-1.8,0.3-2.3,1c-0.5,0.7-0.8,1.6-0.8,2.8
		v12.3h-7.5v-22.5h7.5v2.1c1.4-1.8,3.4-2.7,6.1-2.7c2.6,0,4.5,1,5.8,2.9C124.1,115.1,126.2,114.2,129,114.2z"/>
	<path class="st1" d="M162.7,137.9c-3.3,0-6.2-1.1-8.5-3.4c-2.3-2.3-3.5-5.1-3.5-8.4s1.2-6.1,3.5-8.4c2.3-2.3,5.2-3.4,8.5-3.4
		c3.4,0,6.2,1.1,8.5,3.4c2.3,2.3,3.5,5.1,3.5,8.4s-1.2,6.1-3.5,8.4C168.9,136.8,166,137.9,162.7,137.9z M162.7,130.7
		c1.3,0,2.4-0.4,3.3-1.3c0.9-0.9,1.3-2,1.3-3.4c0-1.4-0.4-2.5-1.3-3.4c-0.9-0.9-1.9-1.3-3.3-1.3c-1.3,0-2.4,0.4-3.2,1.3
		c-0.9,0.9-1.3,2-1.3,3.4c0,1.4,0.4,2.5,1.3,3.4C160.3,130.3,161.4,130.7,162.7,130.7z"/>
	<path class="st1" d="M191.7,114.2c2.4,0,4.4,0.8,6,2.5c1.5,1.7,2.3,4.1,2.3,7.2v13.5h-7.5v-12.5c0-1.2-0.3-2.1-0.9-2.7
		c-0.6-0.6-1.4-0.9-2.5-0.9c-1.2,0-2.1,0.4-2.7,1.1c-0.6,0.7-1,1.7-1,3v12H178v-22.5h7.5v2.3C186.8,115.1,188.9,114.2,191.7,114.2z"
		/>
	<path class="st1" d="M228.5,114.8h8.3l-7.7,22.1c-1.2,3.4-2.9,5.8-5.1,7.3c-2.2,1.5-5,2.2-8.5,2v-7c1.6,0,2.8-0.2,3.6-0.6
		c0.8-0.4,1.5-1.1,2-2.1l-9-21.8h8.4l4.5,13L228.5,114.8z"/>
	<path class="st1" d="M248.9,137.9c-3.3,0-6.2-1.1-8.5-3.4c-2.3-2.3-3.5-5.1-3.5-8.4s1.2-6.1,3.5-8.4c2.3-2.3,5.2-3.4,8.5-3.4
		c3.4,0,6.2,1.1,8.5,3.4c2.3,2.3,3.5,5.1,3.5,8.4s-1.2,6.1-3.5,8.4C255.1,136.8,252.2,137.9,248.9,137.9z M248.9,130.7
		c1.3,0,2.4-0.4,3.3-1.3c0.9-0.9,1.3-2,1.3-3.4c0-1.4-0.4-2.5-1.3-3.4c-0.9-0.9-1.9-1.3-3.3-1.3c-1.3,0-2.4,0.4-3.2,1.3
		c-0.9,0.9-1.3,2-1.3,3.4c0,1.4,0.4,2.5,1.3,3.4C246.5,130.3,247.6,130.7,248.9,130.7z"/>
	<path class="st1" d="M278.4,114.8h7.5v22.5h-7.5V135c-1.3,1.9-3.4,2.9-6.3,2.9c-2.4,0-4.4-0.8-6-2.5c-1.5-1.7-2.3-4.1-2.3-7.2
		v-13.5h7.5v12.5c0,1.2,0.3,2.1,0.9,2.7c0.6,0.6,1.4,0.9,2.5,0.9c1.2,0,2.1-0.4,2.7-1.1c0.6-0.7,1-1.7,1-3V114.8z"/>
	<path class="st1" d="M297.7,119c0.4-1.5,1.3-2.6,2.5-3.4c1.3-0.8,2.7-1.2,4.2-1.2v8.3c-1.7-0.3-3.3,0-4.7,0.9s-2.1,2.4-2.1,4.4v9.3
		h-7.5v-22.5h7.5V119z"/>
	<path class="st1" d="M55.6,179.3l-8.8-31.5h8.7l4.9,19.8l5.6-19.8h6.3l5.6,19.8l4.9-19.8h8.6l-8.8,31.5h-8.5l-5-17.8l-5,17.8H55.6z
		"/>
	<path class="st1" d="M99.7,153.7c-0.9,0.9-1.9,1.3-3,1.3s-2.2-0.4-3-1.3s-1.3-1.9-1.3-3s0.4-2.2,1.3-3c0.9-0.8,1.9-1.3,3-1.3
		s2.2,0.4,3,1.3c0.9,0.8,1.3,1.8,1.3,3S100.6,152.8,99.7,153.7z M93,179.3v-22.5h7.5v22.5H93z"/>
	<path class="st1" d="M111.8,163.3c0,0.4,0.4,0.7,1.2,1c0.8,0.3,1.7,0.5,2.7,0.9c1,0.3,2.1,0.7,3.3,1c1.1,0.4,2.1,1.1,2.8,2.2
		c0.8,1.1,1.1,2.4,1.1,4.1c0,2.6-1,4.5-2.9,5.7c-1.9,1.2-4.2,1.8-6.9,1.8c-5,0-8.4-1.8-10.1-5.4l6.5-3.3c0.6,1.6,1.7,2.5,3.5,2.5
		c1.4,0,2-0.4,2-1.2c0-0.4-0.4-0.8-1.1-1s-1.7-0.6-2.7-0.9s-2.1-0.7-3.2-1.1c-1.1-0.4-2-1.1-2.8-2.1c-0.8-1-1.1-2.2-1.1-3.7
		c0-2.4,0.9-4.3,2.7-5.6c1.8-1.3,3.9-2,6.4-2c4.4,0,7.5,1.7,9.3,5.2l-6.3,2.8c-0.7-1.3-1.6-1.9-2.8-1.9
		C112.4,162.3,111.8,162.6,111.8,163.3z"/>
	<path class="st1" d="M139.6,156.2c2.4,0,4.4,0.8,6,2.5c1.5,1.7,2.3,4.1,2.3,7.2v13.5h-7.5v-12.5c0-1.2-0.3-2.1-0.9-2.7
		c-0.6-0.6-1.4-0.9-2.5-0.9c-1.2,0-2.1,0.4-2.7,1.1c-0.6,0.7-1,1.7-1,3v12h-7.5v-31.5h7.5V159C134.7,157.1,136.8,156.2,139.6,156.2z
		"/>
	<path class="st1" d="M151.9,179.3v-32.9h7.5v32.9H151.9z"/>
	<path class="st1" d="M170.5,153.7c-0.9,0.9-1.9,1.3-3,1.3s-2.2-0.4-3-1.3s-1.3-1.9-1.3-3s0.4-2.2,1.3-3c0.9-0.8,1.9-1.3,3-1.3
		s2.2,0.4,3,1.3c0.9,0.8,1.3,1.8,1.3,3S171.3,152.8,170.5,153.7z M163.7,179.3v-22.5h7.5v22.5H163.7z"/>
	<path class="st1" d="M182.6,163.3c0,0.4,0.4,0.7,1.2,1c0.8,0.3,1.7,0.5,2.7,0.9c1,0.3,2.1,0.7,3.3,1c1.1,0.4,2.1,1.1,2.8,2.2
		c0.8,1.1,1.1,2.4,1.1,4.1c0,2.6-1,4.5-2.9,5.7c-1.9,1.2-4.2,1.8-6.9,1.8c-5,0-8.4-1.8-10.1-5.4l6.5-3.3c0.6,1.6,1.7,2.5,3.5,2.5
		c1.4,0,2-0.4,2-1.2c0-0.4-0.4-0.8-1.1-1s-1.7-0.6-2.7-0.9s-2.1-0.7-3.2-1.1c-1.1-0.4-2-1.1-2.8-2.1c-0.8-1-1.1-2.2-1.1-3.7
		c0-2.4,0.9-4.3,2.7-5.6c1.8-1.3,3.9-2,6.4-2c4.4,0,7.5,1.7,9.3,5.2l-6.3,2.8c-0.7-1.3-1.6-1.9-2.8-1.9
		C183.1,162.3,182.6,162.6,182.6,163.3z"/>
	<path class="st1" d="M209.9,164h-4.7v6.5c0,1,0.4,1.6,1.1,1.8c0.7,0.2,1.9,0.3,3.6,0.2v6.8c-4.5,0.5-7.6,0.1-9.4-1.2
		c-1.8-1.4-2.7-3.8-2.7-7.4V164h-3.4v-7.2h3.4v-4l7.5-2.3v6.3h4.7V164z"/>
</g>
<g id="ELEMENTS">
	<g>
		<path class="st1" d="M52.5,339.3c0-22.4,0-44.7,0-67c0-2.9,0.2-5.8,0.9-8.7c3.1-13.1,15.1-23.4,29.3-23.7c1.1,0,2.1,0,3.2,0
			c30.3,0,60.6,0,91,0c3,0,6,0,9,0.7c12.4,2.8,22,12.9,23.8,25.6c0.3,2,0.5,4.1,0.5,6.1c0,23.3,0,46.6,0,69.9c0,1.1,0,2.2-0.1,3.2
			c-0.7,4-4.1,6.8-8,6.6c-4-0.2-7-3.2-7.3-7.3c-0.1-1.2,0-2.4,0-3.5c0-22.5,0-45.1,0-67.7c0-1.9-0.1-3.9-0.5-5.8
			c-1.4-7.3-8.1-12.2-14.3-12.3c-1.2,0-2.4,0-3.5,0c-30,0-60,0-90,0c-1.1,0-2.1,0-3.2,0c-6.4-0.1-14.3,5.1-15,14.6c-0.1,1,0,2,0,2.9
			c0,43.9,0,87.8,0,131.8c0,1.7,0,3.4,0.3,5.2c1.1,7.5,7,12.9,14.5,13.3c1.1,0,2.1,0,3.2,0c17,0,33.9,0,50.8,0c1.2,0,2.4,0,3.5,0.1
			c3.7,0.4,6.5,3.4,6.8,7.1c0.3,3.4-2,6.8-5.4,7.9c-1.1,0.3-2.3,0.5-3.5,0.5c-18.4,0-36.9,0.1-55.3,0c-15.6-0.1-28.5-12.1-30.1-27.6
			c-0.2-2.1-0.3-4.3-0.3-6.5C52.5,382.9,52.5,361.1,52.5,339.3z"/>
		<path class="st1" d="M189.9,373.3c0.7-0.4,1.4-1,2.3-1.5c8.4-5.1,17.1-5.6,25.9-1.2c7,3.5,10.9,9.6,12.3,17.3
			c1.4,7.4-0.1,14.1-4.2,20.4c-2.2,3.4-4.8,6.4-7.9,8.9c-3.5,3-7.2,5.9-10.9,8.7c-4.2,3.2-8.4,6.4-12,10.3c-3.3,3.6-8.1,3.5-11.4,0
			c-3.8-4.1-8.1-7.4-12.5-10.7c-4.3-3.2-8.6-6.5-12.4-10.3c-3.1-3.1-5.8-6.4-7.7-10.3c-3.8-8-3.8-16.1,0.1-24c4-8,10.7-12.2,19.5-13
			c6.2-0.6,12,0.8,17.1,4.6c0.4,0.3,0.9,0.6,1.4,0.9C189.4,373.3,189.5,373.3,189.9,373.3z M189.7,419.6c0.4-0.2,0.8-0.4,1.2-0.7
			c4.6-3.5,9.3-7,13.8-10.7c2.3-1.8,4.4-3.9,6.4-6c1.2-1.3,2.2-2.9,3.1-4.5c1.5-2.9,1.5-6,0.4-9.1c-1-2.9-3.1-4.8-6.1-5.3
			c-4.6-0.8-9.5,0.2-10.9,6.8c-0.1,0.7-0.2,1.3-0.3,1.9c-0.9,3.5-3.7,5.8-7.2,5.9c-3.7,0.1-6.7-2-7.7-5.6c-0.3-0.9-0.4-1.9-0.6-2.8
			c-0.6-2.1-1.6-4-3.6-5.2c-5.9-3.5-13,0-13.8,6.8c-0.4,3.4,0.5,6.4,2.5,9.1c2.1,2.9,4.7,5.4,7.5,7.6c4.8,3.7,9.6,7.4,14.4,11
			C188.8,419.3,189.2,419.4,189.7,419.6z"/>
		<path class="st1" d="M146.7,352.2c-7.3,0-14.7,0-22,0c-1.1,0-2.1,0-3.2-0.1c-4-0.5-6.9-3.9-6.8-7.8c0.1-3.8,2.9-7,6.8-7.5
			c0.9-0.1,2-0.1,2.9-0.1c15.1,0,30.2,0,45.2,0c0.7,0,1.5,0,2.3,0c4.2,0.4,7.3,3.6,7.3,7.7s-3,7.4-7.2,7.7c-1,0.1-2,0-2.9,0
			C161.6,352.2,154.1,352.2,146.7,352.2z"/>
		<path class="st1" d="M146.6,290c-7.3,0-14.7,0-22,0c-1.1,0-2.1,0-3.2-0.1c-3.8-0.5-6.7-3.7-6.7-7.5c-0.1-3.8,2.7-7.1,6.5-7.7
			c0.9-0.1,1.9-0.1,2.9-0.1c15.2,0,30.4,0,45.6,0c0.8,0,1.7,0,2.6,0.1c4,0.5,6.9,3.8,6.9,7.7s-3,7.2-6.9,7.6c-1,0.1-2,0.1-2.9,0.1
			C161.7,290,154.2,290,146.6,290z"/>
		<path class="st1" d="M147.1,321c-7.5,0-15.1,0-22.6,0c-1,0-2,0-2.9-0.1c-4-0.5-6.9-3.8-6.9-7.7s2.9-7.2,6.9-7.7
			c0.7-0.1,1.5-0.1,2.2-0.1c15.4,0,30.8,0,46.2,0c0.7,0,1.3,0,2,0c4.1,0.5,7.2,3.9,7.1,7.9c-0.1,3.9-3.1,7.1-7.1,7.5
			c-1,0.1-2,0-2.9,0C161.8,321,154.5,321,147.1,321z"/>
		<path class="st1" d="M128.2,383.2c-2,0-4.1,0.1-6.1,0c-3.3-0.2-5.7-2-6.9-5.1c-1.7-4.6,1.2-9.4,6-10.2c0.7-0.1,1.3-0.1,2-0.1
			c3.4,0,6.9,0,10.3,0c0.7,0,1.3,0,1.9,0.1c3.9,0.7,6.4,3.9,6.3,7.8c-0.1,3.9-2.9,7-6.8,7.4C132.8,383.3,130.5,383.1,128.2,383.2
			C128.2,383.1,128.2,383.2,128.2,383.2z"/>
		<path class="st1" d="M98.9,374.7c0,2.7-0.7,4.9-2.5,6.7c-2.7,2.7-6.8,2.7-9.5,0.1c-3.5-3.3-3.5-9.5,0-12.8
			c2.7-2.7,6.9-2.6,9.5,0.1C98.1,370.6,98.9,372.6,98.9,374.7z"/>
		<path class="st2" d="M98.9,344.1c0,4.5-3.5,8.2-7.6,7.9c-4.3-0.3-7.5-4.4-6.9-8.9c0.6-4.1,3.9-7.2,7.6-6.9
			C95.9,336.4,98.9,339.9,98.9,344.1z"/>
		<path class="st2" d="M98.9,312.8c0,2.9-0.7,4.8-2.2,6.3c-2.7,2.9-7.3,2.9-10.1,0.1c-1.9-1.9-2.6-4.2-2.2-6.8
			c0.6-4.1,4.1-7,7.8-6.7C96,306.1,98.9,309.5,98.9,312.8z"/>
		<path class="st1" d="M91.5,274.2c4.9-0.1,8.6,4.9,7.1,10c-1,3.7-4.6,6.1-8,5.5c-3.8-0.7-6.6-4.2-6.3-8.2
			C84.5,277.4,87.6,274.3,91.5,274.2z"/>
	</g>
</g>
</svg>
