<svg xmlns="http://www.w3.org/2000/svg" xmlns:xlink="http://www.w3.org/1999/xlink" width="142" height="150" viewBox="0 0 142 150">
  <defs>
    <clipPath id="clip-Buy_the_next_item_on_your_Wishlist_">
      <rect width="142" height="150"/>
    </clipPath>
  </defs>
  <g id="Buy_the_next_item_on_your_Wishlist_" data-name="Buy the next item on your Wishlist " clip-path="url(#clip-Buy_the_next_item_on_your_Wishlist_)">
    <g id="Group_1829" data-name="Group 1829" transform="translate(-783 -2597)">
      <circle id="Ellipse_78" data-name="Ellipse 78" cx="67.5" cy="67.5" r="67.5" transform="translate(787 2605)" fill="#faf8f6"/>
      <g id="wishlist_1_" data-name="wishlist (1)" transform="translate(817.66 2635.504)">
        <circle id="Ellipse_77" data-name="Ellipse 77" cx="4.763" cy="4.763" r="4.763" transform="translate(52.081 64.466)" fill="#90a4ae"/>
        <path id="Path_2130" data-name="Path 2130" d="M65.24,52.654H19.19a2.3,2.3,0,0,1,0-4.6H65.237a2.306,2.306,0,0,0,2.253-1.83l6.14-29.165a2.3,2.3,0,0,0-2.253-2.775H19.522L18.355,8.735a8.491,8.491,0,0,0-8.224-6.7L2.315,2H2.3a2.3,2.3,0,0,0-.009,4.6l7.816.034a3.859,3.859,0,0,1,3.739,3.045l1.55,7.368,5.557,26.389H19.187a6.907,6.907,0,1,0,0,13.815H65.237a2.3,2.3,0,0,0,0-4.6Z" transform="translate(0 4.14)" fill="#cfd8dc"/>
        <path id="Path_2131" data-name="Path 2131" d="M2.315,2H2.3a2.3,2.3,0,0,0-.009,4.6l7.816.034a3.859,3.859,0,0,1,3.739,3.045l1.55,7.368,5.557,26.389H19.187a6.907,6.907,0,1,0,0,13.815H42.979v-4.6H19.187a2.3,2.3,0,1,1,0-4.6H42.979V14.28H19.522L18.355,8.736a8.491,8.491,0,0,0-8.224-6.7Z" transform="translate(0 4.14)" fill="#b4bcc0"/>
        <path id="Path_2132" data-name="Path 2132" d="M13.6,21a4.6,4.6,0,1,0,4.6,4.6A4.6,4.6,0,0,0,13.6,21Z" transform="translate(18.63 43.469)" fill="#90a4ae"/>
        <path id="Path_2133" data-name="Path 2133" d="M13.6,21a4.6,4.6,0,0,0,0,9.21Z" transform="translate(18.63 43.469)" fill="#7d8f97"/>
        <path id="Path_2134" data-name="Path 2134" d="M21.606,21a4.6,4.6,0,1,0,0,9.21Z" transform="translate(35.191 43.469)" fill="#7d8f97"/>
        <path id="Path_2135" data-name="Path 2135" d="M29.582,36.385C27.679,34.97,11,22.257,11,11.476a11.525,11.525,0,0,1,19.955-7.81,11.525,11.525,0,0,1,19.955,7.81c0,10.782-16.679,23.494-18.582,24.91a2.3,2.3,0,0,1-2.745,0Z" transform="translate(22.77)" fill="#f44336"/>
        <path id="Path_2136" data-name="Path 2136" d="M22.512,0A11.509,11.509,0,0,0,11,11.476c0,10.782,16.679,23.494,18.582,24.91a2.293,2.293,0,0,0,1.372.454V3.666A11.529,11.529,0,0,0,22.512,0Z" transform="translate(22.77)" fill="#d43a2f"/>
      </g>
    </g>
  </g>
</svg>
